<?xml version="1.0" encoding="utf-8"?>
<!-- Generator: Adobe Illustrator 27.2.0, SVG Export Plug-In . SVG Version: 6.00 Build 0)  -->
<svg version="1.1" id="Capa_1" xmlns="http://www.w3.org/2000/svg" xmlns:xlink="http://www.w3.org/1999/xlink" x="0px" y="0px"
	 viewBox="0 0 1114.1 243.3" style="enable-background:new 0 0 1114.1 243.3;" xml:space="preserve">
<style type="text/css">
	.st0{fill:#FFFFFF;}
	.st1{fill:#D2CCDC;}
	.st2{fill:url(#SVGID_1_);}
	.st3{fill:url(#SVGID_00000176023383951173720430000010348200256713424054_);}
	.st4{fill:url(#SVGID_00000065059846186481713050000002429186569210845881_);}
	.st5{fill:url(#SVGID_00000057828789529195331080000008482013056670468281_);}
	.st6{fill:url(#SVGID_00000134950117236602236290000010037798584822573978_);}
	.st7{fill:url(#SVGID_00000016776853476892418010000006541128149105115033_);}
	.st8{fill:url(#SVGID_00000082347907313632407440000007275481059255899297_);stroke:#A594C4;stroke-miterlimit:10;}
	.st9{fill:url(#SVGID_00000180324574249313824740000006299680405360816280_);}
	.st10{fill:url(#SVGID_00000131362236330977549060000016995199953285711748_);}
	.st11{opacity:0.43;fill:#99999A;enable-background:new    ;}
	.st12{opacity:0.62;fill:#FFFFFF;enable-background:new    ;}
	.st13{opacity:0.4;fill:#FFFFFF;enable-background:new    ;}
	.st14{fill:#9C8BB7;}
	.st15{fill:url(#SVGID_00000132777522550725377680000010367448516886481043_);}
	.st16{fill:url(#SVGID_00000080185346576822219440000014075940900739255989_);}
	.st17{fill:#F7F6F6;}
	.st18{fill:#DCDCDD;}
	.st19{opacity:0.35;fill:#FFFFFE;enable-background:new    ;}
	.svg-shadow{
        animation: svg-shadow 1.5s ease-in-out infinite alternate;
      }

      @keyframes svg-shadow {
        from {
          filter: drop-shadow( 0 0 5px #fff) drop-shadow( 0 0 5px #228ceb) drop-shadow( 0 0 5px #228ceb);
        }

        to {
          
          filter: drop-shadow( 0 0 8px #fff) drop-shadow( 0 0 8px #228ceb) drop-shadow( 0 0 8px #228ceb);
        }
      }
</style>
<g>
	<g id="Juego">
		<g>
			<path class="st0" d="M744.5,101.4c-7.1,4.5-15.1,7-23,9.5c-3.8,1.2-8.1,2.4-12,3.3c-16,4-32.6,6.8-49,8.9
				c-69.9,9.3-140.7,6.3-211,3.9c-28.7-0.9-70.9-2.4-99.2-3.7c-61.6-4.1-123.8-6.4-184.7,5.4c-51.7,10-104.6,30.2-139.4,71.4
				C15.8,212.7,6.8,227,2.5,242.9l-0.6-0.1c0.8-4.1,2-8.1,3.5-12c4.5-11.7,10.9-22.6,18.5-32.5c53.8-66.6,146.1-82.7,227.2-84.2
				c24.8-0.4,49.9,0.8,74.6,2.9c32.9,2.6,66,5.5,99,7.2c78.3,3.7,157.1,1.4,235.1-5.5c12.1-1.2,24.8-2.9,36.8-4.8
				c12.1-2.1,24.3-4.5,36.1-8.2c3.9-1.3,7.8-2.7,11.4-4.6L744.5,101.4L744.5,101.4L744.5,101.4z"/>
			<path class="st0" d="M345.8,238.7c1.5-14.5,7.6-28.2,16-40c14.3-19.9,36-33.6,59.1-40.8c18.5-5.9,37.9-7.9,57.2-8.1
				c4.1-0.1,10.2,0.1,14.4,0.2c42.9,2.3,86,0.1,128.7-2.8c31-2.9,92.6-7.1,115.4-27.7c5-4.5,8.5-11.8,5.8-18.4l0.5-0.3
				c5.1,9.5-2.1,20-9.8,25.6c-22.5,16.2-55.8,21.1-82.8,24.5c-28.6,3-57.4,3.9-86.2,3.2c-23.6-0.5-48-1.7-71.7-1.8
				c-41,0.6-87.5,9.3-118.2,38.4c-10.2,9.7-18.4,21.5-23.7,34.6c-1.8,4.4-3.3,8.9-4.2,13.6L345.8,238.7L345.8,238.7L345.8,238.7z"/>
			<path class="st0" d="M733.7,98.3c18.1,9.5,37.9,16.4,54.5,28.7c7.2,5.6,16.6,14.7,12.3,24.7c-3.2,7.2-9.9,11.8-16.6,15.4
				c-16.9,8.7-35.9,11.7-54.7,13.2c-3.8,0.3-7.5,0.5-11.3,0.5l0.5,0c-5.7,1.1-11.7,3.5-16,7.5c-14.4,13.9,0.7,37.3,9.3,50.8
				l-0.5,0.4c-4.5-4.9-8.8-10.1-12.3-15.8c-5.4-8.9-9.8-19.6-6.5-30.1c2.2-7.2,8.2-12.7,14.7-15.8c3.4-1.6,6.8-2.7,10.5-3.3
				c7.3-0.1,14.8-0.4,22.2-0.9c16.3-1.7,39.3-3.6,52.3-14c10.9-9.2,8.4-17.6-2.5-25.4c-8.4-6.1-19.1-11.7-28.2-17
				c-2.4-1.3-7.3-4.2-9.7-5.6c-6.4-3.8-12.8-7.8-18.5-12.7L733.7,98.3L733.7,98.3L733.7,98.3z"/>
			<path class="st0" d="M1043.8,240.6c20.5-20.8,55.6-56.7,59.3-85.9c2-16.7-10.9-25.8-25.4-30.1c-24.6-7-50.9-4.7-76-1.8
				c-25.3,3.7-51.3,6-76.9,6.5c-41.2,1-82.6-2.5-123-10.9c-20.1-4.3-40.2-9.5-59.3-17.2l0.2-0.6c9.8,3,19.8,5.4,29.8,7.6
				c70,14.9,142.2,18.2,213.4,12.2c20.5-1.8,41.1-2.9,61.7-2.1c10.3,0.5,20.7,1.4,30.7,3.8c26,6.1,36.4,23.4,25.9,48.7
				c-8.2,19.2-22.3,35.3-36.9,49.9c-7.3,7.2-15,14.1-23.2,20.4L1043.8,240.6L1043.8,240.6L1043.8,240.6z"/>
		</g>
		<g>
			<g>
				<g>
					<g>
						<path class="st0" d="M892.2,28.5l0.2,0C892.4,28.4,892.3,28.4,892.2,28.5z"/>
						<path class="st0" d="M886.3,114.3l6.1,0l0.5,0v-0.1c9-0.7,16.4-20.8,16.5-43.6c0.1-23.3-7.3-42.2-16.6-42.2l-1.1,0.1
							c0.2,0,0.4-0.1,0.5-0.1l-6,0.6l-48.8,4.5c0,0-1,1.5-2.4,4.3l-76.8,3.4c0,0-1.6,1.9-3.5,5.2l-15.3-6c-0.7,1.5-1.3,3.1-1.8,4.6
							l-11.9-4.7c-0.7,1.6-1.3,3.2-1.9,4.8l-12.3-4.9c-0.6,1.4-1.1,2.8-1.7,4.2l-23-5.2c-1.5,3.3-2.6,6.6-3.6,9.9l-456.4,4.1
							c-11,0.1-19.9,9-20,20.1l0,0c-0.1,11.1,8.9,20.2,20,20.3l455.8,3.9c1.3,7.9,5.2,11.8,5.2,11.8l19.4-5c0.7,2.4,1.1,3.9,1.1,3.9
							l13-4.4c0.7,2.8,1.3,4.5,1.3,4.5l12.5-4.3c0.7,2.7,1.2,4.3,1.2,4.3l19.3-6.6c0.7,1,1.4,2.1,2.1,3.2l74.8,0.4
							c1.2,2.4,2.7,4.8,4.3,7.2l8.7,0.3l0,0l40.2,1.4C886.2,114.2,886.3,114.3,886.3,114.3L886.3,114.3z"/>
					</g>
					<g>
						<path class="st1" d="M213.5,73.2L213.5,73.2c-0.2-6.2,4.6-11.3,10.6-11.4l569-8.4l-0.2,39.1l-568.8-8.7
							C218.4,83.7,213.7,79,213.5,73.2L213.5,73.2z"/>
						
							<radialGradient id="SVGID_1_" cx="1137.8104" cy="-1267.7196" r="43.84" gradientTransform="matrix(-5.236017e-03 1 1 5.236017e-03 1972.0088 -1083.4041)" gradientUnits="userSpaceOnUse">
							<stop  offset="0.13" style="stop-color:#AC73F8"/>
							<stop  offset="0.28" style="stop-color:#A874F8"/>
							<stop  offset="0.41" style="stop-color:#9D78F8"/>
							<stop  offset="0.54" style="stop-color:#8B80F9"/>
							<stop  offset="0.66" style="stop-color:#718AFA"/>
							<stop  offset="0.78" style="stop-color:#4F97FB"/>
							<stop  offset="0.9" style="stop-color:#27A8FD"/>
							<stop  offset="1" style="stop-color:#00B8FF"/>
						</radialGradient>
						<path class="st2" d="M712.2,53.7c0,0-13.5,21.8-0.2,40.7l-22.9,6.4c0,0-11.6-27.1,2.8-53.7L712.2,53.7z"/>
						
							<linearGradient id="SVGID_00000180367366456848225090000012857511723950295431_" gradientUnits="userSpaceOnUse" x1="1136.6848" y1="-1258.6582" x2="1190.4087" y2="-1258.6582" gradientTransform="matrix(-5.236017e-03 1 1 5.236017e-03 1972.0088 -1083.4041)">
							<stop  offset="0" style="stop-color:#8D8C8C"/>
							<stop  offset="1" style="stop-color:#A1A0A0"/>
						</linearGradient>
						<path style="fill:url(#SVGID_00000180367366456848225090000012857511723950295431_);" d="M721.1,53.3c0,0-13.5,21.8-0.2,40.7
							l-22.9,6.4c0,0-11.6-27.1,2.8-53.7L721.1,53.3z"/>
						
							<linearGradient id="SVGID_00000112603340111402957660000006917046785770712490_" gradientUnits="userSpaceOnUse" x1="1136.7458" y1="-1249.3278" x2="1190.4698" y2="-1249.3278" gradientTransform="matrix(-5.236017e-03 1 1 5.236017e-03 1972.0088 -1083.4041)">
							<stop  offset="0" style="stop-color:#8B8787"/>
							<stop  offset="1" style="stop-color:#A1A0A0"/>
						</linearGradient>
						<path style="fill:url(#SVGID_00000112603340111402957660000006917046785770712490_);" d="M730.4,53.4c0,0-13.5,21.8-0.2,40.7
							l-22.9,6.4c0,0-11.6-27.1,2.8-53.7L730.4,53.4z"/>
						
							<linearGradient id="SVGID_00000033350177067870477430000014996974568387587004_" gradientUnits="userSpaceOnUse" x1="1136.834" y1="-1239.4171" x2="1190.558" y2="-1239.4171" gradientTransform="matrix(-5.236017e-03 1 1 5.236017e-03 1972.0088 -1083.4041)">
							<stop  offset="0" style="stop-color:#A09EA1"/>
							<stop  offset="1" style="stop-color:#A19C9F"/>
						</linearGradient>
						<path style="fill:url(#SVGID_00000033350177067870477430000014996974568387587004_);" d="M740.3,53.5c0,0-13.5,21.8-0.2,40.7
							l-22.9,6.4c0,0-11.6-27.1,2.8-53.7L740.3,53.5z"/>
						
							<linearGradient id="SVGID_00000129885584573226209360000017032197291281183411_" gradientUnits="userSpaceOnUse" x1="1137.4895" y1="-1227.1035" x2="1191.2135" y2="-1227.1035" gradientTransform="matrix(-5.236017e-03 1 1 5.236017e-03 1972.0088 -1083.4041)">
							<stop  offset="0.38" style="stop-color:#9F9FA1"/>
							<stop  offset="0.85" style="stop-color:#9E9EA1"/>
						</linearGradient>
						<path style="fill:url(#SVGID_00000129885584573226209360000017032197291281183411_);" d="M752.7,54.2c0,0-13.5,21.8-0.2,40.7
							l-22.9,6.4c0,0-11.6-27.1,2.8-53.7L752.7,54.2z"/>
						
							<linearGradient id="SVGID_00000036243972937128828380000002778849319550128817_" gradientUnits="userSpaceOnUse" x1="1136.6899" y1="-1215.7175" x2="1190.4139" y2="-1215.7175" gradientTransform="matrix(-5.236017e-03 1 1 5.236017e-03 1972.0088 -1083.4041)">
							<stop  offset="0" style="stop-color:#9FA0A1"/>
							<stop  offset="1" style="stop-color:#9F9FA1"/>
						</linearGradient>
						<path style="fill:url(#SVGID_00000036243972937128828380000002778849319550128817_);" d="M764,53.5c0,0-13.5,21.8-0.2,40.7
							l-22.9,6.4c0,0-11.6-27.1,2.8-53.7L764,53.5z"/>
						
							<linearGradient id="SVGID_00000166651276413323735500000008877561871244761518_" gradientUnits="userSpaceOnUse" x1="1122.0505" y1="-1170.3612" x2="1175.7812" y2="-1170.3612" gradientTransform="matrix(-5.236017e-03 1 1 5.236017e-03 1972.0088 -1083.4041)">
							<stop  offset="9.000000e-02" style="stop-color:#E5E5E6"/>
							<stop  offset="0.66" style="stop-color:#E8E8E9"/>
							<stop  offset="1" style="stop-color:#EFEEF0"/>
						</linearGradient>
						
							<path style="fill:url(#SVGID_00000166651276413323735500000008877561871244761518_);stroke:#A594C4;stroke-miterlimit:10;" d="
							M842.8,45.2l-83.7,3c0,0-23.7,23.2-0.3,50.3l83.7,0.4L842.8,45.2L842.8,45.2z"/>
						
							<linearGradient id="SVGID_00000147943233558057424190000000311550613283605651_" gradientUnits="userSpaceOnUse" x1="1111.5105" y1="-1107.8629" x2="1179.4486" y2="-1107.8629" gradientTransform="matrix(-5.236017e-03 1 1 5.236017e-03 1972.0088 -1083.4041)">
							<stop  offset="9.000000e-02" style="stop-color:#FCFBFB"/>
							<stop  offset="0.95" style="stop-color:#FCFCFE"/>
							<stop  offset="1" style="stop-color:#FDFDFF"/>
						</linearGradient>
						<path style="fill:url(#SVGID_00000147943233558057424190000000311550613283605651_);" d="M888.7,38.2l-51.9,2.3
							c0,0-21.5,35.1-0.3,65.3l52.4,0.4L888.7,38.2L888.7,38.2z"/>
						
							<radialGradient id="SVGID_00000157996843538608510770000005944669820113271479_" cx="812.7836" cy="-1085.6757" r="46" gradientTransform="matrix(-4.241174e-03 0.81 0.98 5.131297e-03 1934.1685 -577.9196)" gradientUnits="userSpaceOnUse">
							<stop  offset="9.000000e-02" style="stop-color:#AC73F8"/>
							<stop  offset="0.24" style="stop-color:#A874F8"/>
							<stop  offset="0.38" style="stop-color:#9D78F8"/>
							<stop  offset="0.52" style="stop-color:#8B80F9"/>
							<stop  offset="0.65" style="stop-color:#718AFA"/>
							<stop  offset="0.77" style="stop-color:#4F97FB"/>
							<stop  offset="0.9" style="stop-color:#27A8FD"/>
							<stop  offset="1" style="stop-color:#00B8FF"/>
						</radialGradient>
						<path style="fill:url(#SVGID_00000157996843538608510770000005944669820113271479_);" d="M888.3,106.1
							c-9-0.1-16.1-16.3-16-34.7s7.4-33.3,16.4-33.2s16.2,15,16,33.4S897.3,106.2,888.3,106.1L888.3,106.1z"/>
						
							<rect x="845.9" y="49.3" transform="matrix(5.236017e-03 -1 1 5.236017e-03 772.1137 920.3887)" class="st11" width="5.6" height="45.7"/>
						<polygon class="st11" points="829.2,89.1 827.7,83.5 872.8,83.7 874.3,89.3 						"/>
						<polygon class="st11" points="837.1,101.7 833.3,96.1 877,96.3 880.6,101.9 						"/>
						<polygon class="st11" points="829.4,56.1 827.8,61.7 872.4,61.9 873.6,56.3 						"/>
						<polygon class="st11" points="836.9,45 833.1,50.6 875.7,50 878.9,44.6 						"/>
						<path class="st0" d="M834.1,40.7c0,0-20.2,33.7-0.3,64.9l6.6,0.2c0,0-22.3-31.2,0.8-65.8L834.1,40.7z"/>
						<path class="st12" d="M823.5,39.7c0,0-20.2,33.7-0.3,64.9l6.6,0.2c0,0-22.3-31.2,0.8-65.8L823.5,39.7z"/>
						<path class="st13" d="M811.1,38.9c0,0-20.2,33.7-0.3,64.9l6.6,0.2c0,0-22.3-31.2,0.8-65.8L811.1,38.9z"/>
						<path class="st0" d="M888.2,37.4c0,0-11.7,0.3-15.2,25c-0.9,6.4-0.8,13,0.2,19.4c1.6,9.6,5.4,22.7,15.1,24.3l-5.8,0
							c0,0-11.7-4.3-12.7-34.2c0,0-1.1-26.4,12.5-33.9C882.3,37.9,888.2,37.4,888.2,37.4z"/>
					</g>
					<path class="st14" d="M685.8,90.5l-462.2-6.3c-5.6-0.1-10.1-4.8-10.1-10.5l0,0h470.8C684.2,73.7,683.1,84.2,685.8,90.5
						L685.8,90.5z"/>
					<path class="st14" d="M772.5,47.2c0,0,6.7,22.8,24.1,25.8c0,0-15.4,5.8-22,25.6l-15.7-0.1c0,0-24.6-23.9,0.3-50.3L772.5,47.2
						L772.5,47.2z"/>
					
						<linearGradient id="SVGID_00000006692663042965858020000004403513772180900780_" gradientUnits="userSpaceOnUse" x1="1136.8347" y1="-1189.5886" x2="1188.2407" y2="-1189.5886" gradientTransform="matrix(-5.236017e-03 1 1 5.236017e-03 1972.0088 -1083.4041)">
						<stop  offset="9.000000e-02" style="stop-color:#E5E5E6"/>
						<stop  offset="0.66" style="stop-color:#E8E8E9"/>
						<stop  offset="1" style="stop-color:#EFEEF0"/>
					</linearGradient>
					<path style="fill:url(#SVGID_00000006692663042965858020000004403513772180900780_);" d="M769.5,47.2c0,0,6,21.2,18.9,25.8
						c0,0-16.3,11.5-18.3,25.6l-5,0c0,0,6.7-23.5,18.1-25.1c0,0-15.6-8.8-18.8-25.7L769.5,47.2L769.5,47.2z"/>
					
						<linearGradient id="SVGID_00000123418004182003282150000015204783647752806035_" gradientUnits="userSpaceOnUse" x1="1159.0205" y1="-1200.3596" x2="1165.9305" y2="-1200.3596" gradientTransform="matrix(-5.236017e-03 1 1 5.236017e-03 1972.0476 -1083.3677)">
						<stop  offset="9.000000e-02" style="stop-color:#E5E5E6"/>
						<stop  offset="0.66" style="stop-color:#E8E8E9"/>
						<stop  offset="1" style="stop-color:#EFEEF0"/>
					</linearGradient>
					<path style="fill:url(#SVGID_00000123418004182003282150000015204783647752806035_);" d="M758.1,72.8c0-1.9,3.4-3.4,7.6-3.4
						s7.5,1.6,7.5,3.5c0,1.9-3.4,3.4-7.6,3.4C761.4,76.2,758.1,74.7,758.1,72.8z"/>
				</g>
				<g>
					<g>
						<path class="st17" d="M496,58.1L496,58.1l-2.9-1.8l-0.4,0.9c-4.6,10.5-4.7,22.3-0.5,32.9l3.3-1.4
							C491.3,78.1,491.4,68.6,496,58.1L496,58.1z"/>
						<path class="st18" d="M492.7,57.2l0.4-0.9l-4.7-0.5c-0.3,0-1.8,0.5-1.9,0.8l-0.4,0.5c-4.7,10.4-4.6,21.7-0.5,32.4l1.5,1.1
							l5.1-0.4C488,79.5,488.2,67.7,492.7,57.2z"/>
					</g>
					<g>
						<path class="st17" d="M504.1,57.9L504.1,57.9l-2.6-1.8l-0.3,0.9c-4.1,10.5-4.2,22.3-0.5,32.9l3-1.4
							C499.9,77.9,500.1,68.5,504.1,57.9L504.1,57.9z"/>
						<path class="st18" d="M501.2,57.1l0.3-0.9l-4.1-0.5c-0.3,0-1.6,0.5-1.7,0.8l-0.3,0.5c-4.2,10.5-4.1,21.8-0.5,32.4l1.3,1.1
							l4.5-0.4C497,79.3,497.2,67.6,501.2,57.1L501.2,57.1z"/>
					</g>
					<g>
						<path class="st17" d="M514.3,57.9L514.3,57.9l-2.9-1.8L511,57c-4.6,10.5-4.7,22.3-0.5,32.9l3.3-1.4
							C509.6,77.9,509.8,68.4,514.3,57.9L514.3,57.9z"/>
						<path class="st18" d="M511,57l0.4-0.9l-4.7-0.5c-0.3,0-1.8,0.5-1.9,0.8l-0.4,0.5c-4.7,10.4-4.6,21.7-0.5,32.4l1.5,1.1l5.1-0.4
							C506.3,79.3,506.5,67.5,511,57z"/>
					</g>
					<g>
						<path class="st0" d="M522.4,57.7L522.4,57.7l-2.6-1.8l-0.3,0.9c-4.1,10.5-4.2,22.3-0.5,32.9l3-1.4
							C518.2,77.7,518.4,68.2,522.4,57.7L522.4,57.7z"/>
						<path class="st18" d="M519.5,56.8l0.3-0.9l-4.1-0.5c-0.3,0-1.6,0.5-1.7,0.8l-0.3,0.5c-4.2,10.5-4.1,21.8-0.5,32.4l1.3,1.1
							l4.5-0.4C515.3,79.1,515.5,67.4,519.5,56.8L519.5,56.8z"/>
					</g>
					<path class="st19" d="M519.6,81.3l-35.8,2.6c-3.3-10,0.4-21.9,0.4-21.9l35.8,2.7C520.1,64.7,518.3,70.2,519.6,81.3L519.6,81.3z
						"/>
				</g>
				<g>
					<g>
						<path class="st17" d="M304.5,58.5L304.5,58.5l-2.9-1.8l-0.4,0.9c-4.6,10.5-4.7,22.3-0.5,32.9l3.3-1.4
							C299.8,78.5,300,69,304.5,58.5L304.5,58.5z"/>
						<path class="st18" d="M301.2,57.6l0.4-0.9l-4.7-0.5c-0.3,0-1.8,0.5-1.9,0.8l-0.4,0.5C290,68,290,79.2,294.2,89.9l1.5,1.1
							l5.1-0.4C296.5,79.9,296.7,68.1,301.2,57.6z"/>
					</g>
					<g>
						<path class="st17" d="M312.6,58.4L312.6,58.4l-2.6-1.8l-0.3,0.9c-4.1,10.5-4.2,22.3-0.5,32.9l3-1.4
							C308.4,78.4,308.6,68.9,312.6,58.4L312.6,58.4z"/>
						<path class="st18" d="M309.7,57.5l0.3-0.9l-4.1-0.5c-0.3,0-1.6,0.5-1.7,0.8l-0.3,0.5c-4.2,10.5-4.1,21.7-0.5,32.4l1.3,1.1
							l4.5-0.4C305.5,79.8,305.7,68,309.7,57.5L309.7,57.5z"/>
					</g>
					<g>
						<path class="st17" d="M322.8,58.3L322.8,58.3l-2.9-1.8l-0.4,0.9c-4.6,10.5-4.7,22.3-0.5,32.9l3.3-1.4
							C318.2,78.3,318.3,68.8,322.8,58.3L322.8,58.3z"/>
						<path class="st18" d="M319.5,57.4l0.4-0.9l-4.7-0.5c-0.3,0-1.8,0.5-1.9,0.8l-0.4,0.5c-4.7,10.4-4.6,21.7-0.5,32.4l1.5,1.1
							l5.1-0.4C314.8,79.7,315,67.9,319.5,57.4z"/>
					</g>
					<g>
						<path class="st0" d="M331,58.1L331,58.1l-2.6-1.8l-0.3,0.9c-4.1,10.5-4.2,22.3-0.5,32.9l3-1.4C326.8,78.2,326.9,68.7,331,58.1
							L331,58.1z"/>
						<path class="st18" d="M328,57.3l0.3-0.9l-4.1-0.5c-0.3,0-1.6,0.5-1.7,0.8l-0.3,0.5c-4.2,10.5-4.1,21.7-0.5,32.4l1.3,1.1
							l4.5-0.4C323.8,79.5,324,67.8,328,57.3L328,57.3z"/>
					</g>
					<path class="st19" d="M328.1,81.7l-35.8,2.6c-3.3-10,0.4-21.9,0.4-21.9l35.8,2.7C328.6,65.1,326.8,70.6,328.1,81.7L328.1,81.7z
						"/>
				</g>
			</g>
			<g>
				<path class="st0" d="M908.3,82c-0.5-6.8-6.5-30.9-16.3-27.1c-6.2,2.7-6.8,10.6-6.9,16.6c0.1,4.5,0.3,9.3,2.1,13.5
					c0.8,2,2,3.9,3.4,5.4c0.9,0.9,1.7,1.6,2.6,1.6c1.6-0.6,2.7-3.3,3.3-5l0.6-1.6c0.2-0.9,0.7-2.2,0.8-3.2c1.1-4.5,0-9.6-3.5-12.7
					l0.7,0.2c-4.1-0.8-4.2,3.7-3.7,6.8c0.2,1.3,0.5,2.6,0.8,3.9l-0.5,0.2c-1.6-3.1-3.4-6.6-2.5-10.3c0.7-2.8,3.8-4.3,6.6-4
					c1.4,0.8,2.6,1.8,3.6,3c4.5,5.4,4.3,13.1,1.9,19.4c-4.8,13.4-14.5,8.6-18.3-2.4c-0.9-2.5-1.3-5.1-1.5-7.6c-0.3-5-0.3-10,0.8-15
					c0.8-3.7,2.6-7.8,5.9-10.1c3.7-2.7,8.2-2.6,11.5,0.7c5.9,6.2,8.7,18.8,9,27.2c0,0.2,0,0.3-0.2,0.6L908.3,82L908.3,82L908.3,82z"
					/>
				<path class="st0" d="M687.4,45.8c0,0-13.3,27.9-2.6,54.8l3.9,0.4c0,0-12.2-26.8,3-55.5L687.4,45.8L687.4,45.8z"/>
				<path class="st0" d="M752.3,47.7c0,0-11.6,25-0.9,51.8l5.8-2.2c0,0-15.8-18.9-0.7-47.5L752.3,47.7L752.3,47.7z"/>
			</g>
		</g>
	</g>
</g>
</svg>
