<?xml version="1.0" encoding="utf-8"?>
<!-- Generator: Adobe Illustrator 27.2.0, SVG Export Plug-In . SVG Version: 6.00 Build 0)  -->
<svg version="1.1" id="Capa_1" xmlns="http://www.w3.org/2000/svg" xmlns:xlink="http://www.w3.org/1999/xlink" x="0px" y="0px"
	 viewBox="0 0 1114.1 243.3" style="enable-background:new 0 0 1114.1 243.3;" xml:space="preserve">
<style type="text/css">
	.st0{fill:none;stroke:#FFFFFF;stroke-width:6;stroke-miterlimit:10;}
	.st1{fill:#FFFFFF;}
	.st2{fill:#DB7525;}
	.st3{fill:url(#SVGID_1_);}
	.st4{fill:url(#SVGID_00000048485187262133823780000011052569749517409934_);}
	.st5{fill:url(#SVGID_00000068635639975896667780000017307101332150442938_);}
	.st6{fill:url(#SVGID_00000105391439182665191550000003516862424580650883_);}
	.st7{fill:url(#SVGID_00000162345514911755509320000002805476760568608943_);}
	.st8{fill:url(#SVGID_00000080164801786030017970000009469739996714815399_);}
	.st9{fill:url(#SVGID_00000009591562524638144780000000601950335962389946_);stroke:#C35000;stroke-miterlimit:10;}
	.st10{fill:url(#SVGID_00000156567695368839891720000006088268783691380611_);}
	.st11{fill:url(#SVGID_00000160152407647031234520000010814542714309676946_);}
	.st12{opacity:0.43;fill:#992424;enable-background:new    ;}
	.st13{opacity:0.62;fill:#FFFFFF;enable-background:new    ;}
	.st14{opacity:0.4;fill:#FFFFFF;enable-background:new    ;}
	.st15{fill:#B64F00;}
	.st16{fill:url(#SVGID_00000168093595743674353900000011853781447000495549_);}
	.st17{fill:url(#SVGID_00000052097960830172086630000005528359307408934845_);}
	.st18{fill:#F6DBA4;}
	.st19{fill:#DCB172;}
	.st20{fill:#FFEDE0;}
	.st21{opacity:0.35;fill:#FFEBD3;enable-background:new    ;}
	.st22{fill:url(#SVGID_00000079448137107378879250000002893045089146248080_);}
	.st23{fill:url(#SVGID_00000086689623014056236720000004142957568790485128_);}
	.st24{fill:url(#SVGID_00000104708256434477487030000002645796364891427735_);}
	.st25{fill:url(#SVGID_00000013163741654193944250000016489473374987942074_);}
	.st26{fill:url(#SVGID_00000168803329956426315670000002302068788281985983_);}
	.st27{fill:url(#SVGID_00000045579294852209929200000018127779809258325685_);}
	.st28{fill:url(#SVGID_00000182493003324462939880000011875206420179124865_);stroke:#C35000;stroke-miterlimit:10;}
	.st29{fill:url(#SVGID_00000109026244788910216270000014203134717828538765_);}
	.st30{fill:url(#SVGID_00000016764016816421849160000009159254448555001788_);}
	.st31{fill:url(#SVGID_00000158750388027093096760000009015850394487321753_);}
	.st32{fill:url(#SVGID_00000075161095213619968870000013604628452988162708_);}
</style>
<g>
	<g id="Capa_3">
		<g>
			<g>
				<path class="st0" d="M744.3,101.1c0,0-63.5,44.3-424,18C28.8,97.8,2.2,242.8,2.2,242.8"/>
				<path class="st0" d="M346.1,238.7c0,0,9.5-92.2,152.6-87.5c277.7,9.1,243.9-50.3,243.9-50.3"/>
				<path class="st0" d="M733.5,98.5c24.8,16.8,74.8,33.4,65.9,53.3c-11.6,25.9-81.5,25.8-81.5,25.8s-49.5,7.2-6.4,61.7"/>
				<path class="st0" d="M1044,240.9c0,0,169-144.2-52-118.9c-148.7,17-249.3-21.1-249.3-21.1"/>
			</g>
			<g>
				<path class="st0" d="M745.1,101.2c0,0-63.5,44.3-424,18C29.6,97.9,3,242.9,3,242.9"/>
				<path class="st0" d="M346.9,238.8c0,0,9.5-92.2,152.6-87.5c277.7,9.1,243.9-50.3,243.9-50.3"/>
				<path class="st0" d="M734.2,98.6c24.8,16.8,74.8,33.4,65.9,53.3c-11.6,25.9-81.5,25.8-81.5,25.8s-49.5,7.2-6.4,61.7"/>
				<path class="st0" d="M1044.7,241c0,0,169-144.2-52-118.9c-148.7,17-249.3-21.1-249.3-21.1"/>
			</g>
			<g>
				<g>
					<g>
						<g>
							<path class="st1" d="M893.3,28l0.2,0C893.5,27.9,893.5,27.9,893.3,28z"/>
							<path class="st1" d="M887.5,113.8l6.1,0l0.5,0v-0.1c9-0.7,16.4-20.8,16.5-43.6C910.7,46.9,903.3,28,894,28l-1.1,0.1
								c0.2,0,0.4-0.1,0.5-0.1l-6,0.6L838.6,33c0,0-1,1.5-2.4,4.3l-76.8,3.4c0,0-1.6,1.9-3.5,5.2l-15.3-6c-0.7,1.5-1.3,3.1-1.8,4.6
								l-11.9-4.7c-0.7,1.6-1.3,3.2-1.9,4.8l-12.3-4.9c-0.6,1.4-1.1,2.8-1.7,4.2l-23-5.2c-1.5,3.3-2.6,6.6-3.6,9.9L228,52.7
								c-11,0.1-19.9,9-20,20.1l0,0c-0.1,11.1,8.9,20.2,20,20.3l455.8,3.9c1.3,7.9,5.2,11.8,5.2,11.8l19.4-5
								c0.7,2.4,1.1,3.9,1.1,3.9l13-4.4c0.7,2.8,1.3,4.5,1.3,4.5l12.5-4.3c0.7,2.7,1.2,4.3,1.2,4.3l19.3-6.6c0.7,1,1.4,2.1,2.1,3.2
								l74.8,0.4c1.2,2.4,2.7,4.8,4.3,7.2l8.7,0.3l0,0l40.2,1.4C887.3,113.7,887.4,113.8,887.5,113.8L887.5,113.8z"/>
						</g>
						<g>
							<path class="st2" d="M214.6,72.7L214.6,72.7c-0.2-6.2,4.6-11.3,10.6-11.4l569-8.4L794.1,92l-568.8-8.7
								C219.5,83.2,214.8,78.5,214.6,72.7L214.6,72.7z"/>
							
								<linearGradient id="SVGID_1_" gradientUnits="userSpaceOnUse" x1="863.9174" y1="371.1459" x2="917.6414" y2="371.1459" gradientTransform="matrix(-5.236017e-03 1 1 5.236017e-03 332.0289 -819.274)">
								<stop  offset="0" style="stop-color:#5241EC"/>
								<stop  offset="1" style="stop-color:#C949FF"/>
							</linearGradient>
							<path class="st3" d="M712.3,53.2c0,0-13.5,21.8-0.2,40.7l-22.9,6.4c0,0-11.6-27.1,2.8-53.7L712.3,53.2z"/>
							
								<linearGradient id="SVGID_00000066498303280492668830000015232717333361598877_" gradientUnits="userSpaceOnUse" x1="863.4555" y1="381.0436" x2="917.1795" y2="381.0436" gradientTransform="matrix(-5.236017e-03 1 1 5.236017e-03 332.0289 -819.274)">
								<stop  offset="0" style="stop-color:#009BEA"/>
								<stop  offset="1" style="stop-color:#2E5CFF"/>
							</linearGradient>
							<path style="fill:url(#SVGID_00000066498303280492668830000015232717333361598877_);" d="M722.2,52.8c0,0-13.5,21.8-0.2,40.7
								l-22.9,6.4c0,0-11.6-27.1,2.8-53.7C701.9,46.1,722.2,52.8,722.2,52.8z"/>
							
								<linearGradient id="SVGID_00000071525842636053406510000001971757665637671345_" gradientUnits="userSpaceOnUse" x1="863.5267" y1="390.3741" x2="917.2507" y2="390.3741" gradientTransform="matrix(-5.236017e-03 1 1 5.236017e-03 332.0289 -819.274)">
								<stop  offset="0" style="stop-color:#C6E800"/>
								<stop  offset="1" style="stop-color:#00FF9E"/>
							</linearGradient>
							<path style="fill:url(#SVGID_00000071525842636053406510000001971757665637671345_);" d="M731.6,52.9c0,0-13.5,21.8-0.2,40.7
								l-22.9,6.4c0,0-11.6-27.1,2.8-53.7L731.6,52.9z"/>
							
								<linearGradient id="SVGID_00000145748768074443742010000010920359979561825161_" gradientUnits="userSpaceOnUse" x1="863.6047" y1="400.2946" x2="917.3287" y2="400.2946" gradientTransform="matrix(-5.236017e-03 1 1 5.236017e-03 332.0289 -819.274)">
								<stop  offset="0" style="stop-color:#FFB11B"/>
								<stop  offset="1" style="stop-color:#FFD200"/>
							</linearGradient>
							<path style="fill:url(#SVGID_00000145748768074443742010000010920359979561825161_);" d="M741.5,53c0,0-13.5,21.8-0.2,40.7
								l-22.9,6.4c0,0-11.6-27.1,2.8-53.7C721.1,46.4,741.5,53,741.5,53z"/>
							
								<linearGradient id="SVGID_00000103981560167668126400000009605634282597089464_" gradientUnits="userSpaceOnUse" x1="864.2603" y1="412.6082" x2="917.9843" y2="412.6082" gradientTransform="matrix(-5.236017e-03 1 1 5.236017e-03 332.0289 -819.274)">
								<stop  offset="0.38" style="stop-color:#FF8726"/>
								<stop  offset="0.85" style="stop-color:#FF3E12"/>
							</linearGradient>
							<path style="fill:url(#SVGID_00000103981560167668126400000009605634282597089464_);" d="M753.8,53.7c0,0-13.5,21.8-0.2,40.7
								l-22.9,6.4c0,0-11.6-27.1,2.8-53.7C733.5,47.1,753.8,53.7,753.8,53.7z"/>
							
								<linearGradient id="SVGID_00000044155888878322969550000001338928843510985135_" gradientUnits="userSpaceOnUse" x1="863.4706" y1="423.9943" x2="917.1946" y2="423.9943" gradientTransform="matrix(-5.236017e-03 1 1 5.236017e-03 332.0289 -819.274)">
								<stop  offset="0" style="stop-color:#FF1884"/>
								<stop  offset="1" style="stop-color:#FF3121"/>
							</linearGradient>
							<path style="fill:url(#SVGID_00000044155888878322969550000001338928843510985135_);" d="M765.2,53c0,0-13.5,21.8-0.2,40.7
								l-22.9,6.4c0,0-11.6-27.1,2.8-53.7L765.2,53z"/>
							
								<linearGradient id="SVGID_00000180356755198268111270000017342814000925655957_" gradientUnits="userSpaceOnUse" x1="848.8705" y1="469.3406" x2="902.6012" y2="469.3406" gradientTransform="matrix(-5.236017e-03 1 1 5.236017e-03 332.0289 -819.274)">
								<stop  offset="9.000000e-02" style="stop-color:#E5A37F"/>
								<stop  offset="0.39" style="stop-color:#E59F7C"/>
								<stop  offset="0.66" style="stop-color:#E89474"/>
								<stop  offset="0.92" style="stop-color:#ED8268"/>
								<stop  offset="1" style="stop-color:#EF7B63"/>
							</linearGradient>
							
								<path style="fill:url(#SVGID_00000180356755198268111270000017342814000925655957_);stroke:#C35000;stroke-miterlimit:10;" d="
								M844,44.7l-83.7,3c0,0-23.7,23.2-0.3,50.3l83.7,0.4L844,44.7L844,44.7z"/>
							
								<linearGradient id="SVGID_00000152251472337943836650000015468374051905019805_" gradientUnits="userSpaceOnUse" x1="838.3305" y1="531.8489" x2="906.2687" y2="531.8489" gradientTransform="matrix(-5.236017e-03 1 1 5.236017e-03 332.0289 -819.274)">
								<stop  offset="9.000000e-02" style="stop-color:#FBDE88"/>
								<stop  offset="0.29" style="stop-color:#FBDA86"/>
								<stop  offset="0.48" style="stop-color:#FBCF81"/>
								<stop  offset="0.65" style="stop-color:#FCBD79"/>
								<stop  offset="0.82" style="stop-color:#FDA36E"/>
								<stop  offset="0.99" style="stop-color:#FE8260"/>
								<stop  offset="1" style="stop-color:#FF805F"/>
							</linearGradient>
							<path style="fill:url(#SVGID_00000152251472337943836650000015468374051905019805_);" d="M889.8,37.7l-51.9,2.3
								c0,0-21.5,35.1-0.3,65.3l52.4,0.4L889.8,37.7L889.8,37.7z"/>
							
								<radialGradient id="SVGID_00000078041519107984323650000011798796361996697766_" cx="1825.8937" cy="563.8643" r="46" gradientTransform="matrix(-4.241174e-03 0.81 0.98 5.131297e-03 320.5486 -1402.6595)" gradientUnits="userSpaceOnUse">
								<stop  offset="9.000000e-02" style="stop-color:#AB73F7"/>
								<stop  offset="0.24" style="stop-color:#A774F7"/>
								<stop  offset="0.38" style="stop-color:#9C78F7"/>
								<stop  offset="0.52" style="stop-color:#8A80F8"/>
								<stop  offset="0.65" style="stop-color:#708AF9"/>
								<stop  offset="0.78" style="stop-color:#4E97FB"/>
								<stop  offset="0.9" style="stop-color:#26A7FD"/>
								<stop  offset="1" style="stop-color:#00B7FF"/>
							</radialGradient>
							<path style="fill:url(#SVGID_00000078041519107984323650000011798796361996697766_);" d="M889.5,105.6
								c-9-0.1-16.1-16.3-16-34.7c0.1-18.4,7.4-33.3,16.4-33.2s16.2,15,16,33.4C905.8,89.5,898.4,105.7,889.5,105.6L889.5,105.6z"/>
							
								<rect x="847" y="48.7" transform="matrix(5.236017e-03 -1 1 5.236017e-03 773.7592 921.0281)" class="st12" width="5.6" height="45.7"/>
							<polygon class="st12" points="830.4,88.6 828.8,83 873.9,83.2 875.5,88.8 							"/>
							<polygon class="st12" points="838.2,101.2 834.5,95.6 878.2,95.8 881.7,101.4 							"/>
							<polygon class="st12" points="830.6,55.6 828.9,61.2 873.5,61.4 874.8,55.8 							"/>
							<polygon class="st12" points="838.1,44.5 834.2,50.1 876.8,49.5 880,44.1 							"/>
							<path class="st1" d="M835.2,40.2c0,0-20.2,33.7-0.3,64.9l6.6,0.2c0,0-22.3-31.2,0.8-65.8L835.2,40.2z"/>
							<path class="st13" d="M824.7,39.2c0,0-20.2,33.7-0.3,64.9l6.6,0.2c0,0-22.3-31.2,0.8-65.8C831.7,38.6,824.7,39.2,824.7,39.2z
								"/>
							<path class="st14" d="M812.2,38.3c0,0-20.2,33.7-0.3,64.9l6.6,0.2c0,0-22.3-31.2,0.8-65.8L812.2,38.3z"/>
							<path class="st1" d="M889.4,36.9c0,0-11.7,0.3-15.2,25c-0.9,6.4-0.8,13,0.2,19.4c1.6,9.6,5.4,22.7,15.1,24.3l-5.8,0
								c0,0-11.7-4.3-12.7-34.2c0,0-1.1-26.4,12.5-33.9C883.4,37.4,889.4,36.9,889.4,36.9z"/>
						</g>
						<path class="st15" d="M686.9,90l-462.2-6.3c-5.6-0.1-10.1-4.8-10.1-10.5l0,0h470.8C685.3,73.2,684.2,83.7,686.9,90L686.9,90z"
							/>
						<path class="st15" d="M773.6,46.7c0,0,6.7,22.8,24.1,25.8c0,0-15.4,5.8-22,25.6L760,98c0,0-24.6-23.9,0.3-50.3L773.6,46.7
							L773.6,46.7z"/>
						
							<linearGradient id="SVGID_00000179610504821111494500000000349520986323235493_" gradientUnits="userSpaceOnUse" x1="863.6155" y1="450.1233" x2="915.0215" y2="450.1233" gradientTransform="matrix(-5.236017e-03 1 1 5.236017e-03 332.0289 -819.274)">
							<stop  offset="9.000000e-02" style="stop-color:#E5A37F"/>
							<stop  offset="0.39" style="stop-color:#E59F7C"/>
							<stop  offset="0.66" style="stop-color:#E89474"/>
							<stop  offset="0.92" style="stop-color:#ED8268"/>
							<stop  offset="1" style="stop-color:#EF7B63"/>
						</linearGradient>
						<path style="fill:url(#SVGID_00000179610504821111494500000000349520986323235493_);" d="M770.7,46.7c0,0,6,21.2,18.9,25.8
							c0,0-16.3,11.5-18.3,25.6l-5,0c0,0,6.7-23.5,18.1-25.1c0,0-15.6-8.8-18.8-25.7L770.7,46.7L770.7,46.7z"/>
						
							<linearGradient id="SVGID_00000063615414976235810490000005601006146135177618_" gradientUnits="userSpaceOnUse" x1="885.8406" y1="439.3404" x2="892.7505" y2="439.3404" gradientTransform="matrix(-5.236017e-03 1 1 5.236017e-03 332.0656 -819.2697)">
							<stop  offset="9.000000e-02" style="stop-color:#E5A37F"/>
							<stop  offset="0.39" style="stop-color:#E59F7C"/>
							<stop  offset="0.66" style="stop-color:#E89474"/>
							<stop  offset="0.92" style="stop-color:#ED8268"/>
							<stop  offset="1" style="stop-color:#EF7B63"/>
						</linearGradient>
						<path style="fill:url(#SVGID_00000063615414976235810490000005601006146135177618_);" d="M759.2,72.3c0-1.9,3.4-3.4,7.6-3.4
							c4.2,0,7.5,1.6,7.5,3.5c0,1.9-3.4,3.4-7.6,3.4C762.6,75.7,759.2,74.2,759.2,72.3z"/>
					</g>
					<g>
						<g>
							<path class="st18" d="M497.1,57.6L497.1,57.6l-2.9-1.8l-0.4,0.9c-4.6,10.5-4.7,22.3-0.5,32.9l3.3-1.4
								C492.5,77.6,492.6,68.1,497.1,57.6L497.1,57.6z"/>
							<path class="st19" d="M493.9,56.7l0.4-0.9l-4.7-0.5c-0.3,0-1.8,0.5-1.9,0.8l-0.4,0.5c-4.7,10.4-4.6,21.7-0.5,32.4l1.5,1.1
								l5.1-0.4C489.1,79,489.3,67.2,493.9,56.7z"/>
						</g>
						<g>
							<path class="st18" d="M505.3,57.4L505.3,57.4l-2.6-1.8l-0.3,0.9c-4.1,10.5-4.2,22.3-0.5,32.9l3-1.4
								C501.1,77.4,501.2,68,505.3,57.4L505.3,57.4z"/>
							<path class="st19" d="M502.4,56.6l0.3-0.9l-4.1-0.5c-0.3,0-1.6,0.5-1.7,0.8l-0.3,0.5c-4.2,10.5-4.1,21.7-0.5,32.4l1.3,1.1
								l4.5-0.4C498.1,78.8,498.3,67.1,502.4,56.6L502.4,56.6z"/>
						</g>
						<g>
							<path class="st18" d="M515.5,57.4L515.5,57.4l-2.9-1.8l-0.4,0.9c-4.6,10.5-4.7,22.3-0.5,32.9L515,88
								C510.8,77.4,510.9,67.9,515.5,57.4L515.5,57.4z"/>
							<path class="st19" d="M512.2,56.5l0.4-0.9l-4.7-0.5c-0.3,0-1.8,0.5-1.9,0.8l-0.4,0.5c-4.7,10.4-4.6,21.7-0.5,32.4l1.5,1.1
								l5.1-0.4C507.4,78.8,507.6,67,512.2,56.5z"/>
						</g>
						<g>
							<path class="st20" d="M523.6,57.2L523.6,57.2l-2.6-1.8l-0.3,0.9c-4.1,10.5-4.2,22.3-0.5,32.9l3-1.4
								C519.4,77.2,519.5,67.7,523.6,57.2L523.6,57.2z"/>
							<path class="st19" d="M520.7,56.3l0.3-0.9l-4.1-0.5c-0.3,0-1.6,0.5-1.7,0.8l-0.3,0.5c-4.2,10.5-4.1,21.7-0.5,32.4l1.3,1.1
								l4.5-0.4C516.4,78.6,516.6,66.8,520.7,56.3L520.7,56.3z"/>
						</g>
						<path class="st21" d="M520.8,80.8L485,83.4c-3.3-10,0.4-21.9,0.4-21.9l35.8,2.7C521.2,64.2,519.4,69.7,520.8,80.8L520.8,80.8z
							"/>
					</g>
					<g>
						<g>
							<path class="st18" d="M305.6,58L305.6,58l-2.9-1.8l-0.4,0.9c-4.6,10.5-4.7,22.3-0.5,32.9l3.3-1.4C301,78,301.1,68.5,305.6,58
								L305.6,58z"/>
							<path class="st19" d="M302.4,57.1l0.4-0.9l-4.7-0.5c-0.3,0-1.8,0.5-1.9,0.8l-0.4,0.5c-4.7,10.4-4.6,21.7-0.5,32.4l1.5,1.1
								l5.1-0.4C297.6,79.4,297.8,67.6,302.4,57.1z"/>
						</g>
						<g>
							<path class="st18" d="M313.8,57.9L313.8,57.9l-2.6-1.8l-0.3,0.9c-4.1,10.5-4.2,22.3-0.5,32.9l3-1.4
								C309.6,77.9,309.7,68.4,313.8,57.9L313.8,57.9z"/>
							<path class="st19" d="M310.9,57l0.3-0.9l-4.1-0.5c-0.3,0-1.6,0.5-1.7,0.8l-0.3,0.5c-4.2,10.5-4.1,21.7-0.5,32.4l1.3,1.1
								l4.5-0.4C306.6,79.3,306.8,67.5,310.9,57L310.9,57z"/>
						</g>
						<g>
							<path class="st18" d="M324,57.8L324,57.8l-2.9-1.8l-0.4,0.9c-4.6,10.5-4.7,22.3-0.5,32.9l3.3-1.4
								C319.3,77.8,319.4,68.3,324,57.8L324,57.8z"/>
							<path class="st19" d="M320.7,56.9l0.4-0.9l-4.7-0.5c-0.3,0-1.8,0.5-1.9,0.8l-0.4,0.5c-4.7,10.5-4.6,21.7-0.5,32.4l1.5,1.1
								l5.1-0.4C316,79.2,316.1,67.4,320.7,56.9z"/>
						</g>
						<g>
							<path class="st20" d="M332.1,57.6L332.1,57.6l-2.6-1.8l-0.3,0.9c-4.1,10.5-4.2,22.3-0.5,32.9l3-1.4
								C327.9,77.6,328,68.1,332.1,57.6L332.1,57.6z"/>
							<path class="st19" d="M329.2,56.8l0.3-0.9l-4.1-0.5c-0.3,0-1.6,0.5-1.7,0.8l-0.3,0.5c-4.2,10.5-4.1,21.7-0.5,32.4l1.3,1.1
								l4.5-0.4C324.9,79,325.1,67.3,329.2,56.8L329.2,56.8z"/>
						</g>
						<path class="st21" d="M329.3,81.2l-35.8,2.6c-3.3-10,0.4-21.9,0.4-21.9l35.8,2.7C329.7,64.6,327.9,70.1,329.3,81.2L329.3,81.2
							z"/>
					</g>
				</g>
				<g>
					<path class="st1" d="M909.4,81.5c-0.5-6.8-6.5-30.9-16.3-27.1c-6.2,2.7-6.8,10.6-6.9,16.6c0.1,4.5,0.3,9.3,2.1,13.5
						c0.8,2,2,3.9,3.4,5.4c0.9,0.9,1.7,1.6,2.6,1.6c1.6-0.6,2.7-3.3,3.3-5l0.6-1.6c0.2-0.9,0.7-2.2,0.8-3.2c1.1-4.5,0-9.6-3.5-12.7
						l0.7,0.2c-4.1-0.8-4.2,3.7-3.7,6.8c0.2,1.3,0.5,2.6,0.8,3.9l-0.5,0.2c-1.6-3.1-3.4-6.6-2.5-10.3c0.7-2.8,3.8-4.3,6.6-4
						c1.4,0.8,2.6,1.8,3.6,3c4.5,5.4,4.3,13.1,1.9,19.4c-4.8,13.4-14.5,8.6-18.3-2.4c-0.9-2.5-1.3-5.1-1.5-7.6c-0.3-5-0.3-10,0.8-15
						c0.8-3.7,2.6-7.8,5.9-10.1c3.7-2.7,8.2-2.6,11.5,0.7c5.9,6.2,8.7,18.8,9,27.2c0,0.2,0,0.3-0.2,0.6L909.4,81.5L909.4,81.5
						L909.4,81.5z"/>
					<path class="st1" d="M688.5,45.3c0,0-13.3,27.9-2.6,54.8l3.9,0.4c0,0-12.2-26.8,3-55.5L688.5,45.3L688.5,45.3z"/>
					<path class="st1" d="M753.5,47.2c0,0-11.6,25-0.9,51.8l5.8-2.2c0,0-15.8-18.9-0.7-47.5L753.5,47.2L753.5,47.2z"/>
				</g>
			</g>
			<g>
				<g>
					<g>
						<g>
							<path class="st1" d="M893.3,28l0.2,0C893.5,27.9,893.5,27.9,893.3,28z"/>
							<path class="st1" d="M887.5,113.8l6.1,0l0.5,0v-0.1c9-0.7,16.4-20.8,16.5-43.6C910.7,46.9,903.3,28,894,28l-1.1,0.1
								c0.2,0,0.4-0.1,0.5-0.1l-6,0.6L838.6,33c0,0-1,1.5-2.4,4.3l-76.8,3.4c0,0-1.6,1.9-3.5,5.2l-15.3-6c-0.7,1.5-1.3,3.1-1.8,4.6
								l-11.9-4.7c-0.7,1.6-1.3,3.2-1.9,4.8l-12.3-4.9c-0.6,1.4-1.1,2.8-1.7,4.2l-23-5.2c-1.5,3.3-2.6,6.6-3.6,9.9L228,52.7
								c-11,0.1-19.9,9-20,20.1l0,0c-0.1,11.1,8.9,20.2,20,20.3l455.8,3.9c1.3,7.9,5.2,11.8,5.2,11.8l19.4-5
								c0.7,2.4,1.1,3.9,1.1,3.9l13-4.4c0.7,2.8,1.3,4.5,1.3,4.5l12.5-4.3c0.7,2.7,1.2,4.3,1.2,4.3l19.3-6.6c0.7,1,1.4,2.1,2.1,3.2
								l74.8,0.4c1.2,2.4,2.7,4.8,4.3,7.2l8.7,0.3l0,0l40.2,1.4C887.3,113.7,887.4,113.8,887.5,113.8L887.5,113.8z"/>
						</g>
						<g>
							<path class="st2" d="M214.6,72.7L214.6,72.7c-0.2-6.2,4.6-11.3,10.6-11.4l569-8.4L794.1,92l-568.8-8.7
								C219.5,83.2,214.8,78.5,214.6,72.7L214.6,72.7z"/>
							
								<linearGradient id="SVGID_00000087412680438938844730000017083511582114655418_" gradientUnits="userSpaceOnUse" x1="863.9174" y1="371.1459" x2="917.6414" y2="371.1459" gradientTransform="matrix(-5.236017e-03 1 1 5.236017e-03 332.0289 -819.274)">
								<stop  offset="0" style="stop-color:#5241EC"/>
								<stop  offset="1" style="stop-color:#C949FF"/>
							</linearGradient>
							<path style="fill:url(#SVGID_00000087412680438938844730000017083511582114655418_);" d="M712.3,53.2c0,0-13.5,21.8-0.2,40.7
								l-22.9,6.4c0,0-11.6-27.1,2.8-53.7L712.3,53.2z"/>
							
								<linearGradient id="SVGID_00000092452244944735329040000017702299010752640176_" gradientUnits="userSpaceOnUse" x1="863.4555" y1="381.0436" x2="917.1795" y2="381.0436" gradientTransform="matrix(-5.236017e-03 1 1 5.236017e-03 332.0289 -819.274)">
								<stop  offset="0" style="stop-color:#009BEA"/>
								<stop  offset="1" style="stop-color:#2E5CFF"/>
							</linearGradient>
							<path style="fill:url(#SVGID_00000092452244944735329040000017702299010752640176_);" d="M722.2,52.8c0,0-13.5,21.8-0.2,40.7
								l-22.9,6.4c0,0-11.6-27.1,2.8-53.7C701.9,46.1,722.2,52.8,722.2,52.8z"/>
							
								<linearGradient id="SVGID_00000089556490363086307950000007204373315936996521_" gradientUnits="userSpaceOnUse" x1="863.5267" y1="390.3741" x2="917.2507" y2="390.3741" gradientTransform="matrix(-5.236017e-03 1 1 5.236017e-03 332.0289 -819.274)">
								<stop  offset="0" style="stop-color:#C6E800"/>
								<stop  offset="1" style="stop-color:#00FF9E"/>
							</linearGradient>
							<path style="fill:url(#SVGID_00000089556490363086307950000007204373315936996521_);" d="M731.6,52.9c0,0-13.5,21.8-0.2,40.7
								l-22.9,6.4c0,0-11.6-27.1,2.8-53.7L731.6,52.9z"/>
							
								<linearGradient id="SVGID_00000133518364359248877110000003650500372316659390_" gradientUnits="userSpaceOnUse" x1="863.6047" y1="400.2946" x2="917.3287" y2="400.2946" gradientTransform="matrix(-5.236017e-03 1 1 5.236017e-03 332.0289 -819.274)">
								<stop  offset="0" style="stop-color:#FFB11B"/>
								<stop  offset="1" style="stop-color:#FFD200"/>
							</linearGradient>
							<path style="fill:url(#SVGID_00000133518364359248877110000003650500372316659390_);" d="M741.5,53c0,0-13.5,21.8-0.2,40.7
								l-22.9,6.4c0,0-11.6-27.1,2.8-53.7C721.1,46.4,741.5,53,741.5,53z"/>
							
								<linearGradient id="SVGID_00000137107184445370612890000014693933007888368269_" gradientUnits="userSpaceOnUse" x1="864.2603" y1="412.6082" x2="917.9843" y2="412.6082" gradientTransform="matrix(-5.236017e-03 1 1 5.236017e-03 332.0289 -819.274)">
								<stop  offset="0.38" style="stop-color:#FF8726"/>
								<stop  offset="0.85" style="stop-color:#FF3E12"/>
							</linearGradient>
							<path style="fill:url(#SVGID_00000137107184445370612890000014693933007888368269_);" d="M753.8,53.7c0,0-13.5,21.8-0.2,40.7
								l-22.9,6.4c0,0-11.6-27.1,2.8-53.7C733.5,47.1,753.8,53.7,753.8,53.7z"/>
							
								<linearGradient id="SVGID_00000086667805695656060740000004290932101113121159_" gradientUnits="userSpaceOnUse" x1="863.4706" y1="423.9943" x2="917.1946" y2="423.9943" gradientTransform="matrix(-5.236017e-03 1 1 5.236017e-03 332.0289 -819.274)">
								<stop  offset="0" style="stop-color:#FF1884"/>
								<stop  offset="1" style="stop-color:#FF3121"/>
							</linearGradient>
							<path style="fill:url(#SVGID_00000086667805695656060740000004290932101113121159_);" d="M765.2,53c0,0-13.5,21.8-0.2,40.7
								l-22.9,6.4c0,0-11.6-27.1,2.8-53.7L765.2,53z"/>
							
								<linearGradient id="SVGID_00000038376261475336187070000000827242433955108780_" gradientUnits="userSpaceOnUse" x1="848.8705" y1="469.3406" x2="902.6012" y2="469.3406" gradientTransform="matrix(-5.236017e-03 1 1 5.236017e-03 332.0289 -819.274)">
								<stop  offset="9.000000e-02" style="stop-color:#E5A37F"/>
								<stop  offset="0.39" style="stop-color:#E59F7C"/>
								<stop  offset="0.66" style="stop-color:#E89474"/>
								<stop  offset="0.92" style="stop-color:#ED8268"/>
								<stop  offset="1" style="stop-color:#EF7B63"/>
							</linearGradient>
							
								<path style="fill:url(#SVGID_00000038376261475336187070000000827242433955108780_);stroke:#C35000;stroke-miterlimit:10;" d="
								M844,44.7l-83.7,3c0,0-23.7,23.2-0.3,50.3l83.7,0.4L844,44.7L844,44.7z"/>
							
								<linearGradient id="SVGID_00000085930991146087859820000003191310955749600181_" gradientUnits="userSpaceOnUse" x1="838.3305" y1="531.8489" x2="906.2687" y2="531.8489" gradientTransform="matrix(-5.236017e-03 1 1 5.236017e-03 332.0289 -819.274)">
								<stop  offset="9.000000e-02" style="stop-color:#FBDE88"/>
								<stop  offset="0.29" style="stop-color:#FBDA86"/>
								<stop  offset="0.48" style="stop-color:#FBCF81"/>
								<stop  offset="0.65" style="stop-color:#FCBD79"/>
								<stop  offset="0.82" style="stop-color:#FDA36E"/>
								<stop  offset="0.99" style="stop-color:#FE8260"/>
								<stop  offset="1" style="stop-color:#FF805F"/>
							</linearGradient>
							<path style="fill:url(#SVGID_00000085930991146087859820000003191310955749600181_);" d="M889.8,37.7l-51.9,2.3
								c0,0-21.5,35.1-0.3,65.3l52.4,0.4L889.8,37.7L889.8,37.7z"/>
							
								<radialGradient id="SVGID_00000094575954101871550450000000536271442716456587_" cx="1825.8937" cy="563.8643" r="46" gradientTransform="matrix(-4.241174e-03 0.81 0.98 5.131297e-03 320.5486 -1402.6595)" gradientUnits="userSpaceOnUse">
								<stop  offset="9.000000e-02" style="stop-color:#AB73F7"/>
								<stop  offset="0.24" style="stop-color:#A774F7"/>
								<stop  offset="0.38" style="stop-color:#9C78F7"/>
								<stop  offset="0.52" style="stop-color:#8A80F8"/>
								<stop  offset="0.65" style="stop-color:#708AF9"/>
								<stop  offset="0.78" style="stop-color:#4E97FB"/>
								<stop  offset="0.9" style="stop-color:#26A7FD"/>
								<stop  offset="1" style="stop-color:#00B7FF"/>
							</radialGradient>
							<path style="fill:url(#SVGID_00000094575954101871550450000000536271442716456587_);" d="M889.5,105.6
								c-9-0.1-16.1-16.3-16-34.7c0.1-18.4,7.4-33.3,16.4-33.2s16.2,15,16,33.4C905.8,89.5,898.4,105.7,889.5,105.6L889.5,105.6z"/>
							
								<rect x="847" y="48.7" transform="matrix(5.236017e-03 -1 1 5.236017e-03 773.7592 921.0281)" class="st12" width="5.6" height="45.7"/>
							<polygon class="st12" points="830.4,88.6 828.8,83 873.9,83.2 875.5,88.8 							"/>
							<polygon class="st12" points="838.2,101.2 834.5,95.6 878.2,95.8 881.7,101.4 							"/>
							<polygon class="st12" points="830.6,55.6 828.9,61.2 873.5,61.4 874.8,55.8 							"/>
							<polygon class="st12" points="838.1,44.5 834.2,50.1 876.8,49.5 880,44.1 							"/>
							<path class="st1" d="M835.2,40.2c0,0-20.2,33.7-0.3,64.9l6.6,0.2c0,0-22.3-31.2,0.8-65.8L835.2,40.2z"/>
							<path class="st13" d="M824.7,39.2c0,0-20.2,33.7-0.3,64.9l6.6,0.2c0,0-22.3-31.2,0.8-65.8C831.7,38.6,824.7,39.2,824.7,39.2z
								"/>
							<path class="st14" d="M812.2,38.3c0,0-20.2,33.7-0.3,64.9l6.6,0.2c0,0-22.3-31.2,0.8-65.8L812.2,38.3z"/>
							<path class="st1" d="M889.4,36.9c0,0-11.7,0.3-15.2,25c-0.9,6.4-0.8,13,0.2,19.4c1.6,9.6,5.4,22.7,15.1,24.3l-5.8,0
								c0,0-11.7-4.3-12.7-34.2c0,0-1.1-26.4,12.5-33.9C883.4,37.4,889.4,36.9,889.4,36.9z"/>
						</g>
						<path class="st15" d="M686.9,90l-462.2-6.3c-5.6-0.1-10.1-4.8-10.1-10.5l0,0h470.8C685.3,73.2,684.2,83.7,686.9,90L686.9,90z"
							/>
						<path class="st15" d="M773.6,46.7c0,0,6.7,22.8,24.1,25.8c0,0-15.4,5.8-22,25.6L760,98c0,0-24.6-23.9,0.3-50.3L773.6,46.7
							L773.6,46.7z"/>
						
							<linearGradient id="SVGID_00000176765429216179596860000003368098529676450692_" gradientUnits="userSpaceOnUse" x1="863.6155" y1="450.1233" x2="915.0215" y2="450.1233" gradientTransform="matrix(-5.236017e-03 1 1 5.236017e-03 332.0289 -819.274)">
							<stop  offset="9.000000e-02" style="stop-color:#E5A37F"/>
							<stop  offset="0.39" style="stop-color:#E59F7C"/>
							<stop  offset="0.66" style="stop-color:#E89474"/>
							<stop  offset="0.92" style="stop-color:#ED8268"/>
							<stop  offset="1" style="stop-color:#EF7B63"/>
						</linearGradient>
						<path style="fill:url(#SVGID_00000176765429216179596860000003368098529676450692_);" d="M770.7,46.7c0,0,6,21.2,18.9,25.8
							c0,0-16.3,11.5-18.3,25.6l-5,0c0,0,6.7-23.5,18.1-25.1c0,0-15.6-8.8-18.8-25.7L770.7,46.7L770.7,46.7z"/>
						
							<linearGradient id="SVGID_00000037680839986851571780000005183810108914676868_" gradientUnits="userSpaceOnUse" x1="885.8406" y1="439.3404" x2="892.7505" y2="439.3404" gradientTransform="matrix(-5.236017e-03 1 1 5.236017e-03 332.0656 -819.2697)">
							<stop  offset="9.000000e-02" style="stop-color:#E5A37F"/>
							<stop  offset="0.39" style="stop-color:#E59F7C"/>
							<stop  offset="0.66" style="stop-color:#E89474"/>
							<stop  offset="0.92" style="stop-color:#ED8268"/>
							<stop  offset="1" style="stop-color:#EF7B63"/>
						</linearGradient>
						<path style="fill:url(#SVGID_00000037680839986851571780000005183810108914676868_);" d="M759.2,72.3c0-1.9,3.4-3.4,7.6-3.4
							c4.2,0,7.5,1.6,7.5,3.5c0,1.9-3.4,3.4-7.6,3.4C762.6,75.7,759.2,74.2,759.2,72.3z"/>
					</g>
					<g>
						<g>
							<path class="st18" d="M497.1,57.6L497.1,57.6l-2.9-1.8l-0.4,0.9c-4.6,10.5-4.7,22.3-0.5,32.9l3.3-1.4
								C492.5,77.6,492.6,68.1,497.1,57.6L497.1,57.6z"/>
							<path class="st19" d="M493.9,56.7l0.4-0.9l-4.7-0.5c-0.3,0-1.8,0.5-1.9,0.8l-0.4,0.5c-4.7,10.4-4.6,21.7-0.5,32.4l1.5,1.1
								l5.1-0.4C489.1,79,489.3,67.2,493.9,56.7z"/>
						</g>
						<g>
							<path class="st18" d="M505.3,57.4L505.3,57.4l-2.6-1.8l-0.3,0.9c-4.1,10.5-4.2,22.3-0.5,32.9l3-1.4
								C501.1,77.4,501.2,68,505.3,57.4L505.3,57.4z"/>
							<path class="st19" d="M502.4,56.6l0.3-0.9l-4.1-0.5c-0.3,0-1.6,0.5-1.7,0.8l-0.3,0.5c-4.2,10.5-4.1,21.7-0.5,32.4l1.3,1.1
								l4.5-0.4C498.1,78.8,498.3,67.1,502.4,56.6L502.4,56.6z"/>
						</g>
						<g>
							<path class="st18" d="M515.5,57.4L515.5,57.4l-2.9-1.8l-0.4,0.9c-4.6,10.5-4.7,22.3-0.5,32.9L515,88
								C510.8,77.4,510.9,67.9,515.5,57.4L515.5,57.4z"/>
							<path class="st19" d="M512.2,56.5l0.4-0.9l-4.7-0.5c-0.3,0-1.8,0.5-1.9,0.8l-0.4,0.5c-4.7,10.4-4.6,21.7-0.5,32.4l1.5,1.1
								l5.1-0.4C507.4,78.8,507.6,67,512.2,56.5z"/>
						</g>
						<g>
							<path class="st20" d="M523.6,57.2L523.6,57.2l-2.6-1.8l-0.3,0.9c-4.1,10.5-4.2,22.3-0.5,32.9l3-1.4
								C519.4,77.2,519.5,67.7,523.6,57.2L523.6,57.2z"/>
							<path class="st19" d="M520.7,56.3l0.3-0.9l-4.1-0.5c-0.3,0-1.6,0.5-1.7,0.8l-0.3,0.5c-4.2,10.5-4.1,21.7-0.5,32.4l1.3,1.1
								l4.5-0.4C516.4,78.6,516.6,66.8,520.7,56.3L520.7,56.3z"/>
						</g>
						<path class="st21" d="M520.8,80.8L485,83.4c-3.3-10,0.4-21.9,0.4-21.9l35.8,2.7C521.2,64.2,519.4,69.7,520.8,80.8L520.8,80.8z
							"/>
					</g>
					<g>
						<g>
							<path class="st18" d="M305.6,58L305.6,58l-2.9-1.8l-0.4,0.9c-4.6,10.5-4.7,22.3-0.5,32.9l3.3-1.4C301,78,301.1,68.5,305.6,58
								L305.6,58z"/>
							<path class="st19" d="M302.4,57.1l0.4-0.9l-4.7-0.5c-0.3,0-1.8,0.5-1.9,0.8l-0.4,0.5c-4.7,10.4-4.6,21.7-0.5,32.4l1.5,1.1
								l5.1-0.4C297.6,79.4,297.8,67.6,302.4,57.1z"/>
						</g>
						<g>
							<path class="st18" d="M313.8,57.9L313.8,57.9l-2.6-1.8l-0.3,0.9c-4.1,10.5-4.2,22.3-0.5,32.9l3-1.4
								C309.6,77.9,309.7,68.4,313.8,57.9L313.8,57.9z"/>
							<path class="st19" d="M310.9,57l0.3-0.9l-4.1-0.5c-0.3,0-1.6,0.5-1.7,0.8l-0.3,0.5c-4.2,10.5-4.1,21.7-0.5,32.4l1.3,1.1
								l4.5-0.4C306.6,79.3,306.8,67.5,310.9,57L310.9,57z"/>
						</g>
						<g>
							<path class="st18" d="M324,57.8L324,57.8l-2.9-1.8l-0.4,0.9c-4.6,10.5-4.7,22.3-0.5,32.9l3.3-1.4
								C319.3,77.8,319.4,68.3,324,57.8L324,57.8z"/>
							<path class="st19" d="M320.7,56.9l0.4-0.9l-4.7-0.5c-0.3,0-1.8,0.5-1.9,0.8l-0.4,0.5c-4.7,10.5-4.6,21.7-0.5,32.4l1.5,1.1
								l5.1-0.4C316,79.2,316.1,67.4,320.7,56.9z"/>
						</g>
						<g>
							<path class="st20" d="M332.1,57.6L332.1,57.6l-2.6-1.8l-0.3,0.9c-4.1,10.5-4.2,22.3-0.5,32.9l3-1.4
								C327.9,77.6,328,68.1,332.1,57.6L332.1,57.6z"/>
							<path class="st19" d="M329.2,56.8l0.3-0.9l-4.1-0.5c-0.3,0-1.6,0.5-1.7,0.8l-0.3,0.5c-4.2,10.5-4.1,21.7-0.5,32.4l1.3,1.1
								l4.5-0.4C324.9,79,325.1,67.3,329.2,56.8L329.2,56.8z"/>
						</g>
						<path class="st21" d="M329.3,81.2l-35.8,2.6c-3.3-10,0.4-21.9,0.4-21.9l35.8,2.7C329.7,64.6,327.9,70.1,329.3,81.2L329.3,81.2
							z"/>
					</g>
				</g>
				<g>
					<path class="st1" d="M909.4,81.5c-0.5-6.8-6.5-30.9-16.3-27.1c-6.2,2.7-6.8,10.6-6.9,16.6c0.1,4.5,0.3,9.3,2.1,13.5
						c0.8,2,2,3.9,3.4,5.4c0.9,0.9,1.7,1.6,2.6,1.6c1.6-0.6,2.7-3.3,3.3-5l0.6-1.6c0.2-0.9,0.7-2.2,0.8-3.2c1.1-4.5,0-9.6-3.5-12.7
						l0.7,0.2c-4.1-0.8-4.2,3.7-3.7,6.8c0.2,1.3,0.5,2.6,0.8,3.9l-0.5,0.2c-1.6-3.1-3.4-6.6-2.5-10.3c0.7-2.8,3.8-4.3,6.6-4
						c1.4,0.8,2.6,1.8,3.6,3c4.5,5.4,4.3,13.1,1.9,19.4c-4.8,13.4-14.5,8.6-18.3-2.4c-0.9-2.5-1.3-5.1-1.5-7.6c-0.3-5-0.3-10,0.8-15
						c0.8-3.7,2.6-7.8,5.9-10.1c3.7-2.7,8.2-2.6,11.5,0.7c5.9,6.2,8.7,18.8,9,27.2c0,0.2,0,0.3-0.2,0.6L909.4,81.5L909.4,81.5
						L909.4,81.5z"/>
					<path class="st1" d="M688.5,45.3c0,0-13.3,27.9-2.6,54.8l3.9,0.4c0,0-12.2-26.8,3-55.5L688.5,45.3L688.5,45.3z"/>
					<path class="st1" d="M753.5,47.2c0,0-11.6,25-0.9,51.8l5.8-2.2c0,0-15.8-18.9-0.7-47.5L753.5,47.2L753.5,47.2z"/>
				</g>
			</g>
		</g>
	</g>
</g>
</svg>
