<?xml version="1.0" encoding="UTF-8"?>
<svg id="Juego" xmlns="http://www.w3.org/2000/svg" xmlns:xlink="http://www.w3.org/1999/xlink" viewBox="0 0 265.01 74.46">
  <style type="text/css">
	.elemento-svg{
		cursor: pointer;
	}
</style>
  <defs>
    <linearGradient id="Degradado_sin_nombre_3" data-name="Degradado sin nombre 3" x1="-997.68" y1="10249.12" x2="-571.9" y2="10249.12" gradientTransform="translate(-630.13 10286.35) rotate(-180)" gradientUnits="userSpaceOnUse">
      <stop offset="0" stop-color="#04c283"/>
      <stop offset=".21" stop-color="#02c85b"/>
      <stop offset=".44" stop-color="#01ce37"/>
      <stop offset=".65" stop-color="#00d21e"/>
      <stop offset=".85" stop-color="#00d50e"/>
      <stop offset="1" stop-color="#00d609"/>
    </linearGradient>
  </defs>
  <path class="elemento-svg" d="m31.36,2.4l202.29-1.4c7.73,0,14.61,4.93,17.09,12.26l12.31,36.38c3.96,11.7-4.74,23.82-17.09,23.82H19.05c-12.35,0-21.04-12.12-17.09-23.82L14.27,13.26c2.48-7.33,9.35-10.86,17.09-10.86Z" style="fill: url(#Degradado_sin_nombre_3); stroke: #fff; stroke-miterlimit: 10; stroke-width: 2px;"/>
  <g>
    <path class="elemento-svg" d="m68.77,26.62l-2.85,2.77c-.76-.61-1.53-1.05-2.29-1.34-.76-.29-1.59-.43-2.49-.43-1.98,0-3.6.7-4.86,2.09-1.26,1.4-2.17,3.12-2.73,5.16-.55,2.04-.83,4.09-.83,6.15,0,2.35.47,4.08,1.42,5.2.95,1.12,2.25,1.68,3.91,1.68,1.08,0,2.07-.2,2.96-.59.9-.4,1.86-.96,2.88-1.7l2.1,3.24c-1.11.95-2.38,1.73-3.81,2.33-1.44.61-3.02.91-4.76.91-3.08,0-5.53-.97-7.35-2.93-1.82-1.95-2.73-4.72-2.73-8.3,0-2.69.47-5.36,1.42-8,.95-2.65,2.45-4.86,4.51-6.62,2.06-1.77,4.62-2.65,7.71-2.65s5.76,1.01,7.79,3.04Z" style="fill: #fff;"/>
    <path class="elemento-svg" d="m70.49,49.75c-1.46-1.55-2.19-3.72-2.19-6.48,0-2.06.38-4.1,1.13-6.13.75-2.03,1.97-3.73,3.66-5.1,1.69-1.37,3.85-2.06,6.48-2.06s4.76.78,6.23,2.35c1.46,1.57,2.19,3.71,2.19,6.42,0,2.06-.37,4.1-1.11,6.13-.74,2.03-1.95,3.74-3.64,5.12s-3.86,2.08-6.52,2.08-4.76-.78-6.23-2.33Zm9.98-3.14c.87-1.09,1.48-2.4,1.82-3.93.34-1.53.51-3.02.51-4.47,0-2.93-1.17-4.39-3.52-4.39-1.45,0-2.61.53-3.48,1.6-.87,1.07-1.48,2.35-1.84,3.85-.36,1.5-.53,2.96-.53,4.39,0,3.06,1.19,4.59,3.56,4.59,1.45,0,2.61-.55,3.48-1.64Z" style="fill: #fff;"/>
    <path class="elemento-svg" d="m108.83,31.35c.86.91,1.29,2.17,1.29,3.77,0,.42-.04.9-.12,1.42l-2.09,14.94h-4.98l2.02-14.19c.05-.47.08-.8.08-.99,0-.79-.16-1.35-.47-1.68-.32-.33-.75-.49-1.3-.49-1.79,0-3.62,1.79-5.5,5.38l-1.7,11.98h-4.98l2.92-20.91h4.31l-.2,3.87c2.05-2.98,4.45-4.47,7.19-4.47,1.5,0,2.68.45,3.54,1.36Z" style="fill: #fff;"/>
    <path class="elemento-svg" d="m119.96,45.2c-.05.53-.08.86-.08.99,0,.63.13,1.09.4,1.36.26.28.68.42,1.26.42.74,0,1.63-.25,2.69-.75l1.42,3.36c-1.61,1-3.36,1.5-5.26,1.5-1.77,0-3.13-.47-4.09-1.4-.96-.94-1.44-2.26-1.44-3.97,0-.47.04-.99.12-1.54l1.54-10.95h-3.24l.51-3.64h3.44l1.3-4.74,4.19-.47-.71,5.22h4.82l-1.07,3.64h-4.27l-1.54,10.99Z" style="fill: #fff;"/>
    <path class="elemento-svg" d="m136.12,30.58l-2.92,20.91h-4.98l2.92-20.91h4.98Zm-3.75-5.24c-.53-.51-.79-1.17-.79-1.96,0-.97.33-1.78.99-2.43.66-.65,1.48-.97,2.45-.97.84,0,1.53.26,2.06.77.53.51.79,1.18.79,2,0,.95-.33,1.75-.99,2.39-.66.65-1.48.97-2.45.97-.84,0-1.53-.26-2.06-.77Z" style="fill: #fff;"/>
    <path class="elemento-svg" d="m156.98,31.35c.86.91,1.29,2.17,1.29,3.77,0,.42-.04.9-.12,1.42l-2.09,14.94h-4.98l2.02-14.19c.05-.47.08-.8.08-.99,0-.79-.16-1.35-.47-1.68-.32-.33-.75-.49-1.3-.49-1.79,0-3.62,1.79-5.5,5.38l-1.7,11.98h-4.98l2.92-20.91h4.31l-.2,3.87c2.05-2.98,4.45-4.47,7.19-4.47,1.5,0,2.68.45,3.54,1.36Z" style="fill: #fff;"/>
    <path class="elemento-svg" d="m163.7,50.72c-.88-.91-1.32-2.17-1.32-3.78,0-.47.04-.96.12-1.46l2.1-14.9h4.98l-2.02,14.27c-.05.53-.08.9-.08,1.11,0,.76.15,1.3.46,1.62.3.32.76.47,1.36.47.92,0,1.8-.37,2.63-1.11.83-.74,1.65-1.71,2.47-2.93l1.9-13.44h4.98l-2.92,20.91h-4.31l.2-3.44c-.98,1.29-2.02,2.29-3.12,2.98-1.11.7-2.32,1.05-3.64,1.05-1.63,0-2.89-.45-3.77-1.36Z" style="fill: #fff;"/>
    <path class="elemento-svg" d="m203.87,32l-2.02,14.03c-.05.47-.08.78-.08.91,0,.45.08.8.26,1.07.17.26.48.49.93.67l-1.42,3.32c-2.45-.26-3.89-1.42-4.31-3.48-1.74,2.37-3.82,3.56-6.25,3.56-2.13,0-3.79-.74-4.96-2.21-1.17-1.48-1.76-3.46-1.76-5.97,0-2.16.4-4.31,1.21-6.44.8-2.13,2.08-3.91,3.81-5.34,1.74-1.42,3.94-2.13,6.6-2.13s5.4.67,7.98,2.02Zm-11.66,3.26c-.95,1.04-1.64,2.35-2.08,3.91-.44,1.57-.65,3.14-.65,4.72,0,2.9.96,4.35,2.89,4.35.9,0,1.71-.28,2.45-.85.74-.57,1.5-1.39,2.29-2.47l1.5-10.67c-.84-.37-1.78-.55-2.81-.55-1.45,0-2.65.52-3.6,1.56Z" style="fill: #fff;"/>
    <path class="elemento-svg" d="m222.1,30.34l-1.46,4.86c-.63-.16-1.21-.24-1.74-.24-1.24,0-2.29.53-3.16,1.58-.87,1.05-1.66,2.6-2.37,4.62l-1.46,10.32h-4.98l2.92-20.91h4.31l-.16,4.07c.76-1.53,1.66-2.68,2.69-3.46,1.03-.78,2.13-1.17,3.32-1.17.68,0,1.38.11,2.09.32Z" style="fill: #fff;"/>
  </g>
</svg>