<?xml version="1.0" encoding="UTF-8"?>
<svg id="Capa_3" data-name="Capa 3" xmlns="http://www.w3.org/2000/svg" xmlns:xlink="http://www.w3.org/1999/xlink" viewBox="0 0 1034.12 236.04">
  <defs>
    <linearGradient id="Degradado_sin_nombre_225" data-name="Degradado sin nombre 225" x1="4.38" y1="111.86" x2="1024.63" y2="111.86" gradientUnits="userSpaceOnUse">
      <stop offset="0" stop-color="#009409"/>
      <stop offset=".06" stop-color="#009412"/>
      <stop offset=".35" stop-color="#00943d"/>
      <stop offset=".62" stop-color="#00945c"/>
      <stop offset=".84" stop-color="#009470"/>
      <stop offset="1" stop-color="#009477"/>
    </linearGradient>
  </defs>
  <g>
    <g style="opacity: .4;">
      <polygon points="1033.6 95.19 51.95 2.28 85.2 231.54 984.76 198.35 1033.6 95.19" style="fill: #29bc00;"/>
      <path d="m1033.08,95.49c-244.1-19.95-493.77-40.27-736.62-67.25C215,19.55,133.38,11.56,51.76,4.29c0,0,2.2-2.31,2.2-2.31,4.5,28.58,13,85.95,17.62,114.49,0,0,17.98,114.44,17.98,114.44,0,0-4.52-3.77-4.52-3.77,298.97-13.81,600.33-25.06,899.62-31.62,0,0-2.45,1.61-2.45,1.61,16.08-32.31,34.72-69.27,50.87-101.65h0Zm1.04-.59c-15.45,33.88-32,72.44-47.5,106.18-299.55,15.56-601.47,26.58-901.25,34.86,0,0-4,.1-4,.1,0,0-.51-3.87-.51-3.87C72.76,165.92,58.23,65.46,49.59,0c82.84,8.34,165.68,15.9,248.67,22.77,243.62,19.1,492.78,45.86,735.85,72.12h0Z" style="fill: #fff;"/>
    </g>
    <g>
      <polyline points="1024.63 178.65 962.08 72.57 4.38 40.17 32.48 182.11 1021.93 183.55" style="fill: url(#Degradado_sin_nombre_225);"/>
      <path d="m1024.63,178.65c-23.87-33.39-45.42-68.58-66.42-103.8,0,0,3.72,2.21,3.72,2.21C723.27,69.02,242.85,52.25,4.25,43.73c0,0,3.62-4.25,3.62-4.25,0,0,27.83,141.99,27.83,141.99,0,0-3.21-2.64-3.21-2.64,280.69.97,712,2.91,989.44,4.72-123.39.41-371.39,1.1-494.73,1.28,0,0-494.72.56-494.72.56,0,0-2.68,0-2.68,0,0,0-.53-2.65-.53-2.65L.88,40.86s-.88-4.4-.88-4.4l4.5.15c238.77,7.64,719.05,23.37,957.74,31.47,0,0,2.49.08,2.49.08,0,0,1.23,2.13,1.23,2.13,20.66,35.42,41.01,71.33,58.67,108.36h0Z" style="fill: #fff;"/>
    </g>
  </g>
  <g>
    <path d="m57.62,140.23c-.48-.09-.78-.21-.91-.36-.13-.15-.19-.37-.18-.65l1.62-25.34c.2-3.13.29-6.24.29-9.36s-.11-6.07-.32-8.87c-.03-.35.04-.61.23-.8.19-.19.52-.33,1.01-.41.49-.09,1.19-.13,2.12-.12.36,0,.65.03.86.09.21.06.38.16.49.31.11.15.18.36.2.61.24,2.86.35,5.85.34,8.97-.01,3.12-.11,6.32-.31,9.61l-1.57,25.47c-.01.25-.07.44-.18.57s-.28.24-.51.31c-.24.07-.58.1-1.02.1-.97,0-1.7-.05-2.17-.14Zm2.57-3.9l4.35.03c.37,0,.65,0,.83-.01,2.34-.07,4.39-.49,6.13-1.24,1.74-.75,3.09-1.84,4.04-3.25.95-1.41,1.43-3.12,1.44-5.12.02-2.33-.68-4.18-2.08-5.53-1.41-1.35-3.26-2.27-5.56-2.77-2.3-.5-4.89-.66-7.75-.49l.08-4.15c2.6.13,4.97-.16,7.13-.87,2.16-.71,3.88-1.75,5.15-3.14,1.27-1.39,1.92-3.01,1.93-4.88.01-1.5-.35-2.73-1.08-3.71-.73-.98-1.75-1.7-3.07-2.17-1.32-.47-2.88-.71-4.69-.73-1.18,0-2.09,0-2.73.03-.41,0-.78.02-1.11.03-.34,0-.68.03-1.04.06l-.79-4.11c.82-.03,1.87-.05,3.13-.05s2.33-.01,3.2,0c2.64.02,4.95.43,6.92,1.23,1.97.8,3.49,1.97,4.56,3.52s1.59,3.43,1.58,5.64c-.02,2.38-.67,4.47-1.97,6.26-1.29,1.8-3.02,3.18-5.18,4.14-2.16.96-4.51,1.44-7.05,1.44v-1.93c2.92.02,5.54.47,7.87,1.36,2.33.89,4.19,2.24,5.57,4.05,1.38,1.81,2.07,4.07,2.05,6.76-.02,2.87-.76,5.34-2.23,7.41-1.47,2.07-3.53,3.64-6.18,4.7-2.65,1.07-5.71,1.59-9.19,1.57l-4.64-.03.39-4.04Z" style="fill: #fff; stroke: #fff; stroke-miterlimit: 10; stroke-width: .25px;"/>
    <path d="m93.01,139.24c-1.51-1.32-2.66-3.11-3.42-5.35s-1.14-4.76-1.12-7.54c.02-3.4.54-6.48,1.55-9.25s2.44-4.97,4.29-6.6c1.85-1.62,4-2.43,6.46-2.41,2.13.01,3.95.68,5.46,2,1.51,1.32,2.65,3.1,3.42,5.35s1.15,4.77,1.13,7.56c-.02,3.37-.55,6.45-1.58,9.23-1.03,2.78-2.47,4.98-4.32,6.61-1.85,1.62-3.99,2.43-6.4,2.41-2.13-.01-3.96-.68-5.47-2Zm9.37-3.83c1.05-1.19,1.88-2.9,2.47-5.14.59-2.24.9-4.86.92-7.87.01-1.94-.18-3.68-.59-5.21-.41-1.53-1.02-2.75-1.83-3.66-.82-.91-1.79-1.37-2.91-1.38-1.36,0-2.56.58-3.61,1.77-1.05,1.19-1.88,2.9-2.48,5.14-.6,2.24-.91,4.87-.93,7.89-.01,1.92.19,3.65.6,5.19.41,1.54,1.03,2.76,1.84,3.67.82.91,1.79,1.37,2.91,1.38,1.35,0,2.56-.58,3.61-1.77Z" style="fill: #fff; stroke: #fff; stroke-miterlimit: 10; stroke-width: .25px;"/>
    <path d="m118.07,140.7c-.35-.07-.58-.2-.71-.4-.13-.2-.17-.48-.13-.85.08-1.03.15-2.06.22-3.09.07-1.03.16-2.21.26-3.54.22-3.18.41-6.1.57-8.77.16-2.66.25-4.57.26-5.72.03-1.47.01-2.91-.07-4.31-.08-1.4-.22-2.77-.42-4.1,0-.26.11-.49.35-.68s.63-.36,1.15-.48c.52-.12,1.17-.18,1.95-.17.38,0,.67.06.86.16.19.11.3.27.33.5.17.83.31,1.98.43,3.46.12,1.48.15,2.85.11,4.1,0,.55-.02,1.08-.04,1.6-.02.52-.05,1.01-.09,1.47-.06.73-.15,1.44-.25,2.14-.1.7-.23,1.43-.37,2.18l-2.5,6.67c.15-3.67.91-7.26,2.26-10.75,1.35-3.49,3.09-6.33,5.23-8.52,2.14-2.19,4.39-3.27,6.75-3.26.29,0,.52.09.69.26.17.17.25.43.25.78,0,.98-.07,1.75-.18,2.3-.11.55-.28.94-.49,1.18-.21.23-.51.35-.89.35-1.88-.01-3.64.77-5.29,2.34-1.65,1.57-3,3.71-4.04,6.41-1.04,2.7-1.63,5.68-1.77,8.93-.11,1.81-.17,3.27-.21,4.39-.03,1.12-.05,2.08-.05,2.88-.01.3-.02.56-.03.79,0,.22,0,.47,0,.74,0,.28-.11.51-.31.68-.2.17-.49.29-.86.36-.37.07-.85.1-1.43.1-.7,0-1.22-.04-1.56-.11Z" style="fill: #fff; stroke: #fff; stroke-miterlimit: 10; stroke-width: .25px;"/>
    <path d="m141.32,139.84c-1.27-1.13-2.23-2.7-2.89-4.7-.66-2-.98-4.3-.96-6.89.03-3.88.57-7.33,1.62-10.35s2.45-5.37,4.2-7.03c1.74-1.66,3.65-2.48,5.73-2.47,1.56.01,2.94.51,4.14,1.51,1.19,1,2.12,2.4,2.79,4.22.67,1.82,1,3.95,1.01,6.38l-.51,8.69c-.42,2.35-1.13,4.47-2.12,6.34-.99,1.88-2.22,3.35-3.67,4.42-1.46,1.07-3.05,1.6-4.77,1.59-1.76-.01-3.28-.58-4.54-1.71Zm8.88-3.54c.97-.79,1.8-1.86,2.5-3.22s1.18-2.83,1.43-4.44l.48-8.51c.01-1.55-.19-2.91-.61-4.08-.41-1.16-.97-2.06-1.68-2.67-.7-.62-1.46-.93-2.27-.94-1.36,0-2.61.65-3.75,1.99-1.14,1.33-2.06,3.23-2.75,5.68-.69,2.45-1.04,5.29-1.07,8.5-.01,1.75.16,3.3.51,4.63.35,1.33.88,2.37,1.6,3.11.71.74,1.58,1.12,2.62,1.12,1.03,0,2.03-.39,3-1.18Zm6.64,4.8c-.17-.1-.32-.27-.43-.51-.39-.91-.77-2.1-1.16-3.57-.38-1.47-.69-2.97-.91-4.5-.22-1.53-.29-2.83-.22-3.91l.48-8.47c.05-.85.09-1.6.13-2.24.03-.65.08-1.4.13-2.24.05-.83.09-1.56.13-2.2.03-.64.08-1.38.15-2.22.03-.27.05-.55.08-.85.14-2.03.24-4.01.29-5.92.05-1.92.06-3.8.01-5.65-.05-1.85-.15-3.65-.31-5.41,0-.34.07-.59.22-.77.16-.18.43-.3.83-.36.07-.03.13-.05.17-.05.37-.05.73-.1,1.06-.13s.71-.05,1.11-.04c.28,0,.51.03.7.08.18.05.33.13.43.25.1.11.16.26.17.45.16,1.91.26,3.85.31,5.82s.04,3.92-.01,5.86c-.05,1.94-.14,4.11-.26,6.51-.03.25-.04.51-.06.79l-.99,16.78c-.04.9.01,1.92.17,3.06.16,1.13.39,2.31.71,3.51.32,1.21.69,2.38,1.11,3.53.1.35.15.62.14.83,0,.21-.08.39-.2.53-.13.15-.35.31-.67.49-.36.18-.81.34-1.35.49-.54.15-.97.23-1.28.23-.29,0-.52-.05-.69-.15Z" style="fill: #fff; stroke: #fff; stroke-miterlimit: 10; stroke-width: .25px;"/>
    <path d="m171.71,139.75c-1.51-1.32-2.66-3.11-3.42-5.35-.77-2.24-1.14-4.76-1.12-7.54.02-3.4.54-6.48,1.55-9.26,1.01-2.77,2.44-4.97,4.29-6.6,1.85-1.62,4-2.43,6.46-2.41,2.13.01,3.95.68,5.46,2,1.51,1.32,2.65,3.1,3.42,5.35.77,2.25,1.15,4.77,1.13,7.56-.02,3.37-.55,6.45-1.58,9.23-1.03,2.78-2.47,4.98-4.32,6.61-1.85,1.62-3.99,2.43-6.4,2.41-2.13-.01-3.96-.68-5.47-2Zm9.37-3.83c1.05-1.19,1.88-2.9,2.47-5.14.59-2.24.9-4.86.92-7.87.01-1.94-.18-3.68-.59-5.21-.41-1.53-1.02-2.75-1.83-3.66-.82-.91-1.79-1.37-2.91-1.38-1.36,0-2.56.58-3.61,1.77-1.05,1.19-1.88,2.9-2.48,5.14-.6,2.24-.91,4.87-.93,7.89-.01,1.92.19,3.65.6,5.19.41,1.54,1.03,2.76,1.84,3.67.82.91,1.79,1.37,2.91,1.38,1.36,0,2.56-.58,3.61-1.77Zm-2.46-31.31c-.25-.12-.5-.29-.74-.49-.24-.2-.47-.43-.69-.67-.08-.08-.14-.16-.19-.24-.16-.18-.23-.38-.21-.6.02-.22.13-.48.34-.79.15-.2.28-.38.38-.53s.22-.33.38-.53c.73-.96,1.34-1.84,1.85-2.64.51-.81,1.01-1.66,1.49-2.55.48-.9.97-1.9,1.46-3,.13-.26.26-.45.39-.58.13-.13.31-.19.56-.19.22,0,.53.09.94.27.41.18.8.4,1.19.64.39.25.7.49.94.73l.07.1c.17.19.26.38.27.55,0,.18-.07.39-.22.64-.22.43-.46.87-.7,1.32-.93,1.66-1.81,3.07-2.64,4.25-.83,1.17-1.86,2.48-3.09,3.91-.19.2-.36.35-.53.44-.17.09-.35.14-.55.14-.2,0-.42-.06-.68-.19Z" style="fill: #fff; stroke: #fff; stroke-miterlimit: 10; stroke-width: .25px;"/>
    <path d="m196.87,141.23c-.36-.08-.61-.22-.75-.42-.14-.2-.2-.48-.18-.84.08-1.02.18-2.35.31-4,.32-4.47.57-8.12.75-10.98.18-2.85.29-4.94.32-6.27.02-1.76-.02-3.38-.13-4.86-.11-1.48-.24-2.59-.38-3.34-.06-.27.04-.51.28-.73.25-.22.63-.39,1.16-.51.53-.12,1.19-.19,1.97-.18.41,0,.71.07.92.2.21.13.33.36.38.68.1.49.2,1.16.29,2.01.09.85.16,1.75.21,2.7.04.95.05,1.82.03,2.6-.03.78-.07,1.53-.13,2.25-.06.72-.13,1.41-.21,2.07-.16,1.13-.31,2.16-.46,3.1l-2.29,4.39c.49-3.18,1.48-6.34,2.99-9.49,1.51-3.15,3.28-5.73,5.31-7.75,2.04-2.02,4.05-3.02,6.03-3.01,1.29,0,2.37.39,3.26,1.14.89.75,1.52,1.81,1.91,3.17.38,1.36.51,2.94.37,4.74l-1.08,13.11c-.18,2.14-.24,3.88-.2,5.2.04,1.32.13,2.53.26,3.63.04.22.07.4.07.54,0,.29-.1.51-.3.67s-.51.26-.95.33c-.44.06-1.01.09-1.73.09-.41,0-.73-.03-.96-.09-.24-.06-.42-.16-.55-.3-.13-.14-.21-.33-.26-.56-.11-.5-.2-1.24-.26-2.21-.06-.97-.09-2.11-.08-3.42,0-1.31.08-2.68.2-4.11l.97-12.68c.08-.97.04-1.81-.11-2.52-.15-.71-.41-1.26-.77-1.64s-.82-.57-1.38-.58c-1.41,0-2.92.98-4.51,2.96-1.6,1.98-2.96,4.43-4.09,7.33-1.13,2.9-1.77,5.59-1.92,8.07-.1,1.75-.17,3.09-.19,4.01-.02.92-.03,1.87-.03,2.84,0,.52-.02,1.04-.05,1.56,0,.45-.2.76-.6.95s-1.01.28-1.84.27c-.7,0-1.22-.05-1.58-.13Z" style="fill: #fff; stroke: #fff; stroke-miterlimit: 10; stroke-width: .25px;"/>
    <path d="m243.26,140.5c-1.27-1.13-2.23-2.7-2.89-4.7-.66-2-.98-4.3-.96-6.89.03-3.88.57-7.33,1.62-10.35s2.45-5.37,4.2-7.03c1.74-1.66,3.65-2.48,5.73-2.47,1.56.01,2.94.51,4.14,1.51,1.19,1,2.12,2.4,2.79,4.22.67,1.82,1,3.95,1.01,6.38l-.51,8.69c-.42,2.35-1.13,4.47-2.12,6.34-.99,1.88-2.22,3.35-3.67,4.42-1.46,1.07-3.05,1.6-4.78,1.59-1.76-.01-3.28-.58-4.54-1.71Zm8.88-3.54c.97-.79,1.8-1.86,2.5-3.22s1.18-2.83,1.43-4.44l.48-8.51c.01-1.55-.19-2.91-.61-4.08-.41-1.16-.97-2.06-1.68-2.67-.7-.62-1.46-.93-2.27-.94-1.36,0-2.61.65-3.75,1.99-1.14,1.33-2.06,3.23-2.75,5.68s-1.04,5.29-1.07,8.5c-.01,1.75.16,3.3.51,4.63.35,1.33.88,2.37,1.6,3.11.71.74,1.59,1.12,2.62,1.12,1.03,0,2.03-.39,3-1.18Zm6.64,4.8c-.17-.1-.32-.27-.43-.51-.39-.91-.77-2.1-1.16-3.57-.38-1.47-.69-2.97-.91-4.5-.22-1.53-.29-2.83-.22-3.91l.48-8.47c.05-.85.09-1.6.13-2.24.03-.65.08-1.4.13-2.24.05-.83.09-1.56.13-2.2.03-.64.08-1.38.15-2.22.03-.27.05-.55.08-.85.14-2.03.24-4.01.29-5.92.05-1.92.06-3.8.01-5.65-.05-1.85-.15-3.65-.31-5.41,0-.34.07-.59.22-.77.16-.18.43-.3.83-.36.07-.03.13-.05.17-.05.37-.05.73-.1,1.06-.13s.71-.05,1.11-.04c.28,0,.51.03.7.08.18.05.33.13.43.25.1.11.16.26.17.45.16,1.91.26,3.85.31,5.82s.04,3.92-.01,5.86c-.05,1.94-.14,4.11-.26,6.51-.03.25-.04.51-.06.79l-.99,16.78c-.04.9.01,1.92.17,3.06.16,1.13.39,2.31.71,3.51s.69,2.38,1.11,3.53c.1.35.15.62.14.83,0,.21-.08.39-.2.53-.13.15-.35.31-.67.49-.36.18-.81.34-1.35.49-.54.15-.97.23-1.28.23-.29,0-.52-.05-.69-.15Z" style="fill: #fff; stroke: #fff; stroke-miterlimit: 10; stroke-width: .25px;"/>
    <path d="m273.33,140.59c-1.45-1.2-2.54-2.82-3.25-4.87-.72-2.05-1.07-4.35-1.05-6.89.03-3.69.57-7.02,1.63-10,1.06-2.98,2.57-5.32,4.53-7.03,1.97-1.71,4.29-2.55,6.98-2.53,1.6.01,2.98.36,4.15,1.06,1.17.69,2.05,1.65,2.66,2.86s.9,2.58.89,4.11c-.02,2.67-.89,4.99-2.6,6.96-1.72,1.97-3.98,3.52-6.79,4.66-2.81,1.13-5.92,1.83-9.33,2.08l.06-3.42c2.55-.22,4.87-.73,6.96-1.54,2.08-.81,3.76-1.94,5.03-3.4,1.27-1.46,1.91-3.21,1.92-5.24,0-.8-.11-1.51-.36-2.13-.25-.62-.62-1.09-1.13-1.43-.51-.34-1.12-.51-1.84-.51-1.6-.01-3,.68-4.2,2.08-1.2,1.39-2.12,3.28-2.75,5.65-.64,2.37-.96,4.99-.98,7.85-.01,1.8.17,3.41.53,4.83.37,1.42.93,2.54,1.7,3.35.77.81,1.73,1.23,2.9,1.23.8,0,1.54-.16,2.21-.5.67-.34,1.31-.87,1.91-1.59.6-.72,1.18-1.63,1.76-2.73.08-.19.19-.33.32-.43.13-.09.29-.14.49-.14.31,0,.72.12,1.22.35.5.23.94.51,1.32.83.38.32.57.61.57.88,0,.16-.03.32-.09.49-.06.17-.13.34-.21.52-.63,1.17-1.42,2.24-2.37,3.2-.94.97-2.04,1.75-3.28,2.34-1.24.59-2.6.89-4.08.88-2.17-.01-3.98-.62-5.43-1.82Z" style="fill: #fff; stroke: #fff; stroke-miterlimit: 10; stroke-width: .25px;"/>
    <path d="m312.67,141.39c-.83-.57-1.43-1.4-1.82-2.5-.39-1.1-.57-2.46-.56-4.09.01-.57.03-1.09.03-1.56.07-1.38.13-2.67.2-3.85l1.07-16.85c.04-.48.07-.89.09-1.24.02-.35.04-.73.07-1.14.1-1.55.18-2.81.22-3.77.04-.96.07-1.94.09-2.93.02-1.52,0-2.91-.07-4.16-.07-1.26-.15-2.46-.26-3.6-.05-.7-.08-1.18-.08-1.44,0-.18.03-.32.1-.44.06-.11.18-.21.34-.3.16-.09.39-.17.7-.23.04-.01.07-.02.11-.03.34-.06.68-.12,1.04-.15.35-.04.74-.05,1.16-.05.38,0,.68.06.89.17s.33.29.33.52c.02.23.05.46.08.69.14,1.3.26,2.56.35,3.79.09,1.23.13,2.59.12,4.07,0,.89-.03,1.92-.07,3.07-.04,1.15-.1,2.4-.17,3.75-.07,1.3-.15,2.53-.23,3.72l-1.07,16.73c-.01.39-.04.78-.06,1.17-.05.83-.1,1.57-.13,2.24-.03.66-.06,1.21-.07,1.65,0,.84.06,1.5.2,1.99.13.49.35.84.64,1.07.29.23.68.34,1.16.34.46,0,.9-.05,1.31-.16.41-.11.86-.25,1.35-.41.1-.04.2-.08.28-.12.08-.03.16-.04.23-.03.22-.05.42.03.61.25.18.22.35.54.49.95.14.41.26.9.35,1.44.02.2,0,.38-.04.54-.05.16-.13.28-.24.38-.11.1-.25.19-.41.27l-.07.03c-.67.34-1.48.61-2.42.8-.94.2-1.8.29-2.59.28-1.32,0-2.39-.3-3.22-.87Z" style="fill: #fff; stroke: #fff; stroke-miterlimit: 10; stroke-width: .25px;"/>
    <path d="m330.55,140.78c-1.51-1.32-2.66-3.11-3.42-5.35-.77-2.24-1.14-4.76-1.12-7.54.02-3.4.54-6.48,1.55-9.26s2.44-4.97,4.29-6.6,4-2.43,6.46-2.41c2.13.01,3.95.68,5.46,2,1.51,1.32,2.65,3.1,3.42,5.35.77,2.25,1.15,4.77,1.13,7.56-.02,3.37-.55,6.45-1.58,9.23-1.03,2.78-2.47,4.98-4.32,6.61-1.85,1.62-3.99,2.43-6.4,2.41-2.13-.01-3.96-.68-5.47-2Zm9.37-3.83c1.05-1.19,1.88-2.9,2.47-5.14.59-2.24.9-4.86.92-7.87.01-1.94-.18-3.68-.59-5.21-.41-1.53-1.02-2.75-1.83-3.66s-1.79-1.37-2.91-1.38c-1.36,0-2.56.58-3.61,1.77-1.05,1.19-1.88,2.9-2.48,5.14s-.91,4.87-.93,7.89c-.01,1.92.19,3.65.6,5.19.41,1.54,1.03,2.76,1.84,3.67.82.91,1.79,1.37,2.91,1.38,1.36,0,2.56-.58,3.61-1.77Z" style="fill: #fff; stroke: #fff; stroke-miterlimit: 10; stroke-width: .25px;"/>
    <path d="m358.06,142.14c-1.24-.53-2.29-1.29-3.17-2.27-.88-.98-1.53-2.13-1.95-3.46l-.02-.05c-.09-.34-.14-.6-.16-.8-.02-.2,0-.37.06-.53.06-.18.29-.38.69-.61.4-.23.86-.42,1.38-.57.52-.15.92-.23,1.21-.23.21,0,.37.04.49.11.12.07.2.22.25.43.02.07.03.14.03.22.25.91.61,1.69,1.07,2.35.46.66,1.05,1.19,1.76,1.57.71.38,1.53.58,2.46.59.89,0,1.72-.16,2.47-.49.75-.33,1.36-.83,1.83-1.51.46-.68.7-1.48.7-2.39,0-1.04-.22-1.97-.68-2.8-.46-.83-1.05-1.56-1.75-2.18-.7-.62-1.67-1.38-2.89-2.27-1.43-1-2.59-1.9-3.48-2.69-.89-.79-1.64-1.76-2.26-2.9-.62-1.15-.92-2.48-.91-4,.01-1.63.39-3.04,1.14-4.22.75-1.18,1.78-2.09,3.1-2.72,1.31-.63,2.81-.94,4.48-.93,1.45,0,2.75.27,3.89.79,1.14.52,2.06,1.24,2.75,2.18.69.94,1.1,2.03,1.23,3.27.02.21.01.38-.02.49-.04.12-.11.22-.23.32-.12.09-.29.17-.52.24-.35.11-.78.21-1.29.31-.51.1-.9.15-1.17.14-.22,0-.4-.05-.53-.15-.13-.1-.23-.26-.28-.48-.12-.76-.38-1.37-.76-1.84s-.85-.81-1.41-1.03c-.55-.22-1.16-.33-1.82-.34-.83,0-1.55.13-2.16.41-.61.28-1.07.7-1.41,1.25-.33.55-.5,1.23-.51,2.03,0,.88.21,1.69.65,2.41.44.72.99,1.37,1.64,1.94.65.57,1.55,1.26,2.71,2.07,1.52,1.06,2.76,2.01,3.72,2.86.96.84,1.77,1.9,2.44,3.16.67,1.26,1,2.73.99,4.42-.01,1.93-.48,3.55-1.41,4.86-.92,1.31-2.13,2.28-3.61,2.92-1.48.64-3.07.95-4.76.94-1.41,0-2.74-.28-3.98-.81Z" style="fill: #fff; stroke: #fff; stroke-miterlimit: 10; stroke-width: .25px;"/>
    <path d="m395.04,141.52c-1.26-1.11-2.22-2.68-2.88-4.72-.67-2.04-.99-4.42-.97-7.16.03-4.04.55-7.57,1.57-10.59,1.02-3.01,2.38-5.33,4.08-6.94,1.7-1.61,3.59-2.41,5.65-2.4,1.55.01,2.92.52,4.09,1.53,1.18,1.01,2.09,2.44,2.74,4.29.65,1.85.97,4.05.98,6.58l-.5,8.93c-.41,2.42-1.1,4.55-2.08,6.38-.97,1.83-2.17,3.26-3.58,4.27s-2.97,1.52-4.67,1.51c-1.7-.01-3.18-.57-4.44-1.68Zm8.94-4.79c.76-.64,1.41-1.53,1.97-2.66.55-1.13.94-2.39,1.16-3.79l.5-8.83c0-1.24-.14-2.34-.46-3.29-.31-.95-.74-1.68-1.29-2.19-.55-.51-1.15-.76-1.81-.77-1.08,0-2.07.58-2.99,1.76-.91,1.18-1.64,2.9-2.18,5.16-.54,2.26-.83,4.93-.85,8-.01,1.59.12,2.94.4,4.07.28,1.12.68,1.98,1.22,2.58.54.6,1.2.9,1.98.9.81,0,1.6-.31,2.35-.96Zm5.93,6.04c-.24-.12-.44-.36-.59-.72-.29-.65-.62-1.72-1-3.21-.38-1.49-.7-3.03-.95-4.62-.25-1.59-.34-2.93-.26-4l.5-8.78c.04-.9.08-1.62.11-2.16.03-.54.08-1.24.13-2.13.05-.86.09-1.6.12-2.22.03-.62.07-1.35.14-2.19.02-.23.04-.47.06-.7.1-1.73.19-3.59.25-5.57.06-1.98.08-3.94.07-5.86-.02-1.93-.08-3.64-.2-5.15-.02-.45.09-.79.32-1.04.23-.24.63-.41,1.18-.51.08-.02.17-.04.26-.07.51-.06.99-.12,1.43-.16.44-.04.95-.06,1.53-.06.37,0,.68.04.93.11.25.07.44.18.57.32.13.14.2.33.21.56.11,1.81.19,3.76.23,5.85.04,2.09.03,4.16-.03,6.2s-.13,4.08-.22,6.1c-.01.23-.03.47-.04.7l-.93,16.53c-.04.79,0,1.69.14,2.69.13,1,.34,2.08.63,3.24.29,1.16.64,2.36,1.04,3.62.14.46.19.83.17,1.12-.02.28-.11.52-.28.72-.17.19-.46.4-.88.61-.49.24-1.11.46-1.87.66-.76.2-1.35.29-1.78.29-.42,0-.75-.06-.98-.18Z" style="fill: #fff; stroke: #fff; stroke-miterlimit: 10; stroke-width: .25px;"/>
    <path d="m425.63,141.65c-1.53-1.15-2.68-2.77-3.44-4.86-.76-2.08-1.13-4.51-1.11-7.28.03-3.99.57-7.46,1.64-10.41,1.06-2.95,2.59-5.23,4.58-6.82,1.99-1.6,4.36-2.38,7.11-2.37,1.73.01,3.23.38,4.5,1.09,1.28.72,2.26,1.71,2.96,2.98.7,1.27,1.04,2.73,1.03,4.37-.02,2.62-.9,4.94-2.63,6.95-1.74,2.01-4.03,3.62-6.89,4.82-2.86,1.2-6.03,1.96-9.51,2.26l.07-4.51c2.37-.22,4.49-.73,6.37-1.53,1.88-.8,3.37-1.87,4.46-3.21,1.1-1.34,1.65-2.89,1.67-4.66,0-.66-.09-1.23-.28-1.71s-.48-.85-.84-1.09-.81-.37-1.32-.38c-1.33,0-2.47.61-3.41,1.85-.94,1.24-1.66,2.95-2.15,5.12-.49,2.17-.75,4.65-.76,7.42-.01,1.71.14,3.18.45,4.4.31,1.22.78,2.17,1.41,2.82.63.66,1.4.99,2.31,1,.58,0,1.12-.13,1.64-.4.51-.27,1-.69,1.48-1.27.47-.58.96-1.36,1.47-2.34.11-.22.24-.39.39-.51s.35-.17.58-.17c.43,0,1,.16,1.7.48.71.32,1.32.7,1.84,1.14.52.44.78.86.76,1.24,0,.18-.03.37-.09.59-.06.21-.14.42-.25.64-.62,1.12-1.41,2.15-2.35,3.07-.95.92-2.06,1.66-3.34,2.22-1.28.56-2.72.83-4.32.82-2.28-.01-4.19-.6-5.72-1.75Z" style="fill: #fff; stroke: #fff; stroke-miterlimit: 10; stroke-width: .25px;"/>
    <path d="m449.06,142.79c-.46-.09-.77-.25-.93-.48-.16-.24-.22-.59-.18-1.07.09-1.19.17-2.24.24-3.13.07-.89.16-2.01.26-3.35.23-3.19.42-6.01.57-8.46.15-2.45.24-4.35.27-5.71.05-1.53.05-3.01,0-4.43-.04-1.42-.13-2.76-.26-4.01-.02-.31.13-.59.44-.84.31-.25.83-.45,1.56-.59s1.67-.22,2.84-.21c.48,0,.85.08,1.13.23.28.15.44.37.48.66.11.69.19,1.64.24,2.83.05,1.2.05,2.34.01,3.43-.02.51-.03,1.02-.05,1.52-.02.5-.06.98-.11,1.45-.06.71-.14,1.43-.24,2.13-.1.71-.21,1.43-.34,2.15l-3.08,7.97c.08-3.52.79-7.05,2.12-10.6,1.33-3.55,3.06-6.46,5.2-8.75,2.14-2.28,4.39-3.41,6.75-3.4.38,0,.68.12.89.35.21.23.32.56.32.98,0,1.4-.09,2.49-.25,3.29-.16.8-.39,1.36-.69,1.7-.3.33-.72.5-1.24.49-1.86-.01-3.53.66-5.02,2.02-1.49,1.36-2.68,3.27-3.55,5.74-.87,2.47-1.36,5.31-1.47,8.53-.04,1.42-.08,2.6-.12,3.54-.04.94-.06,1.83-.08,2.67-.01.42-.03.8-.04,1.11-.01.32-.02.64-.02.98-.01.36-.15.64-.41.84-.26.21-.64.35-1.14.43-.51.08-1.16.12-1.97.11-.96,0-1.67-.05-2.13-.14Z" style="fill: #fff; stroke: #fff; stroke-miterlimit: 10; stroke-width: .25px;"/>
    <path d="m473.77,141.91c-1.61-1.19-2.81-2.85-3.6-4.98-.79-2.13-1.18-4.63-1.16-7.49.03-3.93.57-7.35,1.62-10.24,1.05-2.9,2.54-5.12,4.46-6.67,1.92-1.55,4.18-2.32,6.76-2.3,1.79.01,3.36.41,4.72,1.2,1.36.79,2.42,1.89,3.16,3.29.74,1.4,1.11,2.99,1.1,4.77-.02,2.23-.59,4.2-1.74,5.91-1.14,1.71-2.71,3.03-4.69,3.97-1.98.94-4.22,1.43-6.71,1.47-.8.03-1.54.02-2.22-.02-.68-.04-1.38-.11-2.09-.21-.19-.02-.35-.04-.5-.05-.15-.01-.32-.03-.5-.05v-4.64c.24.04.49.06.74.09.7.07,1.33.12,1.92.16.58.03,1.2.03,1.85-.01,1.48-.07,2.79-.4,3.92-.98,1.13-.58,2.03-1.4,2.7-2.45.67-1.05,1.02-2.27,1.03-3.68,0-.77-.1-1.41-.33-1.9-.22-.5-.54-.87-.96-1.11-.42-.24-.92-.37-1.51-.37-1.15,0-2.2.52-3.16,1.58-.96,1.06-1.72,2.65-2.3,4.78s-.88,4.71-.9,7.74c-.01,1.79.16,3.32.52,4.59s.89,2.24,1.59,2.92,1.54,1.02,2.51,1.02c.59,0,1.14-.14,1.65-.42.51-.29.96-.72,1.37-1.29.41-.57.77-1.3,1.08-2.18.13-.31.29-.54.47-.68s.42-.21.71-.2c.28,0,.66.09,1.15.27.49.18.98.39,1.47.65.48.26.86.53,1.12.81.2.18.33.36.4.55.07.18.08.38.03.59-.05.21-.14.47-.28.79-.57,1.28-1.29,2.42-2.16,3.41-.88.99-1.93,1.78-3.16,2.35-1.23.57-2.61.85-4.14.84-2.35-.02-4.33-.62-5.94-1.81Z" style="fill: #fff; stroke: #fff; stroke-miterlimit: 10; stroke-width: .25px;"/>
    <path d="m500.3,141.97c-1.65-1.27-2.86-2.97-3.62-5.11-.77-2.14-1.14-4.56-1.12-7.26.03-3.73.56-7.05,1.61-9.96,1.05-2.91,2.54-5.18,4.48-6.81s4.24-2.44,6.89-2.43c2.03.01,3.73.47,5.09,1.38,1.37.91,2.37,2.06,3.02,3.46.65,1.4.96,2.86.95,4.38,0,.46-.13.8-.39,1.02-.26.22-.72.38-1.4.46-.68.09-1.71.12-3.1.11-.29,0-.52-.04-.7-.12-.18-.08-.32-.19-.41-.33-.09-.14-.15-.33-.19-.58-.04-.94-.2-1.73-.47-2.37-.27-.64-.64-1.12-1.09-1.45-.46-.33-.99-.49-1.6-.5-1.1,0-2.09.5-2.97,1.52-.88,1.02-1.58,2.63-2.09,4.81s-.79,4.93-.81,8.22c-.01,1.65.13,3.08.43,4.28.3,1.2.76,2.12,1.39,2.76.63.64,1.39.96,2.3.97.72,0,1.36-.18,1.93-.55.57-.37,1.09-.91,1.57-1.61.47-.7.92-1.56,1.33-2.57.11-.36.26-.6.47-.73.21-.13.49-.2.85-.2.38,0,.83.09,1.35.25.52.17,1.02.37,1.5.6.48.24.81.45,1,.64.26.18.45.36.54.55.1.18.14.39.12.6-.02.22-.09.48-.22.79-.6,1.5-1.41,2.84-2.41,4-1,1.16-2.19,2.07-3.56,2.72s-2.86.97-4.47.96c-2.48-.02-4.54-.66-6.19-1.92Z" style="fill: #fff; stroke: #fff; stroke-miterlimit: 10; stroke-width: .25px;"/>
    <path d="m523.65,143.32c-.5-.1-.84-.28-1.04-.53-.2-.25-.27-.61-.24-1.07l1.76-27.67c.04-.39.06-.77.08-1.14.12-1.81.2-3.18.24-4.12.04-.94.07-2.11.09-3.52.04-1.88.02-3.51-.04-4.89-.06-1.39-.13-2.67-.22-3.85l-.03-.5c-.02-.23.01-.44.11-.6.09-.17.27-.31.52-.43.25-.12.6-.22,1.04-.31.08-.01.15-.02.21-.03.45-.08.9-.14,1.33-.18s.86-.07,1.28-.07c.49,0,.87.04,1.14.11.27.07.47.17.61.31.13.14.21.32.23.55,0,.19.02.4.03.62.06.89.13,1.85.19,2.86.06,1.01.11,2.06.14,3.16.03,1.09.05,2.17.06,3.22-.03.94-.06,1.85-.09,2.73-.03.88-.07,1.82-.12,2.81-.04.59-.08,1.17-.11,1.73-.03.56-.07,1.14-.11,1.73-.04.59-.08,1.17-.12,1.73-.04.56-.08,1.15-.12,1.75-.13,1.38-.26,2.69-.41,3.93-.15,1.23-.31,2.46-.5,3.69l-3.11,6.85c.33-3.38,1.2-6.75,2.61-10.09s3.16-6.1,5.24-8.25c2.08-2.15,4.24-3.22,6.47-3.21,1.33,0,2.47.42,3.41,1.25.94.82,1.62,1.97,2.03,3.43.41,1.47.54,3.15.39,5.05l-1.01,12.76c-.15,2.02-.23,3.65-.23,4.88,0,1.23.04,2.33.12,3.29.04.35.06.65.06.91,0,.36-.13.64-.38.84-.25.21-.64.35-1.17.44-.53.09-1.24.13-2.13.12-.73,0-1.29-.05-1.68-.13-.39-.08-.67-.21-.85-.39-.18-.18-.3-.46-.37-.84-.1-.45-.17-1.14-.19-2.08-.03-.94-.03-2.06,0-3.35.03-1.3.1-2.62.2-3.97l.9-11.99c.06-.84.04-1.54-.06-2.11s-.3-1.01-.58-1.32c-.28-.31-.67-.47-1.15-.47-1.18,0-2.41.81-3.69,2.46-1.28,1.64-2.38,3.73-3.31,6.27-.93,2.54-1.5,5.04-1.71,7.5-.05.93-.1,1.93-.14,3.01-.04,1.08-.07,2.18-.08,3.29-.03.5-.05,1.12-.06,1.84,0,.64-.1,1.1-.28,1.4-.18.29-.5.5-.96.61s-1.15.17-2.08.16c-.93,0-1.64-.06-2.14-.16Z" style="fill: #fff; stroke: #fff; stroke-miterlimit: 10; stroke-width: .25px;"/>
    <path d="m557.16,142.28c-1.6-1.31-2.8-3.1-3.6-5.38-.8-2.28-1.19-4.89-1.17-7.83.02-3.53.55-6.68,1.59-9.45,1.03-2.77,2.52-4.94,4.45-6.51,1.93-1.57,4.21-2.35,6.81-2.33,2.26.01,4.18.67,5.77,1.97,1.58,1.3,2.78,3.1,3.59,5.38.81,2.29,1.2,4.91,1.18,7.86-.02,3.51-.57,6.65-1.63,9.42-1.06,2.77-2.56,4.95-4.49,6.52-1.93,1.57-4.17,2.35-6.72,2.34-2.26-.01-4.19-.68-5.79-1.98Zm9.08-4.95c.83-.98,1.49-2.5,1.97-4.57.48-2.07.74-4.66.76-7.78.01-1.76-.15-3.3-.5-4.6-.34-1.3-.84-2.32-1.49-3.04-.65-.72-1.4-1.09-2.26-1.1-1.05,0-1.99.48-2.82,1.45-.82.97-1.48,2.49-1.97,4.56-.49,2.07-.75,4.66-.77,7.78-.01,1.76.15,3.3.5,4.61s.84,2.33,1.48,3.05c.64.72,1.4,1.09,2.27,1.1,1.05,0,2-.48,2.83-1.46Z" style="fill: #fff; stroke: #fff; stroke-miterlimit: 10; stroke-width: .25px;"/>
    <path d="m585.17,143.62c-1.27-.53-2.38-1.31-3.31-2.33-.94-1.03-1.63-2.26-2.07-3.69l-.02-.08c-.11-.38-.18-.69-.19-.92-.02-.23.02-.45.1-.65.05-.26.35-.53.91-.83.56-.3,1.19-.55,1.88-.75.7-.2,1.24-.3,1.64-.3.27,0,.48.05.65.15.17.1.28.28.33.55.02.06.04.12.03.18.23.84.53,1.55.91,2.13.38.58.85,1.05,1.42,1.42.57.37,1.23.55,1.97.56.72,0,1.37-.13,1.95-.39.58-.26,1.05-.64,1.4-1.11.35-.48.53-1.03.53-1.66,0-.89-.2-1.7-.62-2.43-.42-.73-.94-1.38-1.56-1.95s-1.49-1.26-2.61-2.09c-1.45-1.01-2.64-1.93-3.55-2.74-.91-.81-1.69-1.82-2.33-3.04-.64-1.22-.96-2.63-.94-4.25.01-1.7.42-3.19,1.23-4.47.81-1.28,1.94-2.27,3.39-2.96,1.45-.69,3.09-1.03,4.92-1.02,1.65.01,3.08.31,4.3.9,1.22.59,2.17,1.39,2.87,2.39.69,1,1.12,2.14,1.27,3.4,0,.26,0,.46-.05.62-.04.16-.14.3-.31.43-.16.13-.4.24-.7.34-.48.14-1.07.28-1.77.42-.7.14-1.22.21-1.56.21-.29,0-.52-.06-.69-.18-.17-.12-.3-.32-.39-.61-.12-.64-.33-1.16-.63-1.55-.3-.4-.67-.69-1.12-.88s-.95-.28-1.5-.29c-.65,0-1.21.1-1.68.31-.47.21-.83.52-1.08.94-.25.42-.38.93-.38,1.53,0,.75.19,1.44.58,2.08.4.64.89,1.22,1.49,1.74.6.52,1.43,1.17,2.49,1.96,1.53,1.08,2.79,2.05,3.75,2.91.97.86,1.8,1.95,2.49,3.27.69,1.32,1.03,2.85,1.02,4.59-.01,2.01-.5,3.69-1.47,5.04-.97,1.35-2.24,2.35-3.82,2.99-1.58.64-3.3.96-5.15.95-1.43,0-2.77-.28-4.04-.81Z" style="fill: #fff; stroke: #fff; stroke-miterlimit: 10; stroke-width: .25px;"/>
    <path d="m619.65,160.6c-.28-.15-.43-.39-.44-.7-.11-1.89-.19-3.7-.21-5.45-.03-1.74-.02-3.42.02-5.03.04-1.61.11-3.18.2-4.72l1.24-20.38c.1-1.54.07-3.06-.1-4.57-.17-1.5-.41-2.97-.71-4.4-.06-.29-.11-.54-.16-.75-.05-.21-.09-.41-.11-.61v-.07c-.06-.28-.08-.51-.06-.69.01-.18.09-.35.23-.5.19-.19.57-.39,1.14-.6.58-.21,1.2-.39,1.88-.53.68-.15,1.24-.22,1.68-.22.23,0,.43.02.59.05.16.03.3.11.42.22.12.11.21.28.28.5.06.29.15.7.27,1.22.37,1.8.68,3.7.94,5.69.26,2,.35,3.66.29,5l-.48,9.26-.81,11.45c-.03.51-.05.97-.06,1.36-.08,1.31-.13,2.66-.15,4.05-.02,1.4-.02,2.85,0,4.37.02,1.52.08,3.08.16,4.69,0,.27-.03.49-.12.65-.09.17-.24.3-.46.41-.22.1-.51.19-.9.25-.48.09-.96.15-1.44.18-.49.04-1.12.05-1.91.05-.52,0-.92-.08-1.21-.23Zm19.46-47.81c1.25,1.11,2.2,2.68,2.86,4.72.66,2.04.98,4.43.96,7.18-.03,4.03-.55,7.56-1.56,10.58-1.01,3.02-2.37,5.33-4.08,6.94-1.71,1.61-3.59,2.41-5.64,2.39-1.55-.01-2.92-.52-4.1-1.53s-2.1-2.44-2.74-4.29c-.65-1.85-.97-4.05-.98-6.58l.51-8.93c.42-2.42,1.12-4.54,2.08-6.37.96-1.83,2.15-3.25,3.57-4.27,1.42-1.02,2.98-1.53,4.68-1.52,1.71.01,3.2.57,4.45,1.68Zm-8.93,4.79c-.76.64-1.42,1.53-1.98,2.66-.56,1.13-.95,2.39-1.16,3.79l-.5,8.83c0,1.25.15,2.35.46,3.3.32.95.74,1.67,1.28,2.18.54.51,1.14.76,1.81.77,1.09,0,2.09-.58,2.99-1.76.91-1.18,1.63-2.9,2.17-5.15s.83-4.93.85-8.01c.01-1.59-.12-2.94-.39-4.07s-.68-1.98-1.22-2.58c-.54-.6-1.21-.9-1.99-.9-.8,0-1.58.31-2.34.96Z" style="fill: #fff; stroke: #fff; stroke-miterlimit: 10; stroke-width: .25px;"/>
    <path d="m652.41,143.19c-1.26-1.11-2.22-2.68-2.88-4.72-.67-2.04-.99-4.42-.97-7.16.03-4.04.55-7.57,1.57-10.59,1.02-3.01,2.38-5.33,4.08-6.94,1.7-1.61,3.59-2.41,5.65-2.4,1.55.01,2.92.52,4.09,1.53,1.18,1.01,2.09,2.44,2.74,4.29.65,1.85.97,4.05.98,6.58l-.5,8.93c-.41,2.42-1.1,4.55-2.08,6.38-.97,1.83-2.17,3.26-3.58,4.27s-2.97,1.52-4.67,1.51c-1.7-.01-3.18-.57-4.44-1.68Zm8.94-4.79c.76-.64,1.41-1.53,1.97-2.66.55-1.13.94-2.39,1.16-3.79l.5-8.83c0-1.24-.14-2.34-.46-3.29-.31-.95-.74-1.68-1.29-2.19-.55-.51-1.15-.76-1.81-.77-1.08,0-2.07.58-2.99,1.76-.91,1.18-1.64,2.9-2.18,5.16-.54,2.26-.83,4.93-.85,8-.01,1.59.12,2.94.4,4.07.28,1.12.68,1.98,1.21,2.58.54.6,1.2.9,1.98.9.81,0,1.6-.31,2.35-.96Zm5.89,5.97c-.2-.14-.37-.4-.53-.81-.31-.82-.65-1.94-1.02-3.38-.37-1.44-.68-2.91-.93-4.41s-.34-2.78-.28-3.81l.5-8.83c.05-1.03.3-2.71.75-5.05.18-.96.37-1.92.57-2.89.2-.96.37-1.78.51-2.45.05-.3.13-.52.26-.67s.3-.24.53-.29c.23-.05.56-.07.99-.07.68,0,1.4.08,2.16.22.75.14,1.38.38,1.89.7.51.32.71.74.6,1.25-.24.97-.46,1.95-.66,2.94-.34,1.66-.63,3.67-.89,6.01-.1.78-.18,1.6-.24,2.44s-.12,1.75-.17,2.71c-.04.64-.07,1.25-.1,1.83-.03.59-.04,1.16-.05,1.73-.02.96.04,1.95.18,2.97.14,1.02.34,2.04.6,3.08.26,1.03.59,2.19,1,3.47.12.47.18.84.18,1.1,0,.26-.08.49-.24.68-.16.19-.43.39-.81.6-.57.31-1.24.58-2.01.8-.77.22-1.44.33-1.99.33-.31,0-.57-.07-.76-.21Z" style="fill: #fff; stroke: #fff; stroke-miterlimit: 10; stroke-width: .25px;"/>
    <path d="m679.03,117.02c-.28-.12-.47-.33-.58-.63-.11-.3-.16-.74-.16-1.32,0-.78.06-1.37.16-1.77s.27-.69.52-.87c.24-.18.6-.26,1.06-.26.86,0,1.89-.02,3.1-.06,1.21-.05,2.59-.11,4.15-.19,1.29-.08,2.55-.15,3.8-.2,1.25-.05,2.26-.08,3.04-.07.36,0,.65.05.89.14.23.09.41.26.53.51.12.25.18.6.18,1.05,0,.94-.07,1.65-.19,2.13-.12.49-.29.81-.5.96-.22.16-.5.24-.86.25-.92.06-1.86.11-2.83.16-.97.04-1.94.09-2.92.14-1.75.09-3.37.15-4.84.19-1.48.03-2.59.05-3.33.05-.53,0-.94-.06-1.21-.18Zm5.45,26.69c-1.04-.63-1.79-1.57-2.26-2.82-.47-1.25-.69-2.84-.68-4.76,0-.49,0-.97.02-1.42,0-.46.03-.92.05-1.37l.04-.64.95-13.85c.1-1.57.16-2.6.18-3.06.1-1.69.16-3.03.17-4.04,0-.94-.02-1.88-.08-2.82-.06-.94-.12-1.88-.2-2.82-.07-.65-.1-1.11-.11-1.37,0-.41.15-.74.43-.99.29-.25.76-.43,1.42-.55.66-.12,1.58-.17,2.75-.17.59,0,1.05.11,1.37.33.32.21.51.57.57,1.06.1.66.17,1.23.21,1.71.08.83.14,1.7.18,2.63.05.93.07,1.89.06,2.9,0,.68-.02,1.4-.05,2.17s-.08,1.62-.14,2.55c-.04.76-.09,1.67-.16,2.73l-1,13.71c-.04.6-.07,1.17-.1,1.69,0,.26,0,.46,0,.59s0,.34-.02.61c0,.76.07,1.37.24,1.84.17.46.4.79.7.98s.68.28,1.13.28c.32,0,.65-.03.98-.09.33-.06.68-.15,1.04-.24.48-.11.8-.16.97-.16.31,0,.58.13.8.37.22.25.38.66.5,1.23.11.57.16,1.31.16,2.23,0,.31-.04.57-.1.78-.06.21-.18.38-.33.52s-.37.26-.64.36c-.45.15-.97.3-1.55.43-.58.14-1.16.24-1.74.32s-1.13.12-1.65.11c-1.69-.01-3.06-.33-4.1-.96Z" style="fill: #fff; stroke: #fff; stroke-miterlimit: 10; stroke-width: .25px;"/>
    <path d="m701.03,144.42c-.46-.09-.77-.25-.93-.48s-.22-.59-.18-1.07c.09-1.19.17-2.24.24-3.13.07-.89.16-2.01.26-3.35.23-3.19.42-6.01.57-8.46.15-2.45.24-4.35.27-5.71.05-1.53.05-3.01,0-4.43-.04-1.42-.13-2.76-.26-4.01-.02-.31.13-.59.44-.84.31-.25.83-.45,1.56-.59.72-.15,1.67-.22,2.84-.21.48,0,.85.08,1.13.23.28.15.44.37.48.67.11.69.19,1.64.24,2.83.05,1.2.05,2.34.01,3.43-.02.51-.03,1.02-.05,1.52-.02.5-.06.98-.11,1.45-.06.71-.14,1.43-.24,2.13-.1.71-.21,1.43-.34,2.15l-3.08,7.97c.08-3.52.79-7.05,2.12-10.6,1.33-3.55,3.06-6.46,5.2-8.75,2.14-2.28,4.39-3.41,6.75-3.4.38,0,.68.12.89.35.21.23.32.56.32.98,0,1.4-.09,2.49-.25,3.29s-.39,1.36-.69,1.7c-.3.33-.72.5-1.24.49-1.86-.01-3.53.66-5.02,2.02-1.49,1.36-2.68,3.27-3.55,5.74-.87,2.47-1.36,5.31-1.47,8.53-.04,1.42-.08,2.6-.12,3.54s-.06,1.83-.08,2.67c-.01.42-.03.8-.04,1.11s-.02.64-.02.98c-.01.36-.15.64-.41.84-.26.21-.64.35-1.14.43-.51.08-1.16.12-1.97.11-.96,0-1.67-.05-2.13-.14Z" style="fill: #fff; stroke: #fff; stroke-miterlimit: 10; stroke-width: .25px;"/>
    <path d="m723.91,144.64c-.51-.1-.86-.28-1.07-.53-.2-.26-.28-.66-.24-1.19l.42-5.09c.08-.83.15-1.77.23-2.83.14-2.02.27-4.07.39-6.15.12-2.08.22-4.4.29-6.97.03-1.41.04-2.74.03-3.99-.02-1.25-.04-2.35-.08-3.28,0-.22,0-.46-.03-.7-.02-.35.11-.64.39-.89.28-.25.71-.43,1.29-.55.58-.12,1.32-.18,2.21-.17.68,0,1.22.05,1.6.14.38.09.66.23.82.43.17.2.25.49.25.86.03.56.04,1.06.04,1.49.05,1.03.08,2.08.08,3.17,0,1.08,0,2.23,0,3.43-.05,1.98-.12,4-.23,6.07-.1,2.07-.25,4.33-.44,6.77-.05.8-.09,1.4-.13,1.8-.03.4-.08.99-.14,1.77l-.38,5.01c-.04.46-.16.8-.37,1.03-.21.23-.52.38-.92.45s-.99.1-1.74.1c-1,0-1.75-.06-2.26-.16Zm1.78-38.49c-.67-.41-1.2-.95-1.6-1.62-.39-.67-.59-1.38-.58-2.14,0-.7.22-1.41.64-2.12.42-.71.97-1.28,1.65-1.72.67-.44,1.37-.66,2.09-.66.77,0,1.48.21,2.14.62.66.41,1.19.95,1.59,1.62.4.67.59,1.38.58,2.11,0,.74-.22,1.46-.64,2.16-.42.7-.97,1.27-1.65,1.72-.68.44-1.38.66-2.08.66-.75,0-1.46-.21-2.13-.63Z" style="fill: #fff; stroke: #fff; stroke-miterlimit: 10; stroke-width: .25px;"/>
    <path d="m738.35,144.71c-.49-.1-.84-.28-1.03-.53-.2-.25-.27-.61-.24-1.07.35-4.14.65-8.29.9-12.44.25-4.15.38-7.04.39-8.66.01-1.55-.03-2.96-.12-4.23s-.2-2.32-.32-3.14v-.08c-.07-.5.07-.92.4-1.25.33-.33.86-.58,1.58-.73.72-.15,1.64-.22,2.75-.22.38,0,.71.04.98.11.27.07.48.17.62.31.14.14.24.32.28.55.11.61.2,1.46.28,2.52.07,1.07.1,2.19.08,3.38,0,.12,0,.26-.02.4,0,.47,0,.93-.03,1.39-.03.46-.08,1.03-.17,1.72,0,.17-.01.33-.04.49l-.96.14c.87-2.15,1.92-4.08,3.14-5.8,1.22-1.72,2.54-3.07,3.97-4.07,1.43-1,2.86-1.49,4.29-1.48,1.33,0,2.45.44,3.34,1.3.89.86,1.52,2.05,1.89,3.57.37,1.52.43,3.26.18,5.23l-.28,2.61-.91-1.73c.88-2.09,1.91-3.96,3.07-5.59,1.17-1.63,2.42-2.93,3.76-3.88,1.34-.95,2.68-1.42,4.03-1.41,1.28,0,2.37.42,3.28,1.24.91.82,1.58,1.97,2.01,3.44.43,1.47.56,3.15.4,5.04l-1.01,12.76c-.19,2.4-.28,4.29-.26,5.66.02,1.37.09,2.5.21,3.39.04.37-.07.66-.35.87-.27.21-.71.36-1.31.44-.6.09-1.39.12-2.37.12-.58,0-1.04-.05-1.37-.13-.33-.09-.6-.23-.79-.42-.19-.2-.32-.48-.4-.85-.07-.39-.12-1.07-.16-2.04-.04-.97-.04-2.1,0-3.4.04-1.3.1-2.6.19-3.91l.92-12.02c.05-.8.02-1.5-.08-2.08-.11-.58-.29-1.03-.54-1.34-.25-.31-.57-.47-.94-.48-1.04,0-2.15.8-3.32,2.42-1.17,1.62-2.2,3.73-3.08,6.33-.88,2.6-1.42,5.22-1.63,7.86-.14,1.78-.2,3.25-.19,4.43.02,1.18.05,2.25.12,3.21.01.18.02.33.03.44s.02.25.01.39c0,.38-.14.68-.41.9-.27.22-.69.38-1.26.46-.57.09-1.37.13-2.37.12-.57,0-1.02-.05-1.36-.13s-.59-.22-.78-.42-.32-.46-.39-.8c-.11-.84-.17-2.11-.17-3.8,0-1.7.07-3.47.21-5.31l.96-12.32c.06-.85.05-1.55-.05-2.12-.09-.56-.27-1-.51-1.31-.25-.31-.56-.46-.95-.47-1.15,0-2.34.85-3.59,2.58-1.25,1.73-2.32,3.87-3.21,6.42-.89,2.55-1.42,4.97-1.57,7.24-.09,1.44-.15,2.55-.17,3.32-.02.77-.03,1.73-.03,2.86-.04.96-.07,1.85-.07,2.66,0,.56-.28.95-.83,1.17-.55.22-1.4.33-2.55.32-.92,0-1.62-.06-2.11-.16Z" style="fill: #fff; stroke: #fff; stroke-miterlimit: 10; stroke-width: .25px;"/>
    <path d="m786.46,143.76c-1.6-1.31-2.8-3.1-3.6-5.38-.8-2.28-1.19-4.89-1.17-7.83.02-3.53.55-6.68,1.59-9.45,1.03-2.77,2.52-4.94,4.45-6.51,1.93-1.57,4.21-2.35,6.81-2.33,2.26.01,4.18.67,5.77,1.97,1.58,1.3,2.78,3.1,3.59,5.38.81,2.29,1.2,4.91,1.18,7.86-.02,3.51-.57,6.65-1.63,9.42-1.06,2.77-2.56,4.95-4.49,6.52-1.93,1.57-4.17,2.35-6.72,2.34-2.26-.01-4.19-.67-5.79-1.98Zm9.08-4.95c.83-.98,1.49-2.5,1.97-4.57.48-2.07.74-4.66.76-7.78.01-1.76-.15-3.3-.5-4.6-.34-1.3-.84-2.32-1.49-3.04-.65-.72-1.4-1.09-2.26-1.1-1.06,0-2,.48-2.82,1.45-.82.97-1.48,2.49-1.97,4.56-.49,2.07-.75,4.66-.77,7.78-.01,1.76.15,3.3.5,4.61s.84,2.33,1.48,3.05c.64.72,1.4,1.09,2.27,1.1,1.05,0,2-.48,2.83-1.46Z" style="fill: #fff; stroke: #fff; stroke-miterlimit: 10; stroke-width: .25px;"/>
    <path d="m811.87,145.19c-.49-.1-.84-.28-1.03-.53-.2-.25-.27-.61-.22-1.07.03-.54.08-1.29.17-2.26.35-4.7.62-8.56.82-11.59.2-3.03.32-5.31.37-6.85.05-1.8.03-3.44-.04-4.93-.07-1.49-.16-2.61-.27-3.34-.03-.34.11-.64.42-.9.31-.27.83-.48,1.56-.64.73-.16,1.68-.23,2.84-.22.53,0,.94.09,1.22.25.28.16.45.43.49.8.07.43.13,1,.18,1.71.05.72.09,1.47.12,2.25.02.79.02,1.51,0,2.17-.02.76-.06,1.48-.12,2.17-.06.69-.14,1.35-.24,2-.15,1.02-.32,2.04-.53,3.06l-2.78,4.99c.5-3.17,1.46-6.28,2.9-9.35,1.44-3.06,3.15-5.57,5.16-7.51s4.03-2.91,6.1-2.9c1.37,0,2.52.42,3.45,1.25.93.82,1.61,1.96,2.02,3.42.41,1.46.54,3.15.39,5.05l-1.06,12.81c-.18,2.13-.26,3.82-.24,5.05.01,1.23.06,2.39.13,3.46.06.22.08.39.07.5,0,.39-.14.69-.4.89-.26.2-.68.34-1.26.42-.58.08-1.37.12-2.37.11-.58,0-1.04-.04-1.39-.12-.35-.08-.61-.21-.78-.4-.17-.19-.29-.45-.34-.79-.09-.42-.15-1.11-.18-2.05-.03-.94-.04-2.06-.02-3.35.02-1.3.09-2.63.22-4l.92-12.07c.06-.81.04-1.51-.07-2.08-.11-.57-.31-1.02-.58-1.34-.28-.32-.64-.48-1.09-.48-1.19,0-2.45.86-3.78,2.59s-2.46,3.88-3.39,6.43c-.93,2.55-1.46,4.97-1.58,7.24-.08,1.61-.13,2.84-.16,3.7-.03.86-.05,1.83-.06,2.91-.02.76-.04,1.5-.07,2.21,0,.56-.27.95-.81,1.17-.54.22-1.37.33-2.51.32-.94,0-1.65-.06-2.15-.16Z" style="fill: #fff; stroke: #fff; stroke-miterlimit: 10; stroke-width: .25px;"/>
    <path d="m842.5,145.41c-.51-.1-.86-.28-1.06-.53-.2-.26-.28-.66-.24-1.19l.42-5.09c.08-.83.15-1.77.23-2.83.14-2.02.27-4.07.39-6.15.12-2.08.22-4.4.29-6.97.03-1.41.04-2.74.03-3.99-.02-1.25-.04-2.35-.08-3.28,0-.22,0-.46-.03-.7-.02-.35.11-.64.39-.89.28-.25.71-.43,1.29-.55s1.32-.18,2.21-.17c.68,0,1.22.05,1.6.14.38.09.66.23.82.43.17.2.25.49.25.86.03.56.04,1.06.04,1.49.05,1.03.08,2.08.08,3.17,0,1.08,0,2.23,0,3.43-.05,1.98-.12,4-.23,6.07-.1,2.07-.25,4.33-.44,6.77-.05.8-.09,1.4-.13,1.8-.03.4-.08.99-.14,1.77l-.38,5.01c-.04.46-.16.8-.37,1.03-.21.23-.52.38-.92.45-.41.07-.99.1-1.74.1-1,0-1.75-.06-2.26-.16Zm1.78-38.49c-.67-.41-1.2-.95-1.6-1.62-.39-.67-.59-1.38-.58-2.14,0-.7.22-1.41.64-2.12.42-.71.97-1.28,1.65-1.72.67-.44,1.37-.66,2.09-.66.77,0,1.48.21,2.14.62.66.41,1.19.95,1.59,1.62.4.67.59,1.38.58,2.11s-.22,1.46-.64,2.16c-.42.7-.97,1.27-1.65,1.72-.68.44-1.38.66-2.08.66-.75,0-1.46-.21-2.13-.63Z" style="fill: #fff; stroke: #fff; stroke-miterlimit: 10; stroke-width: .25px;"/>
    <path d="m858.09,144.83c-1.05-.9-1.84-2.23-2.38-4-.54-1.77-.8-3.94-.78-6.52.03-4,.61-7.65,1.74-10.96,1.13-3.31,2.61-5.91,4.44-7.8,1.83-1.89,3.74-2.83,5.75-2.82,1.37,0,2.65.41,3.85,1.21,1.2.8,2.26,1.85,3.19,3.17.92,1.32,1.67,2.77,2.24,4.36l-2.55,2.28c-.09-.19-.18-.38-.26-.57-.55-1.15-1.08-2.09-1.61-2.81s-1.05-1.25-1.59-1.6c-.54-.35-1.08-.53-1.62-.53-1.11,0-2.18.71-3.21,2.16s-1.87,3.38-2.54,5.81c-.67,2.43-1.04,5.05-1.13,7.87-.04,1.32.04,2.41.26,3.28.22.87.52,1.5.91,1.91.39.4.82.61,1.31.61,1.19,0,2.43-.96,3.71-2.91s2.37-4.38,3.28-7.3,1.43-5.74,1.58-8.47c.05-1.13.1-2.07.12-2.82.03-.75.05-1.4.07-1.95,0-.18,0-.36.01-.55,0-.19.01-.38.02-.56,0-.18.01-.38.01-.58,0-.36.12-.64.34-.85.23-.21.58-.36,1.05-.44.48-.08,1.11-.12,1.9-.11.92,0,1.62.06,2.11.16.49.1.84.27,1.04.51.2.24.28.6.24,1.08-.06.83-.15,1.97-.27,3.42-.11,1.46-.22,2.95-.31,4.48-.25,3.13-.45,5.95-.59,8.47-.14,2.52-.19,4.71-.16,6.55,0,.84.01,1.59.05,2.25.04.66.08,1.2.13,1.62.04.42.1.83.17,1.23.03.23.06.43.07.6.02.16.03.33.04.51,0,.44-.14.77-.42,1-.28.23-.75.4-1.41.49-.66.1-1.6.14-2.8.13-.38,0-.7-.04-.96-.11-.26-.07-.47-.18-.63-.34-.16-.16-.26-.38-.31-.67-.09-.43-.16-.96-.22-1.62-.05-.65-.08-1.37-.09-2.15-.03-.77-.04-1.52-.04-2.26,0-.57.02-1.14.04-1.71.02-.57.04-1.13.07-1.69.02-.65.05-1.28.11-1.88.06-.61.11-1.22.18-1.85l2.9-4.45c-.45,3.21-1.33,6.29-2.62,9.23-1.3,2.94-2.88,5.33-4.76,7.16-1.88,1.83-3.84,2.74-5.88,2.73-1.48,0-2.75-.46-3.8-1.36Z" style="fill: #fff; stroke: #fff; stroke-miterlimit: 10; stroke-width: .25px;"/>
    <path d="m887.9,145.03c-.96-.63-1.66-1.56-2.09-2.79s-.65-2.76-.64-4.6c.01-.48.02-.95.03-1.41.06-1.36.11-2.47.16-3.33l1.07-16.65c.01-.37.03-.66.04-.89.01-.22.03-.51.06-.85.1-1.6.18-2.88.22-3.84.04-.97.08-2.05.13-3.24.03-1.49.03-2.84-.02-4.06-.04-1.22-.1-2.39-.18-3.49-.03-.59-.04-1.1-.04-1.52,0-.26.05-.46.14-.62.09-.16.25-.29.48-.4.23-.11.57-.21,1.02-.29.05-.01.09-.02.14-.02.44-.1.91-.17,1.4-.21.49-.04,1.04-.06,1.64-.06.47,0,.86.08,1.15.24.29.16.44.39.46.71.02.21.04.43.05.65.12,1.32.21,2.5.28,3.55.07,1.05.1,2.23.09,3.55,0,1.01-.03,2.16-.08,3.46-.04,1.3-.11,2.73-.19,4.28-.06,1.26-.12,2.42-.18,3.48l-1.07,16.43c-.01.32-.03.64-.06.95-.05.7-.09,1.34-.12,1.91-.03.57-.05,1.04-.06,1.41,0,.68.05,1.21.15,1.6.11.39.28.67.52.84.24.17.57.26,1,.27.39,0,.79-.04,1.19-.13s.83-.19,1.28-.31c.07-.03.14-.06.2-.07.06-.02.12-.03.18-.04.28-.08.54.01.77.27.24.26.44.67.63,1.23.18.56.34,1.28.49,2.15.05.32.05.6-.01.83-.07.23-.18.42-.33.57-.16.15-.36.27-.6.37l-.1.05c-.83.34-1.75.59-2.77.75-1.02.16-1.9.24-2.64.23-1.57-.01-2.83-.33-3.78-.96Z" style="fill: #fff; stroke: #fff; stroke-miterlimit: 10; stroke-width: .25px;"/>
    <path d="m906.37,144.77c-1.53-1.15-2.68-2.77-3.44-4.86-.76-2.08-1.13-4.51-1.11-7.28.03-3.99.57-7.46,1.64-10.41,1.06-2.95,2.59-5.23,4.59-6.82,1.99-1.6,4.36-2.38,7.11-2.37,1.73.01,3.23.38,4.5,1.09,1.28.72,2.26,1.71,2.96,2.98.7,1.27,1.04,2.73,1.03,4.37-.02,2.62-.9,4.94-2.63,6.95-1.74,2.01-4.03,3.62-6.89,4.82-2.86,1.2-6.03,1.96-9.51,2.26l.07-4.51c2.37-.22,4.49-.73,6.37-1.53,1.88-.8,3.37-1.87,4.46-3.21,1.1-1.34,1.65-2.89,1.67-4.66,0-.66-.09-1.23-.28-1.71-.19-.48-.48-.85-.84-1.09-.37-.25-.81-.37-1.32-.38-1.33,0-2.47.61-3.41,1.85-.94,1.24-1.66,2.95-2.15,5.12-.49,2.17-.75,4.65-.76,7.42-.01,1.71.14,3.18.45,4.4.31,1.23.78,2.17,1.41,2.82.63.66,1.4.99,2.31.99.58,0,1.12-.13,1.64-.4s1-.69,1.48-1.27c.47-.58.96-1.36,1.47-2.34.11-.22.24-.39.39-.51.16-.12.35-.17.58-.17.43,0,1,.16,1.7.48.71.32,1.32.7,1.84,1.14.52.44.78.86.76,1.24,0,.18-.03.37-.09.59-.06.21-.14.42-.25.64-.62,1.12-1.41,2.15-2.35,3.07-.95.92-2.06,1.66-3.34,2.21s-2.72.83-4.32.82c-2.28-.01-4.19-.6-5.72-1.75Z" style="fill: #fff; stroke: #fff; stroke-miterlimit: 10; stroke-width: .25px;"/>
    <path d="m932.97,145.88c-1.27-.53-2.38-1.31-3.31-2.33-.94-1.03-1.63-2.26-2.07-3.69l-.02-.08c-.11-.38-.18-.69-.19-.92s.02-.45.1-.65c.05-.26.35-.53.91-.83.56-.3,1.19-.55,1.88-.75.7-.2,1.24-.3,1.64-.3.27,0,.48.05.65.15.17.1.28.28.33.55.02.06.04.12.03.18.23.84.53,1.55.91,2.13.38.58.85,1.05,1.42,1.42.57.37,1.23.55,1.97.56.72,0,1.37-.13,1.95-.39.58-.26,1.05-.64,1.4-1.11.35-.48.53-1.03.53-1.66,0-.89-.2-1.7-.62-2.43-.42-.73-.94-1.38-1.56-1.95s-1.49-1.26-2.61-2.09c-1.45-1.01-2.63-1.93-3.54-2.74-.91-.81-1.69-1.82-2.33-3.04-.64-1.22-.96-2.63-.94-4.25.01-1.7.42-3.19,1.23-4.47.81-1.28,1.94-2.27,3.39-2.96s3.09-1.03,4.92-1.02c1.65.01,3.08.31,4.3.9,1.22.59,2.17,1.39,2.87,2.39.69,1,1.12,2.14,1.27,3.4,0,.26,0,.46-.05.62-.04.16-.14.3-.31.43-.16.13-.4.24-.7.34-.48.14-1.07.28-1.77.42-.7.14-1.22.21-1.56.21-.29,0-.52-.06-.69-.18-.17-.12-.3-.32-.39-.61-.12-.64-.33-1.16-.63-1.55-.3-.4-.67-.69-1.12-.88s-.95-.28-1.5-.29c-.65,0-1.21.1-1.68.31-.47.21-.83.52-1.08.94-.25.42-.38.93-.38,1.53,0,.75.19,1.44.58,2.08.4.64.89,1.22,1.49,1.74.6.52,1.43,1.17,2.49,1.96,1.53,1.08,2.79,2.05,3.75,2.91.97.86,1.8,1.95,2.49,3.27.69,1.32,1.03,2.85,1.02,4.59-.01,2.01-.5,3.69-1.47,5.04-.97,1.35-2.24,2.35-3.82,2.99-1.58.64-3.3.96-5.15.95-1.43,0-2.77-.28-4.04-.81Z" style="fill: #fff; stroke: #fff; stroke-miterlimit: 10; stroke-width: .25px;"/>
  </g>
</svg>