<?xml version="1.0" encoding="utf-8"?>
<!-- Generator: Adobe Illustrator 27.2.0, SVG Export Plug-In . SVG Version: 6.00 Build 0)  -->
<svg version="1.1" id="Capa_1" xmlns="http://www.w3.org/2000/svg" xmlns:xlink="http://www.w3.org/1999/xlink" x="0px" y="0px"
	 viewBox="0 0 537.1 130.5" style="enable-background:new 0 0 537.1 130.5;" xml:space="preserve">
<style type="text/css">
	.st0{fill:url(#SVGID_1_);}
	.st1{fill:#FFFFFF;}
	.st2{fill:#FFC751;}
	.st3{fill:#FF00D4;}
	.elemento-svg{
		cursor: pointer;
	}
</style>
<g>
	<g id="Capa_3">
		<g>
			<g>
				<g>
					
						<linearGradient id="SVGID_1_" gradientUnits="userSpaceOnUse" x1="-4.177950e-03" y1="50.6" x2="537.1242" y2="50.6" gradientTransform="matrix(1 0 0 -1 0 132)">
						<stop  offset="0" style="stop-color:#903DFA"/>
						<stop  offset="1" style="stop-color:#00E2EF"/>
					</linearGradient>
					<path class="st0 elemento-svg" d="M489.6,128.6l-442.1,1.9c-12.7,0-24-6.7-28-16.6L1.6,64.6c-6.5-15.8,7.8-32.3,28-32.3h477.9
						c20.2,0,34.5,16.4,28,32.3l-17.9,49.3C513.6,123.8,502.3,128.6,489.6,128.6L489.6,128.6z"/>
					<g>
						<path class="st1 elemento-svg" d="M150.6,78c-1.1,1.7-3,3-5.7,3.9l6,13.2h-6.4l-5.1-12.3h-3.8l-1.7,12.3h-5.8l4.3-30.7h9
							c3.6,0,6.3,0.7,8.2,2c1.8,1.3,2.8,3.3,2.8,5.9C152.3,74.4,151.8,76.3,150.6,78L150.6,78z M136.3,78.6h3.7
							c2.2,0,3.8-0.6,4.8-1.8c1-1.2,1.5-2.6,1.5-4.2c0-1.4-0.4-2.3-1.3-2.9s-2.2-0.9-4.1-0.9h-3.2L136.3,78.6z"/>
						<path class="st1 elemento-svg" d="M170.8,83.8c-2.8,1.4-6.4,2.3-11.1,2.8c0.1,3.2,1.6,4.9,4.6,4.9c1.1,0,2.1-0.2,3.1-0.5
							c1-0.3,2-0.9,3.1-1.7l2.2,3.6c-2.8,2-5.8,3-8.9,3s-5.5-0.9-7.2-2.6S154,89.1,154,86c0-2.4,0.4-4.7,1.3-7s2.3-4.2,4.2-5.8
							s4.3-2.3,7.3-2.3c1.7,0,3.2,0.3,4.4,0.8s2.1,1.3,2.8,2.3c0.6,0.9,0.9,2,0.9,3.1C174.9,80.2,173.5,82.4,170.8,83.8L170.8,83.8z
							 M166.9,81c1.5-0.9,2.2-2.1,2.2-3.6c0-0.6-0.2-1.2-0.6-1.7c-0.4-0.5-1.1-0.7-2-0.7c-1.9,0-3.3,0.7-4.4,2.2
							c-1.1,1.5-1.8,3.3-2.1,5.5C163.2,82.5,165.5,81.9,166.9,81L166.9,81z"/>
						<path class="st1 elemento-svg" d="M196.8,73.8l-2.8,3.4c-0.7-0.6-1.4-1.1-2-1.3s-1.4-0.4-2.3-0.4c-2.4,0-4.1,1.1-5.2,3.3s-1.6,4.7-1.6,7.4
							c0,1.8,0.4,3,1.1,3.8s1.8,1.2,3.1,1.2c0.9,0,1.7-0.1,2.4-0.4c0.8-0.3,1.6-0.7,2.6-1.3l2.1,3.8c-2.5,1.7-5,2.6-7.8,2.6
							c-3,0-5.3-0.9-7-2.6S177,89,177,85.9c0-2.2,0.4-4.5,1.3-6.8s2.3-4.2,4.2-5.8c1.9-1.6,4.3-2.3,7.1-2.3S194.9,71.9,196.8,73.8
							L196.8,73.8z"/>
						<path class="st1 elemento-svg" d="M204.1,89.6l0,0.5c0,0.4,0.1,0.7,0.3,0.9c0.2,0.2,0.4,0.3,0.8,0.3c0.3,0,0.7-0.1,1.3-0.3l0.8,4
							c-1.2,0.6-2.5,0.8-3.9,0.8c-1.6,0-2.8-0.4-3.6-1.3c-0.9-0.8-1.3-2.1-1.3-3.7c0-0.6,0-1.1,0.1-1.5l3.8-27.1l5.7-0.6L204.1,89.6
							L204.1,89.6z"/>
						<path class="st1 elemento-svg" d="M232.4,73.2L230.2,89c-0.1,0.5-0.1,0.9-0.1,1c0,0.5,0.1,0.9,0.3,1.2c0.2,0.3,0.5,0.6,1,0.8l-1.6,3.7
							c-2.8-0.3-4.4-1.6-4.8-3.9c-1.9,2.7-4.3,4-7,4c-2.4,0-4.2-0.8-5.6-2.5s-2-3.9-2-6.7c0-2.4,0.4-4.8,1.4-7.2
							c0.9-2.4,2.3-4.4,4.3-6s4.4-2.4,7.4-2.4S229.6,71.7,232.4,73.2z M219.4,76.9c-1.1,1.2-1.8,2.6-2.3,4.4s-0.7,3.5-0.7,5.3
							c0,3.3,1.1,4.9,3.2,4.9c1,0,1.9-0.3,2.8-0.9s1.7-1.6,2.6-2.8l1.7-12c-0.9-0.4-2-0.6-3.1-0.6C221.8,75.2,220.4,75.7,219.4,76.9
							L219.4,76.9z"/>
						<path class="st1 elemento-svg" d="M267.6,72.5c1,1,1.4,2.4,1.4,4.2c0,0.7,0,1.2-0.1,1.5l-2.4,16.9H261l2.3-15.9c0.1-0.6,0.1-1,0.1-1.2
							c0-0.9-0.2-1.5-0.5-1.8s-0.8-0.5-1.4-0.5c-1.7,0-3.5,1.9-5.5,5.8L254,95.1h-5.6l2.3-15.9c0.1-0.6,0.1-1,0.1-1.2
							c0-0.9-0.2-1.5-0.5-1.8s-0.8-0.5-1.4-0.5c-1.7,0-3.5,2-5.5,6l-1.9,13.5h-5.6l3.3-23.5h4.8l-0.2,4.1c2.2-3.2,4.7-4.8,7.5-4.8
							c1.4,0,2.5,0.4,3.4,1.2c0.9,0.8,1.5,1.9,1.7,3.4c1-1.4,2.1-2.6,3.4-3.4c1.3-0.8,2.6-1.2,4-1.2C265.5,71,266.7,71.5,267.6,72.5
							L267.6,72.5z"/>
						<path class="st1 elemento-svg" d="M295,73.2L292.8,89c-0.1,0.5-0.1,0.9-0.1,1c0,0.5,0.1,0.9,0.3,1.2c0.2,0.3,0.5,0.6,1,0.8l-1.6,3.7
							c-2.8-0.3-4.4-1.6-4.8-3.9c-2,2.7-4.3,4-7,4c-2.4,0-4.2-0.8-5.6-2.5s-2-3.9-2-6.7c0-2.4,0.5-4.8,1.4-7.2
							c0.9-2.4,2.3-4.4,4.3-6s4.4-2.4,7.4-2.4S292.1,71.7,295,73.2z M281.9,76.9c-1.1,1.2-1.8,2.6-2.3,4.4s-0.7,3.5-0.7,5.3
							c0,3.3,1.1,4.9,3.2,4.9c1,0,1.9-0.3,2.8-0.9s1.7-1.6,2.6-2.8l1.7-12c-1-0.4-2-0.6-3.1-0.6C284.4,75.2,283,75.7,281.9,76.9z"/>
						<path class="st1 elemento-svg" d="M316.2,88.1c-0.1,0.6-0.1,1-0.1,1.1c0,0.7,0.1,1.2,0.4,1.5s0.8,0.5,1.4,0.5c0.8,0,1.8-0.3,3-0.8l1.6,3.8
							c-1.8,1.1-3.8,1.7-5.9,1.7c-2,0-3.5-0.5-4.6-1.6s-1.6-2.5-1.6-4.5c0-0.5,0-1.1,0.1-1.7l1.7-12.3h-3.6l0.6-4.1h3.9l1.5-5.3
							l4.7-0.5l-0.8,5.9h5.4l-1.2,4.1h-4.8L316.2,88.1L316.2,88.1z"/>
						<path class="st1 elemento-svg" d="M327.5,94.3c-1-1-1.5-2.4-1.5-4.2c0-0.5,0-1.1,0.1-1.6l2.4-16.7h5.6l-2.3,16c-0.1,0.6-0.1,1-0.1,1.2
							c0,0.9,0.2,1.5,0.5,1.8c0.3,0.3,0.9,0.5,1.5,0.5c1,0,2-0.4,3-1.2c0.9-0.8,1.9-1.9,2.8-3.3l2.1-15.1h5.6L344,95.1h-4.8l0.2-3.9
							c-1.1,1.4-2.3,2.6-3.5,3.3c-1.2,0.8-2.6,1.2-4.1,1.2C329.9,95.8,328.5,95.3,327.5,94.3L327.5,94.3z"/>
						<path class="st1 elemento-svg" d="M364.8,71.7h4.9l0,2.8c2.1-2.3,4.5-3.4,7-3.4c2.3,0,4,0.8,5.3,2.4c1.3,1.6,1.9,3.9,1.9,6.8
							c0,2.5-0.4,4.9-1.3,7.3c-0.8,2.4-2.2,4.4-4.1,5.9s-4.2,2.4-7.1,2.4c-1.5,0-2.9-0.2-4.4-0.7l-1.3,9.1l-5.6,0.7L364.8,71.7
							L364.8,71.7z M375.1,89.8c1-1.2,1.8-2.7,2.3-4.4s0.7-3.5,0.7-5.3c0-3.2-1.1-4.8-3.4-4.8c-1,0-1.9,0.3-2.7,0.8
							c-0.8,0.5-1.7,1.3-2.5,2.2l-1.7,12.7c1.2,0.4,2.4,0.6,3.5,0.6C372.8,91.5,374.1,91,375.1,89.8L375.1,89.8z"/>
						<path class="st1 elemento-svg" d="M404.3,71.4l-1.6,5.5c-0.7-0.2-1.4-0.3-2-0.3c-1.4,0-2.6,0.6-3.5,1.8c-1,1.2-1.9,2.9-2.7,5.2l-1.6,11.6
							h-5.6l3.3-23.5h4.8l-0.2,4.6c0.9-1.7,1.9-3,3-3.9s2.4-1.3,3.7-1.3C402.7,71,403.5,71.2,404.3,71.4L404.3,71.4z"/>
						<path class="st1 elemento-svg" d="M419.8,83.8c-2.8,1.4-6.4,2.3-11,2.8c0.1,3.2,1.6,4.9,4.6,4.9c1.1,0,2.1-0.2,3.1-0.5c1-0.3,2-0.9,3.1-1.7
							l2.2,3.6c-2.8,2-5.8,3-8.9,3s-5.5-0.9-7.2-2.6S403,89.1,403,86c0-2.4,0.4-4.7,1.3-7s2.3-4.2,4.2-5.8s4.3-2.3,7.3-2.3
							c1.7,0,3.2,0.3,4.4,0.8s2.1,1.3,2.8,2.3c0.6,0.9,0.9,2,0.9,3.1C423.9,80.2,422.5,82.4,419.8,83.8L419.8,83.8z M415.9,81
							c1.5-0.9,2.2-2.1,2.2-3.6c0-0.6-0.2-1.2-0.6-1.7c-0.4-0.5-1.1-0.7-2-0.7c-1.9,0-3.3,0.7-4.4,2.2s-1.8,3.3-2.1,5.5
							C412.2,82.5,414.5,81.9,415.9,81L415.9,81z"/>
						<path class="st1 elemento-svg" d="M458.1,72.5c1,1,1.4,2.4,1.4,4.2c0,0.7,0,1.2-0.1,1.5l-2.4,16.9h-5.6l2.3-15.9c0.1-0.6,0.1-1,0.1-1.2
							c0-0.9-0.2-1.5-0.5-1.8s-0.8-0.5-1.4-0.5c-1.7,0-3.5,1.9-5.5,5.8l-2,13.7h-5.6l2.3-15.9c0.1-0.6,0.1-1,0.1-1.2
							c0-0.9-0.2-1.5-0.5-1.8s-0.8-0.5-1.4-0.5c-1.7,0-3.5,2-5.5,6L432,95.1h-5.6l3.3-23.5h4.8l-0.2,4.1c2.2-3.2,4.7-4.8,7.5-4.8
							c1.4,0,2.5,0.4,3.4,1.2c0.9,0.8,1.5,1.9,1.7,3.4c1-1.4,2.1-2.6,3.4-3.4c1.3-0.8,2.6-1.2,4-1.2C456,71,457.2,71.5,458.1,72.5
							L458.1,72.5z"/>
						<path class="st1 elemento-svg" d="M472.5,71.7l-3.3,23.5h-5.6l3.3-23.5L472.5,71.7L472.5,71.7z M468.3,65.8c-0.6-0.6-0.9-1.3-0.9-2.2
							c0-1.1,0.4-2,1.1-2.7c0.7-0.7,1.7-1.1,2.8-1.1c1,0,1.7,0.3,2.3,0.9c0.6,0.6,0.9,1.3,0.9,2.2c0,1.1-0.4,2-1.1,2.7
							s-1.7,1.1-2.8,1.1C469.6,66.6,468.9,66.3,468.3,65.8z"/>
						<path class="st1 elemento-svg" d="M478.4,93.2c-1.6-1.8-2.5-4.2-2.5-7.3c0-2.3,0.4-4.6,1.3-6.9s2.2-4.2,4.1-5.7c1.9-1.5,4.3-2.3,7.3-2.3
							s5.4,0.9,7,2.6c1.6,1.8,2.5,4.2,2.5,7.2c0,2.3-0.4,4.6-1.2,6.9s-2.2,4.2-4.1,5.8c-1.9,1.6-4.3,2.3-7.3,2.3
							S480.1,94.9,478.4,93.2L478.4,93.2z M489.6,89.7c1-1.2,1.7-2.7,2-4.4s0.6-3.4,0.6-5c0-3.3-1.3-4.9-4-4.9
							c-1.6,0-2.9,0.6-3.9,1.8s-1.7,2.6-2.1,4.3s-0.6,3.3-0.6,4.9c0,3.4,1.3,5.2,4,5.2C487.3,91.5,488.6,90.9,489.6,89.7L489.6,89.7
							z"/>
					</g>
				</g>
				<path class="st1 elemento-svg" d="M69.4,101c0.1-3.4,0.1-6.9,0-10.3c0.1-0.6,0.2-1.3-0.5-1.6c-1.3-0.6-2.5-1.3-3.7-1.9c-2-0.9-5.3-2-6.9-3.5
					c-2.1-1.9-3.4-9.1-5-11.3c-0.2-0.2-0.4-0.2-0.6-0.4c-1.9-1.4-2.6-1.9-4.6-2.9c-1.7-0.9-3.3-1.8-5.1-2.5c-2.1-0.8-3-2.2-2.9-4.5
					c0.1-5.2-0.2-8.5-0.2-13.8c0-0.9,0-1.7-0.2-2.6c-0.2-1.2-0.2-2.5,0.5-3.6c1.1-1.7,2.7-2.8,4.8-2.8c1.8,0,3.5,0,5.3,0
					c0.7,0,0.9-0.2,0.9-0.9c0-1.4,0.1-7.5,0-8.9c-0.1-1.1,0.3-1.4,1.4-1.4c11,0,19.4,0,30.3,0c5.4,0,10.9,0,16.3,0
					c1,0,1.5,0.5,1.5,1.6c0,1.2,0,7.3,0,8.5c0,0.8,0.2,1,1,1c1.9,0,3.8,0,5.6,0c2.7,0.1,4.6,2.1,4.6,4.5c0.1,6.7,0.3,11.6,0.3,18.3
					c0,1.3-0.4,2.5-1.6,3.4c-1.2,0.9-2.5,1.4-3.8,2.1c-2.9,1.5-4.3,2.6-7.1,4.3c-1,0.6-1.6,1.5-1.9,2.6l0,0c-0.4,0-0.9,5.3-1.2,5.6
					c-3.1,4-8.8,6.8-13.5,8.5c-0.7,0.2-0.9,0.6-0.9,1.3c0,3.6,0,7.2,0,10.8c0,0.8,0.2,1.1,1,1c1.7,0,3.3,0,4.9,0
					c1.3,0,1.8,0.6,1.8,1.8c0,0.7,0.1-1.3,0-0.6c-0.1,1,0.2,1.5,1.4,1.4c1.1-0.1,2.2,0,3.3,0c1.2,0,1.7,0.5,1.7,1.8
					c0,1.7,0,6.1,0,7.8c0,0.9-0.2,1.7-0.6,2.5c-14.1,0-25.6,0-39.7,0c-0.8-0.3-1-1-1-1.7c0-1.9,0.1-6.7,0-8.6
					c-0.1-1.4,0.7-1.6,1.6-1.8c0.3-0.1,0.7-0.1,1-0.1c0.8,0,1.6,0,2.3,0c1.2,0.3,1.5-0.2,1.4-1.3c-0.1-0.7,0,1.4,0,0.7
					c0.1-1.4,0.4-1.8,1.8-1.8c1.6,0,3.3,0,4.9,0C69.1,102,69.6,101.9,69.4,101L69.4,101z M48.1,63.4c0.9,0.8,2.1,1.3,3.2,1.9
					c0.2,0.1,0.5,0.2,0.7,0.1c0.2-0.2,0-0.4,0-0.6c-0.1-1.5-0.6-3-0.6-4.6c0.1-5.5-0.2-9.1-0.2-14.7c0-0.9-0.3-1.2-1.2-1.2
					c-1.4,0-2.8,0-4.2,0c-1.4,0-1.5,0.2-1.2,1.5c0.1,0.4,0.1,0.8,0.1,1.2c0,5.4,0.2,8.8,0.2,14.2c0,0.5-0.2,1.1,0.3,1.3
					c0.9,0.3,1.7,1,2.7,0.9C47.9,63.4,48,63.4,48.1,63.4L48.1,63.4z M100.9,58.9c-0.3,2.1-0.1,4.2-0.7,6.2c-0.1,0.3,0.1,0.7,0.6,0.4
					c1.9-1.3,4-2,6-3c0.4-0.2,0.5-0.5,0.5-0.9c0-1,0.2-2,0.2-2.9c0.1-5.1-0.2-8.4-0.2-13.5c0-0.7-0.3-0.9-0.9-0.9
					c-1.4,0-2.9,0-4.3,0c-1.4,0-1.4,0-1.3,1.4C100.7,50.8,101,53.9,100.9,58.9L100.9,58.9z"/>
			</g>
			<g>
				<path class="st2 elemento-svg" d="M100.3,14.9C100.3,14.9,76-3,74,0.4c-1.9,3.4-1.6,37.1,2.5,35.2S103.6,18.2,100.3,14.9z"/>
				<path class="st3 elemento-svg" d="M66.5,12.6c0,0-15.1,4.6-14.3,6.5c0.8,1.9,15.1,12.3,15.5,10S69,12.2,66.5,12.6z"/>
			</g>
		</g>
	</g>
</g>
</svg>
