<?xml version="1.0" encoding="utf-8"?>
<!-- Generator: Adobe Illustrator 27.2.0, SVG Export Plug-In . SVG Version: 6.00 Build 0)  -->
<svg version="1.1" id="Capa_1" xmlns="http://www.w3.org/2000/svg" xmlns:xlink="http://www.w3.org/1999/xlink" x="0px" y="0px"
	 viewBox="0 0 315 88.2" style="enable-background:new 0 0 315 88.2;" xml:space="preserve">
<style type="text/css">
	.st0{fill:url(#SVGID_1_);stroke:#FFFFFF;stroke-width:2;stroke-miterlimit:10;}
	.st1{fill:#FFFFFF;}
	.elemento-svg{
		cursor: pointer;
	}
</style>
<g class="elemento-svg">
	<g id="Capa_3">
		<g>
			
				<linearGradient id="SVGID_1_" gradientUnits="userSpaceOnUse" x1="10091" y1="9795.9355" x2="10597.6699" y2="9795.9355" gradientTransform="matrix(-1 0 0 1 10528.1797 -9751.8203)">
				<stop  offset="0" style="stop-color:#04C182"/>
				<stop  offset="0.21" style="stop-color:#02C75B"/>
				<stop  offset="0.44" style="stop-color:#01CD37"/>
				<stop  offset="0.65" style="stop-color:#00D11E"/>
				<stop  offset="0.85" style="stop-color:#00D40E"/>
				<stop  offset="1" style="stop-color:#00D509"/>
			</linearGradient>
			<path class="st0" d="M37.1,2.7L277.9,1c9.2,0,17.4,5.9,20.3,14.6l14.6,43.3c4.7,13.9-5.6,28.3-20.3,28.3h-270
				c-14.7,0-25-14.4-20.3-28.3l14.6-43.3C19.8,6.9,27.9,2.7,37.1,2.7z"/>
			<g>
				<path class="st1" d="M58.7,34L47.1,61h-6l-4.3-27H42l2.6,22.4L53.5,34H58.7L58.7,34z"/>
				<path class="st1" d="M58.9,59.3c-1.4-1.5-2.2-3.7-2.2-6.4c0-2,0.4-4,1.1-6s1.9-3.7,3.6-5c1.7-1.3,3.8-2,6.4-2s4.7,0.8,6.1,2.3
					s2.2,3.7,2.2,6.3c0,2-0.4,4-1.1,6s-1.9,3.7-3.6,5c-1.7,1.4-3.8,2-6.4,2S60.4,60.8,58.9,59.3L58.9,59.3z M68.8,56.2
					c0.9-1.1,1.5-2.4,1.8-3.9s0.5-3,0.5-4.4c0-2.9-1.2-4.3-3.5-4.3c-1.4,0-2.6,0.5-3.4,1.6c-0.9,1-1.5,2.3-1.8,3.8
					c-0.3,1.5-0.5,2.9-0.5,4.3c0,3,1.2,4.5,3.5,4.5C66.8,57.8,67.9,57.2,68.8,56.2L68.8,56.2z"/>
				<path class="st1" d="M84.6,56.1l0,0.4c0,0.4,0.1,0.6,0.2,0.8s0.4,0.2,0.7,0.2c0.3,0,0.7-0.1,1.2-0.2l0.7,3.5
					c-1.1,0.5-2.2,0.7-3.4,0.7c-1.4,0-2.4-0.4-3.2-1.1c-0.8-0.7-1.1-1.8-1.1-3.3c0-0.5,0-1,0.1-1.3l3.3-23.8l5-0.5L84.6,56.1
					L84.6,56.1z"/>
				<path class="st1" d="M109.3,40.4L99.8,61h-5.9l-3.9-20.6h5.3l2,16.6l6.7-16.6C104.1,40.4,109.3,40.4,109.3,40.4z"/>
				<path class="st1" d="M123.9,51c-2.4,1.2-5.7,2-9.7,2.4c0.1,2.9,1.4,4.3,4,4.3c0.9,0,1.8-0.2,2.7-0.5s1.8-0.8,2.7-1.5l1.9,3.1
					c-2.5,1.8-5.1,2.7-7.8,2.7s-4.9-0.8-6.3-2.3s-2.2-3.6-2.2-6.3c0-2.1,0.4-4.1,1.2-6.1c0.8-2,2-3.7,3.7-5s3.8-2,6.4-2
					c1.5,0,2.8,0.2,3.9,0.7c1.1,0.5,1.9,1.2,2.4,2s0.8,1.7,0.8,2.7C127.5,47.9,126.3,49.8,123.9,51L123.9,51z M120.5,48.6
					c1.3-0.8,1.9-1.8,1.9-3.1c0-0.5-0.2-1-0.6-1.5s-1-0.6-1.8-0.6c-1.6,0-2.9,0.7-3.8,2s-1.5,2.9-1.8,4.8
					C117.2,49.9,119.2,49.4,120.5,48.6L120.5,48.6z"/>
				<path class="st1" d="M144.6,40.1l-1.4,4.8c-0.6-0.2-1.2-0.2-1.7-0.2c-1.2,0-2.3,0.5-3.1,1.6s-1.6,2.6-2.3,4.6L134.6,61h-4.9
					l2.9-20.6h4.2l-0.2,4c0.8-1.5,1.6-2.6,2.6-3.4s2.1-1.2,3.3-1.2C143.3,39.8,143.9,39.9,144.6,40.1L144.6,40.1z"/>
				<path class="st1" d="M173.5,41.8l-2,13.8c-0.1,0.5-0.1,0.8-0.1,0.9c0,0.4,0.1,0.8,0.2,1s0.5,0.5,0.9,0.7l-1.4,3.3
					c-2.4-0.3-3.8-1.4-4.2-3.4c-1.7,2.3-3.8,3.5-6.2,3.5c-2.1,0-3.7-0.7-4.9-2.2c-1.2-1.5-1.7-3.4-1.7-5.9c0-2.1,0.4-4.2,1.2-6.4
					c0.8-2.1,2.1-3.9,3.8-5.3c1.7-1.4,3.9-2.1,6.5-2.1S170.9,40.4,173.5,41.8L173.5,41.8z M162,45c-0.9,1-1.6,2.3-2.1,3.9
					c-0.4,1.5-0.6,3.1-0.6,4.7c0,2.9,0.9,4.3,2.9,4.3c0.9,0,1.7-0.3,2.4-0.8s1.5-1.4,2.3-2.4l1.5-10.5c-0.8-0.4-1.8-0.5-2.8-0.5
					C164.1,43.4,162.9,44,162,45L162,45z"/>
				<path class="st1" d="M181,65.9c1.1-0.5,1.9-0.9,2.6-1.4c0.7-0.5,1.2-1.1,1.6-1.9s0.7-1.9,0.9-3.2l2.7-19h4.9l-2.6,18.9
					c-0.3,2-0.8,3.7-1.6,5c-0.8,1.3-1.7,2.3-2.8,3.1c-1.1,0.8-2.6,1.5-4.4,2.2L181,65.9L181,65.9z M190,35.2
					c-0.5-0.5-0.8-1.2-0.8-1.9c0-1,0.3-1.8,1-2.4c0.6-0.6,1.5-1,2.4-1c0.8,0,1.5,0.2,2,0.8s0.8,1.2,0.8,2c0,0.9-0.3,1.7-1,2.4
					s-1.5,1-2.4,1C191.2,36,190.5,35.7,190,35.2L190,35.2z"/>
				<path class="st1" d="M198.5,60.2c-0.9-0.9-1.3-2.1-1.3-3.7c0-0.5,0-1,0.1-1.4l2.1-14.7h4.9l-2,14.1c-0.1,0.5-0.1,0.9-0.1,1.1
					c0,0.8,0.1,1.3,0.4,1.6c0.3,0.3,0.8,0.5,1.3,0.5c0.9,0,1.8-0.4,2.6-1.1c0.8-0.7,1.6-1.7,2.4-2.9l1.9-13.3h4.9L212.9,61h-4.2
					l0.2-3.4c-1,1.3-2,2.3-3.1,2.9c-1.1,0.7-2.3,1-3.6,1C200.6,61.6,199.4,61.1,198.5,60.2L198.5,60.2z"/>
				<path class="st1" d="M238.4,41.8l-2.7,18.1c-0.5,3.4-1.6,5.9-3.3,7.4c-1.7,1.5-4,2.3-7,2.3c-1.2,0-2.5-0.2-3.8-0.6
					s-2.5-0.9-3.6-1.6l1.7-3.5c0.9,0.5,1.8,0.9,2.8,1.2c1,0.3,1.9,0.4,2.9,0.4c1.5,0,2.7-0.4,3.6-1.1c1-0.7,1.6-2.1,1.9-4.2l0.3-2.3
					c-0.8,0.9-1.6,1.6-2.6,2.1s-2,0.8-3.1,0.8c-2.1,0-3.7-0.7-4.9-2.1s-1.8-3.3-1.8-5.7c0-2.2,0.4-4.2,1.2-6.3c0.8-2,2.1-3.7,3.8-5
					s3.9-2,6.6-2C233.3,39.8,235.9,40.5,238.4,41.8L238.4,41.8z M226.8,44.9c-1,1-1.7,2.2-2.1,3.6c-0.4,1.5-0.7,3-0.7,4.5
					c0,1.5,0.3,2.5,0.8,3.2s1.2,1,2.1,1s1.7-0.3,2.5-0.9s1.5-1.4,2.3-2.4l1.6-9.9c-0.5-0.2-1-0.3-1.4-0.4c-0.4-0.1-0.9-0.1-1.5-0.1
					C228.9,43.4,227.7,43.9,226.8,44.9L226.8,44.9z"/>
				<path class="st1" d="M260.7,41.8l-2,13.8c0,0.5-0.1,0.8-0.1,0.9c0,0.4,0.1,0.8,0.2,1s0.5,0.5,0.9,0.7l-1.4,3.3
					c-2.4-0.3-3.8-1.4-4.2-3.4c-1.7,2.3-3.8,3.5-6.2,3.5c-2.1,0-3.7-0.7-4.9-2.2c-1.2-1.5-1.7-3.4-1.7-5.9c0-2.1,0.4-4.2,1.2-6.4
					c0.8-2.1,2.1-3.9,3.8-5.3c1.7-1.4,3.9-2.1,6.5-2.1S258.2,40.4,260.7,41.8L260.7,41.8z M249.2,45c-0.9,1-1.6,2.3-2.1,3.9
					c-0.4,1.5-0.6,3.1-0.6,4.7c0,2.9,0.9,4.3,2.9,4.3c0.9,0,1.7-0.3,2.4-0.8s1.5-1.4,2.3-2.4l1.5-10.5c-0.8-0.4-1.8-0.5-2.8-0.5
					C251.3,43.4,250.1,44,249.2,45L249.2,45z"/>
				<path class="st1" d="M278.7,40.1l-1.4,4.8c-0.6-0.2-1.2-0.2-1.7-0.2c-1.2,0-2.3,0.5-3.1,1.6s-1.6,2.6-2.3,4.6L268.6,61h-4.9
					l2.9-20.6h4.2l-0.2,4c0.8-1.5,1.6-2.6,2.6-3.4c1-0.8,2.1-1.2,3.3-1.2C277.3,39.8,278,39.9,278.7,40.1L278.7,40.1z"/>
			</g>
		</g>
	</g>
</g>
</svg>
