<?xml version="1.0" encoding="UTF-8"?>
<svg id="Capa_3" data-name="Capa 3" xmlns="http://www.w3.org/2000/svg" xmlns:xlink="http://www.w3.org/1999/xlink" viewBox="0 0 39.92 39.92">
  <defs>
    <style>
      .cls-1 {
        fill: #fff;
      }

      .cls-2 {
        clip-path: url(#clippath-1);
      }

      .cls-3 {
        clip-path: url(#clippath);
      }

      .cls-4 {
        fill: none;
      }

      .cls-5 {
        fill: url(#Degradado_sin_nombre_180);
      }

      .cls-6 {
        fill: #002f70;
      }
    </style>
    <clipPath id="clippath">
      <rect class="cls-4 elemento-svg" x="287.72" y="-710.4" width="1618.86" height="912.51"/>
    </clipPath>
    <clipPath id="clippath-1">
      <rect class="cls-4 elemento-svg" x="285.61" y="-448.7" width="1628.77" height="662.72"/>
    </clipPath>
    <linearGradient id="Degradado_sin_nombre_180" data-name="Degradado sin nombre 180" x1="711.15" y1="4686.77" x2="705.76" y2="4472.9" gradientTransform="translate(498.3 -6745.46) rotate(.27) scale(1 1.49)" gradientUnits="userSpaceOnUse">
      <stop offset="0" stop-color="#00f1ff"/>
      <stop offset=".58" stop-color="#978bc5" stop-opacity=".41"/>
      <stop offset="1" stop-color="#ff479e" stop-opacity="0"/>
    </linearGradient>
  </defs>
  <g class="cls-3 elemento-svg">
    <g class="cls-2 elemento-svg">
      <path class="cls-5 elemento-svg" d="m2307.1-196.08l-2104.22-4.91-11.46.19c-21.7.36-40.56,4.61-47.99,10.81l-52.63,59.91c-7.16,5.97-25.89,9.92-46.84,9.88l-464.65-.99c-30.82-.06-55.86,7.48-55.95,16.84l-.04,4.08-2.91,299.77c-.06,5.9-1.6,13,48.99,10.8l3203.63,7.82c25.75.06,46.73-6.2,46.91-14.01l7.37-300.73c.09-9.41-24.94-17.1-55.91-17.17l-297.23-.68c-23.74-.05-44.86-4.64-52.73-11.46l-61.61-58.68c-7.88-6.82-29-11.41-52.73-11.46Z"/>
    </g>
  </g>
  <g>
    <path class="cls-1 elemento-svg" d="m8.19,0h31.73v31.73c0,4.52-3.67,8.19-8.19,8.19H0V8.19C0,3.67,3.67,0,8.19,0Z"/>
    <path class="cls-6 elemento-svg" d="m8.91,28.13c6.48-6.47,12.9-12.9,19.37-19.37-.25,0-.51,0-.76,0-1.7,0-3.4.02-5.1-.01-1.29-.03-2.22-1.1-2.15-2.39.06-1.2,1.05-2.11,2.3-2.11,1.8,0,3.61,0,5.41,0,1.88,0,3.76,0,5.64,0,1.6,0,2.5.91,2.5,2.51,0,3.66,0,7.31,0,10.97,0,1.36-.94,2.37-2.22,2.38-1.3.01-2.27-.94-2.29-2.3-.02-1.64,0-3.28,0-4.91,0-.25,0-.51,0-.7-6.41,6.42-12.84,12.85-19.27,19.28.07,0,.24,0,.41,0,1.77,0,3.55-.02,5.32.01,1.22.02,2.15.98,2.18,2.18.04,1.29-.96,2.31-2.28,2.32-2.56,0-5.13,0-7.69,0-1.15,0-2.31,0-3.46,0-1.49,0-2.43-.92-2.43-2.4,0-3.72,0-7.43,0-11.15,0-1.3.95-2.29,2.19-2.32,1.28-.03,2.29.92,2.31,2.23.03,1.67,0,3.34,0,5.01,0,.25,0,.5,0,.77Z"/>
  </g>
</svg>