<?xml version="1.0" encoding="utf-8"?>
<!-- Generator: Adobe Illustrator 27.2.0, SVG Export Plug-In . SVG Version: 6.00 Build 0)  -->
<svg version="1.1" id="Capa_1" xmlns="http://www.w3.org/2000/svg" xmlns:xlink="http://www.w3.org/1999/xlink" x="0px" y="0px"
	 viewBox="0 0 315 117.7" style="enable-background:new 0 0 315 117.7;" xml:space="preserve">
<style type="text/css">
	.st0{fill:url(#SVGID_1_);stroke:#FFFFFF;stroke-width:2;stroke-miterlimit:10;}
	.st1{enable-background:new    ;}
	.st2{fill:#FFFFFF;}
	.st3{fill:url(#SVGID_00000062187367375901390120000008846188381934236596_);}
	.st5{
		fill:url(#SVGID_1_);
	}
	.classContainerPathbtn:hover>.st0, .classContainerPathbtn:focus>.st0{
				fill: url(#SVGID_2);
			}

    .classContainerPathbtn:active>.st0, .classContainerPathbtn:focus>.st0{
		fill: url(#SVGID_2);
	}
	.elemento-svg{
		cursor: pointer;
	}
</style>
<g>
	<g id="Juego">
		<g>
			<g class="classContainerPathbtn">
				
					<linearGradient id="SVGID_1_" gradientUnits="userSpaceOnUse" x1="5044.0498" y1="14462.1992" x2="5550.7202" y2="14462.1992" gradientTransform="matrix(1 0 0 1 -5166.25 -14388.5996)">
					<stop  offset="0" style="stop-color:#C204AF"/>
					<stop  offset="0.66" style="stop-color:#8801CA"/>
					<stop  offset="1" style="stop-color:#6F00D6"/>
				</linearGradient>
				<path class="st0 elemento-svg" d="M277.9,115l-240.7,1.7c-9.2,0-17.4-5.9-20.3-14.6L2.2,58.8c-4.7-13.9,5.6-28.3,20.3-28.3h270
					c14.7,0,25,14.4,20.3,28.3l-14.6,43.3C295.2,110.8,287,115,277.9,115L277.9,115z"/>
				<g class="st1 elemento-svg">
					<path class="st2" d="M155.1,90.5h-5.4l1-12.3c0.3-4.7,0.8-8.7,1.3-12.1l-8.2,21.2h-5.3l-2.7-21.1c-0.2,3.3-0.8,7.5-1.8,12.3
						l-2.3,11.9h-5.4l6.4-29.1h6.8l2.4,20.6l7.6-20.6h7.4L155.1,90.5z"/>
					<path class="st2" d="M168.7,68.3l-3.1,22.3h-5.3l3.1-22.3H168.7z M164.7,62.7c-0.6-0.5-0.8-1.2-0.8-2.1c0-1,0.4-1.9,1.1-2.6
						s1.6-1,2.6-1c0.9,0,1.6,0.3,2.2,0.8c0.6,0.5,0.8,1.3,0.8,2.1c0,1-0.4,1.9-1.1,2.5c-0.7,0.7-1.6,1-2.6,1
						C166,63.5,165.2,63.2,164.7,62.7z"/>
					<path class="st2" d="M189.4,70.4l-2.4,3c-1.7-1.2-3.5-1.8-5.4-1.8c-1.2,0-2,0.2-2.7,0.6c-0.6,0.4-0.9,1-0.9,1.7
						c0,0.7,0.3,1.2,0.9,1.6c0.6,0.4,1.8,0.9,3.5,1.4c2.1,0.6,3.6,1.5,4.6,2.5c1,1.1,1.5,2.4,1.5,4.2c0,1.5-0.4,2.8-1.2,3.9
						c-0.8,1.1-1.9,2-3.4,2.6c-1.5,0.6-3.2,0.9-5.1,0.9c-1.9,0-3.5-0.3-5-1c-1.5-0.6-2.7-1.5-3.7-2.5l2.8-2.9
						c1.8,1.5,3.8,2.3,6.1,2.3c1.4,0,2.5-0.3,3.1-0.9c0.7-0.6,1-1.2,1-2c0-0.6-0.1-1.1-0.4-1.5c-0.3-0.4-0.7-0.7-1.3-1
						c-0.6-0.3-1.6-0.7-2.8-1.1c-2.1-0.6-3.5-1.5-4.4-2.5c-0.9-1-1.4-2.3-1.4-3.9c0-1.2,0.3-2.3,1-3.3c0.7-1,1.7-1.9,3.1-2.5
						c1.3-0.6,3-0.9,4.9-0.9C184.6,67.6,187.2,68.6,189.4,70.4z"/>
					<path class="st2" d="M200.1,68.3L197,90.5h-5.3l3.1-22.3H200.1z M196.1,62.7c-0.6-0.5-0.8-1.2-0.8-2.1c0-1,0.4-1.9,1.1-2.6
						s1.6-1,2.6-1c0.9,0,1.6,0.3,2.2,0.8c0.6,0.5,0.8,1.3,0.8,2.1c0,1-0.4,1.9-1.1,2.5c-0.7,0.7-1.6,1-2.6,1
						C197.4,63.5,196.7,63.2,196.1,62.7z"/>
					<path class="st2" d="M205.7,88.7c-1.6-1.7-2.3-4-2.3-6.9c0-2.2,0.4-4.4,1.2-6.5c0.8-2.2,2.1-4,3.9-5.4c1.8-1.5,4.1-2.2,6.9-2.2
						c2.9,0,5.1,0.8,6.6,2.5c1.6,1.7,2.3,4,2.3,6.8c0,2.2-0.4,4.4-1.2,6.5c-0.8,2.2-2.1,4-3.9,5.5c-1.8,1.5-4.1,2.2-7,2.2
						C209.5,91.2,207.3,90.4,205.7,88.7z M216.4,85.3c0.9-1.2,1.6-2.6,1.9-4.2c0.4-1.6,0.5-3.2,0.5-4.8c0-3.1-1.2-4.7-3.8-4.7
						c-1.5,0-2.8,0.6-3.7,1.7c-0.9,1.1-1.6,2.5-2,4.1s-0.6,3.2-0.6,4.7c0,3.3,1.3,4.9,3.8,4.9C214.2,87.1,215.5,86.5,216.4,85.3z
						 M220.3,56l1.7,4.2l-9.8,3.8l-1.2-2.7L220.3,56z"/>
					<path class="st2" d="M246.6,69.1c0.9,1,1.4,2.3,1.4,4c0,0.5,0,1-0.1,1.5l-2.2,15.9h-5.3l2.1-15.1c0.1-0.5,0.1-0.9,0.1-1.1
						c0-0.8-0.2-1.4-0.5-1.8s-0.8-0.5-1.4-0.5c-1.9,0-3.9,1.9-5.9,5.7L233,90.5h-5.3l3.1-22.3h4.6l-0.2,4.1c2.2-3.2,4.7-4.8,7.7-4.8
						C244.5,67.6,245.7,68.1,246.6,69.1z"/>
					<path class="st2" d="M278.5,63.7c1.5,1.4,2.2,3.1,2.2,5.3c0,1.5-0.4,3-1.1,4.4c-0.7,1.4-2,3.2-4,5.2c-2,2.1-4.9,4.6-8.7,7.7
						l11.9-0.1l-1.2,4.3h-17.4l0.5-4c4.4-3.9,7.5-6.8,9.4-8.8c1.9-2,3.3-3.5,3.9-4.7c0.7-1.2,1-2.4,1-3.6c0-1.1-0.3-2-1-2.6
						c-0.6-0.6-1.5-0.9-2.6-0.9c-1.1,0-2.1,0.2-3,0.7c-0.9,0.5-1.9,1.3-2.9,2.3l-3.1-2.9c1.4-1.5,2.9-2.6,4.5-3.3
						c1.6-0.7,3.3-1.1,5.2-1.1C274.9,61.7,277,62.4,278.5,63.7z"/>
				</g>
			</g>
			<g>
				<path class="st2 elemento-svg" d="M40.9,19.6L112,0.1c1.2-0.3,2.4,0.6,2.4,1.9l-2.9,75.2l-0.8,0.2c-0.2,0.1-18.8,6-37.3,11.8
					c-25.6,8.1-38.6,11.6-39,10.5c-0.6-1.6,0,0,0,0c-0.1-0.4-0.2-2.5,6.4-79.4L40.9,19.6L40.9,19.6z"/>
				<g class="elemento-svg">
					
						<radialGradient id="SVGID_00000183247945030074119960000000957556515264693888_" cx="-90.4702" cy="1219.6541" r="36.65" gradientTransform="matrix(0.9934 -0.1146 0.1146 0.9934 26.7781 -1141.983)" gradientUnits="userSpaceOnUse">
						<stop  offset="0" style="stop-color:#FFFFFF"/>
						<stop  offset="5.000000e-02" style="stop-color:#FAC6FC"/>
						<stop  offset="9.000000e-02" style="stop-color:#F692F9"/>
						<stop  offset="0.14" style="stop-color:#F265F7"/>
						<stop  offset="0.18" style="stop-color:#EF40F6"/>
						<stop  offset="0.23" style="stop-color:#ED24F4"/>
						<stop  offset="0.27" style="stop-color:#EB10F3"/>
						<stop  offset="0.32" style="stop-color:#EA04F3"/>
						<stop  offset="0.36" style="stop-color:#EA00F3"/>
						<stop  offset="0.64" style="stop-color:#E700F0"/>
						<stop  offset="0.85" style="stop-color:#B400EC"/>
						<stop  offset="1" style="stop-color:#9100EA"/>
					</radialGradient>
					<radialGradient id="SVGID_2" cx="-132.5743" cy="1720.4421" r="41.78" gradientTransform="matrix(0.9872 0.1594 -0.1594 0.9872 465.4262 -1595.3491)" gradientUnits="userSpaceOnUse">
						<stop offset="0" style="stop-color:#a03ab4"/>
						<stop offset="1" style="stop-color:#5d00a8"/>
					</radialGradient>
					<path class="st5 elemento-svg" d="M67.7,64c-0.5-0.1-0.8-0.3-0.9-0.5
						c-0.2-0.2-0.2-0.5-0.2-0.8c0.2-1.9,0.4-3.4,0.8-4.7s0.9-2.4,1.6-3.3s1.5-1.8,2.5-2.5c0.8-0.7,1.7-1.3,2.6-1.8s2-1.2,3.3-1.9
						c1.7-0.9,3.1-1.8,4.1-2.4s1.8-1.5,2.5-2.5s1.1-2.1,1.2-3.4c0.1-1.5-0.2-2.9-0.9-4.2c-0.7-1.2-1.8-2.2-3.2-3S78,31.8,76,31.6
						c-1.6-0.1-3.1,0-4.6,0.4c-1.5,0.4-2.8,0.9-4,1.8c-1.2,0.8-2.1,1.8-2.8,3c-0.1,0.3-0.3,0.5-0.5,0.6c-0.2,0.1-0.4,0.2-0.7,0.2
						c-0.6,0-1.2-0.2-1.9-0.5s-1.2-0.6-1.7-1s-0.7-0.7-0.7-1s0.1-0.6,0.2-0.9s0.3-0.7,0.6-1.1C60,33,60,32.9,60,32.9
						s0.1-0.1,0.1-0.2c0.8-1.2,1.9-2.4,3.4-3.4s3.4-1.9,5.6-2.5s4.6-0.8,7.2-0.6c2.9,0.2,5.6,1,7.9,2.2c2.4,1.2,4.2,2.9,5.5,4.9
						c1.3,2.1,1.8,4.4,1.6,7c-0.2,2.2-0.7,4.1-1.7,5.5c-0.9,1.5-2,2.7-3.3,3.5c-1.3,0.9-2.9,1.9-5.1,3c-1.1,0.6-2.1,1.1-2.9,1.6
						s-1.5,1-2.2,1.5L76,55.9c-0.8,0.6-1.5,1.2-2,1.9s-0.9,1.4-1.2,2.3c-0.3,0.9-0.5,1.9-0.6,3.1c0,0.3-0.1,0.6-0.3,0.8
						c-0.2,0.2-0.4,0.3-0.8,0.4s-0.8,0.1-1.3,0C68.8,64.2,68.1,64.1,67.7,64L67.7,64z M65.8,77.8c-0.7-0.5-1.2-1.1-1.6-1.8
						c-0.4-0.7-0.5-1.4-0.5-2.2c0-0.7,0.3-1.3,0.8-2c0.5-0.6,1.1-1.2,1.9-1.6s1.5-0.6,2.2-0.5s1.5,0.3,2.2,0.8s1.2,1.1,1.6,1.8
						c0.4,0.7,0.6,1.4,0.5,2.1s-0.3,1.4-0.8,2.1s-1.1,1.2-1.9,1.6s-1.5,0.5-2.3,0.5S66.5,78.3,65.8,77.8L65.8,77.8z"/>
				</g>
			</g>
		</g>
	</g>
</g>
</svg>
