<?xml version="1.0" encoding="utf-8"?>
<!-- Generator: Adobe Illustrator 27.2.0, SVG Export Plug-In . SVG Version: 6.00 Build 0)  -->
<svg version="1.1" id="Capa_1" xmlns="http://www.w3.org/2000/svg" xmlns:xlink="http://www.w3.org/1999/xlink" x="0px" y="0px"
	 viewBox="0 0 315 117.7" style="enable-background:new 0 0 315 117.7;" xml:space="preserve">
<style type="text/css">
	.st0{fill:url(#SVGID_1_);}
	.st1{fill:url(#SVGID_00000023269004850185508470000014327541689576590511_);}
	.st2{fill:url(#SVGID_00000000194687955584938480000018012414995374369708_);}
	.st3{fill:url(#SVGID_00000085239148725874493750000008863137746725718448_);}
	.st4{fill:url(#SVGID_00000131363109893699987570000002284655793434037400_);}
	.st5{fill:#FFFFFF;}
	.svg-shadow{
        animation: svg-shadow 1.5s ease-in-out infinite alternate;
      }

      @keyframes svg-shadow {
        from {
          filter: drop-shadow( 0 0 5px #fff) drop-shadow( 0 0 5px #FFB172) drop-shadow( 0 0 5px #FFB172);
        }

        to {
          
          filter: drop-shadow( 0 0 8px #fff) drop-shadow( 0 0 8px #FFB172) drop-shadow( 0 0 8px #FFB172);
        }
      }
</style>
<g class="svg-shadow">
	
		<radialGradient id="SVGID_1_" cx="1439.8857" cy="982.5684" r="67.6135" gradientTransform="matrix(0.9715 0.2371 -0.2371 0.9715 -1041.1093 -1180.8439)" gradientUnits="userSpaceOnUse">
		<stop  offset="8.938547e-02" style="stop-color:#FFB172"/>
		<stop  offset="0.3638" style="stop-color:#FFAD70"/>
		<stop  offset="0.6111" style="stop-color:#FFA269"/>
		<stop  offset="0.8472" style="stop-color:#FF905F"/>
		<stop  offset="1" style="stop-color:#FF8055"/>
	</radialGradient>
	<path class="st0" d="M232.4,26.6l-62,12.5l-26.6,61.2l65.8-15.2L232.4,26.6z M180.2,48.3c1.6-1,3.2-1.9,4.8-2.8c0,0,0,0,0,0
		c1.4-0.8,2.8-1.7,4.3-2.5c1.3-0.8,2.4-0.6,3.2,0.8c1.8,3,3.6,6,5.4,9c0.4,0.7,0.8,1.4,0.2,2.2c-0.6,0.8-1.4,0.5-2.2,0.4
		c-3.8-0.7-3.8-0.7-4.8,3.1c-1.1,4.2-0.5,4-5,2.8c-0.4-0.1-0.8-0.3-1.3-0.3c-1.9-0.2-2.5-1.2-1.7-3c0.1-0.3,0.2-0.7,0.3-1
		c0.3-1.4,1.3-2.8,0.7-4.1c-0.6-1.3-2.4-0.9-3.7-1.4c-0.7-0.3-1.4-0.6-1.4-1.4C179.1,49.2,179.5,48.7,180.2,48.3z M208.5,74.4
		c-1.5,0.9-3.1,1.8-4.6,2.7c0,0,0,0,0,0c-1.5,0.9-3,1.7-4.5,2.6c-0.7,0.4-1.5,0.6-2.2,0.1c-0.8-0.5-0.7-1.3-0.5-2.1
		c0.7-3.9,0.7-3.9-3.2-4.8c-5.2-1.3-10.4-2.6-15.6-3.8c-1-0.2-2-0.4-3-0.4c-2,0.1-3.8,1.8-4,3.6c-0.1,1.7,1.2,3.7,2.8,4.2
		c1.7,0.5,4.4-0.4,4.9-2.2c0.8-2.8,2.3-2.6,4.5-1.9c4.5,1.3,4.8,1.7,2.5,5.8c-3,5.3-9.5,7.6-15.3,5.3c-5.5-2.2-8.5-8.4-6.8-14.1
		c1.7-5.7,7.6-9.4,13.6-8.2c6.4,1.3,12.8,3,19.2,4.6c3.2,0.8,3.2,0.8,4-2.3c0.1-0.3,0.2-0.7,0.3-1c0.2-0.6,0.5-1.2,1.3-1.3
		c0.8-0.1,1.2,0.3,1.6,0.9c2,3.2,3.9,6.5,5.9,9.7C210.1,72.9,209.6,73.7,208.5,74.4z"/>
	
		<linearGradient id="SVGID_00000062174538629527960610000001147778221312096675_" gradientUnits="userSpaceOnUse" x1="1080.65" y1="1163.6945" x2="1016.6593" y2="1195.1117" gradientTransform="matrix(0.9578 0.2873 -0.2873 0.9578 -458.7239 -1408.0579)">
		<stop  offset="0.3828" style="stop-color:#FFAC56"/>
		<stop  offset="0.8487" style="stop-color:#FF8055"/>
	</linearGradient>
	<polygon style="fill:url(#SVGID_00000062174538629527960610000001147778221312096675_);" points="234,23.6 241.7,17.4 165.6,22.4 
		170.3,36.4 	"/>
	
		<linearGradient id="SVGID_00000132085224967373840790000014526421310758078125_" gradientUnits="userSpaceOnUse" x1="1008.1741" y1="1230.2733" x2="1015.6947" y2="1230.2733" gradientTransform="matrix(0.9578 0.2873 -0.2873 0.9578 -458.7239 -1408.0579)">
		<stop  offset="0" style="stop-color:#FF2907"/>
		<stop  offset="1" style="stop-color:#FF8055"/>
	</linearGradient>
	<path style="fill:url(#SVGID_00000132085224967373840790000014526421310758078125_);" d="M163.9,25.6
		c-7.1,23.4-16.2,53.8-20.5,68.9L168,37.9L163.9,25.6z"/>
	
		<linearGradient id="SVGID_00000016772593794859324170000007901757195348904362_" gradientUnits="userSpaceOnUse" x1="1076.8763" y1="1195.1361" x2="1078.5719" y2="1221.0524" gradientTransform="matrix(0.9578 0.2873 -0.2873 0.9578 -458.7239 -1408.0579)">
		<stop  offset="0" style="stop-color:#FFAC56"/>
		<stop  offset="1" style="stop-color:#FF8055"/>
	</linearGradient>
	<polygon style="fill:url(#SVGID_00000016772593794859324170000007901757195348904362_);" points="235.7,25.6 212.3,85.6 
		224.6,92.4 243.5,19.4 	"/>
	
		<linearGradient id="SVGID_00000086675633652809369110000014598567631076386998_" gradientUnits="userSpaceOnUse" x1="1018.3604" y1="1255.3026" x2="1082.647" y2="1255.3026" gradientTransform="matrix(0.9578 0.2873 -0.2873 0.9578 -458.7239 -1408.0579)">
		<stop  offset="0" style="stop-color:#FF2907"/>
		<stop  offset="1" style="stop-color:#FF8055"/>
	</linearGradient>
	<path style="fill:url(#SVGID_00000086675633652809369110000014598567631076386998_);" d="M151.8,101.2c17.9-1.9,51.1-5.6,69.4-7.6
		l-10.8-5.9L151.8,101.2z"/>
	<path d="M162.8,19.9l-0.3,0.9c-0.1,0.2-6.3,20.8-12.4,41.2c-12.7,42.4-12.7,42.4-10.9,43c0,0,0,0,0,0c0.4,0.1,2.8,0.2,86.5-9.3
		l0.9-0.1l21-81.2L162.8,19.9z M241.7,17.4l-7.7,6.1l-63.6,12.8l-4.7-14L241.7,17.4z M163.9,25.6l4.1,12.3l-24.6,56.6
		C147.6,79.4,156.8,49,163.9,25.6z M170.4,39.1l62-12.5l-22.8,58.5l-65.8,15.2L170.4,39.1z M151.8,101.2l58.6-13.5l10.8,5.9
		C202.9,95.6,169.7,99.3,151.8,101.2z M212.3,85.6l23.4-60l7.8-6.2l-18.9,73L212.3,85.6z"/>
	<path class="st5" d="M203.5,62c-0.4-0.6-0.8-1-1.6-0.9c-0.8,0.1-1.1,0.7-1.3,1.3c-0.1,0.3-0.2,0.7-0.3,1c-0.8,3.1-0.8,3.1-4,2.3
		c-6.4-1.6-12.7-3.3-19.2-4.6c-6-1.2-11.9,2.5-13.6,8.2c-1.7,5.7,1.3,11.8,6.8,14.1c5.7,2.3,12.3,0.1,15.3-5.3
		c2.3-4.1,2.1-4.5-2.5-5.8c-2.2-0.6-3.7-0.8-4.5,1.9c-0.5,1.8-3.1,2.7-4.9,2.2c-1.6-0.5-2.9-2.5-2.8-4.2c0.2-1.8,2-3.5,4-3.6
		c1,0,2,0.2,3,0.4c5.2,1.3,10.4,2.5,15.6,3.8c3.9,1,3.9,1,3.2,4.8c-0.1,0.8-0.3,1.6,0.5,2.1c0.8,0.5,1.5,0.3,2.2-0.1
		c1.5-0.8,3-1.7,4.5-2.6c0,0,0,0,0,0c1.5-0.9,3.1-1.8,4.6-2.7c1-0.6,1.6-1.5,0.8-2.7C207.4,68.5,205.5,65.2,203.5,62z"/>
	<path class="st5" d="M180.6,51.4c1.2,0.5,3.1,0.1,3.7,1.4c0.5,1.3-0.5,2.7-0.7,4.1c-0.1,0.3-0.1,0.7-0.3,1c-0.7,1.7-0.2,2.7,1.7,3
		c0.4,0.1,0.8,0.2,1.3,0.3c4.5,1.1,3.9,1.3,5-2.8c1-3.8,1-3.8,4.8-3.1c0.8,0.1,1.6,0.4,2.2-0.4c0.6-0.8,0.2-1.5-0.2-2.2
		c-1.8-3-3.7-6-5.4-9c-0.8-1.4-1.9-1.6-3.2-0.8c-1.4,0.8-2.9,1.6-4.3,2.5c0,0,0,0,0,0c-1.6,0.9-3.2,1.9-4.8,2.8
		c-0.6,0.4-1.1,0.9-1,1.7C179.2,50.9,179.9,51.2,180.6,51.4z"/>
</g>
</svg>
