<?xml version="1.0" encoding="utf-8"?>
<!-- Generator: Adobe Illustrator 27.2.0, SVG Export Plug-In . SVG Version: 6.00 Build 0)  -->
<svg version="1.1" id="Capa_1" xmlns="http://www.w3.org/2000/svg" xmlns:xlink="http://www.w3.org/1999/xlink" x="0px" y="0px"
	 viewBox="0 0 315 117.7" style="enable-background:new 0 0 315 117.7;" xml:space="preserve">
<style type="text/css">
	.st0{fill:url(#SVGID_1_);stroke:#FFFFFF;stroke-width:2;stroke-miterlimit:10;}
	.st1{fill:#FFFFFF;}
	.st2{fill:url(#SVGID_00000126293314371084606330000013020436198549539492_);}
	.st3{fill:url(#SVGID_00000172438404456722849370000010685544083939659929_);}
	.st4{fill:url(#SVGID_00000088097339272021817260000007125847077682047138_);}
	.st5{fill:url(#SVGID_00000016052148730994786070000004621759693295922315_);}
	.st6{fill:url(#SVGID_00000043423255200088626360000010534047698318589367_);}
	.st7{fill:url(#SVGID_00000019674300472912272770000011599844351848417433_);}
	.st8{fill:url(#SVGID_00000014635389897147994440000012355738460312257411_);}
	.st9{fill:url(#SVGID_00000044866153058670792050000011290990297716125095_);}
	.st10{fill:url(#SVGID_00000058567083866000387160000016918694851803323815_);}
	.st11{fill:url(#SVGID_00000039824109079133170140000013496745492441377685_);}
	.st12{fill:url(#SVGID_00000096766962711359566130000016228048811533365689_);}
	.st13{fill:url(#SVGID_00000109718505617153247180000016984733805717771910_);}
	.st14{fill:url(#SVGID_00000175290901463385526150000007316889660194814634_);}
</style>
<g>
	<g id="Capa_3">
		<g>
			
				<linearGradient id="SVGID_1_" gradientUnits="userSpaceOnUse" x1="5044.1699" y1="-13382.1943" x2="5550.8398" y2="-13382.1943" gradientTransform="matrix(1 0 0 -1 -5166.25 -13308.5996)">
				<stop  offset="0" style="stop-color:#35C8FE"/>
				<stop  offset="0.19" style="stop-color:#36C4FD"/>
				<stop  offset="0.34" style="stop-color:#3ABAFC"/>
				<stop  offset="0.49" style="stop-color:#42A9FA"/>
				<stop  offset="0.62" style="stop-color:#4D90F7"/>
				<stop  offset="0.76" style="stop-color:#5B71F3"/>
				<stop  offset="0.88" style="stop-color:#6C4BEF"/>
				<stop  offset="1" style="stop-color:#7F21EA"/>
			</linearGradient>
			<path class="st0" d="M278,115l-240.7,1.7c-9.2,0-17.4-5.9-20.3-14.6L2.3,58.8c-4.7-13.9,5.6-28.3,20.3-28.3h270
				c14.7,0,25,14.4,20.3,28.3l-14.6,43.3C295.3,110.8,287.2,115,278,115L278,115z"/>
			<g>
				<path class="st1" d="M198.4,64.3c-0.9-0.5-1.5-1.3-2-2.3s-0.7-2.2-0.7-3.6c0-2.1,0.4-4.2,1.3-6.2c0.9-2,2.1-3.7,3.8-5
					c1.6-1.3,3.6-2,5.7-2c1.3,0,2.4,0.2,3.3,0.8s1.6,1.2,2,2s0.6,1.7,0.5,2.6c0,0.2-0.1,0.3-0.2,0.4c-0.1,0.1-0.3,0.2-0.5,0.2
					c-0.2,0.1-0.5,0.1-0.8,0.1c-0.3,0-0.6,0-0.9,0c-0.2,0-0.3,0-0.4-0.1s-0.1-0.1-0.2-0.2c-0.1-0.1-0.1-0.2-0.1-0.3
					c0-0.5-0.1-1-0.3-1.5c-0.2-0.5-0.6-0.8-1.1-1.1s-1.1-0.4-1.8-0.4c-1.5,0-2.8,0.6-3.9,1.7c-1.1,1.1-2,2.5-2.5,4.2
					c-0.6,1.7-0.9,3.2-0.9,4.8c0,0.8,0.1,1.6,0.4,2.2c0.2,0.6,0.6,1.1,1.1,1.4c0.5,0.3,1.2,0.5,1.9,0.5s1.6-0.3,2.4-0.8
					s1.6-1.3,2.2-2.2s1.1-1.8,1.3-2.7c0-0.2,0.1-0.5,0.1-0.8c0-0.3,0.1-0.5,0.1-0.7l2.6,0.7l-2,8.3c0,0.1-0.1,0.2-0.2,0.3
					c-0.1,0.1-0.2,0.2-0.4,0.2s-0.4,0.1-0.7,0.1c-0.5,0-0.9,0-1.1-0.1c-0.2,0-0.4-0.1-0.4-0.2s-0.1-0.2,0-0.4l1-4.2l1.3-1.1
					c-0.5,1.4-1.1,2.6-1.9,3.5s-1.7,1.6-2.6,2s-1.8,0.6-2.7,0.6C200.3,65.2,199.3,64.9,198.4,64.3L198.4,64.3z M204.4,56.6
					c-0.1,0-0.2-0.1-0.2-0.2c0-0.1,0-0.3,0-0.5c0.1-0.4,0.2-0.7,0.2-1c0.1-0.2,0.2-0.4,0.3-0.5s0.3-0.1,0.5-0.2c0.4,0,0.9,0,1.3,0
					c0.4,0,0.9,0,1.4,0c0.9,0,1.8-0.1,2.7-0.1c0.9,0,1.6-0.1,2-0.1c0.2,0,0.3,0,0.4,0s0.2,0.1,0.2,0.2c0,0.1,0,0.3,0,0.5
					c-0.1,0.5-0.2,0.8-0.3,1.1c-0.1,0.2-0.2,0.4-0.3,0.5c-0.1,0.1-0.2,0.1-0.4,0.1c-0.6,0-1.4,0.1-2.3,0.1c-0.9,0-1.8,0.1-2.6,0.1
					c-0.5,0-1,0-1.4,0c-0.4,0-0.8,0-1.3,0C204.7,56.7,204.5,56.6,204.4,56.6L204.4,56.6z"/>
				<path class="st1" d="M216.6,64.5c-0.7-0.4-1.2-1-1.6-1.7c-0.4-0.7-0.5-1.5-0.5-2.4c0-1.6,0.3-3.1,1-4.5s1.7-2.6,2.9-3.5
					c1.2-0.9,2.7-1.3,4.3-1.3c0.8,0,1.6,0.1,2.1,0.4s1.1,0.7,1.4,1.2c0.3,0.5,0.5,1,0.5,1.7c0,1.3-0.6,2.5-1.6,3.4
					c-1.1,0.9-2.6,1.6-4.5,2.1s-4.2,0.8-6.8,0.8c0,0,0,0-0.1,0c-0.1,0-0.2,0-0.3-0.1c-0.1-0.1-0.1-0.2-0.1-0.4c0-0.2,0-0.4,0-0.8
					c0-0.3,0.1-0.5,0.1-0.6s0.1-0.2,0.2-0.3s0.2-0.1,0.3-0.1c1.8,0,3.4-0.1,4.8-0.4c1.4-0.3,2.7-0.7,3.6-1.3c1-0.6,1.5-1.3,1.5-2.3
					c0-0.2-0.1-0.4-0.1-0.6s-0.3-0.3-0.5-0.4c-0.2-0.1-0.5-0.1-0.8-0.1c-0.9,0-1.8,0.4-2.6,1.1s-1.4,1.6-1.8,2.7
					c-0.4,1.1-0.7,2.1-0.7,3.1c0,0.6,0.1,1,0.2,1.4s0.4,0.7,0.7,0.9s0.7,0.3,1.1,0.3c0.4,0,0.8-0.1,1.1-0.2c0.4-0.2,0.8-0.4,1.1-0.6
					s0.7-0.6,1-1c0.1-0.1,0.2-0.2,0.3-0.2s0.2,0,0.2,0c0.1,0,0.3,0.1,0.5,0.2s0.5,0.3,0.7,0.5s0.4,0.3,0.4,0.5
					c0.1,0.1,0.1,0.3,0.1,0.4s-0.1,0.3-0.3,0.5c-0.5,0.5-1,1-1.5,1.4s-1.1,0.6-1.8,0.8c-0.6,0.2-1.4,0.3-2.1,0.3
					C218.2,65.2,217.4,65,216.6,64.5L216.6,64.5z"/>
				<path class="st1" d="M227.3,64.9c-0.2,0-0.4-0.1-0.4-0.2c-0.1-0.1-0.1-0.3,0-0.5c0.4-1.3,0.8-2.8,1.2-4.7s0.8-3.2,0.9-4
					c0.1-0.7,0.2-1.4,0.3-2.1s0.1-1.2,0.1-1.5v0c0-0.2,0.1-0.3,0.3-0.4s0.4-0.2,0.7-0.2s0.7-0.1,1.1-0.1c0.2,0,0.4,0,0.5,0
					s0.2,0.1,0.3,0.2s0.1,0.2,0.1,0.3c0,0.3,0,0.7,0,1c0,0.4-0.1,0.7-0.1,1.1c0,0,0,0.1,0,0.2c-0.1,0.3-0.1,0.6-0.2,0.8
					c-0.1,0.2-0.1,0.5-0.2,0.8c-0.1,0.2-0.2,0.5-0.2,0.7l-0.3-0.1c0.6-1,1.3-1.9,2.1-2.7s1.6-1.4,2.4-1.8c0.8-0.4,1.6-0.7,2.4-0.7
					c0.7,0,1.3,0.2,1.7,0.6s0.7,0.9,0.8,1.7s0,1.5-0.2,2.5l-0.2,0.9l-0.3-0.7c0.6-0.9,1.2-1.8,2-2.5s1.5-1.3,2.2-1.8
					s1.5-0.6,2.3-0.6s1.4,0.2,1.9,0.5c0.5,0.4,0.8,0.9,0.9,1.6s0.1,1.6-0.2,2.6l-1.3,4.8c-0.2,1-0.4,1.7-0.5,2.3s-0.1,1.1-0.2,1.5
					c0,0.2-0.1,0.3-0.2,0.4s-0.4,0.2-0.7,0.2s-0.7,0.1-1.2,0.1c-0.2,0-0.4,0-0.5-0.1c-0.1,0-0.2-0.1-0.3-0.2s-0.1-0.2-0.1-0.4
					c0-0.2,0-0.6,0.1-1s0.1-0.8,0.2-1.4s0.2-1.1,0.4-1.8l1.1-4.3c0.1-0.5,0.2-0.9,0.2-1.3c0-0.3-0.1-0.6-0.2-0.7
					c-0.1-0.2-0.3-0.2-0.5-0.2c-0.7,0-1.5,0.4-2.3,1.1s-1.6,1.7-2.3,2.8c-0.7,1.1-1.2,2.1-1.4,3c-0.2,0.7-0.3,1.3-0.4,1.9
					c-0.1,0.6-0.2,1.1-0.2,1.5c0,0.1,0,0.1,0,0.1c0,0,0,0.1,0,0.1c0,0.2-0.1,0.3-0.2,0.4c-0.1,0.1-0.4,0.2-0.7,0.2
					c-0.3,0-0.7,0.1-1.1,0.1c-0.2,0-0.4,0-0.5-0.1c-0.1,0-0.2-0.1-0.3-0.2s-0.1-0.2-0.1-0.4c0-0.3,0.1-0.9,0.2-1.7s0.3-1.7,0.6-2.7
					l1.1-4.1c0.1-0.5,0.2-0.9,0.2-1.2c0-0.3-0.1-0.5-0.2-0.7c-0.1-0.1-0.3-0.2-0.5-0.2c-0.7,0-1.5,0.4-2.4,1.2s-1.7,1.8-2.4,3
					s-1.2,2.3-1.5,3.4c-0.1,0.5-0.2,0.9-0.3,1.2c-0.1,0.3-0.1,0.7-0.2,1.2c0,0.2-0.1,0.4-0.1,0.5c0,0.2-0.2,0.4-0.5,0.5
					s-0.7,0.2-1.2,0.2C228,64.9,227.6,64.9,227.3,64.9L227.3,64.9z"/>
				<path class="st1" d="M252.4,64.6c-0.6-0.4-1.1-1-1.4-1.7s-0.5-1.6-0.5-2.6c0-1.5,0.3-3,1-4.4c0.6-1.4,1.5-2.6,2.7-3.5
					s2.4-1.3,3.8-1.3c0.9,0,1.6,0.2,2.2,0.6s1,1,1.3,1.7c0.3,0.8,0.4,1.6,0.3,2.6l-1,4.3c-0.4,1-0.9,1.9-1.5,2.6
					c-0.6,0.7-1.2,1.3-2,1.7s-1.6,0.6-2.5,0.6C253.8,65.2,253,65,252.4,64.6L252.4,64.6z M257.2,62.4c0.5-0.3,0.9-0.6,1.3-1.1
					c0.4-0.5,0.7-1,0.9-1.6l0.9-3.7c0.1-0.5,0.1-1-0.1-1.4c-0.1-0.4-0.4-0.7-0.7-0.9c-0.3-0.2-0.8-0.3-1.2-0.3
					c-0.8,0-1.6,0.4-2.3,1.1s-1.3,1.6-1.7,2.7s-0.7,2.1-0.7,3.1c0,0.5,0.1,1,0.3,1.4s0.4,0.7,0.7,0.9s0.7,0.3,1.1,0.3
					C256.2,62.8,256.7,62.6,257.2,62.4L257.2,62.4z M260,64.9c-0.1-0.1-0.2-0.2-0.2-0.4c-0.1-0.4-0.2-0.9-0.3-1.5
					c-0.1-0.6-0.1-1.2-0.1-1.8s0-1.1,0.1-1.6l0.9-3.7c0.1-0.7,0.4-1.4,0.8-2.3c0.2-0.4,0.3-0.8,0.5-1.1s0.3-0.7,0.5-1
					c0.1-0.1,0.1-0.2,0.2-0.3s0.1-0.1,0.2-0.1s0.2,0,0.3,0c0.3,0,0.6,0.1,1,0.2c0.4,0.1,0.7,0.3,0.9,0.5s0.3,0.4,0.2,0.6
					c-0.2,0.3-0.4,0.7-0.5,1.2c-0.3,0.7-0.6,1.5-0.8,2.2c-0.1,0.3-0.2,0.8-0.4,1.3s-0.3,1.1-0.4,1.7c0,0.2-0.1,0.5-0.1,0.6
					s-0.1,0.3-0.1,0.6c-0.1,0.4-0.1,0.8-0.1,1.2s0,0.8,0.1,1.2s0.1,0.8,0.3,1.2c0.1,0.2,0.1,0.3,0.1,0.5c0,0.1,0,0.2-0.1,0.3
					c-0.1,0.1-0.2,0.2-0.3,0.2c-0.3,0.1-0.6,0.2-1,0.3s-0.7,0.1-0.9,0.1C260.2,65,260.1,65,260,64.9L260,64.9z"/>
				<path class="st1" d="M133.7,99.4c-0.6-0.4-1.1-0.9-1.4-1.6s-0.5-1.5-0.5-2.4c0-1.5,0.3-3,1-4.4c0.6-1.4,1.6-2.6,2.7-3.6
					s2.4-1.4,3.8-1.4c0.9,0,1.6,0.2,2.2,0.6c0.6,0.4,1,1,1.3,1.8c0.2,0.8,0.3,1.6,0.2,2.6l-0.9,3.8c-0.4,1-0.9,1.9-1.5,2.7
					c-0.6,0.8-1.3,1.4-2.1,1.8c-0.8,0.4-1.6,0.7-2.6,0.7C135.1,100,134.3,99.8,133.7,99.4L133.7,99.4z M138.3,97.7
					c0.6-0.3,1.1-0.8,1.6-1.4s0.9-1.2,1.1-1.9l0.8-3.5c0.1-0.7,0.1-1.3-0.1-1.8s-0.5-0.9-0.9-1.2c-0.4-0.3-0.9-0.4-1.5-0.4
					c-0.9,0-1.8,0.4-2.7,1.2c-0.8,0.8-1.5,1.7-2,2.9c-0.5,1.2-0.8,2.4-0.8,3.5c0,0.6,0.1,1.1,0.3,1.6s0.5,0.8,0.9,1s0.8,0.4,1.3,0.4
					C137.1,98.2,137.7,98.1,138.3,97.7L138.3,97.7z M141.8,99.7c-0.1,0-0.1-0.1-0.2-0.3c-0.2-0.5-0.3-1.1-0.4-1.7s-0.2-1.2-0.2-1.8
					c0-0.6,0-1.1,0.1-1.5l0.9-3.6c0.1-0.4,0.2-0.7,0.3-1c0.1-0.3,0.1-0.6,0.2-1c0.1-0.3,0.1-0.6,0.2-0.8c0.1-0.2,0.1-0.5,0.2-0.8
					c0-0.2,0.1-0.3,0.1-0.4c0.3-1.1,0.5-2,0.7-2.9s0.3-1.6,0.4-2.3s0.1-1.4,0.1-2c0-0.1,0-0.2,0.1-0.3s0.2-0.1,0.3-0.1
					c0.1,0,0.1,0,0.1,0c0.1,0,0.3,0,0.5-0.1c0.2,0,0.3,0,0.5,0c0.1,0,0.3,0,0.4,0.1c0.1,0,0.2,0.1,0.2,0.2s0.1,0.2,0.1,0.3
					c0,0.7-0.1,1.4-0.1,2.1c-0.1,0.7-0.2,1.5-0.4,2.4s-0.4,1.9-0.7,3c0,0.1-0.1,0.3-0.1,0.4l-1.7,7c-0.1,0.5-0.2,0.9-0.2,1.4
					s0,0.9,0.1,1.4s0.2,1.1,0.4,1.6c0,0.1,0.1,0.2,0.1,0.3s0,0.2-0.1,0.2c-0.1,0.1-0.1,0.1-0.3,0.2c-0.2,0.1-0.4,0.1-0.6,0.2
					c-0.2,0.1-0.4,0.1-0.6,0.1C141.9,99.8,141.8,99.8,141.8,99.7L141.8,99.7z"/>
				<path class="st1" d="M146.8,99.7c-0.2,0-0.3-0.1-0.3-0.2s-0.1-0.2,0-0.4l0.4-1.4c0.1-0.5,0.3-1,0.4-1.4c0.3-1,0.5-2,0.7-2.9
					c0.2-0.9,0.4-1.8,0.6-2.5c0.1-0.8,0.3-1.4,0.4-2.1s0.2-1.2,0.3-1.8c0-0.1,0-0.2,0-0.4c0-0.1,0.1-0.2,0.1-0.3s0.2-0.1,0.4-0.2
					c0.2,0,0.4-0.1,0.8-0.1c0.2,0,0.4,0,0.6,0.1s0.2,0.1,0.3,0.2c0.1,0.1,0.1,0.2,0.1,0.3c0,0.2,0,0.4-0.1,0.6
					c-0.1,0.6-0.2,1.2-0.3,1.8s-0.2,1.3-0.4,2c-0.1,0.6-0.3,1.4-0.5,2.3c-0.2,0.9-0.5,1.8-0.7,2.8c-0.1,0.3-0.2,0.6-0.2,0.8
					c-0.1,0.2-0.1,0.5-0.2,0.8l-0.4,1.4c0,0.1-0.1,0.2-0.2,0.3c-0.1,0.1-0.2,0.1-0.3,0.1c-0.1,0-0.4,0-0.6,0
					C147.2,99.8,147,99.8,146.8,99.7L146.8,99.7z M150.7,83.2c-0.2-0.1-0.4-0.3-0.5-0.5c-0.1-0.2-0.2-0.4-0.2-0.6
					c0-0.3,0.1-0.6,0.2-0.8s0.4-0.5,0.7-0.6c0.3-0.2,0.6-0.2,0.8-0.2c0.2,0,0.5,0.1,0.7,0.2c0.2,0.1,0.4,0.3,0.5,0.5
					c0.1,0.2,0.2,0.4,0.2,0.6c0,0.3-0.1,0.6-0.2,0.8s-0.4,0.5-0.7,0.6c-0.3,0.2-0.6,0.2-0.9,0.2C151.2,83.4,150.9,83.3,150.7,83.2
					L150.7,83.2z"/>
				<path class="st1" d="M154.3,99.6c-0.6-0.2-1.2-0.6-1.6-1s-0.7-0.9-0.8-1.4v0c0-0.1,0-0.2-0.1-0.3s0-0.2,0-0.2
					c0-0.1,0.1-0.2,0.3-0.3c0.2-0.1,0.4-0.2,0.6-0.2s0.5-0.1,0.7-0.1c0.1,0,0.2,0,0.2,0.1s0.1,0.1,0.1,0.2c0,0,0,0.1,0,0.1
					c0.1,0.4,0.2,0.8,0.5,1c0.2,0.3,0.6,0.5,1,0.7s0.9,0.2,1.5,0.2s1.1-0.1,1.5-0.3s0.8-0.5,1.1-0.8c0.3-0.4,0.4-0.8,0.4-1.3
					c0-0.4-0.1-0.7-0.3-1c-0.2-0.3-0.5-0.6-0.8-0.8c-0.3-0.2-0.8-0.5-1.3-0.8c-0.7-0.4-1.2-0.7-1.6-1s-0.8-0.7-1-1.1
					c-0.3-0.4-0.4-0.9-0.4-1.5c0-0.8,0.2-1.4,0.6-2c0.4-0.6,1-1,1.8-1.3s1.6-0.5,2.5-0.5c0.7,0,1.3,0.1,1.9,0.3
					c0.6,0.2,1,0.5,1.4,0.9c0.4,0.4,0.5,0.9,0.5,1.4c0,0.1,0,0.2,0,0.2c0,0.1-0.1,0.1-0.1,0.1c-0.1,0-0.1,0.1-0.2,0.1
					c-0.1,0.1-0.3,0.1-0.6,0.2c-0.3,0.1-0.5,0.1-0.6,0.1c-0.1,0-0.1,0-0.2-0.1c0-0.1-0.1-0.1-0.1-0.3c0-0.3-0.2-0.5-0.4-0.7
					s-0.5-0.4-0.8-0.5s-0.7-0.2-1-0.2c-0.5,0-1,0.1-1.4,0.2c-0.4,0.2-0.7,0.4-0.9,0.7c-0.2,0.3-0.4,0.6-0.4,1c0,0.3,0.1,0.6,0.3,0.8
					s0.4,0.5,0.7,0.7c0.3,0.2,0.7,0.4,1.2,0.7c0.7,0.4,1.3,0.7,1.8,1c0.4,0.3,0.8,0.7,1.2,1.2s0.5,1.1,0.5,1.7
					c0,0.9-0.2,1.6-0.7,2.3s-1.1,1.1-2,1.5c-0.8,0.3-1.7,0.5-2.7,0.5C155.7,100,154.9,99.8,154.3,99.6L154.3,99.6z"/>
				<path class="st1" d="M162.9,106.8c-0.1-0.1-0.1-0.2-0.1-0.3c0-0.8,0.1-1.6,0.2-2.3c0.1-0.8,0.2-1.5,0.4-2.1
					c0.1-0.7,0.3-1.3,0.4-2l2.1-8.7c0.2-0.9,0.3-1.7,0.4-2.4s0-1.3-0.1-1.8c0-0.1,0-0.1,0-0.1c0,0,0-0.1,0-0.2l0,0
					c0-0.1,0-0.2,0-0.3s0.1-0.1,0.2-0.2c0.1-0.1,0.2-0.1,0.4-0.1c0.2,0,0.4-0.1,0.6-0.1s0.4,0,0.5,0c0.1,0,0.2,0,0.3,0
					s0.1,0.1,0.1,0.2c0,0.1,0.1,0.2,0.1,0.3c0,0.3,0.1,0.6,0.1,0.7c0.1,0.7,0.1,1.3,0,2c0,0.7-0.1,1.4-0.3,2.1l-0.9,3.6l-1.2,4.8
					c-0.1,0.2-0.1,0.4-0.2,0.6c-0.1,0.6-0.3,1.2-0.4,1.7s-0.2,1.2-0.3,1.9c-0.1,0.7-0.2,1.4-0.2,2.2c0,0.1,0,0.2-0.1,0.2
					c0,0.1-0.1,0.1-0.1,0.1c-0.1,0-0.2,0.1-0.3,0.1c-0.2,0-0.3,0.1-0.5,0.1c-0.2,0-0.4,0-0.6,0C163.1,106.9,163,106.8,162.9,106.8
					L162.9,106.8z M175.4,86.5c0.6,0.4,1.1,0.9,1.4,1.6s0.5,1.5,0.5,2.4c0,1.5-0.3,3-1,4.4c-0.7,1.4-1.6,2.6-2.7,3.6
					c-1.1,0.9-2.4,1.4-3.9,1.4c-0.9,0-1.6-0.2-2.2-0.6s-1-1-1.3-1.8s-0.3-1.6-0.2-2.6l0.9-3.8c0.4-1,0.9-1.9,1.5-2.7
					c0.6-0.8,1.3-1.4,2.1-1.8s1.6-0.7,2.6-0.7C174.1,85.9,174.8,86.1,175.4,86.5L175.4,86.5z M170.9,88.2c-0.6,0.3-1.1,0.8-1.6,1.4
					s-0.9,1.2-1.1,1.9l-0.8,3.5c-0.1,0.7-0.1,1.3,0.1,1.8s0.5,0.9,0.9,1.2c0.4,0.3,0.9,0.4,1.5,0.4c0.9,0,1.8-0.4,2.7-1.2
					s1.5-1.7,2-2.9c0.5-1.2,0.8-2.3,0.8-3.5c0-0.6-0.1-1.1-0.3-1.6c-0.2-0.4-0.5-0.8-0.9-1s-0.8-0.4-1.3-0.4
					C172,87.7,171.4,87.9,170.9,88.2L170.9,88.2z"/>
				<path class="st1" d="M181.1,99.3c-0.7-0.4-1.2-1-1.5-1.7c-0.3-0.7-0.5-1.6-0.5-2.5c0-1.5,0.3-2.9,1-4.4c0.7-1.4,1.6-2.6,2.9-3.5
					s2.6-1.3,4.1-1.3c0.8,0,1.5,0.1,2.1,0.4c0.6,0.3,1,0.6,1.3,1.1c0.3,0.5,0.4,1,0.4,1.6c0,1.2-0.5,2.2-1.5,3c-1,0.9-2.3,1.6-4,2.1
					c-1.7,0.5-3.5,0.8-5.5,1l0.2-1.5c1.4-0.1,2.8-0.3,4.1-0.7c1.3-0.4,2.4-0.8,3.3-1.5c0.9-0.6,1.3-1.4,1.3-2.2
					c0-0.3-0.1-0.6-0.2-0.9c-0.1-0.2-0.3-0.4-0.6-0.6s-0.6-0.2-1.1-0.2c-1.1,0-2.1,0.4-2.9,1.2s-1.5,1.8-1.9,3
					c-0.4,1.2-0.7,2.3-0.7,3.4c0,0.6,0.1,1.2,0.3,1.6s0.4,0.8,0.8,1.1s0.8,0.4,1.4,0.4c0.5,0,0.9-0.1,1.4-0.3
					c0.5-0.2,0.9-0.5,1.3-0.8c0.4-0.3,0.8-0.7,1.1-1.2c0.1-0.1,0.1-0.1,0.2-0.2s0.1-0.1,0.2-0.1c0.1,0,0.3,0.1,0.5,0.2
					s0.4,0.2,0.5,0.4c0.2,0.2,0.2,0.3,0.2,0.4c0,0.1,0,0.2-0.1,0.2c0,0.1-0.1,0.1-0.2,0.2l0,0c-0.4,0.6-0.9,1-1.5,1.4
					s-1.1,0.7-1.8,1s-1.4,0.3-2.1,0.3C182.6,100,181.8,99.8,181.1,99.3L181.1,99.3z"/>
				<path class="st1" d="M191.9,99.7c-0.2,0-0.3-0.1-0.3-0.2s-0.1-0.2,0-0.3c0.1-0.5,0.3-1,0.4-1.5c0.4-1.4,0.8-2.9,1.1-4.3
					c0.4-1.5,0.6-2.4,0.7-2.9c0.2-0.8,0.3-1.5,0.3-2.1s0-1.2,0-1.6c0-0.1,0.1-0.2,0.2-0.3c0.1-0.1,0.3-0.2,0.5-0.2
					c0.2-0.1,0.6-0.1,0.9-0.1c0.2,0,0.3,0,0.4,0.1c0.1,0.1,0.1,0.2,0.1,0.3c0,0.3,0,0.6,0,1c0,0.4,0,0.8-0.1,1.1
					c0,0.4-0.1,0.7-0.1,1c-0.1,0.3-0.1,0.6-0.2,0.9c-0.1,0.3-0.2,0.6-0.3,1c-0.2,0.5-0.4,1.1-0.6,1.6l-0.8,0.6
					c0.6-1.3,1.4-2.6,2.4-3.8s2-2.2,3.1-2.9c1.1-0.7,2.1-1.1,3-1.1c0.7,0,1.3,0.2,1.7,0.5s0.7,0.8,0.8,1.5s0.1,1.4-0.2,2.2l-1.4,5.2
					c-0.2,0.8-0.4,1.6-0.5,2.1s-0.1,1.1-0.1,1.5c0,0.2,0,0.3,0,0.3c0,0.1-0.1,0.2-0.2,0.3s-0.3,0.1-0.5,0.1s-0.5,0.1-0.9,0.1
					c-0.1,0-0.2,0-0.3,0c-0.1,0-0.1-0.1-0.2-0.1s-0.1-0.2-0.1-0.2c0-0.2,0-0.6,0-1c0-0.4,0.1-0.9,0.2-1.4c0.1-0.6,0.2-1.1,0.4-1.7
					l1.3-5.1c0.1-0.5,0.1-0.9,0.1-1.2s-0.1-0.6-0.3-0.8s-0.4-0.2-0.7-0.2c-0.8,0-1.8,0.4-2.8,1.3s-2,1.9-2.9,3.2
					c-0.9,1.3-1.4,2.5-1.7,3.6c-0.2,0.8-0.3,1.4-0.4,1.8s-0.1,0.8-0.2,1.1c0,0.1,0,0.2-0.1,0.3c0,0.2-0.1,0.3-0.3,0.4
					s-0.5,0.1-0.8,0.1C192.3,99.8,192.1,99.7,191.9,99.7L191.9,99.7z"/>
				<path class="st1" d="M208.3,99.6c-0.6-0.2-1.2-0.6-1.6-1s-0.7-0.9-0.8-1.4v0c0-0.1,0-0.2-0.1-0.3s0-0.2,0-0.2
					c0-0.1,0.1-0.2,0.3-0.3c0.2-0.1,0.4-0.2,0.6-0.2s0.5-0.1,0.7-0.1c0.1,0,0.2,0,0.2,0.1s0.1,0.1,0.1,0.2c0,0,0,0.1,0,0.1
					c0.1,0.4,0.2,0.8,0.5,1c0.2,0.3,0.6,0.5,1,0.7s0.9,0.2,1.5,0.2s1.1-0.1,1.5-0.3s0.8-0.5,1.1-0.8c0.3-0.4,0.4-0.8,0.4-1.3
					c0-0.4-0.1-0.7-0.3-1c-0.2-0.3-0.5-0.6-0.8-0.8c-0.3-0.2-0.8-0.5-1.3-0.8c-0.7-0.4-1.2-0.7-1.6-1s-0.8-0.7-1-1.1
					c-0.3-0.4-0.4-0.9-0.4-1.5c0-0.8,0.2-1.4,0.6-2c0.4-0.6,1-1,1.8-1.3s1.6-0.5,2.5-0.5c0.7,0,1.3,0.1,1.9,0.3
					c0.6,0.2,1,0.5,1.4,0.9c0.4,0.4,0.5,0.9,0.5,1.4c0,0.1,0,0.2,0,0.2c0,0.1-0.1,0.1-0.1,0.1c-0.1,0-0.1,0.1-0.2,0.1
					c-0.1,0.1-0.3,0.1-0.6,0.2c-0.3,0.1-0.5,0.1-0.6,0.1c-0.1,0-0.1,0-0.2-0.1c0-0.1-0.1-0.1-0.1-0.3c0-0.3-0.2-0.5-0.4-0.7
					s-0.5-0.4-0.8-0.5s-0.7-0.2-1-0.2c-0.5,0-1,0.1-1.4,0.2c-0.4,0.2-0.7,0.4-0.9,0.7c-0.2,0.3-0.4,0.6-0.4,1c0,0.3,0.1,0.6,0.3,0.8
					s0.4,0.5,0.7,0.7c0.3,0.2,0.7,0.4,1.2,0.7c0.7,0.4,1.3,0.7,1.8,1c0.4,0.3,0.8,0.7,1.2,1.2s0.5,1.1,0.5,1.7
					c0,0.9-0.2,1.6-0.7,2.3s-1.1,1.1-2,1.5c-0.8,0.3-1.7,0.5-2.7,0.5C209.6,100,208.9,99.8,208.3,99.6L208.3,99.6z"/>
				<path class="st1" d="M220.1,99.4c-0.6-0.4-1.1-0.9-1.4-1.6s-0.5-1.5-0.5-2.4c0-1.5,0.3-3,1-4.4c0.6-1.4,1.6-2.6,2.7-3.6
					s2.4-1.4,3.8-1.4c0.9,0,1.6,0.2,2.2,0.6c0.6,0.4,1,1,1.3,1.8c0.2,0.8,0.3,1.6,0.2,2.6l-0.9,3.8c-0.4,1-0.9,1.9-1.5,2.7
					c-0.6,0.8-1.3,1.4-2.1,1.8c-0.8,0.4-1.6,0.7-2.6,0.7C221.4,100,220.7,99.8,220.1,99.4L220.1,99.4z M224.7,97.7
					c0.6-0.3,1.1-0.8,1.6-1.4s0.9-1.2,1.1-1.9l0.8-3.5c0.1-0.7,0.1-1.3-0.1-1.8s-0.5-0.9-0.9-1.2c-0.4-0.3-0.9-0.4-1.5-0.4
					c-0.9,0-1.8,0.4-2.7,1.2c-0.8,0.8-1.5,1.7-2,2.9c-0.5,1.2-0.8,2.4-0.8,3.5c0,0.6,0.1,1.1,0.3,1.6s0.5,0.8,0.9,1s0.8,0.4,1.3,0.4
					C223.5,98.2,224.1,98.1,224.7,97.7L224.7,97.7z M228,99.7c-0.1-0.1-0.1-0.2-0.2-0.3c-0.2-0.5-0.3-1-0.4-1.6
					c-0.1-0.6-0.1-1.2-0.1-1.8c0-0.6,0.1-1.1,0.2-1.6l0.9-3.6c0.2-0.8,0.5-1.6,0.8-2.4c0.1-0.4,0.3-0.7,0.5-1.1s0.3-0.7,0.5-1
					c0.1-0.1,0.1-0.2,0.1-0.2c0-0.1,0.1-0.1,0.1-0.1c0.1,0,0.1,0,0.2,0c0.2,0,0.5,0.1,0.7,0.2c0.3,0.1,0.5,0.2,0.6,0.4
					s0.2,0.3,0.1,0.4c-0.2,0.4-0.4,0.8-0.6,1.3c-0.3,0.8-0.7,1.6-0.9,2.6c-0.1,0.3-0.2,0.8-0.3,1.2s-0.2,0.9-0.4,1.4
					c-0.1,0.2-0.1,0.5-0.1,0.7s-0.1,0.4-0.1,0.7c-0.1,0.4-0.1,0.8-0.1,1.3c0,0.4,0,0.9,0.1,1.3c0.1,0.4,0.2,0.9,0.3,1.3
					c0.1,0.2,0.1,0.3,0.1,0.4s0,0.2-0.1,0.2s-0.1,0.1-0.2,0.2c-0.2,0.1-0.4,0.2-0.7,0.2s-0.5,0.1-0.6,0.1
					C228.1,99.8,228,99.8,228,99.7L228,99.7z"/>
				<path class="st1" d="M234.9,99.4c-0.6-0.4-1.1-0.9-1.4-1.6s-0.5-1.5-0.5-2.4c0-1.5,0.3-3,1-4.4c0.6-1.4,1.6-2.6,2.7-3.6
					s2.4-1.4,3.8-1.4c0.9,0,1.6,0.2,2.2,0.6c0.6,0.4,1,1,1.3,1.8c0.2,0.8,0.3,1.6,0.2,2.6l-0.9,3.8c-0.4,1-0.9,1.9-1.5,2.7
					c-0.6,0.8-1.3,1.4-2.1,1.8c-0.8,0.4-1.6,0.7-2.6,0.7C236.2,100,235.5,99.8,234.9,99.4L234.9,99.4z M239.5,97.7
					c0.6-0.3,1.1-0.8,1.6-1.4s0.9-1.2,1.1-1.9l0.8-3.5c0.1-0.7,0.1-1.3-0.1-1.8s-0.5-0.9-0.9-1.2c-0.4-0.3-0.9-0.4-1.5-0.4
					c-0.9,0-1.8,0.4-2.7,1.2c-0.8,0.8-1.5,1.7-2,2.9c-0.5,1.2-0.8,2.4-0.8,3.5c0,0.6,0.1,1.1,0.3,1.6s0.5,0.8,0.9,1s0.8,0.4,1.3,0.4
					C238.3,98.2,238.9,98.1,239.5,97.7L239.5,97.7z M242.9,99.7c-0.1,0-0.1-0.1-0.2-0.3c-0.2-0.5-0.3-1.1-0.4-1.7s-0.2-1.2-0.2-1.8
					c0-0.6,0-1.1,0.1-1.5l0.9-3.6c0.1-0.4,0.2-0.7,0.3-1c0.1-0.3,0.1-0.6,0.2-1c0.1-0.3,0.1-0.6,0.2-0.8c0.1-0.2,0.1-0.5,0.2-0.8
					c0-0.2,0.1-0.3,0.1-0.4c0.3-1.1,0.5-2,0.7-2.9s0.3-1.6,0.4-2.3s0.1-1.4,0.1-2c0-0.1,0-0.2,0.1-0.3s0.2-0.1,0.3-0.1
					c0.1,0,0.1,0,0.1,0c0.1,0,0.3,0,0.5-0.1c0.2,0,0.3,0,0.5,0c0.1,0,0.3,0,0.4,0.1c0.1,0,0.2,0.1,0.2,0.2s0.1,0.2,0.1,0.3
					c0,0.7-0.1,1.4-0.1,2.1c-0.1,0.7-0.2,1.5-0.4,2.4s-0.4,1.9-0.7,3c0,0.1-0.1,0.3-0.1,0.4l-1.7,7c-0.1,0.5-0.2,0.9-0.2,1.4
					s0,0.9,0.1,1.4s0.2,1.1,0.4,1.6c0,0.1,0.1,0.2,0.1,0.3s0,0.2-0.1,0.2c-0.1,0.1-0.1,0.1-0.3,0.2c-0.2,0.1-0.4,0.1-0.6,0.2
					c-0.2,0.1-0.4,0.1-0.6,0.1C243.1,99.8,243,99.8,242.9,99.7L242.9,99.7z"/>
				<path class="st1" d="M249.9,99.3c-0.7-0.5-1.2-1.1-1.6-1.9s-0.5-1.7-0.5-2.6c0-1.3,0.3-2.7,0.9-4c0.6-1.4,1.4-2.5,2.6-3.4
					c1.1-0.9,2.4-1.4,4-1.4c1,0,1.9,0.2,2.6,0.7c0.7,0.5,1.2,1.1,1.6,1.9c0.3,0.8,0.5,1.7,0.5,2.6c0,1.3-0.3,2.7-0.9,4
					s-1.5,2.5-2.6,3.4c-1.1,0.9-2.4,1.4-4,1.4C251.5,100,250.6,99.7,249.9,99.3L249.9,99.3z M255.3,97.1c0.8-0.8,1.4-1.7,1.8-2.9
					s0.6-2.2,0.6-3.1c0-0.7-0.1-1.2-0.3-1.8s-0.5-0.9-0.9-1.2s-0.9-0.5-1.6-0.5c-1,0-1.8,0.4-2.6,1.2c-0.8,0.8-1.4,1.7-1.8,2.8
					s-0.6,2.2-0.6,3.1c0,0.7,0.1,1.2,0.3,1.8s0.5,0.9,0.9,1.2s0.9,0.5,1.6,0.5C253.7,98.2,254.6,97.8,255.3,97.1L255.3,97.1z"/>
				<path class="st1" d="M261.5,99.7c-0.2,0-0.3-0.1-0.3-0.2c0-0.1,0-0.2,0-0.3c0.1-0.2,0.1-0.5,0.2-0.7c0.1-0.2,0.1-0.5,0.2-0.8
					c0.5-1.8,0.9-3.3,1.2-4.6s0.5-2.1,0.6-2.6c0.1-0.7,0.2-1.3,0.3-1.9c0-0.6,0.1-1.2,0-1.8c0-0.1,0.1-0.2,0.2-0.3s0.3-0.1,0.5-0.2
					c0.2,0,0.6-0.1,1-0.1c0.2,0,0.3,0,0.4,0.1s0.1,0.1,0.1,0.3c0,0.6,0,1.1,0,1.6c0,0.5-0.1,1.1-0.2,1.6c0,0.2-0.1,0.5-0.1,0.7
					s-0.1,0.5-0.1,0.7c-0.1,0.3-0.2,0.6-0.2,0.9s-0.2,0.6-0.3,0.8l-1.4,1.4c0.6-1.5,1.4-2.9,2.3-4.2c0.9-1.2,2-2.2,3.1-3
					c1.1-0.7,2.3-1.1,3.6-1.1c0.1,0,0.2,0,0.3,0.1s0.1,0.2,0,0.4c-0.1,0.4-0.2,0.7-0.2,0.9c-0.1,0.2-0.2,0.4-0.3,0.5
					c-0.1,0.1-0.2,0.1-0.4,0.1c-1.1,0-2.1,0.3-3.1,1s-1.9,1.6-2.7,2.8s-1.4,2.5-1.7,4c-0.2,0.8-0.3,1.4-0.4,1.8
					c-0.1,0.4-0.2,0.8-0.2,1.1c0,0.1,0,0.1,0,0.2c0,0,0,0.1,0,0.2c0,0.1-0.1,0.2-0.1,0.3s-0.2,0.1-0.4,0.2c-0.2,0-0.4,0.1-0.7,0.1
					C261.9,99.8,261.7,99.7,261.5,99.7L261.5,99.7z"/>
				<path class="st1" d="M272.8,99.5c-0.5-0.3-0.9-0.8-1.1-1.5s-0.3-1.5-0.2-2.5c0.2-1.5,0.6-3,1.4-4.5s1.8-2.7,3-3.6
					c1.2-0.9,2.4-1.4,3.7-1.4c0.7,0,1.3,0.2,1.9,0.4s1.1,0.7,1.5,1.2c0.4,0.5,0.7,1.1,0.9,1.8l-1.1,0.9c0-0.1-0.1-0.2-0.1-0.3
					c-0.2-0.6-0.4-1-0.8-1.3c-0.3-0.3-0.7-0.6-1-0.8c-0.4-0.2-0.8-0.2-1.1-0.2c-0.8,0-1.7,0.4-2.6,1.2c-0.9,0.8-1.7,1.8-2.3,3
					c-0.7,1.2-1.1,2.4-1.2,3.5c-0.1,0.6-0.1,1.1,0,1.5c0.1,0.4,0.3,0.7,0.5,0.9s0.6,0.3,0.9,0.3c0.9,0,1.8-0.4,2.9-1.3
					c1-0.9,2-2,2.8-3.3c0.9-1.3,1.4-2.6,1.7-3.7c0.1-0.5,0.2-0.9,0.3-1.3s0.2-0.7,0.2-1c0-0.1,0-0.2,0-0.2c0-0.1,0-0.1,0-0.2
					c0-0.1,0-0.1,0.1-0.2c0-0.1,0.1-0.2,0.1-0.2c0.1-0.1,0.2-0.1,0.3-0.2c0.1,0,0.3-0.1,0.5-0.1c0.4,0,0.6,0,0.8,0.1
					s0.3,0.1,0.4,0.2c0.1,0.1,0.1,0.2,0,0.4c-0.1,0.5-0.3,1-0.5,1.5s-0.3,1.2-0.5,1.9c-0.3,1.1-0.5,2.1-0.8,3.1s-0.4,1.7-0.5,2.1
					c-0.1,0.6-0.2,1.1-0.2,1.5s-0.1,0.8-0.1,1.1c0,0.3,0,0.6,0,0.9c0,0.1,0,0.2,0,0.2s0,0.1,0,0.2c0,0.1-0.1,0.2-0.2,0.2
					s-0.3,0.1-0.5,0.2c-0.2,0-0.5,0.1-0.8,0.1c-0.1,0-0.2,0-0.3,0c-0.1,0-0.1-0.1-0.2-0.1s-0.1-0.1-0.1-0.2c0-0.2,0-0.4,0-0.8
					c0-0.3,0-0.7,0.1-1.1c0-0.5,0.1-1,0.2-1.4c0-0.2,0.1-0.4,0.1-0.5s0.1-0.4,0.1-0.6c0.1-0.3,0.1-0.6,0.2-1s0.2-0.7,0.3-1.1
					l0.9,0.1c-0.6,1.2-1.4,2.4-2.3,3.4c-0.9,1.1-1.9,1.9-2.9,2.5s-2,0.9-2.9,0.9C273.8,100,273.2,99.8,272.8,99.5L272.8,99.5z"/>
			</g>
			<g>
				<g>
					
						<linearGradient id="SVGID_00000026156154452734803340000017104382543257787578_" gradientUnits="userSpaceOnUse" x1="-331.9336" y1="2496.2439" x2="-334.9736" y2="2511.1541" gradientTransform="matrix(0.6421 0.7666 0.7666 -0.6421 -1560.2937 1898.4486)">
						<stop  offset="0" style="stop-color:#FFA440"/>
						<stop  offset="1" style="stop-color:#FF5A0C"/>
					</linearGradient>
					<polygon style="fill:url(#SVGID_00000026156154452734803340000017104382543257787578_);" points="129.8,48.3 148.4,11.9 
						167.7,25.4 					"/>
					<path d="M129.8,48.3c5.8-12,11.1-25.1,17.3-37l0.8-1.5l1.4,1c6.9,4.7,14.3,9.9,21.1,14.8C157.2,33.4,142.9,40.8,129.8,48.3
						L129.8,48.3L129.8,48.3z M129.8,48.3c9.6-6,18.9-12.4,28.1-18.4c3-1.9,6-3.8,9.1-5.7l-0.1,2.4c-6.3-4.3-13.2-9-19.4-13.5
						l2.1-0.5c-1.5,2.9-3.1,5.8-4.6,8.7C140.2,30,134.5,39.4,129.8,48.3L129.8,48.3z"/>
				</g>
				<g>
					
						<linearGradient id="SVGID_00000168085003701659755530000014588922371698088639_" gradientUnits="userSpaceOnUse" x1="-309.9273" y1="2493.7554" x2="-296.9073" y2="2528.6255" gradientTransform="matrix(0.6421 0.7666 0.7666 -0.6421 -1560.2937 1898.4486)">
						<stop  offset="0" style="stop-color:#FFA440"/>
						<stop  offset="1" style="stop-color:#FF5A0C"/>
					</linearGradient>
					<polygon style="fill:url(#SVGID_00000168085003701659755530000014588922371698088639_);" points="128.2,56 174.2,36.4 
						179,65.6 					"/>
					<path d="M128.2,56c15.5-7,31.5-15,47.2-21.6c0.1,0.1,2.6,15.6,2.8,16.4c0.2,1.2,2.6,16,2.7,16.7
						C163.5,64.2,145.5,59.6,128.2,56L128.2,56L128.2,56z M128.2,56c12.4,2.2,26.3,4,38.7,6.1c4.1,0.7,8.3,1.4,12.4,2.2l-1.7,1.7
						c-1.2-7.3-3.6-21.9-4.8-29.2l2,1.1c-3.7,1.6-7.5,3.1-11.3,4.6C152.3,46.7,139.5,51.3,128.2,56L128.2,56L128.2,56z"/>
				</g>
				<g>
					
						<linearGradient id="SVGID_00000086689923796209283330000000529320054718098596_" gradientUnits="userSpaceOnUse" x1="-350.726" y1="2490.4939" x2="-362.976" y2="2504.7639" gradientTransform="matrix(0.6421 0.7666 0.7666 -0.6421 -1560.2937 1898.4486)">
						<stop  offset="0" style="stop-color:#FFA440"/>
						<stop  offset="1" style="stop-color:#FF5A0C"/>
					</linearGradient>
					<polygon style="fill:url(#SVGID_00000086689923796209283330000000529320054718098596_);" points="125.8,36.5 118.8,10.7 
						135.2,10.7 					"/>
					<path d="M125.8,36.5c-2.9-8.9-6.5-18.1-9-27.2c6.4-0.1,14.1-0.1,20.5-0.1C134.1,18.4,129.5,27.6,125.8,36.5
						C125.8,36.5,125.8,36.5,125.8,36.5z M125.8,36.5c2.2-6.5,4-13.7,6-20.1c0.6-2.1,1.3-4.1,2.1-6.2l1.4,2
						c-4.8,0.1-11.6,0.1-16.5,0l1.4-1.8C122.4,19,123.7,27.7,125.8,36.5L125.8,36.5z"/>
				</g>
			</g>
			<g>
				<g>
					
						<radialGradient id="SVGID_00000043455426991730086210000001100686730414148532_" cx="28.0771" cy="-14.5537" r="55.69" gradientTransform="matrix(0.9965 -8.350392e-02 -8.350392e-02 -0.9965 42.6413 57.1643)" gradientUnits="userSpaceOnUse">
						<stop  offset="9.000000e-02" style="stop-color:#FCDF89"/>
						<stop  offset="0.29" style="stop-color:#FCDB87"/>
						<stop  offset="0.47" style="stop-color:#FCD082"/>
						<stop  offset="0.65" style="stop-color:#FDBE7A"/>
						<stop  offset="0.82" style="stop-color:#FDA46F"/>
						<stop  offset="0.99" style="stop-color:#FE8360"/>
						<stop  offset="1" style="stop-color:#FF805F"/>
					</radialGradient>
					<path style="fill:url(#SVGID_00000043455426991730086210000001100686730414148532_);" d="M98.2,21.9L47.7,45.5l-10,58
						l53.2-26.8C90.9,76.7,98.2,21.9,98.2,21.9z M58,51.3c1.2-1.2,2.4-2.3,3.5-3.4c0,0,0,0,0,0c1-1,2.1-2,3.1-3c1-0.9,1.9-1,3,0
						c2.1,2.2,4.3,4.4,6.5,6.6c0.5,0.5,1,1,0.7,1.8s-1.1,0.8-1.8,0.8c-3.4,0.2-3.4,0.2-3.4,3.6c-0.1,3.8,0.4,3.5-3.7,3.5
						c-0.4,0-0.8,0-1.1,0c-1.7,0.2-2.4-0.5-2.1-2.2c0-0.3,0-0.6,0-0.9c-0.1-1.2,0.5-2.7-0.2-3.7c-0.8-1-2.3-0.3-3.4-0.5
						c-0.7-0.1-1.3-0.2-1.5-0.9C57.3,52.4,57.6,51.8,58,51.3L58,51.3z M87.8,67.8c-1.1,1.1-2.3,2.2-3.4,3.3l0,0
						c-1.1,1.1-2.2,2.1-3.3,3.1c-0.5,0.5-1.1,0.8-1.9,0.6c-0.8-0.3-0.8-1-0.9-1.7c-0.2-2.3-1.4-3.5-3.7-3.5c-4.7,0-9.4,0-14.1,0
						c-0.9,0-1.8,0-2.6,0.3c-1.7,0.5-2.9,2.3-2.7,3.9c0.2,1.5,1.8,2.9,3.3,3c1.6,0.1,3.7-1.2,3.7-2.9c0.1-2.5,1.4-2.7,3.4-2.6
						c4.2,0.2,4.4,0.5,3.3,4.5c-1.4,5.2-6.6,8.5-12,7.7c-5.2-0.8-9-5.4-8.8-10.6c0.2-5.2,4.5-9.6,9.9-9.8c5.8-0.2,11.6-0.1,17.3-0.1
						c2.9,0,2.9,0,3-2.8c0-0.3,0-0.6,0-0.9c0.1-0.6,0.2-1.1,0.8-1.4c0.6-0.2,1.1,0,1.6,0.4c2.4,2.4,4.7,4.7,7.1,7.1
						C88.8,66.2,88.5,67,87.8,67.8L87.8,67.8z"/>
					
						<linearGradient id="SVGID_00000145747809788646627100000002933433403506396089_" gradientUnits="userSpaceOnUse" x1="-641.3087" y1="-14.1606" x2="-697.6987" y2="-41.8506" gradientTransform="matrix(0.9986 5.198736e-02 5.198736e-02 -0.9986 745.6531 30.8625)">
						<stop  offset="0.38" style="stop-color:#FCDF80"/>
						<stop  offset="0.85" style="stop-color:#FF805F"/>
					</linearGradient>
					<polygon style="fill:url(#SVGID_00000145747809788646627100000002933433403506396089_);" points="98.9,18.9 104.2,12.1 
						40.2,32.2 47.1,43.2 					"/>
					
						<linearGradient id="SVGID_00000155123942288960123400000017832979206603776923_" gradientUnits="userSpaceOnUse" x1="-705.1708" y1="-72.8357" x2="-698.5408" y2="-72.8357" gradientTransform="matrix(0.9986 5.198736e-02 5.198736e-02 -0.9986 745.6531 30.8625)">
						<stop  offset="0" style="stop-color:#FF2D2A"/>
						<stop  offset="1" style="stop-color:#FF805F"/>
					</linearGradient>
					<path style="fill:url(#SVGID_00000155123942288960123400000017832979206603776923_);" d="M39.3,35.3
						c-1.2,21.5-2.7,49.5-3.2,63.3L45.4,45L39.3,35.3L39.3,35.3z"/>
					
						<linearGradient id="SVGID_00000087380901695986815070000015206883308379868068_" gradientUnits="userSpaceOnUse" x1="-644.6284" y1="-41.8876" x2="-643.1384" y2="-64.7276" gradientTransform="matrix(0.9986 5.198736e-02 5.198736e-02 -0.9986 745.6531 30.8625)">
						<stop  offset="0" style="stop-color:#FCDF80"/>
						<stop  offset="1" style="stop-color:#FF805F"/>
					</linearGradient>
					<polygon style="fill:url(#SVGID_00000087380901695986815070000015206883308379868068_);" points="100.8,20.3 93.3,76.6 
						105.3,79.8 106.2,13.4 					"/>
					
						<linearGradient id="SVGID_00000070812359216661882590000018026032570970710168_" gradientUnits="userSpaceOnUse" x1="-696.1979" y1="-94.8966" x2="-639.5405" y2="-94.8966" gradientTransform="matrix(0.9986 5.198736e-02 5.198736e-02 -0.9986 745.6531 30.8625)">
						<stop  offset="0" style="stop-color:#FF2D2A"/>
						<stop  offset="1" style="stop-color:#FF805F"/>
					</linearGradient>
					<path style="fill:url(#SVGID_00000070812359216661882590000018026032570970710168_);" d="M44.8,102.6
						c14.9-5.4,42.6-15.5,57.8-21.1l-10.4-2.8C92.2,78.7,44.8,102.6,44.8,102.6z"/>
					<path d="M37.2,30.6l0,0.8c0,0.2-1.1,19.1-2,37.8c-1.3,26-1.5,39-0.4,39.1c1.6,0.1,0,0,0,0c0.4,0,2.4-0.4,72.1-26l0.8-0.3
						l1-73.9L37.2,30.6z M104.2,12.1l-5.3,6.9L47.1,43.2l-7-11L104.2,12.1z M39.3,35.3l6.1,9.7l-9.3,53.6
						C36.7,84.8,38.1,56.8,39.3,35.3L39.3,35.3z M47.7,45.5l50.5-23.7l-7.3,54.8l-53.2,26.8C37.7,103.5,47.7,45.5,47.7,45.5z
						 M44.8,102.6l47.4-23.8l10.4,2.8C87.3,87.1,59.7,97.2,44.8,102.6z M93.3,76.6l7.5-56.3l5.4-7l-0.9,66.4L93.3,76.6L93.3,76.6z"
						/>
					<path d="M80.9,58.2c-0.4-0.4-0.9-0.7-1.6-0.4c-0.6,0.2-0.8,0.8-0.8,1.4c0,0.3,0,0.6,0,0.9c-0.1,2.8-0.1,2.8-3,2.8
						c-5.8,0-11.6-0.2-17.3,0.1c-5.4,0.2-9.7,4.6-9.9,9.8c-0.2,5.2,3.6,9.8,8.8,10.6c5.4,0.8,10.5-2.5,11.9-7.7
						c1.1-4,0.8-4.3-3.3-4.5c-2-0.1-3.4,0.1-3.4,2.6c0,1.7-2.1,3-3.7,2.9c-1.5-0.1-3-1.5-3.3-3c-0.2-1.5,1-3.4,2.7-3.9
						c0.8-0.2,1.8-0.3,2.6-0.3c4.7,0,9.4,0,14.1,0c2.3,0,3.6,1.2,3.7,3.5c0.1,0.7,0.1,1.4,0.9,1.7c0.8,0.3,1.4-0.1,1.9-0.6
						c1.1-1,2.2-2.1,3.3-3.1l0,0c1.1-1.1,2.3-2.2,3.4-3.3c0.7-0.8,1-1.6,0.2-2.5C85.6,62.9,83.2,60.6,80.9,58.2L80.9,58.2z"/>
					<path d="M59,54c1.2,0.2,2.7-0.5,3.4,0.5c0.7,1,0.2,2.4,0.2,3.7c0,0.3,0,0.6,0,0.9c-0.2,1.6,0.4,2.3,2.1,2.2c0.4,0,0.8,0,1.1,0
						c4.1,0,3.6,0.3,3.7-3.5c0.1-3.4,0.1-3.4,3.4-3.6c0.7,0,1.4,0,1.8-0.8c0.3-0.8-0.2-1.3-0.7-1.8c-2.2-2.2-4.4-4.3-6.5-6.6
						c-1-1.1-2-1-3,0c-1.1,1-2.1,2-3.1,3c0,0,0,0,0,0c-1.2,1.1-2.4,2.3-3.5,3.4c-0.5,0.5-0.7,1-0.5,1.7C57.8,53.8,58.4,53.9,59,54
						L59,54z"/>
				</g>
				<g>
					
						<radialGradient id="SVGID_00000140731535300547766990000010512630979258231476_" cx="-23.3729" cy="-61.2837" r="65.63" gradientTransform="matrix(0.9965 -8.350392e-02 -8.350392e-02 -0.9965 42.6413 57.1643)" gradientUnits="userSpaceOnUse">
						<stop  offset="9.000000e-02" style="stop-color:#FFB472"/>
						<stop  offset="0.36" style="stop-color:#FFB06F"/>
						<stop  offset="0.61" style="stop-color:#FFA569"/>
						<stop  offset="0.85" style="stop-color:#FF935E"/>
						<stop  offset="1" style="stop-color:#FF8355"/>
					</radialGradient>
					<path style="fill:url(#SVGID_00000140731535300547766990000010512630979258231476_);" d="M98.2,21.9L47.7,45.5l-10,58
						l53.2-26.8C90.9,76.7,98.2,21.9,98.2,21.9z M58,51.3c1.2-1.2,2.4-2.3,3.5-3.4c0,0,0,0,0,0c1-1,2.1-2,3.1-3c1-0.9,1.9-1,3,0
						c2.1,2.2,4.3,4.4,6.5,6.6c0.5,0.5,1,1,0.7,1.8s-1.1,0.8-1.8,0.8c-3.4,0.2-3.4,0.2-3.4,3.6c-0.1,3.8,0.4,3.5-3.7,3.5
						c-0.4,0-0.8,0-1.1,0c-1.7,0.2-2.4-0.5-2.1-2.2c0-0.3,0-0.6,0-0.9c-0.1-1.2,0.5-2.7-0.2-3.7c-0.8-1-2.3-0.3-3.4-0.5
						c-0.7-0.1-1.3-0.2-1.5-0.9C57.3,52.4,57.6,51.8,58,51.3L58,51.3z M87.8,67.8c-1.1,1.1-2.3,2.2-3.4,3.3l0,0
						c-1.1,1.1-2.2,2.1-3.3,3.1c-0.5,0.5-1.1,0.8-1.9,0.6c-0.8-0.3-0.8-1-0.9-1.7c-0.2-2.3-1.4-3.5-3.7-3.5c-4.7,0-9.4,0-14.1,0
						c-0.9,0-1.8,0-2.6,0.3c-1.7,0.5-2.9,2.3-2.7,3.9c0.2,1.5,1.8,2.9,3.3,3c1.6,0.1,3.7-1.2,3.7-2.9c0.1-2.5,1.4-2.7,3.4-2.6
						c4.2,0.2,4.4,0.5,3.3,4.5c-1.4,5.2-6.6,8.5-12,7.7c-5.2-0.8-9-5.4-8.8-10.6c0.2-5.2,4.5-9.6,9.9-9.8c5.8-0.2,11.6-0.1,17.3-0.1
						c2.9,0,2.9,0,3-2.8c0-0.3,0-0.6,0-0.9c0.1-0.6,0.2-1.1,0.8-1.4c0.6-0.2,1.1,0,1.6,0.4c2.4,2.4,4.7,4.7,7.1,7.1
						C88.8,66.2,88.5,67,87.8,67.8L87.8,67.8z"/>
					
						<linearGradient id="SVGID_00000049195810721657659490000016124015242217020054_" gradientUnits="userSpaceOnUse" x1="-641.3087" y1="-14.1606" x2="-697.6987" y2="-41.8506" gradientTransform="matrix(0.9986 5.198736e-02 5.198736e-02 -0.9986 745.6531 30.8625)">
						<stop  offset="0.38" style="stop-color:#FFAF56"/>
						<stop  offset="0.85" style="stop-color:#FF8355"/>
					</linearGradient>
					<polygon style="fill:url(#SVGID_00000049195810721657659490000016124015242217020054_);" points="98.9,18.9 104.2,12.1 
						40.2,32.2 47.1,43.2 					"/>
					
						<linearGradient id="SVGID_00000031889114344607978560000003802652540928973743_" gradientUnits="userSpaceOnUse" x1="-705.1708" y1="-72.8357" x2="-698.5408" y2="-72.8357" gradientTransform="matrix(0.9986 5.198736e-02 5.198736e-02 -0.9986 745.6531 30.8625)">
						<stop  offset="0" style="stop-color:#FF2907"/>
						<stop  offset="1" style="stop-color:#FF8355"/>
					</linearGradient>
					<path style="fill:url(#SVGID_00000031889114344607978560000003802652540928973743_);" d="M39.3,35.3
						c-1.2,21.5-2.7,49.5-3.2,63.3L45.4,45L39.3,35.3L39.3,35.3z"/>
					
						<linearGradient id="SVGID_00000076569058292063686530000016033354979130016136_" gradientUnits="userSpaceOnUse" x1="-644.6284" y1="-41.8876" x2="-643.1384" y2="-64.7276" gradientTransform="matrix(0.9986 5.198736e-02 5.198736e-02 -0.9986 745.6531 30.8625)">
						<stop  offset="0" style="stop-color:#FFAF56"/>
						<stop  offset="1" style="stop-color:#FF8355"/>
					</linearGradient>
					<polygon style="fill:url(#SVGID_00000076569058292063686530000016033354979130016136_);" points="100.8,20.3 93.3,76.6 
						105.3,79.8 106.2,13.4 					"/>
					
						<linearGradient id="SVGID_00000010271384073113196640000009872589033205455521_" gradientUnits="userSpaceOnUse" x1="-696.1979" y1="-94.8966" x2="-639.5405" y2="-94.8966" gradientTransform="matrix(0.9986 5.198736e-02 5.198736e-02 -0.9986 745.6531 30.8625)">
						<stop  offset="0" style="stop-color:#FF2907"/>
						<stop  offset="1" style="stop-color:#FF8355"/>
					</linearGradient>
					<path style="fill:url(#SVGID_00000010271384073113196640000009872589033205455521_);" d="M44.8,102.6
						c14.9-5.4,42.6-15.5,57.8-21.1l-10.4-2.8C92.2,78.7,44.8,102.6,44.8,102.6z"/>
					<path d="M37.2,30.6l0,0.8c0,0.2-1.1,19.1-2,37.8c-1.3,26-1.5,39-0.4,39.1c1.6,0.1,0,0,0,0c0.4,0,2.4-0.4,72.1-26l0.8-0.3
						l1-73.9L37.2,30.6z M104.2,12.1l-5.3,6.9L47.1,43.2l-7-11L104.2,12.1z M39.3,35.3l6.1,9.7l-9.3,53.6
						C36.7,84.8,38.1,56.8,39.3,35.3L39.3,35.3z M47.7,45.5l50.5-23.7l-7.3,54.8l-53.2,26.8C37.7,103.5,47.7,45.5,47.7,45.5z
						 M44.8,102.6l47.4-23.8l10.4,2.8C87.3,87.1,59.7,97.2,44.8,102.6z M93.3,76.6l7.5-56.3l5.4-7l-0.9,66.4L93.3,76.6L93.3,76.6z"
						/>
					<path class="st1" d="M80.9,58.2c-0.4-0.4-0.9-0.7-1.6-0.4c-0.6,0.2-0.8,0.8-0.8,1.4c0,0.3,0,0.6,0,0.9c-0.1,2.8-0.1,2.8-3,2.8
						c-5.8,0-11.6-0.2-17.3,0.1c-5.4,0.2-9.7,4.6-9.9,9.8c-0.2,5.2,3.6,9.8,8.8,10.6c5.4,0.8,10.5-2.5,11.9-7.7
						c1.1-4,0.8-4.3-3.3-4.5c-2-0.1-3.4,0.1-3.4,2.6c0,1.7-2.1,3-3.7,2.9c-1.5-0.1-3-1.5-3.3-3c-0.2-1.5,1-3.4,2.7-3.9
						c0.8-0.2,1.8-0.3,2.6-0.3c4.7,0,9.4,0,14.1,0c2.3,0,3.6,1.2,3.7,3.5c0.1,0.7,0.1,1.4,0.9,1.7c0.8,0.3,1.4-0.1,1.9-0.6
						c1.1-1,2.2-2.1,3.3-3.1l0,0c1.1-1.1,2.3-2.2,3.4-3.3c0.7-0.8,1-1.6,0.2-2.5C85.6,62.9,83.2,60.6,80.9,58.2L80.9,58.2z"/>
					<path class="st1" d="M59,54c1.2,0.2,2.7-0.5,3.4,0.5c0.7,1,0.2,2.4,0.2,3.7c0,0.3,0,0.6,0,0.9c-0.2,1.6,0.4,2.3,2.1,2.2
						c0.4,0,0.8,0,1.1,0c4.1,0,3.6,0.3,3.7-3.5c0.1-3.4,0.1-3.4,3.4-3.6c0.7,0,1.4,0,1.8-0.8c0.3-0.8-0.2-1.3-0.7-1.8
						c-2.2-2.2-4.4-4.3-6.5-6.6c-1-1.1-2-1-3,0c-1.1,1-2.1,2-3.1,3c0,0,0,0,0,0c-1.2,1.1-2.4,2.3-3.5,3.4c-0.5,0.5-0.7,1-0.5,1.7
						C57.8,53.8,58.4,53.9,59,54L59,54z"/>
				</g>
			</g>
		</g>
	</g>
</g>
</svg>
