<?xml version="1.0" encoding="UTF-8"?>
<svg id="Capa_3" data-name="Capa 3" xmlns="http://www.w3.org/2000/svg" xmlns:xlink="http://www.w3.org/1999/xlink" viewBox="0 0 1594.12 896.69">
  <defs>
    <style>
      .cls-1 {
        fill: #023784;
      }

      .cls-2 {
        clip-path: url(#clippath-2);
      }

      .cls-3 {
        clip-path: url(#clippath-1);
      }

      .cls-4 {
        opacity: .84;
      }

      .cls-5 {
        stroke: #00fff3;
        stroke-miterlimit: 10;
        stroke-width: 2px;
      }

      .cls-5, .cls-6 {
        fill: none;
      }

      .cls-7 {
        clip-path: url(#clippath);
      }

      .cls-8 {
        fill: url(#Degradado_sin_nombre_180);
      }

      .cls-9 {
        fill: #002f70;
      }
    </style>
    <clipPath id="clippath">
      <rect class="cls-6" x="-12.45" y="-10.43" width="1618.86" height="912.51"/>
    </clipPath>
    <clipPath id="clippath-1">
      <rect class="cls-6" x="-14.56" y="251.28" width="1628.77" height="662.72"/>
    </clipPath>
    <linearGradient id="Degradado_sin_nombre_180" data-name="Degradado sin nombre 180" x1="412.07" y1="5310.55" x2="406.68" y2="5096.68" gradientTransform="translate(501.61 -6976.06) rotate(.27) scale(1 1.49)" gradientUnits="userSpaceOnUse">
      <stop offset="0" stop-color="#00f1ff"/>
      <stop offset=".58" stop-color="#978bc5" stop-opacity=".41"/>
      <stop offset="1" stop-color="#ff479e" stop-opacity="0"/>
    </linearGradient>
    <clipPath id="clippath-2">
      <rect class="cls-6" x="-20.62" y="-17.03" width="1628.77" height="931.03"/>
    </clipPath>
  </defs>
  <g class="cls-7">
    <g>
      <rect class="cls-9" x="-16.89" y="-22.11" width="1628.77" height="931.03"/>
      <g class="cls-3">
        <path class="cls-8" d="m2006.93,503.9l-2104.22-4.91-11.46.19c-21.7.36-40.56,4.61-47.99,10.81l-52.63,59.91c-7.16,5.97-25.89,9.92-46.84,9.88l-464.65-.99c-30.82-.06-55.86,7.48-55.95,16.84l-.04,4.08-2.91,299.77c-.06,5.9-1.6,13,48.99,10.8l3203.63,7.82c25.75.06,46.73-6.2,46.91-14.01l7.37-300.73c.09-9.41-24.94-17.1-55.91-17.17l-297.23-.68c-23.74-.05-44.86-4.64-52.73-11.46l-61.61-58.68c-7.88-6.82-29-11.41-52.73-11.46Z"/>
      </g>
      <g class="cls-2">
        <g>
          <g class="cls-4">
            <path class="cls-1" d="m1367.07,130.43c4.01,1.32,8.34-.97,9.67-5.11,1.33-4.15-.84-8.58-4.85-9.91-4.01-1.32-8.34.97-9.67,5.12-1.33,4.14.84,8.58,4.85,9.9Z"/>
            <path class="cls-5" d="m1424.61,151.64c5.08,1.68,10.56-1.22,12.24-6.47,1.69-5.26-1.06-10.87-6.14-12.55-5.08-1.68-10.56,1.22-12.24,6.48-1.69,5.25,1.06,10.86,6.14,12.54Z"/>
            <path class="cls-1" d="m1482.2,172.7c6.06,2,12.6-1.46,14.61-7.72,2.01-6.27-1.26-12.97-7.33-14.97-6.05-2-12.6,1.46-14.61,7.72-2.01,6.26,1.27,12.97,7.33,14.97Z"/>
            <path class="cls-1" d="m1542.99,161.41c6.77,2.24,14.08-1.62,16.33-8.63,2.25-7-1.42-14.49-8.19-16.73-6.78-2.24-14.09,1.63-16.33,8.63-2.25,7,1.41,14.49,8.19,16.73Z"/>
            <path class="cls-1" d="m1597.87,213.29c7.21,2.38,15.01-1.74,17.41-9.2,2.4-7.47-1.52-15.45-8.73-17.83-7.23-2.39-15.01,1.73-17.41,9.2-2.39,7.46,1.51,15.45,8.73,17.83Z"/>
            <ellipse class="cls-1" cx="1379.26" cy="192.7" rx="11.92" ry="11.55" transform="translate(939.02 1513.94) rotate(-79.53)"/>
            <path class="cls-1" d="m1432.88,226.1c7.58,2.5,15.76-1.82,18.27-9.65,2.51-7.83-1.59-16.21-9.17-18.71-7.58-2.5-15.75,1.82-18.26,9.65-2.51,7.83,1.58,16.21,9.16,18.71Z"/>
            <path class="cls-5" d="m1490.26,247.81c8.92,2.94,18.54-2.14,21.5-11.36,2.96-9.21-1.87-19.07-10.78-22.02-8.9-2.94-18.53,2.15-21.49,11.36-2.96,9.21,1.87,19.07,10.77,22.01Z"/>
            <path class="cls-1" d="m1547.8,269.03c9.98,3.29,20.75-2.41,24.06-12.73,3.31-10.32-2.09-21.36-12.07-24.65-9.99-3.3-20.76,2.4-24.07,12.72-3.31,10.32,2.09,21.36,12.07,24.66Z"/>
            <path class="cls-1" d="m1605.61,289.41c10.61,3.5,22.05-2.55,25.57-13.52,3.52-10.96-2.22-22.7-12.83-26.2-10.61-3.5-22.06,2.55-25.58,13.52-3.52,10.97,2.22,22.7,12.83,26.2Z"/>
            <path class="cls-1" d="m1253.71,211.65c6.33,2.09,13.16-1.52,15.26-8.07,2.1-6.54-1.32-13.54-7.65-15.63-6.32-2.09-13.15,1.53-15.25,8.07-2.1,6.54,1.32,13.54,7.64,15.63Z"/>
            <path class="cls-1" d="m1325.93,258.62c8.2,2.71,17.04-1.97,19.76-10.45,2.72-8.48-1.71-17.54-9.91-20.25-8.2-2.71-17.05,1.97-19.78,10.45-2.72,8.48,1.72,17.55,9.92,20.25Z"/>
            <path class="cls-5" d="m1382.93,281.5c10.16,3.36,21.13-2.44,24.5-12.94,3.37-10.51-2.12-21.74-12.29-25.1-10.16-3.36-21.13,2.44-24.5,12.95-3.37,10.51,2.13,21.74,12.29,25.09Z"/>
            <path class="cls-1" d="m1440.03,304.05c11.94,3.94,24.83-2.87,28.8-15.22,3.96-12.35-2.5-25.56-14.44-29.5-11.94-3.94-24.83,2.87-28.8,15.22-3.96,12.35,2.5,25.56,14.44,29.5Z"/>
            <path class="cls-1" d="m1497.26,326.26c13.54,4.47,28.16-3.26,32.65-17.26,4.5-14.01-2.83-28.99-16.37-33.46-13.54-4.47-28.17,3.26-32.67,17.27-4.49,14,2.84,28.99,16.39,33.46Z"/>
            <path class="cls-1" d="m1554.85,347.31c14.53,4.8,30.2-3.5,35.02-18.52,4.82-15.02-3.04-31.08-17.56-35.88-14.53-4.8-30.21,3.49-35.04,18.51-4.82,15.02,3.05,31.09,17.57,35.88Z"/>
            <path class="cls-1" d="m1612.86,367.02c14.79,4.88,30.76-3.56,35.67-18.85,4.91-15.3-3.1-31.66-17.89-36.54-14.79-4.88-30.76,3.56-35.67,18.86-4.91,15.29,3.1,31.65,17.89,36.54Z"/>
            <path class="cls-1" d="m1220.84,285.29c5.71,1.89,11.86-1.37,13.76-7.27,1.89-5.9-1.19-12.2-6.9-14.09-5.7-1.88-11.85,1.37-13.75,7.27-1.89,5.9,1.19,12.21,6.89,14.09Z"/>
            <path class="cls-1" d="m1277.74,308.51c7.84,2.59,16.31-1.89,18.91-10,2.6-8.11-1.64-16.78-9.48-19.37-7.84-2.59-16.32,1.88-18.92,9.99-2.6,8.11,1.65,16.79,9.49,19.38Z"/>
            <path class="cls-1" d="m1334.53,332.06c10.16,3.36,21.13-2.44,24.5-12.95,3.37-10.5-2.13-21.74-12.29-25.09-10.16-3.36-21.13,2.44-24.5,12.94-3.37,10.51,2.13,21.74,12.29,25.1Z"/>
            <path class="cls-1" d="m1391.2,355.95c12.66,4.18,26.32-3.04,30.52-16.13,4.2-13.08-2.65-27.08-15.31-31.26-12.65-4.18-26.32,3.04-30.52,16.12s2.66,27.08,15.31,31.26Z"/>
            <path class="cls-1" d="m1447.94,379.66c15.07,4.98,31.32-3.62,36.32-19.19,5-15.57-3.14-32.23-18.21-37.2-15.06-4.97-31.32,3.62-36.32,19.19-5,15.57,3.16,32.23,18.21,37.2Z"/>
            <path class="cls-1" d="m1505.21,401.71c16.57,5.47,34.47-3.99,39.97-21.13,5.5-17.14-3.47-35.47-20.04-40.94-16.58-5.48-34.48,3.98-39.98,21.12-5.5,17.14,3.47,35.47,20.05,40.95Z"/>
            <path class="cls-1" d="m1563.39,420.93c16.57,5.47,34.47-3.99,39.97-21.13,5.5-17.14-3.47-35.47-20.04-40.94-16.57-5.47-34.47,3.98-39.97,21.12-5.5,17.14,3.47,35.47,20.04,40.95Z"/>
            <path class="cls-1" d="m1228.68,361.08c8.92,2.94,18.54-2.14,21.5-11.36,2.96-9.21-1.87-19.07-10.79-22.02-8.9-2.94-18.53,2.15-21.48,11.36-2.96,9.21,1.87,19.07,10.77,22.01Z"/>
            <path class="cls-1" d="m1285.27,385.3c11.58,3.82,24.09-2.79,27.93-14.77,3.85-11.98-2.43-24.79-14.01-28.62-11.59-3.83-24.1,2.78-27.94,14.76-3.85,11.98,2.43,24.79,14.02,28.62Z"/>
            <path class="cls-1" d="m1341.73,409.85c14.44,4.77,30.02-3.47,34.82-18.4,4.79-14.93-3.02-30.9-17.46-35.66-14.44-4.77-30.02,3.47-34.82,18.4-4.79,14.93,3.02,30.9,17.46,35.67Z"/>
            <path class="cls-1" d="m1398.62,433.07c16.58,5.48,34.48-3.99,39.98-21.13,5.5-17.14-3.47-35.47-20.05-40.95-16.57-5.47-34.47,3.99-39.97,21.13-5.5,17.14,3.47,35.47,20.04,40.95Z"/>
            <path class="cls-1" d="m1456.81,452.28c16.57,5.47,34.47-3.99,39.97-21.13,5.5-17.14-3.47-35.47-20.04-40.95-16.58-5.48-34.48,3.99-39.98,21.12-5.5,17.14,3.47,35.47,20.05,40.95Z"/>
            <path class="cls-1" d="m1514.99,471.49c16.57,5.47,34.47-3.99,39.97-21.13,5.5-17.14-3.47-35.47-20.04-40.95-16.57-5.47-34.47,3.99-39.97,21.13-5.5,17.14,3.47,35.47,20.04,40.95Z"/>
            <path class="cls-1" d="m1573.16,490.7c16.57,5.47,34.47-3.99,39.97-21.13,5.5-17.14-3.47-35.47-20.04-40.95-16.57-5.47-34.47,3.99-39.97,21.13-5.5,17.14,3.47,35.47,20.04,40.95Z"/>
            <path class="cls-1" d="m1170.96,397.02c6.77,2.24,14.08-1.63,16.33-8.63,2.25-7-1.42-14.49-8.19-16.73-6.77-2.24-14.09,1.63-16.33,8.63-2.25,7,1.42,14.5,8.19,16.73Z"/>
            <path class="cls-1" d="m1238.26,431.52c9.26,3.06,19.26-2.23,22.34-11.82,3.07-9.58-1.94-19.83-11.2-22.89-9.27-3.06-19.28,2.23-22.35,11.81-3.08,9.59,1.94,19.84,11.21,22.9Z"/>
            <path class="cls-1" d="m1294.77,455.91c12.03,3.97,25.01-2.9,29.01-15.34,3.99-12.44-2.51-25.74-14.54-29.72-12.03-3.97-25.02,2.89-29.02,15.33-3.99,12.44,2.52,25.75,14.55,29.73Z"/>
            <path class="cls-1" d="m1351.08,480.96c15.16,5.01,31.51-3.65,36.54-19.31,5.03-15.66-3.17-32.42-18.33-37.42-15.15-5-31.5,3.64-36.53,19.31-5.03,15.66,3.17,32.42,18.31,37.42Z"/>
            <path class="cls-1" d="m1408.4,502.84c16.58,5.48,34.48-3.98,39.98-21.12,5.5-17.14-3.47-35.47-20.06-40.94-16.57-5.47-34.46,3.98-39.97,21.12-5.5,17.14,3.47,35.47,20.04,40.95Z"/>
            <path class="cls-1" d="m1466.59,522.05c16.57,5.47,34.46-3.98,39.97-21.13,5.5-17.14-3.47-35.47-20.04-40.94-16.58-5.48-34.48,3.98-39.98,21.12-5.5,17.14,3.47,35.47,20.05,40.95Z"/>
            <path class="cls-1" d="m1524.76,541.26c16.57,5.47,34.46-3.98,39.97-21.13,5.5-17.14-3.47-35.47-20.04-40.94-16.57-5.47-34.47,3.98-39.97,21.12-5.5,17.14,3.47,35.47,20.04,40.95Z"/>
            <path class="cls-1" d="m1582.94,560.48c16.58,5.48,34.48-3.98,39.98-21.12,5.5-17.14-3.47-35.47-20.06-40.94-16.57-5.47-34.47,3.98-39.97,21.12-5.5,17.14,3.47,35.47,20.04,40.95Z"/>
            <path class="cls-1" d="m1190.06,481.42c8.92,2.94,18.54-2.14,21.5-11.36,2.96-9.21-1.87-19.07-10.78-22.02-8.9-2.94-18.53,2.15-21.49,11.36-2.96,9.21,1.87,19.07,10.77,22.01Z"/>
            <path class="cls-1" d="m1246.64,505.64c11.58,3.82,24.09-2.79,27.93-14.77,3.85-11.98-2.43-24.79-14.01-28.62-11.59-3.83-24.1,2.78-27.94,14.76-3.85,11.98,2.43,24.79,14.02,28.62Z"/>
            <path class="cls-1" d="m1303.1,530.19c14.44,4.77,30.02-3.47,34.82-18.4,4.79-14.93-3.02-30.9-17.46-35.66-14.44-4.77-30.03,3.47-34.82,18.4-4.79,14.93,3.02,30.9,17.46,35.66Z"/>
            <path class="cls-1" d="m1359.99,553.4c16.58,5.48,34.48-3.99,39.98-21.12,5.5-17.14-3.47-35.47-20.05-40.95-16.57-5.47-34.47,3.99-39.97,21.13-5.5,17.14,3.47,35.47,20.04,40.95Z"/>
            <path class="cls-1" d="m1418.18,572.62c16.57,5.47,34.47-3.99,39.97-21.13,5.5-17.14-3.47-35.47-20.04-40.95-16.58-5.48-34.48,3.99-39.98,21.13-5.5,17.14,3.47,35.47,20.05,40.95Z"/>
            <path class="cls-1" d="m1476.36,591.83c16.57,5.47,34.47-3.99,39.97-21.13,5.5-17.14-3.47-35.47-20.04-40.95-16.57-5.47-34.47,3.99-39.97,21.13-5.5,17.14,3.47,35.47,20.04,40.95Z"/>
            <path class="cls-1" d="m1534.54,611.04c16.57,5.47,34.47-3.99,39.97-21.13,5.5-17.14-3.47-35.47-20.04-40.95-16.57-5.47-34.47,3.99-39.97,21.13-5.5,17.14,3.47,35.47,20.04,40.95Z"/>
            <path class="cls-1" d="m1592.71,630.25c16.58,5.48,34.48-3.99,39.98-21.12,5.5-17.14-3.47-35.47-20.05-40.95-16.57-5.47-34.47,3.99-39.97,21.13-5.5,17.14,3.47,35.47,20.04,40.95Z"/>
            <path class="cls-1" d="m1143.58,525.97c5.71,1.89,11.86-1.37,13.76-7.27,1.89-5.9-1.19-12.21-6.9-14.09-5.7-1.88-11.85,1.37-13.75,7.28-1.89,5.9,1.19,12.2,6.89,14.08Z"/>
            <path class="cls-1" d="m1200.49,549.19c7.84,2.59,16.31-1.89,18.91-9.99,2.6-8.11-1.64-16.78-9.48-19.37-7.84-2.59-16.32,1.88-18.92,10-2.6,8.11,1.65,16.78,9.49,19.37Z"/>
            <path class="cls-1" d="m1257.27,572.74c10.16,3.36,21.13-2.44,24.5-12.94,3.37-10.51-2.13-21.74-12.29-25.1-10.16-3.36-21.13,2.44-24.5,12.95-3.37,10.5,2.13,21.74,12.29,25.09Z"/>
            <path class="cls-1" d="m1313.95,596.62c12.66,4.18,26.32-3.04,30.52-16.12,4.2-13.09-2.65-27.08-15.31-31.26-12.65-4.18-26.32,3.04-30.52,16.13-4.2,13.08,2.66,27.08,15.31,31.26Z"/>
            <path class="cls-1" d="m1370.62,620.51c15.16,5.01,31.51-3.64,36.54-19.31,5.03-15.66-3.17-32.42-18.33-37.43-15.15-5-31.5,3.65-36.53,19.31-5.03,15.66,3.17,32.42,18.32,37.42Z"/>
            <path class="cls-1" d="m1427.96,642.39c16.57,5.47,34.46-3.98,39.97-21.12,5.5-17.14-3.47-35.47-20.04-40.95-16.58-5.48-34.48,3.99-39.98,21.12-5.5,17.14,3.47,35.47,20.06,40.94Z"/>
            <path class="cls-1" d="m1486.14,661.6c16.57,5.47,34.46-3.98,39.97-21.12,5.5-17.14-3.47-35.47-20.04-40.95-16.57-5.47-34.47,3.99-39.97,21.13-5.5,17.14,3.47,35.47,20.05,40.94Z"/>
            <path class="cls-1" d="m1544.31,680.81c16.58,5.48,34.48-3.98,39.98-21.12,5.5-17.14-3.47-35.47-20.05-40.95-16.57-5.47-34.47,3.99-39.97,21.13-5.5,17.14,3.47,35.47,20.05,40.94Z"/>
            <path class="cls-1" d="m1602.5,700.03c16.57,5.47,34.47-3.98,39.97-21.12,5.5-17.14-3.47-35.47-20.04-40.95-16.58-5.48-34.48,3.99-39.98,21.12-5.5,17.14,3.47,35.47,20.06,40.94Z"/>
            <path class="cls-1" d="m1209.99,619.8c8.29,2.74,17.24-2,19.99-10.57,2.75-8.57-1.74-17.73-10.02-20.47-8.3-2.74-17.23,1.99-19.98,10.56-2.75,8.57,1.72,17.74,10.02,20.48Z"/>
            <path class="cls-1" d="m1267.05,642.52c10.16,3.36,21.13-2.44,24.5-12.95,3.37-10.51-2.13-21.74-12.29-25.09-10.16-3.36-21.13,2.44-24.5,12.94-3.37,10.51,2.12,21.74,12.29,25.1Z"/>
            <path class="cls-1" d="m1324.1,665.23c12.03,3.97,25.02-2.89,29.02-15.33,3.99-12.44-2.52-25.75-14.55-29.72-12.03-3.97-25.01,2.9-29.01,15.33-3.99,12.44,2.51,25.74,14.54,29.72Z"/>
            <path class="cls-1" d="m1381.32,687.45c13.63,4.5,28.35-3.28,32.88-17.38,4.53-14.1-2.85-29.18-16.49-33.68-13.64-4.51-28.36,3.28-32.89,17.38-4.53,14.1,2.85,29.18,16.5,33.68Z"/>
            <ellipse class="cls-1" cx="1447.69" cy="681.13" rx="28.75" ry="27.85" transform="translate(514.73 1980.88) rotate(-79.53)"/>
            <path class="cls-1" d="m1496.93,728.21c14.88,4.91,30.95-3.58,35.89-18.97,4.94-15.38-3.12-31.85-18-36.76-14.88-4.91-30.95,3.58-35.89,18.97-4.94,15.39,3.12,31.85,18,36.76Z"/>
            <path class="cls-1" d="m1555.42,746.42c14.35,4.74,29.85-3.45,34.61-18.29,4.76-14.84-3.01-30.7-17.36-35.44-14.34-4.74-29.83,3.45-34.59,18.28-4.76,14.84,3.01,30.71,17.35,35.44Z"/>
            <path class="cls-1" d="m1221.05,685.57c6.14,2.03,12.79-1.48,14.83-7.83,2.04-6.36-1.3-13.17-7.44-15.19-6.15-2.03-12.79,1.48-14.83,7.84-2.04,6.36,1.29,13.16,7.44,15.19Z"/>
            <path class="cls-1" d="m1278.37,707.45c7.58,2.5,15.76-1.82,18.27-9.65,2.51-7.83-1.59-16.21-9.17-18.72-7.58-2.5-15.75,1.82-18.26,9.66-2.51,7.83,1.58,16.2,9.16,18.71Z"/>
            <path class="cls-1" d="m1335.75,729.17c8.92,2.94,18.54-2.14,21.5-11.36,2.96-9.21-1.87-19.07-10.78-22.02-8.9-2.94-18.53,2.15-21.49,11.36-2.96,9.21,1.87,19.07,10.77,22.01Z"/>
            <path class="cls-1" d="m1393.29,750.38c9.98,3.29,20.75-2.4,24.06-12.72,3.31-10.32-2.09-21.36-12.07-24.65-9.99-3.3-20.76,2.4-24.07,12.72-3.31,10.32,2.09,21.36,12.08,24.65Z"/>
            <ellipse class="cls-1" cx="1457.47" cy="750.91" rx="21.04" ry="20.38" transform="translate(455.66 2048.78) rotate(-79.59)"/>
            <path class="cls-1" d="m1509.11,790.48c10.87,3.59,22.61-2.61,26.22-13.85,3.61-11.24-2.28-23.27-13.15-26.86-10.87-3.59-22.6,2.62-26.21,13.86-3.61,11.24,2.27,23.26,13.14,26.85Z"/>
            <path class="cls-1" d="m1567.51,809.02c10.52,3.47,21.86-2.53,25.35-13.4,3.49-10.87-2.2-22.5-12.71-25.98-10.52-3.47-21.88,2.53-25.37,13.4-3.49,10.87,2.21,22.5,12.73,25.98Z"/>
          </g>
          <g>
            <path class="cls-1" d="m262.48,4.35c5.93,1.96,12.34-1.43,14.31-7.56,1.97-6.13-1.25-12.7-7.18-14.66-5.93-1.96-12.34,1.43-14.3,7.56-1.97,6.13,1.24,12.7,7.17,14.65Z"/>
            <path class="cls-1" d="m303.85,15.94c4.94,1.63,10.26-1.19,11.9-6.29,1.64-5.1-1.03-10.55-5.97-12.19-4.93-1.63-10.25,1.19-11.89,6.29s1.03,10.56,5.96,12.19Z"/>
            <path class="cls-1" d="m103.59,7.7c10.37,3.42,21.56-2.49,25-13.21,3.44-10.72-2.17-22.19-12.53-25.61-10.37-3.42-21.56,2.49-25,13.21-3.44,10.72,2.17,22.18,12.54,25.6Z"/>
            <path class="cls-1" d="m144.58,20.46c9.99,3.3,20.78-2.4,24.1-12.73,3.32-10.33-2.09-21.38-12.09-24.68-9.99-3.3-20.77,2.4-24.09,12.74-3.32,10.33,2.09,21.38,12.08,24.68Z"/>
            <path class="cls-1" d="m185.85,32.4c9.17,3.03,19.09-2.21,22.14-11.7,3.05-9.49-1.93-19.65-11.1-22.68-9.18-3.03-19.09,2.21-22.14,11.7-3.05,9.49,1.92,19.64,11.1,22.67Z"/>
            <path class="cls-1" d="m227.33,43.64c8,2.64,16.62-1.92,19.27-10.19,2.65-8.27-1.67-17.11-9.66-19.75-8-2.64-16.62,1.92-19.27,10.19-2.65,8.26,1.67,17.1,9.67,19.74Z"/>
            <path class="cls-1" d="m268.88,54.65c6.68,2.21,13.9-1.6,16.12-8.51,2.22-6.91-1.4-14.3-8.08-16.51-6.68-2.21-13.89,1.61-16.11,8.52-2.22,6.91,1.4,14.3,8.08,16.5Z"/>
            <path class="cls-1" d="m-11.98,16.55C-1.42,20.04,9.96,14.01,13.47,3.1c3.5-10.91-2.2-22.58-12.76-26.07-10.55-3.48-21.95,2.54-25.45,13.45-3.5,10.91,2.21,22.58,12.76,26.07Z"/>
            <path class="cls-1" d="m28.15,32c11.61,3.83,24.15-2.8,28.01-14.81,3.86-12.01-2.43-24.85-14.05-28.69-11.62-3.84-24.16,2.79-28.01,14.8-3.85,12.01,2.43,24.86,14.05,28.69Z"/>
            <path class="cls-1" d="m68.92,45.47c11.61,3.83,24.15-2.8,28.01-14.81,3.86-12.01-2.43-24.85-14.05-28.69-11.61-3.83-24.15,2.79-28.01,14.8-3.85,12.01,2.43,24.86,14.05,28.69Z"/>
            <path class="cls-1" d="m109.69,58.93c11.62,3.84,24.16-2.79,28.02-14.8,3.86-12.01-2.43-24.85-14.05-28.69-11.61-3.83-24.15,2.79-28.01,14.8-3.85,12.01,2.43,24.86,14.05,28.69Z"/>
            <path class="cls-1" d="m150.46,72.39c11.61,3.83,24.15-2.8,28.01-14.81,3.86-12.01-2.43-24.85-14.05-28.69-11.62-3.84-24.16,2.79-28.01,14.8-3.85,12.01,2.43,24.86,14.05,28.69Z"/>
            <path class="cls-1" d="m191.23,85.86c11.61,3.83,24.15-2.8,28.01-14.81,3.86-12.01-2.43-24.85-14.05-28.69-11.61-3.83-24.15,2.79-28.01,14.8-3.85,12.01,2.43,24.86,14.05,28.69Z"/>
            <path class="cls-1" d="m232.97,96.28c9.99,3.3,20.78-2.4,24.1-12.74,3.32-10.33-2.09-21.38-12.09-24.68-9.99-3.3-20.77,2.41-24.09,12.74-3.32,10.33,2.09,21.38,12.08,24.68Z"/>
            <path class="cls-5" d="m274.79,106.47c8.25,2.72,17.15-1.98,19.88-10.51,2.74-8.52-1.73-17.64-9.97-20.36-8.24-2.72-17.14,1.98-19.87,10.51-2.74,8.52,1.73,17.64,9.96,20.36Z"/>
            <path class="cls-1" d="m316.58,116.77c6.56,2.17,13.63-1.58,15.81-8.36,2.18-6.78-1.37-14.03-7.93-16.19-6.56-2.17-13.64,1.57-15.82,8.35-2.18,6.78,1.38,14.03,7.93,16.2Z"/>
            <path class="cls-1" d="m358.29,127.31c4.99,1.65,10.39-1.2,12.04-6.37,1.66-5.16-1.05-10.69-6.04-12.34-4.99-1.65-10.39,1.2-12.04,6.37-1.66,5.17,1.05,10.69,6.04,12.34Z"/>
            <path class="cls-1" d="m-5.76,67.44c11.61,3.83,24.15-2.8,28.01-14.81,3.85-12.01-2.43-24.86-14.05-28.69-11.62-3.84-24.16,2.79-28.01,14.8-3.86,12.01,2.43,24.86,14.05,28.7Z"/>
            <path class="cls-1" d="m35,80.9c11.61,3.83,24.15-2.8,28.01-14.81,3.85-12.01-2.43-24.86-14.04-28.69-11.61-3.83-24.15,2.8-28.01,14.81-3.86,12.01,2.43,24.86,14.05,28.69Z"/>
            <path class="cls-1" d="m75.77,94.36c11.61,3.83,24.15-2.8,28.01-14.81,3.85-12.01-2.43-24.86-14.04-28.69-11.61-3.83-24.15,2.8-28.01,14.81-3.86,12.01,2.43,24.86,14.05,28.69Z"/>
            <path class="cls-1" d="m116.54,107.83c11.62,3.84,24.16-2.79,28.02-14.8,3.85-12.01-2.43-24.86-14.05-28.7-11.61-3.83-24.15,2.8-28.01,14.81-3.86,12.01,2.43,24.86,14.04,28.69Z"/>
            <path class="cls-5" d="m157.31,121.29c11.61,3.83,24.15-2.8,28.01-14.81,3.85-12.01-2.43-24.86-14.04-28.69-11.62-3.84-24.16,2.79-28.02,14.8-3.86,12.01,2.43,24.86,14.05,28.7Z"/>
            <path class="cls-1" d="m198.12,134.63c11.55,3.81,24.03-2.78,27.86-14.72,3.83-11.95-2.42-24.73-13.97-28.54-11.55-3.81-24.03,2.78-27.86,14.72-3.83,11.95,2.43,24.72,13.98,28.54Z"/>
            <path class="cls-1" d="m240.16,144.12c9.43,3.11,19.61-2.27,22.74-12.02,3.13-9.75-1.97-20.18-11.4-23.29-9.43-3.11-19.61,2.27-22.74,12.02-3.13,9.75,1.97,20.18,11.4,23.29Z"/>
            <path class="cls-1" d="m282.14,153.85c7.43,2.45,15.46-1.79,17.92-9.47,2.47-7.68-1.56-15.9-8.99-18.36-7.43-2.45-15.46,1.79-17.92,9.47-2.47,7.68,1.56,15.9,8.99,18.36Z"/>
            <path class="cls-5" d="m323.96,164.03c5.68,1.88,11.82-1.37,13.7-7.24,1.89-5.88-1.19-12.16-6.87-14.04-5.68-1.88-11.82,1.37-13.7,7.24-1.89,5.88,1.19,12.16,6.87,14.04Z"/>
            <path class="cls-1" d="m365.7,174.45c4.06,1.34,8.44-.98,9.79-5.17,1.35-4.2-.85-8.69-4.91-10.03-4.06-1.34-8.44.98-9.79,5.18-1.35,4.2.85,8.68,4.91,10.02Z"/>
            <path class="cls-1" d="m1.09,116.33c11.61,3.83,24.15-2.79,28.01-14.81,3.85-12.01-2.43-24.85-14.05-28.69-11.62-3.84-24.16,2.79-28.01,14.8-3.86,12.01,2.43,24.86,14.05,28.69Z"/>
            <path class="cls-1" d="m41.85,129.79c11.61,3.83,24.15-2.79,28.01-14.81,3.85-12.01-2.43-24.85-14.05-28.69-11.61-3.83-24.15,2.79-28.01,14.8-3.86,12.01,2.43,24.86,14.05,28.69Z"/>
            <path class="cls-1" d="m82.62,143.26c11.62,3.84,24.16-2.79,28.02-14.8,3.85-12.01-2.43-24.85-14.05-28.69-11.61-3.83-24.15,2.79-28.01,14.8-3.86,12.01,2.43,24.86,14.05,28.69Z"/>
            <path class="cls-1" d="m123.4,156.72c11.61,3.83,24.15-2.79,28.01-14.81,3.85-12.01-2.43-24.85-14.05-28.69-11.62-3.84-24.16,2.79-28.01,14.8-3.86,12.01,2.43,24.86,14.05,28.69Z"/>
            <path class="cls-1" d="m164.16,170.18c11.61,3.83,24.15-2.79,28.01-14.81,3.85-12.01-2.43-24.85-14.05-28.69-11.61-3.83-24.15,2.79-28.01,14.8-3.86,12.01,2.43,24.86,14.05,28.69Z"/>
            <path class="cls-1" d="m204.93,183.65c11.61,3.83,24.15-2.79,28.01-14.81,3.85-12.01-2.43-24.85-14.05-28.69-11.61-3.83-24.15,2.79-28.01,14.8-3.86,12.01,2.43,24.86,14.05,28.69Z"/>
            <path class="cls-1" d="m246.75,193.83c9.87,3.26,20.52-2.37,23.8-12.57,3.27-10.2-2.07-21.11-11.94-24.37-9.86-3.26-20.51,2.37-23.79,12.57-3.28,10.2,2.07,21.12,11.93,24.37Z"/>
            <path class="cls-1" d="m288.76,203.44c7.8,2.58,16.23-1.88,18.82-9.95,2.59-8.07-1.63-16.7-9.44-19.28-7.81-2.58-16.24,1.87-18.83,9.94-2.59,8.07,1.63,16.7,9.44,19.28Z"/>
            <path class="cls-1" d="m330.69,213.28c5.87,1.94,12.21-1.41,14.16-7.48,1.95-6.07-1.23-12.56-7.1-14.5-5.87-1.94-12.21,1.41-14.16,7.48-1.95,6.07,1.23,12.56,7.1,14.5Z"/>
            <path class="cls-1" d="m7.94,165.23c11.61,3.83,24.15-2.8,28.01-14.81,3.86-12.01-2.43-24.86-14.04-28.69-11.61-3.83-24.15,2.8-28.01,14.81-3.85,12.01,2.43,24.86,14.05,28.69Z"/>
            <path class="cls-1" d="m48.7,178.69c11.61,3.83,24.15-2.8,28.01-14.81,3.86-12.01-2.43-24.86-14.04-28.69-11.61-3.83-24.15,2.8-28.01,14.81-3.85,12.01,2.43,24.86,14.05,28.69Z"/>
            <path class="cls-1" d="m89.47,192.15c11.62,3.84,24.16-2.79,28.02-14.8,3.86-12.01-2.43-24.86-14.05-28.7-11.61-3.83-24.15,2.8-28.01,14.81-3.85,12.01,2.43,24.86,14.04,28.69Z"/>
            <path class="cls-1" d="m130.25,205.62c11.61,3.83,24.15-2.8,28.01-14.81,3.86-12.01-2.43-24.86-14.04-28.69-11.62-3.84-24.16,2.79-28.02,14.8-3.85,12.01,2.43,24.86,14.05,28.69Z"/>
            <ellipse class="cls-1" cx="177.99" cy="197.33" rx="22.73" ry="22.02" transform="translate(-48.3 336.66) rotate(-79.57)"/>
            <path class="cls-1" d="m213.09,228.45c9.43,3.11,19.61-2.27,22.74-12.02,3.13-9.75-1.97-20.18-11.4-23.29-9.43-3.11-19.61,2.27-22.74,12.02-3.13,9.75,1.97,20.18,11.4,23.29Z"/>
            <path class="cls-1" d="m255.07,238.17c7.43,2.45,15.46-1.79,17.92-9.47,2.47-7.68-1.56-15.9-8.99-18.36-7.43-2.45-15.46,1.79-17.92,9.47-2.47,7.68,1.56,15.9,8.99,18.36Z"/>
            <path class="cls-1" d="m296.89,248.36c5.68,1.88,11.82-1.37,13.7-7.24,1.89-5.88-1.19-12.16-6.87-14.04-5.68-1.88-11.82,1.37-13.7,7.24-1.89,5.88,1.19,12.16,6.87,14.04Z"/>
            <path class="cls-1" d="m338.63,258.78c4.06,1.34,8.44-.98,9.79-5.18,1.35-4.2-.85-8.68-4.91-10.02-4.06-1.34-8.44.98-9.79,5.17-1.35,4.2.85,8.69,4.91,10.03Z"/>
            <path class="cls-1" d="m-25.98,200.66c11.61,3.83,24.15-2.79,28.01-14.8,3.85-12.01-2.43-24.86-14.04-28.69-11.62-3.84-24.16,2.79-28.02,14.8-3.86,12.01,2.43,24.85,14.05,28.69Z"/>
            <path class="cls-1" d="m14.79,214.12c11.61,3.83,24.15-2.79,28.01-14.8,3.85-12.01-2.43-24.86-14.04-28.69-11.61-3.83-24.15,2.8-28.01,14.81-3.86,12.01,2.43,24.85,14.05,28.69Z"/>
            <path class="cls-1" d="m55.55,227.58c11.62,3.84,24.16-2.79,28.01-14.8,3.85-12.01-2.43-24.86-14.05-28.69-11.61-3.83-24.15,2.8-28.01,14.81-3.86,12.01,2.43,24.85,14.05,28.69Z"/>
            <path class="cls-1" d="m96.33,241.05c11.61,3.83,24.15-2.79,28.01-14.8,3.85-12.01-2.43-24.86-14.05-28.69-11.62-3.84-24.16,2.79-28.02,14.8-3.86,12.01,2.43,24.85,14.05,28.69Z"/>
            <path class="cls-1" d="m137.1,254.51c11.61,3.83,24.15-2.79,28.01-14.8,3.85-12.01-2.43-24.86-14.04-28.69-11.61-3.83-24.15,2.8-28.01,14.81-3.86,12.01,2.43,24.85,14.05,28.69Z"/>
            <path class="cls-1" d="m178.84,264.93c9.99,3.3,20.78-2.4,24.1-12.73,3.32-10.33-2.09-21.38-12.09-24.68-9.99-3.3-20.77,2.41-24.09,12.74-3.32,10.33,2.09,21.38,12.08,24.68Z"/>
            <path class="cls-1" d="m220.62,275.24c8.31,2.74,17.28-1.99,20.03-10.58,2.76-8.59-1.74-17.78-10.05-20.52-8.3-2.74-17.27,2-20.03,10.59-2.76,8.59,1.74,17.77,10.04,20.51Z"/>
            <path class="cls-1" d="m262.45,285.43c6.56,2.17,13.63-1.58,15.81-8.35,2.18-6.78-1.37-14.03-7.93-16.2-6.56-2.17-13.64,1.57-15.82,8.36-2.18,6.78,1.38,14.03,7.94,16.2Z"/>
            <path class="cls-1" d="m304.15,295.97c4.99,1.65,10.39-1.2,12.04-6.37,1.66-5.17-1.05-10.69-6.04-12.34-4.99-1.65-10.39,1.2-12.04,6.37-1.66,5.16,1.05,10.69,6.04,12.34Z"/>
            <path class="cls-1" d="m345.78,306.74c3.56,1.18,7.41-.85,8.59-4.53,1.18-3.68-.75-7.62-4.31-8.79-3.55-1.17-7.4.86-8.58,4.54-1.18,3.68.75,7.61,4.3,8.79Z"/>
            <ellipse class="cls-1" cx="-12.15" cy="227.8" rx="20.15" ry="19.52" transform="translate(-233.95 174.44) rotate(-79.53)"/>
            <path class="cls-1" d="m22.35,260.79c10.43,3.44,21.69-2.51,25.15-13.29,3.46-10.78-2.19-22.32-12.61-25.76-10.43-3.44-21.69,2.51-25.15,13.29-3.46,10.78,2.19,22.32,12.61,25.76Z"/>
            <path class="cls-1" d="m63.34,273.56c10.06,3.32,20.91-2.42,24.25-12.81,3.34-10.4-2.11-21.51-12.17-24.84-10.05-3.32-20.9,2.42-24.24,12.81-3.34,10.4,2.11,21.52,12.16,24.84Z"/>
            <path class="cls-1" d="m104.64,285.38c9.17,3.03,19.09-2.21,22.14-11.7,3.05-9.49-1.93-19.65-11.11-22.67-9.18-3.03-19.09,2.21-22.14,11.7-3.05,9.49,1.92,19.65,11.1,22.68Z"/>
            <path class="cls-1" d="m146.12,296.62c8,2.64,16.62-1.92,19.27-10.19,2.65-8.26-1.67-17.1-9.67-19.74-8-2.64-16.62,1.92-19.27,10.19-2.65,8.27,1.67,17.11,9.66,19.75Z"/>
            <path class="cls-1" d="m187.68,307.63c6.68,2.21,13.9-1.6,16.12-8.51,2.22-6.91-1.4-14.3-8.08-16.51-6.68-2.21-13.89,1.61-16.11,8.52-2.22,6.91,1.4,14.3,8.08,16.5Z"/>
            <path class="cls-1" d="m229.28,318.52c5.3,1.75,11.04-1.28,12.8-6.77,1.76-5.49-1.11-11.36-6.42-13.11-5.31-1.75-11.04,1.27-12.8,6.76-1.76,5.49,1.11,11.36,6.42,13.11Z"/>
            <ellipse class="cls-1" cx="-5.3" cy="276.7" rx="14.74" ry="14.28" transform="translate(-276.5 221.51) rotate(-79.59)"/>
            <path class="cls-1" d="m30.89,304.43c7.62,2.52,15.84-1.83,18.37-9.71,2.53-7.88-1.6-16.31-9.22-18.82-7.62-2.52-15.84,1.84-18.37,9.71-2.53,7.88,1.59,16.3,9.21,18.82Z"/>
            <path class="cls-1" d="m71.81,317.42c7.37,2.43,15.32-1.77,17.77-9.39,2.45-7.62-1.54-15.77-8.91-18.2-7.37-2.43-15.33,1.77-17.78,9.39-2.45,7.62,1.55,15.77,8.92,18.2Z"/>
            <path class="cls-1" d="m112.92,329.83c6.8,2.25,14.16-1.63,16.41-8.67,2.26-7.04-1.43-14.57-8.23-16.82-6.8-2.25-14.16,1.64-16.42,8.68-2.26,7.04,1.43,14.56,8.23,16.81Z"/>
            <path class="cls-1" d="m154.17,341.78c5.99,1.98,12.47-1.44,14.46-7.64,1.99-6.2-1.26-12.83-7.25-14.81-5.99-1.98-12.47,1.44-14.46,7.64-1.99,6.2,1.26,12.83,7.25,14.81Z"/>
            <path class="cls-1" d="m195.54,353.37c5,1.65,10.39-1.2,12.05-6.36,1.66-5.17-1.05-10.69-6.05-12.34-4.99-1.65-10.39,1.2-12.04,6.37-1.66,5.16,1.05,10.69,6.04,12.34Z"/>
          </g>
        </g>
      </g>
    </g>
  </g>
</svg>