<?xml version="1.0" encoding="utf-8"?>
<!-- Generator: Adobe Illustrator 27.2.0, SVG Export Plug-In . SVG Version: 6.00 Build 0)  -->
<svg version="1.1" id="Capa_3" xmlns="http://www.w3.org/2000/svg" xmlns:xlink="http://www.w3.org/1999/xlink" x="0px" y="0px"
	 viewBox="0 0 315 118.4" style="enable-background:new 0 0 315 118.4;" xml:space="preserve">
<style type="text/css">
	.st0{fill:url(#SVGID_1_);}
	.st1{fill:url(#SVGID_00000103952798577105574760000015157628191880899489_);}
	.st2{fill:url(#SVGID_00000112631748456018405960000008457057104357368229_);}
	.st3{fill:url(#SVGID_00000009567749680718407140000016789101216362987707_);}
	.st4{fill:url(#SVGID_00000165219152562325130230000010027374074046287295_);}
	.st5{fill:url(#SVGID_00000182527414894323913540000013706720484061045422_);}
	.st6{fill:#FFFFFF;}
	.svg-shadow{
        animation: svg-shadow 1.5s ease-in-out infinite alternate;
      }

      @keyframes svg-shadow {
        from {
          filter: drop-shadow( 0 0 5px #fff) drop-shadow( 0 0 5px #FF2089) drop-shadow( 0 0 5px #FF2089);
        }

        to {
          
          filter: drop-shadow( 0 0 8px #fff) drop-shadow( 0 0 8px #FF2089) drop-shadow( 0 0 8px #FF2089);
        }
      }
</style>
<g class="svg-shadow">
	
		<linearGradient id="SVGID_1_" gradientUnits="userSpaceOnUse" x1="2678.374" y1="1047.4629" x2="2715.0833" y2="1047.4629" gradientTransform="matrix(0.8801 0.4748 -0.4748 0.8801 -1756.8741 -2140.2668)">
		<stop  offset="0" style="stop-color:#FF2089"/>
		<stop  offset="1" style="stop-color:#FF6158"/>
	</linearGradient>
	<path class="st0" d="M117.1,27.1c1.1,23.7,2.8,54.3,4,69.8l4.5-55.6L117.1,27.1z"/>
	
		<linearGradient id="SVGID_00000170262403419083778850000000603557226761044408_" gradientUnits="userSpaceOnUse" x1="2688.0815" y1="999.132" x2="2752.1882" y2="999.132" gradientTransform="matrix(0.8801 0.4748 -0.4748 0.8801 -1756.8741 -2140.2668)">
		<stop  offset="0" style="stop-color:#FF2089"/>
		<stop  offset="1" style="stop-color:#FF6158"/>
	</linearGradient>
	<polygon style="fill:url(#SVGID_00000170262403419083778850000000603557226761044408_);" points="181.4,46.9 190.1,47.3 
		178.9,33.2 151.6,18.4 133.7,16.8 139.1,24.2 	"/>
	
		<linearGradient id="SVGID_00000025432236137015234370000015627480287104738493_" gradientUnits="userSpaceOnUse" x1="2676.7249" y1="1012.7905" x2="2694.907" y2="1012.7905" gradientTransform="matrix(0.8801 0.4748 -0.4748 0.8801 -1756.8741 -2140.2668)">
		<stop  offset="0" style="stop-color:#FF54B4"/>
		<stop  offset="1" style="stop-color:#FF0000"/>
	</linearGradient>
	<polygon style="fill:url(#SVGID_00000025432236137015234370000015627480287104738493_);" points="137,25.1 130.9,16.9 117.4,23.2 
		126.8,39 	"/>
	
		<linearGradient id="SVGID_00000149343939660529234290000005167701978779172780_" gradientUnits="userSpaceOnUse" x1="658.1451" y1="548.8854" x2="661.663" y2="496.9138" gradientTransform="matrix(0.9952 9.779987e-02 -9.779987e-02 0.9952 -456.0143 -514.9845)">
		<stop  offset="0.1453" style="stop-color:#FF80CA"/>
		<stop  offset="1" style="stop-color:#FF0000"/>
	</linearGradient>
	<path style="fill:url(#SVGID_00000149343939660529234290000005167701978779172780_);" d="M179.7,48.6l-40.9-22l-10.9,14.9
		l-5.1,63.5l49.8-39.3L179.7,48.6z M166.9,63.2c-4.3,2.4-9.8,0.8-12.1-3.6c-0.5-0.9-0.8-1.8-0.9-2.7l-10.7,0.5
		c-0.5,1.5-1.6,2.8-3.1,3.6c-1,0.6-2.1,0.8-3.2,0.8l2.2,7.4c1.9-0.1,3.7,0.9,4.7,2.6c1.3,2.5,0.4,5.5-2,6.9c-2.5,1.3-5.5,0.4-6.9-2
		c-1.3-2.4-0.5-5.4,1.9-6.8l-2.5-8.6c-1.3-0.6-2.5-1.6-3.2-2.9c-1.7-3.2-0.6-7.2,2.6-9c3.2-1.7,7.2-0.6,9,2.6c0.5,1,0.8,2,0.8,3
		l10.2-0.5c0.2-2.9,1.9-5.6,4.6-7.1c4.3-2.4,9.8-0.8,12.1,3.6C172.9,55.4,171.3,60.9,166.9,63.2z"/>
	
		<linearGradient id="SVGID_00000078752344666848179000000010526717837059636404_" gradientUnits="userSpaceOnUse" x1="2727.24" y1="1045.6028" x2="2761.6672" y2="1045.6028" gradientTransform="matrix(0.8801 0.4748 -0.4748 0.8801 -1756.8741 -2140.2668)">
		<stop  offset="0" style="stop-color:#FF2089"/>
		<stop  offset="1" style="stop-color:#FF6158"/>
	</linearGradient>
	<path style="fill:url(#SVGID_00000078752344666848179000000010526717837059636404_);" d="M133.7,99.2c14.9-8.5,39.5-22.5,56.5-32.3
		L174,67.5L133.7,99.2z"/>
	
		<linearGradient id="SVGID_00000150810318213428748590000000940859051576041888_" gradientUnits="userSpaceOnUse" x1="2745.8633" y1="1012.8513" x2="2763.3936" y2="1012.8513" gradientTransform="matrix(0.8801 0.4748 -0.4748 0.8801 -1756.8741 -2140.2668)">
		<stop  offset="0" style="stop-color:#FF54B4"/>
		<stop  offset="1" style="stop-color:#FF0000"/>
	</linearGradient>
	<polygon style="fill:url(#SVGID_00000150810318213428748590000000940859051576041888_);" points="181.9,49.2 175.3,65.1 
		193.5,64.6 191.5,49.7 	"/>
	<path d="M180.4,31.4l-28.1-15.2l-21.2-1.9l-16.5,7.7l0,0.8c0,0.2,1,21.2,2.1,42c1.9,33.9,2.8,41.2,3.5,43l-0.2,2.2l2-1.6
		c3.8-2,70.4-40.1,73.3-41.8l0.7-0.4l-2.4-18.1L180.4,31.4z M151.6,18.4l27.3,14.8l11.1,14.1l-8.6-0.4l-42.3-22.7l-5.4-7.4
		L151.6,18.4z M130.9,16.9l6,8.3L126.8,39l-9.5-15.9L130.9,16.9z M117.1,27.1l8.5,14.2L121.1,97C119.8,81.5,118.2,50.9,117.1,27.1z
		 M122.8,104.9l5.1-63.5l10.9-14.9l40.9,22l-7,17.1L122.8,104.9z M133.7,99.2L174,67.5l16.3-0.5C173.2,76.7,148.6,90.8,133.7,99.2z
		 M175.3,65.1l6.6-15.9l9.6,0.5l2,14.9L175.3,65.1z"/>
	<path class="st6" d="M170.5,51.1c-2.4-4.3-7.8-5.9-12.1-3.6c-2.7,1.5-4.4,4.2-4.6,7.1l-10.2,0.5c0-1-0.3-2.1-0.8-3
		c-1.7-3.2-5.8-4.4-9-2.6c-3.2,1.7-4.4,5.8-2.6,9c0.7,1.4,1.9,2.3,3.2,2.9l2.5,8.6c-2.4,1.4-3.3,4.4-1.9,6.8c1.3,2.5,4.4,3.4,6.9,2
		c2.5-1.3,3.4-4.4,2-6.9c-1-1.8-2.8-2.7-4.7-2.6l-2.2-7.4c1.1,0,2.2-0.3,3.2-0.8c1.5-0.8,2.5-2.1,3.1-3.6l10.7-0.5
		c0.2,0.9,0.5,1.8,0.9,2.7c2.4,4.3,7.8,5.9,12.1,3.6C171.3,60.9,172.9,55.4,170.5,51.1z"/>
</g>
</svg>
