<?xml version="1.0" encoding="utf-8"?>
<!-- Generator: Adobe Illustrator 27.2.0, SVG Export Plug-In . SVG Version: 6.00 Build 0)  -->
<svg version="1.1" id="Capa_1" xmlns="http://www.w3.org/2000/svg" xmlns:xlink="http://www.w3.org/1999/xlink" x="0px" y="0px"
	 viewBox="0 0 315 118.4" style="enable-background:new 0 0 315 118.4;" xml:space="preserve">
<style type="text/css">
	.st0{fill:url(#SVGID_1_);stroke:#FFFFFF;stroke-width:2;stroke-miterlimit:10;}
	.st1{enable-background:new    ;}
	.st2{fill:#FFFFFF;}
	.st3{fill:url(#SVGID_00000079445985451544301780000005497788123030258328_);}
</style>
<g>
	<g id="Juego">
		<g>
			<g>
				
					<linearGradient id="SVGID_1_" gradientUnits="userSpaceOnUse" x1="5044.0498" y1="14462.8994" x2="5550.7202" y2="14462.8994" gradientTransform="matrix(1 0 0 1 -5166.25 -14388.5996)">
					<stop  offset="0" style="stop-color:#F6F6F6"/>
					<stop  offset="0.16" style="stop-color:#D9D9D9"/>
					<stop  offset="0.41" style="stop-color:#B5B5B5"/>
					<stop  offset="0.63" style="stop-color:#9C9C9C"/>
					<stop  offset="0.84" style="stop-color:#8C8C8C"/>
					<stop  offset="1" style="stop-color:#878787"/>
				</linearGradient>
				<path class="st0" d="M277.9,115.7l-240.7,1.7c-9.2,0-17.4-5.9-20.3-14.6L2.2,59.5c-4.7-13.9,5.6-28.3,20.3-28.3h270
					c14.7,0,25,14.4,20.3,28.3l-14.6,43.3C295.2,111.5,287,115.7,277.9,115.7L277.9,115.7z"/>
				<g class="st1">
					<path class="st2" d="M154.2,91.2h-5.4l1-12.3c0.3-4.7,0.8-8.7,1.3-12.1l-8.2,21.2h-5.3L134.9,67c-0.2,3.3-0.8,7.5-1.8,12.3
						l-2.3,11.9h-5.4l6.4-29.1h6.8l2.4,20.6l7.6-20.6h7.4L154.2,91.2z"/>
					<path class="st2" d="M167.8,69l-3.1,22.3h-5.3l3.1-22.3H167.8z M163.8,63.4c-0.6-0.5-0.8-1.2-0.8-2.1c0-1,0.4-1.9,1.1-2.6
						s1.6-1,2.6-1c0.9,0,1.6,0.3,2.2,0.8c0.6,0.5,0.8,1.3,0.8,2.1c0,1-0.4,1.9-1.1,2.5c-0.7,0.7-1.6,1-2.6,1
						C165.1,64.2,164.3,63.9,163.8,63.4z"/>
					<path class="st2" d="M188.5,71.1l-2.4,3c-1.7-1.2-3.5-1.8-5.4-1.8c-1.2,0-2,0.2-2.7,0.6c-0.6,0.4-0.9,1-0.9,1.7
						c0,0.7,0.3,1.2,0.9,1.6c0.6,0.4,1.8,0.9,3.5,1.4c2.1,0.6,3.6,1.5,4.6,2.5c1,1.1,1.5,2.4,1.5,4.2c0,1.5-0.4,2.8-1.2,3.9
						c-0.8,1.1-1.9,2-3.4,2.6c-1.5,0.6-3.2,0.9-5.1,0.9c-1.9,0-3.5-0.3-5-1c-1.5-0.6-2.7-1.5-3.7-2.5l2.8-2.9
						c1.8,1.5,3.8,2.3,6.1,2.3c1.4,0,2.5-0.3,3.1-0.9c0.7-0.6,1-1.2,1-2c0-0.6-0.1-1.1-0.4-1.5c-0.3-0.4-0.7-0.7-1.3-1
						s-1.6-0.7-2.8-1.1c-2.1-0.6-3.5-1.5-4.4-2.5c-0.9-1-1.4-2.3-1.4-3.9c0-1.2,0.3-2.3,1-3.3c0.7-1,1.7-1.9,3.1-2.5
						c1.3-0.6,3-0.9,4.9-0.9C183.7,68.3,186.3,69.3,188.5,71.1z"/>
					<path class="st2" d="M199.2,69l-3.1,22.3h-5.3l3.1-22.3H199.2z M195.2,63.4c-0.6-0.5-0.8-1.2-0.8-2.1c0-1,0.4-1.9,1.1-2.6
						s1.6-1,2.6-1c0.9,0,1.6,0.3,2.2,0.8c0.6,0.5,0.8,1.3,0.8,2.1c0,1-0.4,1.9-1.1,2.5c-0.7,0.7-1.6,1-2.6,1
						C196.5,64.2,195.8,63.9,195.2,63.4z"/>
					<path class="st2" d="M204.8,89.4c-1.6-1.7-2.3-4-2.3-6.9c0-2.2,0.4-4.4,1.2-6.5c0.8-2.2,2.1-4,3.9-5.4c1.8-1.5,4.1-2.2,6.9-2.2
						c2.9,0,5.1,0.8,6.6,2.5c1.6,1.7,2.3,4,2.3,6.8c0,2.2-0.4,4.4-1.2,6.5c-0.8,2.2-2.1,4-3.9,5.5c-1.8,1.5-4.1,2.2-7,2.2
						C208.6,91.9,206.4,91.1,204.8,89.4z M215.5,86c0.9-1.2,1.6-2.6,1.9-4.2c0.4-1.6,0.5-3.2,0.5-4.8c0-3.1-1.3-4.7-3.8-4.7
						c-1.5,0-2.8,0.6-3.7,1.7c-0.9,1.1-1.6,2.5-2,4.1c-0.4,1.6-0.6,3.2-0.6,4.7c0,3.3,1.3,4.9,3.8,4.9
						C213.3,87.8,214.6,87.2,215.5,86z M219.4,56.7l1.7,4.2l-9.8,3.8L210,62L219.4,56.7z"/>
					<path class="st2" d="M245.7,69.8c0.9,1,1.4,2.3,1.4,4c0,0.5,0,1-0.1,1.5l-2.2,15.9h-5.3l2.1-15.1c0.1-0.5,0.1-0.9,0.1-1.1
						c0-0.8-0.2-1.4-0.5-1.8s-0.8-0.5-1.4-0.5c-1.9,0-3.9,1.9-5.9,5.7l-1.8,12.8h-5.3l3.1-22.3h4.6l-0.2,4.1
						c2.2-3.2,4.7-4.8,7.7-4.8C243.6,68.3,244.8,68.8,245.7,69.8z"/>
					<path class="st2" d="M281.2,80.6l-0.6,4.1h-3.3l-0.9,6.5h-5.2l0.9-6.5h-11.9l0.5-3.7l10.6-18.7l4.5,1.7l-9.2,16.6h6.2l1.6-7.1
						h4.6l-1,7.1H281.2z"/>
				</g>
			</g>
			<g>
				<path class="st2" d="M73.7,1.6L98.4,13c1.8,0.8,3.3,2,4.6,3.4l10.2,11.3c1.7,1.9,2.8,4.1,3.3,6.6l3.1,14.7l-0.7,0.5
					c-0.2,0.1-18.1,12.3-36,24.3c-29,19.3-35.7,23.1-37.6,23.7L43.6,99l0.1-2.6C42.9,92,33,13.4,32.6,10l-0.1-0.8l13.1-7.3
					c2.2-1.2,4.7-1.9,7.3-1.8l15.2,0.3C70,0.4,71.9,0.8,73.7,1.6L73.7,1.6z"/>
				<g>
					
						<radialGradient id="SVGID_00000146483664678964660060000000147641396078955191_" cx="-53.259" cy="1309.1858" r="37.89" gradientTransform="matrix(0.9959 8.993730e-02 -8.993730e-02 0.9959 233.5816 -1227.1621)" gradientUnits="userSpaceOnUse">
						<stop  offset="0" style="stop-color:#FFFFFF"/>
						<stop  offset="5.000000e-02" style="stop-color:#FAC6FC"/>
						<stop  offset="9.000000e-02" style="stop-color:#F692F9"/>
						<stop  offset="0.14" style="stop-color:#F265F7"/>
						<stop  offset="0.18" style="stop-color:#EF40F6"/>
						<stop  offset="0.23" style="stop-color:#ED24F4"/>
						<stop  offset="0.27" style="stop-color:#EB10F3"/>
						<stop  offset="0.32" style="stop-color:#EA04F3"/>
						<stop  offset="0.36" style="stop-color:#EA00F3"/>
						<stop  offset="0.64" style="stop-color:#E700F0"/>
						<stop  offset="0.85" style="stop-color:#B400EC"/>
						<stop  offset="1" style="stop-color:#9100EA"/>
					</radialGradient>
					<path style="fill:url(#SVGID_00000146483664678964660060000000147641396078955191_);" d="M64.5,55.2c-0.5-0.1-0.8-0.2-0.9-0.4
						s-0.2-0.5-0.2-0.8c0-1.9,0.2-3.5,0.5-4.8s0.8-2.4,1.3-3.4c0.6-0.9,1.3-1.8,2.3-2.7c0.8-0.7,1.6-1.4,2.5-2
						c0.8-0.6,1.9-1.3,3.2-2.1c1.7-1,3-2,3.9-2.7s1.7-1.6,2.4-2.6s1-2.2,1-3.5c0-1.5-0.4-2.9-1.2-4.1c-0.8-1.2-2-2.1-3.4-2.8
						s-3.2-1-5.1-1c-1.6,0-3.1,0.2-4.6,0.6c-1.5,0.5-2.8,1.1-3.9,2c-1.1,0.9-2,2-2.6,3.2c-0.1,0.3-0.2,0.5-0.4,0.6s-0.4,0.2-0.7,0.2
						c-0.6,0-1.2-0.1-1.9-0.4c-0.7-0.2-1.3-0.5-1.8-0.9s-0.7-0.7-0.7-0.9c0-0.3,0-0.6,0.2-0.9s0.3-0.7,0.5-1.1
						c0-0.1,0.1-0.1,0.1-0.2s0.1-0.1,0.1-0.2c0.7-1.3,1.7-2.5,3.2-3.6c1.5-1.2,3.2-2.1,5.4-2.9c2.1-0.7,4.5-1.1,7.2-1.1
						c2.9,0,5.6,0.6,8.1,1.7s4.4,2.6,5.8,4.6s2.1,4.3,2.1,6.9c0,2.2-0.5,4.1-1.3,5.6s-1.9,2.8-3.1,3.8s-2.8,2.1-4.8,3.3
						c-1.1,0.7-2,1.3-2.8,1.8s-1.5,1.1-2.1,1.7l-0.3,0.2c-0.8,0.6-1.4,1.3-1.9,2s-0.8,1.5-1,2.4s-0.4,1.9-0.4,3.2
						c0,0.3-0.1,0.6-0.2,0.8s-0.4,0.3-0.7,0.4s-0.8,0.1-1.3,0.1C65.7,55.4,65,55.3,64.5,55.2L64.5,55.2z M63.6,69.2
						c-0.7-0.4-1.3-1-1.7-1.7s-0.6-1.4-0.6-2.2c0-0.7,0.2-1.3,0.7-2c0.5-0.7,1-1.2,1.8-1.7c0.7-0.4,1.4-0.7,2.2-0.7s1.5,0.2,2.2,0.7
						s1.3,1,1.7,1.7c0.4,0.7,0.6,1.4,0.6,2.1s-0.2,1.4-0.7,2.2c-0.4,0.7-1,1.2-1.8,1.7s-1.5,0.6-2.3,0.6S64.3,69.6,63.6,69.2
						L63.6,69.2z"/>
				</g>
			</g>
		</g>
	</g>
</g>
</svg>
