<?xml version="1.0" encoding="UTF-8"?>
<svg id="Capa_3" data-name="Capa 3" xmlns="http://www.w3.org/2000/svg" xmlns:xlink="http://www.w3.org/1999/xlink" viewBox="0 0 314.98 118.41">
  <defs>
    <linearGradient id="Degradado_sin_nombre_106" data-name="Degradado sin nombre 106" x1="5044.15" y1="13502.89" x2="5550.82" y2="13502.89" gradientTransform="translate(-5166.25 -13428.6)" gradientUnits="userSpaceOnUse">
      <stop offset="0" stop-color="#35c8fe"/>
      <stop offset=".19" stop-color="#36c4fd"/>
      <stop offset=".34" stop-color="#3abafc"/>
      <stop offset=".49" stop-color="#42a9fa"/>
      <stop offset=".62" stop-color="#4d90f7"/>
      <stop offset=".76" stop-color="#5b71f3"/>
      <stop offset=".88" stop-color="#6c4bef"/>
      <stop offset="1" stop-color="#7f21ea"/>
    </linearGradient>
    <linearGradient id="linear-gradient" x1="-660.18" y1="-2119.48" x2="-663.21" y2="-2134.4" gradientTransform="translate(-1060.65 1909.53) rotate(50.05)" gradientUnits="userSpaceOnUse">
      <stop offset="0" stop-color="#ff5f98"/>
      <stop offset="1" stop-color="#ff2be0"/>
    </linearGradient>
    <linearGradient id="linear-gradient-2" x1="-638.14" y1="-2117.05" x2="-625.12" y2="-2151.92" xlink:href="#linear-gradient"/>
    <linearGradient id="Degradado_sin_nombre_57" data-name="Degradado sin nombre 57" x1="-678.92" y1="-2113.7" x2="-691.17" y2="-2127.96" gradientTransform="translate(-1060.65 1909.53) rotate(50.05)" gradientUnits="userSpaceOnUse">
      <stop offset="0" stop-color="#ff5f98"/>
      <stop offset="1" stop-color="#ff2be0"/>
    </linearGradient>
    <filter id="outer-glow-11" filterUnits="userSpaceOnUse">
      <feOffset dx="0" dy="0"/>
      <feGaussianBlur result="blur" stdDeviation="5.67"/>
      <feFlood flood-color="#ff1c77" flood-opacity="1"/>
      <feComposite in2="blur" operator="in"/>
      <feComposite in="SourceGraphic"/>
    </filter>
    <linearGradient id="linear-gradient-3" x1="-449.83" y1="-651.87" x2="-410.83" y2="-651.87" gradientTransform="translate(181.08 830.86) rotate(22.74)" gradientUnits="userSpaceOnUse">
      <stop offset="0" stop-color="#ff208c"/>
      <stop offset="1" stop-color="#ff6158"/>
    </linearGradient>
    <linearGradient id="linear-gradient-4" x1="-439.52" y1="-703.21" x2="-371.42" y2="-703.21" xlink:href="#linear-gradient-3"/>
    <linearGradient id="linear-gradient-5" x1="-451.58" y1="-688.7" x2="-432.27" y2="-688.7" gradientTransform="translate(181.08 830.86) rotate(22.74)" gradientUnits="userSpaceOnUse">
      <stop offset="0" stop-color="#ff54b7"/>
      <stop offset="1" stop-color="red"/>
    </linearGradient>
    <linearGradient id="Degradado_sin_nombre_88" data-name="Degradado sin nombre 88" x1="-405.72" y1="-671.99" x2="-408.94" y2="-618.05" gradientTransform="translate(181.08 830.86) rotate(22.74)" gradientUnits="userSpaceOnUse">
      <stop offset=".15" stop-color="#ff83cd"/>
      <stop offset="1" stop-color="red"/>
    </linearGradient>
    <linearGradient id="linear-gradient-6" x1="-397.92" y1="-653.84" x2="-361.35" y2="-653.84" xlink:href="#linear-gradient-3"/>
    <linearGradient id="linear-gradient-7" x1="-378.14" y1="-688.64" x2="-359.51" y2="-688.64" xlink:href="#linear-gradient-5"/>
    <filter id="outer-glow-12" filterUnits="userSpaceOnUse">
      <feOffset dx="0" dy="0"/>
      <feGaussianBlur result="blur-2" stdDeviation="5.67"/>
      <feFlood flood-color="#ff1c77" flood-opacity="1"/>
      <feComposite in2="blur-2" operator="in"/>
      <feComposite in="SourceGraphic"/>
    </filter>
    <linearGradient id="linear-gradient-8" x1="-439.52" y1="-703.21" x2="-371.42" y2="-703.21" xlink:href="#linear-gradient-3"/>
    <linearGradient id="Degradado_sin_nombre_88-2" data-name="Degradado sin nombre 88" x1="-558.53" y1="-821.05" x2="-554.84" y2="-875.54" gradientTransform="translate(190.52 1074.95) rotate(25.77)" xlink:href="#Degradado_sin_nombre_88"/>
    <linearGradient id="linear-gradient-9" x1="-397.92" y1="-653.84" x2="-361.35" y2="-653.84" xlink:href="#linear-gradient-3"/>
    <linearGradient id="linear-gradient-10" x1="-378.14" y1="-688.64" x2="-359.51" y2="-688.64" xlink:href="#linear-gradient-5"/>
  </defs>
  <path d="m277.94,115.74l-240.72,1.67c-9.2,0-17.38-5.87-20.33-14.59L2.25,59.52c-4.71-13.92,5.64-28.34,20.33-28.34h270.01c14.69,0,25.04,14.43,20.33,28.34l-14.65,43.3c-2.95,8.72-11.13,12.92-20.33,12.92Z" style="fill: url(#Degradado_sin_nombre_106); stroke: #fff; stroke-miterlimit: 10; stroke-width: 2px;"/>
  <g>
    <path d="m201,65.84c-.87-.54-1.53-1.31-1.99-2.32-.46-1.01-.69-2.22-.69-3.61,0-2.11.44-4.18,1.33-6.22.89-2.03,2.15-3.7,3.8-5.01,1.65-1.31,3.56-1.96,5.74-1.96,1.28,0,2.37.25,3.29.75.92.5,1.59,1.16,2.03,1.98s.61,1.69.52,2.62c0,.16-.07.28-.17.37-.1.09-.26.16-.48.22-.21.06-.46.11-.75.14-.28.03-.6.05-.95.05-.16,0-.28-.02-.37-.06-.09-.04-.15-.09-.2-.17-.05-.08-.07-.18-.08-.32,0-.55-.11-1.05-.33-1.51-.23-.45-.58-.82-1.05-1.09-.47-.28-1.07-.41-1.79-.41-1.49,0-2.79.57-3.9,1.7s-1.96,2.53-2.54,4.2c-.58,1.66-.87,3.25-.87,4.77,0,.85.12,1.58.37,2.19.25.61.63,1.09,1.14,1.42.51.33,1.16.5,1.95.5s1.56-.27,2.41-.82,1.6-1.27,2.25-2.16c.65-.89,1.08-1.8,1.29-2.74.04-.24.08-.51.15-.81.04-.26.08-.5.11-.72l2.63.66-2.01,8.33c-.03.14-.1.25-.2.34-.1.09-.25.15-.42.2s-.4.07-.67.07c-.51,0-.88-.02-1.1-.05-.22-.04-.36-.1-.42-.18-.06-.08-.07-.21-.04-.39l1-4.17,1.28-1.1c-.46,1.4-1.09,2.56-1.89,3.48-.8.92-1.67,1.59-2.59,2.01-.92.42-1.83.64-2.71.64-1.18,0-2.2-.27-3.07-.8Zm5.99-7.73c-.11-.05-.18-.13-.21-.25-.03-.12-.02-.28.02-.51.08-.42.16-.74.25-.96s.2-.37.32-.46c.13-.09.3-.14.52-.15.45-.01.89-.03,1.34-.04.45,0,.92-.02,1.42-.04.91-.03,1.82-.06,2.73-.1s1.59-.07,2.04-.1c.16,0,.29,0,.39.05s.17.12.2.23c.04.11.04.26,0,.46-.08.46-.17.81-.27,1.05-.1.24-.21.4-.31.48-.11.08-.25.13-.42.14-.62.04-1.38.07-2.28.1-.89.03-1.76.06-2.61.08-.51,0-.96.02-1.35.03-.38,0-.81.02-1.28.02-.24.01-.42,0-.52-.05Z" style="fill: #fff;"/>
    <path d="m219.2,66.03c-.71-.43-1.24-1-1.59-1.73-.35-.72-.53-1.54-.53-2.43,0-1.59.34-3.11,1.03-4.55.69-1.44,1.66-2.6,2.9-3.49s2.66-1.33,4.26-1.33c.83,0,1.55.14,2.15.42.6.28,1.07.67,1.38,1.16.32.49.48,1.05.48,1.69,0,1.33-.55,2.46-1.64,3.4s-2.6,1.64-4.52,2.13c-1.92.49-4.19.75-6.82.79-.02,0-.04,0-.06,0-.13-.01-.23-.05-.29-.12-.07-.07-.11-.19-.12-.36-.02-.17,0-.42.04-.75.04-.26.08-.46.13-.6.05-.13.11-.23.19-.28.08-.05.19-.08.34-.08,1.77,0,3.38-.12,4.83-.39,1.45-.26,2.67-.7,3.64-1.29.97-.6,1.46-1.35,1.46-2.27,0-.23-.05-.43-.15-.6s-.26-.3-.46-.39c-.21-.09-.46-.13-.77-.13-.94,0-1.79.36-2.56,1.09-.77.72-1.37,1.64-1.81,2.73-.44,1.1-.66,2.14-.66,3.13,0,.56.07,1.03.22,1.41s.36.67.66.87c.3.2.67.29,1.11.29.37,0,.75-.08,1.13-.23.38-.15.75-.37,1.1-.64.36-.28.69-.61,1-.99.1-.11.19-.19.27-.23.08-.04.16-.05.25-.05.12,0,.29.08.53.22.24.14.46.31.68.5.22.2.37.35.44.46.07.13.09.26.05.39s-.13.28-.28.46c-.47.55-.97,1-1.51,1.36-.54.36-1.14.63-1.78.81-.64.19-1.35.28-2.13.28-1.01,0-1.88-.21-2.58-.64Z" style="fill: #fff;"/>
    <path d="m229.89,66.38c-.23-.04-.38-.12-.45-.22-.08-.11-.09-.26-.04-.46.36-1.26.78-2.82,1.25-4.68.47-1.86.79-3.18.94-3.96.14-.73.25-1.42.31-2.07s.09-1.16.08-1.52v-.05c0-.16.09-.29.26-.39.17-.11.41-.19.73-.24.32-.05.7-.08,1.14-.08.21,0,.39.02.52.05s.23.08.29.15c.06.07.09.16.08.27.02.32.01.66-.02,1.02s-.09.73-.15,1.09c-.01.05-.02.11-.02.16-.06.31-.12.59-.18.85s-.14.51-.22.78c-.08.25-.16.46-.23.65l-.29-.08c.62-.99,1.32-1.87,2.09-2.65.77-.78,1.57-1.39,2.39-1.84s1.61-.67,2.36-.67c.71,0,1.28.19,1.71.57s.7.93.8,1.65c.1.72.02,1.54-.23,2.49l-.25.94-.27-.72c.59-.93,1.25-1.77,1.97-2.52.72-.75,1.46-1.34,2.24-1.77.78-.43,1.53-.64,2.26-.64s1.38.18,1.86.55c.47.37.77.91.89,1.62s.05,1.56-.22,2.56l-1.28,4.8c-.25.97-.42,1.73-.5,2.28s-.14,1.05-.16,1.52c0,.16-.09.28-.24.36-.16.09-.39.15-.7.19-.31.04-.71.06-1.2.06-.23,0-.4-.02-.54-.06-.13-.04-.23-.1-.29-.19s-.09-.21-.09-.36c0-.25.02-.56.06-.95.04-.39.11-.85.21-1.39.1-.54.23-1.13.41-1.76l1.14-4.28c.15-.51.21-.93.19-1.26-.02-.33-.1-.56-.25-.72-.14-.15-.32-.23-.53-.23-.69,0-1.46.38-2.29,1.13-.84.75-1.6,1.68-2.29,2.78s-1.16,2.11-1.4,3.03c-.18.69-.33,1.33-.42,1.91s-.18,1.08-.24,1.49c0,.05,0,.09,0,.12,0,.03,0,.07-.02.12-.02.15-.11.27-.25.36-.15.1-.37.16-.66.2s-.68.06-1.15.06c-.21,0-.38-.02-.51-.05-.13-.04-.23-.1-.3-.18-.07-.08-.11-.21-.1-.38.02-.35.1-.92.24-1.71.14-.79.34-1.68.61-2.68l1.11-4.13c.13-.48.19-.88.18-1.19-.01-.31-.08-.53-.22-.68-.13-.14-.31-.21-.53-.21-.72,0-1.52.4-2.39,1.2-.88.8-1.68,1.8-2.41,3-.73,1.2-1.23,2.34-1.49,3.42-.13.5-.23.91-.3,1.25-.07.34-.15.74-.24,1.22-.04.2-.07.36-.1.48-.04.23-.19.39-.46.49-.27.1-.66.15-1.16.15-.42,0-.74-.02-.97-.06Z" style="fill: #fff;"/>
    <path d="m254.97,66.09c-.62-.39-1.11-.95-1.45-1.69-.34-.73-.51-1.61-.51-2.62,0-1.51.32-2.97.96-4.41.64-1.43,1.53-2.6,2.66-3.5,1.13-.9,2.39-1.35,3.78-1.35.87,0,1.6.2,2.2.61.6.41,1.03.99,1.29,1.73.26.75.35,1.61.26,2.58l-1.01,4.29c-.42,1.01-.9,1.88-1.47,2.61-.56.73-1.22,1.3-1.98,1.71s-1.6.61-2.54.61c-.84,0-1.57-.19-2.2-.58Zm4.77-2.21c.49-.27.93-.64,1.3-1.11s.68-.99.92-1.58l.88-3.66c.09-.55.06-1.02-.09-1.42-.15-.4-.39-.7-.74-.91-.34-.21-.75-.31-1.22-.31-.83,0-1.6.36-2.32,1.07s-1.3,1.61-1.74,2.69c-.44,1.08-.66,2.11-.66,3.09,0,.53.09.99.27,1.37s.42.67.73.87.69.3,1.12.3c.54,0,1.06-.14,1.55-.41Zm2.8,2.54c-.1-.07-.17-.19-.23-.36-.13-.41-.24-.91-.33-1.49-.1-.58-.15-1.18-.15-1.78s.04-1.13.13-1.59l.89-3.74c.15-.66.41-1.43.77-2.32.16-.39.32-.77.48-1.13.16-.36.33-.68.49-.96.06-.12.12-.22.18-.28.06-.06.13-.1.2-.12s.18-.02.3-.02c.27,0,.6.06.97.19s.68.29.91.5c.23.2.29.4.19.6-.18.34-.36.72-.55,1.15-.31.72-.58,1.47-.83,2.24-.12.35-.24.78-.36,1.27s-.27,1.07-.44,1.73c-.05.25-.09.46-.13.61-.04.15-.08.35-.15.59-.09.37-.14.76-.14,1.16s.03.8.09,1.2.15.8.26,1.21c.06.19.08.34.07.45,0,.11-.05.2-.11.29-.06.08-.16.16-.29.23-.27.12-.59.23-.96.32-.37.09-.67.14-.9.14-.16,0-.29-.03-.38-.1Z" style="fill: #fff;"/>
    <path d="m129.23,101.2c-.16-.04-.27-.09-.32-.17-.05-.08-.06-.2-.02-.35.28-1.02.69-2.56,1.21-4.63s.85-3.43.99-4.09c.17-.77.27-1.49.31-2.16s.04-1.19.01-1.56v-.05c0-.12.05-.22.17-.3.12-.08.29-.15.52-.19.23-.05.5-.07.82-.07.15,0,.28.01.37.04.1.03.16.07.21.13s.07.13.07.21c.03.49.02.97-.01,1.45-.03.47-.09.93-.17,1.37-.01.08-.03.14-.05.2-.05.27-.1.52-.16.74s-.12.46-.19.69c-.06.21-.12.4-.18.55l-.21-.06c.63-1.03,1.35-1.96,2.17-2.79.82-.83,1.66-1.49,2.53-1.98.87-.49,1.68-.73,2.43-.73.66,0,1.19.18,1.6.53.41.35.67.85.78,1.5.11.64.05,1.39-.18,2.25l-.38,1.42-.18-.46c.61-.96,1.31-1.84,2.09-2.63s1.58-1.43,2.41-1.9c.82-.47,1.59-.7,2.31-.7s1.25.17,1.68.52.71.83.83,1.46c.12.63.07,1.37-.15,2.22l-1.42,5.18c-.25.97-.4,1.76-.47,2.35s-.1,1.13-.1,1.61c0,.1-.06.19-.18.26-.11.07-.28.12-.5.15-.22.03-.51.05-.85.05-.15,0-.28-.02-.37-.05-.09-.03-.16-.08-.21-.14-.05-.06-.07-.15-.08-.25,0-.28,0-.62.04-1.02.03-.4.09-.87.18-1.41s.21-1.12.38-1.74l1.29-4.82c.15-.55.21-1.01.18-1.37-.03-.36-.14-.63-.31-.8s-.4-.26-.67-.26c-.77,0-1.65.42-2.63,1.26-.98.84-1.88,1.87-2.68,3.07-.81,1.21-1.34,2.3-1.6,3.27-.21.81-.37,1.51-.46,2.1s-.16,1.09-.19,1.49c0,.04,0,.08-.01.1,0,.03,0,.06-.02.1,0,.1-.07.19-.19.26s-.29.12-.51.16c-.22.03-.49.05-.82.05-.16,0-.3-.01-.4-.04-.1-.03-.18-.07-.23-.13-.05-.06-.08-.15-.07-.27.05-.41.14-1,.29-1.79.15-.79.34-1.61.57-2.47l1.28-4.77c.15-.55.21-1,.18-1.36-.03-.36-.13-.62-.3-.79s-.41-.25-.7-.25c-.82,0-1.74.44-2.75,1.31-1.01.87-1.94,1.96-2.77,3.26s-1.4,2.55-1.69,3.73c-.11.46-.2.87-.28,1.25-.08.37-.17.77-.26,1.2-.04.27-.08.48-.11.61-.04.17-.15.3-.35.38s-.47.12-.83.12c-.32,0-.56-.02-.72-.05Z" style="fill: #fff;"/>
    <path d="m154.31,100.85c-.67-.42-1.17-.99-1.49-1.72-.33-.73-.49-1.57-.49-2.51,0-1.5.34-2.95,1.02-4.37s1.63-2.57,2.85-3.47,2.6-1.34,4.15-1.34c.82,0,1.51.14,2.08.41.57.27.99.64,1.26,1.11.28.47.42.99.42,1.56,0,1.15-.5,2.16-1.51,3.04-1,.88-2.34,1.59-4,2.11-1.66.52-3.48.85-5.47.98l.17-1.48c1.4-.11,2.75-.34,4.07-.7,1.31-.36,2.4-.85,3.26-1.49.86-.63,1.3-1.37,1.3-2.22,0-.33-.07-.61-.2-.86-.14-.25-.34-.44-.62-.58s-.63-.21-1.07-.21c-1.12,0-2.1.4-2.94,1.21-.84.81-1.48,1.8-1.93,2.99-.45,1.19-.67,2.32-.67,3.39,0,.62.09,1.16.26,1.62.17.46.44.82.8,1.07s.82.38,1.38.38c.47,0,.93-.1,1.38-.29s.89-.46,1.29-.79c.41-.34.77-.72,1.09-1.16.07-.07.13-.12.19-.16.06-.04.13-.05.21-.05.12,0,.28.06.48.18.2.12.38.25.54.4.16.15.24.28.24.39,0,.08-.02.15-.05.21-.03.07-.09.14-.16.23h0c-.45.55-.95,1.03-1.5,1.44s-1.15.73-1.81.96-1.35.34-2.09.34c-.97,0-1.79-.21-2.46-.62Z" style="fill: #fff;"/>
    <path d="m166.23,89.28c-.08-.04-.12-.11-.13-.22-.01-.1,0-.25.04-.44.05-.25.09-.43.15-.56.05-.12.12-.21.21-.26.09-.05.22-.07.38-.07.52,0,1.12-.01,1.79-.04.67-.03,1.4-.06,2.19-.11.55-.02,1.1-.05,1.64-.07.54-.02.99-.04,1.33-.04.12,0,.21.02.28.05.07.03.12.09.14.16.02.07.02.18,0,.33-.05.3-.11.53-.17.68-.06.15-.14.25-.22.3-.08.05-.18.08-.29.08-.42.02-.81.03-1.17.05-.36.01-.76.03-1.19.05-1.06.05-1.98.1-2.78.13-.79.04-1.41.05-1.84.04-.16,0-.28-.02-.36-.06Zm.75,11.63c-.39-.27-.64-.66-.75-1.18-.12-.52-.11-1.17.03-1.95.04-.18.08-.38.13-.58.04-.2.1-.44.17-.72l.08-.36,1.35-5.38c.15-.57.28-1.06.38-1.47.11-.46.2-.87.27-1.23.11-.55.19-1.07.25-1.56.06-.49.1-.97.13-1.45.03-.29.05-.58.07-.86,0-.1.06-.19.15-.24.09-.06.24-.1.46-.14.22-.03.53-.05.94-.05.19,0,.33.03.42.1.09.06.14.18.13.34,0,.19,0,.47,0,.84-.03.44-.08.93-.14,1.47-.06.53-.15,1.08-.25,1.64-.04.25-.08.47-.13.67-.04.2-.09.4-.13.61-.13.57-.25,1.08-.37,1.53l-1.41,5.56c-.04.15-.09.35-.15.6-.02.14-.04.27-.07.39-.03.12-.06.25-.09.4-.07.41-.09.74-.06.98.03.24.12.42.26.53s.34.17.6.17c.27,0,.52-.03.75-.09.23-.06.48-.13.76-.22.21-.06.35-.09.42-.09.11,0,.2.04.27.12.07.08.12.2.14.37s.03.38,0,.62c0,.12-.03.21-.05.28-.03.07-.07.13-.12.18-.05.05-.12.09-.2.12-.22.09-.47.17-.77.25-.29.08-.61.14-.93.18s-.63.06-.92.06c-.7,0-1.24-.13-1.63-.4Z" style="fill: #fff;"/>
    <path d="m175.84,100.89c-.62-.39-1.08-.93-1.41-1.64-.33-.71-.49-1.52-.49-2.45,0-1.5.32-2.97.97-4.41s1.55-2.63,2.7-3.55,2.43-1.38,3.84-1.38c.89,0,1.63.21,2.23.64s1.01,1.02,1.27,1.78.32,1.62.2,2.59l-.94,3.82c-.41,1.01-.92,1.91-1.52,2.69-.61.78-1.3,1.39-2.1,1.83-.79.44-1.65.66-2.57.66-.84,0-1.57-.19-2.18-.58Zm4.58-1.65c.6-.34,1.14-.79,1.62-1.36.48-.57.86-1.2,1.14-1.89l.84-3.47c.11-.69.08-1.29-.09-1.79s-.46-.89-.87-1.15c-.41-.26-.9-.4-1.48-.4-.94,0-1.83.38-2.67,1.15-.84.77-1.51,1.74-2.02,2.93-.51,1.18-.76,2.36-.76,3.51,0,.59.1,1.11.3,1.55s.49.79.86,1.04c.37.25.81.38,1.32.38.61,0,1.21-.17,1.81-.51Zm3.3,1.98c-.07-.05-.12-.15-.18-.3-.17-.49-.3-1.02-.4-1.6s-.14-1.16-.15-1.75c0-.58.06-1.11.17-1.58l.85-3.6c.18-.75.46-1.56.82-2.44.15-.38.31-.74.48-1.09.17-.35.34-.68.51-.99.05-.08.09-.15.13-.2.04-.05.09-.08.15-.09.05,0,.12-.01.2-.01.22,0,.46.05.73.15.27.1.47.22.63.37.15.15.19.29.11.44-.22.41-.42.84-.61,1.3-.34.79-.66,1.64-.95,2.56-.11.35-.22.75-.33,1.18-.11.43-.23.91-.36,1.45-.05.24-.1.46-.14.65-.04.19-.09.41-.15.66-.09.42-.14.84-.15,1.28s.03.87.11,1.31c.08.44.18.88.32,1.32.05.16.07.28.07.36s-.02.16-.07.22c-.05.06-.12.11-.21.16-.18.1-.41.18-.68.25s-.49.1-.65.1c-.12,0-.22-.02-.29-.07Z" style="fill: #fff;"/>
    <path d="m188.85,101.2c-.16-.04-.27-.09-.32-.17-.05-.08-.06-.2-.02-.35.28-1.02.69-2.56,1.21-4.63s.85-3.43.99-4.09c.17-.77.27-1.49.31-2.16s.04-1.19.01-1.56v-.05c0-.12.05-.22.17-.3.12-.08.29-.15.52-.19.23-.05.5-.07.82-.07.15,0,.28.01.37.04.1.03.16.07.21.13s.07.13.07.21c.03.49.02.97-.01,1.45-.03.47-.09.93-.17,1.37-.01.08-.03.14-.05.2-.05.27-.1.52-.16.74s-.12.46-.19.69c-.06.21-.12.4-.18.55l-.21-.06c.63-1.03,1.35-1.96,2.17-2.79.82-.83,1.66-1.49,2.53-1.98.87-.49,1.68-.73,2.43-.73.66,0,1.19.18,1.6.53.41.35.67.85.78,1.5.11.64.05,1.39-.18,2.25l-.38,1.42-.18-.46c.61-.96,1.31-1.84,2.09-2.63s1.58-1.43,2.41-1.9c.82-.47,1.59-.7,2.31-.7s1.25.17,1.68.52.71.83.83,1.46c.12.63.07,1.37-.15,2.22l-1.42,5.18c-.25.97-.4,1.76-.47,2.35s-.1,1.13-.1,1.61c0,.1-.06.19-.18.26-.11.07-.28.12-.5.15-.22.03-.51.05-.85.05-.15,0-.28-.02-.37-.05-.09-.03-.16-.08-.21-.14-.05-.06-.07-.15-.08-.25,0-.28,0-.62.04-1.02.03-.4.09-.87.18-1.41s.21-1.12.38-1.74l1.29-4.82c.15-.55.21-1.01.18-1.37-.03-.36-.14-.63-.31-.8s-.4-.26-.67-.26c-.77,0-1.65.42-2.63,1.26-.98.84-1.88,1.87-2.68,3.07-.81,1.21-1.34,2.3-1.6,3.27-.21.81-.37,1.51-.46,2.1s-.16,1.09-.19,1.49c0,.04,0,.08-.01.1,0,.03,0,.06-.02.1,0,.1-.07.19-.19.26s-.29.12-.51.16c-.22.03-.49.05-.82.05-.16,0-.3-.01-.4-.04-.1-.03-.18-.07-.23-.13-.05-.06-.08-.15-.07-.27.05-.41.14-1,.29-1.79.15-.79.34-1.61.57-2.47l1.28-4.77c.15-.55.21-1,.18-1.36-.03-.36-.13-.62-.3-.79s-.41-.25-.7-.25c-.82,0-1.74.44-2.75,1.31-1.01.87-1.94,1.96-2.77,3.26s-1.4,2.55-1.69,3.73c-.11.46-.2.87-.28,1.25-.08.37-.17.77-.26,1.2-.04.27-.08.48-.11.61-.04.17-.15.3-.35.38s-.47.12-.83.12c-.32,0-.56-.02-.72-.05Z" style="fill: #fff;"/>
    <path d="m214.05,100.78c-.7-.46-1.22-1.09-1.56-1.88-.34-.79-.51-1.67-.51-2.63,0-1.32.29-2.67.88-4.03.59-1.37,1.45-2.5,2.58-3.41,1.13-.9,2.45-1.36,3.97-1.36,1.04,0,1.9.23,2.61.69.7.46,1.22,1.09,1.57,1.87.34.79.51,1.66.51,2.62,0,1.33-.29,2.68-.88,4.04-.59,1.36-1.45,2.5-2.58,3.41-1.13.91-2.45,1.36-3.97,1.36-1.04,0-1.9-.23-2.6-.7Zm5.45-2.22c.76-.78,1.36-1.74,1.78-2.86.42-1.12.63-2.15.63-3.07,0-.65-.1-1.23-.3-1.75-.2-.52-.51-.93-.92-1.23-.41-.3-.93-.46-1.55-.46-.97,0-1.83.39-2.59,1.18-.76.78-1.35,1.73-1.77,2.85s-.63,2.15-.63,3.08c0,.65.1,1.23.3,1.75.2.51.5.92.91,1.23.41.3.93.46,1.55.46.97,0,1.83-.39,2.6-1.18Z" style="fill: #fff;"/>
    <path d="m225.69,101.18c-.16-.03-.27-.09-.32-.17s-.05-.2-.01-.35c.07-.25.13-.49.2-.72s.14-.51.22-.81c.47-1.78.87-3.3,1.19-4.56.32-1.26.53-2.13.62-2.62.13-.68.22-1.33.27-1.95.05-.63.06-1.25.03-1.85,0-.11.06-.21.16-.28s.27-.13.51-.17.56-.06.97-.07c.18,0,.32.02.4.07.08.05.13.14.13.26.03.55.02,1.09-.02,1.62-.04.53-.11,1.06-.21,1.6-.03.24-.07.47-.12.71s-.09.47-.13.72c-.08.32-.16.62-.25.91-.08.29-.18.57-.28.85l-1.4,1.36c.59-1.52,1.35-2.91,2.27-4.16s1.95-2.25,3.09-2.98,2.32-1.11,3.56-1.11c.13,0,.22.04.27.12.05.08.06.22.02.41-.08.4-.16.72-.25.95s-.19.39-.3.48-.24.13-.4.13c-1.06,0-2.1.35-3.12,1.04-1.02.69-1.92,1.64-2.7,2.83-.78,1.2-1.36,2.53-1.74,4-.2.77-.34,1.38-.43,1.83-.09.44-.16.82-.22,1.14,0,.08-.02.13-.03.17s-.02.1-.03.17c0,.13-.06.23-.15.3-.09.07-.21.11-.38.15-.17.03-.39.05-.66.05-.35,0-.6-.02-.77-.05Z" style="fill: #fff;"/>
    <path d="m237.6,101.2c-.17-.04-.27-.11-.32-.21-.05-.1-.05-.25,0-.44l2.15-8.22c.07-.27.13-.47.17-.61.04-.14.09-.33.14-.58.16-.56.29-1.04.4-1.45s.2-.8.28-1.17c.13-.64.23-1.28.3-1.92.07-.64.1-1.32.12-2.06,0-.87.18-1.61.5-2.2.33-.59.79-1.05,1.41-1.36s1.36-.46,2.26-.46c.39,0,.78.03,1.15.08s.68.13.93.23c.09.02.15.05.2.08s.08.08.1.13c.02.05.03.11.03.19,0,.21-.04.41-.11.61-.07.2-.16.36-.26.48-.1.12-.21.18-.32.18-.07,0-.14,0-.23-.02-.08-.01-.18-.03-.29-.06-.05,0-.1,0-.14-.01s-.09-.03-.15-.05c-.03,0-.05-.02-.07-.02-.2-.04-.38-.07-.53-.1-.16-.02-.33-.03-.51-.03-.35,0-.67.09-.95.26s-.51.44-.67.78c-.16.35-.25.78-.26,1.28,0,.72-.03,1.39-.1,1.99-.07.61-.17,1.27-.31,1.99-.06.39-.17.92-.34,1.61-.13.55-.32,1.29-.57,2.2l-2.15,8.33c-.04.16-.11.28-.2.36-.09.08-.21.14-.35.17s-.32.04-.54.05c-.36,0-.62-.03-.78-.06Zm.4-11.76c-.08-.04-.12-.1-.14-.2-.02-.1,0-.24.04-.42.05-.27.11-.47.17-.6.06-.12.13-.21.22-.26s.2-.07.35-.07c.87-.02,1.67-.04,2.41-.07.73-.03,1.38-.05,1.95-.08.53-.01.99-.03,1.38-.04s.74-.02,1.07-.03c.1,0,.17.01.23.04s.09.08.11.14c.02.07.02.15.01.26-.06.32-.11.56-.17.73-.06.16-.13.27-.21.34s-.18.09-.29.1c-.5.02-.9.04-1.2.05s-.69.03-1.18.04c-.98.04-1.85.08-2.6.1-.75.02-1.34.03-1.78.03-.16,0-.28-.02-.35-.06Z" style="fill: #fff;"/>
    <path d="m247.51,100.78c-.7-.46-1.22-1.09-1.56-1.88-.34-.79-.51-1.67-.51-2.63,0-1.32.29-2.67.88-4.03.59-1.37,1.45-2.5,2.58-3.41,1.13-.9,2.45-1.36,3.97-1.36,1.04,0,1.9.23,2.61.69.7.46,1.22,1.09,1.57,1.87.34.79.51,1.66.51,2.62,0,1.33-.29,2.68-.88,4.04-.59,1.36-1.45,2.5-2.58,3.41-1.13.91-2.45,1.36-3.97,1.36-1.04,0-1.9-.23-2.6-.7Zm5.45-2.22c.76-.78,1.36-1.74,1.78-2.86.42-1.12.63-2.15.63-3.07,0-.65-.1-1.23-.3-1.75-.2-.52-.51-.93-.92-1.23-.41-.3-.93-.46-1.55-.46-.97,0-1.83.39-2.59,1.18-.76.78-1.35,1.73-1.77,2.85s-.63,2.15-.63,3.08c0,.65.1,1.23.3,1.75.2.51.5.92.91,1.23.41.3.93.46,1.55.46.97,0,1.83-.39,2.6-1.18Z" style="fill: #fff;"/>
    <path d="m260.74,101.11c-.64-.24-1.16-.58-1.56-1s-.67-.9-.8-1.43v-.02c-.02-.12-.04-.23-.05-.33s-.02-.18,0-.23c.02-.11.1-.22.26-.32.16-.1.36-.18.6-.25.24-.06.46-.1.67-.1.1,0,.17.02.23.05.05.04.09.11.11.22,0,.03.01.06.02.09.08.4.24.75.49,1.04.24.29.57.52.98.69s.9.25,1.48.25,1.06-.09,1.53-.28.84-.46,1.13-.82c.28-.36.42-.79.42-1.29,0-.37-.11-.71-.32-1.01-.22-.3-.48-.55-.8-.77-.32-.22-.75-.49-1.29-.81-.66-.37-1.2-.7-1.61-.99-.41-.29-.76-.65-1.04-1.07s-.43-.93-.43-1.5c0-.76.21-1.43.65-2s1.02-1.01,1.77-1.32,1.6-.46,2.54-.46c.67,0,1.29.11,1.87.34s1.04.54,1.39.95.52.87.53,1.4c0,.09,0,.16-.03.21s-.05.1-.1.13c-.05.04-.12.08-.22.11-.13.05-.33.1-.6.16-.27.05-.47.08-.6.08-.08,0-.14-.02-.19-.07-.04-.05-.08-.14-.1-.28-.04-.27-.17-.52-.38-.73s-.48-.38-.81-.5c-.33-.12-.67-.18-1.04-.18-.51,0-.96.08-1.37.25-.41.17-.72.4-.95.7-.23.3-.35.64-.35,1.03,0,.31.09.58.28.83.19.25.42.46.71.65.29.19.69.43,1.2.72.71.38,1.29.73,1.75,1.04.45.31.84.71,1.16,1.2.33.49.49,1.07.49,1.74,0,.88-.24,1.64-.73,2.28-.48.64-1.14,1.12-1.96,1.46-.82.33-1.73.5-2.74.5-.82,0-1.55-.12-2.19-.36Z" style="fill: #fff;"/>
    <path d="m270.64,101.24c-.16-.03-.26-.09-.31-.17-.05-.09-.05-.22,0-.39l.38-1.38c.13-.48.26-.96.39-1.44.27-1.03.52-2.01.74-2.92.22-.91.41-1.75.58-2.52.15-.75.28-1.44.39-2.07.11-.63.2-1.22.28-1.78,0-.13.02-.25.03-.38.01-.12.06-.22.14-.3s.21-.13.4-.17c.18-.04.43-.06.76-.06.25,0,.44.02.58.05.14.03.23.08.27.15.05.07.06.17.05.31-.02.21-.04.42-.07.63-.08.55-.17,1.15-.28,1.8-.11.65-.23,1.33-.38,2.04-.12.63-.3,1.4-.53,2.3-.23.91-.47,1.85-.73,2.82-.09.32-.16.6-.23.85-.07.25-.14.51-.22.79l-.38,1.42c-.04.13-.1.23-.17.3-.07.07-.18.11-.32.14-.15.03-.36.04-.63.04-.34,0-.59-.01-.75-.04Zm3.92-16.55c-.21-.13-.37-.3-.49-.5-.12-.2-.18-.41-.18-.62,0-.3.08-.58.25-.84.17-.26.39-.46.66-.62s.55-.23.84-.23c.25,0,.47.06.68.19.21.13.37.29.49.5.12.21.18.41.18.63,0,.29-.08.56-.25.82s-.39.47-.66.63c-.27.16-.55.24-.85.24-.24,0-.46-.07-.67-.2Z" style="fill: #fff;"/>
    <path d="m278.15,101.11c-.64-.24-1.16-.58-1.56-1s-.67-.9-.8-1.43v-.02c-.02-.12-.04-.23-.05-.33s-.02-.18,0-.23c.02-.11.1-.22.26-.32.16-.1.36-.18.6-.25.24-.06.46-.1.67-.1.1,0,.17.02.23.05.05.04.09.11.11.22,0,.03.01.06.02.09.08.4.24.75.49,1.04.24.29.57.52.98.69s.9.25,1.48.25,1.06-.09,1.53-.28.84-.46,1.13-.82c.28-.36.42-.79.42-1.29,0-.37-.11-.71-.32-1.01-.22-.3-.48-.55-.8-.77-.32-.22-.75-.49-1.29-.81-.66-.37-1.2-.7-1.61-.99-.41-.29-.76-.65-1.04-1.07s-.43-.93-.43-1.5c0-.76.21-1.43.65-2s1.02-1.01,1.77-1.32,1.6-.46,2.54-.46c.67,0,1.29.11,1.87.34s1.04.54,1.39.95.52.87.53,1.4c0,.09,0,.16-.03.21s-.05.1-.1.13c-.05.04-.12.08-.22.11-.13.05-.33.1-.6.16-.27.05-.47.08-.6.08-.08,0-.14-.02-.19-.07-.04-.05-.08-.14-.1-.28-.04-.27-.17-.52-.38-.73s-.48-.38-.81-.5c-.33-.12-.67-.18-1.04-.18-.51,0-.96.08-1.37.25-.41.17-.72.4-.95.7-.23.3-.35.64-.35,1.03,0,.31.09.58.28.83.19.25.42.46.71.65.29.19.69.43,1.2.72.71.38,1.29.73,1.75,1.04.45.31.84.71,1.16,1.2.33.49.49,1.07.49,1.74,0,.88-.24,1.64-.73,2.28-.48.64-1.14,1.12-1.96,1.46-.82.33-1.73.5-2.74.5-.82,0-1.55-.12-2.19-.36Z" style="fill: #fff;"/>
  </g>
  <g>
    <g>
      <polygon points="129.99 49.76 148.55 13.39 167.91 26.88 129.99 49.76" style="fill: url(#linear-gradient);"/>
      <path d="m129.99,49.76c5.75-12.02,11.15-25.13,17.26-37.03,0,0,.76-1.49.76-1.49l1.38.96c6.92,4.74,14.28,9.95,21.13,14.81-13.13,7.87-27.48,15.26-40.53,22.76h0Zm0,0c9.56-5.97,18.92-12.37,28.12-18.37,3.01-1.93,6.03-3.82,9.07-5.72l-.08,2.37c-6.32-4.32-13.16-9.05-19.39-13.46,0,0,2.14-.53,2.14-.53-1.5,2.92-3.05,5.8-4.63,8.67-4.79,8.72-10.53,18.18-15.23,27.03h0Z"/>
    </g>
    <g>
      <polygon points="128.39 57.43 174.42 37.85 179.22 67.07 128.39 57.43" style="fill: url(#linear-gradient-2);"/>
      <path d="m128.39,57.43c15.48-6.97,31.49-14.98,47.15-21.64.07.11,2.58,15.62,2.76,16.43.2,1.18,2.58,16.02,2.69,16.67-17.36-3.21-35.36-7.83-52.59-11.45h0Zm0,0c12.44,2.19,26.32,4.03,38.72,6.07,4.13.7,8.26,1.37,12.39,2.15l-1.7,1.66c-1.25-7.28-3.64-21.94-4.79-29.23,0,0,1.99,1.09,1.99,1.09-3.74,1.56-7.5,3.06-11.26,4.57-11.31,4.46-24.03,9.06-35.34,13.69h0Z"/>
    </g>
    <g>
      <polygon points="126 37.93 118.93 12.16 135.4 12.14 126 37.93" style="fill: url(#Degradado_sin_nombre_57);"/>
      <path d="m126,37.93c-2.89-8.9-6.52-18.12-8.98-27.19,6.39-.06,14.11-.1,20.46-.05-3.19,9.16-7.76,18.34-11.48,27.24h0Zm0,0c2.17-6.45,3.97-13.69,5.98-20.12.65-2.07,1.31-4.13,2.05-6.17l1.37,1.96c-4.76.05-11.64.05-16.47,0,0,0,1.39-1.82,1.39-1.82,2.27,8.66,3.53,17.37,5.68,26.15h0Z"/>
    </g>
  </g>
  <g>
    <g style="filter: url(#outer-glow-11);">
      <path d="m30.36,26.62c3.64,24.95,8.55,57.13,11.52,73.42l-1.07-59.27-10.44-14.14Z" style="fill: url(#linear-gradient-3);"/>
      <polygon points="100.42 40.85 109.6 40.39 96.36 26.6 65.96 13.8 46.84 13.96 53.37 21.26 100.42 40.85" style="fill: url(#linear-gradient-4);"/>
      <polygon points="51.16 22.42 43.91 14.31 30.23 22.37 41.89 38.16 51.16 22.42" style="fill: url(#linear-gradient-5);"/>
      <path d="m98.73,42.78l-45.57-18.98-9.94,16.88,1.22,67.61,48.62-46.74,5.67-18.77Zm-11.91,16.83c-4.34,2.95-10.25,1.83-13.2-2.51-.59-.87-1.01-1.8-1.28-2.75l-11.31,1.66c-.4,1.61-1.37,3.09-2.85,4.1-1.01.69-2.14,1.08-3.28,1.18l3.06,7.6c1.98-.3,4.04.52,5.24,2.29,1.67,2.45,1.03,5.79-1.42,7.46-2.45,1.67-5.79,1.03-7.46-1.42-1.65-2.42-1.04-5.71,1.34-7.4l-3.56-8.83c-1.45-.46-2.76-1.38-3.69-2.74-2.18-3.21-1.35-7.58,1.86-9.76,3.21-2.18,7.58-1.35,9.76,1.86.66.97,1.04,2.04,1.16,3.13l10.78-1.58c-.04-3.09,1.41-6.13,4.15-8,4.34-2.95,10.25-1.83,13.2,2.51,2.95,4.34,1.83,10.25-2.51,13.2Z" style="fill: url(#Degradado_sin_nombre_88);"/>
      <path d="m55.44,101.08c14.84-10.48,39.41-27.91,56.4-39.97l-17.15,2.23-39.25,37.74Z" style="fill: url(#linear-gradient-6);"/>
      <polygon points="101.12 43.25 95.84 60.75 115.03 58.25 111.37 42.73 101.12 43.25" style="fill: url(#linear-gradient-7);"/>
      <path d="m97.77,24.55l-31.32-13.18-22.63.18-16.67,9.83.12.81c.03.22,3.23,22.29,6.62,44.19,5.53,35.64,7.26,43.28,8.2,45.14l.04,2.37,1.92-1.85c3.8-2.51,70.3-49.72,73.17-51.76l.67-.47-4.46-18.93-15.66-16.32Zm-31.8-10.75l30.4,12.79,13.24,13.8-9.18.46-47.05-19.6-6.53-7.3,19.12-.15Zm-22.05.51l7.25,8.1-9.27,15.74-11.66-15.78,13.67-8.06Zm-13.55,12.31l10.44,14.14,1.07,59.27c-2.97-16.28-7.88-48.47-11.52-73.42Zm14.09,81.66l-1.22-67.61,9.94-16.88,45.57,18.98-5.67,18.77-48.62,46.74Zm10.99-7.2l39.25-37.74,17.15-2.23c-16.99,12.06-41.56,29.49-56.4,39.97Zm40.4-40.33l5.29-17.51,10.25-.51,3.65,15.52-19.19,2.5Z"/>
      <path d="m89.33,46.41c-2.95-4.34-8.86-5.47-13.2-2.51-2.74,1.87-4.2,4.91-4.15,8l-10.78,1.58c-.13-1.09-.51-2.16-1.16-3.13-2.18-3.21-6.55-4.04-9.76-1.86-3.21,2.18-4.04,6.55-1.86,9.76.92,1.36,2.24,2.28,3.69,2.74l3.56,8.83c-2.38,1.69-2.99,4.98-1.34,7.4,1.67,2.45,5.01,3.09,7.46,1.42,2.45-1.67,3.09-5.01,1.42-7.46-1.2-1.76-3.27-2.58-5.24-2.29l-3.06-7.6c1.14-.11,2.27-.5,3.28-1.18,1.48-1.01,2.45-2.49,2.85-4.1l11.31-1.66c.27.95.69,1.88,1.28,2.75,2.95,4.34,8.86,5.47,13.2,2.51,4.34-2.95,5.47-8.86,2.51-13.2Z"/>
    </g>
    <g style="filter: url(#outer-glow-12);">
      <path d="m30.36,26.62c3.64,24.95,8.55,57.13,11.52,73.42l-1.07-59.27-10.44-14.14Z" style="fill: url(#linear-gradient-3);"/>
      <polygon points="100.42 40.85 109.6 40.39 96.36 26.6 65.96 13.8 46.84 13.96 53.37 21.26 100.42 40.85" style="fill: url(#linear-gradient-8);"/>
      <polygon points="51.16 22.42 43.91 14.31 30.23 22.37 41.89 38.16 51.16 22.42" style="fill: url(#linear-gradient-5);"/>
      <path d="m98.73,42.78l-45.57-18.98-9.94,16.88,1.22,67.61,48.62-46.74,5.67-18.77Zm-11.91,16.83c-4.34,2.95-10.25,1.83-13.2-2.51-.59-.87-1.01-1.8-1.28-2.75l-11.31,1.66c-.4,1.61-1.37,3.09-2.85,4.1-1.01.69-2.14,1.08-3.28,1.18l3.06,7.6c1.98-.3,4.04.52,5.24,2.29,1.67,2.45,1.03,5.79-1.42,7.46-2.45,1.67-5.79,1.03-7.46-1.42-1.65-2.42-1.04-5.71,1.34-7.4l-3.56-8.83c-1.45-.46-2.76-1.38-3.69-2.74-2.18-3.21-1.35-7.58,1.86-9.76,3.21-2.18,7.58-1.35,9.76,1.86.66.97,1.04,2.04,1.16,3.13l10.78-1.58c-.04-3.09,1.41-6.13,4.15-8,4.34-2.95,10.25-1.83,13.2,2.51,2.95,4.34,1.83,10.25-2.51,13.2Z" style="fill: url(#Degradado_sin_nombre_88-2);"/>
      <path d="m55.44,101.08c14.84-10.48,39.41-27.91,56.4-39.97l-17.15,2.23-39.25,37.74Z" style="fill: url(#linear-gradient-9);"/>
      <polygon points="101.12 43.25 95.84 60.75 115.03 58.25 111.37 42.73 101.12 43.25" style="fill: url(#linear-gradient-10);"/>
      <path d="m97.77,24.55l-31.32-13.18-22.63.18-16.67,9.83.12.81c.03.22,3.23,22.29,6.62,44.19,5.53,35.64,7.26,43.28,8.2,45.14l.04,2.37,1.92-1.85c3.8-2.51,70.3-49.72,73.17-51.76l.67-.47-4.46-18.93-15.66-16.32Zm-31.8-10.75l30.4,12.79,13.24,13.8-9.18.46-47.05-19.6-6.53-7.3,19.12-.15Zm-22.05.51l7.25,8.1-9.27,15.74-11.66-15.78,13.67-8.06Zm-13.55,12.31l10.44,14.14,1.07,59.27c-2.97-16.28-7.88-48.47-11.52-73.42Zm14.09,81.66l-1.22-67.61,9.94-16.88,45.57,18.98-5.67,18.77-48.62,46.74Zm10.99-7.2l39.25-37.74,17.15-2.23c-16.99,12.06-41.56,29.49-56.4,39.97Zm40.4-40.33l5.29-17.51,10.25-.51,3.65,15.52-19.19,2.5Z"/>
      <path d="m89.33,46.41c-2.95-4.34-8.86-5.47-13.2-2.51-2.74,1.87-4.2,4.91-4.15,8l-10.78,1.58c-.13-1.09-.51-2.16-1.16-3.13-2.18-3.21-6.55-4.04-9.76-1.86-3.21,2.18-4.04,6.55-1.86,9.76.92,1.36,2.24,2.28,3.69,2.74l3.56,8.83c-2.38,1.69-2.99,4.98-1.34,7.4,1.67,2.45,5.01,3.09,7.46,1.42,2.45-1.67,3.09-5.01,1.42-7.46-1.2-1.76-3.27-2.58-5.24-2.29l-3.06-7.6c1.14-.11,2.27-.5,3.28-1.18,1.48-1.01,2.45-2.49,2.85-4.1l11.31-1.66c.27.95.69,1.88,1.28,2.75,2.95,4.34,8.86,5.47,13.2,2.51,4.34-2.95,5.47-8.86,2.51-13.2Z" style="fill: #fff;"/>
    </g>
  </g>
</svg>