<?xml version="1.0" encoding="utf-8"?>
<!-- Generator: Adobe Illustrator 27.2.0, SVG Export Plug-In . SVG Version: 6.00 Build 0)  -->
<svg version="1.1" id="Juego" xmlns="http://www.w3.org/2000/svg" xmlns:xlink="http://www.w3.org/1999/xlink" x="0px" y="0px"
	 viewBox="0 0 129.1 131" style="enable-background:new 0 0 129.1 131;" xml:space="preserve">
<style type="text/css">
	.st0{fill:#FFFFFF;}
	.st1{fill:#03FF6D;}
	.st2{fill:#002F70;}
</style>
<g>
	<path class="st0" d="M24.6,120.2c5.7-2.2,11.6-5.4,17.3-7.6l0.3-0.1l0.3,0.2c4.3,2.4,9,4.2,13.8,5.3c12.4,2.9,25.9,0.7,36.8-6l0,0
		l0,0c6.3-3.9,11.9-9.1,16.1-15.6c0.4-0.5,0.8-1.2,1.1-1.7c0.3-0.5,0.7-1.1,1-1.7s0.7-1.3,1-1.8l0.9-1.8l0.1-0.2
		c0.5-1.1,1-2.4,1.4-3.6c1.7-4.9,2.7-10,2.9-15.1c0.1-0.6,0.1-2.4,0.1-3.1c0-0.6-0.1-1.4-0.1-2v-0.5v-0.2v-0.2l-0.1-1
		c-0.4-4.6-1.4-9-3-13.3c-1.2-3.3-2.8-6.4-4.6-9.4c-0.2-0.3-2.4-3.7-2.5-3.9c-0.4-0.6-1-1.4-1.4-2c-0.6-0.8-1.2-1.7-1.8-2.4
		c-0.3-0.2-1.4-1.6-1.6-1.8c-0.6-0.6-1.2-1.3-1.7-1.8c-0.7-0.6-1.4-1.4-2.1-2c-0.3-0.3-0.9-0.8-1.1-1s-1.7-1.3-1.9-1.5
		c-0.5-0.3-1.1-0.8-1.6-1.1c-0.4-0.3-1.1-0.8-1.6-1.1s-1-0.7-1.6-1c-13-7.9-29.2-9.4-43.3-3.9c-0.4,0.2-1.1,0.5-1.5,0.6L46.1,18
		l-0.9,0.4c-1.2,0.4-2.3,1-3.4,1.6c-0.5,0.3-1.9,1-2.4,1.4c-0.4,0.2-1.2,0.8-1.6,1c-0.4,0.3-1.1,0.8-1.5,1.1
		c-0.3,0.1-0.6,0.3-0.8,0.5c-0.5,0.4-1.7,1.4-2.2,1.8c-0.4,0.3-1,0.8-1.4,1.2c-0.4,0.3-1.1,1-1.4,1.3c-0.6,0.6-1.3,1.3-1.9,2
		c-0.2,0.3-1.3,1.5-1.5,1.8c-0.2,0.2-0.7,0.8-0.9,1.1c-0.6,0.8-1.2,1.7-1.7,2.4c-3.8,5.5-6.4,11.8-7.7,18.5
		c-0.1,0.6-0.2,1.4-0.3,1.9l-0.3,1.9c0,0.5-0.2,2.1-0.2,2.5c0,0.9-0.1,1.8-0.1,2.5c0,1-0.1,2,0,2.9v0.9c0.2,4.2,1,8.5,2.2,12.5
		c0.1,0.5,0.4,1.3,0.6,1.8s0.5,1.3,0.7,1.8c0.1,0.3,0.4,1,0.5,1.3c0.2,0.5,0.8,1.9,1,2.3c0.5,1.1,1.2,2.6,1.8,3.6
		c0.5,1,1.3,2.6,1.9,3.6c1,1.6,2,3.3,3.2,4.9l0.5,0.7l-0.1,0.7L24.6,120.2z"/>
	<path class="st1" d="M93.5,111.9L93.5,111.9c6.3-3.8,11.8-9,16.1-15.2c0.4-0.5,0.8-1.2,1.1-1.7c0.3-0.5,0.7-1.1,1-1.7
		s0.7-1.3,1-1.8l0.9-1.8l0.1-0.2c0.5-1.1,1-2.3,1.4-3.5c1.7-4.7,2.7-9.7,2.9-14.7c0.1-0.6,0.1-2.3,0.1-3c0-0.6-0.1-1.4-0.1-2v-0.5
		v-0.2v-0.2l-0.1-1c-0.4-4.5-1.4-8.8-3-13c-1.2-3.2-2.8-6.3-4.6-9.2c-0.2-0.3-2.4-3.6-2.5-3.8c-0.4-0.6-1-1.4-1.4-2
		c-0.6-0.7-1.2-1.6-1.8-2.3c-0.3-0.2-1.4-1.6-1.6-1.8c-0.6-0.6-1.2-1.3-1.7-1.8c-0.7-0.6-1.4-1.4-2.1-2c-0.3-0.3-0.9-0.8-1.1-1
		s-1.7-1.3-1.9-1.5c-0.5-0.3-1.1-0.8-1.6-1.1c-0.4-0.3-1.1-0.8-1.6-1.1s-1-0.7-1.6-1c-12.9-7.7-29-9.2-43-3.8
		c-0.4,0.2-1.1,0.5-1.5,0.6l-0.2,0.1l-0.9,0.4c-1.2,0.4-2.3,1-3.4,1.6c-0.5,0.3-1.9,1-2.4,1.4c-0.4,0.2-1.2,0.8-1.6,1
		c-0.4,0.3-1.1,0.8-1.5,1.1c-0.3,0.1-0.6,0.3-0.8,0.5c-0.5,0.4-1.7,1.4-2.2,1.8c-0.4,0.3-1,0.8-1.4,1.2c-0.4,0.3-1.1,1-1.4,1.3
		c-0.6,0.6-1.3,1.3-1.9,2c-0.2,0.3-1.3,1.5-1.5,1.8c-0.2,0.2-0.7,0.8-0.9,1.1c-0.6,0.7-1.2,1.6-1.7,2.3c-3.7,5.4-6.3,11.6-7.6,18.1
		c-0.1,0.6-0.2,1.4-0.3,1.9l-0.3,1.9c0,0.4-0.2,2-0.2,2.4c0,0.8-0.1,1.7-0.1,2.4c0,0.9-0.1,1.9,0,2.8v0.9c0.2,4.1,1,8.3,2.2,12.2
		c0.1,0.5,0.4,1.3,0.6,1.8s0.5,1.3,0.7,1.8c0.1,0.3,0.4,1,0.5,1.3c0.2,0.4,0.8,1.8,1,2.2c0.5,1.1,1.2,2.5,1.8,3.5
		c0.5,1,1.3,2.5,1.9,3.5c1,1.6,2,3.2,3.2,4.8l0.5,0.7l-0.1,0.7l-2.6,20.3l-1.7-1.3c5.7-2.1,12.4-4.5,18.1-6.6l0.3-0.1l0.3,0.2
		c4.3,2.4,8.9,4.1,13.7,5.2C69.3,120.6,82.7,118.4,93.5,111.9L93.5,111.9z M93.6,112.6L93.6,112.6c-10.8,6.6-23.4,9.4-35.7,7.1
		c-4.9-0.9-12.2-3.5-16.7-5.7h0.6c-5.5,2.4-11.2,4.5-16.7,6.9l-1.8,0.8l0.1-2.1l1.9-19.9l0.4,1.4c-0.9-1.1-1.8-2.2-2.6-3.3
		c-0.8-1-1.6-2.2-2.3-3.4c-1.1-1.6-2.3-3.5-3.3-5.2c-12-21.2-8-48,9.6-64.8c3.6-3.5,7.8-6.4,12.2-8.8c1.3-0.6,2.6-1.3,3.9-1.8
		c0.1-0.1,1-0.4,1.2-0.5l0.2-0.1l0.5-0.2c5.3-2,11-3.2,16.7-3.4c0.6,0,1.5,0,2.1,0c0.2,0,1.1,0,1.3,0h0.3H66
		c9.9,0.4,19.7,3.6,27.9,9.2c0.6,0.3,1.1,0.8,1.7,1.2c0.5,0.4,1.2,0.9,1.7,1.3s1.1,1,1.6,1.4c0.3,0.3,1.6,1.5,1.9,1.8
		c0.2,0.2,0.9,0.9,1.1,1.1c0.7,0.7,1.4,1.5,2.1,2.3c0.6,0.6,1.2,1.4,1.7,2c0.3,0.3,1.3,1.8,1.6,2.1c0.6,0.8,1.2,1.8,1.7,2.6
		c0.4,0.6,0.9,1.6,1.3,2.2l0.2,0.4l2,3.5c1.8,3.2,3.2,6.6,4.3,10c0.2,0.8,0.5,1.7,0.7,2.5C123.3,75.9,113.8,100.6,93.6,112.6
		L93.6,112.6z"/>
	<g>
		<g>
			<path class="st2" d="M59.4,40.6c0.8,1.4,1.9,2.4,3.5,3c1.5,0.6,3.1,0.9,4.6,0.9h1.9c0.6-0.1,1.2-0.3,1.9-0.7
				c0.7-0.4,1.4-0.9,2-1.5c0.6-0.6,1.1-1.2,1.6-1.8c0.4-0.6,0.7-1.2,0.7-1.7v-2.2c0-1-0.1-1.8-0.2-2.6c-0.1-0.8-0.5-1.6-1.1-2.4
				c-0.6-0.6-1.1-1.1-1.6-1.6c-0.4-0.4-1-0.8-1.7-1.2c-0.2-0.1-0.6-0.3-1.2-0.6c-0.6-0.3-1.1-0.5-1.3-0.5h-1c-0.3,0-0.5,0-0.8,0
				c-0.3,0-0.5,0-0.6,0c-0.1,0-0.5,0-1.1,0c-0.6,0-1,0-1.2,0c-0.7,0.2-1.4,0.7-2.1,1.3c-0.8,0.7-1.4,1.3-1.8,1.9
				c-0.2,0.2-0.4,0.6-0.7,1.1c-0.3,0.5-0.4,0.9-0.4,1v5.7c0,0.2,0.1,0.5,0.3,1C59.2,40.2,59.3,40.5,59.4,40.6z"/>
			<path class="st2" d="M75.2,52.9c-0.1-0.3-0.1-0.7-0.2-1.4c-0.1-0.6-0.1-1-0.3-1.2c0-0.1-0.1-0.3-0.3-0.4
				c-0.2-0.2-0.3-0.3-0.3-0.3H60.5l-0.8,0.3l-5.4,46.3c0,0-0.8,4.2,1.3,4.5c2.1,0.4,13.7,2.6,20.6-0.6c0.4-0.2,0.7-0.5,0.8-0.9
				c0.2-0.4,0.3-0.8,0.3-1.2v-0.3L75.2,52.9z"/>
		</g>
	</g>
</g>
</svg>
