<?xml version="1.0" encoding="utf-8"?>
<!-- Generator: Adobe Illustrator 27.2.0, SVG Export Plug-In . SVG Version: 6.00 Build 0)  -->
<svg version="1.1" id="Capa_1" xmlns="http://www.w3.org/2000/svg" xmlns:xlink="http://www.w3.org/1999/xlink" x="0px" y="0px"
	 viewBox="0 0 315 88.2" style="enable-background:new 0 0 315 88.2;" xml:space="preserve">
<style type="text/css">
	.st0{fill:url(#SVGID_1_);stroke:#FFFFFF;stroke-width:2;stroke-miterlimit:10;}
	.st1{fill:#FFFFFF;}
	.elemento-svg{
		cursor: pointer;
	}
</style>
<g class="elemento-svg" id="Capa_2_00000011724180847816813630000016554310629195733400_">
	<g>
		
			<linearGradient id="SVGID_1_" gradientUnits="userSpaceOnUse" x1="23224.8203" y1="-8193.415" x2="23731.4805" y2="-8193.415" gradientTransform="matrix(-1 0 0 1 23662 8237.5303)">
			<stop  offset="0" style="stop-color:#04BF80"/>
			<stop  offset="0.2" style="stop-color:#02C55B"/>
			<stop  offset="0.43" style="stop-color:#01CB37"/>
			<stop  offset="0.65" style="stop-color:#00CF1E"/>
			<stop  offset="0.84" style="stop-color:#00D20E"/>
			<stop  offset="1" style="stop-color:#00D309"/>
		</linearGradient>
		<path class="st0" d="M37.1,2.7L277.9,1c9.2,0,17.4,5.9,20.3,14.6l14.6,43.3c4.7,13.9-5.6,28.3-20.3,28.3h-270
			c-14.7,0-25-14.4-20.3-28.3l14.6-43.3C19.8,6.9,27.9,2.7,37.1,2.7z"/>
		<g>
			<path class="st1" d="M53.9,58.5h-5l0.9-11.4c0.3-4.3,0.7-8.1,1.2-11.1l-7.6,19.6h-4.9L36.1,36c-0.2,3.1-0.7,6.9-1.7,11.4l-2.2,11
				h-5l5.9-27h6.3l2.2,19.1l7.1-19.1h6.8L53.9,58.5L53.9,58.5z"/>
			<path class="st1" d="M73.4,48.5c-2.4,1.2-5.7,2-9.7,2.4c0.1,2.9,1.4,4.3,4,4.3c0.9,0,1.8-0.2,2.7-0.5s1.8-0.8,2.7-1.5l1.9,3.1
				c-2.5,1.8-5.1,2.7-7.8,2.7s-4.9-0.8-6.3-2.3s-2.2-3.6-2.2-6.3c0-2.1,0.4-4.1,1.2-6.1s2-3.7,3.7-5c1.7-1.3,3.8-2,6.4-2
				c1.5,0,2.8,0.2,3.9,0.7c1.1,0.5,1.9,1.2,2.4,2s0.8,1.7,0.8,2.7C77,45.4,75.8,47.3,73.4,48.5L73.4,48.5z M70,46
				c1.3-0.8,1.9-1.8,1.9-3.1c0-0.5-0.2-1-0.6-1.5s-1-0.6-1.8-0.6c-1.6,0-2.9,0.7-3.8,2s-1.5,2.9-1.8,4.8C66.7,47.3,68.7,46.8,70,46
				L70,46z"/>
			<path class="st1" d="M96.7,38.6c0.8,0.9,1.3,2.1,1.3,3.7c0,0.4,0,0.9-0.1,1.4l-2.1,14.7h-4.9l2-14c0.1-0.5,0.1-0.8,0.1-1
				c0-0.8-0.2-1.3-0.5-1.7c-0.3-0.3-0.7-0.5-1.3-0.5c-1.8,0-3.6,1.8-5.4,5.3l-1.7,11.8h-4.9l2.9-20.6h4.2l-0.2,3.8
				c2-2.9,4.4-4.4,7.1-4.4C94.7,37.2,95.9,37.7,96.7,38.6L96.7,38.6z"/>
			<path class="st1" d="M103.3,57.7c-0.9-0.9-1.3-2.1-1.3-3.7c0-0.5,0-1,0.1-1.4l2.1-14.7h4.9l-2,14.1c-0.1,0.5-0.1,0.9-0.1,1.1
				c0,0.8,0.2,1.3,0.4,1.6c0.3,0.3,0.8,0.5,1.3,0.5c0.9,0,1.8-0.4,2.6-1.1c0.8-0.7,1.6-1.7,2.4-2.9l1.9-13.3h4.9l-2.9,20.6h-4.2
				l0.2-3.4c-1,1.3-2,2.3-3.1,2.9c-1.1,0.7-2.3,1-3.6,1C105.4,59,104.2,58.6,103.3,57.7L103.3,57.7z M117,26.5l1.6,3.9l-9.1,3.5
				l-1.1-2.5C108.3,31.3,117,26.5,117,26.5z"/>
			<path class="st1" d="M136,37.8h4.3l0,2.4c1.9-2,3.9-3,6.2-3c2,0,3.6,0.7,4.7,2.1c1.1,1.4,1.7,3.4,1.7,6c0,2.2-0.4,4.3-1.1,6.4
				c-0.7,2.1-1.9,3.8-3.6,5.2c-1.6,1.4-3.7,2.1-6.3,2.1c-1.3,0-2.6-0.2-3.8-0.6l-1.2,8l-4.9,0.6L136,37.8L136,37.8z M145.1,53.7
				c0.9-1,1.6-2.3,2-3.9c0.4-1.5,0.6-3.1,0.6-4.6c0-2.8-1-4.2-3-4.2c-0.9,0-1.7,0.2-2.4,0.7c-0.7,0.5-1.5,1.1-2.2,2l-1.5,11.1
				c1,0.4,2.1,0.5,3.1,0.5C143.1,55.3,144.2,54.8,145.1,53.7L145.1,53.7z"/>
			<path class="st1" d="M170.7,37.6l-1.4,4.8c-0.6-0.2-1.2-0.2-1.7-0.2c-1.2,0-2.3,0.5-3.1,1.6s-1.6,2.6-2.3,4.6l-1.4,10.2h-4.9
				l2.9-20.6h4.2l-0.2,4c0.8-1.5,1.6-2.7,2.6-3.4c1-0.8,2.1-1.2,3.3-1.2C169.4,37.3,170,37.4,170.7,37.6L170.7,37.6z"/>
			<path class="st1" d="M178.7,37.8l-2.9,20.6h-4.9l2.9-20.6H178.7z M174.9,32.7c-0.5-0.5-0.8-1.1-0.8-1.9c0-1,0.3-1.8,1-2.4
				c0.6-0.6,1.5-1,2.4-1c0.8,0,1.5,0.2,2,0.8s0.8,1.2,0.8,2c0,0.9-0.3,1.7-1,2.4s-1.5,1-2.4,1C176.1,33.4,175.5,33.2,174.9,32.7
				L174.9,32.7z"/>
			<path class="st1" d="M199.2,38.6c0.8,0.9,1.3,2.1,1.3,3.7c0,0.4,0,0.9-0.1,1.4l-2.1,14.7h-4.9l2-14c0.1-0.5,0.1-0.8,0.1-1
				c0-0.8-0.2-1.3-0.5-1.7c-0.3-0.3-0.7-0.5-1.3-0.5c-1.8,0-3.6,1.8-5.4,5.3l-1.7,11.8h-4.9l2.9-20.6h4.2l-0.2,3.8
				c2-2.9,4.4-4.4,7.1-4.4C197.2,37.2,198.4,37.7,199.2,38.6L199.2,38.6z"/>
			<path class="st1" d="M221.4,39.7l-2.5,3c-0.6-0.5-1.2-0.9-1.8-1.2c-0.6-0.2-1.3-0.3-2-0.3c-2.1,0-3.6,1-4.5,2.9s-1.4,4.1-1.4,6.5
				c0,1.5,0.3,2.7,0.9,3.3c0.6,0.7,1.5,1,2.7,1c0.8,0,1.5-0.1,2.1-0.4c0.7-0.2,1.4-0.6,2.3-1.2l1.9,3.3c-2.2,1.5-4.4,2.3-6.8,2.3
				c-2.6,0-4.7-0.8-6.1-2.3c-1.5-1.5-2.2-3.7-2.2-6.4c0-2,0.4-4,1.2-6c0.8-2,2-3.7,3.7-5.1c1.7-1.4,3.7-2,6.2-2S219.8,38,221.4,39.7
				L221.4,39.7z"/>
			<path class="st1" d="M230.2,37.8l-2.9,20.6h-4.9l2.9-20.6H230.2z M226.5,32.7c-0.5-0.5-0.8-1.1-0.8-1.9c0-1,0.3-1.8,1-2.4
				c0.6-0.6,1.5-1,2.4-1c0.8,0,1.5,0.2,2,0.8s0.8,1.2,0.8,2c0,0.9-0.3,1.7-1,2.4s-1.5,1-2.4,1C227.7,33.4,227,33.2,226.5,32.7
				L226.5,32.7z"/>
			<path class="st1" d="M236.1,37.8h4.3l0,2.4c1.9-2,3.9-3,6.2-3c2,0,3.6,0.7,4.7,2.1c1.1,1.4,1.7,3.4,1.7,6c0,2.2-0.4,4.3-1.1,6.4
				c-0.7,2.1-1.9,3.8-3.6,5.2c-1.6,1.4-3.7,2.1-6.3,2.1c-1.3,0-2.6-0.2-3.8-0.6l-1.2,8l-4.9,0.6L236.1,37.8L236.1,37.8z M245.2,53.7
				c0.9-1,1.6-2.3,2-3.9c0.4-1.5,0.6-3.1,0.6-4.6c0-2.8-1-4.2-3-4.2c-0.9,0-1.7,0.2-2.4,0.7c-0.7,0.5-1.5,1.1-2.2,2l-1.5,11.1
				c1,0.4,2.1,0.5,3.1,0.5C243.2,55.3,244.3,54.8,245.2,53.7L245.2,53.7z"/>
			<path class="st1" d="M275.1,39.2l-2,13.8c0,0.5-0.1,0.8-0.1,0.9c0,0.4,0.1,0.8,0.2,1s0.5,0.5,0.9,0.7l-1.4,3.3
				c-2.4-0.3-3.8-1.4-4.2-3.4c-1.7,2.3-3.8,3.5-6.2,3.5c-2.1,0-3.7-0.7-4.9-2.2c-1.2-1.5-1.7-3.4-1.7-5.9c0-2.1,0.4-4.2,1.2-6.4
				c0.8-2.1,2-3.9,3.8-5.3c1.7-1.4,3.9-2.1,6.5-2.1S272.6,37.9,275.1,39.2L275.1,39.2z M263.6,42.4c-0.9,1-1.6,2.3-2,3.9
				S261,49.4,261,51c0,2.9,1,4.3,2.9,4.3c0.9,0,1.7-0.3,2.4-0.8s1.5-1.4,2.3-2.4l1.5-10.5c-0.8-0.4-1.8-0.5-2.8-0.5
				C265.8,40.9,264.6,41.4,263.6,42.4L263.6,42.4z"/>
			<path class="st1" d="M283.5,53.6l0,0.4c0,0.4,0.1,0.6,0.2,0.8c0.2,0.2,0.4,0.2,0.7,0.2c0.3,0,0.6-0.1,1.2-0.2l0.7,3.5
				c-1.1,0.5-2.2,0.7-3.4,0.7c-1.4,0-2.4-0.4-3.2-1.1c-0.8-0.7-1.1-1.8-1.1-3.3c0-0.5,0-1,0.1-1.3l3.4-23.8l5-0.5L283.5,53.6
				L283.5,53.6z"/>
		</g>
	</g>
</g>
</svg>
