<?xml version="1.0" encoding="utf-8"?>
<!-- Generator: Adobe Illustrator 27.2.0, SVG Export Plug-In . SVG Version: 6.00 Build 0)  -->
<svg version="1.1" id="Capa_1" xmlns="http://www.w3.org/2000/svg" xmlns:xlink="http://www.w3.org/1999/xlink" x="0px" y="0px"
	 viewBox="0 0 186.8 86.8" style="enable-background:new 0 0 186.8 86.8;" xml:space="preserve">
<style type="text/css">
	.st0{fill:#FFFFFF;}
</style>
<g>
	<g>
		<g>
			<path class="st0" d="M176.7,11.9c-1.1-1.5-2.4-2.9-3.5-4.4c-0.3-0.4-0.7-0.4-1.1-0.1c-0.8,0.6-1.5,1.2-2.3,1.8
				c-0.4,0.4-0.4,0.7-0.1,1.1c1.2,1.4,2.3,2.8,3.5,4.2c0.1,0.2,0.3,0.3,0.5,0.4c0.2-0.1,0.4-0.1,0.5-0.2c0.8-0.7,1.7-1.3,2.5-2.1
				C176.9,12.7,176.9,12.1,176.7,11.9z"/>
			<path class="st0" d="M157.9,5.9c0.1-0.2,0.1-0.4,0.1-0.7c0-1.4,0-2.9,0-4.3c0-0.6-0.3-1-0.9-1c-2.9,0-5.8,0-8.7,0
				c-0.7,0-0.9,0.3-0.9,1c0,1.5,0,3,0,4.5c0,0.3,0.1,0.5,0.2,0.6c-9,2.4-15.6,10.6-15.6,20.3c0,11.6,9.4,21,21,21s21-9.4,21-21
				C174.1,16.4,167.2,8.1,157.9,5.9z M163.2,24.6c-1.8,0.8-3.6,1.6-5.3,2.5c-1.4,0.6-2.8,1.2-4.3,1.8c-1.2,0.5-2.6-0.4-2.6-1.7
				l-0.3-15.7c0-0.5,0.1-1,0.3-1.4c0.4-0.8,1.4-1.3,2.2-1.1c1.1,0.2,1.7,1.1,1.7,2.3c0,3.8,0,7.6,0,11.4c0,0.3,0,0.7,0,1.1
				c2-0.9,3.8-1.7,5.6-2.5c0.3-0.1,0.6-0.3,1-0.4c1.2-0.5,2.4,0,2.9,1C164.8,22.9,164.4,24.1,163.2,24.6z"/>
		</g>
		<g>
			<path class="st0" d="M32.5,64.8c0.9-1,1.3-2.3,1.3-4c0-2.2-0.8-3.9-2.3-5c-1.6-1.1-3.8-1.7-6.8-1.7h-6.3v23.8h3.3V67.8h3.7
				l5.7,10.1H35l-6.4-10.7C30.4,66.6,31.6,65.8,32.5,64.8z M25.1,65.3l-3.3-0.1v-8.6h2.9c2,0,3.4,0.3,4.3,1s1.3,1.7,1.3,3.2
				c0,1.6-0.4,2.7-1.3,3.4S26.8,65.3,25.1,65.3z"/>
			<polygon class="st0" points="42.7,67.1 50.7,67.1 50.7,64.5 42.7,64.5 42.7,56.7 51.9,56.7 52.3,54.1 39.4,54.1 39.4,77.9 
				52.6,77.9 52.6,75.3 42.7,75.3 			"/>
			<path class="st0" d="M68.2,65.5c-1-0.5-2.2-1-3.7-1.5c-1.5-0.4-2.6-0.8-3.3-1.2S60,62,59.7,61.5c-0.3-0.4-0.4-1-0.4-1.7
				c0-1.1,0.4-1.9,1.2-2.5s1.9-0.9,3.1-0.9c1,0,1.9,0.2,2.8,0.5c0.8,0.4,1.7,0.9,2.6,1.6l1.8-2c-1.1-1-2.2-1.7-3.3-2.1
				c-1.1-0.5-2.5-0.7-3.9-0.8c-1.5,0-2.8,0.3-3.9,0.8c-1.2,0.5-2.1,1.3-2.7,2.2c-0.7,0.9-1,2-1,3.2c0,1.8,0.6,3.2,1.7,4.2
				c1.2,1.1,3,2,5.4,2.7c1.4,0.4,2.5,0.8,3.2,1.2c0.7,0.4,1.2,0.9,1.5,1.4c0.2,0.6,0.4,1.2,0.4,2c0,1.4-0.5,2.5-1.5,3.2
				s-2.2,1.1-3.7,1.1c-1.2,0-2.3-0.2-3.3-0.6s-1.9-1-2.9-1.8l-1.8,2c2.1,2.1,4.8,3.1,8.1,3.1c1.7,0,3.3-0.3,4.5-0.9s2.2-1.4,2.9-2.5
				s1-2.3,1-3.7c0-1.4-0.3-2.6-0.9-3.5C70,66.8,69.2,66,68.2,65.5z"/>
			<polygon class="st0" points="89.7,54.1 72.7,54.1 72.7,56.9 79.5,56.9 79.5,77.9 82.8,77.9 82.8,56.9 89.4,56.9 			"/>
			<path class="st0" d="M96.2,54.1l-7.6,23.8h3.3l1.8-6h9l1.8,6h3.5l-7.6-23.8C100.4,54.1,96.2,54.1,96.2,54.1z M94.4,69.3l3.7-12.5
				l3.7,12.5H94.4z"/>
			<path class="st0" d="M125.1,54.2v13c0,1.2,0.1,2.6,0.2,4.1s0.2,2.5,0.3,3.1l-9.8-20.3h-4.3v23.8h3.1V67c0-1.9,0-3.6-0.1-4.9
				c-0.1-1.3-0.2-2.8-0.3-4.4l9.7,20.2h4.4l-0.1-23.7C128.2,54.2,125.1,54.2,125.1,54.2z"/>
			<polygon class="st0" points="132.3,56.9 139.1,56.9 139.1,77.9 142.4,77.9 142.4,56.9 149,56.9 149.3,54.1 132.3,54.1 			"/>
			<polygon class="st0" points="156.4,75.3 156.4,67.1 164.4,67.1 164.4,64.5 156.4,64.5 156.4,56.7 165.6,56.7 166,54.1 
				153.1,54.1 153.1,77.9 166.3,77.9 166.3,75.3 			"/>
		</g>
		<polygon class="st0" points="18.7,46.7 25,46.7 25,22 32.5,22 33.2,17.1 10.8,17.1 10.8,22 18.7,22 		"/>
		<rect x="36.4" y="17.1" class="st0" width="6.3" height="29.6"/>
		<polygon class="st0" points="66.8,42 55.3,42 55.3,33.8 64.6,33.8 64.6,29.3 55.3,29.3 55.3,21.6 66,21.6 66.7,17.1 49,17.1 
			49,46.6 66.8,46.6 		"/>
		<path class="st0" d="M76.9,34.8c0.1-2,0.2-4.1,0.2-6.4c0-2.2-0.1-4.2-0.2-5.9l5.4,21h6l5-20.9c0,0.6,0,1.6,0,2.9
			c0,2.5,0.1,5.6,0.3,9.2l0.6,12h6.2l-2.3-29.6H90l-4.6,20.4l-4.9-20.4h-8l-2.3,29.6h6.1L76.9,34.8z"/>
		<path class="st0" d="M111.4,36.6h3.4c3.6,0,6.4-0.8,8.5-2.5s3.2-4.2,3.2-7.5c0-3.2-1.1-5.6-3.2-7.2c-2.1-1.5-5.1-2.3-9-2.3h-9.2
			v29.6h6.3C111.4,46.7,111.4,36.6,111.4,36.6z M111.6,21.6h2.8c3.8,0,5.7,1.7,5.7,5c0,1.9-0.5,3.3-1.5,4.1s-2.4,1.3-4.1,1.3h-2.9
			V21.6z"/>
	</g>
</g>
</svg>
