<?xml version="1.0" encoding="utf-8"?>
<!-- Generator: Adobe Illustrator 27.2.0, SVG Export Plug-In . SVG Version: 6.00 Build 0)  -->
<svg version="1.1" id="Capa_1" xmlns="http://www.w3.org/2000/svg" xmlns:xlink="http://www.w3.org/1999/xlink" x="0px" y="0px"
	 viewBox="0 0 186.8 229.9" style="enable-background:new 0 0 186.8 229.9;" xml:space="preserve">
<style type="text/css">
	.st0{fill:#FFFFFF;}
</style>
<g>
	<g>
		<g>
			<path class="st0" d="M63,83.9L21.7,84C7,83.7-3.5,98.3,1.1,112.3l14.5,42.6c2.9,8.8,11.2,14.7,20.5,14.8l113.9,0.1
				c9.3,0.1,17.6-4.1,20.6-12.8l14.9-44.5c4.7-14-5.6-28.7-20.4-28.9l-98.6,0.2L63,83.9z"/>
		</g>
		<g>
			<path class="st0" d="M176.7,11.9c-1.1-1.5-2.4-2.9-3.5-4.4c-0.3-0.4-0.7-0.4-1.1-0.1c-0.8,0.6-1.5,1.2-2.3,1.8
				c-0.4,0.4-0.4,0.7-0.1,1.1c1.2,1.4,2.3,2.8,3.5,4.2c0.1,0.2,0.3,0.3,0.5,0.4c0.2-0.1,0.4-0.1,0.5-0.2c0.8-0.7,1.7-1.3,2.5-2.1
				C176.9,12.7,176.9,12.1,176.7,11.9z"/>
			<g>
				<path class="st0" d="M157.9,5.9c0.1-0.2,0.1-0.4,0.1-0.7c0-1.4,0-2.9,0-4.3c0-0.6-0.3-1-0.9-1c-2.9,0-5.8,0-8.7,0
					c-0.7,0-0.9,0.3-0.9,1c0,1.5,0,3,0,4.5c0,0.3,0.1,0.5,0.2,0.6c-9,2.4-15.6,10.6-15.6,20.3c0,11.6,9.4,21,21,21s21-9.4,21-21
					C174.1,16.4,167.2,8.1,157.9,5.9z M163.2,24.6c-1.8,0.8-3.6,1.6-5.3,2.5c-1.4,0.6-2.8,1.2-4.3,1.8c-1.2,0.5-2.6-0.4-2.6-1.7
					l-0.3-15.7c0-0.5,0.1-1,0.3-1.4c0.4-0.8,1.4-1.3,2.2-1.1c1.1,0.2,1.7,1.1,1.7,2.3c0,3.8,0,7.6,0,11.4c0,0.3,0,0.7,0,1.1
					c2-0.9,3.8-1.7,5.6-2.5c0.3-0.1,0.6-0.3,1-0.4c1.2-0.5,2.4,0,2.9,1C164.8,22.9,164.4,24.1,163.2,24.6z"/>
			</g>
		</g>
	</g>
	<g>
		<path class="st0" d="M25.4,67.8h-3.7v10.1h-3.3V54.1h6.3c3,0,5.2,0.6,6.8,1.7c1.5,1.1,2.3,2.8,2.3,5c0,1.7-0.4,3-1.3,4
			c-0.9,1-2.1,1.8-3.9,2.4L35,77.9h-3.9L25.4,67.8z M25.1,65.3c1.7,0,3-0.4,3.9-1.1c0.9-0.7,1.3-1.8,1.3-3.4c0-1.5-0.4-2.5-1.3-3.2
			s-2.3-1-4.3-1h-2.9v8.6L25.1,65.3L25.1,65.3z"/>
		<path class="st0" d="M52.3,54.1l-0.4,2.6h-9.2v7.8h8v2.6h-8v8.2h9.9v2.6H39.4V54.1H52.3z"/>
		<path class="st0" d="M67.5,54.4c1.1,0.4,2.2,1.1,3.3,2.1l-1.8,2c-0.9-0.7-1.8-1.2-2.6-1.6c-0.9-0.3-1.8-0.5-2.8-0.5
			c-1.2,0-2.3,0.3-3.1,0.9c-0.8,0.6-1.2,1.4-1.2,2.5c0,0.7,0.1,1.3,0.4,1.7c0.3,0.5,0.8,0.9,1.5,1.3c0.7,0.4,1.8,0.8,3.3,1.2
			c1.5,0.5,2.7,1,3.7,1.5s1.8,1.3,2.4,2.2c0.6,0.9,0.9,2.1,0.9,3.5s-0.3,2.6-1,3.7s-1.7,1.9-2.9,2.5s-2.8,0.9-4.5,0.9
			c-3.3,0-6-1-8.1-3.1l1.8-2c1,0.8,1.9,1.4,2.9,1.8s2.1,0.6,3.3,0.6c1.5,0,2.7-0.4,3.7-1.1s1.5-1.8,1.5-3.2c0-0.8-0.2-1.4-0.4-2
			c-0.3-0.5-0.8-1-1.5-1.4s-1.8-0.8-3.2-1.2c-2.4-0.7-4.2-1.6-5.4-2.7c-1.1-1-1.7-2.4-1.7-4.2c0-1.2,0.3-2.3,1-3.2
			c0.6-0.9,1.5-1.7,2.7-2.2c1.1-0.5,2.4-0.8,3.9-0.8C65,53.7,66.4,53.9,67.5,54.4z"/>
		<path class="st0" d="M89.7,54.1l-0.3,2.8h-6.6v21h-3.3v-21h-6.8v-2.8C72.7,54.1,89.7,54.1,89.7,54.1z"/>
		<path class="st0" d="M104.5,77.9l-1.8-6h-9l-1.8,6h-3.3l7.6-23.8h4.2l7.6,23.8H104.5z M94.4,69.3h7.4l-3.7-12.5L94.4,69.3z"/>
		<path class="st0" d="M128.3,77.9h-4.4l-9.7-20.2c0.1,1.6,0.2,3.1,0.3,4.4c0.1,1.3,0.1,3,0.1,4.9v10.9h-3.1V54.1h4.3l9.8,20.3
			c-0.1-0.6-0.2-1.6-0.3-3.1c-0.1-1.5-0.2-2.9-0.2-4.1v-13h3.1L128.3,77.9L128.3,77.9z"/>
		<path class="st0" d="M149.3,54.1l-0.3,2.8h-6.6v21h-3.3v-21h-6.8v-2.8C132.3,54.1,149.3,54.1,149.3,54.1z"/>
		<path class="st0" d="M166,54.1l-0.4,2.6h-9.2v7.8h8v2.6h-8v8.2h9.9v2.6h-13.2V54.1H166z"/>
	</g>
	<g>
		<path class="st0" d="M33.2,17.1L32.5,22H25v24.7h-6.3V22h-7.9v-4.9H33.2z"/>
		<path class="st0" d="M42.7,17.1v29.6h-6.3V17.1H42.7z"/>
		<path class="st0" d="M66.7,17.1L66,21.6H55.3v7.7h9.3v4.5h-9.3V42h11.5v4.6H49V17.1H66.7z"/>
		<path class="st0" d="M100.4,46.7h-6.2l-0.6-12c-0.2-3.6-0.3-6.7-0.3-9.2c0-1.3,0-2.3,0-2.9l-5,20.9h-6l-5.4-21
			c0.1,1.7,0.2,3.7,0.2,5.9c0,2.3-0.1,4.4-0.2,6.4l-0.6,11.9h-6.1l2.3-29.6h8l4.9,20.4L90,17.1h8.1L100.4,46.7z"/>
		<path class="st0" d="M123.3,19.4c2.1,1.6,3.2,4,3.2,7.2c0,3.3-1.1,5.8-3.2,7.5s-4.9,2.5-8.5,2.5h-3.4v10.1h-6.3V17.1h9.2
			C118.2,17.1,121.2,17.9,123.3,19.4z M118.6,30.7c1-0.8,1.5-2.2,1.5-4.1c0-3.3-1.9-5-5.7-5h-2.8V32h2.9
			C116.2,32,117.6,31.5,118.6,30.7z"/>
	</g>
</g>
</svg>
