<?xml version="1.0" encoding="utf-8"?>
<!-- Generator: Adobe Illustrator 27.2.0, SVG Export Plug-In . SVG Version: 6.00 Build 0)  -->
<svg version="1.1" id="Capa_1" xmlns="http://www.w3.org/2000/svg" xmlns:xlink="http://www.w3.org/1999/xlink" x="0px" y="0px"
	 viewBox="0 0 320.2 52" style="enable-background:new 0 0 320.2 52;" xml:space="preserve">
<style type="text/css">
	.st0{fill:#00FFF2;}
</style>
<g>
	<g id="Juego">
		<g>
			<path class="st0" d="M10.5,16.1c0.4,0.1,0.7,0.3,0.8,0.5c0.1,0.2,0.2,0.6,0,1C11,19.2,10.6,21,10.1,23c-0.8,3.2-1.6,6.5-2.3,9.7
				c-0.7,3.2-1.2,5.5-1.4,6.8c-0.3,1.5-0.5,2.8-0.6,3.9c-0.1,1.1-0.2,2.2-0.3,3.3c0,0.4-0.1,0.8-0.1,1c0,0.2,0,0.5-0.1,0.7
				c0,0.2,0,0.5,0,0.7c0,0.3,0,0.5,0,0.7s0,0.4,0,0.6c0,0.3-0.2,0.5-0.4,0.7c-0.3,0.2-0.7,0.3-1.2,0.4c-0.5,0.1-1.1,0.2-1.9,0.2
				c-0.5,0-0.9,0-1.1-0.1c-0.2-0.1-0.4-0.2-0.5-0.3S0,50.9,0,50.5c0-0.5,0-1.1,0.1-1.8c0.1-1.5,0.3-3.1,0.5-4.7
				C0.8,42.5,1,41,1.3,39.4c0.1-0.9,0.5-2.4,1-4.6c0.5-2.2,1.1-4.7,1.8-7.5c0.5-1.9,0.9-3.7,1.4-5.5s0.8-3.2,1.2-4.5
				C6.7,17,6.9,16.7,7,16.5c0.2-0.2,0.4-0.4,0.7-0.4C8,16,8.4,16,8.8,16C9.5,16,10.1,16,10.5,16.1L10.5,16.1z M13.5,3.5
				c0.5,0.4,0.9,0.9,1.1,1.5C14.9,5.5,15,6.1,15,6.7c-0.1,0.7-0.3,1.4-0.7,1.9c-0.4,0.6-0.9,1-1.6,1.4s-1.3,0.5-1.9,0.5
				c-0.6,0-1.1-0.2-1.6-0.5C8.7,9.6,8.3,9.2,8,8.6S7.7,7.4,7.7,6.8c0-0.7,0.3-1.4,0.7-2S9.3,3.8,10,3.4c0.6-0.4,1.3-0.5,1.9-0.5
				C12.5,2.9,13,3.1,13.5,3.5L13.5,3.5z"/>
			<path class="st0" d="M16,51.2c-0.5-0.1-0.8-0.2-0.9-0.4C15,50.6,14.9,50.4,15,50l6-26.5c0.7-3.2,1.4-6.5,1.9-9.9s0.9-6.4,1.1-9.2
				c0-0.3,0.1-0.6,0.3-0.8s0.6-0.3,1.1-0.4c0.5-0.1,1.3-0.1,2.2-0.1c0.4,0,0.7,0,0.9,0.1c0.2,0.1,0.4,0.2,0.5,0.3
				c0.1,0.2,0.1,0.4,0.1,0.7c-0.1,2.9-0.5,6.1-1,9.4c-0.6,3.4-1.2,6.7-2,10l-6,26.6c-0.1,0.3-0.2,0.5-0.3,0.7
				c-0.1,0.2-0.3,0.3-0.6,0.4s-0.6,0.1-1,0.1C17.2,51.4,16.4,51.3,16,51.2L16,51.2z M31.7,26.2c3.2-0.2,6.2-0.4,8.9-0.6
				c0.3,0,0.5,0,0.7,0.1s0.2,0.3,0.2,0.7c0,0.3,0,0.9-0.1,1.6c-0.1,0.5-0.2,0.9-0.3,1.2c-0.1,0.3-0.3,0.5-0.5,0.6S40,29.9,39.7,30
				c-3,0.3-6,0.5-8.9,0.6s-5.5,0.2-7.7,0.3l0.4-4.4C25.7,26.5,28.5,26.4,31.7,26.2L31.7,26.2z M38.9,3c3.2-0.1,6.6-0.3,10-0.5
				c0.4,0,0.6,0,0.8,0.2s0.2,0.3,0.2,0.7s-0.1,0.9-0.2,1.6c-0.1,0.5-0.2,0.9-0.3,1.2s-0.3,0.5-0.5,0.6s-0.4,0.2-0.7,0.2
				c-1.1,0.1-2.4,0.1-3.8,0.2s-3,0.1-5,0.2c-2.4,0.1-4.6,0.2-6.6,0.2s-4.1,0.1-6.2,0.1l1-4.4C31.9,3.1,35.6,3,38.9,3L38.9,3z"/>
			<path class="st0" d="M49.3,50.5c-1.5-1-2.6-2.4-3.3-4.1c-0.7-1.7-1.1-3.7-1.1-5.8c0-3.8,0.8-7.4,2.4-11.1
				c1.6-3.6,3.8-6.6,6.6-8.9s6.1-3.4,9.8-3.4c1.8,0,3.2,0.3,4.5,1s2.2,1.5,2.8,2.7c0.7,1.1,1,2.4,1,3.9c0,3.4-1.3,6.2-4,8.5
				c-2.7,2.3-6.2,4-10.5,5.2s-9.1,1.7-14.4,1.7h-0.1c-0.3,0-0.5-0.1-0.6-0.2s-0.2-0.3-0.2-0.6s0-0.7,0.1-1.3
				c0.1-0.5,0.2-0.9,0.2-1.2c0.1-0.2,0.2-0.4,0.3-0.5c0.1-0.1,0.3-0.1,0.6-0.1c4,0,7.7-0.3,11.3-1.1s6.5-1.9,8.9-3.6
				c2.4-1.7,3.6-3.9,3.6-6.5c0-0.7-0.2-1.4-0.4-1.9c-0.3-0.5-0.7-1-1.3-1.3c-0.6-0.3-1.3-0.5-2.2-0.5c-2.5,0-4.8,1-6.9,3
				s-3.6,4.5-4.8,7.5s-1.7,5.8-1.7,8.6c0,1.5,0.2,2.8,0.6,3.8c0.4,1.1,1,1.9,1.8,2.5s1.8,0.9,3.1,0.9c1.1,0,2.2-0.2,3.2-0.7
				s2-1.1,3-1.9c0.9-0.8,1.8-1.7,2.6-2.8c0.2-0.2,0.3-0.4,0.4-0.5s0.3-0.1,0.4-0.1c0.2,0,0.5,0.1,0.9,0.4c0.4,0.2,0.8,0.5,1.1,0.9
				c0.3,0.3,0.6,0.6,0.8,0.8c0.1,0.3,0.2,0.5,0.1,0.8c-0.1,0.3-0.2,0.5-0.5,0.9C66.2,46.8,65,48,63.8,49s-2.6,1.7-4.1,2.2
				S56.5,52,54.8,52C52.6,52,50.8,51.5,49.3,50.5L49.3,50.5z"/>
			<path class="st0" d="M76.8,50.5c-1-0.7-1.6-1.8-1.9-3.1c-0.3-1.3-0.2-2.9,0.1-4.8c0.1-0.6,0.2-1.3,0.4-2.1c0.2-0.9,0.4-1.9,0.7-3
				L80,20.5c0.1-0.5,0.2-1,0.3-1.4s0.2-0.8,0.3-1.4c0.3-1.3,0.6-2.5,0.8-3.5c0.2-1.1,0.4-2,0.5-2.7c0.3-1.8,0.6-3.5,0.7-5.1
				s0.2-2.9,0.2-4c0-0.4,0-0.7,0-0.9c0-0.3,0.1-0.5,0.1-0.6s0.2-0.3,0.4-0.4c0.2-0.1,0.4-0.2,0.8-0.3c0,0,0.1,0,0.1,0
				c0.3-0.1,0.7-0.1,1-0.1C85.7,0,86.2,0,86.7,0c0.4,0,0.7,0.1,0.9,0.3s0.3,0.5,0.3,0.8c0,0.4,0,0.8,0,1c0,1.3-0.1,2.8-0.2,4.4
				c-0.1,1.6-0.3,3.2-0.6,4.9c-0.2,0.8-0.3,1.5-0.5,2.3c-0.2,0.8-0.4,1.7-0.6,2.7c-0.4,2-0.8,3.6-1.1,4.7l-4,17.5
				c-0.1,0.3-0.1,0.6-0.2,1c-0.1,0.7-0.3,1.3-0.4,1.8s-0.2,1.1-0.4,1.8c-0.2,1-0.2,1.8-0.2,2.4s0.2,1,0.6,1.2
				c0.3,0.2,0.8,0.4,1.4,0.4s1.2-0.1,1.7-0.3c0.5-0.2,1.1-0.4,1.6-0.7c0.3-0.1,0.5-0.2,0.7-0.2s0.3-0.1,0.5-0.1
				c0.2,0,0.4,0.1,0.6,0.4s0.3,0.6,0.4,1.1c0.1,0.5,0.2,1,0.2,1.5c0,0.2,0,0.4-0.1,0.6c-0.1,0.2-0.2,0.3-0.3,0.4s-0.3,0.2-0.5,0.3
				l-0.1,0c-0.8,0.4-1.8,0.7-2.8,1s-2,0.4-2.8,0.4C79.1,51.6,77.8,51.2,76.8,50.5L76.8,50.5z"/>
			<path class="st0" d="M92.8,51.4c-0.4-0.1-0.6-0.2-0.7-0.4s-0.1-0.5,0-1l0.9-3.4c0.3-1.2,0.6-2.4,0.9-3.6c0.6-2.6,1.2-5,1.7-7.2
				c0.5-2.3,0.9-4.4,1.3-6.2c0.3-1.9,0.7-3.6,0.9-5.1c0.2-1.6,0.4-3,0.6-4.4c0-0.3,0-0.6,0.1-0.9c0-0.3,0.1-0.5,0.3-0.7
				s0.5-0.3,0.9-0.4c0.4-0.1,1-0.1,1.7-0.1c0.6,0,1,0,1.3,0.1c0.3,0.1,0.5,0.2,0.6,0.4c0.1,0.2,0.1,0.4,0.1,0.8c0,0.5-0.1,1-0.2,1.6
				c-0.2,1.4-0.4,2.9-0.6,4.5c-0.2,1.6-0.5,3.3-0.9,5c-0.3,1.6-0.7,3.5-1.2,5.7c-0.5,2.2-1.1,4.6-1.7,7c-0.2,0.8-0.4,1.5-0.5,2.1
				s-0.3,1.3-0.5,2l-0.9,3.5c-0.1,0.3-0.2,0.6-0.4,0.7c-0.2,0.2-0.4,0.3-0.7,0.3c-0.3,0.1-0.8,0.1-1.4,0.1
				C93.7,51.5,93.2,51.5,92.8,51.4L92.8,51.4z M101.8,10.3c-0.5-0.3-0.8-0.7-1.1-1.2c-0.3-0.5-0.4-1-0.4-1.5c0-0.8,0.2-1.4,0.6-2.1
				s0.9-1.2,1.5-1.5s1.3-0.6,1.9-0.6c0.6,0,1.1,0.2,1.6,0.5c0.5,0.3,0.8,0.7,1.1,1.2c0.3,0.5,0.4,1,0.4,1.5c0,0.7-0.2,1.4-0.6,2
				c-0.4,0.6-0.9,1.2-1.5,1.6c-0.6,0.4-1.3,0.6-1.9,0.6C102.7,10.8,102.2,10.7,101.8,10.3L101.8,10.3z"/>
			<path class="st0" d="M111.3,50.4c-1.6-1.1-2.8-2.5-3.6-4.3s-1.2-3.9-1.2-6.2c0-3.5,0.7-7,2.1-10.5c1.4-3.5,3.4-6.4,6.1-8.7
				c2.6-2.3,5.6-3.4,9-3.4c2.1,0,3.9,0.5,5.4,1.4c1.5,0.9,2.5,2.1,3.2,3.6s0.9,3.1,0.7,4.9c0,0.3-0.1,0.5-0.3,0.7
				c-0.2,0.2-0.5,0.3-1,0.3s-1.1,0.1-2,0.1c-0.4,0-0.6,0-0.8-0.1c-0.2-0.1-0.3-0.2-0.4-0.3c-0.1-0.1-0.1-0.3-0.1-0.5
				c0.1-1.2-0.1-2.2-0.5-3.1c-0.4-0.9-0.9-1.5-1.7-2c-0.8-0.5-1.7-0.7-2.8-0.7c-2.1,0-4.1,1-5.9,2.9s-3.2,4.3-4.3,7.2
				c-1,2.9-1.6,5.7-1.6,8.4c0,1.6,0.2,2.9,0.7,4.1c0.4,1.2,1.1,2.1,2,2.7s2,1,3.3,1c1,0,1.9-0.2,2.9-0.7c1-0.5,1.9-1.1,2.8-2
				c0.9-0.9,1.7-1.9,2.4-3.2c0.1-0.2,0.2-0.4,0.4-0.5s0.3-0.1,0.5-0.1c0.2,0,0.6,0.1,0.9,0.3c0.4,0.2,0.8,0.5,1.1,0.7
				c0.4,0.3,0.6,0.5,0.8,0.7c0.1,0.2,0.2,0.3,0.2,0.5c0,0.2,0,0.3,0,0.5c0,0.2-0.1,0.3-0.2,0.5c-1,1.6-2.2,2.9-3.4,4s-2.7,2-4.2,2.6
				s-3.1,0.9-4.7,0.9C114.8,52,112.9,51.5,111.3,50.4L111.3,50.4z"/>
			<path class="st0" d="M135,51.4c-0.4-0.1-0.6-0.2-0.7-0.4s-0.1-0.5,0-1l0.9-3.4c0.3-1.2,0.6-2.4,0.9-3.6c0.6-2.6,1.2-5,1.7-7.2
				c0.5-2.3,0.9-4.4,1.3-6.2c0.4-1.9,0.6-3.6,0.9-5.1c0.2-1.6,0.4-3,0.6-4.4c0-0.3,0-0.6,0.1-0.9c0-0.3,0.1-0.5,0.3-0.7
				s0.5-0.3,0.9-0.4c0.4-0.1,1-0.1,1.7-0.1c0.6,0,1,0,1.3,0.1c0.3,0.1,0.5,0.2,0.6,0.4c0.1,0.2,0.1,0.4,0.1,0.8c0,0.5-0.1,1-0.2,1.6
				c-0.2,1.4-0.4,2.9-0.6,4.5c-0.2,1.6-0.5,3.3-0.9,5c-0.3,1.6-0.7,3.5-1.2,5.7c-0.5,2.2-1.1,4.6-1.7,7c-0.2,0.8-0.4,1.5-0.5,2.1
				s-0.3,1.3-0.5,2l-0.9,3.5c-0.1,0.3-0.2,0.6-0.4,0.7c-0.2,0.2-0.4,0.3-0.7,0.3c-0.3,0.1-0.8,0.1-1.4,0.1
				C136,51.5,135.4,51.5,135,51.4L135,51.4z M144,10.3c-0.5-0.3-0.9-0.7-1.1-1.2c-0.3-0.5-0.4-1-0.4-1.5c0-0.8,0.2-1.4,0.6-2.1
				s0.9-1.2,1.5-1.5s1.3-0.6,1.9-0.6c0.6,0,1.1,0.2,1.6,0.5c0.5,0.3,0.9,0.7,1.1,1.2c0.3,0.5,0.4,1,0.4,1.5c0,0.7-0.2,1.4-0.6,2
				c-0.4,0.6-0.9,1.2-1.5,1.6c-0.6,0.4-1.3,0.6-1.9,0.6C145,10.8,144.4,10.7,144,10.3L144,10.3z"/>
			<path class="st0" d="M153.1,50.6c-1.4-1-2.5-2.3-3.2-4.1s-1.1-3.8-1.1-6.1c0-3.7,0.7-7.4,2.2-11s3.5-6.5,6.2-8.8s5.6-3.4,8.8-3.4
				c2,0,3.7,0.5,5.1,1.6c1.4,1.1,2.3,2.5,2.9,4.4c0.6,1.9,0.7,4,0.4,6.4l-2.1,9.5c-0.9,2.5-2.1,4.7-3.5,6.7c-1.4,1.9-3,3.5-4.8,4.5
				s-3.8,1.6-5.9,1.6C156.1,52,154.5,51.5,153.1,50.6L153.1,50.6z M163.6,46.5c1.4-0.8,2.6-2,3.7-3.4c1.1-1.4,2-3,2.6-4.7l1.9-8.6
				c0.3-1.7,0.2-3.2-0.2-4.4s-1.1-2.2-2-2.9c-0.9-0.7-2.1-1-3.4-1c-2.1,0-4.2,1-6.1,2.9c-1.9,1.9-3.5,4.3-4.6,7.3
				c-1.2,2.9-1.7,5.8-1.7,8.7c0,1.5,0.2,2.8,0.7,3.8c0.5,1.1,1.1,2,2,2.6c0.9,0.6,1.9,0.9,3,0.9C160.8,47.7,162.2,47.3,163.6,46.5
				L163.6,46.5z M171.5,51.4c-0.2-0.1-0.3-0.3-0.4-0.7c-0.4-1.3-0.8-2.7-1-4.2s-0.4-3-0.5-4.4s0-2.7,0.3-3.8l1.9-8.9
				c0.2-1,0.4-1.8,0.6-2.6c0.2-0.7,0.4-1.6,0.6-2.5c0.2-0.8,0.3-1.5,0.5-2.1c0.1-0.6,0.3-1.2,0.5-2c0.1-0.4,0.2-0.8,0.3-1.1
				c0.6-2.7,1.1-5.1,1.5-7.1s0.7-3.9,0.9-5.7s0.3-3.5,0.3-5.1c0-0.3,0.1-0.5,0.2-0.7c0.1-0.2,0.4-0.3,0.8-0.3c0.1,0,0.2,0,0.2,0
				c0.3-0.1,0.7-0.1,1.1-0.1c0.4,0,0.8,0,1.2,0c0.4,0,0.6,0,0.8,0.1c0.2,0.1,0.4,0.2,0.5,0.4s0.1,0.4,0.1,0.7c0,1.6-0.1,3.4-0.3,5.2
				s-0.5,3.8-0.9,5.9s-0.9,4.6-1.6,7.5c-0.1,0.3-0.1,0.7-0.2,1l-4,17.5c-0.3,1.1-0.4,2.3-0.4,3.4s0.1,2.3,0.2,3.6
				c0.2,1.3,0.5,2.6,1,4c0.1,0.3,0.1,0.6,0.1,0.8s-0.1,0.4-0.2,0.5c-0.1,0.2-0.3,0.3-0.6,0.4c-0.4,0.2-0.8,0.3-1.4,0.4
				s-1,0.2-1.4,0.2C171.9,51.6,171.6,51.5,171.5,51.4L171.5,51.4z"/>
			<path class="st0" d="M186.9,50.6c-1.4-1-2.5-2.3-3.2-4.1s-1.1-3.8-1.1-6.1c0-3.7,0.7-7.4,2.2-11s3.5-6.5,6.2-8.8s5.6-3.4,8.8-3.4
				c2,0,3.7,0.5,5.1,1.6c1.4,1.1,2.3,2.5,2.9,4.4c0.6,1.9,0.7,4,0.4,6.4l-2.1,9.5c-0.9,2.5-2.1,4.7-3.5,6.7c-1.4,1.9-3,3.5-4.8,4.5
				s-3.8,1.6-5.9,1.6C189.9,52,188.3,51.5,186.9,50.6L186.9,50.6z M197.3,46.5c1.4-0.8,2.6-2,3.7-3.4c1.1-1.4,2-3,2.6-4.7l1.9-8.6
				c0.3-1.7,0.2-3.2-0.2-4.4s-1.1-2.2-2-2.9c-0.9-0.7-2.1-1-3.4-1c-2.1,0-4.2,1-6.1,2.9c-1.9,1.9-3.5,4.3-4.6,7.3
				c-1.2,2.9-1.7,5.8-1.7,8.7c0,1.5,0.2,2.8,0.7,3.8c0.5,1.1,1.1,2,2,2.6c0.9,0.6,1.9,0.9,3,0.9C194.6,47.7,196,47.3,197.3,46.5
				L197.3,46.5z M204.9,51.4c-0.1-0.1-0.3-0.4-0.4-0.8c-0.4-1.2-0.7-2.5-0.9-4s-0.3-2.9-0.3-4.3s0.1-2.8,0.4-3.9l1.9-8.9
				c0.4-1.9,1.1-3.9,1.9-6.1c0.4-0.9,0.7-1.8,1.1-2.7c0.4-0.9,0.8-1.7,1.2-2.5c0.1-0.2,0.2-0.4,0.3-0.5c0.1-0.1,0.2-0.2,0.3-0.2
				c0.1,0,0.3,0,0.5,0c0.5,0,1.1,0.1,1.7,0.4s1.1,0.5,1.4,0.9c0.3,0.4,0.4,0.7,0.2,1.1c-0.5,1-1,2.1-1.4,3.2c-0.8,2-1.5,4.1-2.2,6.3
				c-0.3,0.9-0.5,1.9-0.8,2.9c-0.2,1.1-0.5,2.3-0.8,3.6c-0.1,0.6-0.2,1.1-0.3,1.6c-0.1,0.5-0.2,1-0.4,1.6c-0.2,1-0.3,2.1-0.3,3.2
				s0.1,2.2,0.2,3.2s0.4,2.2,0.7,3.3c0.1,0.4,0.2,0.7,0.2,0.9s-0.1,0.4-0.2,0.5s-0.3,0.3-0.5,0.4c-0.4,0.2-0.9,0.5-1.6,0.6
				c-0.6,0.2-1.1,0.2-1.5,0.2C205.2,51.6,205,51.5,204.9,51.4L204.9,51.4z"/>
			<path class="st0" d="M220.6,50.6c-1.4-1-2.5-2.3-3.2-4.1s-1.1-3.8-1.1-6.1c0-3.7,0.7-7.4,2.2-11s3.5-6.5,6.2-8.8s5.6-3.4,8.8-3.4
				c2,0,3.7,0.5,5.1,1.6c1.4,1.1,2.3,2.5,2.9,4.4c0.6,1.9,0.7,4,0.4,6.4l-2.1,9.5c-0.9,2.5-2.1,4.7-3.5,6.7c-1.4,1.9-3,3.5-4.8,4.5
				s-3.8,1.6-5.9,1.6C223.7,52,222,51.5,220.6,50.6L220.6,50.6z M231.1,46.5c1.4-0.8,2.6-2,3.7-3.4c1.1-1.4,2-3,2.6-4.7l1.9-8.6
				c0.3-1.7,0.2-3.2-0.2-4.4s-1.1-2.2-2-2.9c-0.9-0.7-2.1-1-3.4-1c-2.1,0-4.2,1-6.1,2.9c-1.9,1.9-3.5,4.3-4.6,7.3
				c-1.2,2.9-1.7,5.8-1.7,8.7c0,1.5,0.2,2.8,0.7,3.8c0.5,1.1,1.1,2,2,2.6c0.9,0.6,1.9,0.9,3,0.9C228.4,47.7,229.8,47.3,231.1,46.5
				L231.1,46.5z M239,51.4c-0.2-0.1-0.3-0.3-0.4-0.7c-0.4-1.3-0.8-2.7-1-4.2s-0.4-3-0.5-4.4s0-2.7,0.3-3.8l1.9-8.9
				c0.2-1,0.4-1.8,0.6-2.6c0.2-0.7,0.4-1.6,0.6-2.5c0.2-0.8,0.3-1.5,0.5-2.1c0.1-0.6,0.3-1.2,0.5-2c0.1-0.4,0.2-0.8,0.3-1.1
				c0.6-2.7,1.1-5.1,1.5-7.1s0.7-3.9,0.9-5.7s0.3-3.5,0.3-5.1c0-0.3,0.1-0.5,0.2-0.7c0.1-0.2,0.4-0.3,0.8-0.3c0.1,0,0.2,0,0.2,0
				c0.3-0.1,0.7-0.1,1.1-0.1c0.4,0,0.8,0,1.2,0c0.4,0,0.6,0,0.8,0.1c0.2,0.1,0.4,0.2,0.5,0.4s0.1,0.4,0.1,0.7c0,1.6-0.1,3.4-0.3,5.2
				s-0.5,3.8-0.9,5.9s-0.9,4.6-1.6,7.5c-0.1,0.3-0.1,0.7-0.2,1l-4,17.5c-0.3,1.1-0.4,2.3-0.4,3.4s0.1,2.3,0.2,3.6
				c0.2,1.3,0.5,2.6,1,4c0.1,0.3,0.1,0.6,0.1,0.8s-0.1,0.4-0.2,0.5c-0.1,0.2-0.3,0.3-0.6,0.4c-0.4,0.2-0.8,0.3-1.4,0.4
				s-1,0.2-1.4,0.2C239.4,51.6,239.2,51.5,239,51.4L239,51.4z"/>
			<path class="st0" d="M254.6,50.5c-1.5-1-2.7-2.5-3.4-4.3c-0.7-1.8-1.1-3.9-1.1-6.2c0-3.7,0.8-7.3,2.3-10.9s3.7-6.4,6.5-8.6
				c2.8-2.2,6-3.3,9.5-3.3c1.9,0,3.5,0.3,4.8,1s2.3,1.6,2.9,2.8s1,2.5,1,3.9c0,2.9-1.1,5.4-3.4,7.5c-2.3,2.2-5.3,3.9-9.1,5.2
				s-8,2.1-12.5,2.4l0.4-3.7c3.2-0.3,6.3-0.8,9.3-1.7c3-0.9,5.5-2.1,7.5-3.7c2-1.6,3-3.4,3-5.5c0-0.8-0.2-1.5-0.5-2.1
				c-0.3-0.6-0.8-1.1-1.4-1.4c-0.6-0.4-1.5-0.5-2.4-0.5c-2.6,0-4.8,1-6.7,3s-3.4,4.5-4.4,7.4c-1,2.9-1.5,5.7-1.5,8.4
				c0,1.5,0.2,2.9,0.6,4c0.4,1.1,1,2,1.8,2.6s1.9,0.9,3.1,0.9c1.1,0,2.1-0.2,3.2-0.7s2-1.1,3-2s1.8-1.8,2.5-2.9
				c0.1-0.2,0.3-0.3,0.4-0.4s0.3-0.1,0.5-0.1c0.3,0,0.6,0.2,1.1,0.4s0.9,0.6,1.2,1c0.4,0.4,0.5,0.7,0.5,1c0,0.2,0,0.4-0.1,0.5
				c-0.1,0.2-0.2,0.4-0.4,0.6v0c-1,1.4-2.2,2.6-3.4,3.6c-1.3,1-2.6,1.8-4.1,2.4s-3.1,0.8-4.8,0.8C258.1,51.9,256.2,51.4,254.6,50.5
				L254.6,50.5z"/>
			<path class="st0" d="M283.2,51.1c-1.5-0.6-2.6-1.4-3.6-2.5c-0.9-1-1.5-2.2-1.8-3.6v0c0-0.3-0.1-0.6-0.1-0.8c0-0.2,0-0.4,0-0.6
				c0-0.3,0.2-0.5,0.6-0.8c0.4-0.2,0.8-0.5,1.4-0.6c0.5-0.2,1.1-0.2,1.5-0.2c0.2,0,0.4,0,0.5,0.1s0.2,0.3,0.2,0.5c0,0.1,0,0.2,0,0.2
				c0.2,1,0.6,1.9,1.1,2.6c0.6,0.7,1.3,1.3,2.2,1.7c0.9,0.4,2.1,0.6,3.4,0.6s2.4-0.2,3.5-0.7s1.9-1.1,2.6-2s1-2,1-3.2
				c0-0.9-0.2-1.8-0.7-2.5c-0.5-0.7-1.1-1.4-1.8-1.9c-0.7-0.5-1.7-1.2-3-2c-1.5-0.9-2.7-1.7-3.7-2.5c-0.9-0.7-1.7-1.6-2.4-2.7
				c-0.6-1.1-1-2.3-1-3.7c0-1.9,0.5-3.5,1.5-5c1-1.4,2.3-2.5,4-3.3c1.7-0.8,3.6-1.1,5.8-1.1c1.5,0,3,0.3,4.3,0.8
				c1.3,0.6,2.4,1.3,3.2,2.4s1.2,2.2,1.2,3.5c0,0.2,0,0.4-0.1,0.5s-0.1,0.2-0.2,0.3c-0.1,0.1-0.3,0.2-0.5,0.3
				c-0.3,0.1-0.8,0.3-1.4,0.4c-0.6,0.1-1.1,0.2-1.4,0.2c-0.2,0-0.3-0.1-0.4-0.2s-0.2-0.4-0.2-0.7c-0.1-0.7-0.4-1.3-0.9-1.8
				c-0.5-0.5-1.1-0.9-1.8-1.2c-0.8-0.3-1.5-0.5-2.4-0.5c-1.2,0-2.2,0.2-3.1,0.6c-0.9,0.4-1.6,1-2.2,1.7s-0.8,1.6-0.8,2.6
				c0,0.8,0.2,1.5,0.6,2.1s1,1.1,1.6,1.6c0.7,0.5,1.6,1.1,2.7,1.8c1.6,1,3,1.8,4,2.6c1,0.8,1.9,1.8,2.7,3c0.7,1.2,1.1,2.7,1.1,4.3
				c0,2.2-0.5,4.1-1.7,5.7c-1.1,1.6-2.6,2.8-4.5,3.6s-4,1.2-6.2,1.2C286.4,52,284.7,51.7,283.2,51.1L283.2,51.1z"/>
			<path class="st0" d="M306.7,51.4c-0.5-0.4-0.9-0.9-1.1-1.5c-0.2-0.6-0.4-1.2-0.3-1.8c0-0.7,0.3-1.4,0.7-1.9
				c0.4-0.6,0.9-1,1.5-1.4c0.6-0.3,1.3-0.5,1.9-0.5c0.6,0,1.1,0.2,1.6,0.5c0.5,0.4,0.9,0.8,1.1,1.4c0.2,0.6,0.4,1.2,0.3,1.8
				c0,0.7-0.3,1.4-0.7,2s-0.9,1.1-1.5,1.4c-0.6,0.4-1.3,0.5-2,0.5C307.7,52,307.2,51.8,306.7,51.4L306.7,51.4z M309.7,38.8
				c-0.4-0.1-0.7-0.3-0.8-0.5s-0.2-0.6,0-1c0.4-1.6,0.9-3.4,1.3-5.4c0.8-3.2,1.6-6.5,2.3-9.7c0.7-3.2,1.2-5.5,1.4-6.8
				c0.3-1.4,0.5-2.8,0.6-3.9c0.1-1.1,0.2-2.2,0.3-3.3c0-0.4,0.1-0.8,0.1-1c0-0.2,0-0.5,0-0.7s0-0.4,0-0.7c0-0.3,0-0.5,0-0.7
				s0-0.4,0-0.6c0-0.3,0.2-0.5,0.4-0.7c0.3-0.2,0.6-0.3,1.2-0.4c0.5-0.1,1.1-0.2,1.9-0.2c0.5,0,0.9,0,1.1,0.1
				c0.2,0.1,0.4,0.2,0.5,0.3c0.1,0.2,0.1,0.4,0.1,0.8c0,0.5,0,1.1-0.1,1.8c-0.1,1.5-0.3,3.1-0.5,4.7c-0.2,1.6-0.5,3.1-0.7,4.7
				c-0.1,0.9-0.5,2.4-1,4.6c-0.5,2.2-1.1,4.7-1.8,7.5c-0.5,1.9-0.9,3.7-1.4,5.5s-0.8,3.2-1.2,4.5c-0.1,0.4-0.2,0.7-0.4,0.8
				c-0.2,0.2-0.4,0.3-0.7,0.4c-0.3,0.1-0.6,0.1-1.1,0.1C310.6,38.9,310.1,38.8,309.7,38.8L309.7,38.8z"/>
		</g>
	</g>
</g>
</svg>
