<?xml version="1.0" encoding="UTF-8"?>
<svg xmlns="http://www.w3.org/2000/svg" xmlns:xlink="http://www.w3.org/1999/xlink" viewBox="0 0 156.19 52">
  <defs>
    <clipPath id="clippath">
      <polygon points="-740.31 1825.62 -111.94 1766.83 -118.79 1229.54 -771.13 1404.28 -740.31 1825.62" style="fill: none;"/>
    </clipPath>
  </defs>
  <g style="isolation: isolate;">
    <g id="Juego">
      <g style="mix-blend-mode: multiply;">
        <g style="clip-path: url(#clippath);">
          <g id="Doble_página_13-14.psb" data-name="Doble página 13-14.psb" style="mix-blend-mode: multiply;">
          </g>
        </g>
      </g>
      <g>
        <path d="m10.52,16.1c.42.1.7.27.84.51.15.24.16.56.04.96-.41,1.59-.85,3.4-1.32,5.41-.8,3.24-1.56,6.49-2.28,9.72s-1.2,5.5-1.42,6.77c-.28,1.45-.49,2.75-.62,3.88-.13,1.14-.23,2.25-.32,3.34-.04.43-.08.77-.12,1.02-.01.25-.03.47-.05.69-.02.21-.04.45-.04.7-.02.27-.04.52-.04.74,0,.22-.02.43-.04.63-.02.3-.17.55-.43.74-.26.19-.65.33-1.16.44s-1.13.16-1.85.16c-.5,0-.88-.04-1.12-.11s-.41-.19-.49-.35c-.08-.16-.11-.43-.09-.81.01-.48.04-1.08.09-1.79.12-1.51.28-3.06.49-4.66.21-1.59.44-3.14.7-4.66.15-.87.49-2.4,1.01-4.6.52-2.2,1.13-4.7,1.82-7.5.48-1.91.94-3.73,1.37-5.46.43-1.73.82-3.24,1.16-4.51.08-.36.21-.65.39-.85.17-.2.4-.35.68-.43.28-.08.64-.12,1.09-.12.73,0,1.3.05,1.71.15Zm3-12.64c.49.38.86.86,1.12,1.46.25.6.36,1.19.32,1.77-.05.71-.27,1.36-.68,1.94s-.92,1.04-1.55,1.38c-.63.34-1.27.51-1.94.51-.59,0-1.13-.18-1.62-.54-.5-.36-.87-.83-1.12-1.41s-.35-1.17-.31-1.77c.04-.71.26-1.37.67-1.96.41-.59.92-1.07,1.55-1.42.62-.36,1.27-.54,1.95-.54.59,0,1.12.19,1.62.56Z" style="fill: #00fff2;"/>
        <path d="m17.4,51.22c-.48-.09-.78-.22-.89-.4-.11-.18-.13-.44-.04-.78l6.01-26.49c.71-3.24,1.36-6.54,1.92-9.88.57-3.34.93-6.43,1.1-9.25,0-.33.11-.59.34-.79.23-.2.61-.34,1.13-.43s1.26-.13,2.2-.13c.35,0,.64.03.86.1.22.06.39.18.49.33.11.16.15.38.14.66-.13,2.92-.47,6.05-1.03,9.41s-1.22,6.7-1.99,10.02l-6.04,26.6c-.07.28-.17.51-.3.68-.13.17-.32.3-.57.38-.25.08-.6.12-1.04.12-1.04,0-1.8-.04-2.28-.13Zm.46-21.33c-.13-.09-.21-.24-.23-.45-.02-.21,0-.52.05-.93.09-.8.21-1.4.34-1.8.13-.4.29-.68.47-.83.18-.15.41-.21.68-.2,5.55.09,10.82.12,15.82.08,4.99-.04,10.47-.18,16.43-.41l-.88,4.25c-6.11.25-11.95.41-17.5.48-5.55.08-10.42.06-14.62-.04-.26-.01-.45-.06-.58-.15Zm26.73,21.33c-.49-.09-.79-.22-.9-.4-.12-.18-.13-.44-.04-.78l6.01-26.49c.74-3.24,1.38-6.54,1.94-9.88.56-3.34.92-6.43,1.08-9.25,0-.33.12-.59.35-.79.23-.2.62-.34,1.14-.43.53-.09,1.25-.13,2.18-.13.36,0,.65.03.87.1.22.06.38.18.5.33.12.16.16.38.12.66-.12,2.92-.45,6.05-1.01,9.41-.56,3.36-1.22,6.7-1.98,10.02l-6.1,26.6c-.05.28-.14.51-.27.68-.13.17-.33.3-.58.38-.25.08-.59.12-1.03.12-1.04,0-1.81-.04-2.29-.13Z" style="fill: #00fff2;"/>
        <path d="m63.17,50.27c-1.6-1.15-2.79-2.71-3.58-4.66-.79-1.96-1.18-4.13-1.18-6.53,0-3.28.67-6.61,2.02-10,1.35-3.39,3.31-6.21,5.88-8.45,2.58-2.24,5.6-3.36,9.06-3.36,2.37,0,4.35.57,5.96,1.72,1.6,1.15,2.8,2.7,3.58,4.65.78,1.95,1.18,4.12,1.18,6.51,0,3.3-.67,6.65-2.02,10.03-1.35,3.38-3.31,6.2-5.88,8.46-2.58,2.25-5.6,3.38-9.08,3.38-2.37,0-4.35-.58-5.95-1.73Zm12.46-5.51c1.74-1.94,3.1-4.31,4.07-7.1.97-2.79,1.45-5.32,1.45-7.61,0-1.6-.23-3.05-.68-4.33-.46-1.28-1.16-2.3-2.1-3.06-.94-.76-2.12-1.13-3.54-1.13-2.21,0-4.19.97-5.93,2.92-1.74,1.94-3.09,4.3-4.05,7.08-.96,2.78-1.44,5.32-1.44,7.64,0,1.62.22,3.06.68,4.33s1.14,2.28,2.08,3.04c.94.76,2.11,1.13,3.53,1.13,2.21,0,4.19-.97,5.94-2.92Z" style="fill: #00fff2;"/>
        <path d="m92.66,50.5c-.97-.72-1.6-1.75-1.9-3.08-.29-1.33-.25-2.94.12-4.81.12-.62.25-1.31.4-2.07.18-.89.39-1.9.65-3.02l3.88-17.06c.13-.53.24-.98.33-1.37s.2-.84.32-1.37c.3-1.28.57-2.46.81-3.54s.4-1.98.51-2.7c.34-1.84.57-3.53.7-5.07s.2-2.87.21-3.98c.04-.41.04-.7.02-.88.01-.26.06-.47.14-.63.08-.16.22-.3.4-.41.19-.11.44-.2.77-.27.02-.01.06-.02.11-.04.32-.06.66-.11,1.04-.14s.81-.05,1.32-.05c.36,0,.66.09.9.26.23.18.35.46.33.84.01.43.02.77.02,1.02-.04,1.33-.11,2.79-.24,4.36s-.32,3.19-.59,4.85c-.15.75-.31,1.52-.46,2.3-.16.78-.36,1.67-.61,2.67-.41,1.99-.76,3.57-1.05,4.74l-4.01,17.51c-.07.3-.14.63-.21.97-.14.7-.26,1.3-.36,1.8-.1.5-.22,1.08-.36,1.75-.19,1.02-.25,1.82-.19,2.39.06.57.25.99.59,1.24.33.25.81.38,1.43.38s1.18-.09,1.7-.26c.53-.18,1.07-.42,1.62-.72.26-.09.47-.18.65-.25s.33-.11.47-.1c.2-.01.39.12.57.39.18.27.33.64.44,1.12.11.47.17.99.18,1.54,0,.23-.04.44-.12.61-.08.17-.2.31-.34.42-.15.11-.32.22-.54.32l-.11.04c-.83.39-1.77.72-2.82.99-1.05.27-1.98.41-2.79.41-1.66,0-2.98-.36-3.95-1.08Z" style="fill: #00fff2;"/>
        <path d="m112.09,50.56c-1.41-.96-2.48-2.32-3.22-4.07-.74-1.75-1.12-3.77-1.12-6.07,0-3.71.74-7.36,2.22-10.95,1.48-3.59,3.54-6.53,6.17-8.81,2.63-2.28,5.56-3.43,8.78-3.43,2.04,0,3.73.53,5.09,1.59,1.35,1.06,2.32,2.53,2.9,4.42.58,1.89.73,4.03.45,6.43l-2.14,9.47c-.94,2.51-2.1,4.73-3.48,6.67s-2.98,3.45-4.8,4.55c-1.82,1.09-3.77,1.64-5.87,1.64-1.92,0-3.58-.48-4.99-1.44Zm10.48-4.1c1.36-.84,2.6-1.96,3.7-3.37,1.1-1.41,1.97-2.97,2.6-4.68l1.92-8.61c.26-1.71.19-3.19-.2-4.44-.39-1.25-1.05-2.21-1.99-2.86-.93-.66-2.06-.98-3.38-.98-2.14,0-4.18.95-6.1,2.85-1.92,1.9-3.46,4.32-4.62,7.26-1.16,2.94-1.74,5.84-1.74,8.71,0,1.46.23,2.75.68,3.85.46,1.1,1.11,1.96,1.97,2.59.85.63,1.86.94,3.02.94,1.39,0,2.77-.42,4.14-1.26Zm7.54,4.92c-.15-.12-.29-.37-.4-.75-.39-1.21-.69-2.53-.91-3.98-.22-1.45-.33-2.89-.33-4.33,0-1.44.12-2.75.39-3.92l1.95-8.92c.42-1.86,1.05-3.88,1.88-6.06.35-.94.72-1.84,1.11-2.71.39-.87.78-1.69,1.18-2.45.11-.21.21-.38.31-.5s.21-.2.33-.22c.12-.02.28-.04.47-.04.5,0,1.06.12,1.67.36.61.24,1.09.54,1.43.91.34.37.43.73.25,1.08-.5,1.01-.97,2.08-1.41,3.21-.78,1.96-1.5,4.07-2.16,6.34-.26.88-.51,1.85-.76,2.92-.25,1.07-.52,2.27-.83,3.59-.12.6-.22,1.13-.32,1.61s-.21,1.02-.35,1.62c-.21,1.03-.32,2.09-.33,3.17-.01,1.08.07,2.17.25,3.25.18,1.08.42,2.18.72,3.28.11.39.16.69.16.9s-.05.39-.16.54-.26.28-.47.4c-.41.25-.92.45-1.55.62s-1.11.25-1.48.25c-.28,0-.5-.06-.65-.18Z" style="fill: #00fff2;"/>
        <path d="m142.67,51.4c-.49-.38-.86-.86-1.12-1.46-.25-.6-.36-1.19-.33-1.77.05-.71.27-1.36.68-1.94.4-.58.92-1.04,1.55-1.38.63-.34,1.27-.51,1.94-.51.59,0,1.13.18,1.62.54.5.36.87.83,1.12,1.41.25.58.35,1.17.31,1.77-.04.71-.26,1.37-.67,1.96-.41.59-.93,1.07-1.55,1.42-.62.36-1.27.54-1.95.54-.59,0-1.12-.19-1.62-.56Zm3-12.64c-.42-.1-.7-.27-.84-.51-.15-.24-.16-.56-.04-.96.41-1.59.85-3.4,1.32-5.41.8-3.24,1.56-6.49,2.28-9.72.73-3.24,1.2-5.5,1.42-6.77.28-1.45.49-2.75.61-3.88.13-1.14.23-2.25.32-3.34.04-.43.08-.77.12-1.02.01-.25.03-.47.05-.69.02-.21.04-.45.04-.7.02-.27.04-.52.04-.74,0-.22.02-.43.04-.63.02-.3.17-.55.43-.74.26-.19.65-.33,1.16-.44.51-.11,1.13-.16,1.85-.16.5,0,.88.04,1.12.11s.41.19.49.35c.08.16.11.43.09.81-.01.48-.04,1.08-.09,1.79-.12,1.51-.28,3.06-.49,4.66-.21,1.59-.45,3.14-.7,4.66-.15.87-.49,2.4-1.01,4.6-.52,2.2-1.13,4.7-1.82,7.5-.48,1.91-.94,3.73-1.37,5.46s-.82,3.24-1.16,4.51c-.08.36-.21.65-.39.85-.18.21-.4.35-.69.43-.28.08-.64.12-1.09.12-.73,0-1.3-.05-1.71-.15Z" style="fill: #00fff2;"/>
      </g>
    </g>
  </g>
</svg>