<?xml version="1.0" encoding="utf-8"?>
<!-- Generator: Adobe Illustrator 27.2.0, SVG Export Plug-In . SVG Version: 6.00 Build 0)  -->
<svg version="1.1" id="Capa_1" xmlns="http://www.w3.org/2000/svg" xmlns:xlink="http://www.w3.org/1999/xlink" x="0px" y="0px"
	 viewBox="0 0 315 88.2" style="enable-background:new 0 0 315 88.2;" xml:space="preserve">
<style type="text/css">
	.st0{fill:url(#SVGID_1_);stroke:#FFFFFF;stroke-width:2;stroke-miterlimit:10;}
	.st1{fill:#FFFFFF;}
	.elemento-svg{
		cursor: pointer;
	}
</style>
<g class="elemento-svg" id="Capa_2_00000085217330264347815910000003748120032858469039_">
	<g>
		
			<linearGradient id="SVGID_1_" gradientUnits="userSpaceOnUse" x1="16033.3398" y1="-12898.1348" x2="16540.0098" y2="-12898.1348" gradientTransform="matrix(-1 0 0 -1 16470.5195 -12854.0195)">
			<stop  offset="0" style="stop-color:#C104AE"/>
			<stop  offset="0.19" style="stop-color:#B803B1"/>
			<stop  offset="0.49" style="stop-color:#A202BC"/>
			<stop  offset="0.86" style="stop-color:#7E00CD"/>
			<stop  offset="1" style="stop-color:#6F00D5"/>
		</linearGradient>
		<path class="st0" d="M37.1,86.6l240.7,0.7c9.2,0,17.4-5.9,20.3-14.6l14.6-43.3C317.5,15.4,307.2,1,292.5,1h-270
			C7.8,1-2.6,15.4,2.2,29.3l14.6,44.3C19.8,82.4,27.9,86.6,37.1,86.6z"/>
		<g>
			<path class="st1" d="M102.5,30.4L90.9,57.4h-6l-4.3-27h5.3l2.6,22.4l8.8-22.4C97.3,30.4,102.5,30.4,102.5,30.4z"/>
			<path class="st1" d="M115.3,47.4c-2.4,1.2-5.7,2-9.7,2.4c0.1,2.9,1.4,4.3,4,4.3c0.9,0,1.8-0.2,2.7-0.5s1.8-0.8,2.7-1.5l1.9,3.1
				c-2.5,1.8-5.1,2.7-7.8,2.7s-4.9-0.8-6.3-2.3s-2.2-3.6-2.2-6.3c0-2.1,0.4-4.1,1.2-6.1c0.8-2,2-3.7,3.7-5s3.8-2,6.4-2
				c1.5,0,2.8,0.2,3.9,0.7c1.1,0.5,1.9,1.2,2.4,2s0.8,1.7,0.8,2.7C118.9,44.3,117.7,46.2,115.3,47.4L115.3,47.4z M111.9,45
				c1.3-0.8,1.9-1.8,1.9-3.1c0-0.5-0.2-1-0.6-1.5s-1-0.6-1.8-0.6c-1.6,0-2.9,0.7-3.8,2s-1.5,2.9-1.8,4.8
				C108.6,46.3,110.6,45.8,111.9,45L111.9,45z"/>
			<path class="st1" d="M136,36.5l-1.4,4.8c-0.6-0.2-1.2-0.2-1.7-0.2c-1.2,0-2.3,0.5-3.1,1.6s-1.6,2.6-2.3,4.6L126,57.4h-4.9
				l2.9-20.6h4.3l-0.2,4c0.8-1.5,1.6-2.7,2.6-3.4c1-0.8,2.1-1.2,3.3-1.2C134.7,36.2,135.3,36.3,136,36.5L136,36.5z"/>
			<path class="st1" d="M164.8,36.8l-9.5,20.6h-5.9l-3.9-20.6h5.3l2,16.6l6.7-16.6L164.8,36.8L164.8,36.8z"/>
			<path class="st1" d="M172.7,36.8l-2.9,20.6h-4.9l2.9-20.6C167.8,36.8,172.7,36.8,172.7,36.8z M169,31.6c-0.5-0.5-0.8-1.1-0.8-1.9
				c0-1,0.3-1.8,1-2.4c0.6-0.6,1.5-1,2.4-1c0.8,0,1.5,0.2,2,0.8s0.8,1.2,0.8,2c0,0.9-0.3,1.7-1,2.4c-0.6,0.6-1.5,1-2.4,1
				C170.2,32.3,169.6,32.1,169,31.6z"/>
			<path class="st1" d="M196.8,28.5l-4.1,28.9h-4.3l0-3.2c-1.6,2.5-3.7,3.7-6.2,3.7c-2.1,0-3.7-0.7-4.8-2.2s-1.7-3.5-1.7-6.1
				c0-2,0.3-4.1,1-6.2s1.8-3.8,3.2-5.2c1.5-1.4,3.3-2.1,5.5-2.1c2,0,3.7,0.8,4.9,2.3l1.5-10.4L196.8,28.5L196.8,28.5z M183.2,41.5
				c-0.9,1.1-1.4,2.4-1.8,3.9s-0.5,3-0.5,4.5c0,2.9,0.9,4.3,2.8,4.3c1,0,1.9-0.4,2.7-1.1s1.6-1.8,2.5-3.1l1.1-8.1
				c-0.5-0.7-1-1.1-1.5-1.5s-1.2-0.5-1.9-0.5C185.2,39.9,184.1,40.5,183.2,41.5L183.2,41.5z"/>
			<path class="st1" d="M213.3,47.4c-2.4,1.2-5.6,2-9.7,2.4c0.1,2.9,1.4,4.3,4,4.3c0.9,0,1.8-0.2,2.7-0.5s1.8-0.8,2.7-1.5l1.9,3.1
				c-2.5,1.8-5.1,2.7-7.8,2.7s-4.9-0.8-6.3-2.3s-2.2-3.6-2.2-6.3c0-2.1,0.4-4.1,1.1-6.1c0.8-2,2-3.7,3.7-5s3.8-2,6.4-2
				c1.5,0,2.8,0.2,3.9,0.7s1.9,1.2,2.4,2s0.8,1.7,0.8,2.7C217,44.3,215.8,46.2,213.3,47.4L213.3,47.4z M209.9,45
				c1.3-0.8,1.9-1.8,1.9-3.1c0-0.5-0.2-1-0.6-1.5c-0.4-0.4-1-0.6-1.8-0.6c-1.6,0-2.9,0.7-3.8,2s-1.5,2.9-1.9,4.8
				C206.6,46.3,208.6,45.8,209.9,45L209.9,45z"/>
			<path class="st1" d="M221,55.7c-1.4-1.5-2.2-3.7-2.2-6.4c0-2,0.4-4,1.1-6s1.9-3.7,3.6-5c1.7-1.3,3.8-2,6.4-2s4.7,0.8,6.1,2.3
				s2.2,3.7,2.2,6.3c0,2-0.4,4-1.1,6c-0.7,2-1.9,3.7-3.6,5c-1.7,1.4-3.8,2-6.4,2S222.4,57.2,221,55.7L221,55.7z M230.9,52.6
				c0.9-1.1,1.5-2.4,1.8-3.9c0.3-1.5,0.5-3,0.5-4.4c0-2.9-1.2-4.3-3.5-4.3c-1.4,0-2.6,0.5-3.4,1.6s-1.5,2.3-1.8,3.8
				c-0.4,1.5-0.5,2.9-0.5,4.3c0,3,1.2,4.5,3.5,4.5C228.8,54.2,230,53.6,230.9,52.6L230.9,52.6z"/>
		</g>
	</g>
</g>
</svg>
