<?xml version="1.0" encoding="utf-8"?>
<!-- Generator: Adobe Illustrator 27.2.0, SVG Export Plug-In . SVG Version: 6.00 Build 0)  -->
<svg version="1.1" id="Capa_1" xmlns="http://www.w3.org/2000/svg" xmlns:xlink="http://www.w3.org/1999/xlink" x="0px" y="0px"
	 viewBox="0 0 315 88.2" style="enable-background:new 0 0 315 88.2;" xml:space="preserve">
<style type="text/css">
	.st0{fill:url(#SVGID_1_);stroke:#FFFFFF;stroke-width:2;stroke-miterlimit:10;}
	.st1{fill:#FFFFFF;}
	.classVovlerPoppup{
		cursor: pointer;
	}
</style>
<g class="classVovlerPoppup" id="Capa_2_00000166643793954712560840000002983037009034143362_">
	<g>
		
			<linearGradient id="SVGID_1_" gradientUnits="userSpaceOnUse" x1="19478.75" y1="-7632.625" x2="19985.4199" y2="-7632.625" gradientTransform="matrix(-1 0 0 1 19915.9297 7676.7402)">
			<stop  offset="0" style="stop-color:#C104AE"/>
			<stop  offset="0.19" style="stop-color:#B803B1"/>
			<stop  offset="0.49" style="stop-color:#A202BC"/>
			<stop  offset="0.86" style="stop-color:#7E00CD"/>
			<stop  offset="1" style="stop-color:#6F00D5"/>
		</linearGradient>
		<path class="st0" d="M37.1,2.7L277.9,1c9.2,0,17.4,5.9,20.3,14.6l14.6,43.3c4.7,13.9-5.6,28.3-20.3,28.3h-270
			c-14.7,0-25-14.4-20.3-28.3l14.6-43.3C19.8,6.9,27.9,2.7,37.1,2.7z"/>
		<g>
			<path class="st1" d="M125.7,29l-11.7,27h-6l-4.3-27h5.3l2.6,22.4l8.8-22.4H125.7L125.7,29z"/>
			<path class="st1" d="M126,54.3c-1.4-1.5-2.2-3.7-2.2-6.4c0-2,0.4-4,1.1-6s1.9-3.7,3.6-5c1.7-1.3,3.8-2,6.4-2s4.7,0.8,6.1,2.3
				s2.2,3.7,2.2,6.3c0,2-0.4,4-1.1,6c-0.7,2-1.9,3.7-3.6,5c-1.7,1.4-3.8,2-6.4,2S127.4,55.8,126,54.3L126,54.3z M135.8,51.2
				c0.9-1.1,1.5-2.4,1.8-3.9c0.3-1.5,0.5-3,0.5-4.4c0-2.9-1.2-4.3-3.5-4.3c-1.4,0-2.6,0.5-3.4,1.6c-0.9,1-1.5,2.3-1.8,3.8
				c-0.4,1.5-0.5,2.9-0.5,4.3c0,3,1.2,4.5,3.5,4.5C133.8,52.8,134.9,52.3,135.8,51.2L135.8,51.2z"/>
			<path class="st1" d="M151.6,51.1l0,0.4c0,0.4,0.1,0.6,0.2,0.8c0.2,0.2,0.4,0.2,0.7,0.2c0.3,0,0.6-0.1,1.2-0.2l0.7,3.5
				c-1.1,0.5-2.2,0.7-3.4,0.7c-1.4,0-2.4-0.4-3.2-1.1c-0.8-0.7-1.1-1.8-1.1-3.3c0-0.5,0-1,0.1-1.3l3.4-23.8l5-0.5L151.6,51.1
				L151.6,51.1z"/>
			<path class="st1" d="M176.3,35.4L166.8,56H161l-3.9-20.6h5.3l2,16.6l6.7-16.6C171.1,35.4,176.3,35.4,176.3,35.4z"/>
			<path class="st1" d="M190.9,46c-2.4,1.2-5.6,2-9.7,2.4c0.1,2.9,1.4,4.3,4,4.3c0.9,0,1.8-0.2,2.7-0.5s1.8-0.8,2.7-1.5l1.9,3.1
				c-2.5,1.8-5.1,2.7-7.8,2.7s-4.9-0.8-6.3-2.3s-2.2-3.6-2.2-6.3c0-2.1,0.4-4.1,1.1-6.1c0.8-2,2-3.7,3.7-5s3.8-2,6.4-2
				c1.5,0,2.8,0.2,3.9,0.7s1.9,1.2,2.4,2s0.8,1.7,0.8,2.7C194.6,42.9,193.3,44.8,190.9,46L190.9,46z M187.5,43.6
				c1.3-0.8,1.9-1.8,1.9-3.1c0-0.5-0.2-1-0.6-1.5c-0.4-0.4-1-0.6-1.8-0.6c-1.6,0-2.9,0.7-3.8,2s-1.5,2.9-1.9,4.8
				C184.2,44.9,186.2,44.4,187.5,43.6L187.5,43.6z"/>
			<path class="st1" d="M211.7,35.1l-1.4,4.8c-0.6-0.2-1.2-0.2-1.7-0.2c-1.2,0-2.3,0.5-3.1,1.6s-1.6,2.6-2.3,4.6L201.6,56h-4.9
				l2.9-20.6h4.2l-0.2,4c0.8-1.5,1.6-2.7,2.6-3.4c1-0.8,2.1-1.2,3.3-1.2C210.3,34.8,211,34.9,211.7,35.1L211.7,35.1z"/>
		</g>
	</g>
</g>
</svg>
