<?xml version="1.0" encoding="UTF-8"?>
<svg id="Juego" xmlns="http://www.w3.org/2000/svg" xmlns:xlink="http://www.w3.org/1999/xlink" viewBox="0 0 129.05 130.98">
  <defs>
    <filter id="outer-glow-1" filterUnits="userSpaceOnUse">
      <feOffset dx="0" dy="0"/>
      <feGaussianBlur result="blur" stdDeviation="6"/>
      <feFlood flood-color="#43fff1" flood-opacity="1"/>
      <feComposite in2="blur" operator="in"/>
      <feComposite in="SourceGraphic"/>
    </filter>
    <filter id="outer-glow-2" filterUnits="userSpaceOnUse">
      <feOffset dx="0" dy="0"/>
      <feGaussianBlur result="blur-2" stdDeviation="6"/>
      <feFlood flood-color="#43fff1" flood-opacity="1"/>
      <feComposite in2="blur-2" operator="in"/>
      <feComposite in="SourceGraphic"/>
    </filter>
    <filter id="outer-glow-3" filterUnits="userSpaceOnUse">
      <feOffset dx="0" dy="0"/>
      <feGaussianBlur result="blur-3" stdDeviation="4"/>
      <feFlood flood-color="#43fff1" flood-opacity="1"/>
      <feComposite in2="blur-3" operator="in"/>
      <feComposite in="SourceGraphic"/>
    </filter>
    <filter id="outer-glow-4" filterUnits="userSpaceOnUse">
      <feOffset dx="0" dy="0"/>
      <feGaussianBlur result="blur-4" stdDeviation="4"/>
      <feFlood flood-color="#43fff1" flood-opacity="1"/>
      <feComposite in2="blur-4" operator="in"/>
      <feComposite in="SourceGraphic"/>
    </filter>
    <filter id="outer-glow-5" filterUnits="userSpaceOnUse">
      <feOffset dx="0" dy="0"/>
      <feGaussianBlur result="blur-5" stdDeviation="4"/>
      <feFlood flood-color="#43fff1" flood-opacity="1"/>
      <feComposite in2="blur-5" operator="in"/>
      <feComposite in="SourceGraphic"/>
    </filter>
    <filter id="outer-glow-6" filterUnits="userSpaceOnUse">
      <feOffset dx="0" dy="0"/>
      <feGaussianBlur result="blur-6" stdDeviation="6"/>
      <feFlood flood-color="#43fff1" flood-opacity="1"/>
      <feComposite in2="blur-6" operator="in"/>
      <feComposite in="SourceGraphic"/>
    </filter>
    <filter id="outer-glow-7" filterUnits="userSpaceOnUse">
      <feOffset dx="0" dy="0"/>
      <feGaussianBlur result="blur-7" stdDeviation="6"/>
      <feFlood flood-color="#43fff1" flood-opacity="1"/>
      <feComposite in2="blur-7" operator="in"/>
      <feComposite in="SourceGraphic"/>
    </filter>
    <clipPath id="clippath">
      <polygon points="2771.26 993.06 2399.02 993.06 2399.02 468.5 2781.26 468.5 2771.26 993.06" style="fill: none;"/>
    </clipPath>
    <clipPath id="clippath-1">
      <polygon points="2794.3 988.67 2285.17 988.44 2187.58 919.98 2089.98 988.35 2063.55 988.34 2053.39 988.33 1392.26 988.03 1392.26 303.56 2794.3 304.2 2794.3 988.67" style="fill: none;"/>
    </clipPath>
  </defs>
  <g>
    <g>
      <g>
        <path d="m35.27,112.18C10.1,96.73,2.23,63.8,17.69,38.63l2.39-3.89C35.54,9.58,68.47,1.71,93.63,17.16c25.16,15.46,33.03,48.38,17.58,73.55l-2.39,3.89c-1.3,2.12-2.74,4.11-4.27,5.98l1.74,21.17-18.51-7.61c-16.08,8.28-35.97,8.2-52.51-1.96Z" style="fill: #fff;"/>
        <g>
          <g>
            <g>
              <g style="filter: url(#outer-glow-3);">
                <path d="m35.71,112.51C10.43,96.98,2.52,63.9,18.05,38.62l2.4-3.91C35.98,9.42,69.07,1.51,94.35,17.04c25.28,15.53,33.19,48.61,17.66,73.89l-2.4,3.91c-1.31,2.13-2.75,4.13-4.29,6.01l1.75,21.27-18.6-7.65c-16.16,8.32-36.14,8.23-52.75-1.97Z" style="fill: none; stroke: #69fff4; stroke-miterlimit: 10;"/>
                <path d="m35.71,112.51C10.43,96.98,2.52,63.9,18.05,38.62l2.4-3.91C35.98,9.42,69.07,1.51,94.35,17.04c25.28,15.53,33.19,48.61,17.66,73.89l-2.4,3.91c-1.31,2.13-2.75,4.13-4.29,6.01l1.75,21.27-18.6-7.65c-16.16,8.32-36.14,8.23-52.75-1.97Z" style="fill: none; stroke: #fff; stroke-miterlimit: 10; stroke-width: .5px;"/>
              </g>
              <g style="filter: url(#outer-glow-4);">
                <path d="m35.71,112.51C10.43,96.98,2.52,63.9,18.05,38.62l2.4-3.91C35.98,9.42,69.07,1.51,94.35,17.04c25.28,15.53,33.19,48.61,17.66,73.89l-2.4,3.91c-1.31,2.13-2.75,4.13-4.29,6.01l1.75,21.27-18.6-7.65c-16.16,8.32-36.14,8.23-52.75-1.97Z" style="fill: none; stroke: #69fff4; stroke-miterlimit: 10;"/>
                <path d="m35.71,112.51C10.43,96.98,2.52,63.9,18.05,38.62l2.4-3.91C35.98,9.42,69.07,1.51,94.35,17.04c25.28,15.53,33.19,48.61,17.66,73.89l-2.4,3.91c-1.31,2.13-2.75,4.13-4.29,6.01l1.75,21.27-18.6-7.65c-16.16,8.32-36.14,8.23-52.75-1.97Z" style="fill: none; stroke: #fff; stroke-miterlimit: 10; stroke-width: .5px;"/>
              </g>
              <g style="filter: url(#outer-glow-5);">
                <path d="m35.71,112.51C10.43,96.98,2.52,63.9,18.05,38.62l2.4-3.91C35.98,9.42,69.07,1.51,94.35,17.04c25.28,15.53,33.19,48.61,17.66,73.89l-2.4,3.91c-1.31,2.13-2.75,4.13-4.29,6.01l1.75,21.27-18.6-7.65c-16.16,8.32-36.14,8.23-52.75-1.97Z" style="fill: none; stroke: #69fff4; stroke-miterlimit: 10;"/>
                <path d="m35.71,112.51C10.43,96.98,2.52,63.9,18.05,38.62l2.4-3.91C35.98,9.42,69.07,1.51,94.35,17.04c25.28,15.53,33.19,48.61,17.66,73.89l-2.4,3.91c-1.31,2.13-2.75,4.13-4.29,6.01l1.75,21.27-18.6-7.65c-16.16,8.32-36.14,8.23-52.75-1.97Z" style="fill: none; stroke: #fff; stroke-miterlimit: 10; stroke-width: .5px;"/>
              </g>
            </g>
            <g>
              <path d="m35.71,112.51C10.43,96.98,2.52,63.9,18.05,38.62l2.4-3.91C35.98,9.42,69.07,1.51,94.35,17.04c25.28,15.53,33.19,48.61,17.66,73.89l-2.4,3.91c-1.31,2.13-2.75,4.13-4.29,6.01l1.75,21.27-18.6-7.65c-16.16,8.32-36.14,8.23-52.75-1.97Z" style="fill: none; stroke: #69fff4; stroke-miterlimit: 10;"/>
              <path d="m35.71,112.51C10.43,96.98,2.52,63.9,18.05,38.62l2.4-3.91C35.98,9.42,69.07,1.51,94.35,17.04c25.28,15.53,33.19,48.61,17.66,73.89l-2.4,3.91c-1.31,2.13-2.75,4.13-4.29,6.01l1.75,21.27-18.6-7.65c-16.16,8.32-36.14,8.23-52.75-1.97Z" style="fill: none; stroke: #fff; stroke-miterlimit: 10; stroke-width: .5px;"/>
            </g>
          </g>
          <g>
            <g style="filter: url(#outer-glow-6);">
              <path d="m35.71,112.51C10.43,96.98,2.52,63.9,18.05,38.62l2.4-3.91C35.98,9.42,69.07,1.51,94.35,17.04c25.28,15.53,33.19,48.61,17.66,73.89l-2.4,3.91c-1.31,2.13-2.75,4.13-4.29,6.01l1.75,21.27-18.6-7.65c-16.16,8.32-36.14,8.23-52.75-1.97Z" style="fill: none; stroke: #69fff4; stroke-miterlimit: 10;"/>
              <path d="m35.71,112.51C10.43,96.98,2.52,63.9,18.05,38.62l2.4-3.91C35.98,9.42,69.07,1.51,94.35,17.04c25.28,15.53,33.19,48.61,17.66,73.89l-2.4,3.91c-1.31,2.13-2.75,4.13-4.29,6.01l1.75,21.27-18.6-7.65c-16.16,8.32-36.14,8.23-52.75-1.97Z" style="fill: none; stroke: #fff; stroke-miterlimit: 10; stroke-width: .5px;"/>
            </g>
            <g style="filter: url(#outer-glow-7);">
              <path d="m35.71,112.51C10.43,96.98,2.52,63.9,18.05,38.62l2.4-3.91C35.98,9.42,69.07,1.51,94.35,17.04c25.28,15.53,33.19,48.61,17.66,73.89l-2.4,3.91c-1.31,2.13-2.75,4.13-4.29,6.01l1.75,21.27-18.6-7.65c-16.16,8.32-36.14,8.23-52.75-1.97Z" style="fill: none; stroke: #69fff4; stroke-miterlimit: 10;"/>
              <path d="m35.71,112.51C10.43,96.98,2.52,63.9,18.05,38.62l2.4-3.91C35.98,9.42,69.07,1.51,94.35,17.04c25.28,15.53,33.19,48.61,17.66,73.89l-2.4,3.91c-1.31,2.13-2.75,4.13-4.29,6.01l1.75,21.27-18.6-7.65c-16.16,8.32-36.14,8.23-52.75-1.97Z" style="fill: none; stroke: #fff; stroke-miterlimit: 10; stroke-width: .5px;"/>
            </g>
          </g>
        </g>
      </g>
      <path d="m36.35,111.89c10.83,6.52,24.15,8.7,36.48,5.91,4.79-1.06,9.43-2.84,13.68-5.23l.26-.15.31.11c5.66,2.09,12.41,4.53,18.08,6.59l-1.68,1.26-2.57-20.27-.09-.7.5-.66c1.16-1.56,2.24-3.17,3.21-4.85.56-.97,1.39-2.5,1.95-3.48.58-1.01,1.3-2.43,1.84-3.46.19-.43.82-1.76,1.01-2.18.14-.33.41-.99.54-1.34.21-.52.51-1.26.68-1.79.18-.53.46-1.28.61-1.82,1.2-3.93,1.97-8.08,2.16-12.18l.04-.95c.05-.91,0-1.93.02-2.85-.02-.72-.09-1.64-.12-2.37-.03-.36-.18-1.96-.23-2.36l-.28-1.87c-.06-.52-.24-1.34-.34-1.86-1.28-6.46-3.9-12.7-7.6-18.14-.51-.71-1.1-1.61-1.66-2.28-.2-.26-.66-.86-.87-1.11-.22-.26-1.28-1.5-1.53-1.78-.64-.68-1.28-1.39-1.95-2.04-.34-.32-1.02-.98-1.36-1.3-.41-.36-1-.88-1.41-1.24-.47-.43-1.68-1.36-2.2-1.77-.21-.17-.54-.4-.76-.55-.45-.31-1.09-.79-1.54-1.08-.39-.25-1.19-.76-1.59-1.01-.53-.35-1.88-1.09-2.44-1.42-1.12-.57-2.23-1.16-3.38-1.65l-.86-.39-.21-.1c-.4-.15-1.13-.44-1.54-.6-14.01-5.38-30.13-3.88-42.99,3.84-.56.31-1.09.67-1.63,1.02-.47.3-1.16.75-1.59,1.08-.45.34-1.13.79-1.56,1.14-.25.21-1.69,1.33-1.88,1.52-.24.21-.84.74-1.09.96-.71.61-1.42,1.35-2.1,2-.52.53-1.15,1.23-1.66,1.77-.23.25-1.33,1.56-1.57,1.85-.59.72-1.21,1.57-1.77,2.32-.4.58-.98,1.44-1.37,2.02-.11.2-2.29,3.52-2.45,3.81-1.83,2.87-3.4,6.01-4.64,9.2-1.57,4.17-2.6,8.53-3,12.97l-.09.99-.02.25v.25s-.03.5-.03.5c-.02.57-.08,1.43-.07,1.99,0,.66,0,2.36.06,2.99.24,4.97,1.22,9.97,2.94,14.65.4,1.16.92,2.36,1.4,3.49l.11.23.87,1.81c.26.52.67,1.25.95,1.77.31.6.67,1.16,1.02,1.73.3.5.74,1.23,1.08,1.69,4.08,6.16,9.61,11.33,15.93,15.14h0Zm-.18.72c-20.12-12.01-29.71-36.69-23.86-59.43.19-.76.49-1.72.71-2.48,1.08-3.43,2.53-6.8,4.26-9.97l1.96-3.53.25-.44c.38-.64.94-1.6,1.32-2.24.55-.84,1.15-1.79,1.73-2.6.26-.34,1.29-1.79,1.56-2.1.51-.62,1.13-1.42,1.66-2.02.69-.75,1.41-1.61,2.13-2.31.25-.25.87-.87,1.11-1.11.26-.27,1.63-1.51,1.94-1.78.45-.41,1.14-.96,1.62-1.35.46-.39,1.17-.93,1.67-1.29.57-.42,1.12-.85,1.72-1.22,8.18-5.58,17.98-8.82,27.88-9.19l.53-.03h.27c.19-.01,1.13-.01,1.34-.01.61,0,1.54,0,2.14.04,5.69.22,11.41,1.4,16.74,3.43l.5.19.25.09c.17.07,1.05.45,1.23.53,1.33.54,2.6,1.19,3.89,1.83,4.41,2.36,8.57,5.28,12.17,8.77,17.62,16.84,21.58,43.61,9.56,64.77-.97,1.66-2.23,3.63-3.27,5.23-.74,1.15-1.5,2.36-2.32,3.45-.82,1.13-1.69,2.22-2.59,3.28l.41-1.36,1.89,19.87.13,2.05-1.81-.78c-5.53-2.4-11.15-4.54-16.69-6.91l.57-.03c-4.49,2.24-11.77,4.77-16.68,5.67-12.48,2.33-25.04-.46-35.91-7.02h0Z" style="fill: #03ff6d;"/>
    </g>
    <path d="m53.69,60.69c4.4-.71,9.68-.02,10.14-7.03.18-2.79-1.97-4.06-4.61-3.59-5.28.94-9.42,7.21-9.42,7.21,0,0-8.56-5.91-8.04-7.96.5-1.97,7.26-12,19.85-14.84,10.43-2.35,23.86,1.81,23.63,14.62-.29,16.28-23.03,30.8-31.15,28.17-.71-.23-.4-16.58-.4-16.58Zm15.5,29.5c-.27,4.56-3.45,8.92-10.44,9.64-7.1.73-10.39-1.8-10.13-6.89.27-5.19,4.88-9.34,10.22-10.02,5.44-.69,10.62,2.79,10.35,7.27Z" style="fill: #002f70;"/>
  </g>
  <g style="clip-path: url(#clippath);">
    <g style="clip-path: url(#clippath-1);">
      <g id="Doble_p치gina_9-10.psb" data-name="Doble p치gina 9-10.psb">
        <image id="Doble_p치gina_9-10" data-name="Doble p치gina 9-10" width="9242" height="6140" transform="translate(-1286.9 -1616.24) scale(.54)" xlink:href="Flotantes1.png"/>
      </g>
    </g>
  </g>
  <rect x="-2815.78" y="-48.81" width="5844.88" height="3268.04" style="fill: none; stroke: #edff00; stroke-miterlimit: 10; stroke-width: 4px;"/>
</svg>