<?xml version="1.0" encoding="utf-8"?>
<!-- Generator: Adobe Illustrator 27.2.0, SVG Export Plug-In . SVG Version: 6.00 Build 0)  -->
<svg class="pulsate-bck" version="1.1" id="Juego" xmlns="http://www.w3.org/2000/svg" xmlns:xlink="http://www.w3.org/1999/xlink" x="0px" y="0px"
	 viewBox="0 0 129.1 131" style="enable-background:new 0 0 129.1 131;" xml:space="preserve">
<style type="text/css">
	.st0{fill:#FFFFFF;}
	.st1{fill:#7dff03;}
	.st2{fill:#002F70;}
	.classSvgPregunta{
		animation: animate 3s linear infinite;
	}

	.classSvgPregunta {
		animation-delay: 0.1s;
	}

	@keyframes animate {
		0%{
			filter: hue-rotate(0deg);
		}
		50% {
			filter: hue-rotate(50deg);
		}
		100%{
			filter: hue-rotate(0deg);
		}
	}
	.classInformacion{
		cursor: pointer;
	}

	.pulsate-bck {
		animation: pulsate-bck 0.5s ease-in-out 5 forwards;
		-webkit-animation: pulsate-bck 0.5s ease-in-out 5 forwards;
	}

			/* ----------------------------------------------
		* Generated by Animista on 2023-11-29 10:12:1
		* Licensed under FreeBSD License.
		* See http://animista.net/license for more info. 
		* w: http://animista.net, t: @cssanimista
		* ---------------------------------------------- */

		/**
		* ----------------------------------------
		* animation pulsate-bck
		* ----------------------------------------
		*/
		@-webkit-keyframes pulsate-bck {
		0% {
			-webkit-transform: scale(1);
					transform: scale(1);
		}
		50% {
			-webkit-transform: scale(0.9);
					transform: scale(0.9);
		}
		100% {
			-webkit-transform: scale(1);
					transform: scale(1);
		}
		}
		@keyframes pulsate-bck {
		0% {
			-webkit-transform: scale(1);
					transform: scale(1);
		}
		50% {
			-webkit-transform: scale(0.9);
					transform: scale(0.9);
		}
		100% {
			-webkit-transform: scale(1);
					transform: scale(1);
		}
		}

	
</style>
<g class= "classInformacion">
	<path class="st0" d="M101.6,99.9l-0.1-0.7l0.5-0.7c1.2-1.6,2.2-3.3,3.2-4.9c0.6-1,1.4-2.6,1.9-3.6c0.6-1,1.3-2.5,1.8-3.6
		c0.2-0.4,0.8-1.8,1-2.3c0.1-0.3,0.4-1,0.5-1.3c0.2-0.5,0.5-1.3,0.7-1.8c0.2-0.5,0.5-1.3,0.6-1.8c1.2-4,2-8.3,2.2-12.5v-0.9
		c0.1-0.9,0-1.9,0-2.9c0-0.7-0.1-1.6-0.1-2.5c0-0.4-0.2-2-0.2-2.5l-0.3-1.9c-0.1-0.5-0.2-1.3-0.3-1.9c-1.3-6.7-3.9-13-7.7-18.5
		c-0.5-0.7-1.1-1.6-1.7-2.4c-0.2-0.3-0.7-0.9-0.9-1.1c-0.2-0.3-1.3-1.5-1.5-1.8c-0.6-0.7-1.3-1.4-1.9-2c-0.3-0.3-1-1-1.4-1.3
		c-0.4-0.4-1-0.9-1.4-1.2c-0.5-0.4-1.7-1.4-2.2-1.8c-0.2-0.2-0.5-0.4-0.8-0.5c-0.4-0.3-1.1-0.8-1.5-1.1c-0.4-0.2-1.2-0.8-1.6-1
		c-0.5-0.4-1.9-1.1-2.4-1.4c-1.1-0.6-2.2-1.2-3.4-1.6l-0.9-0.4l-0.1-0.1c-0.4-0.1-1.1-0.4-1.5-0.6c-14.1-5.5-30.3-4-43.3,3.9
		c-0.6,0.3-1.1,0.7-1.6,1c-0.5,0.3-1.2,0.8-1.6,1.1c-0.5,0.3-1.1,0.8-1.6,1.1c-0.2,0.2-1.7,1.3-1.9,1.5c-0.2,0.2-0.8,0.7-1.1,1
		c-0.7,0.6-1.4,1.4-2.1,2c-0.5,0.5-1.1,1.2-1.7,1.8c-0.2,0.2-1.3,1.6-1.6,1.8c-0.6,0.7-1.2,1.6-1.8,2.4c-0.4,0.6-1,1.4-1.4,2
		c-0.1,0.2-2.3,3.6-2.5,3.9c-1.8,3-3.4,6.1-4.6,9.4c-1.6,4.3-2.6,8.7-3,13.3l-0.1,1v0.2v0.2v0.5c0,0.6-0.1,1.4-0.1,2
		c0,0.7,0,2.5,0.1,3.1c0.2,5.1,1.2,10.2,2.9,15.1c0.4,1.2,0.9,2.5,1.4,3.6l0.1,0.2l0.9,1.8c0.3,0.5,0.7,1.2,1,1.8
		c0.3,0.6,0.7,1.2,1,1.7c0.3,0.5,0.7,1.2,1.1,1.7c4.2,6.5,9.8,11.7,16.1,15.6l0,0l0,0c10.9,6.7,24.4,8.9,36.8,6
		c4.8-1.1,9.5-2.9,13.8-5.3l0.3-0.2l0.3,0.1c5.7,2.2,11.6,5.4,17.3,7.6L101.6,99.9z"/>
	<path class="st1 classSvgPregunta" d="M36.3,111.9c10.8,6.5,24.2,8.7,36.5,5.9c4.8-1.1,9.4-2.8,13.7-5.2l0.3-0.2l0.3,0.1c5.7,2.1,12.4,4.5,18.1,6.6
		l-1.7,1.3l-2.6-20.3l-0.1-0.7l0.5-0.7c1.2-1.6,2.2-3.2,3.2-4.8c0.6-1,1.4-2.5,1.9-3.5c0.6-1,1.3-2.4,1.8-3.5c0.2-0.4,0.8-1.8,1-2.2
		c0.1-0.3,0.4-1,0.5-1.3c0.2-0.5,0.5-1.3,0.7-1.8s0.5-1.3,0.6-1.8c1.2-3.9,2-8.1,2.2-12.2v-0.9c0.1-0.9,0-1.9,0-2.8
		c0-0.7-0.1-1.6-0.1-2.4c0-0.4-0.2-2-0.2-2.4l-0.3-1.9c-0.1-0.5-0.2-1.3-0.3-1.9c-1.3-6.5-3.9-12.7-7.6-18.1
		c-0.5-0.7-1.1-1.6-1.7-2.3c-0.2-0.3-0.7-0.9-0.9-1.1c-0.2-0.3-1.3-1.5-1.5-1.8c-0.6-0.7-1.3-1.4-1.9-2c-0.3-0.3-1-1-1.4-1.3
		c-0.4-0.4-1-0.9-1.4-1.2c-0.5-0.4-1.7-1.4-2.2-1.8c-0.2-0.2-0.5-0.4-0.8-0.5c-0.4-0.3-1.1-0.8-1.5-1.1c-0.4-0.2-1.2-0.8-1.6-1
		c-0.5-0.4-1.9-1.1-2.4-1.4c-1.1-0.6-2.2-1.2-3.4-1.6l-0.9-0.4l-0.2-0.1c-0.4-0.1-1.1-0.4-1.5-0.6c-14-5.4-30.1-3.9-43,3.8
		c-0.6,0.3-1.1,0.7-1.6,1s-1.2,0.8-1.6,1.1c-0.5,0.3-1.1,0.8-1.6,1.1c-0.2,0.2-1.7,1.3-1.9,1.5c-0.2,0.2-0.8,0.7-1.1,1
		c-0.7,0.6-1.4,1.4-2.1,2c-0.5,0.5-1.1,1.2-1.7,1.8c-0.2,0.2-1.3,1.6-1.6,1.8c-0.6,0.7-1.2,1.6-1.8,2.3c-0.4,0.6-1,1.4-1.4,2
		c-0.1,0.2-2.3,3.5-2.5,3.8c-1.8,2.9-3.4,6-4.6,9.2c-1.6,4.2-2.6,8.5-3,13l-0.1,1v0.2v0.2v0.5c0,0.6-0.1,1.4-0.1,2
		c0,0.7,0,2.4,0.1,3c0.2,5,1.2,10,2.9,14.7c0.4,1.2,0.9,2.4,1.4,3.5l0.1,0.2l0.9,1.8c0.3,0.5,0.7,1.2,1,1.8c0.3,0.6,0.7,1.2,1,1.7
		s0.7,1.2,1.1,1.7C24.5,102.9,30,108.1,36.3,111.9L36.3,111.9L36.3,111.9z M36.2,112.6C16,100.6,6.5,75.9,12.3,53.2
		c0.2-0.8,0.5-1.7,0.7-2.5c1.1-3.4,2.5-6.8,4.3-10l2-3.5l0.2-0.4c0.4-0.6,0.9-1.6,1.3-2.2c0.5-0.8,1.1-1.8,1.7-2.6
		c0.3-0.3,1.3-1.8,1.6-2.1c0.5-0.6,1.1-1.4,1.7-2c0.7-0.8,1.4-1.6,2.1-2.3c0.2-0.2,0.9-0.9,1.1-1.1c0.3-0.3,1.6-1.5,1.9-1.8
		c0.5-0.4,1.1-1,1.6-1.4s1.2-0.9,1.7-1.3c0.6-0.4,1.1-0.9,1.7-1.2c8.2-5.6,18-8.8,27.9-9.2h0.5h0.3c0.2,0,1.1,0,1.3,0
		c0.6,0,1.5,0,2.1,0C73.7,9.8,79.4,11,84.7,13l0.5,0.2l0.2,0.1c0.2,0.1,1.1,0.4,1.2,0.5c1.3,0.5,2.6,1.2,3.9,1.8
		c4.4,2.4,8.6,5.3,12.2,8.8c17.6,16.8,21.6,43.6,9.6,64.8c-1,1.7-2.2,3.6-3.3,5.2c-0.7,1.2-1.5,2.4-2.3,3.4
		c-0.8,1.1-1.7,2.2-2.6,3.3l0.4-1.4l1.9,19.9l0.1,2.1l-1.8-0.8c-5.5-2.4-11.2-4.5-16.7-6.9h0.6c-4.5,2.2-11.8,4.8-16.7,5.7
		C59.6,122,47,119.2,36.2,112.6L36.2,112.6L36.2,112.6z"/>
	<path class="st2" d="M53.7,60.7c4.4-0.7,9.7,0,10.1-7c0.2-2.8-2-4.1-4.6-3.6c-5.3,0.9-9.4,7.2-9.4,7.2s-8.6-5.9-8-8
		c0.5-2,7.3-12,19.8-14.8c10.4-2.3,23.9,1.8,23.6,14.6c-0.3,16.3-23,30.8-31.2,28.2C53.4,77,53.7,60.7,53.7,60.7L53.7,60.7z
		 M69.2,90.2c-0.3,4.6-3.4,8.9-10.4,9.6c-7.1,0.7-10.4-1.8-10.1-6.9c0.3-5.2,4.9-9.3,10.2-10C64.3,82.2,69.5,85.7,69.2,90.2z"/>
</g>
</svg>
