<?xml version="1.0" encoding="utf-8"?>
<!-- Generator: Adobe Illustrator 27.2.0, SVG Export Plug-In . SVG Version: 6.00 Build 0)  -->
<svg version="1.1" id="Juego" xmlns="http://www.w3.org/2000/svg" xmlns:xlink="http://www.w3.org/1999/xlink" x="0px" y="0px"
	 viewBox="0 0 129.1 131" style="enable-background:new 0 0 129.1 131;" xml:space="preserve">
<style type="text/css">
	.st0{fill:#FFFFFF;}
	.st1{fill:none;stroke:#69FFF4;stroke-miterlimit:10;}
	.st2{fill:none;stroke:#FFFFFF;stroke-width:0.5;stroke-miterlimit:10;}
	.st3{fill:#03FF6D;}
	.st4{fill:#002F70;}
</style>
<g>
	<g>
		<g>
			<path class="st0" d="M35.3,112.2c-25.2-15.4-33-48.4-17.6-73.6l2.4-3.9c15.5-25.2,48.4-33,73.5-17.6c25.2,15.5,33,48.4,17.6,73.6
				l-2.4,3.9c-1.3,2.1-2.7,4.1-4.3,6l1.7,21.2l-18.5-7.6C71.7,122.4,51.8,122.3,35.3,112.2z"/>
			<g>
				<g>
					<g>
						<g>
							<path class="st1" d="M35.7,112.5C10.4,97,2.5,63.9,18,38.6l2.4-3.9C36,9.4,69.1,1.5,94.3,17s33.2,48.6,17.7,73.9l-2.4,3.9
								c-1.3,2.1-2.8,4.1-4.3,6l1.8,21.3l-18.6-7.7C72.3,122.8,52.3,122.7,35.7,112.5L35.7,112.5z"/>
							<path class="st2" d="M35.7,112.5C10.4,97,2.5,63.9,18,38.6l2.4-3.9C36,9.4,69.1,1.5,94.3,17s33.2,48.6,17.7,73.9l-2.4,3.9
								c-1.3,2.1-2.8,4.1-4.3,6l1.8,21.3l-18.6-7.7C72.3,122.8,52.3,122.7,35.7,112.5L35.7,112.5z"/>
						</g>
						<g>
							<path class="st1" d="M35.7,112.5C10.4,97,2.5,63.9,18,38.6l2.4-3.9C36,9.4,69.1,1.5,94.3,17s33.2,48.6,17.7,73.9l-2.4,3.9
								c-1.3,2.1-2.8,4.1-4.3,6l1.8,21.3l-18.6-7.7C72.3,122.8,52.3,122.7,35.7,112.5L35.7,112.5z"/>
							<path class="st2" d="M35.7,112.5C10.4,97,2.5,63.9,18,38.6l2.4-3.9C36,9.4,69.1,1.5,94.3,17s33.2,48.6,17.7,73.9l-2.4,3.9
								c-1.3,2.1-2.8,4.1-4.3,6l1.8,21.3l-18.6-7.7C72.3,122.8,52.3,122.7,35.7,112.5L35.7,112.5z"/>
						</g>
						<g>
							<path class="st1" d="M35.7,112.5C10.4,97,2.5,63.9,18,38.6l2.4-3.9C36,9.4,69.1,1.5,94.3,17s33.2,48.6,17.7,73.9l-2.4,3.9
								c-1.3,2.1-2.8,4.1-4.3,6l1.8,21.3l-18.6-7.7C72.3,122.8,52.3,122.7,35.7,112.5L35.7,112.5z"/>
							<path class="st2" d="M35.7,112.5C10.4,97,2.5,63.9,18,38.6l2.4-3.9C36,9.4,69.1,1.5,94.3,17s33.2,48.6,17.7,73.9l-2.4,3.9
								c-1.3,2.1-2.8,4.1-4.3,6l1.8,21.3l-18.6-7.7C72.3,122.8,52.3,122.7,35.7,112.5L35.7,112.5z"/>
						</g>
					</g>
					<g>
						<path class="st1" d="M35.7,112.5C10.4,97,2.5,63.9,18,38.6l2.4-3.9C36,9.4,69.1,1.5,94.3,17s33.2,48.6,17.7,73.9l-2.4,3.9
							c-1.3,2.1-2.8,4.1-4.3,6l1.8,21.3l-18.6-7.7C72.3,122.8,52.3,122.7,35.7,112.5L35.7,112.5z"/>
						<path class="st2" d="M35.7,112.5C10.4,97,2.5,63.9,18,38.6l2.4-3.9C36,9.4,69.1,1.5,94.3,17s33.2,48.6,17.7,73.9l-2.4,3.9
							c-1.3,2.1-2.8,4.1-4.3,6l1.8,21.3l-18.6-7.7C72.3,122.8,52.3,122.7,35.7,112.5L35.7,112.5z"/>
					</g>
				</g>
				<g>
					<g>
						<path class="st1" d="M35.7,112.5C10.4,97,2.5,63.9,18,38.6l2.4-3.9C36,9.4,69.1,1.5,94.3,17s33.2,48.6,17.7,73.9l-2.4,3.9
							c-1.3,2.1-2.8,4.1-4.3,6l1.8,21.3l-18.6-7.7C72.3,122.8,52.3,122.7,35.7,112.5L35.7,112.5z"/>
						<path class="st2" d="M35.7,112.5C10.4,97,2.5,63.9,18,38.6l2.4-3.9C36,9.4,69.1,1.5,94.3,17s33.2,48.6,17.7,73.9l-2.4,3.9
							c-1.3,2.1-2.8,4.1-4.3,6l1.8,21.3l-18.6-7.7C72.3,122.8,52.3,122.7,35.7,112.5L35.7,112.5z"/>
					</g>
					<g>
						<path class="st1" d="M35.7,112.5C10.4,97,2.5,63.9,18,38.6l2.4-3.9C36,9.4,69.1,1.5,94.3,17s33.2,48.6,17.7,73.9l-2.4,3.9
							c-1.3,2.1-2.8,4.1-4.3,6l1.8,21.3l-18.6-7.7C72.3,122.8,52.3,122.7,35.7,112.5L35.7,112.5z"/>
						<path class="st2" d="M35.7,112.5C10.4,97,2.5,63.9,18,38.6l2.4-3.9C36,9.4,69.1,1.5,94.3,17s33.2,48.6,17.7,73.9l-2.4,3.9
							c-1.3,2.1-2.8,4.1-4.3,6l1.8,21.3l-18.6-7.7C72.3,122.8,52.3,122.7,35.7,112.5L35.7,112.5z"/>
					</g>
				</g>
			</g>
		</g>
		<path class="st3" d="M36.3,111.9c10.8,6.5,24.2,8.7,36.5,5.9c4.8-1.1,9.4-2.8,13.7-5.2l0.3-0.2l0.3,0.1c5.7,2.1,12.4,4.5,18.1,6.6
			l-1.7,1.3l-2.6-20.3l-0.1-0.7l0.5-0.7c1.2-1.6,2.2-3.2,3.2-4.8c0.6-1,1.4-2.5,1.9-3.5c0.6-1,1.3-2.4,1.8-3.5
			c0.2-0.4,0.8-1.8,1-2.2c0.1-0.3,0.4-1,0.5-1.3c0.2-0.5,0.5-1.3,0.7-1.8c0.2-0.5,0.5-1.3,0.6-1.8c1.2-3.9,2-8.1,2.2-12.2l0-0.9
			c0.1-0.9,0-1.9,0-2.8c0-0.7-0.1-1.6-0.1-2.4c0-0.4-0.2-2-0.2-2.4l-0.3-1.9c-0.1-0.5-0.2-1.3-0.3-1.9c-1.3-6.5-3.9-12.7-7.6-18.1
			c-0.5-0.7-1.1-1.6-1.7-2.3c-0.2-0.3-0.7-0.9-0.9-1.1c-0.2-0.3-1.3-1.5-1.5-1.8c-0.6-0.7-1.3-1.4-1.9-2c-0.3-0.3-1-1-1.4-1.3
			c-0.4-0.4-1-0.9-1.4-1.2c-0.5-0.4-1.7-1.4-2.2-1.8c-0.2-0.2-0.5-0.4-0.8-0.5c-0.4-0.3-1.1-0.8-1.5-1.1c-0.4-0.2-1.2-0.8-1.6-1
			c-0.5-0.4-1.9-1.1-2.4-1.4c-1.1-0.6-2.2-1.2-3.4-1.6l-0.9-0.4l-0.2-0.1c-0.4-0.1-1.1-0.4-1.5-0.6c-14-5.4-30.1-3.9-43,3.8
			c-0.6,0.3-1.1,0.7-1.6,1c-0.5,0.3-1.2,0.8-1.6,1.1c-0.5,0.3-1.1,0.8-1.6,1.1c-0.2,0.2-1.7,1.3-1.9,1.5c-0.2,0.2-0.8,0.7-1.1,1
			c-0.7,0.6-1.4,1.4-2.1,2c-0.5,0.5-1.1,1.2-1.7,1.8c-0.2,0.2-1.3,1.6-1.6,1.8c-0.6,0.7-1.2,1.6-1.8,2.3c-0.4,0.6-1,1.4-1.4,2
			c-0.1,0.2-2.3,3.5-2.5,3.8c-1.8,2.9-3.4,6-4.6,9.2c-1.6,4.2-2.6,8.5-3,13l-0.1,1l0,0.2v0.2l0,0.5c0,0.6-0.1,1.4-0.1,2
			c0,0.7,0,2.4,0.1,3c0.2,5,1.2,10,2.9,14.7c0.4,1.2,0.9,2.4,1.4,3.5l0.1,0.2l0.9,1.8c0.3,0.5,0.7,1.2,1,1.8c0.3,0.6,0.7,1.2,1,1.7
			c0.3,0.5,0.7,1.2,1.1,1.7C24.5,102.9,30,108.1,36.3,111.9L36.3,111.9L36.3,111.9z M36.2,112.6C16,100.6,6.5,75.9,12.3,53.2
			c0.2-0.8,0.5-1.7,0.7-2.5c1.1-3.4,2.5-6.8,4.3-10l2-3.5l0.2-0.4c0.4-0.6,0.9-1.6,1.3-2.2c0.5-0.8,1.1-1.8,1.7-2.6
			c0.3-0.3,1.3-1.8,1.6-2.1c0.5-0.6,1.1-1.4,1.7-2c0.7-0.8,1.4-1.6,2.1-2.3c0.2-0.2,0.9-0.9,1.1-1.1c0.3-0.3,1.6-1.5,1.9-1.8
			c0.5-0.4,1.1-1,1.6-1.4c0.5-0.4,1.2-0.9,1.7-1.3c0.6-0.4,1.1-0.9,1.7-1.2c8.2-5.6,18-8.8,27.9-9.2l0.5,0h0.3c0.2,0,1.1,0,1.3,0
			c0.6,0,1.5,0,2.1,0c5.7,0.2,11.4,1.4,16.7,3.4l0.5,0.2l0.2,0.1c0.2,0.1,1.1,0.4,1.2,0.5c1.3,0.5,2.6,1.2,3.9,1.8
			c4.4,2.4,8.6,5.3,12.2,8.8c17.6,16.8,21.6,43.6,9.6,64.8c-1,1.7-2.2,3.6-3.3,5.2c-0.7,1.2-1.5,2.4-2.3,3.4
			c-0.8,1.1-1.7,2.2-2.6,3.3l0.4-1.4l1.9,19.9l0.1,2.1l-1.8-0.8c-5.5-2.4-11.2-4.5-16.7-6.9l0.6,0c-4.5,2.2-11.8,4.8-16.7,5.7
			C59.6,122,47,119.2,36.2,112.6L36.2,112.6L36.2,112.6z"/>
	</g>
	<path class="st4" d="M53.7,60.7c4.4-0.7,9.7,0,10.1-7c0.2-2.8-2-4.1-4.6-3.6c-5.3,0.9-9.4,7.2-9.4,7.2s-8.6-5.9-8-8
		c0.5-2,7.3-12,19.8-14.8c10.4-2.3,23.9,1.8,23.6,14.6c-0.3,16.3-23,30.8-31.2,28.2C53.4,77,53.7,60.7,53.7,60.7L53.7,60.7z
		 M69.2,90.2c-0.3,4.6-3.4,8.9-10.4,9.6c-7.1,0.7-10.4-1.8-10.1-6.9c0.3-5.2,4.9-9.3,10.2-10C64.3,82.2,69.5,85.7,69.2,90.2z"/>
</g>
</svg>
