<?xml version="1.0" encoding="utf-8"?>
<!-- Generator: Adobe Illustrator 27.2.0, SVG Export Plug-In . SVG Version: 6.00 Build 0)  -->
<svg version="1.1" id="Juego" xmlns="http://www.w3.org/2000/svg" xmlns:xlink="http://www.w3.org/1999/xlink" x="0px" y="0px"
	 viewBox="0 0 129.1 131" style="enable-background:new 0 0 129.1 131;" xml:space="preserve">
<style type="text/css">
	.st0{fill:#FFFFFF;}
	.st1{fill:none;stroke:#69FFF4;stroke-miterlimit:10;}
	.st2{fill:none;stroke:#FFFFFF;stroke-width:0.5;stroke-miterlimit:10;}
	.st3{fill:#FF51FF;}
	.st4{fill:#002F70;}
</style>
<g>
	<g>
		<g>
			<path class="st0" d="M94.3,112.9C120,97.1,128,63.6,112.2,37.9l-2.4-4C94.1,8.3,60.5,0.3,34.9,16C9.2,31.8,1.2,65.3,16.9,91
				l2.4,4c1.3,2.2,2.8,4.2,4.4,6.1L22,122.6l18.9-7.8C57.2,123.3,77.5,123.2,94.3,112.9L94.3,112.9z"/>
			<g>
				<g>
					<g>
						<g>
							<path class="st1" d="M93.9,113.2c25.8-15.8,33.8-49.5,18-75.3l-2.4-4C93.6,8.1,59.9,0.1,34.1,15.9
								C8.4,31.7,0.3,65.4,16.1,91.2l2.5,4c1.3,2.2,2.8,4.2,4.4,6.1L21.2,123l18.9-7.8C56.6,123.7,76.9,123.6,93.9,113.2z"/>
							<path class="st2" d="M93.9,113.2c25.8-15.8,33.8-49.5,18-75.3l-2.4-4C93.6,8.1,59.9,0.1,34.1,15.9
								C8.4,31.7,0.3,65.4,16.1,91.2l2.5,4c1.3,2.2,2.8,4.2,4.4,6.1L21.2,123l18.9-7.8C56.6,123.7,76.9,123.6,93.9,113.2z"/>
						</g>
						<g>
							<path class="st1" d="M93.9,113.2c25.8-15.8,33.8-49.5,18-75.3l-2.4-4C93.6,8.1,59.9,0.1,34.1,15.9
								C8.4,31.7,0.3,65.4,16.1,91.2l2.5,4c1.3,2.2,2.8,4.2,4.4,6.1L21.2,123l18.9-7.8C56.6,123.7,76.9,123.6,93.9,113.2z"/>
							<path class="st2" d="M93.9,113.2c25.8-15.8,33.8-49.5,18-75.3l-2.4-4C93.6,8.1,59.9,0.1,34.1,15.9
								C8.4,31.7,0.3,65.4,16.1,91.2l2.5,4c1.3,2.2,2.8,4.2,4.4,6.1L21.2,123l18.9-7.8C56.6,123.7,76.9,123.6,93.9,113.2z"/>
						</g>
						<g>
							<path class="st1" d="M93.9,113.2c25.8-15.8,33.8-49.5,18-75.3l-2.4-4C93.6,8.1,59.9,0.1,34.1,15.9
								C8.4,31.7,0.3,65.4,16.1,91.2l2.5,4c1.3,2.2,2.8,4.2,4.4,6.1L21.2,123l18.9-7.8C56.6,123.7,76.9,123.6,93.9,113.2z"/>
							<path class="st2" d="M93.9,113.2c25.8-15.8,33.8-49.5,18-75.3l-2.4-4C93.6,8.1,59.9,0.1,34.1,15.9
								C8.4,31.7,0.3,65.4,16.1,91.2l2.5,4c1.3,2.2,2.8,4.2,4.4,6.1L21.2,123l18.9-7.8C56.6,123.7,76.9,123.6,93.9,113.2z"/>
						</g>
					</g>
					<g>
						<path class="st1" d="M93.9,113.2c25.8-15.8,33.8-49.5,18-75.3l-2.4-4C93.6,8.1,59.9,0.1,34.1,15.9
							C8.4,31.7,0.3,65.4,16.1,91.2l2.5,4c1.3,2.2,2.8,4.2,4.4,6.1L21.2,123l18.9-7.8C56.6,123.7,76.9,123.6,93.9,113.2z"/>
						<path class="st2" d="M93.9,113.2c25.8-15.8,33.8-49.5,18-75.3l-2.4-4C93.6,8.1,59.9,0.1,34.1,15.9
							C8.4,31.7,0.3,65.4,16.1,91.2l2.5,4c1.3,2.2,2.8,4.2,4.4,6.1L21.2,123l18.9-7.8C56.6,123.7,76.9,123.6,93.9,113.2z"/>
					</g>
				</g>
				<g>
					<g>
						<path class="st1" d="M93.9,113.2c25.8-15.8,33.8-49.5,18-75.3l-2.4-4C93.6,8.1,59.9,0.1,34.1,15.9
							C8.4,31.7,0.3,65.4,16.1,91.2l2.5,4c1.3,2.2,2.8,4.2,4.4,6.1L21.2,123l18.9-7.8C56.6,123.7,76.9,123.6,93.9,113.2z"/>
						<path class="st2" d="M93.9,113.2c25.8-15.8,33.8-49.5,18-75.3l-2.4-4C93.6,8.1,59.9,0.1,34.1,15.9
							C8.4,31.7,0.3,65.4,16.1,91.2l2.5,4c1.3,2.2,2.8,4.2,4.4,6.1L21.2,123l18.9-7.8C56.6,123.7,76.9,123.6,93.9,113.2z"/>
					</g>
					<g>
						<path class="st1" d="M93.9,113.2c25.8-15.8,33.8-49.5,18-75.3l-2.4-4C93.6,8.1,59.9,0.1,34.1,15.9
							C8.4,31.7,0.3,65.4,16.1,91.2l2.5,4c1.3,2.2,2.8,4.2,4.4,6.1L21.2,123l18.9-7.8C56.6,123.7,76.9,123.6,93.9,113.2z"/>
						<path class="st2" d="M93.9,113.2c25.8-15.8,33.8-49.5,18-75.3l-2.4-4C93.6,8.1,59.9,0.1,34.1,15.9
							C8.4,31.7,0.3,65.4,16.1,91.2l2.5,4c1.3,2.2,2.8,4.2,4.4,6.1L21.2,123l18.9-7.8C56.6,123.7,76.9,123.6,93.9,113.2z"/>
					</g>
				</g>
			</g>
		</g>
		<path class="st3" d="M93.2,112.6c6.4-3.9,12.1-9.2,16.2-15.4c0.3-0.5,0.8-1.2,1.1-1.7c0.3-0.6,0.7-1.2,1-1.8
			c0.3-0.5,0.7-1.3,1-1.8l0.9-1.8l0.1-0.2c0.5-1.2,1-2.4,1.4-3.6c1.8-4.8,2.8-9.9,3-14.9c0.1-0.6,0.1-2.4,0.1-3c0-0.6-0.1-1.4-0.1-2
			l0-0.5v-0.2l0-0.2l-0.1-1c-0.4-4.5-1.5-9-3.1-13.2c-1.3-3.2-2.9-6.4-4.7-9.4c-0.2-0.3-2.4-3.7-2.5-3.9c-0.4-0.6-1-1.5-1.4-2.1
			c-0.6-0.8-1.2-1.6-1.8-2.4c-0.2-0.3-1.4-1.6-1.6-1.9c-0.5-0.5-1.2-1.3-1.7-1.8c-0.7-0.7-1.4-1.4-2.1-2c-0.2-0.2-0.9-0.8-1.1-1
			c-0.2-0.2-1.7-1.3-1.9-1.5c-0.4-0.4-1.1-0.8-1.6-1.2c-0.4-0.3-1.2-0.8-1.6-1.1c-0.6-0.4-1.1-0.7-1.7-1
			c-13.1-7.9-29.5-9.4-43.8-3.9c-0.4,0.2-1.2,0.5-1.6,0.6l-0.2,0.1l-0.9,0.4c-1.2,0.5-2.3,1.1-3.5,1.7c-0.6,0.3-2,1.1-2.5,1.5
			c-0.4,0.3-1.2,0.8-1.6,1c-0.5,0.3-1.1,0.8-1.6,1.1c-0.2,0.2-0.6,0.4-0.8,0.6c-0.5,0.4-1.8,1.4-2.2,1.8c-0.4,0.4-1,0.9-1.4,1.3
			c-0.3,0.3-1,1-1.4,1.3c-0.7,0.7-1.3,1.4-2,2.1c-0.3,0.3-1.3,1.5-1.6,1.8c-0.2,0.3-0.7,0.9-0.9,1.1c-0.6,0.7-1.2,1.6-1.7,2.3
			C19.7,42,17,48.4,15.7,55c-0.1,0.5-0.3,1.4-0.4,1.9l-0.3,1.9c-0.1,0.4-0.2,2-0.2,2.4c0,0.7-0.1,1.7-0.1,2.4c0,0.9,0,2,0,2.9l0,1
			c0.2,4.2,1,8.4,2.2,12.4c0.1,0.6,0.4,1.3,0.6,1.8c0.2,0.6,0.5,1.3,0.7,1.8c0.1,0.3,0.4,1,0.5,1.4c0.2,0.4,0.8,1.8,1,2.2
			c0.5,1.1,1.3,2.5,1.9,3.5c0.6,1,1.4,2.6,2,3.6c1,1.7,2.1,3.3,3.3,4.9l0.5,0.7l-0.1,0.7l-2.6,20.7l-1.7-1.3
			c5.8-2.1,12.7-4.6,18.4-6.7l0.3-0.1l0.3,0.2c4.3,2.4,9.1,4.2,13.9,5.3C68.6,121.4,82.2,119.2,93.2,112.6L93.2,112.6L93.2,112.6z
			 M93.4,113.3c-11.1,6.7-23.9,9.5-36.6,7.2c-5-0.9-12.4-3.5-17-5.8l0.6,0c-5.7,2.4-11.4,4.6-17,7l-1.8,0.8l0.1-2.1l1.9-20.2
			l0.4,1.4c-0.9-1.1-1.8-2.2-2.6-3.3c-0.8-1.1-1.6-2.3-2.4-3.5c-1-1.6-2.3-3.6-3.3-5.3c-12.2-21.6-8.2-48.8,9.7-66
			c3.7-3.5,7.9-6.5,12.4-8.9c1.3-0.6,2.6-1.3,4-1.9c0.2-0.1,1.1-0.5,1.3-0.5l0.3-0.1l0.5-0.2c5.4-2.1,11.2-3.3,17-3.5
			c0.6-0.1,1.5-0.1,2.2,0c0.2,0,1.2,0,1.4,0h0.3l0.5,0c10.1,0.4,20.1,3.7,28.4,9.4c0.6,0.4,1.2,0.8,1.8,1.2c0.5,0.4,1.2,0.9,1.7,1.3
			c0.5,0.4,1.2,1,1.7,1.4c0.3,0.3,1.7,1.5,2,1.8c0.2,0.2,0.9,0.9,1.1,1.1c0.7,0.7,1.5,1.6,2.2,2.4c0.5,0.6,1.2,1.4,1.7,2.1
			c0.3,0.3,1.3,1.8,1.6,2.1c0.6,0.8,1.2,1.8,1.8,2.7c0.4,0.7,1,1.6,1.3,2.3l0.2,0.5l2,3.6c1.8,3.2,3.2,6.7,4.3,10.2
			c0.2,0.8,0.5,1.8,0.7,2.5C123.7,75.9,113.9,101,93.4,113.3L93.4,113.3L93.4,113.3z"/>
	</g>
	<path class="st4" d="M55.6,60.4c4.5-0.7,9.9,0,10.3-7.2c0.2-2.8-2-4.1-4.7-3.7c-5.4,1-9.6,7.3-9.6,7.3s-8.7-6-8.2-8.1
		c0.5-2,7.4-12.2,20.2-15.1c10.6-2.4,24.3,1.8,24.1,14.9C87.4,65.2,64.2,79.9,56,77.3C55.3,77,55.6,60.4,55.6,60.4L55.6,60.4z
		 M71.4,90.4c-0.3,4.7-3.5,9.1-10.6,9.8c-7.2,0.7-10.6-1.8-10.3-7c0.3-5.3,5-9.5,10.4-10.2C66.4,82.3,71.6,85.9,71.4,90.4L71.4,90.4
		z"/>
</g>
</svg>
