<?xml version="1.0" encoding="UTF-8"?>
<svg id="Juego" xmlns="http://www.w3.org/2000/svg" xmlns:xlink="http://www.w3.org/1999/xlink" viewBox="0 0 129.05 130.98">
  <defs>
    <filter id="outer-glow-1" filterUnits="userSpaceOnUse">
      <feOffset dx="0" dy="0"/>
      <feGaussianBlur result="blur" stdDeviation="4"/>
      <feFlood flood-color="#43fff1" flood-opacity="1"/>
      <feComposite in2="blur" operator="in"/>
      <feComposite in="SourceGraphic"/>
    </filter>
    <filter id="outer-glow-2" filterUnits="userSpaceOnUse">
      <feOffset dx="0" dy="0"/>
      <feGaussianBlur result="blur-2" stdDeviation="4"/>
      <feFlood flood-color="#43fff1" flood-opacity="1"/>
      <feComposite in2="blur-2" operator="in"/>
      <feComposite in="SourceGraphic"/>
    </filter>
    <filter id="outer-glow-3" filterUnits="userSpaceOnUse">
      <feOffset dx="0" dy="0"/>
      <feGaussianBlur result="blur-3" stdDeviation="4"/>
      <feFlood flood-color="#43fff1" flood-opacity="1"/>
      <feComposite in2="blur-3" operator="in"/>
      <feComposite in="SourceGraphic"/>
    </filter>
    <filter id="outer-glow-4" filterUnits="userSpaceOnUse">
      <feOffset dx="0" dy="0"/>
      <feGaussianBlur result="blur-4" stdDeviation="6"/>
      <feFlood flood-color="#43fff1" flood-opacity="1"/>
      <feComposite in2="blur-4" operator="in"/>
      <feComposite in="SourceGraphic"/>
    </filter>
    <filter id="outer-glow-5" filterUnits="userSpaceOnUse">
      <feOffset dx="0" dy="0"/>
      <feGaussianBlur result="blur-5" stdDeviation="6"/>
      <feFlood flood-color="#43fff1" flood-opacity="1"/>
      <feComposite in2="blur-5" operator="in"/>
      <feComposite in="SourceGraphic"/>
    </filter>
    <clipPath id="clippath">
      <polygon points="2508.57 991.54 2136.34 991.54 2136.34 466.99 2518.57 466.99 2508.57 991.54" style="fill: none;"/>
    </clipPath>
    <clipPath id="clippath-1">
      <polygon points="2531.61 987.15 2022.48 986.92 1924.89 918.47 1827.3 986.83 1800.87 986.82 1790.7 986.81 1129.58 986.52 1129.58 302.05 2531.61 302.68 2531.61 987.15" style="fill: none;"/>
    </clipPath>
  </defs>
  <g>
    <g>
      <g>
        <path d="m94.33,112.86c25.64-15.75,33.66-49.3,17.91-74.95l-2.44-3.97C94.05,8.3,60.5.28,34.86,16.02,9.21,31.77,1.19,65.33,16.94,90.97l2.44,3.97c1.33,2.16,2.79,4.19,4.35,6.09l-1.77,21.58,18.86-7.75c16.39,8.44,36.65,8.35,53.5-2Z" style="fill: #fff;"/>
        <g>
          <g>
            <g>
              <g style="filter: url(#outer-glow-1);">
                <path d="m93.87,113.19c25.76-15.82,33.82-49.54,18-75.3l-2.45-3.99C93.6,8.14,59.89.08,34.12,15.9,8.36,31.73.3,65.44,16.12,91.2l2.45,3.99c1.33,2.17,2.8,4.2,4.37,6.12l-1.78,21.68,18.95-7.79c16.46,8.47,36.82,8.39,53.76-2.01Z" style="fill: none; stroke: #69fff4; stroke-miterlimit: 10;"/>
                <path d="m93.87,113.19c25.76-15.82,33.82-49.54,18-75.3l-2.45-3.99C93.6,8.14,59.89.08,34.12,15.9,8.36,31.73.3,65.44,16.12,91.2l2.45,3.99c1.33,2.17,2.8,4.2,4.37,6.12l-1.78,21.68,18.95-7.79c16.46,8.47,36.82,8.39,53.76-2.01Z" style="fill: none; stroke: #fff; stroke-miterlimit: 10; stroke-width: .5px;"/>
              </g>
              <g style="filter: url(#outer-glow-2);">
                <path d="m93.87,113.19c25.76-15.82,33.82-49.54,18-75.3l-2.45-3.99C93.6,8.14,59.89.08,34.12,15.9,8.36,31.73.3,65.44,16.12,91.2l2.45,3.99c1.33,2.17,2.8,4.2,4.37,6.12l-1.78,21.68,18.95-7.79c16.46,8.47,36.82,8.39,53.76-2.01Z" style="fill: none; stroke: #69fff4; stroke-miterlimit: 10;"/>
                <path d="m93.87,113.19c25.76-15.82,33.82-49.54,18-75.3l-2.45-3.99C93.6,8.14,59.89.08,34.12,15.9,8.36,31.73.3,65.44,16.12,91.2l2.45,3.99c1.33,2.17,2.8,4.2,4.37,6.12l-1.78,21.68,18.95-7.79c16.46,8.47,36.82,8.39,53.76-2.01Z" style="fill: none; stroke: #fff; stroke-miterlimit: 10; stroke-width: .5px;"/>
              </g>
              <g style="filter: url(#outer-glow-3);">
                <path d="m93.87,113.19c25.76-15.82,33.82-49.54,18-75.3l-2.45-3.99C93.6,8.14,59.89.08,34.12,15.9,8.36,31.73.3,65.44,16.12,91.2l2.45,3.99c1.33,2.17,2.8,4.2,4.37,6.12l-1.78,21.68,18.95-7.79c16.46,8.47,36.82,8.39,53.76-2.01Z" style="fill: none; stroke: #69fff4; stroke-miterlimit: 10;"/>
                <path d="m93.87,113.19c25.76-15.82,33.82-49.54,18-75.3l-2.45-3.99C93.6,8.14,59.89.08,34.12,15.9,8.36,31.73.3,65.44,16.12,91.2l2.45,3.99c1.33,2.17,2.8,4.2,4.37,6.12l-1.78,21.68,18.95-7.79c16.46,8.47,36.82,8.39,53.76-2.01Z" style="fill: none; stroke: #fff; stroke-miterlimit: 10; stroke-width: .5px;"/>
              </g>
            </g>
            <g>
              <path d="m93.87,113.19c25.76-15.82,33.82-49.54,18-75.3l-2.45-3.99C93.6,8.14,59.89.08,34.12,15.9,8.36,31.73.3,65.44,16.12,91.2l2.45,3.99c1.33,2.17,2.8,4.2,4.37,6.12l-1.78,21.68,18.95-7.79c16.46,8.47,36.82,8.39,53.76-2.01Z" style="fill: none; stroke: #69fff4; stroke-miterlimit: 10;"/>
              <path d="m93.87,113.19c25.76-15.82,33.82-49.54,18-75.3l-2.45-3.99C93.6,8.14,59.89.08,34.12,15.9,8.36,31.73.3,65.44,16.12,91.2l2.45,3.99c1.33,2.17,2.8,4.2,4.37,6.12l-1.78,21.68,18.95-7.79c16.46,8.47,36.82,8.39,53.76-2.01Z" style="fill: none; stroke: #fff; stroke-miterlimit: 10; stroke-width: .5px;"/>
            </g>
          </g>
          <g>
            <g style="filter: url(#outer-glow-4);">
              <path d="m93.87,113.19c25.76-15.82,33.82-49.54,18-75.3l-2.45-3.99C93.6,8.14,59.89.08,34.12,15.9,8.36,31.73.3,65.44,16.12,91.2l2.45,3.99c1.33,2.17,2.8,4.2,4.37,6.12l-1.78,21.68,18.95-7.79c16.46,8.47,36.82,8.39,53.76-2.01Z" style="fill: none; stroke: #69fff4; stroke-miterlimit: 10;"/>
              <path d="m93.87,113.19c25.76-15.82,33.82-49.54,18-75.3l-2.45-3.99C93.6,8.14,59.89.08,34.12,15.9,8.36,31.73.3,65.44,16.12,91.2l2.45,3.99c1.33,2.17,2.8,4.2,4.37,6.12l-1.78,21.68,18.95-7.79c16.46,8.47,36.82,8.39,53.76-2.01Z" style="fill: none; stroke: #fff; stroke-miterlimit: 10; stroke-width: .5px;"/>
            </g>
            <g style="filter: url(#outer-glow-5);">
              <path d="m93.87,113.19c25.76-15.82,33.82-49.54,18-75.3l-2.45-3.99C93.6,8.14,59.89.08,34.12,15.9,8.36,31.73.3,65.44,16.12,91.2l2.45,3.99c1.33,2.17,2.8,4.2,4.37,6.12l-1.78,21.68,18.95-7.79c16.46,8.47,36.82,8.39,53.76-2.01Z" style="fill: none; stroke: #69fff4; stroke-miterlimit: 10;"/>
              <path d="m93.87,113.19c25.76-15.82,33.82-49.54,18-75.3l-2.45-3.99C93.6,8.14,59.89.08,34.12,15.9,8.36,31.73.3,65.44,16.12,91.2l2.45,3.99c1.33,2.17,2.8,4.2,4.37,6.12l-1.78,21.68,18.95-7.79c16.46,8.47,36.82,8.39,53.76-2.01Z" style="fill: none; stroke: #fff; stroke-miterlimit: 10; stroke-width: .5px;"/>
            </g>
          </g>
        </g>
      </g>
      <path d="m93.23,112.55c6.44-3.89,12.07-9.15,16.23-15.43.35-.47.79-1.22,1.1-1.73.35-.58.72-1.16,1.03-1.77.28-.53.71-1.27.97-1.8l.89-1.84.11-.23c.49-1.16,1.02-2.37,1.43-3.56,1.75-4.76,2.75-9.86,3-14.92.06-.64.06-2.37.06-3.04,0-.57-.06-1.44-.07-2.03l-.02-.51v-.25s-.03-.25-.03-.25l-.09-1.01c-.4-4.53-1.46-8.97-3.05-13.22-1.26-3.25-2.86-6.44-4.72-9.37-.17-.3-2.38-3.69-2.5-3.89-.4-.59-1-1.46-1.4-2.06-.58-.76-1.21-1.63-1.81-2.37-.25-.3-1.36-1.63-1.6-1.89-.52-.55-1.16-1.26-1.69-1.8-.69-.66-1.42-1.42-2.14-2.04-.25-.22-.86-.76-1.11-.98-.19-.2-1.66-1.34-1.91-1.55-.43-.36-1.13-.82-1.59-1.16-.44-.34-1.15-.8-1.62-1.1-.55-.35-1.09-.72-1.66-1.04-13.1-7.87-29.52-9.39-43.8-3.91-.41.16-1.16.45-1.56.61l-.22.1-.88.39c-1.18.5-2.31,1.1-3.45,1.69-.58.34-1.95,1.09-2.49,1.45-.4.26-1.21.78-1.62,1.03-.46.3-1.11.79-1.57,1.1-.22.16-.57.39-.78.56-.52.41-1.76,1.36-2.24,1.8-.42.37-1.03.89-1.44,1.26-.34.33-1.04,1-1.38,1.33-.68.66-1.33,1.39-1.99,2.08-.26.29-1.33,1.55-1.56,1.82-.21.26-.67.87-.88,1.13-.56.69-1.17,1.6-1.69,2.33-3.77,5.55-6.45,11.9-7.75,18.49-.1.53-.28,1.37-.35,1.9l-.28,1.91c-.05.41-.2,2.03-.23,2.4-.03.74-.1,1.68-.12,2.41,0,.93-.04,1.97.02,2.9l.04.97c.19,4.18.97,8.4,2.2,12.41.15.55.44,1.31.62,1.85.17.55.47,1.3.69,1.83.13.35.41,1.03.55,1.36.19.44.83,1.79,1.03,2.23.55,1.05,1.29,2.49,1.88,3.52.57,1,1.41,2.56,1.98,3.55.99,1.71,2.09,3.35,3.27,4.94l.5.68-.09.71-2.62,20.65-1.71-1.29c5.78-2.09,12.66-4.59,18.43-6.71l.32-.12.26.15c4.34,2.44,9.06,4.25,13.94,5.33,12.56,2.84,26.14.62,37.17-6.02h0Zm.18.73c-11.08,6.68-23.87,9.53-36.59,7.15-5-.92-12.43-3.5-17-5.78l.58.03c-5.65,2.41-11.37,4.6-17.01,7.04l-1.84.8.13-2.08,1.93-20.25.41,1.39c-.92-1.08-1.8-2.19-2.64-3.34-.84-1.11-1.61-2.34-2.37-3.52-1.05-1.64-2.34-3.64-3.33-5.33C3.44,67.83,7.47,40.55,25.42,23.39c3.67-3.55,7.91-6.53,12.4-8.93,1.31-.65,2.61-1.31,3.96-1.87.19-.08,1.08-.47,1.26-.54l.26-.1.51-.19c5.43-2.07,11.25-3.28,17.05-3.5.61-.05,1.55-.05,2.18-.04.21,0,1.17,0,1.36,0h.27s.54.04.54.04c10.09.38,20.08,3.67,28.41,9.36.61.38,1.17.82,1.75,1.25.51.36,1.23.92,1.7,1.31.49.4,1.18.96,1.65,1.37.31.27,1.71,1.54,1.97,1.81.25.25.88.88,1.14,1.13.74.72,1.47,1.59,2.17,2.35.54.61,1.17,1.43,1.69,2.06.27.31,1.32,1.79,1.59,2.14.6.83,1.2,1.8,1.77,2.65.39.66.96,1.63,1.35,2.28l.25.45,1.99,3.6c1.77,3.22,3.24,6.66,4.34,10.16.22.77.52,1.75.72,2.52,5.97,23.18-3.81,48.32-24.31,60.56h0Z" style="fill: #ff51ff;"/>
    </g>
    <path d="m55.59,60.38c4.48-.73,9.86-.02,10.33-7.17.19-2.84-2.01-4.13-4.7-3.65-5.38.96-9.6,7.34-9.6,7.34,0,0-8.72-6.03-8.2-8.11.51-2,7.4-12.23,20.22-15.12,10.63-2.4,24.31,1.84,24.08,14.9-.29,16.59-23.47,31.38-31.74,28.7-.72-.23-.41-16.9-.41-16.9Zm15.79,30.06c-.28,4.65-3.51,9.09-10.64,9.82-7.23.74-10.59-1.84-10.33-7.02.27-5.28,4.97-9.52,10.41-10.21,5.54-.7,10.82,2.85,10.55,7.41Z" style="fill: #002f70;"/>
  </g>
  <g style="clip-path: url(#clippath);">
    <g style="clip-path: url(#clippath-1);">
      <g id="Doble_p치gina_9-10.psb" data-name="Doble p치gina 9-10.psb">
        <image id="Doble_p치gina_9-10" data-name="Doble p치gina 9-10" width="9242" height="6140" transform="translate(-1549.59 -1617.76) scale(.54)" xlink:href="Flotantes1.png"/>
      </g>
    </g>
  </g>
  <rect x="-3078.46" y="-50.32" width="5844.88" height="3268.04" style="fill: none; stroke: #edff00; stroke-miterlimit: 10; stroke-width: 4px;"/>
</svg>