<?xml version="1.0" encoding="utf-8"?>
<!-- Generator: Adobe Illustrator 27.2.0, SVG Export Plug-In . SVG Version: 6.00 Build 0)  -->
<svg class="pulsate-bck" version="1.1" id="Juego" xmlns="http://www.w3.org/2000/svg" xmlns:xlink="http://www.w3.org/1999/xlink" x="0px" y="0px"
	 viewBox="0 0 129.1 131" style="enable-background:new 0 0 129.1 131;" xml:space="preserve">
<style type="text/css">
	.st0{fill:#FFFFFF;}
	.st1{fill:#03FF6D;}
	.st2{fill:#002F70;}
	.classSvgPregunta{
		animation: animate 3s linear infinite;
	}

	.classSvgPregunta {
		animation-delay: 0.1s;
	}

	@keyframes animate {
		0%{
			filter: hue-rotate(0deg);
		}
		50% {
			filter: hue-rotate(-25deg);
		}
		100%{
			filter: hue-rotate(0deg);
		}
	}
	.classInformacion{
		cursor: pointer;
	}

	.pulsate-bck {
		animation: pulsate-bck 0.5s ease-in-out 5 forwards;
		-webkit-animation: pulsate-bck 0.5s ease-in-out 5 forwards;
	}

			/* ----------------------------------------------
		* Generated by Animista on 2023-11-29 10:12:1
		* Licensed under FreeBSD License.
		* See http://animista.net/license for more info. 
		* w: http://animista.net, t: @cssanimista
		* ---------------------------------------------- */

		/**
		* ----------------------------------------
		* animation pulsate-bck
		* ----------------------------------------
		*/
		@-webkit-keyframes pulsate-bck {
		0% {
			-webkit-transform: scale(1);
					transform: scale(1);
		}
		50% {
			-webkit-transform: scale(0.9);
					transform: scale(0.9);
		}
		100% {
			-webkit-transform: scale(1);
					transform: scale(1);
		}
		}
		@keyframes pulsate-bck {
		0% {
			-webkit-transform: scale(1);
					transform: scale(1);
		}
		50% {
			-webkit-transform: scale(0.9);
					transform: scale(0.9);
		}
		100% {
			-webkit-transform: scale(1);
					transform: scale(1);
		}
		}
</style>
<g>
	<path class="st0 classInformacion" d="M24.6,120.2c5.7-2.2,11.6-5.4,17.3-7.6l0.3-0.1l0.3,0.2c4.3,2.4,9,4.2,13.8,5.3c12.4,2.9,25.9,0.7,36.8-6l0,0
		l0,0c6.3-3.9,11.9-9.1,16.1-15.6c0.4-0.5,0.8-1.2,1.1-1.7c0.3-0.5,0.7-1.1,1-1.7c0.3-0.6,0.7-1.3,1-1.8l0.9-1.8l0.1-0.2
		c0.5-1.1,1-2.4,1.4-3.6c1.7-4.9,2.7-10,2.9-15.1c0.1-0.6,0.1-2.4,0.1-3.1c0-0.6-0.1-1.4-0.1-2v-0.5v-0.2v-0.2l-0.1-1
		c-0.4-4.6-1.4-9-3-13.3c-1.2-3.3-2.8-6.4-4.6-9.4c-0.2-0.3-2.4-3.7-2.5-3.9c-0.4-0.6-1-1.4-1.4-2c-0.6-0.8-1.2-1.7-1.8-2.4
		c-0.3-0.2-1.4-1.6-1.6-1.8c-0.6-0.6-1.2-1.3-1.7-1.8c-0.7-0.6-1.4-1.4-2.1-2c-0.3-0.3-0.9-0.8-1.1-1c-0.2-0.2-1.7-1.3-1.9-1.5
		c-0.5-0.3-1.1-0.8-1.6-1.1c-0.4-0.3-1.1-0.8-1.6-1.1s-1-0.7-1.6-1c-13-7.9-29.2-9.4-43.3-3.9c-0.4,0.2-1.1,0.5-1.5,0.6L46.1,18
		l-0.9,0.4c-1.2,0.4-2.3,1-3.4,1.6c-0.5,0.3-1.9,1-2.4,1.4c-0.4,0.2-1.2,0.8-1.6,1c-0.4,0.3-1.1,0.8-1.5,1.1
		c-0.3,0.1-0.6,0.3-0.8,0.5c-0.5,0.4-1.7,1.4-2.2,1.8c-0.4,0.3-1,0.8-1.4,1.2c-0.4,0.3-1.1,1-1.4,1.3c-0.6,0.6-1.3,1.3-1.9,2
		c-0.2,0.3-1.3,1.5-1.5,1.8c-0.2,0.2-0.7,0.8-0.9,1.1c-0.6,0.8-1.2,1.7-1.7,2.4c-3.8,5.5-6.4,11.8-7.7,18.5
		c-0.1,0.6-0.2,1.4-0.3,1.9l-0.3,1.9c0,0.5-0.2,2.1-0.2,2.5c0,0.9-0.1,1.8-0.1,2.5c0,1-0.1,2,0,2.9v0.9c0.2,4.2,1,8.5,2.2,12.5
		c0.1,0.5,0.4,1.3,0.6,1.8s0.5,1.3,0.7,1.8c0.1,0.3,0.4,1,0.5,1.3c0.2,0.5,0.8,1.9,1,2.3c0.5,1.1,1.2,2.6,1.8,3.6
		c0.5,1,1.3,2.6,1.9,3.6c1,1.6,2,3.3,3.2,4.9l0.5,0.7l-0.1,0.7L24.6,120.2z"/>
	<path class="st1 classSvgPregunta classInformacion" d="M93.5,111.9L93.5,111.9c6.3-3.8,11.8-9,16.1-15.2c0.4-0.5,0.8-1.2,1.1-1.7c0.3-0.5,0.7-1.1,1-1.7
		c0.3-0.6,0.7-1.3,1-1.8l0.9-1.8l0.1-0.2c0.5-1.1,1-2.3,1.4-3.5c1.7-4.7,2.7-9.7,2.9-14.7c0.1-0.6,0.1-2.3,0.1-3
		c0-0.6-0.1-1.4-0.1-2v-0.5v-0.2v-0.2l-0.1-1c-0.4-4.5-1.4-8.8-3-13c-1.2-3.2-2.8-6.3-4.6-9.2c-0.2-0.3-2.4-3.6-2.5-3.8
		c-0.4-0.6-1-1.4-1.4-2c-0.6-0.7-1.2-1.6-1.8-2.3c-0.3-0.2-1.4-1.6-1.6-1.8c-0.6-0.6-1.2-1.3-1.7-1.8c-0.7-0.6-1.4-1.4-2.1-2
		c-0.3-0.3-0.9-0.8-1.1-1s-1.7-1.3-1.9-1.5c-0.5-0.3-1.1-0.8-1.6-1.1c-0.4-0.3-1.1-0.8-1.6-1.1s-1-0.7-1.6-1
		c-12.9-7.7-29-9.2-43-3.8c-0.4,0.2-1.1,0.5-1.5,0.6l-0.2,0.1l-0.9,0.4c-1.2,0.4-2.3,1-3.4,1.6c-0.5,0.3-1.9,1-2.4,1.4
		c-0.4,0.2-1.2,0.8-1.6,1c-0.4,0.3-1.1,0.8-1.5,1.1c-0.3,0.1-0.6,0.3-0.8,0.5c-0.5,0.4-1.7,1.4-2.2,1.8c-0.4,0.3-1,0.8-1.4,1.2
		c-0.4,0.3-1.1,1-1.4,1.3c-0.6,0.6-1.3,1.3-1.9,2c-0.2,0.3-1.3,1.5-1.5,1.8c-0.2,0.2-0.7,0.8-0.9,1.1c-0.6,0.7-1.2,1.6-1.7,2.3
		c-3.7,5.4-6.3,11.6-7.6,18.1c-0.1,0.6-0.2,1.4-0.3,1.9l-0.3,1.9c0,0.4-0.2,2-0.2,2.4c0,0.8-0.1,1.7-0.1,2.4c0,0.9-0.1,1.9,0,2.8
		v0.9c0.2,4.1,1,8.3,2.2,12.2c0.1,0.5,0.4,1.3,0.6,1.8s0.5,1.3,0.7,1.8c0.1,0.3,0.4,1,0.5,1.3c0.2,0.4,0.8,1.8,1,2.2
		c0.5,1.1,1.2,2.5,1.8,3.5c0.5,1,1.3,2.5,1.9,3.5c1,1.6,2,3.2,3.2,4.8l0.5,0.7l-0.1,0.7l-2.6,20.3l-1.7-1.3
		c5.7-2.1,12.4-4.5,18.1-6.6l0.3-0.1l0.3,0.2c4.3,2.4,8.9,4.1,13.7,5.2C69.3,120.6,82.7,118.4,93.5,111.9L93.5,111.9z M93.6,112.6
		L93.6,112.6c-10.8,6.6-23.4,9.4-35.7,7.1c-4.9-0.9-12.2-3.5-16.7-5.7h0.6c-5.5,2.4-11.2,4.5-16.7,6.9l-1.8,0.8l0.1-2.1l1.9-19.9
		l0.4,1.4c-0.9-1.1-1.8-2.2-2.6-3.3c-0.8-1-1.6-2.2-2.3-3.4c-1.1-1.6-2.3-3.5-3.3-5.2c-12-21.2-8-48,9.6-64.8
		c3.6-3.5,7.8-6.4,12.2-8.8c1.3-0.6,2.6-1.3,3.9-1.8c0.1-0.1,1-0.4,1.2-0.5l0.2-0.1l0.5-0.2c5.3-2,11-3.2,16.7-3.4
		c0.6,0,1.5,0,2.1,0c0.2,0,1.1,0,1.3,0h0.3H66c9.9,0.4,19.7,3.6,27.9,9.2c0.6,0.3,1.1,0.8,1.7,1.2c0.5,0.4,1.2,0.9,1.7,1.3
		s1.1,1,1.6,1.4c0.3,0.3,1.6,1.5,1.9,1.8c0.2,0.2,0.9,0.9,1.1,1.1c0.7,0.7,1.4,1.5,2.1,2.3c0.6,0.6,1.2,1.4,1.7,2
		c0.3,0.3,1.3,1.8,1.6,2.1c0.6,0.8,1.2,1.8,1.7,2.6c0.4,0.6,0.9,1.6,1.3,2.2l0.2,0.4l2,3.5c1.8,3.2,3.2,6.6,4.3,10
		c0.2,0.8,0.5,1.7,0.7,2.5C123.3,75.9,113.8,100.6,93.6,112.6L93.6,112.6z"/>
	<path class="st2 classInformacion" d="M56.5,60.7c4.4-0.7,9.7,0,10.1-7c0.2-2.8-2-4.1-4.6-3.6c-5.3,0.9-9.4,7.2-9.4,7.2s-8.6-5.9-8-8
		c0.5-2,7.3-12,19.8-14.8c10.4-2.3,23.9,1.8,23.6,14.6c-0.3,16.3-23,30.8-31.2,28.2C56.2,77,56.5,60.7,56.5,60.7L56.5,60.7z
		 M72,90.2c-0.3,4.6-3.4,8.9-10.4,9.6c-7.1,0.7-10.4-1.8-10.1-6.9c0.3-5.2,4.9-9.3,10.2-10C67.1,82.2,72.3,85.7,72,90.2z"/>
</g>
</svg>
