<?xml version="1.0" encoding="utf-8"?>
<!-- Generator: Adobe Illustrator 27.2.0, SVG Export Plug-In . SVG Version: 6.00 Build 0)  -->
<svg version="1.1" id="Capa_1" xmlns="http://www.w3.org/2000/svg" xmlns:xlink="http://www.w3.org/1999/xlink" x="0px" y="0px"
	 viewBox="0 0 86.2 86.2" style="enable-background:new 0 0 86.2 86.2;" xml:space="preserve">
<style type="text/css">
	.st0{fill:#FFFFFF;}
	.movimiento{
		cursor: pointer;
	}
</style>
<g>
	<g id="Capa_3">
		<g>
			<path class="movimiento" d="M39.9,86.2c-2.1-0.4-4.4-0.7-6.7-1.2C16.1,81,3,66.8,0.5,49.4C0.3,48.2,0.2,47,0,45.8c0-1.7,0-3.5,0-5.2
				c0.1-0.3,0.1-0.5,0.2-0.8c0.2-1.8,0.3-3.6,0.8-5.4C4.6,18.5,14.2,7.8,29.5,2.2c3.5-1.2,7-1.9,10.7-2.2H46c2.1,0.3,4,0.5,6,0.9
				c10.4,2.3,18.9,7.7,25.4,16.1c4.2,5.5,6.9,11.7,8.1,18.6c0.3,1.6,0.4,3.3,0.7,4.9v5.2C86.1,46,86,46.1,86,46.3
				c-0.3,5.2-1.6,10.2-3.9,15c-5.2,10.8-13.4,18.2-24.6,22.4c-3.7,1.4-7.5,2.1-11.5,2.5 M41.1,43.2c0.2-0.2,0.3-0.3,0.4-0.5
				c3.4-3.7,6.7-7.3,10.1-11c1.6-1.8,3.4-3.5,4.8-5.5c2.8-3.7,1.2-9.5-2.9-11.5c-3.6-1.7-7.2-1-9.9,2c-6.3,6.9-12.6,13.8-18.9,20.6
				c-3.2,3.5-3.2,8.1,0,11.6c3.6,3.9,7.2,7.9,10.9,11.8c2.8,3,5.4,6.1,8.3,9c2.9,3,7.8,3,11,0.2c3-2.7,3.6-7.5,1-10.7
				c-2.3-2.8-4.8-5.4-7.3-8.1C46,48.6,43.6,45.9,41.1,43.2L41.1,43.2z"/>
			<path class="st0 movimiento" d="M41.2,43.2c2.5,2.7,4.9,5.3,7.3,8c2.5,2.7,5,5.3,7.3,8.1c2.6,3.2,2,8-1,10.7c-3.2,2.8-8,2.8-11-0.2
				c-2.8-2.9-5.5-6-8.3-9c-3.6-4-7.2-7.9-10.9-11.8c-3.3-3.5-3.3-8.1,0-11.6c6.3-6.9,12.6-13.8,18.9-20.6c2.8-3,6.3-3.7,9.9-2
				c4.1,2,5.7,7.8,2.9,11.5c-1.5,1.9-3.2,3.7-4.8,5.5c-3.3,3.7-6.7,7.3-10.1,11C41.4,42.9,41.3,43,41.2,43.2L41.2,43.2z"/>
		</g>
	</g>
</g>
</svg>
