<?xml version="1.0" encoding="utf-8"?>
<!-- Generator: Adobe Illustrator 27.2.0, SVG Export Plug-In . SVG Version: 6.00 Build 0)  -->
<svg version="1.1" id="Capa_1" xmlns="http://www.w3.org/2000/svg" xmlns:xlink="http://www.w3.org/1999/xlink" x="0px" y="0px"
	 viewBox="0 0 265 74.5" style="enable-background:new 0 0 265 74.5;" xml:space="preserve">
<style type="text/css">
	.st0{fill:url(#SVGID_1_);stroke:#FFFFFF;stroke-width:2;stroke-miterlimit:10;}
	.st1{enable-background:new    ;}
	.st2{fill:#FFFFFF;}
	.elemento-svg{
		cursor: pointer;
	}
</style>
<g class="elemento-svg">
	
		<linearGradient id="SVGID_1_" gradientUnits="userSpaceOnUse" x1="8666.29" y1="9288.71" x2="9092.0703" y2="9288.71" gradientTransform="matrix(-1 0 0 -1 9033.8301 9326.9102)">
		<stop  offset="0" style="stop-color:#C204AF"/>
		<stop  offset="0" style="stop-color:#C103AF"/>
		<stop  offset="0.29" style="stop-color:#9D02C0"/>
		<stop  offset="0.56" style="stop-color:#8401CC"/>
		<stop  offset="0.81" style="stop-color:#7400D3"/>
		<stop  offset="1" style="stop-color:#6F00D6"/>
	</linearGradient>
	<path class="st0" d="M31.4,3.4L233.6,2c7.7,0,14.6,4.9,17.1,12.3L263,50.6c4,11.7-4.7,23.8-17.1,23.8H19C6.7,74.5-2,62.3,2,50.6
		l12.3-36.4C16.8,6.9,23.6,3.4,31.4,3.4z"/>
	<g class="st1">
		<path class="st2" d="M100.4,27.5c1.8,1.9,2.7,4.7,2.7,8.2c0,2.7-0.5,5.4-1.4,8s-2.4,4.9-4.5,6.6c-2.1,1.8-4.8,2.7-8,2.7
			s-5.7-1-7.5-2.9C79.9,48.2,79,45.5,79,42c0-2.7,0.5-5.4,1.4-8s2.4-4.9,4.5-6.7c2.1-1.8,4.8-2.7,8-2.7
			C96.1,24.6,98.6,25.6,100.4,27.5z M87.7,30.8c-1.2,1.5-2.1,3.3-2.6,5.4c-0.5,2.1-0.8,4.1-0.8,6.1c0,4.5,1.7,6.8,5.1,6.8
			c2.1,0,3.7-0.7,4.9-2.2c1.2-1.5,2.1-3.3,2.6-5.4c0.5-2.1,0.8-4.1,0.8-6.1c0-2.3-0.4-4.1-1.3-5.1c-0.9-1.1-2.1-1.6-3.8-1.6
			C90.6,28.6,88.9,29.3,87.7,30.8z"/>
		<path class="st2" d="M133.9,32.3c0.8,0.9,1.3,2.2,1.3,3.7c0,0.6,0,1-0.1,1.3L133,52.5h-5l2-14.2c0.1-0.5,0.1-0.9,0.1-1.1
			c0-0.8-0.2-1.3-0.5-1.6s-0.7-0.5-1.3-0.5c-1.5,0-3.1,1.7-4.9,5.2l-1.7,12.2h-5l2-14.2c0.1-0.5,0.1-0.9,0.1-1.1
			c0-0.8-0.2-1.3-0.5-1.6s-0.7-0.5-1.3-0.5c-1.5,0-3.1,1.8-4.9,5.3l-1.7,12h-5l2.9-20.9h4.3l-0.2,3.7c1.9-2.8,4.2-4.3,6.7-4.3
			c1.2,0,2.2,0.4,3.1,1.1c0.8,0.7,1.3,1.7,1.5,3c0.9-1.3,1.9-2.3,3-3s2.3-1.1,3.6-1.1C131.9,31,133.1,31.4,133.9,32.3z"/>
		<path class="st2" d="M146.7,31.6l-2.9,20.9h-5l2.9-20.9H146.7z M142.9,26.3c-0.5-0.5-0.8-1.2-0.8-2c0-1,0.3-1.8,1-2.4s1.5-1,2.5-1
			c0.8,0,1.5,0.3,2.1,0.8c0.5,0.5,0.8,1.2,0.8,2c0,0.9-0.3,1.7-1,2.4c-0.7,0.6-1.5,1-2.5,1C144.1,27.1,143.5,26.9,142.9,26.3z"/>
		<path class="st2" d="M156,46.2c-0.1,0.5-0.1,0.9-0.1,1c0,0.6,0.1,1.1,0.4,1.4c0.3,0.3,0.7,0.4,1.3,0.4c0.7,0,1.6-0.2,2.7-0.8
			l1.4,3.4c-1.6,1-3.4,1.5-5.3,1.5c-1.8,0-3.1-0.5-4.1-1.4s-1.4-2.3-1.4-4c0-0.5,0-1,0.1-1.5l1.5-10.9h-3.2l0.5-3.6h3.4l1.3-4.7
			l4.2-0.5l-0.7,5.2h4.8l-1.1,3.6h-4.3L156,46.2z"/>
		<path class="st2" d="M172.2,31.6l-2.9,20.9h-5l2.9-20.9H172.2z M168.4,26.3c-0.5-0.5-0.8-1.2-0.8-2c0-1,0.3-1.8,1-2.4s1.5-1,2.5-1
			c0.8,0,1.5,0.3,2.1,0.8s0.8,1.2,0.8,2c0,0.9-0.3,1.7-1,2.4c-0.7,0.6-1.5,1-2.5,1C169.6,27.1,169,26.9,168.4,26.3z"/>
		<path class="st2" d="M190.4,31.3l-1.5,4.9c-0.6-0.2-1.2-0.2-1.7-0.2c-1.2,0-2.3,0.5-3.2,1.6s-1.7,2.6-2.4,4.6l-1.5,10.3h-5
			l2.9-20.9h4.3l-0.2,4.1c0.8-1.5,1.7-2.7,2.7-3.5s2.1-1.2,3.3-1.2C189,31,189.7,31.1,190.4,31.3z"/>
	</g>
</g>
</svg>
