<?xml version="1.0" encoding="utf-8"?>
<!-- Generator: Adobe Illustrator 27.2.0, SVG Export Plug-In . SVG Version: 6.00 Build 0)  -->
<svg version="1.1" id="Capa_1" xmlns="http://www.w3.org/2000/svg" xmlns:xlink="http://www.w3.org/1999/xlink" x="0px" y="0px"
	 viewBox="0 0 245 242.8" style="enable-background:new 0 0 245 242.8;" xml:space="preserve">
<style type="text/css">
	.st0{opacity:0.5;}
	.st1{fill:#0080FF;}
	.st2{fill:#FEFEFE;}
</style>
<g>
	<g id="Juego">
		<g>
			<g class="st0">
				<path class="st1" d="M123.4,3.1C189.7-3.3,244,60.9,243.1,120.8c-1,64.9-52.8,120.3-122,120c-65-0.2-118-54.8-118.4-121.2
					C2.4,58.3,55.9-3,123.4,3.1z"/>
			</g>
			<g>
				<path class="st2" d="M85.7,55.6h4.8c6.6,0,12,5.4,12,12v105.9c0,6.6-5.4,12-12,12h-4.8c-6.6,0-12-5.4-12-12V67.6
					C73.7,61,79.1,55.6,85.7,55.6z"/>
				<path class="st2" d="M155.3,55.6h4.8c6.6,0,12,5.4,12,12v105.9c0,6.6-5.4,12-12,12h-4.8c-6.6,0-12-5.4-12-12V67.6
					C143.3,61,148.7,55.6,155.3,55.6z"/>
			</g>
		</g>
	</g>
</g>
</svg>
