<?xml version="1.0" encoding="utf-8"?>
<!-- Generator: Adobe Illustrator 27.2.0, SVG Export Plug-In . SVG Version: 6.00 Build 0)  -->
<svg version="1.1" id="Capa_1" xmlns="http://www.w3.org/2000/svg" xmlns:xlink="http://www.w3.org/1999/xlink" x="0px" y="0px"
	 viewBox="0 0 245 242.8" style="enable-background:new 0 0 245 242.8;" xml:space="preserve">
<style type="text/css">
	.st0{opacity:0.5;}
	.st1{fill:#0080FF;}
	.st2{fill:#FEFEFE;}
</style>
<g>
	<g id="Juego">
		<g class="st0">
			<path class="st1" d="M123.1,3.1c66.3-6.5,120.6,57.8,119.7,117.7c-1,64.9-52.8,120.3-122,120c-65-0.2-118-54.8-118.4-121.2
				C2,58.3,55.6-3,123.1,3.1z M184.1,120.8c-32.5-21.5-64.4-42.5-98-64.6c0,42.2,0,82,0,121.8c0,6.6,1.8,6.7,7,3.1
				C122.7,161.2,152.7,141.6,184.1,120.8L184.1,120.8z"/>
			<path class="st2" d="M184.1,120.8c-31.4,20.7-61.3,40.3-91,60.3c-5.2,3.5-7,3.5-7-3.1c0.1-39.8,0-79.7,0-121.8
				C119.6,78.4,151.5,99.4,184.1,120.8L184.1,120.8z"/>
		</g>
	</g>
</g>
</svg>
