<?xml version="1.0" encoding="utf-8"?>
<!-- Generator: Adobe Illustrator 27.2.0, SVG Export Plug-In . SVG Version: 6.00 Build 0)  -->
<svg version="1.1" id="Capa_1" xmlns="http://www.w3.org/2000/svg" xmlns:xlink="http://www.w3.org/1999/xlink" x="0px" y="0px"
	 viewBox="0 0 265 74.5" style="enable-background:new 0 0 265 74.5;" xml:space="preserve">
<style type="text/css">
	.st0{fill:url(#SVGID_1_);stroke:#FFFFFF;stroke-width:2;stroke-miterlimit:10;}
	.st1{enable-background:new    ;}
	.st2{fill:#FFFFFF;}
	.classNumero{
		color: rebeccapurple;
		font-size: 500px;
	}
	.classConfirmar{
		cursor: pointer;
	}
</style>

<g class="classConfirmar">
	<g id="Capa_3">
		<g>

				<linearGradient id="SVGID_1_" gradientUnits="userSpaceOnUse" x1="697.96" y1="191.11" x2="1123.75" y2="191.11" gradientTransform="matrix(-1 0 0 1 1065.51 -153.88)">
				<stop  offset="0" style="stop-color:#04C283"/>
				<stop  offset="0.21" style="stop-color:#02C85B"/>
				<stop  offset="0.44" style="stop-color:#01CE37"/>
				<stop  offset="0.65" style="stop-color:#00D21E"/>
				<stop  offset="0.85" style="stop-color:#00D50E"/>
				<stop  offset="1" style="stop-color:#00D609"/>
			</linearGradient>
			<path class="st0" d="M31.4,2.4L233.6,1c7.7,0,14.6,4.9,17.1,12.3L263,49.6c4,11.7-4.7,23.8-17.1,23.8H19C6.7,73.5-2,61.3,2,49.6
				l12.3-36.4C16.8,5.9,23.6,2.4,31.4,2.4z"/>
			<g class="st1">
				<path class="st2" d="M68.3,26.6l-2.8,2.8c-0.8-0.6-1.5-1.1-2.3-1.3c-0.8-0.3-1.6-0.4-2.5-0.4c-2,0-3.6,0.7-4.9,2.1
					c-1.3,1.4-2.2,3.1-2.7,5.2S52.3,39,52.3,41c0,2.3,0.5,4.1,1.4,5.2c0.9,1.1,2.3,1.7,3.9,1.7c1.1,0,2.1-0.2,3-0.6s1.9-1,2.9-1.7
					l2.1,3.2c-1.1,0.9-2.4,1.7-3.8,2.3c-1.4,0.6-3,0.9-4.8,0.9c-3.1,0-5.5-1-7.4-2.9s-2.7-4.7-2.7-8.3c0-2.7,0.5-5.4,1.4-8
					c0.9-2.6,2.5-4.9,4.5-6.6c2.1-1.8,4.6-2.6,7.7-2.6C63.7,23.6,66.3,24.6,68.3,26.6z"/>
			</g>
			<g class="st1">
				<path class="st2" d="M70.1,49.8c-1.5-1.6-2.2-3.7-2.2-6.5c0-2.1,0.4-4.1,1.1-6.1c0.8-2,2-3.7,3.7-5.1c1.7-1.4,3.8-2.1,6.5-2.1
					c2.7,0,4.8,0.8,6.2,2.4c1.5,1.6,2.2,3.7,2.2,6.4c0,2.1-0.4,4.1-1.1,6.1s-2,3.7-3.6,5.1s-3.9,2.1-6.5,2.1
					C73.6,52.1,71.5,51.3,70.1,49.8z M80,46.6c0.9-1.1,1.5-2.4,1.8-3.9c0.3-1.5,0.5-3,0.5-4.5c0-2.9-1.2-4.4-3.5-4.4
					c-1.4,0-2.6,0.5-3.5,1.6s-1.5,2.4-1.8,3.9c-0.4,1.5-0.5,3-0.5,4.4c0,3.1,1.2,4.6,3.6,4.6C78,48.2,79.2,47.7,80,46.6z"/>
				<path class="st2" d="M108.4,31.3c0.9,0.9,1.3,2.2,1.3,3.8c0,0.4,0,0.9-0.1,1.4l-2.1,14.9h-5l2-14.2c0.1-0.5,0.1-0.8,0.1-1
					c0-0.8-0.2-1.3-0.5-1.7c-0.3-0.3-0.8-0.5-1.3-0.5c-1.8,0-3.6,1.8-5.5,5.4l-1.7,12h-5l2.9-20.9h4.3l-0.2,3.9
					c2.1-3,4.5-4.5,7.2-4.5C106.4,30,107.5,30.4,108.4,31.3z"/>
				<path class="st2" d="M130.3,51.5h-5l2.4-17.3h-6.5l-2.2,15.5c-0.3,2.1-0.8,3.7-1.6,5c-0.8,1.3-1.7,2.3-2.9,3.1
					c-1.2,0.8-2.6,1.5-4.4,2.2l-1.3-3.7c1.1-0.4,2-0.9,2.6-1.4c0.7-0.5,1.2-1.1,1.7-1.9c0.4-0.8,0.7-1.9,0.9-3.2l2.2-15.6h-3.4
					l0.5-3.6h3.4l0.4-2.4c0.3-2,1.1-3.5,2.6-4.7c1.5-1.2,3.4-1.8,5.8-1.8c1.3,0,2.4,0.2,3.4,0.5c1,0.3,2,0.7,3,1.3l-1.8,3.2
					c-1.4-0.8-2.8-1.2-4.3-1.2c-1.2,0-2.1,0.2-2.7,0.7c-0.6,0.5-1,1.2-1.1,2.3l-0.3,2.1h11.5L130.3,51.5z"/>
				<path class="st2" d="M151.5,30.3l-1.5,4.9c-0.6-0.2-1.2-0.2-1.7-0.2c-1.2,0-2.3,0.5-3.2,1.6c-0.9,1.1-1.7,2.6-2.4,4.6l-1.5,10.3
					h-5l2.9-20.9h4.3l-0.2,4.1c0.8-1.5,1.7-2.7,2.7-3.5c1-0.8,2.1-1.2,3.3-1.2C150.1,30,150.8,30.1,151.5,30.3z"/>
				<path class="st2" d="M179.9,31.3c0.8,0.9,1.3,2.2,1.3,3.7c0,0.6,0,1-0.1,1.3L179,51.5h-5l2-14.2c0.1-0.5,0.1-0.9,0.1-1.1
					c0-0.8-0.2-1.3-0.5-1.6c-0.3-0.3-0.7-0.5-1.3-0.5c-1.5,0-3.1,1.7-4.9,5.2l-1.7,12.2h-5l2-14.2c0.1-0.5,0.1-0.9,0.1-1.1
					c0-0.8-0.2-1.3-0.5-1.6c-0.3-0.3-0.7-0.5-1.3-0.5c-1.5,0-3.1,1.8-4.9,5.3l-1.7,12h-5l2.9-20.9h4.3l-0.2,3.7
					c2-2.8,4.2-4.3,6.7-4.3c1.2,0,2.2,0.4,3.1,1.1c0.8,0.7,1.3,1.7,1.5,3c0.9-1.3,1.9-2.3,3-3c1.1-0.7,2.3-1.1,3.6-1.1
					C178,30,179.1,30.4,179.9,31.3z"/>
				<path class="st2" d="M204.3,32l-2,14c-0.1,0.5-0.1,0.8-0.1,0.9c0,0.4,0.1,0.8,0.3,1.1c0.2,0.3,0.5,0.5,0.9,0.7L202,52
					c-2.5-0.3-3.9-1.4-4.3-3.5c-1.7,2.4-3.8,3.6-6.2,3.6c-2.1,0-3.8-0.7-5-2.2c-1.2-1.5-1.8-3.5-1.8-6c0-2.2,0.4-4.3,1.2-6.4
					c0.8-2.1,2.1-3.9,3.8-5.3c1.7-1.4,3.9-2.1,6.6-2.1C199.1,30,201.7,30.7,204.3,32z M192.7,35.3c-0.9,1-1.6,2.3-2.1,3.9
					c-0.4,1.6-0.7,3.1-0.7,4.7c0,2.9,1,4.3,2.9,4.3c0.9,0,1.7-0.3,2.5-0.9c0.7-0.6,1.5-1.4,2.3-2.5l1.5-10.7
					c-0.8-0.4-1.8-0.6-2.8-0.6C194.8,33.7,193.6,34.2,192.7,35.3z"/>
				<path class="st2" d="M222.5,30.3l-1.5,4.9c-0.6-0.2-1.2-0.2-1.7-0.2c-1.2,0-2.3,0.5-3.2,1.6c-0.9,1.1-1.7,2.6-2.4,4.6l-1.5,10.3
					h-5l2.9-20.9h4.3l-0.2,4.1c0.8-1.5,1.7-2.7,2.7-3.5c1-0.8,2.1-1.2,3.3-1.2C221.1,30,221.8,30.1,222.5,30.3z"/>
			</g>
		</g>
	</g>
</g>
</svg>
