<?xml version="1.0" encoding="utf-8"?>
<!-- Generator: Adobe Illustrator 27.2.0, SVG Export Plug-In . SVG Version: 6.00 Build 0)  -->
<svg version="1.1" id="Capa_1" xmlns="http://www.w3.org/2000/svg" xmlns:xlink="http://www.w3.org/1999/xlink" x="0px" y="0px"
	 viewBox="0 0 192 202.2" style="enable-background:new 0 0 192 202.2;" xml:space="preserve">
<g>
	<g id="Capa_3">
		<g>
			<polygon points="55.4,196.9 45.9,62.7 65.3,40.4 129.8,58.3 133.3,90 			"/>
			<g>
				<path d="M56.5,202.2c0,0,137.2-116.2,135.4-117.3S137.2,93,137.2,93S56.5,202.2,56.5,202.2z"/>
				<polygon points="0,32 52,200.3 40,65.4 				"/>
				<polygon points="42.1,60.1 61.8,37.8 25.8,10.5 0,26 				"/>
				<polygon points="133.5,58.2 178.9,49.9 190.7,81 136.9,89.3 				"/>
			</g>
			<path d="M28.5,7.1c0,0,46.6-7.9,48.5-7s65.2,19.1,65.2,19.1l33.3,27.3l-45.6,6.1L64.2,34.9L28.5,7.1z"/>
		</g>
	</g>
</g>
</svg>
