<?xml version="1.0" encoding="utf-8"?>
<!-- Generator: Adobe Illustrator 27.2.0, SVG Export Plug-In . SVG Version: 6.00 Build 0)  -->
<svg version="1.1" id="Capa_1" xmlns="http://www.w3.org/2000/svg" xmlns:xlink="http://www.w3.org/1999/xlink" x="0px" y="0px"
	 viewBox="0 0 57.8 45.9" style="enable-background:new 0 0 57.8 45.9;" xml:space="preserve">
<style type="text/css">
	.st0{fill:url(#SVGID_1_);}
	.st1{fill:#FFFFFF;}
</style>
<g>
	<g id="Capa_3">
		<g>
			<g>
				
					<linearGradient id="SVGID_1_" gradientUnits="userSpaceOnUse" x1="-2974.5" y1="4935.0283" x2="-2929.1101" y2="4935.0283" gradientTransform="matrix(6.123234e-17 -1 -1 -6.123234e-17 4963.8799 -2929.1101)">
					<stop  offset="0" style="stop-color:#FF4722"/>
					<stop  offset="1" style="stop-color:#FF4770"/>
				</linearGradient>
				<path class="st0" d="M13.5,0C30.1,0,58,14.9,57.3,22.9c-0.6,7.5-27.2,22.4-43.8,22.4S0.7,35.2,0.7,22.7S-3,0,13.5,0z"/>
				<path d="M13.5,0c13.8,0.6,27.2,6.4,38.4,14.5c2.6,2.3,5.9,4.7,5.9,8.6c-0.8,3.7-3.8,6-6.5,8.3C39.5,40,22.2,48.3,7.4,45.3
					c-10.5-2.5-6.6-15.2-6.8-23c0.1-5.1-0.9-10.4,0.3-15.5C2.1,1.1,8.6-0.1,13.5,0L13.5,0z M13.5,0C8.6-0.1,2.2,1.1,1,6.8
					c-1.1,5.1-0.1,10.3-0.1,15.5c0.1,3.5-0.2,6.9-0.2,10.4c-0.4,8.6,3.3,12.2,11.9,12.1c13.6-0.3,26.9-6.6,37.8-14.3
					c2.4-2,5.6-4.3,6.3-7.5c0.1-3.2-3-5.9-5.3-7.9C40.7,6.8,27.3,0.7,13.5,0L13.5,0z"/>
			</g>
			<g>
				<path class="st1" d="M13.7,37.4c-0.8-0.5-1.5-1.1-2-1.9s-0.9-1.8-1.1-3c0-0.2-0.1-0.4-0.1-0.6c0-0.2,0-0.4,0-0.5
					c0-0.2,0.2-0.4,0.6-0.6s0.8-0.3,1.4-0.5s1-0.2,1.3-0.2c0.1,0,0.1,0,0.2,0.1s0.1,0.2,0.1,0.3l0,0c0.1,0.9,0.3,1.7,0.5,2.2
					s0.5,1,0.8,1.2c0.3,0.2,0.6,0.4,1,0.4c0.5,0,1-0.3,1.5-0.8s0.8-1.3,1.1-2.4s0.4-2.2,0.4-3.6c0-1.5-0.2-2.8-0.6-3.7
					c-0.4-0.9-0.9-1.5-1.5-1.8c-0.6-0.2-1.3-0.2-2,0.2c-0.2,0.1-0.3,0.1-0.5-0.1c-0.2-0.1-0.4-0.5-0.7-1c-0.1-0.3-0.2-0.6-0.3-0.8
					c0-0.2,0-0.4,0-0.6c0-0.2,0.1-0.3,0.2-0.5c0,0,0-0.1,0.1-0.1c1.2-2.2,2.2-4.2,3.3-6.1c0.3-0.6,0.7-1.2,1-1.8s0.7-1.2,1.1-1.9
					l1.5,1.2c-0.7,0-1.3,0-1.7,0c-0.4,0-1,0-1.6,0c-0.6,0-1.2,0-1.9,0c-0.8,0-1.6,0-2.2,0c-0.2,0-0.4-0.1-0.6-0.2
					c-0.1-0.2-0.2-0.4-0.3-0.9c-0.1-0.4-0.1-0.9,0-1.6c0-0.3,0.1-0.6,0.2-0.7s0.2-0.2,0.4-0.2c0.6,0,1.4,0,2.3,0c0.4,0,0.8,0,1.2,0
					s0.9,0,1.3,0c0.7,0,1.9,0,3.6-0.1c0.4,0,0.7,0,1,0c0.3,0,0.5,0,0.8,0c0.1,0,0.3,0,0.4,0.1s0.2,0.2,0.2,0.4
					c0,0.2,0.1,0.4,0.1,0.8c0,0.2,0,0.4,0,0.6c0,0.2,0,0.3,0,0.5c0,0.2,0,0.3-0.1,0.4c0,0.1-0.1,0.2-0.1,0.3s-0.1,0.2-0.1,0.3
					c-1,1.7-2,3.2-2.8,4.6s-1.6,2.9-2.6,4.5c-0.3,0.5-0.5,0.9-0.7,1.2l-0.3-1.7c0.9-0.3,1.8-0.2,2.8,0.3s1.8,1.5,2.5,3
					c0.7,1.4,1,3.3,1,5.5c0,2-0.3,3.8-0.9,5.4s-1.5,2.8-2.6,3.7S17.9,38,16.5,38C15.5,38,14.5,37.8,13.7,37.4L13.7,37.4z"/>
				<path class="st1" d="M26.5,37.7c-0.4-0.3-0.8-0.6-1-1.1S25,35.7,25,35.2c0-0.5,0.1-0.9,0.4-1.4s0.6-0.9,1.1-1.2s0.9-0.5,1.3-0.5
					c0.5,0,0.9,0.1,1.4,0.4s0.8,0.6,1,1.1c0.3,0.4,0.4,0.9,0.4,1.4c0,0.5-0.1,0.9-0.4,1.4c-0.3,0.5-0.6,0.9-1.1,1.2
					c-0.4,0.3-0.9,0.5-1.3,0.5C27.3,38.1,26.9,38,26.5,37.7z"/>
			</g>
		</g>
	</g>
</g>
</svg>
