<?xml version="1.0" encoding="utf-8"?>
<!-- Generator: Adobe Illustrator 27.2.0, SVG Export Plug-In . SVG Version: 6.00 Build 0)  -->
<svg version="1.1" id="Capa_1" xmlns="http://www.w3.org/2000/svg" xmlns:xlink="http://www.w3.org/1999/xlink" x="0px" y="0px"
	 viewBox="0 0 58.6 45.9" style="enable-background:new 0 0 58.6 45.9;" xml:space="preserve">
<style type="text/css">
	.st0{fill:url(#SVGID_1_);}
	.st1{fill:#FFFFFF;}
</style>
<g>
	<g id="Capa_3">
		<g>
			<g>
				
					<linearGradient id="SVGID_1_" gradientUnits="userSpaceOnUse" x1="-2866.04" y1="4824.917" x2="-2820.6501" y2="4824.917" gradientTransform="matrix(6.123234e-17 -1 -1 -6.123234e-17 4854.1802 -2820.6501)">
					<stop  offset="0" style="stop-color:#FF4722"/>
					<stop  offset="1" style="stop-color:#FF4770"/>
				</linearGradient>
				<path class="st0" d="M13.7,0c16.8,0,45.1,14.9,44.4,22.9c-0.6,7.5-27.6,22.4-44.4,22.4s-13-10.2-13-22.7S-3,0,13.7,0z"/>
				<path d="M13.7,0c13.9,0.6,27.5,6.4,38.8,14.4c4.7,3.7,8.9,8.1,3.5,13.4C45.3,38.4,22.9,48.4,7.7,45.3c-10.8-2.2-7.1-15.1-7.2-23
					c0.2-5.2-0.9-10.5,0.3-15.7C2.2,1,8.7-0.1,13.7,0L13.7,0z M13.7,0C8.8,0,2.3,1.1,1,6.7c-1.2,5.1-0.1,10.4-0.1,15.6
					c0.5,7.5-3.3,20,7,21.9c14.4,2.3,31.7-5.8,43.3-13.9c2.5-2,5.7-4.3,6.3-7.5c0-3.3-3.2-5.9-5.5-7.9C41.1,6.7,27.6,0.7,13.7,0
					L13.7,0z"/>
			</g>
			<g>
				<path class="st1" d="M12.7,35.5c-0.1-0.1-0.2-0.2-0.2-0.4c0-0.2-0.1-0.5-0.1-0.8c0-0.5,0-1,0.1-1.3s0.1-0.5,0.2-0.7
					c0.1-0.2,0.3-0.2,0.5-0.2c0.8,0,1.5,0,2.2,0S17,32,18,32c0.6,0,1.4-0.1,2.1-0.1s1.5,0,2.2,0c0.2,0,0.3,0,0.4,0.1
					c0.1,0.1,0.1,0.2,0.2,0.4c0,0.2,0,0.4,0,0.8c0,0.6,0,1,0,1.3s-0.1,0.6-0.2,0.7c-0.1,0.2-0.2,0.2-0.4,0.2c-0.6,0-1.3,0-2,0
					c-0.7,0-1.4,0-2,0.1c-0.9,0-1.8,0.1-2.6,0.1c-0.8,0-1.6,0-2.5,0C13,35.6,12.8,35.6,12.7,35.5L12.7,35.5z M15.4,34.6l1-17.3
					l0.1-1.8c0.1-1.2,0.1-2.5,0.2-3.7c0.1-1.2,0.1-2.4,0.1-3.4l1.2,1c-0.3,0.4-0.6,0.7-0.9,1.1c-0.3,0.3-0.5,0.6-0.7,0.8
					S16,11.7,15.6,12c-0.2,0.1-0.4,0.2-0.6,0.2c-0.2,0-0.4-0.1-0.5-0.2c-0.1-0.1-0.1-0.1-0.2-0.2c-0.2-0.2-0.4-0.5-0.6-0.7
					c-0.2-0.3-0.4-0.5-0.4-0.7c-0.1-0.2-0.2-0.4-0.2-0.6c0-0.2,0-0.3,0.1-0.4s0.2-0.2,0.3-0.4c0.7-0.6,1.4-1.3,1.9-1.9
					c0.6-0.6,1.1-1.1,1.5-1.6c0.1-0.1,0.2-0.2,0.2-0.3c0-0.1,0.1-0.2,0.2-0.3c0.1-0.1,0.2-0.2,0.3-0.2c0.1-0.1,0.2-0.1,0.4-0.1
					c0.1,0,0.4,0,0.7,0h0.5c0.4,0,0.8,0,1.1,0.1s0.5,0.1,0.6,0.2c0.1,0.1,0.2,0.3,0.2,0.5c0,0.3,0,1.6-0.1,3.9
					c-0.1,2.3-0.2,4.4-0.3,6.3c0,0.9-0.1,1.5-0.1,1.7l-1,17.2C19.8,34.7,15.4,34.6,15.4,34.6z"/>
				<path class="st1" d="M25.9,35.8c-0.4-0.3-0.8-0.6-1-1.1c-0.3-0.5-0.4-0.9-0.4-1.4c0-0.5,0.1-0.9,0.4-1.4s0.6-0.9,1.1-1.2
					s0.9-0.5,1.3-0.5c0.5,0,1,0.1,1.4,0.4c0.4,0.3,0.8,0.6,1,1.1c0.3,0.4,0.4,0.9,0.4,1.4c0,0.5-0.1,0.9-0.4,1.4s-0.6,0.9-1.1,1.2
					c-0.4,0.3-0.9,0.5-1.3,0.5C26.8,36.2,26.4,36,25.9,35.8L25.9,35.8z"/>
			</g>
		</g>
	</g>
</g>
</svg>
