<?xml version="1.0" encoding="utf-8"?>
<!-- Generator: Adobe Illustrator 27.2.0, SVG Export Plug-In . SVG Version: 6.00 Build 0)  -->
<svg version="1.1" id="Capa_1" xmlns="http://www.w3.org/2000/svg" xmlns:xlink="http://www.w3.org/1999/xlink" x="0px" y="0px"
	 viewBox="0 0 58.6 45.9" style="enable-background:new 0 0 58.6 45.9;" xml:space="preserve">
<style type="text/css">
	.st0{fill:url(#SVGID_1_);}
	.st1{fill:#FFFFFF;}
</style>
<g>
	<g id="Capa_3">
		<g>
			<g>
				
					<linearGradient id="SVGID_1_" gradientUnits="userSpaceOnUse" x1="-2920.3499" y1="4879.937" x2="-2874.96" y2="4879.937" gradientTransform="matrix(6.123234e-17 -1 -1 -6.123234e-17 4909.2002 -2874.96)">
					<stop  offset="0" style="stop-color:#FF4722"/>
					<stop  offset="1" style="stop-color:#FF4770"/>
				</linearGradient>
				<path class="st0" d="M13.7,0c16.8,0,45.1,14.9,44.4,22.9c-0.6,7.5-27.6,22.4-44.4,22.4s-13-10.2-13-22.7S-3,0,13.7,0z"/>
				<path d="M13.7,0c13.9,0.6,27.5,6.4,38.8,14.4c4.7,3.7,8.9,8.1,3.5,13.4C45.3,38.4,22.9,48.4,7.7,45.3c-10.8-2.2-7.1-15.1-7.2-23
					c0.2-5.2-0.9-10.5,0.3-15.7C2.2,1,8.7-0.1,13.7,0L13.7,0z M13.7,0C8.8,0,2.3,1.1,1,6.7c-1.2,5.1-0.1,10.4-0.1,15.6
					c0.5,7.5-3.3,20,7,21.9c14.4,2.3,31.7-5.8,43.3-13.9c2.5-2,5.7-4.3,6.3-7.5c0-3.3-3.2-5.9-5.5-7.9C41.1,6.7,27.6,0.7,13.7,0
					L13.7,0z"/>
			</g>
			<g>
				<path class="st1" d="M10.4,35.8c-0.1-0.1-0.2-0.4-0.2-0.7c-0.1-0.3-0.1-0.8-0.1-1.4c0-0.2,0-0.5,0.1-0.7c0.1-0.2,0.1-0.6,0.3-1
					c0.4-1.5,0.9-2.9,1.4-4.1s1-2.4,1.6-3.3s1.1-1.9,1.7-2.8c0.2-0.4,0.4-0.7,0.7-1c0.2-0.3,0.4-0.6,0.6-0.9
					c0.8-1.1,1.4-2.1,1.8-2.8c0.4-0.7,0.8-1.5,1-2.4s0.4-1.9,0.4-3c0-0.6-0.1-1.1-0.2-1.6c-0.1-0.5-0.3-0.8-0.6-1.1
					c-0.3-0.2-0.6-0.4-1-0.4c-0.5,0-0.9,0.2-1.2,0.5s-0.6,0.8-0.8,1.3s-0.5,1.4-0.7,2.3c0,0.1-0.1,0.3-0.2,0.3s-0.2,0.1-0.4,0.1
					s-0.4,0-0.6,0c-0.6-0.1-1.1-0.2-1.5-0.3s-0.6-0.3-0.8-0.4c-0.2-0.2-0.2-0.4-0.2-0.6c0-0.1,0-0.2,0-0.3c0-0.1,0-0.2,0-0.4
					c0-0.1,0-0.1,0-0.2c0.2-1.1,0.6-2.2,1.2-3.1c0.6-0.9,1.3-1.7,2.2-2.3s1.9-0.9,3.1-0.9c1.3,0,2.4,0.3,3.3,0.9S23,6.9,23.4,8
					s0.7,2.2,0.7,3.5c0,1.5-0.2,2.9-0.5,4.1s-0.8,2.2-1.3,3.1s-1.3,2-2.2,3.2c-0.2,0.3-0.5,0.7-0.7,1c-0.2,0.3-0.5,0.6-0.7,1
					c-0.6,0.9-1.2,1.8-1.8,2.8s-1,2-1.5,3.2s-0.9,2.5-1.2,4L14,32.1c0.8,0,1.3-0.1,1.6-0.1c0.4,0,0.7,0,1,0s0.7,0,1.1,0h0.8
					c0.9,0,1.6,0,2.4,0c0.7,0,1.3,0.1,1.8,0.1c0.2,0,0.4,0.1,0.5,0.2s0.2,0.2,0.2,0.4s0.1,0.5,0.1,0.9v0.2c0,0.5,0,1-0.1,1.3
					c-0.1,0.3-0.2,0.6-0.3,0.7c-0.1,0.2-0.2,0.2-0.4,0.2c-0.4,0-0.9,0-1.3-0.1c-1.2,0-2.4-0.1-3.5-0.1c-0.9,0-1.8,0-2.7,0
					c-0.8,0-1.6,0-2.2,0c-0.4,0-0.7,0-0.9,0c-0.3,0-0.6,0-1,0C10.8,36,10.6,35.9,10.4,35.8L10.4,35.8z"/>
				<path class="st1" d="M26.2,36.1c-0.4-0.3-0.8-0.6-1-1.1c-0.3-0.5-0.4-0.9-0.4-1.4c0-0.5,0.1-0.9,0.4-1.4
					c0.3-0.5,0.6-0.9,1.1-1.2c0.4-0.3,0.9-0.5,1.3-0.5c0.5,0,1,0.1,1.4,0.4s0.8,0.6,1,1.1c0.3,0.5,0.4,0.9,0.4,1.4
					c0,0.5-0.1,0.9-0.4,1.4c-0.3,0.5-0.6,0.9-1.1,1.2c-0.4,0.3-0.9,0.5-1.3,0.5C27.1,36.6,26.7,36.4,26.2,36.1L26.2,36.1z"/>
			</g>
		</g>
	</g>
</g>
</svg>
