<?xml version="1.0" encoding="utf-8"?>
<!-- Generator: Adobe Illustrator 27.2.0, SVG Export Plug-In . SVG Version: 6.00 Build 0)  -->
<svg version="1.1" id="Juego" xmlns="http://www.w3.org/2000/svg" xmlns:xlink="http://www.w3.org/1999/xlink" x="0px" y="0px"
	 viewBox="0 0 357 88.2" style="enable-background:new 0 0 357 88.2;" xml:space="preserve">
<style type="text/css">
	.st0{fill:url(#SVGID_1_);stroke:#FFFFFF;stroke-width:2;stroke-miterlimit:10;}
	.st1{enable-background:new    ;}
	.st2{fill:#FFFFFF;}
</style>
<linearGradient id="SVGID_1_" gradientUnits="userSpaceOnUse" x1="20004.4102" y1="4910.9199" x2="20578.8203" y2="4910.9199" gradientTransform="matrix(1 0 0 1 -20142.8594 -4866.8203)">
	<stop  offset="0" style="stop-color:#04C283"/>
	<stop  offset="0.21" style="stop-color:#02C85B"/>
	<stop  offset="0.44" style="stop-color:#01CE37"/>
	<stop  offset="0.65" style="stop-color:#00D21E"/>
	<stop  offset="0.85" style="stop-color:#00D50E"/>
	<stop  offset="1" style="stop-color:#00D609"/>
</linearGradient>
<path class="st0" d="M316.7,86.6L40.6,87.2c-10,0-18.9-5.9-22.1-14.6l-16-43.3C-2.7,15.4,8.6,1,24.6,1h308c16,0,27.3,14.4,22.1,28.3
	l-16,44.3C335.6,82.4,326.7,86.6,316.7,86.6L316.7,86.6z"/>
<g class="st1">
	<path class="st2" d="M52.7,33.5l-2.9,2.8c-0.8-0.8-1.7-1.4-2.6-1.7c-0.9-0.4-1.9-0.5-3-0.5c-1.4,0-2.5,0.3-3.4,1
		c-0.9,0.7-1.3,1.5-1.3,2.7c0,0.6,0.1,1.1,0.4,1.6c0.3,0.4,0.8,0.8,1.4,1.2c0.7,0.4,1.6,0.8,2.9,1.2c2.3,0.7,4,1.6,5.2,2.8
		c1.2,1.1,1.8,2.7,1.8,4.8c0,1.5-0.4,3-1.2,4.4s-2,2.5-3.7,3.4c-1.7,0.9-3.8,1.3-6.3,1.3c-3.9,0-7-1.3-9.3-3.8l3-3
		c0.9,0.9,1.8,1.6,2.8,2c1,0.5,2.2,0.7,3.5,0.7c1.7,0,3.1-0.4,4.1-1.2c1-0.8,1.5-1.9,1.5-3.3c0-1-0.3-1.8-1-2.4
		c-0.7-0.6-1.9-1.2-3.6-1.8c-2.5-0.8-4.3-1.8-5.4-2.9c-1.1-1.1-1.7-2.6-1.7-4.4c0-1.4,0.4-2.6,1.1-3.9c0.8-1.2,1.9-2.2,3.4-3
		c1.5-0.8,3.3-1.2,5.4-1.2C47.6,30.1,50.4,31.2,52.7,33.5z"/>
	<path class="st2" d="M62,37l-2.9,20.6h-4.9L57.1,37H62z M58.3,31.8c-0.5-0.5-0.8-1.2-0.8-1.9c0-1,0.3-1.8,1-2.4
		c0.6-0.6,1.5-1,2.4-1c0.8,0,1.5,0.3,2,0.8s0.8,1.2,0.8,2c0,0.9-0.3,1.7-1,2.4c-0.7,0.6-1.5,1-2.4,1C59.5,32.6,58.9,32.3,58.3,31.8z
		"/>
	<path class="st2" d="M84.6,38.4l-2.7,18.1c-0.5,3.4-1.6,5.9-3.3,7.4c-1.7,1.5-4,2.3-7,2.3c-1.2,0-2.5-0.2-3.8-0.6
		c-1.3-0.4-2.5-0.9-3.6-1.6l1.7-3.5c0.9,0.5,1.8,0.9,2.7,1.2s1.9,0.4,2.9,0.4c1.5,0,2.7-0.4,3.6-1.1c1-0.7,1.6-2.1,1.9-4.2l0.3-2.3
		c-0.8,0.9-1.6,1.6-2.6,2.1c-1,0.5-2,0.8-3.1,0.8c-2.1,0-3.7-0.7-4.9-2.1c-1.2-1.4-1.8-3.3-1.8-5.7c0-2.2,0.4-4.3,1.2-6.3
		c0.8-2,2.1-3.7,3.8-5c1.7-1.3,3.9-2,6.6-2C79.5,36.4,82.1,37.1,84.6,38.4z M73,41.5c-1,1-1.7,2.2-2.1,3.6c-0.4,1.5-0.7,3-0.7,4.5
		c0,1.5,0.3,2.5,0.8,3.2c0.5,0.7,1.2,1,2.1,1c0.9,0,1.7-0.3,2.5-0.9c0.8-0.6,1.5-1.4,2.3-2.4l1.6-9.9c-0.5-0.2-1-0.4-1.4-0.4
		c-0.4-0.1-0.9-0.1-1.5-0.1C75.1,40.1,73.9,40.6,73,41.5z"/>
	<path class="st2" d="M89.4,56.9c-0.9-0.9-1.3-2.1-1.3-3.7c0-0.5,0-0.9,0.1-1.4L90.3,37h4.9l-2,14.1c-0.1,0.5-0.1,0.9-0.1,1.1
		c0,0.8,0.1,1.3,0.4,1.6c0.3,0.3,0.7,0.5,1.3,0.5c0.9,0,1.8-0.4,2.6-1.1c0.8-0.7,1.6-1.7,2.4-2.9l1.9-13.3h4.9l-2.9,20.6h-4.3
		l0.2-3.4c-1,1.3-2,2.3-3.1,2.9s-2.3,1-3.6,1C91.6,58.2,90.3,57.8,89.4,56.9z"/>
	<path class="st2" d="M117.6,37l-2.9,20.6h-4.9l2.9-20.6H117.6z M113.9,31.8c-0.5-0.5-0.8-1.2-0.8-1.9c0-1,0.3-1.8,1-2.4
		c0.6-0.6,1.5-1,2.4-1c0.8,0,1.5,0.3,2,0.8s0.8,1.2,0.8,2c0,0.9-0.3,1.7-1,2.4c-0.7,0.6-1.5,1-2.4,1
		C115.1,32.6,114.4,32.3,113.9,31.8z"/>
	<path class="st2" d="M135.4,47.6c-2.4,1.2-5.7,2-9.7,2.4c0.1,2.9,1.4,4.3,4,4.3c0.9,0,1.8-0.1,2.7-0.4c0.9-0.3,1.8-0.8,2.7-1.5
		l1.9,3.1c-2.5,1.8-5.1,2.7-7.8,2.7c-2.8,0-4.9-0.8-6.3-2.3c-1.5-1.5-2.2-3.6-2.2-6.3c0-2.1,0.4-4.1,1.2-6.1c0.8-2,2-3.7,3.7-5.1
		c1.7-1.4,3.8-2,6.4-2c1.5,0,2.8,0.2,3.9,0.7c1.1,0.5,1.9,1.2,2.4,2c0.5,0.8,0.8,1.7,0.8,2.7C139,44.5,137.8,46.5,135.4,47.6z
		 M132,45.2c1.3-0.8,1.9-1.8,1.9-3.1c0-0.5-0.2-1-0.5-1.5c-0.4-0.4-1-0.6-1.8-0.6c-1.6,0-2.9,0.7-3.8,2c-0.9,1.3-1.5,2.9-1.9,4.8
		C128.6,46.5,130.7,46,132,45.2z"/>
	<path class="st2" d="M158.7,37.8c0.8,0.9,1.3,2.1,1.3,3.7c0,0.4,0,0.9-0.1,1.4l-2.1,14.7h-4.9l2-14c0.1-0.5,0.1-0.8,0.1-1
		c0-0.8-0.2-1.3-0.5-1.7c-0.3-0.3-0.7-0.5-1.3-0.5c-1.8,0-3.6,1.8-5.4,5.3l-1.7,11.8h-4.9L144,37h4.3l-0.2,3.8
		c2-2.9,4.4-4.4,7.1-4.4C156.7,36.4,157.8,36.9,158.7,37.8z"/>
</g>
<g class="st1">
	<path class="st2" d="M169.6,51.4c-0.1,0.5-0.1,0.8-0.1,1c0,0.6,0.1,1.1,0.4,1.3c0.3,0.3,0.7,0.4,1.2,0.4c0.7,0,1.6-0.2,2.7-0.7
		l1.4,3.3c-1.6,1-3.3,1.5-5.2,1.5c-1.7,0-3.1-0.5-4-1.4c-0.9-0.9-1.4-2.2-1.4-3.9c0-0.5,0-1,0.1-1.5l1.5-10.8h-3.2l0.5-3.6h3.4
		l1.3-4.7l4.1-0.5l-0.7,5.1h4.8l-1.1,3.6h-4.2L169.6,51.4z"/>
</g>
<g class="st1">
	<path class="st2" d="M191.7,47.6c-2.4,1.2-5.7,2-9.7,2.4c0.1,2.9,1.4,4.3,4,4.3c0.9,0,1.8-0.1,2.7-0.4c0.9-0.3,1.8-0.8,2.7-1.5
		l1.9,3.1c-2.5,1.8-5.1,2.7-7.8,2.7c-2.8,0-4.9-0.8-6.3-2.3c-1.5-1.5-2.2-3.6-2.2-6.3c0-2.1,0.4-4.1,1.2-6.1c0.8-2,2-3.7,3.7-5.1
		c1.7-1.4,3.8-2,6.4-2c1.5,0,2.8,0.2,3.9,0.7c1.1,0.5,1.9,1.2,2.4,2c0.5,0.8,0.8,1.7,0.8,2.7C195.4,44.5,194.1,46.5,191.7,47.6z
		 M188.3,45.2c1.3-0.8,2-1.8,2-3.1c0-0.5-0.2-1-0.5-1.5c-0.4-0.4-1-0.6-1.8-0.6c-1.6,0-2.9,0.7-3.8,2c-0.9,1.3-1.5,2.9-1.9,4.8
		C185,46.5,187,46,188.3,45.2z"/>
	<path class="st2" d="M234.9,37.8c0.8,0.9,1.2,2.1,1.2,3.7c0,0.6,0,1-0.1,1.3l-2.1,14.9H229l2-14c0.1-0.5,0.1-0.9,0.1-1.1
		c0-0.8-0.2-1.3-0.4-1.6c-0.3-0.3-0.7-0.4-1.3-0.4c-1.5,0-3.1,1.7-4.8,5.1l-1.7,12h-4.9l2-14c0.1-0.5,0.1-0.9,0.1-1.1
		c0-0.8-0.2-1.3-0.4-1.6c-0.3-0.3-0.7-0.4-1.3-0.4c-1.5,0-3.1,1.8-4.8,5.3l-1.6,11.9h-4.9l2.9-20.6h4.3l-0.2,3.6
		c1.9-2.8,4.1-4.2,6.6-4.2c1.2,0,2.2,0.4,3,1.1c0.8,0.7,1.3,1.7,1.5,3c0.9-1.3,1.9-2.3,3-3s2.3-1.1,3.5-1.1
		C232.9,36.4,234,36.9,234.9,37.8z"/>
	<path class="st2" d="M247.5,37l-2.9,20.6h-4.9l2.9-20.6H247.5z M243.7,31.8c-0.5-0.5-0.8-1.2-0.8-1.9c0-1,0.3-1.8,1-2.4
		c0.7-0.6,1.5-1,2.4-1c0.8,0,1.5,0.3,2,0.8s0.8,1.2,0.8,2c0,0.9-0.3,1.7-1,2.4c-0.7,0.6-1.5,1-2.4,1
		C244.9,32.6,244.3,32.3,243.7,31.8z"/>
	<path class="st2" d="M266.6,39l-2.3,2.8c-1.6-1.1-3.2-1.7-5-1.7c-1.1,0-1.9,0.2-2.5,0.6c-0.6,0.4-0.9,0.9-0.9,1.6
		c0,0.6,0.3,1.1,0.8,1.5c0.5,0.4,1.6,0.8,3.2,1.3c1.9,0.6,3.3,1.4,4.2,2.4c0.9,1,1.4,2.3,1.4,3.8c0,1.4-0.4,2.6-1.1,3.6
		c-0.7,1.1-1.8,1.9-3.1,2.4c-1.4,0.6-2.9,0.9-4.7,0.9c-1.7,0-3.3-0.3-4.7-0.9c-1.4-0.6-2.5-1.4-3.5-2.3l2.6-2.7
		c1.7,1.4,3.5,2.1,5.7,2.1c1.3,0,2.3-0.3,2.9-0.8c0.6-0.5,1-1.2,1-1.9c0-0.5-0.1-1-0.4-1.3c-0.2-0.4-0.7-0.7-1.2-0.9
		c-0.6-0.3-1.4-0.6-2.6-1c-1.9-0.6-3.3-1.4-4.1-2.3s-1.3-2.1-1.3-3.6c0-1.1,0.3-2.1,1-3.1c0.6-1,1.6-1.7,2.8-2.3s2.8-0.9,4.5-0.9
		C262.2,36.4,264.6,37.3,266.6,39z"/>
	<path class="st2" d="M276.5,37l-2.9,20.6h-4.9l2.9-20.6H276.5z M272.8,31.8c-0.5-0.5-0.8-1.2-0.8-1.9c0-1,0.3-1.8,1-2.4
		c0.7-0.6,1.5-1,2.4-1c0.8,0,1.5,0.3,2,0.8s0.8,1.2,0.8,2c0,0.9-0.3,1.7-1,2.4c-0.7,0.6-1.5,1-2.4,1C274,32.6,273.4,32.3,272.8,31.8
		z"/>
	<path class="st2" d="M281.8,55.9c-1.4-1.5-2.2-3.7-2.2-6.4c0-2,0.4-4,1.1-6c0.7-2,1.9-3.7,3.6-5c1.7-1.4,3.8-2,6.4-2
		c2.7,0,4.7,0.8,6.1,2.3c1.4,1.5,2.2,3.7,2.2,6.3c0,2-0.4,4-1.1,6c-0.7,2-1.9,3.7-3.6,5c-1.7,1.4-3.8,2-6.4,2
		C285.2,58.2,283.2,57.4,281.8,55.9z M291.6,52.8c0.9-1.1,1.5-2.4,1.8-3.9c0.3-1.5,0.5-3,0.5-4.4c0-2.9-1.2-4.3-3.5-4.3
		c-1.4,0-2.6,0.5-3.4,1.6c-0.9,1.1-1.5,2.3-1.8,3.8c-0.4,1.5-0.5,2.9-0.5,4.3c0,3,1.2,4.5,3.5,4.5C289.6,54.4,290.7,53.9,291.6,52.8
		z M295.2,25.6l1.6,3.9l-9.1,3.5l-1.1-2.5L295.2,25.6z"/>
	<path class="st2" d="M319.6,37.8c0.8,0.9,1.3,2.1,1.3,3.7c0,0.4,0,0.9-0.1,1.4l-2.1,14.7h-4.9l2-14c0.1-0.5,0.1-0.8,0.1-1
		c0-0.8-0.2-1.3-0.5-1.7c-0.3-0.3-0.7-0.5-1.3-0.5c-1.8,0-3.6,1.8-5.4,5.3L307,57.6h-4.9l2.9-20.6h4.2l-0.2,3.8
		c2-2.9,4.4-4.4,7.1-4.4C317.6,36.4,318.7,36.9,319.6,37.8z"/>
</g>
</svg>
