<?xml version="1.0" encoding="UTF-8"?>
<svg xmlns="http://www.w3.org/2000/svg" width="658.84" height="148.23" xmlns:xlink="http://www.w3.org/1999/xlink" viewBox="0 0 658.84 148.23">
  <defs>
    <linearGradient id="linear-gradient" x1="6485.8" y1="-13991.59" x2="6521.24" y2="-13991.59" gradientTransform="translate(-13541.97 -6546.37) rotate(90.3)" gradientUnits="userSpaceOnUse">
      <stop offset="0" stop-color="#5241ea"/>
      <stop offset="1" stop-color="#c749ff"/>
    </linearGradient>
    <linearGradient id="linear-gradient-2" x1="6485.5" y1="-13998.12" x2="6520.94" y2="-13998.12" gradientTransform="translate(-13541.97 -6546.37) rotate(90.3)" gradientUnits="userSpaceOnUse">
      <stop offset="0" stop-color="#0099e8"/>
      <stop offset="1" stop-color="#2e5cff"/>
    </linearGradient>
    <linearGradient id="linear-gradient-3" x1="6485.54" y1="-14004.28" x2="6520.98" y2="-14004.28" gradientTransform="translate(-13541.97 -6546.37) rotate(90.3)" gradientUnits="userSpaceOnUse">
      <stop offset="0" stop-color="#c4e600"/>
      <stop offset="1" stop-color="#00ff9c"/>
    </linearGradient>
    <linearGradient id="linear-gradient-4" x1="6485.6" y1="-14010.82" x2="6521.04" y2="-14010.82" gradientTransform="translate(-13541.97 -6546.37) rotate(90.3)" gradientUnits="userSpaceOnUse">
      <stop offset="0" stop-color="#ffaf1b"/>
      <stop offset="1" stop-color="#ffd000"/>
    </linearGradient>
    <linearGradient id="Degradado_sin_nombre_130" data-name="Degradado sin nombre 130" x1="6486.03" y1="-14018.94" x2="6521.47" y2="-14018.94" gradientTransform="translate(-13541.97 -6546.37) rotate(90.3)" gradientUnits="userSpaceOnUse">
      <stop offset=".38" stop-color="#ff8526"/>
      <stop offset=".85" stop-color="#ff3e12"/>
    </linearGradient>
    <linearGradient id="linear-gradient-5" x1="6485.51" y1="-14026.45" x2="6520.94" y2="-14026.45" gradientTransform="translate(-13541.97 -6546.37) rotate(90.3)" gradientUnits="userSpaceOnUse">
      <stop offset="0" stop-color="#ff1882"/>
      <stop offset="1" stop-color="#ff3121"/>
    </linearGradient>
    <linearGradient id="Degradado_sin_nombre_887" data-name="Degradado sin nombre 887" x1="6475.87" y1="-14056.36" x2="6511.32" y2="-14056.36" gradientTransform="translate(-13541.97 -6546.37) rotate(90.3)" gradientUnits="userSpaceOnUse">
      <stop offset=".09" stop-color="#e3a17f"/>
      <stop offset=".4" stop-color="#e39d7c"/>
      <stop offset=".68" stop-color="#e69274"/>
      <stop offset=".94" stop-color="#eb8066"/>
      <stop offset="1" stop-color="#ed7b63"/>
    </linearGradient>
    <linearGradient id="Degradado_sin_nombre_869" data-name="Degradado sin nombre 869" x1="6468.93" y1="-14097.59" x2="6513.73" y2="-14097.59" gradientTransform="translate(-13541.97 -6546.37) rotate(90.3)" gradientUnits="userSpaceOnUse">
      <stop offset=".09" stop-color="#f9dc86"/>
      <stop offset=".3" stop-color="#f9d884"/>
      <stop offset=".48" stop-color="#f9cd7f"/>
      <stop offset=".66" stop-color="#fbbb78"/>
      <stop offset=".83" stop-color="#fca16d"/>
      <stop offset="1" stop-color="#fe805f"/>
      <stop offset="1" stop-color="#ff805f"/>
    </linearGradient>
    <radialGradient id="Degradado_sin_nombre_868" data-name="Degradado sin nombre 868" cx="8694.32" cy="-14209.72" fx="8694.32" fy="-14209.72" r="30.34" gradientTransform="translate(-13384.18 -7044.43) rotate(90.3) scale(.81 .98)" gradientUnits="userSpaceOnUse">
      <stop offset=".09" stop-color="#a973f5"/>
      <stop offset=".25" stop-color="#a574f5"/>
      <stop offset=".39" stop-color="#9a78f5"/>
      <stop offset=".52" stop-color="#887ff6"/>
      <stop offset=".65" stop-color="#6e89f8"/>
      <stop offset=".78" stop-color="#4c96fa"/>
      <stop offset=".9" stop-color="#24a6fc"/>
      <stop offset="1" stop-color="#00b5ff"/>
    </radialGradient>
    <linearGradient id="Degradado_sin_nombre_887-2" data-name="Degradado sin nombre 887" x1="6485.61" y1="-14043.68" x2="6519.51" y2="-14043.68" xlink:href="#Degradado_sin_nombre_887"/>
    <linearGradient id="Degradado_sin_nombre_887-3" data-name="Degradado sin nombre 887" x1="6500.26" y1="-14036.59" x2="6504.82" y2="-14036.59" gradientTransform="translate(6963.06 -14007.33) rotate(-180)" xlink:href="#Degradado_sin_nombre_887"/>
    <linearGradient id="linear-gradient-6" x1="-3387.46" y1="1050.11" x2="-3364.43" y2="1050.11" gradientTransform="translate(2565.5 -2793.76) rotate(-38.63)" gradientUnits="userSpaceOnUse">
      <stop offset="0" stop-color="#ff2050"/>
      <stop offset="1" stop-color="#ff7657"/>
    </linearGradient>
    <linearGradient id="linear-gradient-7" x1="-3381.37" y1="1019.79" x2="-3341.16" y2="1019.79" xlink:href="#linear-gradient-6"/>
    <linearGradient id="linear-gradient-8" x1="-3388.49" y1="1028.36" x2="-3377.09" y2="1028.36" gradientTransform="translate(2565.5 -2793.76) rotate(-38.63)" gradientUnits="userSpaceOnUse">
      <stop offset="0" stop-color="#ff5484"/>
      <stop offset="1" stop-color="#ff1800"/>
    </linearGradient>
    <linearGradient id="Degradado_sin_nombre_73" data-name="Degradado sin nombre 73" x1="-1383.89" y1="881.44" x2="-1381.68" y2="848.77" gradientTransform="translate(1477.51 -1244.01) rotate(-24.98)" gradientUnits="userSpaceOnUse">
      <stop offset=".15" stop-color="#ff80a7"/>
      <stop offset="1" stop-color="#ff1800"/>
    </linearGradient>
    <linearGradient id="linear-gradient-9" x1="-3356.8" y1="1048.94" x2="-3335.21" y2="1048.94" xlink:href="#linear-gradient-6"/>
    <linearGradient id="linear-gradient-10" x1="-3345.12" y1="1028.4" x2="-3334.13" y2="1028.4" xlink:href="#linear-gradient-8"/>
    <linearGradient id="linear-gradient-11" x1="1873.22" y1="-1819.79" x2="1893.99" y2="-1819.79" gradientTransform="translate(-2129.33 698.72) rotate(31.06)" gradientUnits="userSpaceOnUse">
      <stop offset="0" stop-color="#00ebb3"/>
      <stop offset="1" stop-color="#008dff"/>
    </linearGradient>
    <linearGradient id="Degradado_sin_nombre_72" data-name="Degradado sin nombre 72" x1="1887.24" y1="-1799.68" x2="1894.82" y2="-1799.68" gradientTransform="translate(-2129.33 698.72) rotate(31.06)" gradientUnits="userSpaceOnUse">
      <stop offset="0" stop-color="#00cffa"/>
      <stop offset="1" stop-color="#009ff2"/>
    </linearGradient>
    <linearGradient id="linear-gradient-12" x1="1865.61" y1="-1781.9" x2="1893.83" y2="-1781.9" xlink:href="#linear-gradient-11"/>
    <linearGradient id="Degradado_sin_nombre_72-2" data-name="Degradado sin nombre 72" x1="1844.34" y1="-1785.36" x2="1866.56" y2="-1785.36" xlink:href="#Degradado_sin_nombre_72"/>
    <linearGradient id="Degradado_sin_nombre_72-3" data-name="Degradado sin nombre 72" x1="1853.33" y1="-1823.01" x2="1871.98" y2="-1823.01" xlink:href="#Degradado_sin_nombre_72"/>
    <linearGradient id="Degradado_sin_nombre_72-4" data-name="Degradado sin nombre 72" x1="2181.27" y1="-2046.74" x2="2214.68" y2="-2046.74" gradientTransform="translate(-2564.18 581.2) rotate(34.09)" xlink:href="#Degradado_sin_nombre_72"/>
    <linearGradient id="linear-gradient-13" x1="1844.37" y1="-1808.11" x2="1857.21" y2="-1808.11" xlink:href="#linear-gradient-11"/>
    <linearGradient id="linear-gradient-14" x1="-4547.15" y1="-4606.9" x2="-4542.75" y2="-4606.9" gradientTransform="translate(3427.88 5724.63) rotate(14.68)" gradientUnits="userSpaceOnUse">
      <stop offset="0" stop-color="#ff5100"/>
      <stop offset="1" stop-color="#ff8d00"/>
    </linearGradient>
    <radialGradient id="Degradado_sin_nombre_75" data-name="Degradado sin nombre 75" cx="1232.3" cy="-5433.7" fx="1232.3" fy="-5433.7" r="32.57" gradientTransform="translate(-5399.2 270.49) rotate(75.52)" gradientUnits="userSpaceOnUse">
      <stop offset=".09" stop-color="#ffbe5c"/>
      <stop offset=".3" stop-color="#ffbc58"/>
      <stop offset=".48" stop-color="#ffb64d"/>
      <stop offset=".66" stop-color="#ffac3b"/>
      <stop offset=".83" stop-color="#ff9e21"/>
      <stop offset="1" stop-color="#ff8d00"/>
      <stop offset="1" stop-color="#ff8d00"/>
    </radialGradient>
    <linearGradient id="Degradado_sin_nombre_74" data-name="Degradado sin nombre 74" x1="-4504.6" y1="-4646.34" x2="-4542.17" y2="-4627.9" gradientTransform="translate(3427.88 5724.63) rotate(14.68)" gradientUnits="userSpaceOnUse">
      <stop offset=".38" stop-color="#ffbe23"/>
      <stop offset=".85" stop-color="#ff8d00"/>
    </linearGradient>
    <linearGradient id="linear-gradient-15" x1="-4506.87" y1="-4627.78" x2="-4505.86" y2="-4612.29" gradientTransform="translate(3427.88 5724.63) rotate(14.68)" gradientUnits="userSpaceOnUse">
      <stop offset="0" stop-color="#ffbe23"/>
      <stop offset="1" stop-color="#ff8d00"/>
    </linearGradient>
    <linearGradient id="linear-gradient-16" x1="-4541.08" y1="-4591.88" x2="-4503.42" y2="-4591.88" xlink:href="#linear-gradient-14"/>
    <linearGradient id="linear-gradient-17" x1="802.77" y1="-248.26" x2="804.24" y2="-269.49" gradientTransform="translate(-783.27 265.87) rotate(7.84)" gradientUnits="userSpaceOnUse">
      <stop offset="0" stop-color="#ffa300"/>
      <stop offset="1" stop-color="#fc0"/>
    </linearGradient>
    <linearGradient id="linear-gradient-18" x1="786.48" y1="-292.54" x2="785.95" y2="-273.76" gradientTransform="translate(-783.27 265.87) rotate(7.84)" gradientUnits="userSpaceOnUse">
      <stop offset="0" stop-color="#f2cd38"/>
      <stop offset="1" stop-color="#fc0"/>
    </linearGradient>
    <linearGradient id="Degradado_sin_nombre_64" data-name="Degradado sin nombre 64" x1="-2462.11" y1="686.73" x2="-2425.66" y2="654.91" gradientTransform="translate(2182.72 -1180.93) rotate(-15.98)" gradientUnits="userSpaceOnUse">
      <stop offset=".25" stop-color="#f6c255"/>
      <stop offset="1" stop-color="#fc0"/>
    </linearGradient>
    <linearGradient id="linear-gradient-19" x1="760.72" y1="-244.51" x2="766.95" y2="-270.5" xlink:href="#linear-gradient-17"/>
  </defs>
  <g style="isolation: isolate;">
    <g id="Capa_3" data-name="Capa 3">
      <g>
        <g>
          <g>
            <g>
              <g>
                <path d="m544.04.01h.11s-.04,0-.11,0Z" style="fill: #fff;"/>
                <path d="m540.16,56.63h4.01s.36.02.36.02v-.06c5.97-.49,10.82-13.69,10.9-28.74.08-15.35-4.83-27.82-10.96-27.85l-.73.07c.13-.03.24-.05.31-.06l-3.94.39-32.17,2.95s-.66,1.02-1.59,2.84l-50.62,2.25s-1.03,1.23-2.31,3.42l-10.08-3.98c-.46,1.02-.84,2.04-1.22,3.06l-7.85-3.1c-.47,1.06-.87,2.11-1.26,3.17l-8.14-3.22c-.41.91-.74,1.82-1.09,2.74l-15.17-3.41c-.97,2.18-1.73,4.35-2.38,6.51l-301.01,2.72c-7.27.07-13.15,5.96-13.18,13.23h0c-.04,7.33,5.86,13.31,13.19,13.37l300.66,2.58c.88,5.21,3.45,7.77,3.45,7.77l12.82-3.27c.43,1.62.75,2.55.75,2.55l8.55-2.91c.48,1.86.85,2.96.85,2.96l8.24-2.81c.47,1.8.83,2.86.83,2.86l12.75-4.34c.43.69.89,1.38,1.39,2.08l49.3.26c.82,1.59,1.77,3.17,2.86,4.75l5.72.19h0l26.54.9c.14.08.23.13.23.13Z" style="fill: #fff;"/>
              </g>
              <g>
                <path d="m96.35,29.51h0c-.15-4.08,3.02-7.48,7.02-7.54l375.31-5.52-.13,25.8-375.18-5.75c-3.79-.06-6.87-3.13-7.02-6.99Z" style="fill: #d97525;"/>
                <path d="m424.65,16.63s-8.94,14.39-.14,26.84l-15.13,4.22s-7.67-17.9,1.85-35.43l13.42,4.37Z" style="fill: url(#linear-gradient);"/>
                <path d="m431.18,16.36s-8.94,14.39-.14,26.84l-15.13,4.22s-7.67-17.9,1.85-35.43l13.42,4.37Z" style="fill: url(#linear-gradient-2);"/>
                <path d="m437.34,16.44s-8.94,14.39-.14,26.84l-15.13,4.22s-7.67-17.9,1.85-35.43l13.42,4.37Z" style="fill: url(#linear-gradient-3);"/>
                <path d="m443.88,16.53s-8.94,14.39-.14,26.84l-15.13,4.22s-7.67-17.9,1.85-35.43l13.42,4.37Z" style="fill: url(#linear-gradient-4);"/>
                <path d="m452,17s-8.94,14.39-.14,26.84l-15.13,4.22s-7.67-17.9,1.85-35.43l13.42,4.37Z" style="fill: url(#Degradado_sin_nombre_130);"/>
                <path d="m459.51,16.51s-8.94,14.39-.14,26.84l-15.13,4.22s-7.67-17.9,1.85-35.43l13.42,4.37Z" style="fill: url(#linear-gradient-5);"/>
                <path d="m511.46,11.05l-55.23,1.97s-15.64,15.28-.17,33.19l55.21.29.18-35.44Z" style="fill: url(#Degradado_sin_nombre_887); stroke: #c15000; stroke-miterlimit: 10;"/>
                <path d="m541.71,6.42l-34.24,1.49s-14.19,23.17-.21,43.05l34.56.27-.11-44.81Z" style="fill: url(#Degradado_sin_nombre_869);"/>
                <path d="m541.48,51.22c-5.91-.03-10.64-10.72-10.58-22.87.06-12.14,4.91-21.96,10.81-21.93s10.65,9.9,10.59,22.04c-.06,12.14-4.91,22.79-10.82,22.76Z" style="fill: url(#Degradado_sin_nombre_868);"/>
                <rect x="513.48" y="13.72" width="3.7" height="30.15" transform="translate(546.81 -486.39) rotate(90.3)" style="fill: #972424; opacity: .43;"/>
                <polygon points="502.51 40.01 501.47 36.3 531.21 36.46 532.25 40.17 502.51 40.01" style="fill: #972424; opacity: .43;"/>
                <polygon points="507.68 48.32 505.21 44.61 534.01 44.76 536.37 48.47 507.68 48.32" style="fill: #972424; opacity: .43;"/>
                <polygon points="502.62 18.22 501.55 21.92 530.98 22.07 531.78 18.37 502.62 18.22" style="fill: #972424; opacity: .43;"/>
                <polygon points="507.57 10.93 505.06 14.62 533.14 14.24 535.27 10.65 507.57 10.93" style="fill: #972424; opacity: .43;"/>
                <path d="m505.7,8.06s-13.32,22.24-.22,42.84l4.35.16s-14.72-20.55.54-43.38l-4.66.38Z" style="fill: #fff;"/>
                <path d="m498.73,7.42s-13.32,22.24-.22,42.84l4.35.16s-14.72-20.55.54-43.38l-4.66.38Z" style="fill: #fff; opacity: .62;"/>
                <path d="m490.51,6.86s-13.32,22.24-.22,42.84l4.35.16s-14.72-20.55.54-43.38l-4.66.38Z" style="fill: #fff; opacity: .4;"/>
                <path d="m541.41,5.93s-7.74.19-10.02,16.45c-.6,4.25-.56,8.59.13,12.82,1.03,6.32,3.59,14.98,9.95,16.02h-3.86s-7.69-2.83-8.39-22.6c0,0-.72-17.42,8.27-22.37l3.91-.32Z" style="fill: #fff;"/>
              </g>
              <path d="m407.89,40.93l-304.88-4.13c-3.71-.05-6.69-3.14-6.67-6.93h0s310.5,0,310.5,0c0,0-.75,6.9,1.05,11.06Z" style="fill: #b44f00;"/>
              <path d="m465.07,12.35s4.4,15.04,15.89,17.01c0,0-10.15,3.8-14.54,16.9l-10.36-.05s-16.22-15.79.17-33.19l8.84-.67Z" style="fill: #b44f00;"/>
              <path d="m463.11,12.34s3.96,13.98,12.47,17.02c0,0-10.77,7.59-12.05,16.89l-3.29-.02s4.42-15.52,11.93-16.54c0,0-10.27-5.84-12.43-16.93l3.37-.41Z" style="fill: url(#Degradado_sin_nombre_887-2);"/>
              <ellipse cx="460.52" cy="29.25" rx="2.28" ry="4.98" transform="translate(428.87 489.62) rotate(-89.7)" style="fill: url(#Degradado_sin_nombre_887-3);"/>
            </g>
            <g>
              <g>
                <path d="m282.71,19.56h0l-1.92-1.17-.25.58c-3,6.93-3.12,14.69-.31,21.71l2.19-.92c-2.8-7.02-2.72-13.28.29-20.21Z" style="fill: #f4d9a2;"/>
                <path d="m280.54,18.97l.25-.58-3.07-.35c-.21,0-1.2.36-1.28.54l-.24.31c-3.08,6.89-3.03,14.34-.31,21.38l.99.7,3.35-.29c-2.8-7.02-2.69-14.78.31-21.71Z" style="fill: #daaf72;"/>
              </g>
              <g>
                <path d="m288.06,19.45h0l-1.69-1.16-.22.58c-2.68,6.94-2.8,14.7-.34,21.71l1.94-.93c-2.46-7.01-2.37-13.27.31-20.21Z" style="fill: #f4d9a2;"/>
                <path d="m286.15,18.87l.22-.58-2.72-.34c-.18,0-1.06.36-1.14.54l-.21.31c-2.75,6.9-2.73,14.34-.34,21.38l.87.7,2.97-.3c-2.46-7.01-2.34-14.77.34-21.71Z" style="fill: #daaf72;"/>
              </g>
              <g>
                <path d="m294.79,19.41h0l-1.92-1.17-.25.58c-3,6.93-3.12,14.69-.31,21.71l2.19-.92c-2.8-7.02-2.72-13.28.29-20.21Z" style="fill: #f4d9a2;"/>
                <path d="m292.62,18.83l.25-.58-3.07-.35c-.21,0-1.2.36-1.28.54l-.24.31c-3.08,6.89-3.03,14.34-.31,21.38l.99.7,3.35-.29c-2.8-7.02-2.69-14.78.31-21.71Z" style="fill: #daaf72;"/>
              </g>
              <g>
                <path d="m300.15,19.3h0l-1.69-1.16-.22.58c-2.68,6.94-2.8,14.7-.34,21.71l1.94-.93c-2.46-7.01-2.37-13.27.31-20.21Z" style="fill: #ffebde;"/>
                <path d="m298.23,18.73l.22-.58-2.72-.34c-.18,0-1.06.36-1.14.54l-.21.31c-2.75,6.9-2.73,14.34-.34,21.38l.87.7,2.97-.3c-2.46-7.01-2.34-14.77.34-21.71Z" style="fill: #daaf72;"/>
              </g>
              <path d="m298.3,34.86l-23.6,1.69c-2.18-6.57.28-14.44.28-14.44l23.6,1.81s-1.18,3.62-.28,10.95Z" style="fill: #ffe9d1; mix-blend-mode: overlay; opacity: .35;"/>
            </g>
            <g>
              <g>
                <path d="m156.41,19.83h0l-1.92-1.17-.25.58c-3,6.93-3.12,14.69-.31,21.71l2.19-.92c-2.8-7.02-2.72-13.28.29-20.21Z" style="fill: #f4d9a2;"/>
                <path d="m154.24,19.25l.25-.58-3.07-.35c-.21,0-1.2.36-1.28.54l-.24.31c-3.08,6.89-3.03,14.34-.31,21.38l.99.7,3.35-.29c-2.8-7.02-2.69-14.78.31-21.71Z" style="fill: #daaf72;"/>
              </g>
              <g>
                <path d="m161.76,19.73h0l-1.69-1.16-.22.58c-2.68,6.94-2.8,14.7-.34,21.71l1.94-.93c-2.46-7.01-2.37-13.27.31-20.21Z" style="fill: #f4d9a2;"/>
                <path d="m159.85,19.15l.22-.58-2.72-.34c-.18,0-1.06.36-1.14.54l-.21.31c-2.75,6.9-2.73,14.34-.34,21.38l.87.7,2.97-.3c-2.46-7.01-2.34-14.77.34-21.71Z" style="fill: #daaf72;"/>
              </g>
              <g>
                <path d="m168.49,19.69h0l-1.92-1.17-.25.58c-3,6.93-3.12,14.69-.31,21.71l2.19-.92c-2.8-7.02-2.72-13.28.29-20.21Z" style="fill: #f4d9a2;"/>
                <path d="m166.32,19.1l.25-.58-3.07-.35c-.21,0-1.2.36-1.28.54l-.24.31c-3.08,6.89-3.03,14.34-.31,21.38l.99.7,3.35-.29c-2.8-7.02-2.69-14.78.31-21.71Z" style="fill: #daaf72;"/>
              </g>
              <g>
                <path d="m173.85,19.58h0l-1.69-1.16-.22.58c-2.68,6.94-2.8,14.7-.34,21.71l1.94-.93c-2.46-7.01-2.37-13.27.31-20.21Z" style="fill: #ffebde;"/>
                <path d="m171.93,19l.22-.58-2.72-.34c-.18,0-1.06.36-1.14.54l-.21.31c-2.75,6.9-2.73,14.34-.34,21.38l.87.7,2.97-.3c-2.46-7.01-2.34-14.77.34-21.71Z" style="fill: #daaf72;"/>
              </g>
              <path d="m172,35.14l-23.6,1.69c-2.18-6.57.28-14.44.28-14.44l23.6,1.81s-1.18,3.62-.28,10.95Z" style="fill: #ffe9d1; mix-blend-mode: overlay; opacity: .35;"/>
            </g>
          </g>
          <g>
            <path d="m554.63,35.34c-.3-4.46-4.26-20.41-10.77-17.89-4.07,1.8-4.49,6.97-4.54,10.94.07,2.96.22,6.15,1.36,8.89.55,1.33,1.33,2.55,2.27,3.55.59.58,1.12,1.07,1.73,1.07,1.04-.4,1.76-2.18,2.19-3.27,0,0,.4-1.02.4-1.02.17-.61.46-1.46.55-2.07.7-2.97,0-6.34-2.34-8.38,0,0,.44.16.44.16-2.69-.5-2.79,2.46-2.43,4.45.11.85.34,1.7.54,2.57l-.3.13c-1.08-2.04-2.25-4.37-1.64-6.78.47-1.87,2.53-2.85,4.36-2.61.95.54,1.7,1.2,2.37,2,3,3.56,2.85,8.67,1.25,12.79-3.19,8.85-9.53,5.67-12.06-1.55-.58-1.63-.89-3.39-.99-5.04-.23-3.29-.2-6.61.53-9.87.56-2.45,1.71-5.15,3.89-6.66,2.46-1.79,5.41-1.72,7.56.49,3.9,4.1,5.72,12.41,5.97,17.95-.03.17.02.21-.11.4l-.23-.24h0Z" style="fill: #fff;"/>
            <path d="m408.93,11.46s-8.79,18.42-1.74,36.13l2.59.24s-8.02-17.7,1.95-36.57l-2.8.21Z" style="fill: #fff;"/>
            <path d="m451.78,12.69s-7.66,16.49-.61,34.19l3.79-1.45s-10.43-12.45-.47-31.33l-2.71-1.42Z" style="fill: #fff;"/>
          </g>
        </g>
        <g>
          <path d="m450.4,46.11c-3.61,2.47-8.22,4.21-12.36,5.62-6.09,2.18-13.33,3.81-19.69,5.18-33.2,6.44-67.51,7.65-101.25,6.9-35.98-.81-72.29-2.12-108.19-4.26-12.82-.75-27.66-1.74-40.46-1.75-31.28-.07-63.13,2.17-92.95,12.24-14.7,5.13-29.26,12.2-40.15,23.57-1.51,1.64-2.99,3.36-4.15,5.26,0,0-.27-.14-.27-.14,4.6-7.88,11.91-13.8,19.38-18.84,7.63-4.93,15.86-8.94,24.39-12.06,34.2-12.44,71.31-14.23,107.34-12.55,17.71.9,36.35,2.7,53.99,4.13,17.96,1.29,36.03,2.37,54.02,2.68,17.47.42,36.57.05,54.06-.66,24.66-.83,49.52-2.31,73.91-6.26,7.44-1.35,15.72-3.07,22.95-5.36,1.84-.68,5.92-2.08,7.8-3.12.49-.26,1-.51,1.46-.81,0,0,.18.24.18.24h0Z" style="fill: #b9b9b9;"/>
          <path d="m237.81,91.81c1.08-3.81,8.67-6.19,12.14-7.35,23.08-6.55,47.34-6.53,71.12-6.36,28.45-.16,57.06-2.82,85.09-7.14,9.28-1.55,18.59-3.4,27.46-6.56,4.36-1.63,8.74-3.49,12.28-6.45,3.56-2.81,5.94-7.76,3.31-12,0,0,.24-.18.24-.18,5.09,7.05-2.39,14.41-8.43,17.66-10.55,5.93-22.61,8.52-34.32,10.7-37.71,6.5-76.13,3.19-114.08,6.79-13.66,1.05-28.94,1.98-42.26,5.05-3.41.84-6.87,1.73-9.9,3.53-.93.57-2,1.3-2.36,2.33,0,0-.3,0-.3,0h0Z" style="fill: #b9b9b9;"/>
          <path d="m407.22,98.62c9.92-2.42,19.85-4.53,29.73-6.86,8.73-2.1,21.2-4.3,29.37-7.83,5.31-2.42,16.21-7.13,12.28-14.44-1.07-1.96-2.83-3.69-4.7-5.25-3.86-3.14-8.11-5.88-12.21-8.76-4.16-2.91-8.42-5.86-12.02-9.59l.19-.23c9.75,6.17,25.57,12.11,31.05,22.72,3.72,8.99-7.81,13.57-14.24,16.38-14.15,5.97-28.96,10.33-44.18,12.45-5.05.77-10.12,1.4-15.23,1.71,0,0-.04-.3-.04-.3h0Z" style="fill: #b9b9b9;"/>
          <path d="m611.57,145.2c13.18-13.48,26.09-27.58,36.16-43.57,7.77-12.47,16.39-31.48-1.72-39.31-8.69-3.74-18.44-4.04-27.8-3.81-6.3.26-12.59.88-18.84,1.75-37.64,5.81-76.5,5.36-113.75-2.91-12.38-2.83-24.68-6.25-36.33-11.35,0,0,.12-.28.12-.28,5.95,2.12,12.05,3.83,18.17,5.37,33.68,8.35,68.63,11.1,103.25,9.58,22.05-.87,44.37-5.62,66.39-1.95,38.12,6.62,17.48,40.97,1.47,59.75-8.18,9.76-17.2,18.76-26.9,26.95l-.2-.22h0Z" style="fill: #b9b9b9;"/>
        </g>
        <g>
          <path d="m563.12,126.72c13.96,5.18,32.03,11.73,41.31,14.81l-31.02-16.22-10.28,1.41Z" style="fill: url(#linear-gradient-6);"/>
          <polygon points="590.32 94.43 592.68 89.55 581.79 92.5 566.56 104.64 561.22 114.59 566.86 113.27 590.32 94.43" style="fill: url(#linear-gradient-7);"/>
          <polygon points="566.83 114.75 560.58 116.21 560.89 125.58 572.36 124 566.83 114.75" style="fill: url(#linear-gradient-8);"/>
          <path d="m590.84,95.85l-22.73,18.24,5.93,9.93,35.38,18.5-10.47-38.42-8.12-8.25Zm5.35,10.94c.3,3.08-1.95,5.83-5.04,6.13-.62.06-1.22.01-1.79-.11l-2.34,6.33c.72.67,1.21,1.59,1.32,2.64.07.72-.05,1.41-.31,2.03l4.81.56c.41-1.11,1.41-1.95,2.67-2.07,1.74-.17,3.29,1.1,3.47,2.85.17,1.74-1.1,3.3-2.85,3.47-1.72.17-3.26-1.08-3.46-2.79l-5.58-.65c-.65.62-1.5,1.04-2.46,1.14-2.28.22-4.31-1.44-4.53-3.72-.22-2.28,1.44-4.31,3.72-4.53.69-.07,1.35.04,1.95.28l2.23-6.04c-1.61-.85-2.78-2.47-2.97-4.42-.3-3.08,1.95-5.83,5.04-6.13,3.08-.3,5.83,1.95,6.13,5.04Z" style="fill: url(#Degradado_sin_nombre_73);"/>
          <path d="m608.81,134.79c-1.23-10.66-3.31-28.32-4.75-40.54l-3.7,9.52,8.45,31.02Z" style="fill: url(#linear-gradient-9);"/>
          <polygon points="591.76 94.75 599.34 102.44 603.47 91.79 594.4 89.29 591.76 94.75" style="fill: url(#linear-gradient-10);"/>
          <path d="m581.13,91.2l-15.7,12.5-6.31,11.78.38,11.42.45.17c.12.05,12.46,4.64,24.78,9.07,20.03,7.22,24.49,8.48,25.71,8.52l1.24.65-.41-1.52c-.23-2.68-5.88-50.5-6.12-52.57l-.06-.48-11.07-3.05-12.89,3.5Zm-14.57,13.44l15.23-12.13,10.9-2.96-2.36,4.89-23.47,18.84-5.63,1.32,5.33-9.95Zm-5.98,11.57l6.25-1.46,5.53,9.26-11.48,1.57-.31-9.37Zm2.54,10.51l10.28-1.41,31.02,16.22c-9.28-3.07-27.35-9.63-41.31-14.81Zm46.31,15.8l-35.38-18.5-5.93-9.93,22.73-18.24,8.12,8.25,10.47,38.42Zm-.62-7.73l-8.45-31.02,3.7-9.52c1.44,12.22,3.52,29.88,4.75,40.54Zm-9.47-32.35l-7.58-7.69,2.63-5.46,9.08,2.5-4.14,10.65Z"/>
          <path d="m590.06,101.75c-3.08.3-5.34,3.05-5.04,6.13.19,1.95,1.36,3.57,2.97,4.42l-2.23,6.04c-.6-.24-1.26-.35-1.95-.28-2.28.22-3.95,2.25-3.72,4.53.22,2.28,2.25,3.95,4.53,3.72.96-.09,1.81-.51,2.46-1.14l5.58.65c.2,1.71,1.73,2.96,3.46,2.79,1.74-.17,3.02-1.72,2.85-3.47-.17-1.74-1.72-3.02-3.47-2.85-1.25.12-2.26.96-2.67,2.07l-4.81-.56c.27-.62.38-1.31.31-2.03-.1-1.05-.59-1.97-1.32-2.64l2.34-6.33c.57.13,1.17.18,1.79.11,3.08-.3,5.34-3.05,5.04-6.13-.3-3.08-3.05-5.34-6.13-5.04Z" style="fill: #fff;"/>
        </g>
        <g>
          <g>
            <polygon points="429.13 121.6 418.47 99.3 415.92 103.29 421.55 120.05 429.13 121.6" style="fill: url(#linear-gradient-11);"/>
            <polygon points="412.36 136.93 415.04 145.83 429.24 123.03 421.37 121.42 412.36 136.93" style="fill: url(#Degradado_sin_nombre_72);"/>
            <polygon points="391.46 133.61 383.22 142.84 413.85 146.67 411.07 137.44 391.46 133.61" style="fill: url(#linear-gradient-12);"/>
            <polygon points="384.89 113.95 376.06 113.49 382.22 141.89 390.44 132.69 384.89 113.95" style="fill: url(#Degradado_sin_nombre_72-2);"/>
            <polygon points="414.82 102.45 417.44 98.36 398.14 94.27 400.26 100.05 414.82 102.45" style="fill: url(#Degradado_sin_nombre_72-3);"/>
            <path d="m386.2,113.51l5.55,18.76,19.51,3.81,9.01-15.51-5.63-16.76-14.68-2.42-13.76,12.11Z" style="fill: url(#Degradado_sin_nombre_72-4);"/>
            <polygon points="398.94 100.46 396.76 94.52 376.91 112.15 385.17 112.58 398.94 100.46" style="fill: url(#linear-gradient-13);"/>
            <path d="m396.86,92.59l-22.42,19.91,6.83,31.47,33.91,4.25,15.96-25.63-12.1-25.32-22.17-4.69Zm23.41,27.98l-9.01,15.51-19.51-3.81-5.55-18.76,13.76-12.11,14.68,2.42,5.63,16.76Zm-2.83-22.21l-2.62,4.09-14.56-2.4-2.12-5.78,19.3,4.09Zm-20.68-3.83l2.18,5.94-13.77,12.12-8.26-.43,19.85-17.63Zm-14.54,47.37l-6.16-28.4,8.83.46,5.55,18.74-8.22,9.2Zm1,.95l8.24-9.22,19.61,3.83,2.78,9.23-30.63-3.84Zm31.82,3l-2.68-8.9,9.01-15.51,7.87,1.61-14.2,22.8Zm3.43-46.53l10.66,22.3-7.58-1.56-5.63-16.76,2.55-3.99Z"/>
          </g>
          <g>
            <circle cx="403.73" cy="118.24" r="2.57" style="fill: #fff;"/>
            <g>
              <path d="m399.14,122.23c-.93-1.2-1.42-2.66-1.36-4.11.1-2.74,1.97-5.02,4.66-5.67.88-.21,1.77-.24,2.66-.09.32.06.65-.04.88-.26.24-.22.35-.52.33-.84v-.09c-.05-.49-.44-.91-.93-.99-3.34-.52-6.74.89-8.44,3.5-1.99,3.03-1.8,6.89.47,9.84.09.11.19.2.3.27.33.2.77.22,1.14.01.27-.14.45-.4.51-.69.06-.31-.01-.64-.21-.89Z" style="fill: #fff;"/>
              <path d="m394.86,123.77c-1.94-2.86-2.23-6.59-.78-9.99,1.65-3.84,5.81-6.27,10.12-5.89.31.03.62-.08.85-.29.23-.22.36-.53.36-.84v-.11c-.01-.57-.45-1.03-1.01-1.08-5.32-.41-10.33,2.57-12.48,7.42-1.77,4-1.38,8.53,1.04,12.1.09.13.21.24.34.32.35.21.8.22,1.19,0,.27-.16.47-.43.54-.74.07-.31,0-.63-.17-.89Z" style="fill: #fff;"/>
              <path d="m410.44,122.98c1.99-3.03,1.8-6.9-.47-9.84-.33-.43-.94-.56-1.45-.28-.27.15-.45.4-.51.69-.06.31.01.63.21.89.93,1.2,1.42,2.66,1.36,4.11-.1,2.74-1.97,5.02-4.66,5.67-.88.21-1.77.24-2.66.09-.32-.06-.65.04-.88.26-.24.22-.35.52-.33.84v.08c.04.35.24.67.54.84.12.07.25.12.39.14,3.34.52,6.74-.89,8.44-3.5Z" style="fill: #fff;"/>
              <path d="m415.46,123.69c1.77-4,1.38-8.53-1.04-12.1-.33-.49-.99-.63-1.53-.31-.27.16-.47.43-.54.74-.07.31,0,.63.17.89,1.94,2.86,2.23,6.59.78,9.99-1.65,3.84-5.81,6.27-10.12,5.89-.31-.03-.62.08-.85.29-.23.22-.36.53-.36.84v.11c.01.39.22.74.53.92.14.08.3.14.48.15,5.32.41,10.33-2.57,12.48-7.42Z" style="fill: #fff;"/>
            </g>
          </g>
        </g>
        <g>
          <path d="m202.14,94.97c-3.72,14.14-8.48,32.51-10.7,41.6l13.35-34.36-2.65-7.25Z" style="fill: url(#linear-gradient-14);"/>
          <g>
            <path d="m242.34,94.05l-36.11,8.85-14.43,37.15,38.3-10.56,12.25-35.44Zm-30.2,14.13c.91-.61,1.85-1.19,2.77-1.79,0,0,0,0,0-.01.82-.53,1.63-1.06,2.46-1.57.77-.48,1.4-.42,1.92.43,1.09,1.76,2.23,3.5,3.35,5.24.25.4.51.81.18,1.29-.33.47-.81.35-1.28.28-2.24-.33-2.23-.33-2.74,1.94-.57,2.52-.22,2.37-2.85,1.8-.25-.05-.49-.13-.75-.16-1.12-.1-1.46-.68-1.08-1.73.07-.2.1-.41.14-.62.13-.83.7-1.72.36-2.46-.35-.76-1.44-.5-2.18-.77-.41-.15-.8-.3-.86-.81-.06-.48.2-.82.57-1.06Zm17.13,14.94c-.87.6-1.78,1.15-2.67,1.72,0,0,0,0,0,0-.85.55-1.7,1.11-2.57,1.64-.41.25-.86.41-1.32.13-.49-.3-.41-.78-.35-1.25q.32-2.32-1.96-2.81c-3.06-.65-6.12-1.31-9.19-1.94-.58-.12-1.18-.22-1.76-.17-1.18.09-2.21,1.16-2.27,2.22-.05,1.01.77,2.17,1.72,2.42,1.03.27,2.56-.32,2.82-1.41.4-1.67,1.29-1.59,2.59-1.26,2.69.67,2.84.91,1.57,3.42-1.65,3.26-5.44,4.76-8.84,3.5-3.26-1.21-5.12-4.82-4.26-8.25.86-3.42,4.25-5.79,7.81-5.19,3.79.64,7.55,1.52,11.31,2.31,1.89.4,1.88.42,2.32-1.44.05-.21.09-.41.15-.62.12-.37.27-.72.72-.79.44-.07.73.16.95.5,1.21,1.89,2.43,3.77,3.64,5.66.45.7.14,1.22-.44,1.62Z" style="fill: url(#Degradado_sin_nombre_75);"/>
            <polygon points="243.19 92.2 247.59 88.37 203.11 93.01 206.14 101.29 243.19 92.2" style="fill: url(#Degradado_sin_nombre_74);"/>
            <polygon points="244.25 93.39 231.68 129.75 239.04 133.51 248.71 89.49 244.25 93.39" style="fill: url(#linear-gradient-15);"/>
            <path d="m196.51,140.39c10.45-1.53,29.83-4.48,40.54-6.12l-6.42-3.28-34.12,9.4Z" style="fill: url(#linear-gradient-16);"/>
            <path d="m201.39,91.59l-.14.53c-.03.12-3.31,12.57-6.48,24.87q-6.62,25.63-5.58,25.93s0,0,.01,0c.25.07,1.62.04,50.52-7.46l.54-.08,10.76-48.97-49.63,5.18Zm46.2-3.23l-4.4,3.84-37.05,9.08-3.03-8.28,44.48-4.64Zm-45.45,6.61l2.65,7.25-13.35,34.36c2.22-9.1,6.99-27.47,10.7-41.6Zm4.09,7.93l36.11-8.85-12.25,35.44-38.3,10.56,14.43-37.15Zm-9.72,37.49l34.12-9.4,6.42,3.28c-10.71,1.64-30.09,4.59-40.54,6.12Zm35.18-10.64l12.56-36.36,4.47-3.89-9.67,44.01-7.36-3.76Z"/>
            <path d="m226.07,115.83c-.22-.34-.51-.57-.95-.5-.45.07-.61.42-.72.79-.06.2-.1.41-.15.62-.43,1.86-.43,1.84-2.32,1.44-3.77-.79-7.52-1.67-11.31-2.31-3.56-.6-6.95,1.77-7.81,5.19-.86,3.43,1,7.03,4.26,8.25,3.39,1.26,7.19-.24,8.84-3.5,1.26-2.5,1.12-2.75-1.57-3.42-1.31-.33-2.2-.41-2.59,1.26-.26,1.09-1.79,1.68-2.82,1.41-.94-.25-1.77-1.41-1.72-2.42.06-1.06,1.09-2.12,2.27-2.22.58-.05,1.18.06,1.76.17,3.07.63,6.13,1.28,9.19,1.94q2.28.49,1.96,2.81c-.07.47-.15.94.35,1.25.46.28.91.12,1.32-.13.86-.53,1.71-1.09,2.57-1.64,0,0,0,0,0,0,.89-.57,1.79-1.12,2.67-1.72.58-.4.89-.92.44-1.62-1.21-1.89-2.42-3.78-3.64-5.66Z" style="fill: #fff;"/>
            <path d="m212.44,110.05c.74.27,1.83.01,2.18.77.35.74-.23,1.63-.36,2.46-.03.21-.06.42-.14.62-.38,1.05-.04,1.62,1.08,1.73.25.02.5.1.75.16,2.63.58,2.28.72,2.85-1.8.51-2.27.5-2.27,2.74-1.94.46.07.95.19,1.28-.28.33-.47.07-.89-.18-1.29-1.12-1.75-2.26-3.48-3.35-5.24-.52-.84-1.15-.91-1.92-.43-.83.52-1.64,1.05-2.46,1.57,0,0,0,0,0,.01-.93.59-1.86,1.18-2.77,1.79-.36.24-.62.58-.57,1.06.06.51.45.66.86.81Z" style="fill: #fff;"/>
          </g>
        </g>
        <g>
          <polygon points="41.36 139.17 50.37 125.81 54.99 94.35 48.63 98.24 41.36 139.17" style="fill: url(#linear-gradient-17);"/>
          <polygon points="21.44 86.75 14.18 89.92 20.32 93.19 47.86 97.1 54.65 92.94 43.83 84.97 21.44 86.75" style="fill: url(#linear-gradient-18);"/>
          <path d="m20.57,94.62l-13.15,39.89,32.14,6.91,7.64-43.02-26.63-3.78Zm10.56,23.71l-2.18,8.78-.69,2.78-.44,1.77c-.2.82-1.03,1.32-1.85,1.11l-10.95-2.72c-.82-.2-1.32-1.03-1.11-1.85l3.98-16.06c.2-.82,1.03-1.32,1.85-1.11l1.77.44,3.71.92,3.43.85c.47.12.85.44,1.04.89l1.37,3.23c.13.3.16.64.08.96Zm2.92,8.08l-.53,2.13c-.09.36-.46.58-.82.49l-1.94-.48c-.36-.09-.58-.46-.49-.82l.53-2.13,2.25-9.06c.04-.14.02-.29-.03-.43l-1.64-3.88c-.08-.2-.25-.34-.46-.39l-3.85-.95-3.06-.76c-.36-.09-.58-.46-.49-.82l.55-2.41c.09-.36.46-.58.82-.49l3.06.76,7.09,1.76c.21.05.38.2.46.39l1.58,4.35c.06.13.07.28.03.43l-3.05,12.3Zm4.7-1.02c-.1.42-.53.68-.96.58l-1.24-.41c-.42-.11-.68-.53-.58-.96l2.85-11.5c.04-.17.03-.34-.04-.5l-1.54-4.27c-.1-.23-.3-.4-.54-.46l-6.27-1.56c-.42-.11-.68-.53-.58-.96l.31-1.25c.1-.42.53-.68.96-.58l9.04,2.34c.24.06.44.23.54.46l1.47,4.74c.07.16.08.33.04.5l-3.48,13.81Z" style="fill: url(#Degradado_sin_nombre_64);"/>
          <polygon points="12.99 90.85 1.5 124.12 6.38 133.28 19.27 94.19 12.99 90.85" style="fill: url(#linear-gradient-19);"/>
          <path d="m21.1,85.4l-9.05,3.95L0,124.24l6.07,11.39,34.35,7.38,11.26-16.69,4.95-33.64-12.39-9.13-23.13,1.84Zm-14.72,47.88l-4.88-9.16,11.49-33.27,6.28,3.34-12.89,39.09Zm33.18,8.14l-32.14-6.91,13.15-39.89,26.63,3.78-7.64,43.02Zm10.81-15.61l-9.01,13.35,7.27-40.93,6.37-3.89-4.63,31.46Zm-2.51-28.72l-27.54-3.91-6.14-3.27,7.26-3.17,22.39-1.79,10.82,7.98-6.8,4.15Z"/>
          <path d="m40.72,106.33c-.1-.23-.3-.4-.54-.46l-9.04-2.34c-.42-.11-.85.15-.96.58l-.31,1.25c-.1.42.15.85.58.96l6.27,1.56c.24.06.44.23.54.46l1.54,4.27c.07.16.08.33.04.5l-2.85,11.5c-.1.42.15.85.58.96l1.24.41c.42.11.85-.15.96-.58l3.48-13.81c.04-.17.03-.34-.04-.5l-1.47-4.74Z" style="fill: #fff;"/>
          <path d="m35.5,109.32c-.08-.2-.25-.34-.46-.39l-7.09-1.76-3.06-.76c-.36-.09-.73.13-.82.49l-.55,2.41c-.09.36.13.73.49.82l3.06.76,3.85.95c.21.05.38.2.46.39l1.64,3.88c.06.13.07.28.03.43l-2.25,9.06-.53,2.13c-.09.36.13.73.49.82l1.94.48c.36.09.73-.13.82-.49l.53-2.13,3.05-12.3c.04-.14.02-.29-.03-.43l-1.58-4.35Z" style="fill: #fff;"/>
          <path d="m29.69,114.13c-.19-.44-.57-.77-1.04-.89l-3.43-.85-3.71-.92-1.77-.44c-.82-.2-1.65.3-1.85,1.11l-3.98,16.06c-.2.82.3,1.65,1.11,1.85l10.95,2.72c.82.2,1.65-.3,1.85-1.11l.44-1.77.69-2.78,2.18-8.78c.08-.32.05-.66-.08-.96l-1.37-3.23Z" style="fill: #fff;"/>
        </g>
      </g>
    </g>
  </g>
</svg>