<?xml version="1.0" encoding="UTF-8"?>
<svg id="Capa_3" data-name="Capa 3" xmlns="http://www.w3.org/2000/svg" viewBox="0 0 44.36 66.62">
  <style type="text/css">
	.elemento-svg{
		cursor: pointer;
	}
</style>
  <path class="elemento-svg" d="m22.73,1c1.25.32,2.36.9,2.87,2.14.27.65.42,1.41.42,2.12.03,8.6.02,22.2.02,30.8v.8c.24-.23.38-.36.52-.49,1.46-1.46,2.91-2.94,4.39-4.38,1.81-1.77,4.39-1.62,5.91.31,1.02,1.3,1.03,3.29.02,4.6-.18.23-.37.45-.58.66-3.72,3.73-7.45,7.45-11.18,11.18-1.45,1.45-3.24,1.74-4.89.77-.34-.2-.66-.47-.94-.75-3.76-3.75-7.51-7.49-11.26-11.26-2.04-2.05-1.59-5.17.94-6.37,1.41-.67,2.83-.53,4.01.49,1.24,1.08,2.37,2.29,3.53,3.45.57.57,1.12,1.15,1.68,1.73l.14-.05c0-.21,0-.41,0-.62,0-8.65,0-22.31,0-30.96,0-1.71.68-3,2.23-3.78.34-.17.72-.26,1.08-.38.37,0,.73,0,1.1,0Z" style="fill: #fff; stroke: #002f70; stroke-miterlimit: 10; stroke-width: 2px;"/>
  <path class="elemento-svg" d="m7.74,58.87h28.88c0-.21,0-.4,0-.59,0-2.29,0-4.58,0-6.87,0-1.79.96-3.07,2.59-3.5,1.86-.5,3.88.88,4.08,2.79.04.38.06.76.06,1.14,0,3.37,0,6.75,0,10.12,0,1.19-.37,2.22-1.34,2.97-.67.52-1.45.7-2.28.69-4.79,0-9.58,0-14.37,0-6.92,0-13.84,0-20.76,0-1.76,0-3.02-.91-3.46-2.5-.1-.36-.14-.75-.14-1.13-.01-3.52-.01-7.03,0-10.55,0-1.79.91-3.04,2.52-3.5,1.9-.55,4,.82,4.14,2.79.11,1.66.06,3.34.08,5.01,0,1.03,0,2.07,0,3.15Z" style="fill: #fff; stroke: #002f70; stroke-miterlimit: 10; stroke-width: 2px;"/>
</svg>