<?xml version="1.0" encoding="utf-8"?>
<!-- Generator: Adobe Illustrator 27.2.0, SVG Export Plug-In . SVG Version: 6.00 Build 0)  -->
<svg version="1.1" id="Capa_3" xmlns="http://www.w3.org/2000/svg" xmlns:xlink="http://www.w3.org/1999/xlink" x="0px" y="0px"
	 viewBox="0 0 256 402.3" style="enable-background:new 0 0 256 402.3;" xml:space="preserve">
<style type="text/css">
	.st0{fill:#D16507;}
	.st1{fill:#FABE46;}
	.st2{fill:#FDD266;}
	.st3{fill:#F5A724;}
	.st4{fill:#231F20;}
	.st5{fill:url(#SVGID_1_);}
	.st6{fill:url(#SVGID_00000022557345246902490660000003806902283615684242_);}
	.st7{fill:url(#SVGID_00000117655647578183777550000011061840455028175490_);}
	.st8{opacity:0.9;}
	.st9{opacity:0.85;}
</style>
<g>
	<path class="st0" d="M149.36,0.43c2.23,0.58,4.45,1.19,6.58,2.12c2.35,1.02,4.35,2.43,5.92,4.45c-0.25,0.81-0.27,1.64-0.27,2.48
		c0.02,2.12,0.01,4.24,0,6.36c-0.01,2.87,0.28,2.6-2.5,1.91c-2.54-0.63-5.08-1.26-7.66-1.72c-3.75-0.67-7.52-1.16-11.32-1.52
		c-3.47-0.34-6.92-0.38-10.38-0.39c-0.38,0-0.74,0.02-0.76,0.53c-0.06,1.47-0.54,2.89-0.5,4.37c-6.04,0.2-12.04,0.74-18,1.75
		c-0.09-1.44,0.17-2.85,0.38-4.26c0.08-0.55,0.03-0.72-0.58-0.63c-2.55,0.38-5.06,0.93-7.58,1.5c-3.89,0.88-7.62,2.27-11.42,3.43
		c0-4.32,0.01-8.64-0.01-12.95c0-0.42,0.29-1.01-0.44-1.19c1.31-1.59,3.11-2.43,4.95-3.22c2.5-1.08,5.12-1.78,7.83-1.77
		c3.25,0.01,6.45,0.35,9.51,1.8c2.52,1.2,5.34,1.49,8.12,1.67c2.98,0.2,5.97,0.15,8.91-0.43c2.88-0.57,5.69-1.4,8.34-2.71
		c0.96-0.48,1.98-0.78,3.01-1.06c0.42-0.11,0.85-0.16,1.12-0.55C144.88,0.43,147.12,0.43,149.36,0.43z"/>
	<path class="st1" d="M256.64,143.72c0.08,0.02,0.15,0.01,0.21-0.03c0,1.68,0,3.36,0,5.04l-0.1-0.04c0,0-0.11,0.01-0.11,0.01
		C256.64,147.04,256.64,145.38,256.64,143.72z"/>
	<path class="st1" d="M55.82,360.87c-0.45-5.51-0.15-11.03-0.43-16.54c-0.08-1.58-0.42-3.18-0.28-4.74c0.18-1.92,0-3.81-0.06-5.71
		c-0.12-3.48-0.2-6.96-0.19-10.45c3.39-0.13,6.77,0.11,10.16-0.21c3.05-0.28,6.13,0.03,9.2-0.25c2.89-0.27,5.81,0.04,8.72-0.23
		c3.13-0.29,6.29,0.05,9.44-0.25c2.85-0.27,5.73,0.03,8.6-0.23c3.13-0.28,6.29-0.06,9.44-0.23c3.74-0.2,7.49-0.05,11.24-0.31
		c0.63-0.04,1.35,0.03,1.77-0.65c2.8,0.45,5.59,0.91,8.46,1c4.6,0.14,9.15-0.09,13.62-1.27c3.08-0.81,5.88-2.28,8.66-3.77
		c-0.1,0.7,0.24,0.9,0.9,0.87c2.43-0.11,4.85,0.02,7.29-0.2c3.17-0.28,6.37,0.03,9.56-0.26c2.81-0.26,5.65,0.03,8.48-0.23
		c3.13-0.28,6.29,0.03,9.44-0.25c2.93-0.27,5.89-0.06,8.84-0.22c5.21-0.28,10.45-0.21,15.67-0.29c0.22,8.38,0.4,16.77,0.69,25.15
		c0.13,3.94,0.02,7.9,0.44,11.83c0.05,0.46-0.09,0.94-0.14,1.41c-2.86,0.09-5.72-0.08-8.59,0.2c-3.01,0.29-6.04-0.05-9.07,0.24
		c-2.96,0.28-5.96-0.04-8.95,0.24c-3.01,0.28-6.05,0.14-9.07,0.2c-4.82,0.1-9.63,0.41-14.46,0.32c-1.11-0.02-2.22-0.03-3.33,0.21
		c-0.44,0.1-0.79,0.12-0.74,0.67c-4.03-3.02-8.07-6.04-12.1-9.07c-4.34-3.26-8.69-6.51-13.02-9.8c-0.82-0.62-1.35-0.56-2.13,0.17
		c-1.58,1.48-3.42,2.69-4.98,4.19c-1.28,1.23-2.62,2.41-3.99,3.52c-1.45,1.18-2.98,2.27-4.36,3.53c-3.12,2.86-6.56,5.33-9.73,8.13
		c-0.88,0.78-1.63,1.72-2.75,2.21c-0.14-0.59-0.62-0.4-0.98-0.4c-1.51,0.01-3.02,0.08-4.53,0.18c-3.22,0.22-6.45-0.03-9.68,0.26
		c-2.85,0.26-5.73-0.05-8.61,0.22c-3.05,0.29-6.13-0.03-9.2,0.25c-2.93,0.27-5.89,0.01-8.85,0.22
		C62.77,360.81,59.28,360.54,55.82,360.87z"/>
	<path class="st0" d="M26.3,207.03c-1.37-1.47-2.88-2.83-3.84-4.63c-1.56-2.94-2.95-5.93-2.98-9.39
		c-0.08-8.34-2.99-15.65-8.14-22.16c-1.3-1.65-3.01-2.85-4.33-4.45c-2.54-3.05-4.11-6.54-4.74-10.47
		c-0.62-3.86-0.18-7.54,1.35-11.16c1.1-2.6,1.5-5.38,1.81-8.2c0.34-3.17,0.15-6.28-0.32-9.39c-0.42-2.74-1.12-5.42-2.36-7.94
		c-2.6-5.3-2.52-10.72-0.64-16.23c1.01-2.98,2.74-5.46,4.93-7.67c2.78-2.8,4.57-6.21,6.05-9.82c1.8-4.39,2.98-8.9,2.79-13.68
		c-0.1-2.52-0.03-5.01,0.83-7.41c1.92-5.36,5.18-9.64,10.31-12.27c1.85-0.94,3.83-1.66,5.57-2.79c2.04-1.33,3.77-3.06,5.55-4.71
		c2.74-2.53,4.87-5.5,6.58-8.76c0.86-1.65,1.4-3.46,2.18-5.15c1.52-3.28,3.78-5.93,6.89-7.83c0.53-0.33,1-0.75,1.5-1.14
		c0.28,0.47,0.24,1,0.24,1.52c0,5.4-0.01,10.8,0.01,16.19c0,0.67-0.32,1.44,0.44,1.99c0.3,0.22-0.08,0.41-0.23,0.54
		c-4.29,3.6-8.21,7.58-11.77,11.88c-3.37,4.06-6.67,8.18-9.43,12.72c-2.72,4.48-5.23,9.06-7.45,13.79
		c-1.91,4.08-3.55,8.28-4.89,12.58c-1.89,6.08-3.3,12.28-4.2,18.6c-0.54,3.75-0.89,7.51-1.04,11.28c-0.22,5.62,0,11.23,0.62,16.84
		c0.47,4.32,1.32,8.56,2.1,12.81c0.57,3.17,1.68,6.21,2.65,9.28c1.65,5.27,3.83,10.32,6.15,15.31c0.8,1.72,1.63,3.45,2.79,4.99
		c0.72,1.94,1.99,3.57,3.01,5.35c1.89,3.3,4.1,6.39,6.49,9.34c1.62,2,3.08,4.13,4.93,5.94c1.02,0.97,1.93,2.05,2.91,3.06
		c1.23,1.27,2.73,2.3,3.62,3.89c-0.11,0.45,0.04,0.86,0.17,1.28c1.42,4.36,2.54,8.75,2.21,13.41c-0.16,2.23-0.03,4.47-0.02,6.71
		c0,0.53-0.03,1.04-0.26,1.52c-1.02-0.68-1.49-1.77-1.89-2.82c-1.93-5.04-5.3-9.03-9.22-12.58c-2.82-2.56-5.98-4.68-9.6-5.95
		C30.9,210.27,28.48,208.87,26.3,207.03z"/>
	<path class="st2" d="M214.34,316.47c-5.22,0.08-10.46,0.01-15.67,0.29c-2.95,0.16-5.91-0.05-8.84,0.22
		c-3.15,0.29-6.31-0.03-9.44,0.25c-2.84,0.26-5.67-0.03-8.48,0.23c-3.19,0.29-6.39-0.02-9.56,0.26c-2.44,0.21-4.86,0.09-7.29,0.2
		c-0.66,0.03-1-0.17-0.9-0.87c1.94-1.11,3.78-2.39,5.41-3.9c3.5-3.24,6.3-6.98,8.14-11.46c1.7-4.15,2.4-8.49,3.07-12.87
		c0.32-2.07,0.24-4.16,0.38-6.24c0.28-4.11,0.31-8.26-0.45-12.33c-0.78-4.17-2.1-8.2-4.26-11.89c-1.06-1.81-2.26-3.53-3.39-5.29
		c0.81-1.22,2.17-1.42,3.42-1.59c1.49-0.2,3.01-0.13,4.52-0.24c3.14-0.23,6.29,0.05,9.44-0.25c2.93-0.27,5.89-0.1,8.84-0.2
		c4.02-0.14,8.05-0.37,12.08-0.29c3.16,0.06,6.29-0.34,9.44-0.29c1.18,0.02,1.65,0.22,1.73,1.56c0.08,1.43,0.11,2.86,0.17,4.29
		c0.02,0.46-0.16,0.97,0.21,1.38c0.14,3.34,0.12,6.69,0.19,10.03c0.12,5.58,0.39,11.15,0.35,16.73c-0.01,1.19-0.11,2.39,0,3.56
		c0.32,3.25,0.42,6.5,0.45,9.76c0.11,5.19,0.27,10.38,0.31,15.57C214.22,314.22,214.23,315.35,214.34,316.47z"/>
	<path class="st2" d="M123.43,321.08c-0.42,0.68-1.14,0.61-1.77,0.65c-3.74,0.25-7.5,0.11-11.24,0.31
		c-3.15,0.17-6.31-0.05-9.44,0.23c-2.88,0.26-5.75-0.04-8.6,0.23c-3.15,0.3-6.31-0.04-9.44,0.25c-2.92,0.27-5.83-0.04-8.72,0.23
		c-3.07,0.28-6.15-0.03-9.2,0.25c-3.39,0.31-6.78,0.07-10.16,0.21c-0.52-2.79-0.16-5.6-0.27-8.4c-0.16-4.34-0.21-8.68-0.3-13.02
		c-0.01-0.31,0.07-0.65-0.19-0.91c0.02-3.43-0.01-6.86-0.22-10.29c-0.15-2.47-0.19-4.95-0.18-7.41c0.04-7.15-0.62-14.27-0.56-21.41
		c0-1.48,0.02-2.96-0.01-4.44c-0.01-0.62,0.23-0.85,0.84-0.84c1.39,0.02,2.78-0.09,4.17-0.2c2.94-0.22,5.89,0.04,8.85-0.23
		c3.05-0.28,6.13,0.05,9.21-0.24c2.97-0.28,5.98-0.13,8.97-0.2c4.75-0.11,9.49-0.4,14.24-0.33c1.31,0.02,2.63,0.2,3.93-0.19
		c0.28-0.09,0.58-0.01,0.77,0.22c0.39,0.44,0.89,0.43,1.42,0.48c1.49,0.17,2.98,0.41,4.46,0.62c-3.42,1.82-6.6,3.98-9.36,6.69
		c-3.97,3.9-7.09,8.33-8.99,13.65c-1.97,5.51-2.19,11.06-0.98,16.68c0.98,4.54,3.09,8.58,6.02,12.21c3.77,4.66,8.19,8.5,13.65,11.04
		C114.51,318.85,118.89,320.23,123.43,321.08z"/>
	<path class="st1" d="M109.99,256.63c-1.49-0.21-2.97-0.45-4.46-0.62c-0.53-0.06-1.03-0.04-1.42-0.48c-0.2-0.23-0.49-0.3-0.77-0.22
		c-1.3,0.39-2.62,0.21-3.93,0.19c-4.75-0.07-9.5,0.22-14.24,0.33c-2.99,0.07-5.99-0.08-8.97,0.2c-3.08,0.29-6.16-0.04-9.21,0.24
		c-2.96,0.27-5.91,0.02-8.85,0.23c-1.39,0.1-2.78,0.21-4.17,0.2c-0.62-0.01-0.85,0.22-0.84,0.84c0.03,1.48,0.01,2.96,0.01,4.44
		c-2.02,0.03-4.04,0.04-6.07,0.21c-2.89,0.25-5.79,0.01-8.69,0.22c-3.52,0.25-7.07-0.03-10.6,0.31c-0.39-3.04-0.12-6.1-0.32-9.14
		c-0.44-6.67-0.12-13.35-0.56-20.02c-0.18-2.72-0.01-5.49-0.19-8.23c-0.21-3.17-0.1-6.34-0.2-9.5c-0.1-2.93-0.14-5.86-0.21-8.79
		c2.18,1.84,4.6,3.24,7.31,4.19c3.62,1.27,6.78,3.4,9.6,5.95c3.92,3.55,7.29,7.54,9.22,12.58c0.4,1.05,0.87,2.14,1.89,2.82
		c-0.05,0.4,0.22,0.64,0.43,0.94c0.85,1.18,1.9,2.15,3.04,3.02c3.65,2.78,7.62,4.78,12.34,4.81c1.96,0.02,3.95-0.2,5.87,0.06
		c6.61,0.89,12.73,3.12,18.08,7.21c0.35,0.26,0.62,0.87,1.2,0.5c0.5-0.31,0.3-0.87,0.3-1.33c0.01-3.8-0.03-7.59,0.03-11.39
		c0.01-0.93-0.29-1.29-1.16-1.58c-4.71-1.59-9.31-3.48-13.74-5.74c0.48-1.59,0.97-3.19,1.45-4.78c3.61,1.51,7.09,3.32,10.8,4.6
		c2.94,1.02,5.9,1.95,8.86,2.88c-0.33,1.63-0.2,3.35-0.89,4.97c3.71,0.9,7.57,1.54,11.41,2.28c4.5,0.87,9.06,0.98,13.59,1.31
		c2.82,0.2,5.66,0.12,8.49,0c1.45-0.06,2.93-0.05,4.36-0.44c1.76,0.6,3.38,1.51,4.98,2.44c5.59,3.24,10.7,7.05,14.68,12.21
		c-0.12,0-0.24-0.01-0.36,0.02c-4.11,0.99-8.13,0.82-12.17-0.56c-1.12-0.39-2.5-0.84-3.79-0.15c-2.76-0.83-5.53-1.52-8.43-1.78
		c-2.95-0.26-5.89-0.35-8.81-0.04C119.66,252.6,114.69,254.2,109.99,256.63z"/>
	<path class="st0" d="M256.64,143.72c0,1.66,0,3.31,0,4.97c-0.63,5.25-2.79,9.67-6.74,13.28c-2.05,1.87-3.31,4.42-4.54,6.91
		c-1.78,3.6-2.93,7.42-3.53,11.35c-0.26,1.7-0.44,3.47-0.15,5.29c0.43,2.65-0.37,5.26-1.28,7.76c-0.85,2.32-2.17,4.39-3.74,6.3
		c-0.13,0.04-0.2,0.13-0.17,0.27c0,0-0.01-0.02-0.01-0.02c-1.89,2.21-4.09,4.04-6.79,5.12c-3.8,1.52-6.99,3.89-9.93,6.66
		c-2.09,1.97-3.81,4.26-5.6,6.5c-0.27-0.48-0.24-1-0.24-1.52c0-3.84,0.01-7.68-0.01-11.52c0-0.34,0.19-0.89-0.17-0.99
		c-0.96-0.29-0.21-0.58-0.02-0.78c0.98-1.04,2.1-1.97,2.98-3.1c2.05-2.62,4.25-5.13,5.98-8c1.5-2.49,3.3-4.8,4.78-7.3
		c2.92-4.93,5.48-10.07,7.61-15.4c1.73-4.33,3.17-8.76,4.41-13.26c2.01-7.28,3.21-14.7,3.63-22.2c0.28-4.97,0.26-9.98-0.12-14.97
		c-0.3-4.01-0.78-7.99-1.47-11.94c-0.82-4.71-1.99-9.35-3.45-13.89c-1.38-4.28-3-8.49-4.88-12.6c-3.01-6.59-6.53-12.87-10.74-18.77
		c-1.18-1.65-2.26-3.37-3.7-4.82c-0.45-0.65-0.9-1.3-1.35-1.95c0.8,0,0.59-0.61,0.59-1.04c0.01-3.23,0.01-6.46,0.01-9.69
		c0-0.52-0.03-1.04,0.25-1.51c3.59,2.37,8.02,3.06,11.45,5.78c4.64,3.68,7.7,8.24,8.21,14.27c0.36,4.22,0.47,8.47,2.16,12.46
		c1.87,4.42,4,8.68,7.49,12.07c2.59,2.51,4.95,5.12,6.27,8.59c1.92,5.02,2.51,10.02,0.44,15.09c-1.92,4.69-2.44,9.56-2.22,14.57
		c0.2,4.32,1.09,8.45,3.02,12.35C255.94,139.81,256.45,141.73,256.64,143.72z"/>
	<path class="st1" d="M214.14,218.12c1.79-2.23,3.51-4.53,5.6-6.5c2.94-2.76,6.13-5.14,9.93-6.66c2.7-1.08,4.9-2.92,6.79-5.12
		c0.18,6.3,0.37,12.61,0.54,18.91c0.26,9.34,0.52,18.68,0.78,28.02c0.09,3.32,0.17,6.64,0.26,9.96c-8.38,0.15-16.76,0.28-25.13,0.71
		c-0.37-0.41-0.19-0.92-0.21-1.38c-0.06-1.43-0.09-2.86-0.17-4.29c-0.08-1.34-0.55-1.54-1.73-1.56c-3.15-0.04-6.29,0.35-9.44,0.29
		c-4.03-0.08-8.06,0.16-12.08,0.29c-2.95,0.1-5.91-0.07-8.84,0.2c-3.15,0.29-6.31,0.02-9.44,0.25c-1.51,0.11-3.04,0.04-4.52,0.24
		c-1.25,0.17-2.6,0.37-3.42,1.59c-1.04-0.96-1.84-2.14-2.79-3.17c-2.21-2.39-4.72-4.47-7.36-6.34c-4.36-3.1-9.11-5.54-14.05-7.62
		c-0.33-0.14-0.78-0.23-0.87-0.85c3.83-0.17,7.61-0.72,11.38-1.34c0.05,1.36-0.18,2.68-0.44,4.01c-0.12,0.59-0.06,1.06,0.76,0.9
		c1.94-0.37,3.89-0.72,5.83-1.09c3.12-0.59,6.1-1.72,9.19-2.45c0,1.24,0.01,2.48,0.01,3.72c0,3.68,0,7.35,0,11.03
		c0,0.4-0.05,0.83,0.42,1.02c0.43,0.18,0.75-0.05,1.06-0.34c0.53-0.48,1.14-0.88,1.62-1.4c3.46-3.81,7.54-6.7,12.3-8.66
		c3.74-1.54,7.58-2.73,11.66-2.69c3.82,0.04,7.29-0.96,10.54-2.88c2.33-1.37,4.25-3.17,5.96-5.26c1.94-2.36,2.95-5.17,4.12-7.91
		C212.93,220.51,213.85,219.46,214.14,218.12z"/>
	<path class="st1" d="M212.91,257.44c8.37-0.43,16.75-0.56,25.13-0.71c0.08,6.07,0.27,12.14,0.4,18.21
		c0.11,5.42,0.35,10.84,0.51,16.26c0.17,5.87,0.32,11.74,0.48,17.61c0.05,1.88,0.1,3.75,0.14,5.63c0,0.25,0.15,0.59-0.17,0.74
		c-0.28,0.13-0.51-0.05-0.75-0.22c-5.34-3.77-10.7-7.5-16.02-11.31c-2.89-2.07-5.74-4.2-8.73-6.13c-0.03-3.26-0.14-6.51-0.45-9.76
		c-0.11-1.18-0.01-2.37,0-3.56c0.04-5.58-0.22-11.15-0.35-16.73C213.03,264.12,213.06,260.78,212.91,257.44z"/>
	<path class="st1" d="M27.78,262.72c3.53-0.34,7.08-0.06,10.6-0.31c2.91-0.21,5.81,0.03,8.69-0.22c2.03-0.17,4.04-0.17,6.07-0.21
		c-0.07,7.14,0.59,14.26,0.56,21.41c-0.01,2.46,0.02,4.94,0.18,7.41c0.21,3.43,0.24,6.86,0.22,10.29c-2.3,1.79-4.62,3.56-6.91,5.36
		c-5.13,4.03-10.24,8.08-15.37,12.12c-0.8,0.63-1.6,1.26-2.68,2.1c0-1.64,0.02-2.98,0-4.32c-0.07-3.37,0-6.75-0.28-10.1
		c-0.25-2.95-0.11-5.89-0.19-8.84c-0.2-7.56-0.33-15.13-0.6-22.69c-0.07-1.94-0.18-3.89-0.27-5.83
		C27.7,266.87,27.72,264.79,27.78,262.72z"/>
	<path class="st3" d="M31.27,182.09c-1.15-1.54-1.98-3.27-2.79-4.99c-2.32-4.99-4.5-10.04-6.15-15.31
		c-0.96-3.07-2.07-6.11-2.65-9.28c-0.77-4.26-1.62-8.5-2.1-12.81c-0.62-5.61-0.84-11.22-0.62-16.84c0.15-3.77,0.51-7.53,1.04-11.28
		c0.9-6.32,2.31-12.51,4.2-18.6c1.34-4.3,2.97-8.51,4.89-12.58c2.22-4.73,4.73-9.31,7.45-13.79c2.76-4.54,6.06-8.66,9.43-12.72
		c3.57-4.3,7.48-8.28,11.77-11.88c0.15-0.13,0.52-0.32,0.23-0.54c-0.76-0.55-0.44-1.32-0.44-1.99c-0.03-5.4-0.02-10.8-0.01-16.19
		c0-0.52,0.04-1.04-0.24-1.52c2.64-1.59,5.51-2.66,8.57-2.63c7.36,0.06,13.82-2.48,19.94-6.28c2.47-1.54,4.3-3.73,6.39-5.66
		c0.2-0.19,0.43-0.35,0.65-0.52c0.73,0.17,0.44,0.77,0.44,1.19c0.02,4.32,0.01,8.64,0.01,12.95c-5.5,2.17-10.95,4.46-16.05,7.48
		c-6.41,3.33-12.11,7.71-17.77,12.14c-0.2,0.16-0.39,0.46-0.41,0.71c-0.17,2.33-0.9,4.59-0.77,6.95c-2.87,2.7-5.61,5.53-8.14,8.55
		c-2.88,3.43-5.65,6.93-8.13,10.67c-5.92,8.96-10.46,18.54-13.58,28.81c-2.43,7.99-3.89,16.15-4.42,24.45
		c-0.31,4.84-0.3,9.72,0.14,14.59c0.35,3.87,0.75,7.71,1.48,11.53c1.01,5.22,2.32,10.35,4.03,15.38c1.33,3.93,3.02,7.72,4.63,11.53
		c-0.39,0.38-0.53,0.82-0.52,1.38c0.04,2.03,0.02,4.05,0.01,6.08C31.77,181.48,31.94,182,31.27,182.09z"/>
	<path class="st1" d="M161.12,356.95c-0.05-0.56,0.3-0.57,0.74-0.67c1.11-0.25,2.21-0.23,3.33-0.21c4.82,0.09,9.64-0.22,14.46-0.32
		c3.02-0.07,6.06,0.08,9.07-0.2c2.99-0.28,5.99,0.04,8.95-0.24c3.03-0.29,6.06,0.05,9.07-0.24c2.87-0.27,5.73-0.11,8.59-0.2
		c0.19,6.62,0.39,13.25,0.58,19.87c0.21,7.3,0.41,14.61,0.62,21.91c0.01,0.28,0.03,0.56,0.01,0.84c-0.02,0.25,0.14,0.59-0.17,0.74
		c-0.29,0.14-0.51-0.06-0.75-0.23c-1.87-1.41-3.76-2.81-5.64-4.22c-5.54-4.17-11.16-8.24-16.6-12.53
		c-4.5-3.54-9.22-6.79-13.71-10.35c-4.54-3.59-9.28-6.92-13.93-10.37C164.18,359.35,162.66,358.14,161.12,356.95z"/>
	<path class="st1" d="M55.82,360.87c3.46-0.33,6.95-0.05,10.4-0.3c2.96-0.21,5.91,0.05,8.85-0.22c3.07-0.28,6.15,0.04,9.2-0.25
		c2.88-0.27,5.75,0.03,8.61-0.22c3.23-0.29,6.47-0.04,9.68-0.26c1.51-0.1,3.02-0.17,4.53-0.18c0.36,0,0.84-0.18,0.98,0.4
		c-3.37,2.94-6.83,5.76-10.29,8.59c-2.75,2.25-5.4,4.61-8.12,6.89c-3.71,3.11-7.43,6.2-11.15,9.3c-2.58,2.15-5.15,4.31-7.72,6.46
		c-4.55,3.82-9.1,7.64-13.65,11.46c-0.05,0.04-0.15,0.02-0.41,0.04c0-2.06,0.03-4.11-0.01-6.16c-0.06-3.29-0.05-6.58-0.26-9.85
		c-0.19-2.97-0.09-5.94-0.19-8.9C56.08,372.06,55.96,366.46,55.82,360.87z"/>
	<path class="st2" d="M236.48,199.86c-0.03-0.14,0.03-0.23,0.17-0.27C236.59,199.68,236.53,199.77,236.48,199.86z"/>
	<path class="st3" d="M218.23,42.87c-0.29,0.47-0.26,0.99-0.25,1.51c0,3.23,0.01,6.46-0.01,9.69c0,0.43,0.2,1.04-0.59,1.04
		c-0.43-0.35-0.76-0.8-1.13-1.21c-1.46-1.62-2.76-3.4-4.51-4.75c-0.15-0.19-0.28-0.39-0.44-0.56c-6.66-7.06-14.23-12.99-22.48-18.07
		c-2.81-1.73-5.66-3.43-8.75-4.66c-0.04-0.11-0.05-0.28-0.13-0.32c-3.35-1.64-6.75-3.15-10.32-4.27c-0.79-0.25-0.93,0.18-1.01,0.69
		c-0.21,1.36-0.37,2.74-0.55,4.11c-2.96-1.19-5.98-2.22-9.05-3.04c-4.95-1.32-9.96-2.36-15.07-2.98c-3.24-0.4-6.49-0.62-9.74-0.9
		c-1.9-0.16-3.83-0.09-5.74-0.13c-0.04-1.48,0.44-2.9,0.5-4.37c0.02-0.52,0.39-0.53,0.76-0.53c3.47,0.01,6.92,0.05,10.38,0.39
		c3.8,0.37,7.57,0.86,11.32,1.52c2.58,0.46,5.12,1.09,7.66,1.72c2.78,0.69,2.49,0.96,2.5-1.91c0.01-2.12,0.01-4.24,0-6.36
		c-0.01-0.84,0.02-1.67,0.27-2.48c3.85,3.59,8.54,5.69,13.47,7.2c3.3,1.01,6.75,1.5,10.25,1.3c5.93-0.35,10.93,1.8,15.24,5.79
		c2.25,2.08,3.79,4.59,5.02,7.38c1.15,2.61,2.75,4.96,4.64,7.12c2.2,2.53,4.72,4.67,7.42,6.63
		C218.08,42.53,218.21,42.65,218.23,42.87z"/>
	<path class="st4" d="M128.47,19.02c1.91,0.03,3.84-0.04,5.74,0.13c3.25,0.28,6.49,0.5,9.74,0.9c5.11,0.62,10.12,1.66,15.07,2.98
		c3.07,0.82,6.09,1.85,9.05,3.04c1.85,0.54,3.59,1.39,5.36,2.14c1.83,0.78,3.63,1.64,5.44,2.46c5,2.83,10.03,5.63,14.65,9.08
		c3.47,2.6,6.89,5.25,10.02,8.26c2.28,2.19,4.54,4.42,6.81,6.63c-0.02,0.31,0.15,0.52,0.35,0.72c2.36,2.37,4.28,5.09,6.36,7.68
		c2.64,3.6,5.08,7.33,7.27,11.23c2.46,4.39,4.65,8.91,6.49,13.6c1.22,3.11,2.37,6.24,3.23,9.46c1.21,4.54,2.34,9.1,2.97,13.78
		c0.46,3.41,0.91,6.81,1.1,10.24c0.26,4.54,0.19,9.07-0.16,13.62c-0.32,4.1-0.79,8.18-1.54,12.21c-1.81,9.7-4.95,18.99-9.31,27.85
		c-2.36,4.82-5.19,9.36-8.24,13.77c-3.38,4.89-7.14,9.47-11.33,13.69c-2.27,2.28-4.58,4.52-6.88,6.77
		c-0.32-0.05-0.51,0.17-0.72,0.36c-4.09,3.63-8.56,6.73-13.16,9.64c-2.96,1.69-5.85,3.53-8.9,5.01c-3.65,1.77-7.38,3.4-11.2,4.78
		c-5.63,2.04-11.42,3.6-17.32,4.69c-3.77,0.62-7.55,1.17-11.38,1.34c0.09,0.62,0.54,0.71,0.87,0.85c4.93,2.08,9.68,4.52,14.05,7.62
		c2.64,1.87,5.16,3.95,7.36,6.34c0.95,1.03,1.75,2.21,2.79,3.17c1.14,1.76,2.34,3.49,3.39,5.29c2.16,3.69,3.48,7.72,4.26,11.89
		c0.76,4.06,0.73,8.22,0.45,12.33c-0.14,2.08-0.06,4.17-0.38,6.24c-0.67,4.37-1.37,8.72-3.07,12.87c-1.84,4.47-4.64,8.22-8.14,11.46
		c-1.63,1.5-3.46,2.79-5.41,3.9c-2.78,1.49-5.58,2.96-8.66,3.77c-4.47,1.18-9.01,1.41-13.62,1.27c-2.86-0.09-5.65-0.54-8.46-1
		c-4.54-0.85-8.92-2.23-13.1-4.18c-5.45-2.54-9.88-6.38-13.65-11.04c-2.93-3.63-5.04-7.68-6.02-12.21
		c-1.21-5.61-0.99-11.17,0.98-16.68c1.9-5.32,5.02-9.75,8.99-13.65c2.76-2.71,5.94-4.88,9.36-6.69c4.7-2.43,9.67-4.03,14.92-4.59
		c2.91-0.31,5.86-0.22,8.81,0.04c2.9,0.26,5.67,0.96,8.43,1.78c2.06,0.96,4,2.1,5.72,3.59c5.77,4.99,8.13,11.59,8.66,18.94
		c0.3,4.04-0.29,8-1.57,11.91c-2.39,7.32-7.21,12.39-13.95,15.75c-5.27,2.63-10.9,3.38-16.72,2.59c-5.09-0.69-9.4-2.91-12.71-6.86
		c-6.24-7.45-7.51-15.98-4.57-24.99c1.94-5.93,6.32-9.95,12.2-12.09c4.21-1.53,8.53-1.84,12.99-1.01c4.83,0.91,9.07,2.74,12.18,6.69
		c3.1,3.93,2.86,8.9-0.62,12.56c-1.84,1.93-4.11,3.24-6.5,4.38c-3.68,1.75-7.51,2.84-11.61,2.59c-1.99-0.12-3.69-0.92-4.93-2.56
		c-1.88-2.47-1.34-5,0.05-7.38c2.7-4.63,8.27-6.62,13.67-5.02c-0.66,1.37-2.89,2.26-4.57,1.93c-1.35-0.27-2.83-0.53-3.97,0.44
		c-1.7,1.45-2.78,4.56-1.84,6.85c1.2,2.94,3.99,3.71,6.4,3.51c2.76-0.23,5.4-1.13,7.8-2.59c2.59-1.58,4.03-3.9,4.12-6.95
		c0.11-3.74-1.91-6.41-4.71-8.48c-4.59-3.4-9.89-4.41-15.5-3.94c-3.55,0.29-6.37,2.01-8.43,4.87c-3.61,5.03-4.52,10.71-3.72,16.75
		c0.71,5.37,2.9,9.98,6.83,13.78c2.05,1.99,4.36,3.46,7.04,4.38c3.59,1.24,7.28,1.18,10.98,0.71c3.47-0.44,6.58-1.76,9.21-4.08
		c5.83-5.13,7.99-11.9,8.35-19.36c0.19-3.86-0.53-7.62-1.85-11.3c-2.04-5.68-5.61-9.97-10.97-12.72c-4.08-2.09-8.56-2.36-13.02-2.62
		c-2.32-0.13-4.63,0.26-6.91,0.69c-6.57,1.22-12.12,4.36-16.69,9.15c-3.12,3.27-5.44,7.09-7.08,11.36
		c-2.1,5.48-2.41,11.1-1.15,16.68c1.29,5.73,4.47,10.59,8.48,14.87c1.58,1.69,3.4,3.12,5.25,4.51c2.99,2.24,6.38,3.67,9.8,5.01
		c2.22,0.87,4.55,1.46,6.89,1.99c2.13,0.48,4.27,0.87,6.43,1.16c2.48,0.33,4.99,0.21,7.49,0.21c2.61,0.01,5.19-0.35,7.66-1.1
		c9.97-3.03,15.52-10.27,18.35-19.88c1.5-5.09,1.7-10.39,1.95-15.65c0.13-2.73,0.12-5.48-0.14-8.23c-0.25-2.61-0.75-5.14-1.52-7.62
		c-1.46-4.69-3.75-8.95-6.93-12.71c-3.98-5.17-9.09-8.98-14.68-12.21c-1.6-0.93-3.22-1.84-4.98-2.44c-3.48-1.98-7.2-3.39-11.09-4.27
		c-2.86-0.65-5.85-0.33-8.76-0.75c-2.62-0.38-5.27-0.53-7.86-1.1c-3.08-0.68-6.17-1.33-9.26-1.99c-2.96-0.93-5.92-1.87-8.86-2.88
		c-3.71-1.28-7.19-3.09-10.8-4.6c-3.66-2.01-7.37-3.94-10.84-6.28c-4.19-2.81-8.33-5.71-12.07-9.11c-3.27-2.96-6.49-5.96-9.46-9.24
		c-1.51-1.67-3.01-3.33-4.38-5.12c-2.24-3.21-4.76-6.22-6.79-9.59c-2.25-3.72-4.46-7.45-6.34-11.36c-1.62-3.82-3.3-7.6-4.63-11.53
		c-1.71-5.04-3.02-10.17-4.03-15.38c-0.74-3.81-1.14-7.66-1.48-11.53c-0.44-4.87-0.45-9.75-0.14-14.59
		c0.53-8.29,1.99-16.46,4.42-24.45c3.13-10.28,7.67-19.86,13.58-28.81c2.47-3.75,5.25-7.25,8.13-10.67
		c2.54-3.02,5.27-5.85,8.14-8.55c2.51-2.24,5.07-4.43,7.73-6.5c3.52-2.73,7.27-5.13,11-7.55c3.43-2.04,6.98-3.85,10.61-5.48
		c7.96-3.58,16.26-6.15,24.85-7.8C116.43,19.76,122.44,19.22,128.47,19.02z M130.65,23.66c-3.29,0.01-6.56,0.19-9.84,0.45
		c-3.78,0.29-7.51,0.81-11.21,1.54c-3.35,0.66-6.7,1.37-9.91,2.6c-0.23,0.03-0.48,0.02-0.7,0.09c-9.3,2.92-18,7.08-26.12,12.46
		c-3.73,2.47-7.31,5.17-10.71,8.11c-1.7,1.47-3.43,2.89-4.96,4.54c-2.36,2.07-4.34,4.5-6.37,6.86c-1.96,2.27-3.74,4.7-5.5,7.14
		c-2.52,3.49-4.75,7.17-6.75,10.98c-1.36,2.6-2.58,5.26-3.86,7.9c-2.28,5.37-4.09,10.92-5.51,16.56c-1.45,5.76-2.36,11.67-2.64,17.6
		c-0.22,4.76-0.24,9.55,0.15,14.33c0.26,3.17,0.55,6.33,1.14,9.46c0.7,3.71,1.45,7.41,2.47,11.04c3.16,11.27,8.08,21.71,14.76,31.32
		c-0.05,1.33,0.85,2.26,1.45,3.3c2.59,4.51,5.82,8.52,9.89,11.78c1.05,0.84,2.05,1.94,3.59,1.95c2.14,1.84,4.18,3.81,6.44,5.49
		c8.22,6.13,17.01,11.24,26.61,14.94c3.91,1.51,7.89,2.75,11.94,3.8c3.35,0.87,6.76,1.46,10.19,1.96c2.64,0.38,5.3,0.8,7.95,0.88
		c5.61,0.16,11.24,0.26,16.85-0.23c0.38-0.07,0.76-0.18,1.15-0.21c2.62-0.25,5.22-0.62,7.79-1.11c4.77-0.91,9.48-2.1,14.08-3.67
		c3.78-1.3,7.55-2.62,11.07-4.54c0.27-0.06,0.53-0.07,0.79-0.21c3.23-1.68,6.47-3.35,9.56-5.28c5.74-3.59,11.15-7.62,16.08-12.26
		c3.16-2.98,6.21-6.08,8.96-9.44c0.9-1.09,1.95-2.08,2.59-3.37c2.41-2.86,4.43-6,6.39-9.17c3.33-5.38,6.08-11.04,8.35-16.93
		c0.87-2.51,1.83-4.98,2.59-7.52c2.38-7.98,3.69-16.15,4.19-24.46c0.33-5.55,0.05-11.07-0.52-16.58c-0.43-4.22-1.18-8.41-2.17-12.54
		c-2.81-11.78-7.53-22.76-14.21-32.87c-4.48-6.79-9.68-13-15.62-18.58c-2.76-2.59-5.64-5.02-8.65-7.3
		c-5.77-4.37-11.95-8.07-18.5-11.15c-5.59-2.63-11.42-4.62-17.36-6.23c-4.22-1.15-8.51-1.98-12.89-2.49
		C139.34,24.09,135.01,23.66,130.65,23.66z"/>
	<path class="st2" d="M110.48,20.77c-8.58,1.65-16.88,4.22-24.85,7.8c-3.63,1.63-7.19,3.44-10.61,5.48
		c-0.48-0.41-0.33-0.96-0.24-1.43c0.27-1.43,0.48-2.86,0.45-4.32c5.1-3.03,10.55-5.31,16.05-7.48c3.8-1.16,7.53-2.55,11.42-3.43
		c2.51-0.57,5.03-1.13,7.58-1.5c0.61-0.09,0.66,0.08,0.58,0.63C110.65,17.92,110.39,19.33,110.48,20.77z"/>
	<path class="st0" d="M80.73,229.09c4.43,2.27,9.03,4.16,13.74,5.74c0.87,0.29,1.17,0.65,1.16,1.58c-0.06,3.8-0.02,7.59-0.03,11.39
		c0,0.46,0.19,1.02-0.3,1.33c-0.58,0.36-0.86-0.24-1.2-0.5c-5.35-4.1-11.47-6.33-18.08-7.21c-1.92-0.26-3.91-0.04-5.87-0.06
		c-4.72-0.04-8.69-2.04-12.34-4.81c-1.14-0.87-2.19-1.84-3.04-3.02c-0.21-0.3-0.48-0.54-0.43-0.94c0.22-0.48,0.26-0.99,0.26-1.52
		c-0.01-2.24-0.14-4.48,0.02-6.71c0.33-4.66-0.78-9.06-2.21-13.41c-0.14-0.42-0.29-0.83-0.17-1.28c1.53,1.26,3.01,2.57,4.59,3.76
		c2.74,2.07,5.18,4.48,8.1,6.34c3.29,2.09,6.49,4.34,9.93,6.19C76.8,227,78.61,228.34,80.73,229.09z"/>
	<path class="st2" d="M80.73,229.09c-2.12-0.75-3.92-2.08-5.88-3.13c-3.44-1.85-6.64-4.1-9.93-6.19c-2.93-1.86-5.37-4.28-8.1-6.34
		c-1.58-1.19-3.06-2.5-4.59-3.76c-0.89-1.59-2.38-2.62-3.62-3.89c-0.98-1.01-1.89-2.09-2.91-3.06c0.25-0.39,0.24-0.82,0.24-1.26
		c0-2.09-0.54-4.12-0.77-6.19c-0.03-0.31-0.28-0.63,0.26-0.7c1.37,1.78,2.87,3.45,4.38,5.12c2.96,3.28,6.19,6.28,9.46,9.24
		c3.75,3.4,7.88,6.29,12.07,9.11c3.48,2.33,7.18,4.27,10.84,6.28C81.69,225.9,81.21,227.5,80.73,229.09z"/>
	<path class="st1" d="M45.43,194.57c-0.53,0.07-0.29,0.39-0.26,0.7c0.23,2.07,0.78,4.09,0.77,6.19c0,0.44,0.01,0.87-0.24,1.26
		c-1.85-1.81-3.31-3.95-4.93-5.94c-2.39-2.94-4.6-6.03-6.49-9.34c-1.02-1.78-2.29-3.4-3.01-5.35c0.67-0.08,0.51-0.61,0.51-1.01
		c0.01-2.03,0.03-4.05-0.01-6.08c-0.01-0.56,0.13-1,0.52-1.38c1.89,3.92,4.09,7.65,6.34,11.36
		C40.67,188.35,43.19,191.36,45.43,194.57z"/>
	<path class="st2" d="M158.47,254.56c3.17,3.77,5.47,8.02,6.93,12.71c0.77,2.48,1.28,5,1.52,7.62c0.26,2.75,0.28,5.5,0.14,8.23
		c-0.25,5.26-0.45,10.56-1.95,15.65c-2.84,9.61-8.39,16.85-18.35,19.88c-2.47,0.75-5.05,1.11-7.66,1.1
		c-2.5-0.01-5.01,0.11-7.49-0.21c-2.16-0.28-4.3-0.68-6.43-1.16c-2.34-0.53-4.67-1.12-6.89-1.99c-3.42-1.34-6.81-2.77-9.8-5.01
		c-1.86-1.39-3.67-2.82-5.25-4.51c-4.01-4.28-7.19-9.14-8.48-14.87c-1.26-5.59-0.94-11.2,1.15-16.68c1.64-4.28,3.96-8.09,7.08-11.36
		c4.57-4.79,10.12-7.93,16.69-9.15c2.29-0.43,4.59-0.82,6.91-0.69c4.45,0.26,8.94,0.53,13.02,2.62c5.36,2.75,8.93,7.04,10.97,12.72
		c1.32,3.68,2.04,7.44,1.85,11.3c-0.36,7.46-2.53,14.23-8.35,19.36c-2.63,2.32-5.74,3.64-9.21,4.08c-3.7,0.47-7.39,0.53-10.98-0.71
		c-2.68-0.92-4.99-2.39-7.04-4.38c-3.93-3.8-6.12-8.41-6.83-13.78c-0.79-6.03,0.11-11.71,3.72-16.75c2.05-2.86,4.87-4.57,8.43-4.87
		c5.61-0.46,10.91,0.55,15.5,3.94c2.79,2.06,4.82,4.74,4.71,8.48c-0.09,3.06-1.53,5.38-4.12,6.95c-2.39,1.46-5.03,2.36-7.8,2.59
		c-2.41,0.2-5.2-0.57-6.4-3.51c-0.94-2.29,0.14-5.41,1.84-6.85c1.15-0.97,2.62-0.71,3.97-0.44c1.68,0.33,3.92-0.56,4.57-1.93
		c-5.4-1.59-10.97,0.39-13.67,5.02c-1.38,2.38-1.92,4.91-0.05,7.38c1.24,1.63,2.94,2.44,4.93,2.56c4.11,0.25,7.93-0.84,11.61-2.59
		c2.39-1.14,4.66-2.45,6.5-4.38c3.48-3.65,3.72-8.63,0.62-12.56c-3.12-3.95-7.35-5.78-12.18-6.69c-4.45-0.84-8.78-0.53-12.99,1.01
		c-5.89,2.14-10.27,6.16-12.2,12.09c-2.94,9.02-1.67,17.54,4.57,24.99c3.31,3.95,7.62,6.17,12.71,6.86
		c5.83,0.79,11.45,0.04,16.72-2.59c6.74-3.36,11.56-8.43,13.95-15.75c1.28-3.91,1.86-7.87,1.57-11.91
		c-0.54-7.35-2.9-13.95-8.66-18.94c-1.72-1.49-3.66-2.63-5.72-3.59c1.29-0.69,2.67-0.23,3.79,0.15c4.04,1.39,8.06,1.55,12.17,0.56
		C158.22,254.55,158.35,254.57,158.47,254.56z"/>
	<path class="st3" d="M101.84,231.79c3.09,0.66,6.17,1.32,9.26,1.99c2.59,0.57,5.24,0.72,7.86,1.1c2.91,0.42,5.9,0.1,8.76,0.75
		c3.88,0.88,7.6,2.29,11.09,4.27c-1.43,0.39-2.91,0.38-4.36,0.44c-2.83,0.12-5.67,0.2-8.49,0c-4.54-0.33-9.09-0.44-13.59-1.31
		c-3.84-0.74-7.71-1.38-11.41-2.28C101.63,235.15,101.51,233.43,101.84,231.79z"/>
	<path class="st3" d="M200.66,209.26c2.29-2.26,4.61-4.49,6.88-6.77c4.19-4.22,7.94-8.79,11.33-13.69
		c3.05-4.41,5.88-8.95,8.24-13.77c4.35-8.87,7.49-18.15,9.31-27.85c0.75-4.03,1.23-8.1,1.54-12.21c0.35-4.55,0.42-9.08,0.16-13.62
		c-0.2-3.43-0.65-6.83-1.1-10.24c-0.63-4.68-1.76-9.24-2.97-13.78c-0.86-3.22-2.02-6.35-3.23-9.46c-1.84-4.69-4.03-9.21-6.49-13.6
		c-2.19-3.89-4.63-7.63-7.27-11.23c0.5-0.27,0.6-0.72,0.73-1.27c0.36-1.57,0.11-3.27,0.95-4.74c1.43,1.45,2.52,3.17,3.7,4.82
		c4.2,5.9,7.73,12.18,10.74,18.77c1.88,4.11,3.5,8.31,4.88,12.6c1.46,4.54,2.63,9.18,3.45,13.89c0.69,3.96,1.17,7.93,1.47,11.94
		c0.38,4.99,0.4,10,0.12,14.97c-0.42,7.51-1.61,14.92-3.63,22.2c-1.25,4.5-2.68,8.93-4.41,13.26c-2.13,5.33-4.68,10.46-7.61,15.4
		c-1.48,2.5-3.28,4.81-4.78,7.3c-1.73,2.87-3.93,5.38-5.98,8c-0.88,1.12-1.99,2.05-2.98,3.1c-0.19,0.2-0.93,0.49,0.02,0.78
		c0.35,0.11,0.16,0.65,0.17,0.99c0.01,3.84,0.01,7.68,0.01,11.52c0,0.52-0.02,1.04,0.24,1.52c-0.29,1.34-1.21,2.39-1.74,3.62
		c-1.17,2.74-2.18,5.55-4.12,7.91c-1.71,2.09-3.63,3.89-5.96,5.26c-3.26,1.92-6.72,2.91-10.54,2.88c-4.07-0.04-7.92,1.15-11.66,2.69
		c-4.76,1.95-8.85,4.85-12.3,8.66c-0.48,0.53-1.09,0.92-1.62,1.4c-0.31,0.29-0.63,0.52-1.06,0.34c-0.47-0.19-0.42-0.63-0.42-1.02
		c0-3.68,0-7.35,0-11.03c0-1.24,0-2.48-0.01-3.72c4.67-1.72,9.35-3.37,13.82-5.62c2.7-1.36,5.43-2.65,8.01-4.25
		c0.15-0.06,0.3-0.11,0.44-0.19c4.3-2.49,8.46-5.19,12.31-8.35c0.33-0.27,0.84-0.65,0.83-0.97
		C200.05,213.56,200.94,211.46,200.66,209.26z M210.8,206.57c0.08-0.08,0.17-0.15,0.25-0.23c0.08-0.08,0.15-0.17,0.23-0.25
		c0.03-0.04,0.07-0.08,0.1-0.13c-0.04,0.03-0.09,0.07-0.13,0.1c-0.08,0.08-0.17,0.16-0.25,0.23c-0.08,0.08-0.15,0.17-0.23,0.25
		c-0.08,0.08-0.15,0.17-0.23,0.25c-0.08,0.08-0.16,0.16-0.24,0.24c-0.08,0.08-0.16,0.16-0.24,0.24c-0.03,0.01-0.06,0.02-0.08,0.04
		c-0.01,0.01-0.01,0.04-0.02,0.06c0.03-0.04,0.06-0.07,0.09-0.11c0.08-0.08,0.16-0.16,0.24-0.24c0.08-0.08,0.16-0.16,0.24-0.24
		C210.63,206.72,210.71,206.65,210.8,206.57z M209.13,208.27c0.08-0.09,0.15-0.17,0.23-0.26c0.03-0.04,0.07-0.08,0.1-0.12
		c-0.04,0.03-0.09,0.07-0.13,0.1c-0.08,0.08-0.17,0.15-0.25,0.23c-0.03,0.05-0.06,0.1-0.1,0.14
		C209.03,208.33,209.08,208.3,209.13,208.27z"/>
	<path class="st1" d="M218.73,57.05c-0.84,1.47-0.59,3.17-0.95,4.74c-0.12,0.54-0.22,0.99-0.73,1.27c-2.08-2.6-4.01-5.32-6.36-7.68
		c-0.2-0.2-0.37-0.42-0.35-0.72c0.66-0.23,0.57-0.85,0.68-1.36c0.28-1.37,0.27-2.8,0.72-4.14c1.75,1.35,3.04,3.13,4.51,4.75
		c0.37,0.41,0.7,0.86,1.13,1.21C217.83,55.75,218.28,56.4,218.73,57.05z"/>
	<path class="st2" d="M186.53,225.24c-2.58,1.6-5.31,2.88-8.01,4.25c-4.47,2.25-9.15,3.9-13.82,5.62c-3.09,0.73-6.06,1.86-9.19,2.45
		c-1.94,0.37-3.89,0.71-5.83,1.09c-0.82,0.16-0.88-0.31-0.76-0.9c0.26-1.32,0.49-2.65,0.44-4.01c5.9-1.09,11.69-2.65,17.32-4.69
		c3.81-1.38,7.55-3.01,11.2-4.78c3.06-1.48,5.94-3.33,8.9-5.01c0.25,0.4,0.4,0.73,0.3,1.29C186.8,222.1,186.7,223.68,186.53,225.24z
		"/>
	<path class="st1" d="M75.23,28.3c0.03,1.46-0.17,2.89-0.45,4.32c-0.09,0.47-0.24,1.03,0.24,1.43c-3.73,2.42-7.48,4.82-11,7.55
		c-2.67,2.06-5.22,4.26-7.73,6.5c-0.14-2.36,0.6-4.62,0.77-6.95c0.02-0.25,0.21-0.55,0.41-0.71C63.12,36.01,68.82,31.63,75.23,28.3z
		"/>
	<path class="st2" d="M211.74,49.15c-0.45,1.35-0.44,2.77-0.72,4.14c-0.11,0.51-0.01,1.12-0.68,1.36c-2.27-2.21-4.52-4.44-6.81-6.63
		c-3.13-3.01-6.55-5.66-10.02-8.26c-4.62-3.46-9.64-6.25-14.65-9.08c0.16-1.13,0.33-2.25,0.47-3.38c0.07-0.57-0.06-1.23,0.73-1.43
		c3.09,1.23,5.94,2.92,8.75,4.66c8.25,5.08,15.82,11.01,22.48,18.07C211.46,48.76,211.59,48.96,211.74,49.15z"/>
	<path class="st1" d="M180.07,25.86c-0.8,0.2-0.66,0.86-0.73,1.43c-0.14,1.13-0.31,2.25-0.47,3.38c-1.81-0.83-3.61-1.69-5.44-2.46
		c-1.77-0.75-3.5-1.6-5.36-2.14c0.18-1.37,0.33-2.74,0.55-4.11c0.08-0.51,0.22-0.94,1.01-0.69c3.56,1.13,6.97,2.64,10.32,4.27
		C180.02,25.58,180.03,25.75,180.07,25.86z"/>
	<path class="st3" d="M212.07,190.42c-0.65,1.29-1.7,2.27-2.6,3.37c-2.75,3.36-5.8,6.46-8.96,9.44
		c-4.93,4.64-10.34,8.67-16.08,12.26c-3.09,1.94-6.33,3.6-9.56,5.28c-0.27,0.14-0.53,0.16-0.79,0.21c0-0.3-0.18-0.5-0.34-0.73
		c-0.94-1.36-1.86-2.73-2.78-4.1c1.84-0.96,3.68-1.92,5.52-2.88c3.44-1.86,6.74-3.92,9.94-6.17c1-0.7,1.47-1.39,1.37-2.61
		c-0.06-0.73,0.17-1.49,0.33-2.23c0.08-0.4,0.24-0.81-0.18-1.08c-0.41-0.26-0.67,0.17-0.92,0.36c-3.31,2.48-6.76,4.76-10.3,6.92
		c-0.72,0.34-1.44,0.67-2.17,1.01c-0.52-1.09-1.41-1.18-2.42-0.86c-0.57,0.18-1.13,0.38-1.69,0.6c-1.35,0.53-2.03,0.32-2.84-0.85
		c-1.09-1.57-2.18-3.14-3.28-4.7c-5.76-8.16-11.52-16.32-17.28-24.49c-5.97-8.46-11.93-16.91-17.9-25.37
		c-5.92-8.39-11.83-16.79-17.75-25.18c-5.16-7.32-10.33-14.63-15.49-21.95c-3.76-5.34-7.49-10.69-11.25-16.03
		c-5.75-8.17-11.54-16.31-17.26-24.5c-1.05-1.5-2.27-2.81-3.6-4.04c-0.4-0.36-0.73-0.24-1.03,0.09c-0.53,0.59-1.02,1.22-1.57,1.79
		c-4.32,4.5-8.01,9.49-11.2,14.84c-1.18,1.98-2.62,3.82-3.33,6.05c-0.15,0.23-0.33,0.45-0.45,0.69c-2.94,5.76-5.2,11.78-6.76,18.06
		c-1.24,4.99-2.07,10.04-2.63,15.14c-0.31,2.82-0.29,5.65-0.39,8.47c-0.07,1.97,0.03,3.99,0.2,5.97c0.17,1.89,0.12,3.82,0.66,5.67
		c0.09,0.99,0.1,1.98,0.27,2.96c1.43,8.54,3.91,16.76,7.52,24.63c0.2,0.44,0.6,0.98,0.31,1.34c-0.89,1.13-1.41,2.54-2.58,3.46
		c-0.63-0.7-0.81-1.63-1.21-2.44c-2.52-5.13-4.37-10.51-5.86-16.01c-0.97-3.6-1.83-7.24-2.33-10.95c-0.33-2.41-0.55-4.81-0.75-7.23
		c-0.33-4.08-0.59-8.18-0.31-12.25c0.18-2.6,0.48-5.21,0.81-7.81c0.74-5.78,2.03-11.43,3.76-16.98c0.65-2.09,1.37-4.15,2.06-6.23
		c0.13-0.2,0.3-0.38,0.38-0.59c2.41-6.15,5.54-11.92,9.14-17.44c3.36-5.14,7.22-9.9,11.58-14.23c0.73-0.72,0.88-1.33,0.25-2.17
		c-0.72-0.95-1.37-1.96-2.04-2.94c-0.27-0.4-0.64-0.59-1.12-0.55c1.53-1.65,3.27-3.07,4.96-4.54c3.39-2.94,6.97-5.63,10.71-8.11
		c8.12-5.38,16.82-9.54,26.12-12.46c0.22-0.07,0.47-0.06,0.7-0.09c-0.1,0.63,0.39,1,0.65,1.48c0.68,1.24,1.85,2.16,2.24,3.58
		c-2.29,0.8-4.61,1.54-6.87,2.4c-5.19,1.97-10.21,4.31-14.96,7.2c-0.42,0.22-0.86,0.42-1.27,0.67c-4.66,2.86-9.06,6.08-13.22,9.62
		c-0.3,0.26-0.59,0.52-0.64,0.97c-0.14,1.14-0.36,2.27-0.45,3.42c-0.05,0.57-0.33,1.36,0.18,1.68c0.45,0.28,0.75-0.56,1.21-0.77
		c0.28-0.13,0.51-0.38,0.74-0.6c2.88-2.64,5.87-5.13,9.11-7.32c1.38-0.94,2.87-1.71,4.1-2.86c0.59-0.32,1.19-0.64,1.77-0.97
		c4.31-2.44,8.63-4.84,13.33-6.47c0.66,1.48,1.17,1.8,2.26,1.36c3.59-1.44,7.3-2.49,11.06-3.38c0.6-0.14,0.92-0.06,1.31,0.42
		c2.73,3.38,5.06,7.05,7.58,10.58c3.73,5.21,7.36,10.5,11.05,15.74c5.78,8.2,11.57,16.39,17.36,24.58
		c6.34,8.98,12.67,17.95,19,26.93c4.77,6.77,9.55,13.53,14.32,20.3c3.76,5.34,7.49,10.7,11.25,16.03
		c5.1,7.22,10.22,14.42,15.32,21.64c1.16,1.65,1.12,1.86-0.04,3.63c-0.31,0.47-0.6,0.94-0.74,1.49c-0.17,0.67,0.1,1.23,0.61,1.57
		c0.67,0.45,0.73-0.36,1.01-0.65c0.36-0.37,0.69-0.78,0.96-1.21c2.79-4.47,5.45-9.01,7.68-13.79c0.18-0.38,0.25-0.75,0.23-1.16
		c0.27-0.14,0.36-0.39,0.48-0.65c1.53-3.51,2.79-7.12,3.83-10.8c2.2-7.72,3.44-15.6,3.58-23.63c0.06-3.18-0.17-6.35-0.39-9.53
		c-0.28-4.22-0.91-8.37-1.78-12.49c-0.65-3.1-1.5-6.16-2.63-9.12c-0.07-0.35-0.11-0.7-0.22-1.04c-1.52-4.58-3.41-9-5.7-13.24
		c-2.06-3.82-4.22-7.57-6.79-11.08c-0.19-0.26-0.43-0.53-0.37-0.85c0.28-1.67,0.12-3.42,0.87-5.01c0.33,0.03,0.45,0.29,0.61,0.51
		c3.92,5.09,7.34,10.47,10.2,16.24c2.95,5.95,5.26,12.12,7.06,18.47c1.93,6.79,2.89,13.78,3.19,20.82
		c0.19,4.46,0.01,8.92-0.37,13.38c-0.47,5.61-1.57,11.09-2.93,16.53c-0.56,2.23-1.55,4.35-1.75,6.68c-0.55,0.11-0.57,0.6-0.71,1
		c-1.1,3.16-2.44,6.22-3.88,9.23c-2.47,5.14-5.4,10.01-8.75,14.62c-0.55,0.75-0.6,1.35-0.02,2.12
		C210.33,187.76,211.18,189.11,212.07,190.42z"/>
	<path class="st2" d="M37.3,138.89c-0.55-1.85-0.49-3.78-0.66-5.67c-0.18-1.98-0.27-3.99-0.2-5.97c0.1-2.82,0.08-5.65,0.39-8.47
		c0.56-5.11,1.39-10.15,2.63-15.14c1.56-6.28,3.82-12.3,6.76-18.06c0.12-0.24,0.3-0.46,0.45-0.69c1.26,1,1.13,2.25,0.62,3.55
		c-0.13,0.33-0.28,0.67-0.48,0.97c-1.22,1.91-0.83,3.55,0.47,5.36c6.22,8.66,12.34,17.4,18.49,26.12
		c5.97,8.46,11.93,16.91,17.9,25.37c5.92,8.39,11.83,16.79,17.75,25.18c6.59,9.33,13.2,18.65,19.78,27.99
		c4.2,5.95,8.39,11.92,12.54,17.9c0.6,0.86,1.21,1.4,2.33,1.23c1.37-0.2,2.76-0.3,4.14-0.44c0.83-0.09,1.66-0.11,2.49-0.25
		c0.92-0.15,1.41,0.62,1.55,1.37c0.14,0.79-0.76,0.61-1.14,0.67c-0.89,0.15-1.82,0.23-2.71,0.37c-1.16,0.18-2.38-0.06-3.5,0.43
		c-2.04-0.15-4.06,0.42-6.08,0.2c-3.09-0.34-6.21,0-9.3-0.43c-1.85-0.25-3.74-0.24-5.56-0.58c-3.35-0.61-6.68-1.39-10.01-2.1
		c-3.22-1.14-6.53-2.02-9.71-3.3c-1.02-0.41-1.72-0.99-2.39-1.82c-0.75-0.91-1.28-2.12-2.44-2.57c-1.8-0.7-3.42-1.72-5.11-2.61
		c-3.56-1.88-6.93-4.08-10.17-6.46c-4.05-2.97-7.84-6.26-11.35-9.87c-0.25-0.25-0.48-0.83-0.93-0.53c-0.42,0.28-0.36,0.79-0.24,1.31
		c0.26,1.18,0.82,2.12,1.74,2.89c1.25,1.05,2.5,2.11,3.69,3.22c4.67,4.35,10.01,7.72,15.47,10.94c1.78,1.05,2.01,1.44,1.6,3.44
		c-0.33,1.63-0.17,1.97,1.33,2.71c0.68,0.34,1.37,0.65,2.05,0.98c2.98,1.44,6.08,2.59,9.18,3.74c2.19,0.81,4.45,1.5,6.79,1.8
		c0.32,0.14,0.64,0.33,0.98,0.42c7.31,1.79,14.72,2.79,22.25,2.93c2.59,0.05,5.17-0.14,7.75-0.26c-0.01,0.35,0.25,0.55,0.42,0.81
		c1.06,1.64,2.44,3.07,3.17,4.92c-5.61,0.49-11.24,0.38-16.85,0.23c-2.65-0.07-5.3-0.49-7.95-0.88c-3.43-0.5-6.84-1.09-10.19-1.96
		c-4.04-1.05-8.03-2.29-11.94-3.8c-9.6-3.7-18.4-8.81-26.61-14.94c-2.26-1.68-4.3-3.65-6.44-5.49c-0.2-0.24-0.37-0.51-0.6-0.71
		c-3.36-3.02-6.42-6.31-9.26-9.82c-1.73-2.13-3.38-4.33-5.07-6.49c-6.68-9.61-11.6-20.05-14.76-31.32
		c-1.02-3.64-1.77-7.33-2.47-11.04c-0.6-3.14-0.88-6.29-1.14-9.46c-0.39-4.78-0.37-9.57-0.15-14.33c0.27-5.93,1.19-11.84,2.64-17.6
		c1.42-5.64,3.23-11.19,5.51-16.56c0.45-0.04,0.69,0.2,0.96,0.55c1.16,1.46,2,3.15,3.31,4.49c-0.69,2.08-1.41,4.14-2.06,6.23
		c-1.73,5.55-3.02,11.2-3.76,16.98c-0.33,2.6-0.64,5.22-0.81,7.81c-0.27,4.07-0.02,8.17,0.31,12.25c0.2,2.42,0.42,4.83,0.75,7.23
		c0.51,3.71,1.36,7.34,2.33,10.95c1.49,5.5,3.34,10.88,5.86,16.01c0.4,0.82,0.58,1.74,1.21,2.44c0.02,0.12,0.01,0.25,0.06,0.35
		c1.55,2.92,3.26,5.75,5,8.56c0.43,0.7,0.82,0.32,1.07-0.12c0.36-0.63,0.68-1.25,1.42-1.54c0.73-0.28,0.94-0.73,0.51-1.5
		c-0.33-0.61-0.7-1.37,0.14-1.91c0.75-0.48,0.59-0.92,0.2-1.57c-2.31-3.88-4.29-7.94-5.97-12.12c-2.45-6.11-4.24-12.41-5.39-18.91
		C39.6,141,38.81,139.64,37.3,138.89z"/>
	<path class="st1" d="M139.99,230.52c-0.73-1.85-2.11-3.28-3.17-4.92c-0.17-0.26-0.43-0.46-0.42-0.81c0.06-1.37,0.59-2.68,0.48-4.06
		c1.12-0.5,2.33-0.25,3.5-0.43c0.89-0.14,1.82-0.23,2.71-0.37c0.38-0.06,1.28,0.12,1.14-0.67c-0.13-0.74-0.63-1.52-1.55-1.37
		c-0.83,0.14-1.66,0.16-2.49,0.25c-1.38,0.14-2.77,0.24-4.14,0.44c-1.12,0.16-1.73-0.37-2.33-1.23c-4.16-5.98-8.35-11.94-12.54-17.9
		c-6.59-9.34-13.19-18.66-19.78-27.99c-5.92-8.39-11.83-16.79-17.75-25.18c-5.96-8.46-11.93-16.92-17.9-25.37
		c-6.15-8.72-12.27-17.46-18.49-26.12c-1.3-1.81-1.68-3.45-0.47-5.36c0.19-0.3,0.34-0.63,0.48-0.97c0.51-1.3,0.64-2.55-0.62-3.55
		c0.71-2.24,2.15-4.08,3.33-6.06c3.19-5.35,6.87-10.34,11.2-14.84c0.55-0.57,1.04-1.2,1.57-1.79c0.3-0.33,0.63-0.46,1.03-0.09
		c1.34,1.23,2.55,2.53,3.6,4.04c5.72,8.19,11.51,16.33,17.26,24.5c3.76,5.34,7.49,10.69,11.25,16.03
		c5.16,7.32,10.33,14.63,15.49,21.95c5.92,8.39,11.83,16.79,17.75,25.18c5.96,8.46,11.93,16.91,17.9,25.37
		c5.76,8.16,11.52,16.32,17.28,24.49c1.1,1.56,2.19,3.13,3.28,4.7c0.81,1.17,1.49,1.37,2.84,0.85c0.56-0.22,1.12-0.42,1.69-0.6
		c1.02-0.32,1.9-0.23,2.42,0.86c-1.12,1.07-2.62,1.48-3.95,2.14c-5.62,2.78-11.52,4.83-17.58,6.43c-0.8,0.21-1.29,0.57-1.43,1.37
		c-0.13,0.78-0.22,1.57-0.31,2.36c-0.07,0.61,0.09,0.81,0.81,0.67c2.43-0.46,4.79-1.16,7.15-1.86c4.01-1.2,7.85-2.86,11.73-4.42
		c0.93,1.37,1.84,2.74,2.78,4.1c0.16,0.23,0.34,0.44,0.34,0.73c-3.52,1.92-7.29,3.24-11.07,4.54c-4.6,1.58-9.3,2.76-14.08,3.67
		c-2.58,0.49-5.18,0.86-7.79,1.11C140.75,230.34,140.38,230.45,139.99,230.52z"/>
	<path class="st2" d="M218.93,98.1c1.13,2.97,1.97,6.02,2.63,9.12c0.87,4.12,1.49,8.27,1.78,12.49c0.21,3.18,0.44,6.35,0.39,9.53
		c-0.14,8.03-1.38,15.91-3.58,23.63c-1.05,3.68-2.3,7.29-3.83,10.8c-0.12,0.27-0.21,0.51-0.48,0.65c-1.26-1.02-1.36-1.49-0.83-2.96
		c0.85-2.32,1.72-4.62,2.45-6.99c0.38-1.24,0.23-2.21-0.5-3.25c-2.66-3.73-5.26-7.49-7.9-11.23c-5.16-7.32-10.33-14.63-15.49-21.95
		c-3.76-5.34-7.49-10.69-11.25-16.03c-5.78-8.2-11.57-16.39-17.35-24.58c-5.76-8.16-11.53-16.32-17.28-24.48
		c-3.74-5.3-7.45-10.63-11.18-15.93c-0.41-0.58-0.88-0.94-1.71-1.06c-1.52-0.22-3.02-0.14-4.54-0.17c-1.62-0.03-2.15-0.51-2.26-2.17
		c4.14-0.07,8.26,0.28,12.38,0.67c5,0.48,9.9,1.43,14.72,2.8c2.25,0.64,4.48,1.36,6.73,2.04c2.64,1.28,5.48,2.1,8.1,3.45
		c0.56,0.29,0.91-0.16,0.96-0.57c0.1-0.91,0.4-1.78,0.32-2.72c-0.04-0.52-0.29-0.79-0.72-0.98c-2.62-1.14-5.2-2.41-7.96-3.23
		c-2.94-0.98-5.88-1.94-8.89-2.67c-3.63-0.88-7.29-1.52-11.01-2.01c-2.8-0.37-5.61-0.5-8.4-0.86c-0.03-0.5-0.36-0.86-0.62-1.26
		c-0.99-1.52-2.3-2.83-2.96-4.55c4.37,0,8.69,0.43,13.03,0.93c4.37,0.51,8.66,1.34,12.89,2.49c5.95,1.61,11.77,3.6,17.36,6.23
		c6.55,3.09,12.74,6.78,18.5,11.15c3.01,2.28,5.89,4.71,8.65,7.3c5.95,5.58,11.14,11.78,15.62,18.58
		c6.67,10.11,11.39,21.09,14.21,32.87c0.99,4.13,1.74,8.32,2.17,12.54c0.56,5.51,0.85,11.04,0.52,16.58
		c-0.5,8.31-1.8,16.48-4.19,24.46c-0.76,2.54-1.72,5.02-2.59,7.52c-0.78-0.08-0.93-0.81-1.3-1.29c-0.92-1.18-1.53-2.6-2.78-3.51
		c0.2-2.33,1.19-4.45,1.75-6.68c1.36-5.44,2.46-10.92,2.93-16.53c0.37-4.46,0.56-8.92,0.37-13.38c-0.3-7.05-1.26-14.04-3.19-20.82
		c-1.81-6.35-4.12-12.53-7.06-18.47c-2.86-5.77-6.28-11.15-10.2-16.24c-0.17-0.22-0.29-0.49-0.61-0.51
		c-1.45-2.46-3.41-4.48-5.42-6.45c-0.38-0.37-0.74-0.3-0.86,0.27c-0.16,0.77-0.29,1.56-0.43,2.34c-0.07,0.41,0.15,0.98-0.43,1.12
		c-0.45,0.11-0.67-0.38-0.93-0.65c-4.88-5.06-10.14-9.68-15.92-13.7c-1.34-0.93-2.76-1.74-4.16-2.6c-0.31-0.19-0.69-0.38-0.99-0.07
		c-0.3,0.31,0.03,0.59,0.21,0.83c0.87,1.12,1.59,2.31,2.87,3.11c5.13,3.19,9.61,7.21,13.96,11.36c3.83,3.66,7.19,7.77,10.24,12.12
		c3.57,5.11,6.75,10.46,9.11,16.24c1,2.46,2.27,4.69,4.01,6.67C218.22,97.76,218.47,98.09,218.93,98.1z"/>
	<path class="st1" d="M128,33.54c0.12,1.65,0.64,2.13,2.26,2.17c1.51,0.03,3.02-0.04,4.54,0.17c0.83,0.12,1.3,0.47,1.71,1.06
		c3.73,5.31,7.44,10.63,11.18,15.93c5.75,8.17,11.52,16.32,17.28,24.48c5.78,8.19,11.58,16.38,17.35,24.58
		c3.76,5.34,7.49,10.69,11.25,16.03c5.16,7.32,10.33,14.63,15.49,21.95c2.64,3.74,5.24,7.5,7.9,11.23c0.73,1.03,0.88,2.01,0.5,3.25
		c-0.73,2.36-1.6,4.67-2.45,6.99c-0.54,1.47-0.43,1.94,0.83,2.96c0.02,0.41-0.06,0.78-0.23,1.16c-2.24,4.78-4.9,9.32-7.68,13.79
		c-0.27,0.44-0.6,0.85-0.96,1.21c-0.28,0.29-0.34,1.1-1.01,0.65c-0.51-0.34-0.78-0.9-0.61-1.57c0.14-0.55,0.43-1.02,0.74-1.49
		c1.16-1.77,1.2-1.98,0.04-3.63c-5.09-7.22-10.22-14.42-15.32-21.64c-3.77-5.33-7.49-10.69-11.25-16.03
		c-4.77-6.77-9.54-13.53-14.32-20.3c-6.33-8.98-12.67-17.96-19-26.93c-5.78-8.2-11.58-16.38-17.36-24.58
		c-3.69-5.24-7.31-10.53-11.05-15.74c-2.53-3.52-4.86-7.19-7.58-10.58c-0.39-0.48-0.71-0.56-1.31-0.42
		c-3.76,0.89-7.47,1.94-11.06,3.38c-1.09,0.44-1.6,0.12-2.26-1.36c0.36-0.16,0.72-0.35,1.09-0.49c3.57-1.34,7.17-2.56,10.9-3.4
		c0.63-0.14,1.27-0.33,1.4-1.1c0.13-0.78,0.21-1.57,0.3-2.35c0.11-0.93-0.25-1.21-1.18-0.97c-1.84,0.49-3.69,0.9-5.54,1.35
		c-0.39-1.42-1.56-2.35-2.24-3.58c-0.26-0.47-0.75-0.85-0.65-1.48c3.21-1.24,6.56-1.95,9.91-2.6c3.7-0.73,7.43-1.25,11.21-1.54
		c3.28-0.26,6.55-0.44,9.84-0.45c0.67,1.73,1.98,3.04,2.96,4.55c0.26,0.4,0.58,0.75,0.62,1.26c-1.58,0-3.17,0-4.75,0
		c-1.79,0-2.24,0.41-2.42,2.22c-0.02,0.24,0.05,0.5-0.03,0.71C126.58,33.45,127.13,33.63,128,33.54z"/>
	<path class="st1" d="M38.99,91.37c-1.31-1.35-2.16-3.03-3.31-4.49c-0.28-0.35-0.52-0.58-0.96-0.55c1.28-2.64,2.5-5.31,3.86-7.9
		c2-3.81,4.23-7.49,6.75-10.98c1.76-2.43,3.54-4.87,5.5-7.14c2.04-2.36,4.02-4.79,6.37-6.86c0.48-0.04,0.85,0.15,1.12,0.55
		c0.67,0.99,1.32,1.99,2.04,2.94c0.63,0.84,0.48,1.44-0.25,2.17c-4.36,4.33-8.22,9.09-11.58,14.23c-3.61,5.51-6.73,11.29-9.14,17.44
		C39.29,91,39.12,91.18,38.99,91.37z"/>
	<path class="st1" d="M222.73,159.52c1.25,0.91,1.86,2.34,2.78,3.51c0.37,0.48,0.52,1.21,1.3,1.29c-2.27,5.9-5.02,11.56-8.35,16.93
		c-1.97,3.17-3.98,6.31-6.39,9.17c-0.89-1.31-1.75-2.66-2.7-3.93c-0.58-0.77-0.52-1.37,0.02-2.12c3.35-4.61,6.28-9.48,8.75-14.62
		c1.45-3.01,2.78-6.08,3.88-9.23C222.16,160.12,222.18,159.63,222.73,159.52z"/>
	<path class="st1" d="M186.53,225.24c0.17-1.57,0.27-3.15,0.55-4.69c0.1-0.56-0.06-0.9-0.3-1.29c4.61-2.92,9.08-6.01,13.16-9.64
		c0.21-0.18,0.39-0.4,0.72-0.36c0.28,2.19-0.61,4.29-0.55,6.48c0.01,0.32-0.5,0.7-0.83,0.97c-3.85,3.16-8.01,5.86-12.31,8.35
		C186.83,225.14,186.68,225.18,186.53,225.24z"/>
	<path class="st0" d="M45.09,186.66c1.69,2.17,3.34,4.36,5.07,6.49c2.84,3.51,5.9,6.8,9.26,9.82c0.23,0.21,0.4,0.47,0.6,0.71
		c-1.54-0.01-2.54-1.11-3.59-1.95c-4.07-3.26-7.3-7.26-9.89-11.78C45.95,188.91,45.05,187.99,45.09,186.66z"/>
	<path class="st0" d="M210.54,206.8c-0.08,0.08-0.16,0.16-0.24,0.24l0,0C210.39,206.96,210.46,206.88,210.54,206.8
		C210.54,206.8,210.54,206.8,210.54,206.8z"/>
	<path class="st0" d="M210.3,207.04c-0.08,0.08-0.16,0.16-0.24,0.24c0,0,0.01,0,0.01,0C210.15,207.2,210.23,207.12,210.3,207.04
		C210.31,207.04,210.3,207.04,210.3,207.04z"/>
	<path class="st0" d="M210.06,207.28c-0.03,0.04-0.06,0.07-0.09,0.11c0-0.02,0-0.05,0.02-0.06
		C210.01,207.3,210.04,207.29,210.06,207.28C210.07,207.28,210.06,207.28,210.06,207.28z"/>
	<path class="st0" d="M209.33,207.99c0.04-0.03,0.09-0.07,0.13-0.1c-0.03,0.04-0.07,0.08-0.1,0.12
		C209.36,208.01,209.33,207.99,209.33,207.99z"/>
	<path class="st0" d="M209.36,208.01c-0.08,0.09-0.15,0.17-0.23,0.26c0,0-0.05-0.05-0.05-0.05c0.08-0.08,0.17-0.15,0.25-0.23
		C209.33,207.99,209.36,208.01,209.36,208.01z"/>
	<path class="st0" d="M209.13,208.27c-0.05,0.03-0.1,0.07-0.14,0.1c0.03-0.05,0.06-0.1,0.1-0.14
		C209.08,208.22,209.13,208.27,209.13,208.27z"/>
	<path class="st0" d="M211.25,206.07c0.04-0.03,0.09-0.07,0.13-0.1c-0.03,0.04-0.07,0.08-0.1,0.13L211.25,206.07z"/>
	<path class="st0" d="M211.28,206.1c-0.08,0.08-0.15,0.17-0.23,0.25c0,0-0.04-0.04-0.04-0.04c0.08-0.08,0.17-0.16,0.25-0.23
		C211.25,206.07,211.28,206.1,211.28,206.1z"/>
	<path class="st0" d="M210.77,206.55c0.08-0.08,0.15-0.17,0.23-0.25c0,0,0.04,0.04,0.04,0.04c-0.08,0.08-0.17,0.15-0.25,0.23
		L210.77,206.55z"/>
	<path class="st0" d="M210.8,206.57c-0.08,0.07-0.17,0.15-0.25,0.22c0,0,0,0,0,0c0.08-0.08,0.15-0.17,0.23-0.25
		C210.77,206.55,210.8,206.57,210.8,206.57z"/>
	<path class="st1" d="M218.93,98.1c-0.46-0.01-0.71-0.34-0.97-0.64c-1.74-1.98-3.01-4.21-4.01-6.67
		c-2.35-5.78-5.53-11.13-9.11-16.24c-3.04-4.35-6.4-8.47-10.24-12.12c-4.34-4.14-8.83-8.17-13.96-11.36
		c-1.28-0.79-2.01-1.99-2.87-3.11c-0.19-0.24-0.51-0.52-0.21-0.83c0.3-0.32,0.68-0.12,0.99,0.07c1.39,0.85,2.82,1.67,4.16,2.6
		c5.78,4.01,11.04,8.64,15.92,13.7c0.26,0.27,0.48,0.76,0.93,0.65c0.58-0.14,0.36-0.71,0.43-1.12c0.14-0.78,0.27-1.56,0.43-2.34
		c0.12-0.57,0.48-0.64,0.86-0.27c2.01,1.98,3.98,4,5.42,6.45c-0.76,1.59-0.59,3.34-0.87,5.01c-0.05,0.32,0.18,0.6,0.37,0.85
		c2.57,3.5,4.73,7.26,6.79,11.08c2.29,4.24,4.19,8.66,5.7,13.24C218.82,97.4,218.86,97.75,218.93,98.1z"/>
	<path class="st2" d="M102.57,33.31c1.85-0.44,3.7-0.86,5.54-1.35c0.93-0.25,1.29,0.04,1.18,0.97c-0.09,0.78-0.17,1.57-0.3,2.35
		c-0.13,0.77-0.77,0.96-1.4,1.1c-3.72,0.84-7.33,2.06-10.9,3.4c-0.37,0.14-0.72,0.32-1.09,0.49c-4.7,1.63-9.03,4.03-13.33,6.47
		c-0.59,0.33-1.18,0.65-1.77,0.97c-0.36-0.31-0.22-0.72-0.24-1.1c-0.05-1.26,0.43-2.45,0.48-3.7c4.75-2.88,9.77-5.23,14.96-7.2
		C97.97,34.85,100.28,34.11,102.57,33.31z"/>
	<path class="st1" d="M37.3,138.89c1.51,0.75,2.3,2.11,2.57,3.63c1.15,6.49,2.94,12.8,5.39,18.91c1.68,4.19,3.66,8.24,5.97,12.12
		c0.39,0.65,0.55,1.09-0.2,1.57c-0.84,0.54-0.47,1.3-0.14,1.91c0.42,0.77,0.21,1.21-0.51,1.5c-0.74,0.29-1.06,0.91-1.42,1.54
		c-0.25,0.44-0.63,0.83-1.07,0.12c-1.74-2.81-3.45-5.64-5-8.56c-0.05-0.1-0.04-0.23-0.06-0.35c1.17-0.92,1.69-2.33,2.58-3.46
		c0.29-0.36-0.11-0.9-0.31-1.34c-3.61-7.87-6.1-16.09-7.52-24.63C37.4,140.87,37.38,139.88,37.3,138.89z"/>
	<path class="st2" d="M170.96,216.16c-3.88,1.56-7.72,3.22-11.73,4.42c-2.36,0.71-4.72,1.4-7.15,1.86
		c-0.72,0.14-0.87-0.06-0.81-0.67c0.09-0.79,0.18-1.58,0.31-2.36c0.13-0.8,0.62-1.16,1.43-1.37c6.06-1.59,11.96-3.65,17.58-6.43
		c1.34-0.66,2.83-1.07,3.95-2.14c0.72-0.34,1.44-0.67,2.17-1.01c0.16,1.62-0.34,3.2-0.24,4.81
		C174.63,214.24,172.79,215.2,170.96,216.16z"/>
	<path class="st1" d="M80.74,42.91c-0.05,1.25-0.54,2.44-0.48,3.7c0.02,0.38-0.12,0.8,0.24,1.1c-1.23,1.15-2.72,1.93-4.1,2.86
		c-3.24,2.2-6.23,4.69-9.11,7.32c-0.23,0.21-0.46,0.47-0.74,0.6c-0.46,0.22-0.75,1.05-1.21,0.77c-0.51-0.32-0.23-1.11-0.18-1.68
		c0.09-1.14,0.31-2.28,0.45-3.42c0.05-0.45,0.34-0.71,0.64-0.97c4.16-3.54,8.56-6.76,13.22-9.62
		C79.87,43.33,80.31,43.13,80.74,42.91z"/>
	<path class="st1" d="M176.47,213.28c-0.1-1.61,0.4-3.2,0.24-4.81c3.54-2.15,6.99-4.43,10.3-6.92c0.25-0.19,0.51-0.62,0.92-0.36
		c0.42,0.27,0.26,0.68,0.18,1.08c-0.15,0.74-0.38,1.5-0.33,2.23c0.09,1.22-0.38,1.91-1.37,2.61
		C183.21,209.36,179.91,211.42,176.47,213.28z"/>
	<path class="st1" d="M105.42,221.69c-2.34-0.3-4.6-0.99-6.79-1.8c-3.09-1.15-6.2-2.29-9.18-3.74c-0.68-0.33-1.38-0.64-2.05-0.98
		c-1.5-0.74-1.66-1.09-1.33-2.71c0.41-2,0.18-2.39-1.6-3.44c-5.46-3.22-10.81-6.59-15.47-10.94c-1.19-1.11-2.44-2.17-3.69-3.22
		c-0.92-0.77-1.48-1.72-1.74-2.89c-0.11-0.52-0.18-1.03,0.24-1.31c0.45-0.29,0.68,0.28,0.93,0.53c3.51,3.6,7.3,6.9,11.35,9.87
		c3.24,2.37,6.61,4.58,10.17,6.46c1.69,0.89,3.32,1.91,5.11,2.61c1.16,0.45,1.7,1.66,2.44,2.57c0.68,0.83,1.37,1.41,2.39,1.82
		c3.18,1.27,6.49,2.16,9.71,3.3C105.76,219.11,105.59,220.4,105.42,221.69z"/>
	<path class="st3" d="M105.42,221.69c0.17-1.29,0.34-2.59,0.5-3.88c3.34,0.71,6.66,1.49,10.01,2.1c1.83,0.33,3.72,0.32,5.56,0.58
		c3.09,0.43,6.2,0.09,9.3,0.43c2.02,0.22,4.04-0.35,6.08-0.2c0.11,1.39-0.42,2.7-0.48,4.06c-2.58,0.11-5.16,0.31-7.75,0.26
		c-7.53-0.14-14.94-1.14-22.25-2.93C106.06,222.03,105.75,221.83,105.42,221.69z"/>
	<path class="st3" d="M128,33.54c-0.87,0.08-1.42-0.09-0.98-1.15c0.08-0.2,0.01-0.47,0.03-0.71c0.19-1.81,0.63-2.22,2.42-2.22
		c1.58,0,3.17,0,4.75,0c2.79,0.36,5.6,0.49,8.4,0.86c3.71,0.48,7.38,1.13,11.01,2.01c3.01,0.73,5.95,1.69,8.89,2.67
		c-0.06,1.38-0.12,2.76-0.7,4.04c-2.24-0.68-4.47-1.4-6.73-2.04c-4.82-1.37-9.72-2.32-14.72-2.8
		C136.26,33.82,132.14,33.48,128,33.54z"/>
	<path class="st1" d="M161.83,39.05c0.58-1.29,0.64-2.67,0.7-4.04c2.75,0.82,5.33,2.09,7.95,3.23c0.44,0.19,0.68,0.46,0.72,0.98
		c0.07,0.93-0.22,1.81-0.32,2.72c-0.04,0.41-0.39,0.86-0.96,0.57C167.32,41.15,164.47,40.34,161.83,39.05z"/>
</g>
<g>
	<g>
		<path d="M66.14,127.43c-0.72-0.68-1.08-1.75-1.08-3.22v-15.64c0-1.53,0.46-2.71,1.37-3.54c0.92-0.84,2.41-1.25,4.49-1.25
			c2.12,0,3.62,0.42,4.52,1.25c0.9,0.84,1.34,2.02,1.34,3.54v4.45c0,0.23-0.07,0.41-0.21,0.54c-0.14,0.13-0.38,0.19-0.7,0.19H74.1
			c-0.29,0-0.51-0.06-0.67-0.19s-0.24-0.31-0.24-0.54v-4.54c0-0.78-0.15-1.34-0.46-1.69c-0.31-0.35-0.91-0.52-1.8-0.52
			c-0.79,0-1.36,0.17-1.72,0.52s-0.54,0.91-0.54,1.69v15.04c0,0.78,0.16,1.35,0.48,1.71c0.32,0.36,0.86,0.54,1.61,0.54
			c0.86,0,1.49-0.22,1.88-0.65c0.39-0.43,0.59-1.18,0.59-2.25l0.75,3.11h-1.02c-0.18,0.75-0.57,1.35-1.16,1.79
			c-0.59,0.45-1.43,0.67-2.5,0.67C67.92,128.45,66.86,128.11,66.14,127.43z M67.54,136.85c-0.86-0.39-1.47-0.92-1.83-1.58
			c-0.36-0.66-0.54-1.41-0.54-2.25v-1.99c0-0.26,0.07-0.45,0.21-0.56c0.14-0.12,0.36-0.17,0.65-0.17h1.72c0.29,0,0.5,0.06,0.65,0.17
			c0.14,0.12,0.21,0.3,0.21,0.56v1.81c0,0.72,0.18,1.26,0.54,1.62c0.36,0.36,0.95,0.54,1.78,0.54c0.86,0,1.46-0.18,1.8-0.54
			c0.34-0.36,0.51-0.9,0.51-1.62v-16.38h2.64c0.32,0,0.56,0.07,0.7,0.19c0.14,0.13,0.21,0.31,0.21,0.54v15.43
			c0,1.5-0.45,2.67-1.34,3.52c-0.9,0.85-2.4,1.27-4.52,1.27C69.53,137.43,68.4,137.24,67.54,136.85z M71.09,118.74
			c-0.14-0.13-0.22-0.29-0.22-0.5v-1.04c0-0.23,0.07-0.41,0.22-0.54c0.14-0.13,0.36-0.19,0.65-0.19h3.55v2.46h-3.55
			C71.45,118.94,71.23,118.87,71.09,118.74z"/>
		<path d="M83.2,115.81c0.14,0.13,0.22,0.31,0.22,0.54v14.13c0,0.52,0.16,0.93,0.48,1.23c0.32,0.3,0.79,0.45,1.4,0.45
			c0.82,0,1.51-0.26,2.07-0.78c0.56-0.52,0.83-1.33,0.83-2.42v-0.43h0.43v0.65c0,1.84-0.45,3.22-1.34,4.13s-2.06,1.36-3.5,1.36
			c-1.18,0-2.12-0.3-2.82-0.91c-0.7-0.61-1.05-1.53-1.05-2.77v-14.65c0-0.23,0.08-0.41,0.24-0.54c0.16-0.13,0.38-0.19,0.67-0.19
			h1.72C82.84,115.61,83.05,115.68,83.2,115.81z M91.4,115.81c0.16,0.13,0.24,0.31,0.24,0.54v13.35l0.38,3.8
			c0.04,0.26-0.03,0.46-0.19,0.61c-0.16,0.14-0.4,0.22-0.73,0.22H89.6c-0.25,0-0.46-0.06-0.62-0.19c-0.16-0.13-0.24-0.31-0.24-0.54
			v-3.33H88.2v-13.92c0-0.23,0.08-0.41,0.24-0.54c0.16-0.13,0.37-0.19,0.62-0.19h1.67C91.01,115.61,91.24,115.68,91.4,115.81z"/>
		<path d="M95.65,133.85c-0.77-0.52-1.16-1.41-1.16-2.68v-4.8c0-0.66,0.22-1.17,0.67-1.51c0.45-0.35,1.14-0.62,2.07-0.82l5.11-1.04
			v-3.46c0-0.75-0.17-1.29-0.51-1.62c-0.34-0.33-0.91-0.5-1.69-0.5c-0.79,0-1.36,0.18-1.72,0.54c-0.36,0.36-0.54,0.89-0.54,1.58v1.9
			c0,0.17-0.08,0.32-0.24,0.45c-0.16,0.13-0.37,0.19-0.62,0.19h-1.56c-0.25,0-0.46-0.07-0.62-0.19c-0.16-0.13-0.24-0.28-0.24-0.45
			v-1.9c0-0.83,0.21-1.58,0.62-2.23c0.41-0.65,1.04-1.15,1.88-1.51c0.84-0.36,1.89-0.54,3.15-0.54c1.97,0,3.4,0.38,4.28,1.12
			s1.32,1.84,1.32,3.28v9.68l0.32,4.28c0.04,0.2-0.02,0.37-0.16,0.5s-0.36,0.19-0.65,0.19h-1.45c-0.32,0-0.57-0.06-0.73-0.19
			s-0.24-0.31-0.24-0.54V131h-0.21c-0.04,1.07-0.42,1.94-1.16,2.61s-1.73,1.02-2.99,1.02C97.4,134.63,96.42,134.37,95.65,133.85z
			 M101.76,131.51c0.39-0.52,0.59-1.17,0.59-1.95v-4.62l-4.41,0.99v4.67c0,0.58,0.16,1,0.48,1.28c0.32,0.27,0.79,0.41,1.4,0.41
			C100.72,132.29,101.36,132.03,101.76,131.51z"/>
		<path d="M109.29,134.13c-0.14-0.13-0.21-0.31-0.21-0.54v-13.44l-0.38-3.8c-0.04-0.2,0.04-0.37,0.22-0.52
			c0.18-0.14,0.41-0.22,0.7-0.22h1.56c0.29,0,0.5,0.07,0.65,0.19c0.14,0.13,0.22,0.31,0.22,0.54v1.43h0.48v15.82
			c0,0.23-0.07,0.41-0.22,0.54s-0.36,0.19-0.65,0.19h-1.78C109.63,134.32,109.43,134.26,109.29,134.13z M113.29,116.76
			c0.45-0.36,0.92-0.65,1.43-0.86s0.97-0.32,1.4-0.32c0.25,0,0.44,0.05,0.56,0.15c0.12,0.1,0.19,0.25,0.19,0.45v1.3
			c0,0.23-0.07,0.4-0.21,0.52c-0.14,0.12-0.38,0.17-0.7,0.17h-3.71v-0.17C112.5,117.53,112.85,117.12,113.29,116.76z"/>
		<path d="M119.37,133.76c-0.74-0.61-1.1-1.53-1.1-2.77v-12.1c0-1.21,0.37-2.12,1.1-2.72c0.73-0.6,1.68-0.91,2.82-0.91
			c1.47,0,2.64,0.45,3.5,1.34c0.86,0.89,1.29,2.28,1.29,4.15v0.52h-0.43v-0.3c0-1.09-0.29-1.9-0.86-2.42
			c-0.57-0.52-1.26-0.78-2.04-0.78c-0.61,0-1.08,0.15-1.4,0.45c-0.32,0.3-0.48,0.71-0.48,1.23v11.02c0,0.52,0.16,0.93,0.48,1.23
			c0.32,0.3,0.79,0.45,1.4,0.45c0.79,0,1.47-0.26,2.04-0.78c0.57-0.52,0.86-1.33,0.86-2.42v-0.3h0.43v0.52
			c0,1.87-0.43,3.26-1.29,4.15c-0.86,0.89-2.03,1.34-3.5,1.34C121.05,134.67,120.11,134.37,119.37,133.76z M127.34,134.13
			c-0.16-0.13-0.24-0.31-0.24-0.54v-3.33h-0.54v-11.11h0.48c-0.32-3.14-0.48-6.19-0.48-9.16v-1.73c0-0.23,0.08-0.41,0.24-0.54
			c0.16-0.13,0.39-0.19,0.67-0.19h1.67c0.25,0,0.46,0.07,0.62,0.19c0.16,0.13,0.24,0.31,0.24,0.54v21.52l0.32,3.72
			c0.07,0.26,0.03,0.46-0.13,0.61s-0.4,0.22-0.73,0.22h-1.51C127.7,134.32,127.5,134.26,127.34,134.13z"/>
		<path d="M133.52,134.13c-0.16-0.13-0.24-0.31-0.24-0.54v-17.24c0-0.23,0.08-0.41,0.24-0.54c0.16-0.13,0.38-0.19,0.67-0.19h1.72
			c0.29,0,0.51,0.07,0.67,0.19c0.16,0.13,0.24,0.31,0.24,0.54v17.24c0,0.23-0.08,0.41-0.24,0.54c-0.16,0.13-0.39,0.19-0.67,0.19
			h-1.72C133.91,134.32,133.69,134.26,133.52,134.13z M133.63,112.65c-0.16-0.13-0.24-0.31-0.24-0.54v-1.82
			c0-0.23,0.08-0.41,0.24-0.54c0.16-0.13,0.38-0.19,0.67-0.19h1.72c0.29,0,0.5,0.06,0.65,0.19s0.22,0.31,0.22,0.54v1.82
			c0,0.23-0.07,0.41-0.22,0.54s-0.36,0.19-0.65,0.19h-1.72C134.02,112.85,133.79,112.78,133.63,112.65z"/>
		<path d="M140.79,133.85c-0.77-0.52-1.16-1.41-1.16-2.68v-4.8c0-0.66,0.22-1.17,0.67-1.51c0.45-0.35,1.14-0.62,2.07-0.82l5.11-1.04
			v-3.46c0-0.75-0.17-1.29-0.51-1.62c-0.34-0.33-0.91-0.5-1.69-0.5c-0.79,0-1.36,0.18-1.72,0.54c-0.36,0.36-0.54,0.89-0.54,1.58v1.9
			c0,0.17-0.08,0.32-0.24,0.45c-0.16,0.13-0.37,0.19-0.62,0.19h-1.56c-0.25,0-0.46-0.07-0.62-0.19c-0.16-0.13-0.24-0.28-0.24-0.45
			v-1.9c0-0.83,0.21-1.58,0.62-2.23c0.41-0.65,1.04-1.15,1.88-1.51c0.84-0.36,1.89-0.54,3.15-0.54c1.97,0,3.4,0.38,4.28,1.12
			s1.32,1.84,1.32,3.28v9.68l0.32,4.28c0.04,0.2-0.02,0.37-0.16,0.5s-0.36,0.19-0.65,0.19h-1.45c-0.32,0-0.57-0.06-0.73-0.19
			s-0.24-0.31-0.24-0.54V131h-0.21c-0.04,1.07-0.42,1.94-1.16,2.61s-1.73,1.02-2.99,1.02C142.54,134.63,141.56,134.37,140.79,133.85
			z M146.89,131.51c0.39-0.52,0.59-1.17,0.59-1.95v-4.62l-4.41,0.99v4.67c0,0.58,0.16,1,0.48,1.28c0.32,0.27,0.79,0.41,1.4,0.41
			C145.85,132.29,146.5,132.03,146.89,131.51z"/>
		<path d="M154.42,134.13c-0.14-0.13-0.21-0.31-0.21-0.54v-13.4l-0.38-3.8c-0.04-0.23,0.03-0.42,0.19-0.56
			c0.16-0.14,0.4-0.22,0.73-0.22h1.56c0.29,0,0.49,0.07,0.62,0.19c0.12,0.13,0.19,0.31,0.19,0.54v3.33h0.54v13.92
			c0,0.23-0.07,0.41-0.22,0.54s-0.36,0.19-0.65,0.19h-1.78C154.77,134.32,154.57,134.26,154.42,134.13z M162.74,134.13
			c-0.16-0.13-0.24-0.31-0.24-0.54v-14.13c0-0.52-0.18-0.93-0.54-1.23c-0.36-0.3-0.84-0.45-1.45-0.45c-0.83,0-1.51,0.26-2.04,0.78
			s-0.81,1.33-0.81,2.42v0.43h-0.43v-0.65c0-1.84,0.45-3.22,1.34-4.13s2.06-1.36,3.5-1.36c1.15,0,2.08,0.3,2.8,0.91
			c0.72,0.61,1.08,1.51,1.08,2.72v14.69c0,0.23-0.08,0.41-0.24,0.54c-0.16,0.13-0.39,0.19-0.67,0.19h-1.67
			C163.1,134.32,162.9,134.26,162.74,134.13z"/>
		<path d="M170.51,133.52c-1.04-0.73-1.56-1.86-1.56-3.39V119.8c0-1.56,0.52-2.7,1.56-3.44c1.04-0.74,2.44-1.1,4.2-1.1
			c1.79,0,3.21,0.37,4.25,1.1c1.04,0.73,1.56,1.88,1.56,3.44v3.63c0,0.29-0.06,0.52-0.19,0.69c-0.13,0.17-0.35,0.27-0.67,0.3
			l-7.64,1.69v-2.2l5-1.21v-3.07c0-0.81-0.18-1.38-0.54-1.71s-0.95-0.5-1.78-0.5s-1.42,0.17-1.78,0.5s-0.54,0.9-0.54,1.71v10.72
			c0,0.72,0.18,1.25,0.54,1.58c0.36,0.33,0.95,0.5,1.78,0.5s1.42-0.17,1.78-0.5c0.36-0.33,0.54-0.86,0.54-1.58v-2.2
			c0-0.23,0.07-0.41,0.21-0.54s0.36-0.19,0.65-0.19h1.72c0.29,0,0.51,0.06,0.67,0.19s0.24,0.31,0.24,0.54v2.29
			c0,1.38-0.53,2.43-1.59,3.13c-1.06,0.71-2.47,1.06-4.22,1.06C172.95,134.63,171.55,134.26,170.51,133.52z"/>
		<path d="M184.36,133.72c-0.92-0.66-1.37-1.68-1.37-3.07v-2.12c0-0.23,0.08-0.41,0.24-0.54c0.16-0.13,0.37-0.19,0.62-0.19h1.56
			c0.29,0,0.51,0.06,0.67,0.19c0.16,0.13,0.24,0.31,0.24,0.54v2.12c0,0.66,0.18,1.14,0.54,1.45c0.36,0.3,0.95,0.45,1.78,0.45
			c0.79,0,1.36-0.15,1.72-0.45s0.54-0.78,0.54-1.45v-1.99c0-0.63-0.15-1.11-0.46-1.43s-0.91-0.61-1.8-0.86l-2.04-0.65
			c-1.22-0.46-2.12-0.97-2.72-1.53s-0.89-1.39-0.89-2.48v-2.33c0-1.27,0.51-2.25,1.53-2.96s2.43-1.06,4.22-1.06
			c1.79,0,3.19,0.35,4.2,1.06c1,0.71,1.51,1.69,1.51,2.96v2.03c0,0.17-0.08,0.32-0.24,0.45c-0.16,0.13-0.39,0.2-0.67,0.2h-1.61
			c-0.29,0-0.51-0.07-0.67-0.2c-0.16-0.13-0.24-0.28-0.24-0.45v-2.03c0-0.63-0.19-1.11-0.57-1.43s-0.96-0.48-1.75-0.48
			c-0.75,0-1.32,0.16-1.7,0.48c-0.38,0.32-0.56,0.81-0.56,1.47v1.82c0,0.63,0.16,1.09,0.48,1.38c0.32,0.29,0.93,0.59,1.83,0.91
			l2.1,0.65c1.25,0.4,2.16,0.9,2.72,1.49c0.56,0.59,0.83,1.43,0.83,2.53v2.46c0,0.81-0.2,1.51-0.59,2.12
			c-0.39,0.6-1.02,1.08-1.88,1.43c-0.86,0.35-1.94,0.52-3.23,0.52C186.72,134.71,185.28,134.38,184.36,133.72z"/>
	</g>
	<g>
		<path d="M49.85,164.63c-0.99-0.45-1.69-1.08-2.1-1.91c-0.41-0.83-0.62-1.86-0.62-3.08v-24.11c0-1.19,0.21-2.22,0.62-3.08
			c0.41-0.86,1.11-1.52,2.1-1.96s2.33-0.67,4.02-0.67c1.61,0,2.91,0.22,3.9,0.67c0.99,0.45,1.7,1.1,2.14,1.96
			c0.43,0.86,0.65,1.89,0.65,3.08v9.7c0,0.27-0.09,0.46-0.28,0.6c-0.19,0.13-0.44,0.2-0.77,0.2h-2.04c-0.33,0-0.59-0.07-0.77-0.2
			s-0.28-0.33-0.28-0.6v-9.84c0-0.93-0.2-1.59-0.59-1.99c-0.39-0.4-1.04-0.6-1.95-0.6c-1.03,0-1.73,0.2-2.1,0.6
			c-0.37,0.4-0.56,1.06-0.56,1.99v24.41c0,0.86,0.19,1.49,0.56,1.89c0.37,0.4,1.07,0.6,2.1,0.6c0.91,0,1.56-0.2,1.95-0.6
			c0.39-0.4,0.59-1.03,0.59-1.89v-9.89c0-0.26,0.09-0.47,0.28-0.62s0.44-0.22,0.77-0.22h2.04c0.33,0,0.59,0.07,0.77,0.22
			c0.19,0.15,0.28,0.36,0.28,0.62v9.75c0,1.23-0.22,2.25-0.65,3.08c-0.43,0.83-1.14,1.47-2.14,1.91c-0.99,0.45-2.29,0.67-3.9,0.67
			C52.18,165.3,50.84,165.08,49.85,164.63z"/>
		<path d="M64.39,164.73c-0.17-0.15-0.25-0.36-0.25-0.62v-15.46l-0.43-4.38c-0.04-0.23,0.04-0.43,0.25-0.6
			c0.21-0.17,0.47-0.25,0.8-0.25h1.79c0.33,0,0.58,0.07,0.74,0.22s0.25,0.36,0.25,0.62v1.64h0.56v18.2c0,0.27-0.08,0.47-0.25,0.62
			c-0.17,0.15-0.41,0.22-0.74,0.22h-2.04C64.78,164.96,64.55,164.88,64.39,164.73z M69,144.75c0.52-0.41,1.06-0.75,1.64-0.99
			c0.58-0.25,1.11-0.37,1.61-0.37c0.29,0,0.5,0.06,0.65,0.17c0.14,0.12,0.22,0.29,0.22,0.52v1.49c0,0.27-0.08,0.46-0.25,0.6
			c-0.17,0.13-0.43,0.2-0.8,0.2h-4.27v-0.2C68.08,145.63,68.48,145.16,69,144.75z"/>
		<path d="M76.27,164.04c-1.2-0.84-1.79-2.15-1.79-3.9v-11.88c0-1.79,0.6-3.11,1.79-3.95c1.2-0.85,2.81-1.27,4.83-1.27
			c2.06,0,3.69,0.42,4.89,1.27c1.2,0.84,1.79,2.16,1.79,3.95v4.18c0,0.33-0.07,0.6-0.22,0.79c-0.15,0.2-0.4,0.32-0.77,0.35
			l-8.79,1.94v-2.54l5.76-1.39v-3.53c0-0.93-0.21-1.58-0.62-1.96c-0.41-0.38-1.09-0.57-2.04-0.57c-0.95,0-1.63,0.19-2.04,0.57
			c-0.41,0.38-0.62,1.04-0.62,1.96v12.33c0,0.83,0.21,1.43,0.62,1.81c0.41,0.38,1.09,0.57,2.04,0.57c0.95,0,1.63-0.19,2.04-0.57
			c0.41-0.38,0.62-0.99,0.62-1.81v-2.54c0-0.26,0.08-0.47,0.25-0.62c0.17-0.15,0.41-0.22,0.74-0.22h1.98c0.33,0,0.59,0.08,0.77,0.22
			c0.19,0.15,0.28,0.36,0.28,0.62v2.63c0,1.59-0.61,2.79-1.83,3.6c-1.22,0.81-2.84,1.22-4.86,1.22
			C79.08,165.3,77.47,164.88,76.27,164.04z"/>
		<path d="M91.72,164.41c-0.89-0.6-1.33-1.62-1.33-3.08v-5.52c0-0.76,0.26-1.34,0.77-1.74c0.51-0.4,1.31-0.71,2.38-0.95l5.88-1.19
			v-3.98c0-0.86-0.2-1.48-0.59-1.86c-0.39-0.38-1.04-0.57-1.95-0.57c-0.91,0-1.57,0.21-1.98,0.62c-0.41,0.41-0.62,1.02-0.62,1.81
			v2.19c0,0.2-0.09,0.37-0.28,0.52c-0.19,0.15-0.42,0.22-0.71,0.22H91.5c-0.29,0-0.53-0.07-0.71-0.22
			c-0.19-0.15-0.28-0.32-0.28-0.52v-2.19c0-0.96,0.24-1.81,0.71-2.56c0.47-0.75,1.2-1.33,2.17-1.74c0.97-0.41,2.18-0.62,3.62-0.62
			c2.27,0,3.91,0.43,4.92,1.29c1.01,0.86,1.52,2.12,1.52,3.78v11.14l0.37,4.92c0.04,0.23-0.02,0.42-0.19,0.57
			c-0.17,0.15-0.41,0.22-0.74,0.22h-1.67c-0.37,0-0.65-0.07-0.84-0.22s-0.28-0.36-0.28-0.62v-2.98h-0.25
			c-0.04,1.23-0.49,2.23-1.33,3.01c-0.85,0.78-1.99,1.17-3.44,1.17C93.73,165.3,92.6,165,91.72,164.41z M98.74,161.72
			c0.45-0.6,0.68-1.34,0.68-2.24v-5.32l-5.08,1.14v5.37c0,0.66,0.19,1.15,0.56,1.47s0.91,0.47,1.61,0.47
			C97.54,162.62,98.29,162.32,98.74,161.72z"/>
		<path d="M109.36,164.16c-0.85-0.76-1.27-1.97-1.27-3.63v-14.27h-1.73c-0.37,0-0.64-0.08-0.8-0.22c-0.17-0.15-0.25-0.34-0.25-0.57
			v-1.19c0-0.26,0.08-0.47,0.25-0.62s0.43-0.22,0.8-0.22c0.74,0,1.28-0.06,1.61-0.17s0.6-0.36,0.8-0.75
			c0.21-0.38,0.41-1.04,0.62-1.96c0.12-0.3,0.28-0.53,0.46-0.7c0.19-0.17,0.46-0.25,0.84-0.25h0.43c0.37,0,0.63,0.07,0.77,0.22
			c0.14,0.15,0.22,0.36,0.22,0.62v2.98h5.38c0.33,0,0.59,0.07,0.77,0.22s0.28,0.36,0.28,0.62v1.19c0,0.23-0.09,0.42-0.28,0.57
			c-0.19,0.15-0.44,0.22-0.77,0.22h-5.38v14.57c0,0.6,0.14,1.02,0.43,1.27c0.29,0.25,0.7,0.37,1.24,0.37c0.62,0,1.08-0.12,1.39-0.35
			c0.31-0.23,0.46-0.66,0.46-1.29v-4.52c0-0.27,0.09-0.47,0.28-0.62c0.19-0.15,0.44-0.22,0.77-0.22h0.74c0.37,0,0.63,0.08,0.77,0.22
			c0.14,0.15,0.22,0.36,0.22,0.62v4.33c0,1.59-0.4,2.77-1.21,3.53c-0.8,0.76-2.09,1.14-3.87,1.14
			C111.53,165.3,110.2,164.92,109.36,164.16z"/>
		<path d="M121.55,164.73c-0.19-0.15-0.28-0.36-0.28-0.62v-19.84c0-0.26,0.09-0.47,0.28-0.62s0.44-0.22,0.77-0.22h1.98
			c0.33,0,0.59,0.07,0.77,0.22s0.28,0.36,0.28,0.62v19.84c0,0.27-0.09,0.47-0.28,0.62s-0.44,0.22-0.77,0.22h-1.98
			C121.99,164.96,121.73,164.88,121.55,164.73z M121.67,140.02c-0.19-0.15-0.28-0.36-0.28-0.62v-2.09c0-0.26,0.09-0.47,0.28-0.62
			c0.19-0.15,0.44-0.22,0.77-0.22h1.98c0.33,0,0.58,0.07,0.74,0.22c0.16,0.15,0.25,0.36,0.25,0.62v2.09c0,0.27-0.08,0.47-0.25,0.62
			c-0.17,0.15-0.41,0.22-0.74,0.22h-1.98C122.12,140.25,121.86,140.17,121.67,140.02z"/>
		<path d="M131.82,164.71c-0.19-0.17-0.34-0.4-0.46-0.7l-3.53-19.69c-0.08-0.26-0.02-0.48,0.19-0.65c0.21-0.17,0.47-0.25,0.8-0.25
			h1.98c0.33,0,0.6,0.06,0.8,0.17c0.21,0.12,0.33,0.34,0.37,0.67l2.66,17.75h0.99l2.6-17.75c0.04-0.33,0.15-0.55,0.34-0.67
			c0.19-0.12,0.46-0.17,0.84-0.17h1.98c0.37,0,0.65,0.08,0.84,0.25c0.19,0.17,0.28,0.38,0.28,0.65l-3.59,19.69
			c-0.04,0.3-0.17,0.53-0.37,0.7c-0.21,0.17-0.52,0.25-0.93,0.25h-4.95C132.29,164.96,132.01,164.87,131.82,164.71z"/>
		<path d="M145.07,164.73c-0.19-0.15-0.28-0.36-0.28-0.62v-19.84c0-0.26,0.09-0.47,0.28-0.62s0.44-0.22,0.77-0.22h1.98
			c0.33,0,0.59,0.07,0.77,0.22s0.28,0.36,0.28,0.62v19.84c0,0.27-0.09,0.47-0.28,0.62s-0.44,0.22-0.77,0.22h-1.98
			C145.51,164.96,145.25,164.88,145.07,164.73z M145.19,140.02c-0.19-0.15-0.28-0.36-0.28-0.62v-2.09c0-0.26,0.09-0.47,0.28-0.62
			c0.19-0.15,0.44-0.22,0.77-0.22h1.98c0.33,0,0.58,0.07,0.74,0.22c0.16,0.15,0.25,0.36,0.25,0.62v2.09c0,0.27-0.08,0.47-0.25,0.62
			c-0.17,0.15-0.41,0.22-0.74,0.22h-1.98C145.64,140.25,145.38,140.17,145.19,140.02z"/>
		<path d="M153.73,164.31c-0.85-0.7-1.27-1.76-1.27-3.18v-13.92c0-1.39,0.42-2.44,1.27-3.13c0.84-0.7,1.93-1.04,3.25-1.04
			c1.69,0,3.03,0.51,4.02,1.54s1.49,2.62,1.49,4.77v0.6H162v-0.35c0-1.26-0.33-2.19-0.99-2.78s-1.44-0.9-2.35-0.9
			c-0.7,0-1.24,0.17-1.61,0.52s-0.56,0.82-0.56,1.42v12.68c0,0.6,0.19,1.07,0.56,1.42s0.91,0.52,1.61,0.52
			c0.91,0,1.69-0.3,2.35-0.89s0.99-1.52,0.99-2.78v-0.35h0.5v0.6c0,2.15-0.5,3.75-1.49,4.77s-2.33,1.54-4.02,1.54
			C155.66,165.35,154.58,165,153.73,164.31z M162.89,164.73c-0.19-0.15-0.28-0.36-0.28-0.62v-3.83H162V147.5h0.56
			c-0.37-3.61-0.56-7.13-0.56-10.54v-1.99c0-0.26,0.09-0.47,0.28-0.62c0.19-0.15,0.44-0.22,0.77-0.22h1.92
			c0.29,0,0.53,0.07,0.71,0.22c0.19,0.15,0.28,0.36,0.28,0.62v24.76l0.37,4.28c0.08,0.3,0.03,0.53-0.16,0.7
			c-0.19,0.17-0.46,0.25-0.83,0.25h-1.73C163.32,164.96,163.08,164.88,162.89,164.73z"/>
		<path d="M170.63,164.41c-0.89-0.6-1.33-1.62-1.33-3.08v-5.52c0-0.76,0.26-1.34,0.77-1.74c0.51-0.4,1.31-0.71,2.38-0.95l5.88-1.19
			v-3.98c0-0.86-0.2-1.48-0.59-1.86c-0.39-0.38-1.04-0.57-1.95-0.57c-0.91,0-1.57,0.21-1.98,0.62c-0.41,0.41-0.62,1.02-0.62,1.81
			v2.19c0,0.2-0.09,0.37-0.28,0.52c-0.19,0.15-0.42,0.22-0.71,0.22h-1.79c-0.29,0-0.53-0.07-0.71-0.22
			c-0.19-0.15-0.28-0.32-0.28-0.52v-2.19c0-0.96,0.24-1.81,0.71-2.56c0.47-0.75,1.2-1.33,2.17-1.74c0.97-0.41,2.18-0.62,3.62-0.62
			c2.27,0,3.91,0.43,4.92,1.29c1.01,0.86,1.52,2.12,1.52,3.78v11.14l0.37,4.92c0.04,0.23-0.02,0.42-0.19,0.57
			c-0.17,0.15-0.41,0.22-0.74,0.22h-1.67c-0.37,0-0.65-0.07-0.84-0.22s-0.28-0.36-0.28-0.62v-2.98h-0.25
			c-0.04,1.23-0.49,2.23-1.33,3.01c-0.85,0.78-1.99,1.17-3.44,1.17C172.64,165.3,171.52,165,170.63,164.41z M177.66,161.72
			c0.45-0.6,0.68-1.34,0.68-2.24v-5.32l-5.08,1.14v5.37c0,0.66,0.19,1.15,0.56,1.47s0.91,0.47,1.61,0.47
			C176.46,162.62,177.2,162.32,177.66,161.72z"/>
		<path d="M187.22,164.31c-0.85-0.7-1.27-1.76-1.27-3.18v-13.92c0-1.39,0.42-2.44,1.27-3.13c0.84-0.7,1.93-1.04,3.25-1.04
			c1.69,0,3.03,0.51,4.02,1.54s1.49,2.62,1.49,4.77v0.6h-0.5v-0.35c0-1.26-0.33-2.19-0.99-2.78s-1.44-0.9-2.35-0.9
			c-0.7,0-1.24,0.17-1.61,0.52s-0.56,0.82-0.56,1.42v12.68c0,0.6,0.19,1.07,0.56,1.42s0.91,0.52,1.61,0.52
			c0.91,0,1.69-0.3,2.35-0.89s0.99-1.52,0.99-2.78v-0.35h0.5v0.6c0,2.15-0.5,3.75-1.49,4.77s-2.33,1.54-4.02,1.54
			C189.15,165.35,188.06,165,187.22,164.31z M196.38,164.73c-0.19-0.15-0.28-0.36-0.28-0.62v-3.83h-0.62V147.5h0.56
			c-0.37-3.61-0.56-7.13-0.56-10.54v-1.99c0-0.26,0.09-0.47,0.28-0.62c0.19-0.15,0.44-0.22,0.77-0.22h1.92
			c0.29,0,0.53,0.07,0.71,0.22c0.19,0.15,0.28,0.36,0.28,0.62v24.76l0.37,4.28c0.08,0.3,0.03,0.53-0.16,0.7
			c-0.19,0.17-0.46,0.25-0.83,0.25h-1.73C196.8,164.96,196.56,164.88,196.38,164.73z"/>
	</g>
	<g>
		<g>
			<path d="M203.79,112.54l-1.48,10.38h-0.71l0.11-1.5c-0.29,0.5-0.65,0.9-1.05,1.2s-0.88,0.45-1.41,0.45
				c-0.72,0-1.28-0.26-1.69-0.78c-0.4-0.52-0.61-1.23-0.61-2.13c0-0.71,0.12-1.44,0.36-2.17c0.24-0.73,0.62-1.35,1.14-1.86
				s1.19-0.75,1.99-0.75c0.84,0,1.5,0.34,1.96,1.01l0.57-3.96L203.79,112.54z M198.99,116.72c-0.41,0.44-0.71,0.97-0.89,1.61
				c-0.18,0.63-0.27,1.26-0.27,1.88c0,0.71,0.13,1.24,0.41,1.62c0.27,0.37,0.65,0.56,1.13,0.56c0.51,0,0.96-0.17,1.34-0.51
				c0.38-0.34,0.76-0.84,1.15-1.51l0.47-3.22c-0.21-0.34-0.45-0.6-0.73-0.8s-0.62-0.29-1.04-0.29
				C199.92,116.06,199.4,116.28,198.99,116.72z"/>
			<path d="M209.86,119.17c-0.89,0.44-2.16,0.72-3.8,0.84v0.08c0,0.77,0.17,1.34,0.5,1.71c0.34,0.37,0.8,0.55,1.39,0.55
				c0.39,0,0.75-0.06,1.07-0.18c0.33-0.12,0.67-0.3,1.03-0.56l0.37,0.58c-0.4,0.29-0.8,0.51-1.22,0.66s-0.85,0.22-1.32,0.22
				c-0.85,0-1.52-0.26-1.99-0.78c-0.47-0.52-0.71-1.25-0.71-2.19c0-0.74,0.14-1.48,0.41-2.2s0.69-1.33,1.27-1.81
				s1.28-0.72,2.13-0.72c0.69,0,1.23,0.17,1.62,0.5c0.39,0.33,0.58,0.76,0.58,1.28C211.2,118.07,210.75,118.74,209.86,119.17z
				 M206.99,117.04c-0.48,0.65-0.78,1.42-0.89,2.33c1.42-0.11,2.49-0.34,3.19-0.68c0.7-0.34,1.05-0.84,1.05-1.5
				c0-0.32-0.11-0.59-0.34-0.8c-0.23-0.22-0.56-0.32-1.01-0.32C208.13,116.06,207.47,116.39,206.99,117.04z"/>
		</g>
		<g>
			<path d="M201.26,131.37c-0.01,0.05-0.01,0.11-0.01,0.2c0,0.17,0.04,0.29,0.11,0.37c0.08,0.08,0.2,0.12,0.37,0.12
				c0.15,0,0.33-0.04,0.54-0.11l0.18,0.62c-0.29,0.13-0.58,0.2-0.85,0.2c-0.37,0-0.66-0.1-0.86-0.29c-0.21-0.19-0.31-0.48-0.31-0.85
				c0-0.07,0.01-0.19,0.03-0.38l1.28-9.01l0.83-0.11L201.26,131.37z"/>
			<path d="M209.2,125.23c0.37,0.1,0.75,0.25,1.14,0.45l-0.78,5.32c-0.02,0.1-0.03,0.24-0.03,0.42c0,0.2,0.04,0.35,0.11,0.47
				c0.07,0.12,0.19,0.21,0.36,0.29l-0.24,0.58c-0.33-0.08-0.58-0.21-0.75-0.42c-0.17-0.2-0.25-0.51-0.24-0.92
				c-0.29,0.41-0.62,0.74-1.02,0.98c-0.39,0.24-0.82,0.36-1.27,0.36c-0.74,0-1.32-0.26-1.73-0.77s-0.62-1.21-0.62-2.09
				c0-0.73,0.13-1.47,0.4-2.21c0.27-0.74,0.69-1.36,1.26-1.86c0.57-0.5,1.3-0.75,2.17-0.75
				C208.41,125.08,208.83,125.13,209.2,125.23z M206.29,126.39c-0.45,0.43-0.78,0.97-0.98,1.61c-0.2,0.64-0.31,1.27-0.31,1.9
				c0,0.71,0.14,1.25,0.41,1.62c0.28,0.37,0.67,0.55,1.18,0.55c0.45,0,0.85-0.13,1.2-0.39c0.36-0.26,0.7-0.65,1.02-1.16l0.64-4.44
				c-0.46-0.23-0.95-0.34-1.48-0.34C207.3,125.74,206.74,125.96,206.29,126.39z"/>
		</g>
	</g>
	<g>
		<path d="M80.12,104.68c-0.14-0.11-0.21-0.26-0.21-0.46V79.53c0-0.2,0.07-0.35,0.21-0.46c0.14-0.11,0.33-0.17,0.58-0.17h1.52
			c0.28,0,0.48,0.06,0.6,0.17c0.12,0.11,0.18,0.27,0.18,0.46v23.05h3.65c0.28,0,0.48,0.06,0.6,0.17c0.12,0.11,0.18,0.27,0.18,0.46v1
			c0,0.2-0.06,0.35-0.18,0.46c-0.12,0.11-0.32,0.17-0.6,0.17H80.7C80.45,104.85,80.26,104.79,80.12,104.68z"/>
		<path d="M89.84,104.16c-0.89-0.63-1.34-1.6-1.34-2.91v-8.86c0-1.33,0.45-2.32,1.34-2.95c0.89-0.63,2.09-0.95,3.6-0.95
			c1.54,0,2.75,0.31,3.64,0.95c0.89,0.63,1.34,1.61,1.34,2.95v3.11c0,0.25-0.05,0.44-0.16,0.59c-0.11,0.15-0.3,0.23-0.58,0.26
			l-6.55,1.45v-1.89l4.29-1.04v-2.63c0-0.69-0.15-1.18-0.46-1.46c-0.31-0.28-0.82-0.43-1.52-0.43c-0.71,0-1.22,0.14-1.52,0.43
			c-0.31,0.28-0.46,0.77-0.46,1.46v9.19c0,0.62,0.15,1.07,0.46,1.35c0.31,0.28,0.81,0.43,1.52,0.43c0.71,0,1.21-0.14,1.52-0.43
			c0.31-0.28,0.46-0.74,0.46-1.35v-1.89c0-0.2,0.06-0.35,0.18-0.46s0.31-0.17,0.55-0.17h1.48c0.25,0,0.44,0.06,0.58,0.17
			c0.14,0.11,0.21,0.27,0.21,0.46v1.96c0,1.19-0.45,2.08-1.36,2.69c-0.91,0.61-2.12,0.91-3.62,0.91
			C91.93,105.11,90.73,104.79,89.84,104.16z"/>
		<path d="M101.42,110.55c-0.86-0.57-1.29-1.42-1.29-2.56v-1.82c0-0.2,0.07-0.35,0.21-0.46c0.14-0.11,0.33-0.17,0.58-0.17h1.48
			c0.25,0,0.43,0.06,0.55,0.17c0.12,0.11,0.18,0.26,0.18,0.46v1.74c0,0.52,0.15,0.92,0.46,1.2s0.78,0.43,1.43,0.43h1.29
			c0.65,0,1.12-0.13,1.43-0.39c0.31-0.26,0.46-0.65,0.46-1.17v-1.71c0-0.4-0.11-0.7-0.32-0.93c-0.22-0.22-0.63-0.33-1.25-0.33h-2.72
			c-0.95,0-1.69-0.18-2.21-0.54c-0.52-0.36-0.78-0.89-0.78-1.61s0.28-1.29,0.83-1.71s1.38-0.63,2.49-0.63h0.92v0.56
			c-0.71,0-1.22,0.09-1.52,0.26s-0.46,0.41-0.46,0.7v0.15c0,0.25,0.09,0.42,0.28,0.52s0.49,0.15,0.92,0.15h2.81
			c1.29,0,2.28,0.23,2.95,0.69s1.02,1.22,1.02,2.28v2.11c0,1.14-0.46,2-1.36,2.58c-0.91,0.58-2.33,0.87-4.27,0.87
			C103.65,111.41,102.28,111.12,101.42,110.55z M101.74,100.19c-0.83-0.6-1.25-1.53-1.25-2.76v-4.89c0-1.23,0.43-2.17,1.29-2.8
			c0.86-0.63,2.06-0.95,3.6-0.95h5.4c0.25,0,0.43,0.06,0.55,0.17c0.12,0.11,0.18,0.25,0.18,0.43v0.56c0,0.2-0.06,0.35-0.18,0.46
			c-0.12,0.11-0.31,0.17-0.55,0.17h-2.58v0.15c0.83,0.12,1.41,0.41,1.73,0.85c0.32,0.44,0.48,1.01,0.48,1.7v4.34
			c0,1.16-0.43,2.03-1.29,2.61c-0.86,0.58-2.09,0.87-3.69,0.87C103.8,101.1,102.57,100.8,101.74,100.19z M106.91,98.93
			c0.31-0.28,0.46-0.76,0.46-1.43v-4.89c0-0.69-0.15-1.2-0.46-1.54c-0.31-0.33-0.78-0.5-1.43-0.5c-0.71,0-1.21,0.15-1.5,0.45
			c-0.29,0.3-0.44,0.78-0.44,1.45v5.04c0,0.67,0.14,1.14,0.42,1.43c0.28,0.28,0.77,0.43,1.48,0.43
			C106.11,99.36,106.6,99.22,106.91,98.93z"/>
		<path d="M113.48,104.68c-0.14-0.11-0.21-0.26-0.21-0.46V89.43c0-0.2,0.07-0.35,0.21-0.46c0.14-0.11,0.33-0.17,0.58-0.17h1.48
			c0.25,0,0.44,0.06,0.58,0.17s0.21,0.27,0.21,0.46v14.79c0,0.2-0.07,0.35-0.21,0.46s-0.33,0.17-0.58,0.17h-1.48
			C113.81,104.85,113.62,104.79,113.48,104.68z M113.58,86.26c-0.14-0.11-0.21-0.27-0.21-0.46v-1.56c0-0.2,0.07-0.35,0.21-0.46
			c0.14-0.11,0.33-0.17,0.58-0.17h1.48c0.25,0,0.43,0.06,0.55,0.17c0.12,0.11,0.18,0.27,0.18,0.46v1.56c0,0.2-0.06,0.35-0.18,0.46
			c-0.12,0.11-0.31,0.17-0.55,0.17h-1.48C113.91,86.43,113.71,86.37,113.58,86.26z"/>
		<path d="M120.2,104.16c-0.89-0.65-1.34-1.65-1.34-2.98v-8.64c0-1.33,0.45-2.33,1.34-2.98c0.89-0.65,2.11-0.98,3.64-0.98
			s2.75,0.33,3.62,0.98c0.88,0.66,1.31,1.65,1.31,2.98v8.64c0,1.33-0.44,2.33-1.31,2.98c-0.88,0.66-2.08,0.98-3.62,0.98
			S121.09,104.82,120.2,104.16z M125.32,102.64c0.31-0.28,0.46-0.76,0.46-1.43v-8.67c0-0.72-0.15-1.22-0.46-1.5
			c-0.31-0.28-0.8-0.43-1.48-0.43c-0.71,0-1.22,0.14-1.52,0.43c-0.31,0.29-0.46,0.79-0.46,1.5v8.67c0,0.67,0.15,1.14,0.46,1.43
			c0.31,0.28,0.81,0.43,1.52,0.43C124.52,103.07,125.01,102.92,125.32,102.64z M122.73,87c-0.09-0.11-0.08-0.27,0.05-0.46l1.94-2.97
			c0.18-0.27,0.45-0.41,0.78-0.41h1.29c0.28,0,0.46,0.07,0.55,0.2c0.09,0.14,0.08,0.29-0.05,0.46l-2.12,2.96
			c-0.06,0.12-0.16,0.22-0.3,0.28s-0.3,0.09-0.48,0.09h-1.11C123.01,87.17,122.83,87.11,122.73,87z"/>
		<path d="M131.59,104.68c-0.12-0.11-0.18-0.26-0.18-0.46V92.73l-0.32-3.26c-0.03-0.2,0.02-0.36,0.16-0.48
			c0.14-0.12,0.35-0.19,0.62-0.19h1.34c0.25,0,0.42,0.06,0.53,0.17c0.11,0.11,0.16,0.27,0.16,0.46v2.85h0.46v11.93
			c0,0.2-0.06,0.35-0.18,0.46s-0.31,0.17-0.55,0.17h-1.52C131.89,104.85,131.72,104.79,131.59,104.68z M138.72,104.68
			c-0.14-0.11-0.21-0.26-0.21-0.46V92.1c0-0.44-0.15-0.8-0.46-1.06c-0.31-0.26-0.72-0.39-1.25-0.39c-0.71,0-1.29,0.22-1.75,0.67
			c-0.46,0.45-0.69,1.14-0.69,2.08v0.37h-0.37v-0.56c0-1.58,0.38-2.76,1.15-3.54c0.77-0.78,1.77-1.17,3-1.17
			c0.98,0,1.78,0.26,2.4,0.78s0.92,1.3,0.92,2.33v12.6c0,0.2-0.07,0.35-0.21,0.46c-0.14,0.11-0.33,0.17-0.58,0.17h-1.43
			C139.04,104.85,138.86,104.79,138.72,104.68z"/>
		<path d="M143.94,89.78c-0.14-0.11-0.21-0.26-0.21-0.46v-2.3c0-0.22,0.07-0.38,0.21-0.48c0.14-0.1,0.33-0.15,0.58-0.15h1.62
			c0.25,0,0.43,0.05,0.55,0.15c0.12,0.1,0.18,0.26,0.18,0.48v2.3c0,0.2-0.06,0.35-0.18,0.46c-0.12,0.11-0.31,0.17-0.55,0.17h-1.62
			C144.27,89.95,144.07,89.89,143.94,89.78z M143.94,104.68c-0.14-0.11-0.21-0.26-0.21-0.46v-2.3c0-0.22,0.07-0.38,0.21-0.48
			c0.14-0.1,0.33-0.15,0.58-0.15h1.62c0.25,0,0.43,0.05,0.55,0.15c0.12,0.1,0.18,0.26,0.18,0.48v2.3c0,0.2-0.06,0.35-0.18,0.46
			c-0.12,0.11-0.31,0.17-0.55,0.17h-1.62C144.27,104.85,144.07,104.79,143.94,104.68z"/>
	</g>
</g>
<g>
	<g>
		
			<linearGradient id="SVGID_1_" gradientUnits="userSpaceOnUse" x1="7839.1289" y1="1903.7719" x2="7835.8501" y2="1887.6671" gradientTransform="matrix(-1 -2.204448e-03 2.204448e-03 -1 7957.5938 2112.4238)">
			<stop  offset="0" style="stop-color:#FFDD66"/>
			<stop  offset="1" style="stop-color:#FFB532"/>
		</linearGradient>
		<polygon class="st5" points="123.92,177.79 141.08,218.41 116.47,225.02 		"/>
		<path d="M123.92,177.79c5.91,13.13,12.91,26.73,18.5,40.05c0,0,0.65,1.54,0.65,1.54s-1.62,0.44-1.62,0.44
			c-8.66,2.4-18.03,4.85-26.75,7.13C117.28,210.94,121.13,193.51,123.92,177.79L123.92,177.79z M123.92,177.79
			c-1.72,12-2.99,24.21-4.46,35.96c-0.5,3.84-1.05,7.66-1.6,11.5c0,0-1.76-1.59-1.76-1.59c7.96-2.21,16.63-4.58,24.6-6.66
			c0,0-0.97,1.98-0.97,1.98c-1.38-3.28-2.69-6.57-3.97-9.88C131.87,199.09,127.98,187.8,123.92,177.79L123.92,177.79z"/>
	</g>
	<g>
		
			<linearGradient id="SVGID_00000025421071432226414090000000288909866543337093_" gradientUnits="userSpaceOnUse" x1="7991.561" y1="2025.7814" x2="8002.8354" y2="1995.5925" gradientTransform="matrix(-0.919 -8.733869e-03 -4.666229e-03 -0.9262 7455.6245 2136.1902)">
			<stop  offset="0" style="stop-color:#FFDD66"/>
			<stop  offset="1" style="stop-color:#FFB532"/>
		</linearGradient>
		<polygon style="fill:url(#SVGID_00000025421071432226414090000000288909866543337093_);" points="116.23,177.25 104.85,215.52 
			84.51,203.23 		"/>
		<path d="M116.23,177.25c-3.54,13.21-6.58,27.33-10.51,40.47c-6.68-3.97-17.09-10.25-23.71-14.31
			C92.87,194.37,105.1,185.88,116.23,177.25L116.23,177.25z M116.23,177.25c-7.67,6.5-15.75,14.13-23.28,20.69
			c-2.5,2.15-4.97,4.32-7.52,6.42l-0.17-2.36c5.1,3.02,15.29,9.2,20.34,12.3c0,0-2.13,0.82-2.13,0.82c0.94-3.07,1.94-6.11,2.94-9.17
			C109.49,196.71,113.27,186.59,116.23,177.25L116.23,177.25z"/>
	</g>
	<g>
		
			<linearGradient id="SVGID_00000057868029422896929140000003936925074998457529_" gradientUnits="userSpaceOnUse" x1="7818.8833" y1="1910.0198" x2="7805.6558" y2="1894.6124" gradientTransform="matrix(-1 -2.204448e-03 2.204448e-03 -1 7957.5938 2112.4238)">
			<stop  offset="0" style="stop-color:#FFDD66"/>
			<stop  offset="1" style="stop-color:#FFB532"/>
		</linearGradient>
		<polygon style="fill:url(#SVGID_00000057868029422896929140000003936925074998457529_);" points="136.47,182.72 162.68,194.78 
			151.25,208.41 		"/>
		<path d="M136.47,182.72c9.3,3.82,19.36,7.29,28.53,11.52c-4.33,5.23-9.6,11.57-13.98,16.7
			C145.71,201.97,141.26,191.91,136.47,182.72L136.47,182.72z M136.47,182.72c3.81,6.27,8.48,12.82,12.37,18.95
			c1.26,1.99,2.5,3.97,3.67,6.01l-2.38-0.21c3.27-3.97,8.05-9.65,11.44-13.61c0,0,0.5,2.24,0.5,2.24c-2.07-0.99-4.1-2.02-6.14-3.06
			C149.66,189.78,142.88,185.86,136.47,182.72L136.47,182.72z"/>
	</g>
</g>
<g>
	<g class="st8">
		<path d="M110.48,58.85c0,2.76-0.96,5.18-2.87,7.24c-1.92,2.06-4.6,3.09-8.06,3.09c-1.56,0-3.71-0.06-6.44-0.18
			c0.13-2.94,0.2-6.25,0.2-9.94c0-3.54-0.07-6.56-0.2-9.06h2.76c0.45,0,1.13-0.02,2.02-0.05c0.9-0.03,1.48-0.04,1.75-0.04
			c3.8,0,6.56,0.88,8.27,2.63C109.63,54.29,110.48,56.39,110.48,58.85z M106.17,59.47c0-1.87-0.59-3.44-1.77-4.72
			c-1.18-1.28-2.98-1.92-5.4-1.92c-0.45,0-1.08,0.04-1.86,0.13c0.1,1.94,0.16,3.98,0.16,6.1c0,2.32,0.05,4.63,0.16,6.92
			c0.68,0.13,1.37,0.19,2.05,0.19c2.26,0,3.94-0.65,5.03-1.95C105.63,62.92,106.17,61.34,106.17,59.47z"/>
		<path d="M99.55,69.18c-1.57,0-3.74-0.06-6.44-0.17h0l0,0c0.14-2.96,0.2-6.31,0.2-9.94c0-3.49-0.07-6.54-0.2-9.06l0,0h2.77
			c0.41,0,1.01-0.01,2.02-0.05c0.89-0.03,1.48-0.04,1.75-0.04c0.95,0,1.84,0.06,2.66,0.16c0.82,0.11,1.58,0.27,2.26,0.49
			c0.69,0.22,1.32,0.49,1.87,0.82c0.56,0.33,1.05,0.71,1.48,1.15c0.43,0.44,0.8,0.9,1.12,1.38c0.32,0.48,0.59,0.99,0.8,1.51
			c0.21,0.52,0.38,1.08,0.48,1.64c0.11,0.57,0.16,1.16,0.16,1.77c0,0.69-0.06,1.36-0.18,2.01c-0.12,0.64-0.3,1.28-0.54,1.88
			c-0.24,0.6-0.54,1.19-0.9,1.74c-0.36,0.56-0.78,1.1-1.26,1.61c-0.48,0.51-1.01,0.97-1.58,1.35c-0.57,0.38-1.2,0.71-1.87,0.97
			c-0.67,0.26-1.39,0.45-2.16,0.58C101.23,69.12,100.41,69.18,99.55,69.18z M93.11,69c2.7,0.12,4.87,0.17,6.44,0.17
			c3.43,0,6.14-1.04,8.05-3.09c1.91-2.05,2.87-4.49,2.87-7.24c0-2.44-0.86-4.56-2.57-6.31c-1.7-1.74-4.49-2.62-8.27-2.62
			c-0.27,0-0.86,0.01-1.75,0.04c-1.01,0.03-1.61,0.05-2.02,0.05h-2.76c0.14,2.52,0.2,5.57,0.2,9.06C93.32,62.7,93.25,66.04,93.11,69
			z M99.5,66.17c-0.69,0-1.38-0.06-2.05-0.19l0,0l0,0c-0.11-2.28-0.16-4.61-0.16-6.92c0-2.1-0.05-4.15-0.16-6.1v0l0,0
			c0.78-0.09,1.41-0.13,1.86-0.13c1.21,0,2.27,0.16,3.17,0.48c0.45,0.16,0.86,0.36,1.24,0.6c0.37,0.24,0.71,0.52,1,0.84
			c0.59,0.64,1.03,1.36,1.33,2.14c0.29,0.78,0.44,1.65,0.44,2.58c0,0.93-0.14,1.8-0.41,2.59c-0.27,0.79-0.68,1.52-1.23,2.16
			c-0.27,0.32-0.58,0.61-0.93,0.85c-0.34,0.24-0.73,0.45-1.15,0.61C101.63,66.01,100.63,66.17,99.5,66.17z M97.45,65.98
			c0.67,0.12,1.36,0.19,2.05,0.19c2.25,0,3.94-0.65,5.03-1.94c1.09-1.29,1.64-2.89,1.64-4.75c0-1.86-0.59-3.44-1.77-4.72
			c-1.17-1.27-2.99-1.92-5.4-1.92c-0.45,0-1.08,0.04-1.86,0.13c0.1,1.95,0.16,4,0.16,6.1C97.3,61.38,97.35,63.71,97.45,65.98z"/>
	</g>
	<g class="st8">
		<path d="M124.03,69.01h-3.9c0-0.4-1.45-2.51-4.34-6.32c-3.03-4.02-4.76-6.77-5.18-8.25h-0.25c0.26,2.13,0.4,4.06,0.4,5.78
			c0,2.41,0.07,5.33,0.22,8.79h-3.89c0.16-3.02,0.24-6.33,0.24-9.94c0-3.55-0.08-6.57-0.24-9.06h4.69c0,0.52,1.3,2.57,3.9,6.18
			c2.77,3.82,4.36,6.42,4.77,7.78h0.24c-0.25-2.17-0.38-4.11-0.38-5.84c0-2.64-0.07-5.34-0.22-8.12h3.95
			c-0.15,2.41-0.22,5.43-0.22,9.06C123.81,62.72,123.88,66.04,124.03,69.01z"/>
		<path class="st9" d="M124.03,69.01h-3.91v0c0-0.2-0.37-0.83-1.09-1.88c-0.72-1.05-1.81-2.54-3.26-4.44
			c-1.51-2-2.71-3.71-3.57-5.08c-0.86-1.37-1.4-2.44-1.61-3.17h-0.25c0.26,2.12,0.39,4.07,0.39,5.78c0,2.38,0.08,5.34,0.22,8.79v0
			h-3.89v0c0.16-3.01,0.24-6.35,0.24-9.94c0-3.53-0.08-6.58-0.24-9.06v0h4.7v0c0,0.26,0.33,0.91,0.98,1.93
			c0.65,1.02,1.63,2.45,2.93,4.24c1.38,1.9,2.48,3.52,3.27,4.81c0.79,1.29,1.3,2.29,1.5,2.97h0.23c-0.25-2.16-0.38-4.12-0.38-5.83
			c0-2.64-0.07-5.37-0.22-8.12v0h3.95l0,0c-0.15,2.37-0.22,5.42-0.22,9.06C123.81,62.75,123.88,66.09,124.03,69.01L124.03,69.01z
			 M120.13,69h3.9c-0.15-2.91-0.22-6.26-0.22-9.94c0-3.69,0.07-6.66,0.22-9.06h-3.94c0.15,2.74,0.22,5.47,0.22,8.11
			c0,1.71,0.13,3.68,0.38,5.84l0,0h-0.24l0,0c-0.2-0.68-0.71-1.67-1.5-2.97c-0.79-1.29-1.89-2.91-3.27-4.81
			c-1.3-1.79-2.28-3.22-2.93-4.24c-0.65-1.02-0.97-1.67-0.98-1.93h-4.69c0.16,2.48,0.24,5.53,0.24,9.06c0,3.59-0.08,6.93-0.24,9.94
			h3.88c-0.15-3.45-0.22-6.4-0.22-8.79c0-1.71-0.13-3.65-0.4-5.78l0,0h0.26l0,0c0.21,0.73,0.75,1.8,1.61,3.17
			c0.86,1.37,2.06,3.07,3.57,5.08c1.44,1.9,2.54,3.39,3.26,4.44C119.76,68.17,120.13,68.8,120.13,69z"/>
	</g>
	<g class="st8">
		<path d="M139.3,58.85c0,2.76-0.96,5.18-2.87,7.24c-1.92,2.06-4.6,3.09-8.06,3.09c-1.56,0-3.71-0.06-6.44-0.18
			c0.14-2.94,0.2-6.25,0.2-9.94c0-3.54-0.07-6.56-0.2-9.06h2.76c0.45,0,1.13-0.02,2.02-0.04c0.89-0.03,1.48-0.04,1.75-0.04
			c3.8,0,6.56,0.88,8.27,2.63C138.45,54.29,139.3,56.39,139.3,58.85z M134.99,59.47c0-1.87-0.59-3.44-1.77-4.72
			c-1.18-1.28-2.98-1.92-5.4-1.92c-0.45,0-1.08,0.04-1.87,0.13c0.1,1.94,0.16,3.98,0.16,6.1c0,2.33,0.05,4.63,0.16,6.92
			c0.69,0.13,1.37,0.19,2.05,0.19c2.27,0,3.94-0.65,5.03-1.95C134.45,62.92,134.99,61.34,134.99,59.47z"/>
		<path d="M128.37,69.18c-1.57,0-3.74-0.06-6.44-0.17h0v0c0.14-2.93,0.2-6.27,0.2-9.94c0-3.52-0.07-6.57-0.2-9.06l0,0h2.77
			c0.44,0,1.1-0.01,2.02-0.04c0.89-0.03,1.48-0.04,1.75-0.04c0.95,0,1.84,0.06,2.66,0.16c0.82,0.11,1.58,0.27,2.26,0.49
			c0.69,0.22,1.32,0.49,1.87,0.82c0.56,0.33,1.05,0.71,1.48,1.15c0.43,0.44,0.8,0.9,1.12,1.38c0.32,0.48,0.59,0.99,0.8,1.51
			c0.21,0.52,0.37,1.08,0.48,1.64c0.11,0.57,0.16,1.16,0.16,1.77c0,0.69-0.06,1.36-0.18,2.01c-0.12,0.64-0.3,1.28-0.54,1.88
			c-0.24,0.6-0.54,1.19-0.9,1.74c-0.36,0.56-0.78,1.1-1.26,1.61c-0.48,0.51-1.01,0.97-1.58,1.35c-0.57,0.38-1.2,0.71-1.87,0.97
			c-0.67,0.26-1.39,0.45-2.16,0.58C130.06,69.12,129.23,69.18,128.37,69.18z M121.93,69c2.7,0.12,4.87,0.17,6.44,0.17
			c3.44,0,6.14-1.04,8.05-3.09c1.91-2.05,2.87-4.49,2.87-7.24c0-2.44-0.86-4.56-2.56-6.31c-1.71-1.74-4.49-2.62-8.27-2.62
			c-0.27,0-0.86,0.01-1.75,0.04c-0.92,0.03-1.58,0.04-2.02,0.04h-2.76c0.14,2.49,0.2,5.54,0.2,9.06
			C122.14,62.73,122.07,66.07,121.93,69z M128.32,66.17c-0.69,0-1.38-0.06-2.05-0.19l0,0l0,0c-0.1-2.32-0.16-4.65-0.16-6.92
			c0-2.11-0.05-4.16-0.16-6.1l0,0l0,0c0.78-0.09,1.41-0.13,1.87-0.13c1.2,0,2.27,0.16,3.17,0.48c0.45,0.16,0.86,0.36,1.24,0.6
			c0.37,0.24,0.71,0.52,1,0.84c0.59,0.64,1.03,1.36,1.33,2.14c0.29,0.78,0.44,1.65,0.44,2.58c0,0.93-0.14,1.8-0.41,2.59
			c-0.27,0.79-0.68,1.52-1.23,2.16c-0.27,0.32-0.58,0.61-0.93,0.85c-0.34,0.24-0.73,0.45-1.15,0.61
			C130.45,66.01,129.45,66.17,128.32,66.17z M126.27,65.98c0.67,0.12,1.36,0.19,2.05,0.19c2.25,0,3.95-0.65,5.03-1.94
			c1.08-1.29,1.63-2.89,1.63-4.75c0-1.86-0.59-3.45-1.77-4.72c-1.17-1.27-2.99-1.92-5.4-1.92c-0.45,0-1.08,0.04-1.86,0.13
			c0.1,1.94,0.16,3.99,0.16,6.1C126.12,61.34,126.17,63.66,126.27,65.98z"/>
	</g>
	<g class="st8">
		<path d="M152.53,69.01h-5.05c0-0.64-0.48-2.46-1.44-5.46h-7.3c-0.99,2.95-1.48,4.77-1.48,5.46h-4.76c0-0.38,1.23-3.49,3.69-9.34
			c2.46-5.85,3.69-9.07,3.69-9.66h5.97c0,0.55,1.12,3.73,3.34,9.52C151.41,65.32,152.53,68.48,152.53,69.01z M145.23,60.76
			c-1.8-5.02-2.7-7.74-2.7-8.15h-0.25c0,0.38-0.93,3.09-2.8,8.15H145.23z"/>
		<path d="M152.53,69.01h-5.06v0c0-0.32-0.12-0.94-0.36-1.85c-0.24-0.9-0.6-2.12-1.08-3.61h-7.3c-0.98,2.93-1.48,4.76-1.48,5.46v0
			h-4.76v0c0-0.38,1.24-3.52,3.69-9.34c2.45-5.82,3.69-9.07,3.69-9.66v0h5.97v0c0,0.28,0.28,1.22,0.84,2.8
			c0.55,1.57,1.4,3.84,2.51,6.73C151.4,65.29,152.53,68.48,152.53,69.01L152.53,69.01z M147.48,69h5.05c0-0.53-1.13-3.72-3.34-9.48
			c-1.11-2.89-1.95-5.15-2.51-6.73c-0.55-1.58-0.83-2.52-0.84-2.8h-5.96c0,0.3-0.31,1.26-0.92,2.86c-0.61,1.6-1.54,3.89-2.77,6.8
			c-2.44,5.81-3.68,8.95-3.69,9.34h4.75c0-0.69,0.5-2.53,1.48-5.46l0,0h7.3l0,0c0.48,1.49,0.84,2.71,1.08,3.61
			C147.35,68.06,147.48,68.68,147.48,69z M145.24,60.76h-5.76l0,0c1.88-5.1,2.8-7.77,2.8-8.14v0h0.26v0
			C142.53,53.02,143.44,55.77,145.24,60.76L145.24,60.76z M139.48,60.76h5.74c-1.79-4.98-2.7-7.72-2.7-8.14h-0.25
			C142.28,53.01,141.36,55.67,139.48,60.76z"/>
	</g>
</g>
</svg>
