<?xml version="1.0" encoding="utf-8"?>
<!-- Generator: Adobe Illustrator 27.2.0, SVG Export Plug-In . SVG Version: 6.00 Build 0)  -->
<svg version="1.1" id="Juego" xmlns="http://www.w3.org/2000/svg" xmlns:xlink="http://www.w3.org/1999/xlink" x="0px" y="0px"
	 viewBox="0 0 315 88.2" style="enable-background:new 0 0 315 88.2;" xml:space="preserve">
<style type="text/css">
	.st0{fill:url(#SVGID_1_);stroke:#FFFFFF;stroke-width:2;stroke-miterlimit:10;}
	.st1{enable-background:new    ;}
	.st2{fill:#FFFFFF;}
	.elemento-svg{
		cursor: pointer;
	}
</style>
<linearGradient id="SVGID_1_" gradientUnits="userSpaceOnUse" x1="20020.6602" y1="4910.9199" x2="20527.3203" y2="4910.9199" gradientTransform="matrix(1 0 0 1 -20142.8594 -4866.8203)">
	<stop  offset="0" style="stop-color:#C204AF"/>
	<stop  offset="0" style="stop-color:#C103AF"/>
	<stop  offset="0.29" style="stop-color:#9D02C0"/>
	<stop  offset="0.56" style="stop-color:#8401CC"/>
	<stop  offset="0.81" style="stop-color:#7400D3"/>
	<stop  offset="1" style="stop-color:#6F00D6"/>
</linearGradient>
<path class="st0 elemento-svg" d="M277.9,86.6L37.1,87.2c-9.2,0-17.4-5.9-20.3-14.6L2.2,29.3C-2.6,15.4,7.8,1,22.5,1h270
	c14.7,0,25,14.4,20.3,28.3l-14.6,44.3C295.2,82.4,287,86.6,277.9,86.6L277.9,86.6z"/>
<g class="st1">
	<path class="st2 elemento-svg" d="M55.1,56.8h-5l0.9-11.4c0.3-4.3,0.7-8.1,1.2-11.2l-7.6,19.6h-4.9l-2.5-19.5c-0.2,3.1-0.7,6.9-1.7,11.4l-2.1,11
		h-5l5.9-26.9h6.3l2.2,19.1L50,29.8h6.8L55.1,56.8z"/>
	<path class="st2 elemento-svg" d="M74.6,46.8c-2.4,1.2-5.7,2-9.7,2.4c0.1,2.9,1.4,4.3,4,4.3c0.9,0,1.8-0.1,2.7-0.4c0.9-0.3,1.8-0.8,2.7-1.5
		l1.9,3.1c-2.5,1.8-5.1,2.7-7.8,2.7c-2.8,0-4.9-0.8-6.3-2.3c-1.5-1.5-2.2-3.6-2.2-6.3c0-2.1,0.4-4.1,1.2-6.1c0.8-2,2-3.7,3.7-5.1
		c1.7-1.4,3.8-2,6.4-2c1.5,0,2.8,0.2,3.9,0.7c1.1,0.5,1.9,1.2,2.4,2c0.5,0.8,0.8,1.7,0.8,2.7C78.2,43.7,77,45.6,74.6,46.8z
		 M71.2,44.4c1.3-0.8,1.9-1.8,1.9-3.1c0-0.5-0.2-1-0.5-1.5c-0.4-0.4-1-0.6-1.8-0.6c-1.6,0-2.9,0.7-3.8,2c-0.9,1.3-1.5,2.9-1.9,4.8
		C67.9,45.6,69.9,45.1,71.2,44.4z"/>
	<path class="st2 elemento-svg" d="M97.9,36.9c0.8,0.9,1.3,2.1,1.3,3.7c0,0.4,0,0.9-0.1,1.4L97,56.8h-4.9l2-14c0.1-0.5,0.1-0.8,0.1-1
		c0-0.8-0.2-1.3-0.5-1.7c-0.3-0.3-0.7-0.5-1.3-0.5c-1.8,0-3.6,1.8-5.4,5.3l-1.7,11.8h-4.9l2.9-20.6h4.3L87.3,40
		c2-2.9,4.4-4.4,7.1-4.4C95.9,35.6,97.1,36,97.9,36.9z"/>
	<path class="st2 elemento-svg" d="M104.5,56c-0.9-0.9-1.3-2.1-1.3-3.7c0-0.5,0-0.9,0.1-1.4l2.1-14.7h4.9l-2,14.1c-0.1,0.5-0.1,0.9-0.1,1.1
		c0,0.8,0.1,1.3,0.4,1.6c0.3,0.3,0.7,0.5,1.3,0.5c0.9,0,1.8-0.4,2.6-1.1c0.8-0.7,1.6-1.7,2.4-2.9l1.9-13.3h4.9L119,56.8h-4.3
		l0.2-3.4c-1,1.3-2,2.3-3.1,2.9s-2.3,1-3.6,1C106.7,57.4,105.4,56.9,104.5,56z M118.2,24.8l1.6,3.9l-9.1,3.5l-1.1-2.5L118.2,24.8z"
		/>
	<path class="st2 elemento-svg" d="M137.2,36.1h4.3l0,2.4c1.9-2,3.9-3,6.2-3c2,0,3.6,0.7,4.7,2.1c1.1,1.4,1.7,3.4,1.7,6c0,2.2-0.4,4.3-1.1,6.4
		c-0.7,2.1-1.9,3.8-3.6,5.2c-1.6,1.4-3.7,2.1-6.3,2.1c-1.3,0-2.6-0.2-3.8-0.6l-1.2,8l-4.9,0.6L137.2,36.1z M146.3,52.1
		c0.9-1,1.6-2.3,2-3.9c0.4-1.5,0.6-3.1,0.6-4.6c0-2.8-1-4.3-3-4.3c-0.9,0-1.7,0.2-2.4,0.7c-0.7,0.5-1.5,1.1-2.2,1.9l-1.5,11.1
		c1,0.4,2.1,0.5,3.1,0.5C144.3,53.6,145.4,53.1,146.3,52.1z"/>
	<path class="st2 elemento-svg" d="M172,35.9l-1.4,4.8c-0.6-0.2-1.2-0.2-1.7-0.2c-1.2,0-2.3,0.5-3.1,1.6c-0.9,1-1.6,2.6-2.3,4.6l-1.4,10.2H157
		l2.9-20.6h4.3l-0.2,4c0.8-1.5,1.6-2.6,2.7-3.4c1-0.8,2.1-1.2,3.3-1.2C170.6,35.6,171.2,35.7,172,35.9z"/>
	<path class="st2 elemento-svg" d="M179.9,36.1L177,56.8h-4.9l2.9-20.6H179.9z M176.2,31c-0.5-0.5-0.8-1.2-0.8-1.9c0-1,0.3-1.8,1-2.4
		c0.6-0.6,1.5-1,2.4-1c0.8,0,1.5,0.3,2,0.8c0.5,0.5,0.8,1.2,0.8,2c0,0.9-0.3,1.7-1,2.4c-0.7,0.6-1.5,1-2.4,1
		C177.4,31.7,176.7,31.5,176.2,31z"/>
	<path class="st2 elemento-svg" d="M200.4,36.9c0.8,0.9,1.3,2.1,1.3,3.7c0,0.4,0,0.9-0.1,1.4l-2.1,14.7h-4.9l2-14c0.1-0.5,0.1-0.8,0.1-1
		c0-0.8-0.2-1.3-0.5-1.7c-0.3-0.3-0.7-0.5-1.3-0.5c-1.8,0-3.6,1.8-5.4,5.3l-1.7,11.8h-4.9l2.9-20.6h4.3l-0.2,3.8
		c2-2.9,4.4-4.4,7.1-4.4C198.4,35.6,199.6,36,200.4,36.9z"/>
	<path class="st2 elemento-svg" d="M222.6,38l-2.5,3c-0.6-0.5-1.2-0.9-1.8-1.2c-0.6-0.2-1.3-0.3-2-0.3c-2.1,0-3.6,1-4.5,2.9
		c-0.9,1.9-1.4,4.1-1.4,6.5c0,1.5,0.3,2.6,0.9,3.3c0.6,0.7,1.5,1,2.7,1c0.8,0,1.5-0.1,2.1-0.4c0.7-0.2,1.4-0.6,2.3-1.2l1.9,3.3
		c-2.2,1.5-4.4,2.3-6.8,2.3c-2.6,0-4.7-0.8-6.1-2.3c-1.5-1.5-2.2-3.7-2.2-6.4c0-2,0.4-4,1.2-6c0.8-2,2-3.7,3.7-5.1
		c1.7-1.4,3.7-2,6.2-2C218.8,35.6,220.9,36.4,222.6,38z"/>
	<path class="st2 elemento-svg" d="M231.4,36.1l-2.9,20.6h-4.9l2.9-20.6H231.4z M227.7,31c-0.5-0.5-0.8-1.2-0.8-1.9c0-1,0.3-1.8,1-2.4
		c0.6-0.6,1.5-1,2.4-1c0.8,0,1.5,0.3,2,0.8c0.5,0.5,0.8,1.2,0.8,2c0,0.9-0.3,1.7-1,2.4c-0.7,0.6-1.5,1-2.4,1
		C228.9,31.7,228.2,31.5,227.7,31z"/>
	<path class="st2 elemento-svg" d="M237.4,36.1h4.3l0,2.4c1.9-2,3.9-3,6.2-3c2,0,3.6,0.7,4.7,2.1c1.1,1.4,1.7,3.4,1.7,6c0,2.2-0.4,4.3-1.1,6.4
		s-1.9,3.8-3.6,5.2c-1.6,1.4-3.7,2.1-6.3,2.1c-1.3,0-2.6-0.2-3.8-0.6l-1.2,8l-4.9,0.6L237.4,36.1z M246.4,52.1c0.9-1,1.6-2.3,2-3.9
		s0.6-3.1,0.6-4.6c0-2.8-1-4.3-3-4.3c-0.9,0-1.7,0.2-2.4,0.7c-0.7,0.5-1.5,1.1-2.2,1.9l-1.5,11.1c1,0.4,2.1,0.5,3.1,0.5
		C244.4,53.6,245.5,53.1,246.4,52.1z"/>
	<path class="st2 elemento-svg" d="M276.4,37.6l-2,13.8c-0.1,0.5-0.1,0.8-0.1,0.9c0,0.4,0.1,0.8,0.3,1.1s0.5,0.5,0.9,0.7l-1.4,3.3
		c-2.4-0.3-3.8-1.4-4.3-3.4c-1.7,2.3-3.8,3.5-6.2,3.5c-2.1,0-3.7-0.7-4.9-2.2c-1.2-1.5-1.7-3.4-1.7-5.9c0-2.1,0.4-4.3,1.2-6.4
		c0.8-2.1,2-3.9,3.8-5.3c1.7-1.4,3.9-2.1,6.5-2.1C271.2,35.6,273.8,36.2,276.4,37.6z M264.8,40.8c-0.9,1-1.6,2.3-2,3.9
		c-0.4,1.5-0.6,3.1-0.6,4.7c0,2.9,0.9,4.3,2.8,4.3c0.9,0,1.7-0.3,2.4-0.8c0.7-0.6,1.5-1.4,2.3-2.4l1.5-10.5
		c-0.8-0.4-1.8-0.5-2.8-0.5C267,39.2,265.8,39.7,264.8,40.8z"/>
	<path class="st2 elemento-svg" d="M284.7,51.9l0,0.4c0,0.4,0.1,0.6,0.2,0.8c0.2,0.2,0.4,0.2,0.7,0.2c0.3,0,0.7-0.1,1.2-0.2l0.7,3.5
		c-1.1,0.5-2.2,0.7-3.4,0.7c-1.4,0-2.4-0.4-3.2-1.1s-1.1-1.8-1.1-3.3c0-0.5,0-1,0.1-1.3l3.4-23.8l5-0.5L284.7,51.9z"/>
</g>
</svg>
