<?xml version="1.0" encoding="utf-8"?>
<!-- Generator: Adobe Illustrator 27.2.0, SVG Export Plug-In . SVG Version: 6.00 Build 0)  -->
<svg version="1.1" id="Juego" xmlns="http://www.w3.org/2000/svg" xmlns:xlink="http://www.w3.org/1999/xlink" x="0px" y="0px"
	 viewBox="0 0 315 88.2" style="enable-background:new 0 0 315 88.2;" xml:space="preserve">
<style type="text/css">
	.st0{fill:url(#SVGID_1_);stroke:#FFFFFF;stroke-width:2;stroke-miterlimit:10;}
	.st1{enable-background:new    ;}
	.st2{fill:#FFFFFF;}
	.elemento-svg{
		cursor: pointer;
	}
</style>
<linearGradient id="SVGID_1_" gradientUnits="userSpaceOnUse" x1="19225.9297" y1="4815.77" x2="19732.5996" y2="4815.77" gradientTransform="matrix(-1 0 0 -1 19663.1094 4859.8701)">
	<stop  offset="0" style="stop-color:#C204AF"/>
	<stop  offset="0" style="stop-color:#C103AF"/>
	<stop  offset="0.29" style="stop-color:#9D02C0"/>
	<stop  offset="0.56" style="stop-color:#8401CC"/>
	<stop  offset="0.81" style="stop-color:#7400D3"/>
	<stop  offset="1" style="stop-color:#6F00D6"/>
</linearGradient>
<g class="elemento-svg">
	<path class="st0" d="M37.1,2.7L277.9,1c9.2,0,17.4,5.9,20.3,14.6l14.6,43.3c4.7,13.9-5.6,28.3-20.3,28.3h-270
		c-14.7,0-25-14.4-20.3-28.3l14.6-43.3C19.8,6.9,27.9,2.7,37.1,2.7z"/>
	<g class="st1">
		<path class="st2" d="M59.9,31.2L48.2,58.2h-6l-4.3-26.9h5.3l2.6,22.4l8.9-22.4H59.9z"/>
	</g>
	<g class="st1">
		<path class="st2" d="M60.1,56.5c-1.4-1.5-2.2-3.7-2.2-6.4c0-2,0.4-4,1.1-6c0.7-2,1.9-3.7,3.6-5c1.7-1.4,3.8-2,6.4-2
			c2.7,0,4.7,0.8,6.1,2.3c1.4,1.5,2.2,3.7,2.2,6.3c0,2-0.4,4-1.1,6c-0.7,2-1.9,3.7-3.6,5c-1.7,1.4-3.8,2-6.4,2
			C63.6,58.8,61.6,58,60.1,56.5z M70,53.4c0.9-1.1,1.5-2.4,1.8-3.9c0.3-1.5,0.5-3,0.5-4.4c0-2.9-1.2-4.3-3.5-4.3
			c-1.4,0-2.6,0.5-3.4,1.6s-1.5,2.3-1.8,3.8C63.2,47.6,63,49,63,50.4c0,3,1.2,4.5,3.5,4.5C68,55,69.1,54.4,70,53.4z"/>
	</g>
	<g class="st1">
		<path class="st2" d="M85.8,53.3l0,0.4c0,0.4,0.1,0.6,0.2,0.8c0.2,0.2,0.4,0.2,0.7,0.2c0.3,0,0.6-0.1,1.2-0.2l0.7,3.5
			c-1.1,0.5-2.2,0.7-3.4,0.7c-1.4,0-2.4-0.4-3.2-1.1c-0.8-0.7-1.1-1.8-1.1-3.3c0-0.5,0-1,0.1-1.3l3.4-23.8l5-0.5L85.8,53.3z"/>
	</g>
	<g class="st1">
		<path class="st2" d="M110.5,37.5L101,58.2h-5.9l-3.9-20.6h5.3l2,16.6l6.7-16.6H110.5z"/>
	</g>
	<g class="st1">
		<path class="st2" d="M125.1,48.2c-2.4,1.2-5.7,2-9.7,2.4c0.1,2.9,1.4,4.3,4,4.3c0.9,0,1.8-0.1,2.7-0.4c0.9-0.3,1.8-0.8,2.7-1.5
			l1.9,3.1c-2.5,1.8-5.1,2.7-7.8,2.7c-2.8,0-4.9-0.8-6.3-2.3c-1.5-1.5-2.2-3.6-2.2-6.3c0-2.1,0.4-4.1,1.2-6.1c0.8-2,2-3.7,3.7-5.1
			c1.7-1.4,3.8-2,6.4-2c1.5,0,2.8,0.2,3.9,0.7c1.1,0.5,1.9,1.2,2.4,2c0.5,0.8,0.8,1.7,0.8,2.7C128.7,45.1,127.5,47,125.1,48.2z
			M121.7,45.7c1.3-0.8,1.9-1.8,1.9-3.1c0-0.5-0.2-1-0.5-1.5c-0.4-0.4-1-0.6-1.8-0.6c-1.6,0-2.9,0.7-3.8,2c-0.9,1.3-1.5,2.9-1.9,4.8
			C118.4,47,120.4,46.5,121.7,45.7z"/>
		<path class="st2" d="M145.8,37.3l-1.4,4.8c-0.6-0.2-1.2-0.2-1.7-0.2c-1.2,0-2.3,0.5-3.1,1.6c-0.9,1-1.6,2.6-2.3,4.6l-1.4,10.2h-4.9
			l2.9-20.6h4.3l-0.2,4c0.8-1.5,1.6-2.6,2.7-3.4c1-0.8,2.1-1.2,3.3-1.2C144.4,37,145.1,37.1,145.8,37.3z"/>
		<path class="st2" d="M174.6,38.9l-2,13.8c-0.1,0.5-0.1,0.8-0.1,0.9c0,0.4,0.1,0.8,0.3,1.1s0.5,0.5,0.9,0.7l-1.4,3.3
			c-2.4-0.3-3.8-1.4-4.3-3.4c-1.7,2.3-3.8,3.5-6.2,3.5c-2.1,0-3.7-0.7-4.9-2.2c-1.2-1.5-1.7-3.4-1.7-5.9c0-2.1,0.4-4.3,1.2-6.4
			c0.8-2.1,2-3.9,3.8-5.3c1.7-1.4,3.9-2.1,6.5-2.1C169.5,37,172.1,37.6,174.6,38.9z M163.1,42.2c-0.9,1-1.6,2.3-2,3.9
			c-0.4,1.5-0.6,3.1-0.6,4.7c0,2.9,0.9,4.3,2.8,4.3c0.9,0,1.7-0.3,2.4-0.8c0.7-0.6,1.5-1.4,2.3-2.4l1.5-10.5
			c-0.8-0.4-1.8-0.5-2.8-0.5C165.3,40.6,164.1,41.1,163.1,42.2z"/>
		<path class="st2" d="M182.2,63.1c1.1-0.5,1.9-0.9,2.6-1.4s1.2-1.1,1.6-1.9s0.7-1.9,0.9-3.2l2.7-19h4.9l-2.7,18.9
			c-0.3,2-0.8,3.7-1.6,5s-1.7,2.3-2.8,3.1c-1.1,0.8-2.6,1.5-4.4,2.2L182.2,63.1z M191.2,32.4c-0.5-0.5-0.8-1.2-0.8-1.9
			c0-1,0.3-1.8,1-2.4c0.6-0.6,1.5-1,2.4-1c0.8,0,1.5,0.3,2,0.8c0.5,0.5,0.8,1.2,0.8,2c0,0.9-0.3,1.7-1,2.4c-0.7,0.6-1.5,1-2.4,1
			C192.4,33.1,191.7,32.9,191.2,32.4z"/>
		<path class="st2" d="M199.7,57.4c-0.9-0.9-1.3-2.1-1.3-3.7c0-0.5,0-0.9,0.1-1.4l2.1-14.7h4.9l-2,14.1c-0.1,0.5-0.1,0.9-0.1,1.1
			c0,0.8,0.1,1.3,0.4,1.6c0.3,0.3,0.7,0.5,1.3,0.5c0.9,0,1.8-0.4,2.6-1.1c0.8-0.7,1.6-1.7,2.4-2.9l1.9-13.3h4.9l-2.9,20.6h-4.3
			l0.2-3.4c-1,1.3-2,2.3-3.1,2.9s-2.3,1-3.6,1C201.8,58.8,200.6,58.3,199.7,57.4z"/>
		<path class="st2" d="M239.6,38.9l-2.7,18.1c-0.5,3.4-1.6,5.9-3.3,7.4c-1.7,1.5-4,2.3-7,2.3c-1.2,0-2.5-0.2-3.8-0.6
			c-1.3-0.4-2.5-0.9-3.6-1.6l1.7-3.5c0.9,0.5,1.8,0.9,2.7,1.2c1,0.3,1.9,0.4,2.9,0.4c1.5,0,2.7-0.4,3.6-1.1c1-0.7,1.6-2.1,1.9-4.2
			l0.3-2.3c-0.8,0.9-1.6,1.6-2.6,2.1c-1,0.5-2,0.8-3.1,0.8c-2.1,0-3.7-0.7-4.9-2.1c-1.2-1.4-1.8-3.3-1.8-5.7c0-2.2,0.4-4.3,1.2-6.3
			c0.8-2,2.1-3.7,3.8-5c1.7-1.3,3.9-2,6.6-2C234.4,37,237.1,37.6,239.6,38.9z M228,42.1c-1,1-1.7,2.2-2.1,3.6c-0.4,1.5-0.7,3-0.7,4.5
			c0,1.5,0.3,2.5,0.8,3.2c0.5,0.7,1.2,1,2.1,1c0.9,0,1.7-0.3,2.5-0.9c0.8-0.6,1.5-1.4,2.3-2.4l1.6-9.9c-0.5-0.2-1-0.4-1.4-0.4
			c-0.4-0.1-0.9-0.1-1.5-0.1C230.1,40.6,228.9,41.1,228,42.1z"/>
		<path class="st2" d="M261.9,38.9l-2,13.8c-0.1,0.5-0.1,0.8-0.1,0.9c0,0.4,0.1,0.8,0.3,1.1s0.5,0.5,0.9,0.7l-1.4,3.3
			c-2.4-0.3-3.8-1.4-4.3-3.4c-1.7,2.3-3.8,3.5-6.2,3.5c-2.1,0-3.7-0.7-4.9-2.2c-1.2-1.5-1.7-3.4-1.7-5.9c0-2.1,0.4-4.3,1.2-6.4
			c0.8-2.1,2-3.9,3.8-5.3c1.7-1.4,3.9-2.1,6.5-2.1C256.7,37,259.3,37.6,261.9,38.9z M250.4,42.2c-0.9,1-1.6,2.3-2,3.9
			c-0.4,1.5-0.6,3.1-0.6,4.7c0,2.9,0.9,4.3,2.8,4.3c0.9,0,1.7-0.3,2.4-0.8c0.7-0.6,1.5-1.4,2.3-2.4l1.5-10.5
			c-0.8-0.4-1.8-0.5-2.8-0.5C252.5,40.6,251.3,41.1,250.4,42.2z"/>
		<path class="st2" d="M279.9,37.3l-1.4,4.8c-0.6-0.2-1.2-0.2-1.7-0.2c-1.2,0-2.3,0.5-3.1,1.6c-0.9,1-1.6,2.6-2.3,4.6l-1.4,10.2h-4.9
			l2.9-20.6h4.3l-0.2,4c0.8-1.5,1.6-2.6,2.7-3.4c1-0.8,2.1-1.2,3.3-1.2C278.5,37,279.2,37.1,279.9,37.3z"/>
	</g>
</g>
</svg>
