<?xml version="1.0" encoding="UTF-8"?>
<svg id="Juego" xmlns="http://www.w3.org/2000/svg" xmlns:xlink="http://www.w3.org/1999/xlink" viewBox="0 0 129.05 130.98">
  <defs>
    <filter id="outer-glow-1" filterUnits="userSpaceOnUse">
      <feOffset dx="0" dy="0"/>
      <feGaussianBlur result="blur" stdDeviation="4"/>
      <feFlood flood-color="#43fff1" flood-opacity="1"/>
      <feComposite in2="blur" operator="in"/>
      <feComposite in="SourceGraphic"/>
    </filter>
    <filter id="outer-glow-2" filterUnits="userSpaceOnUse">
      <feOffset dx="0" dy="0"/>
      <feGaussianBlur result="blur-2" stdDeviation="4"/>
      <feFlood flood-color="#43fff1" flood-opacity="1"/>
      <feComposite in2="blur-2" operator="in"/>
      <feComposite in="SourceGraphic"/>
    </filter>
    <filter id="outer-glow-3" filterUnits="userSpaceOnUse">
      <feOffset dx="0" dy="0"/>
      <feGaussianBlur result="blur-3" stdDeviation="4"/>
      <feFlood flood-color="#43fff1" flood-opacity="1"/>
      <feComposite in2="blur-3" operator="in"/>
      <feComposite in="SourceGraphic"/>
    </filter>
    <filter id="outer-glow-4" filterUnits="userSpaceOnUse">
      <feOffset dx="0" dy="0"/>
      <feGaussianBlur result="blur-4" stdDeviation="6"/>
      <feFlood flood-color="#43fff1" flood-opacity="1"/>
      <feComposite in2="blur-4" operator="in"/>
      <feComposite in="SourceGraphic"/>
    </filter>
    <filter id="outer-glow-5" filterUnits="userSpaceOnUse">
      <feOffset dx="0" dy="0"/>
      <feGaussianBlur result="blur-5" stdDeviation="6"/>
      <feFlood flood-color="#43fff1" flood-opacity="1"/>
      <feComposite in2="blur-5" operator="in"/>
      <feComposite in="SourceGraphic"/>
    </filter>
    <clipPath id="clippath">
      <polygon points="2364.9 990.03 1992.67 990.03 1992.67 465.47 2374.9 465.47 2364.9 990.03" style="fill: none;"/>
    </clipPath>
    <clipPath id="clippath-1">
      <polygon points="2387.94 985.63 1878.81 985.4 1781.22 916.95 1683.62 985.32 1657.19 985.3 1647.03 985.3 985.91 985 985.91 300.53 2387.94 301.17 2387.94 985.63" style="fill: none;"/>
    </clipPath>
  </defs>
  <g>
    <g>
      <g>
        <path d="m94.47,112.37c25.16-15.45,33.03-48.38,17.58-73.55l-2.39-3.89C94.2,9.76,61.27,1.89,36.11,17.35,10.94,32.8,3.07,65.73,18.53,90.9l2.39,3.89c1.3,2.12,2.74,4.11,4.27,5.98l-1.74,21.17,18.51-7.61c16.08,8.28,35.97,8.2,52.51-1.96Z" style="fill: #fff;"/>
        <g>
          <g>
            <g>
              <g style="filter: url(#outer-glow-1);">
                <path d="m94.02,112.7c25.28-15.53,33.19-48.61,17.66-73.9l-2.4-3.91C93.75,9.61,60.67,1.7,35.39,17.23,10.1,32.76,2.2,65.84,17.72,91.12l2.4,3.91c1.31,2.13,2.75,4.13,4.29,6.01l-1.75,21.27,18.6-7.65c16.16,8.32,36.14,8.23,52.75-1.97Z" style="fill: none; stroke: #69fff4; stroke-miterlimit: 10;"/>
                <path d="m94.02,112.7c25.28-15.53,33.19-48.61,17.66-73.9l-2.4-3.91C93.75,9.61,60.67,1.7,35.39,17.23,10.1,32.76,2.2,65.84,17.72,91.12l2.4,3.91c1.31,2.13,2.75,4.13,4.29,6.01l-1.75,21.27,18.6-7.65c16.16,8.32,36.14,8.23,52.75-1.97Z" style="fill: none; stroke: #fff; stroke-miterlimit: 10; stroke-width: .5px;"/>
              </g>
              <g style="filter: url(#outer-glow-2);">
                <path d="m94.02,112.7c25.28-15.53,33.19-48.61,17.66-73.9l-2.4-3.91C93.75,9.61,60.67,1.7,35.39,17.23,10.1,32.76,2.2,65.84,17.72,91.12l2.4,3.91c1.31,2.13,2.75,4.13,4.29,6.01l-1.75,21.27,18.6-7.65c16.16,8.32,36.14,8.23,52.75-1.97Z" style="fill: none; stroke: #69fff4; stroke-miterlimit: 10;"/>
                <path d="m94.02,112.7c25.28-15.53,33.19-48.61,17.66-73.9l-2.4-3.91C93.75,9.61,60.67,1.7,35.39,17.23,10.1,32.76,2.2,65.84,17.72,91.12l2.4,3.91c1.31,2.13,2.75,4.13,4.29,6.01l-1.75,21.27,18.6-7.65c16.16,8.32,36.14,8.23,52.75-1.97Z" style="fill: none; stroke: #fff; stroke-miterlimit: 10; stroke-width: .5px;"/>
              </g>
              <g style="filter: url(#outer-glow-3);">
                <path d="m94.02,112.7c25.28-15.53,33.19-48.61,17.66-73.9l-2.4-3.91C93.75,9.61,60.67,1.7,35.39,17.23,10.1,32.76,2.2,65.84,17.72,91.12l2.4,3.91c1.31,2.13,2.75,4.13,4.29,6.01l-1.75,21.27,18.6-7.65c16.16,8.32,36.14,8.23,52.75-1.97Z" style="fill: none; stroke: #69fff4; stroke-miterlimit: 10;"/>
                <path d="m94.02,112.7c25.28-15.53,33.19-48.61,17.66-73.9l-2.4-3.91C93.75,9.61,60.67,1.7,35.39,17.23,10.1,32.76,2.2,65.84,17.72,91.12l2.4,3.91c1.31,2.13,2.75,4.13,4.29,6.01l-1.75,21.27,18.6-7.65c16.16,8.32,36.14,8.23,52.75-1.97Z" style="fill: none; stroke: #fff; stroke-miterlimit: 10; stroke-width: .5px;"/>
              </g>
            </g>
            <g>
              <path d="m94.02,112.7c25.28-15.53,33.19-48.61,17.66-73.9l-2.4-3.91C93.75,9.61,60.67,1.7,35.39,17.23,10.1,32.76,2.2,65.84,17.72,91.12l2.4,3.91c1.31,2.13,2.75,4.13,4.29,6.01l-1.75,21.27,18.6-7.65c16.16,8.32,36.14,8.23,52.75-1.97Z" style="fill: none; stroke: #69fff4; stroke-miterlimit: 10;"/>
              <path d="m94.02,112.7c25.28-15.53,33.19-48.61,17.66-73.9l-2.4-3.91C93.75,9.61,60.67,1.7,35.39,17.23,10.1,32.76,2.2,65.84,17.72,91.12l2.4,3.91c1.31,2.13,2.75,4.13,4.29,6.01l-1.75,21.27,18.6-7.65c16.16,8.32,36.14,8.23,52.75-1.97Z" style="fill: none; stroke: #fff; stroke-miterlimit: 10; stroke-width: .5px;"/>
            </g>
          </g>
          <g>
            <g style="filter: url(#outer-glow-4);">
              <path d="m94.02,112.7c25.28-15.53,33.19-48.61,17.66-73.9l-2.4-3.91C93.75,9.61,60.67,1.7,35.39,17.23,10.1,32.76,2.2,65.84,17.72,91.12l2.4,3.91c1.31,2.13,2.75,4.13,4.29,6.01l-1.75,21.27,18.6-7.65c16.16,8.32,36.14,8.23,52.75-1.97Z" style="fill: none; stroke: #69fff4; stroke-miterlimit: 10;"/>
              <path d="m94.02,112.7c25.28-15.53,33.19-48.61,17.66-73.9l-2.4-3.91C93.75,9.61,60.67,1.7,35.39,17.23,10.1,32.76,2.2,65.84,17.72,91.12l2.4,3.91c1.31,2.13,2.75,4.13,4.29,6.01l-1.75,21.27,18.6-7.65c16.16,8.32,36.14,8.23,52.75-1.97Z" style="fill: none; stroke: #fff; stroke-miterlimit: 10; stroke-width: .5px;"/>
            </g>
            <g style="filter: url(#outer-glow-5);">
              <path d="m94.02,112.7c25.28-15.53,33.19-48.61,17.66-73.9l-2.4-3.91C93.75,9.61,60.67,1.7,35.39,17.23,10.1,32.76,2.2,65.84,17.72,91.12l2.4,3.91c1.31,2.13,2.75,4.13,4.29,6.01l-1.75,21.27,18.6-7.65c16.16,8.32,36.14,8.23,52.75-1.97Z" style="fill: none; stroke: #69fff4; stroke-miterlimit: 10;"/>
              <path d="m94.02,112.7c25.28-15.53,33.19-48.61,17.66-73.9l-2.4-3.91C93.75,9.61,60.67,1.7,35.39,17.23,10.1,32.76,2.2,65.84,17.72,91.12l2.4,3.91c1.31,2.13,2.75,4.13,4.29,6.01l-1.75,21.27,18.6-7.65c16.16,8.32,36.14,8.23,52.75-1.97Z" style="fill: none; stroke: #fff; stroke-miterlimit: 10; stroke-width: .5px;"/>
            </g>
          </g>
        </g>
      </g>
      <path d="m93.38,112.07c6.32-3.81,11.85-8.98,15.93-15.14.34-.46.78-1.2,1.08-1.69.35-.57.71-1.14,1.02-1.73.28-.52.69-1.25.95-1.77l.87-1.81.11-.23c.48-1.13,1-2.33,1.4-3.49,1.72-4.68,2.7-9.68,2.94-14.65.06-.63.05-2.32.06-2.99,0-.56-.05-1.42-.07-1.99l-.02-.5v-.25s-.03-.25-.03-.25l-.09-.99c-.4-4.44-1.43-8.81-3-12.97-1.23-3.19-2.8-6.32-4.64-9.2-.16-.29-2.34-3.62-2.45-3.81-.39-.58-.98-1.44-1.37-2.02-.56-.75-1.18-1.6-1.77-2.32-.24-.29-1.34-1.6-1.57-1.85-.51-.54-1.14-1.24-1.66-1.77-.68-.65-1.39-1.39-2.1-2-.25-.22-.85-.75-1.09-.96-.19-.19-1.63-1.31-1.88-1.52-.42-.35-1.11-.8-1.56-1.14-.43-.33-1.13-.78-1.59-1.08-.54-.35-1.07-.71-1.63-1.02-12.86-7.72-28.97-9.22-42.99-3.84-.41.15-1.14.45-1.54.6l-.21.1-.86.39c-1.16.49-2.27,1.08-3.38,1.65-.56.33-1.91,1.07-2.44,1.42-.39.25-1.19.76-1.59,1.01-.45.3-1.09.78-1.54,1.08-.22.15-.56.39-.76.55-.51.41-1.73,1.34-2.2,1.77-.41.36-1.01.88-1.41,1.24-.34.32-1.02.98-1.36,1.3-.67.65-1.3,1.36-1.95,2.04-.25.28-1.3,1.53-1.53,1.78-.2.26-.66.85-.87,1.11-.55.68-1.15,1.57-1.66,2.28-3.7,5.44-6.33,11.68-7.6,18.14-.1.52-.28,1.34-.34,1.86l-.28,1.87c-.05.4-.2,2-.23,2.36-.03.72-.1,1.65-.12,2.37,0,.92-.04,1.94.02,2.85l.04.95c.19,4.1.96,8.25,2.16,12.18.15.54.44,1.28.61,1.82.17.54.47,1.27.68,1.79.13.35.41,1.01.54,1.34.19.43.81,1.75,1.01,2.18.54,1.03,1.26,2.44,1.84,3.46.56.98,1.38,2.52,1.95,3.48.98,1.68,2.05,3.29,3.21,4.85l.5.66-.09.7-2.57,20.27-1.68-1.26c5.67-2.05,12.42-4.5,18.08-6.59l.31-.11.26.15c4.25,2.4,8.89,4.17,13.68,5.23,12.33,2.79,25.65.61,36.48-5.91h0Zm.18.72c-10.87,6.56-23.43,9.35-35.91,7.02-4.91-.9-12.19-3.43-16.68-5.67l.57.03c-5.54,2.36-11.16,4.51-16.69,6.91l-1.81.78.13-2.05,1.89-19.87.41,1.36c-.9-1.06-1.77-2.15-2.59-3.28-.82-1.09-1.58-2.3-2.32-3.45-1.03-1.61-2.29-3.57-3.27-5.23-12.01-21.16-8.06-47.93,9.56-64.77,3.6-3.48,7.76-6.41,12.17-8.77,1.28-.64,2.56-1.29,3.89-1.83.19-.08,1.06-.46,1.23-.53l.25-.09.5-.19c5.32-2.03,11.04-3.21,16.74-3.43.6-.05,1.53-.05,2.14-.04.21,0,1.15,0,1.34,0h.27s.53.04.53.04c9.9.37,19.7,3.61,27.88,9.19.59.38,1.15.81,1.72,1.22.5.35,1.21.9,1.67,1.29.48.39,1.16.94,1.62,1.35.31.27,1.68,1.51,1.94,1.78.25.24.86.87,1.11,1.11.73.7,1.45,1.56,2.13,2.31.53.6,1.15,1.4,1.66,2.02.26.3,1.3,1.76,1.56,2.1.58.81,1.18,1.77,1.73,2.6.38.64.94,1.6,1.32,2.24l.25.44,1.96,3.53c1.73,3.16,3.18,6.53,4.26,9.97.21.76.51,1.72.71,2.48,5.86,22.74-3.74,47.42-23.86,59.43h0Z" style="fill: #ff51ff;"/>
    </g>
    <g>
      <path d="m71.35,90.28c0,.25-.26.41-.48.3-.5-.24-.94-.46-1.37-.7-7.03-3.94-14.05-7.92-21.1-11.82-.91-.51-1.3-1.04-1.29-2.11.04-6.98,0-13.96.05-20.95,0-.61.37-1.48.85-1.79,7.59-4.9,15.23-9.73,22.86-14.57.01,0,.02-.01.04-.02.21-.09.45.08.45.31v51.34Z" style="fill: #002f70;"/>
      <path d="m43.65,53.61c0,8.16,0,16.07,0,24.1-2.63,0-5.17.14-7.69-.04-1.92-.14-3.52-2.05-3.54-4.03-.06-5.22-.06-10.44,0-15.65.03-2.34,1.83-4.17,4.32-4.34,2.23-.15,4.47-.03,6.91-.03Z" style="fill: #002f70;"/>
      <path d="m100.7,63.24c-.55,6.93-2.82,12.77-6.3,18.03-1.42,2.14-3.02,4.11-4.58,6.12-1,1.28-2.16,2.44-3.55.75-1.32-1.6-.2-2.7.68-3.98,2.42-3.5,5.14-6.84,7-10.74,4.32-9.07,2.66-18.28-4.19-25.91-.91-1.02-1.94-1.9-2.91-2.84-.94-.9-1.68-1.9-.8-3.35.89-1.46,2.07-1.31,3.14-.4,3.87,3.29,7.19,7.23,9.04,12.45,1.11,3.14,1.67,6.56,2.48,9.85Z" style="fill: #002f70;"/>
      <path d="m87.69,63.56c.16,5.32-2.15,9.72-5.18,13.85-.93,1.26-2.1,1.64-3.4.67-1.34-.99-1.04-2.18-.3-3.49,1.34-2.35,2.94-4.65,3.72-7.19,1.55-5.09.28-9.8-3.21-13.82-1.11-1.28-1.8-2.59-.37-3.86,1.55-1.37,2.89-.42,3.99.91,3.11,3.75,4.91,7.98,4.75,12.92Z" style="fill: #002f70;"/>
    </g>
  </g>
  <g style="clip-path: url(#clippath);">
    <g style="clip-path: url(#clippath-1);">
      <g id="Doble_p치gina_9-10.psb" data-name="Doble p치gina 9-10.psb">
        <image id="Doble_p치gina_9-10" data-name="Doble p치gina 9-10" width="9242" height="6140" transform="translate(-1693.26 -1619.27) scale(.54)" xlink:href="explicacion_izquierdo1.png"/>
      </g>
    </g>
  </g>
  <rect x="-3222.13" y="-51.84" width="5844.88" height="3268.04" style="fill: none; stroke: #edff00; stroke-miterlimit: 10; stroke-width: 4px;"/>
</svg>