<?xml version="1.0" encoding="utf-8"?>
<!-- Generator: Adobe Illustrator 27.2.0, SVG Export Plug-In . SVG Version: 6.00 Build 0)  -->
<svg version="1.1" id="Juego" xmlns="http://www.w3.org/2000/svg" xmlns:xlink="http://www.w3.org/1999/xlink" x="0px" y="0px"
	 viewBox="0 0 129.1 131" style="enable-background:new 0 0 129.1 131;" xml:space="preserve">
<style type="text/css">
	.st0{fill:#FFFFFF;}
	.st1{fill:none;stroke:#69FFF4;stroke-miterlimit:10;}
	.st2{fill:none;stroke:#FFFFFF;stroke-width:0.5;stroke-miterlimit:10;}
	.st3{fill:#FF51FF;}
	.st4{fill:#002F70;}
</style>
<g>
	<g>
		<g>
			<path class="st0" d="M94.5,112.4c25.2-15.4,33-48.4,17.6-73.6l-2.4-3.9C94.2,9.8,61.3,1.9,36.1,17.4
				c-25.2,15.4-33,48.4-17.6,73.6l2.4,3.9c1.3,2.1,2.7,4.1,4.3,6l-1.7,21.2l18.5-7.6C58,122.6,77.9,122.5,94.5,112.4z"/>
			<g>
				<g>
					<g>
						<g>
							<path class="st1" d="M94,112.7c25.3-15.5,33.2-48.6,17.7-73.9l-2.4-3.9C93.8,9.6,60.7,1.7,35.4,17.2
								C10.1,32.8,2.2,65.8,17.7,91.1l2.4,3.9c1.3,2.1,2.8,4.1,4.3,6l-1.8,21.3l18.6-7.7C57.4,123,77.4,122.9,94,112.7L94,112.7z"/>
							<path class="st2" d="M94,112.7c25.3-15.5,33.2-48.6,17.7-73.9l-2.4-3.9C93.8,9.6,60.7,1.7,35.4,17.2
								C10.1,32.8,2.2,65.8,17.7,91.1l2.4,3.9c1.3,2.1,2.8,4.1,4.3,6l-1.8,21.3l18.6-7.7C57.4,123,77.4,122.9,94,112.7L94,112.7z"/>
						</g>
						<g>
							<path class="st1" d="M94,112.7c25.3-15.5,33.2-48.6,17.7-73.9l-2.4-3.9C93.8,9.6,60.7,1.7,35.4,17.2
								C10.1,32.8,2.2,65.8,17.7,91.1l2.4,3.9c1.3,2.1,2.8,4.1,4.3,6l-1.8,21.3l18.6-7.7C57.4,123,77.4,122.9,94,112.7L94,112.7z"/>
							<path class="st2" d="M94,112.7c25.3-15.5,33.2-48.6,17.7-73.9l-2.4-3.9C93.8,9.6,60.7,1.7,35.4,17.2
								C10.1,32.8,2.2,65.8,17.7,91.1l2.4,3.9c1.3,2.1,2.8,4.1,4.3,6l-1.8,21.3l18.6-7.7C57.4,123,77.4,122.9,94,112.7L94,112.7z"/>
						</g>
						<g>
							<path class="st1" d="M94,112.7c25.3-15.5,33.2-48.6,17.7-73.9l-2.4-3.9C93.8,9.6,60.7,1.7,35.4,17.2
								C10.1,32.8,2.2,65.8,17.7,91.1l2.4,3.9c1.3,2.1,2.8,4.1,4.3,6l-1.8,21.3l18.6-7.7C57.4,123,77.4,122.9,94,112.7L94,112.7z"/>
							<path class="st2" d="M94,112.7c25.3-15.5,33.2-48.6,17.7-73.9l-2.4-3.9C93.8,9.6,60.7,1.7,35.4,17.2
								C10.1,32.8,2.2,65.8,17.7,91.1l2.4,3.9c1.3,2.1,2.8,4.1,4.3,6l-1.8,21.3l18.6-7.7C57.4,123,77.4,122.9,94,112.7L94,112.7z"/>
						</g>
					</g>
					<g>
						<path class="st1" d="M94,112.7c25.3-15.5,33.2-48.6,17.7-73.9l-2.4-3.9C93.8,9.6,60.7,1.7,35.4,17.2
							C10.1,32.8,2.2,65.8,17.7,91.1l2.4,3.9c1.3,2.1,2.8,4.1,4.3,6l-1.8,21.3l18.6-7.7C57.4,123,77.4,122.9,94,112.7L94,112.7z"/>
						<path class="st2" d="M94,112.7c25.3-15.5,33.2-48.6,17.7-73.9l-2.4-3.9C93.8,9.6,60.7,1.7,35.4,17.2
							C10.1,32.8,2.2,65.8,17.7,91.1l2.4,3.9c1.3,2.1,2.8,4.1,4.3,6l-1.8,21.3l18.6-7.7C57.4,123,77.4,122.9,94,112.7L94,112.7z"/>
					</g>
				</g>
				<g>
					<g>
						<path class="st1" d="M94,112.7c25.3-15.5,33.2-48.6,17.7-73.9l-2.4-3.9C93.8,9.6,60.7,1.7,35.4,17.2
							C10.1,32.8,2.2,65.8,17.7,91.1l2.4,3.9c1.3,2.1,2.8,4.1,4.3,6l-1.8,21.3l18.6-7.7C57.4,123,77.4,122.9,94,112.7L94,112.7z"/>
						<path class="st2" d="M94,112.7c25.3-15.5,33.2-48.6,17.7-73.9l-2.4-3.9C93.8,9.6,60.7,1.7,35.4,17.2
							C10.1,32.8,2.2,65.8,17.7,91.1l2.4,3.9c1.3,2.1,2.8,4.1,4.3,6l-1.8,21.3l18.6-7.7C57.4,123,77.4,122.9,94,112.7L94,112.7z"/>
					</g>
					<g>
						<path class="st1" d="M94,112.7c25.3-15.5,33.2-48.6,17.7-73.9l-2.4-3.9C93.8,9.6,60.7,1.7,35.4,17.2
							C10.1,32.8,2.2,65.8,17.7,91.1l2.4,3.9c1.3,2.1,2.8,4.1,4.3,6l-1.8,21.3l18.6-7.7C57.4,123,77.4,122.9,94,112.7L94,112.7z"/>
						<path class="st2" d="M94,112.7c25.3-15.5,33.2-48.6,17.7-73.9l-2.4-3.9C93.8,9.6,60.7,1.7,35.4,17.2
							C10.1,32.8,2.2,65.8,17.7,91.1l2.4,3.9c1.3,2.1,2.8,4.1,4.3,6l-1.8,21.3l18.6-7.7C57.4,123,77.4,122.9,94,112.7L94,112.7z"/>
					</g>
				</g>
			</g>
		</g>
		<path class="st3" d="M93.4,112.1c6.3-3.8,11.8-9,15.9-15.1c0.3-0.5,0.8-1.2,1.1-1.7c0.3-0.6,0.7-1.1,1-1.7
			c0.3-0.5,0.7-1.2,0.9-1.8l0.9-1.8l0.1-0.2c0.5-1.1,1-2.3,1.4-3.5c1.7-4.7,2.7-9.7,2.9-14.7c0.1-0.6,0.1-2.3,0.1-3
			c0-0.6-0.1-1.4-0.1-2l0-0.5v-0.2l0-0.2l-0.1-1c-0.4-4.4-1.4-8.8-3-13c-1.2-3.2-2.8-6.3-4.6-9.2c-0.2-0.3-2.3-3.6-2.4-3.8
			c-0.4-0.6-1-1.4-1.4-2c-0.6-0.8-1.2-1.6-1.8-2.3c-0.2-0.3-1.3-1.6-1.6-1.8c-0.5-0.5-1.1-1.2-1.7-1.8c-0.7-0.6-1.4-1.4-2.1-2
			c-0.2-0.2-0.8-0.8-1.1-1c-0.2-0.2-1.6-1.3-1.9-1.5c-0.4-0.4-1.1-0.8-1.6-1.1c-0.4-0.3-1.1-0.8-1.6-1.1c-0.5-0.4-1.1-0.7-1.6-1
			c-12.9-7.7-29-9.2-43-3.8c-0.4,0.1-1.1,0.5-1.5,0.6l-0.2,0.1l-0.9,0.4c-1.2,0.5-2.3,1.1-3.4,1.6c-0.6,0.3-1.9,1.1-2.4,1.4
			c-0.4,0.2-1.2,0.8-1.6,1c-0.5,0.3-1.1,0.8-1.5,1.1c-0.2,0.1-0.6,0.4-0.8,0.5c-0.5,0.4-1.7,1.3-2.2,1.8c-0.4,0.4-1,0.9-1.4,1.2
			c-0.3,0.3-1,1-1.4,1.3c-0.7,0.6-1.3,1.4-2,2c-0.2,0.3-1.3,1.5-1.5,1.8c-0.2,0.3-0.7,0.8-0.9,1.1c-0.5,0.7-1.1,1.6-1.7,2.3
			c-3.7,5.4-6.3,11.7-7.6,18.1c-0.1,0.5-0.3,1.3-0.3,1.9l-0.3,1.9c0,0.4-0.2,2-0.2,2.4c0,0.7-0.1,1.7-0.1,2.4c0,0.9,0,1.9,0,2.8
			l0,0.9c0.2,4.1,1,8.2,2.2,12.2c0.1,0.5,0.4,1.3,0.6,1.8s0.5,1.3,0.7,1.8c0.1,0.3,0.4,1,0.5,1.3c0.2,0.4,0.8,1.8,1,2.2
			c0.5,1,1.3,2.4,1.8,3.5c0.6,1,1.4,2.5,2,3.5c1,1.7,2,3.3,3.2,4.8l0.5,0.7l-0.1,0.7l-2.6,20.3l-1.7-1.3c5.7-2.1,12.4-4.5,18.1-6.6
			l0.3-0.1l0.3,0.2c4.2,2.4,8.9,4.2,13.7,5.2C69.2,120.7,82.6,118.6,93.4,112.1L93.4,112.1L93.4,112.1z M93.6,112.8
			c-10.9,6.6-23.4,9.3-35.9,7c-4.9-0.9-12.2-3.4-16.7-5.7l0.6,0c-5.5,2.4-11.2,4.5-16.7,6.9l-1.8,0.8l0.1-2.1l1.9-19.9l0.4,1.4
			c-0.9-1.1-1.8-2.2-2.6-3.3c-0.8-1.1-1.6-2.3-2.3-3.4c-1-1.6-2.3-3.6-3.3-5.2c-12-21.2-8.1-47.9,9.6-64.8c3.6-3.5,7.8-6.4,12.2-8.8
			c1.3-0.6,2.6-1.3,3.9-1.8c0.2-0.1,1.1-0.5,1.2-0.5l0.2-0.1l0.5-0.2c5.3-2,11-3.2,16.7-3.4c0.6-0.1,1.5-0.1,2.1,0
			c0.2,0,1.2,0,1.3,0h0.3l0.5,0c9.9,0.4,19.7,3.6,27.9,9.2c0.6,0.4,1.2,0.8,1.7,1.2c0.5,0.4,1.2,0.9,1.7,1.3
			c0.5,0.4,1.2,0.9,1.6,1.4c0.3,0.3,1.7,1.5,1.9,1.8c0.2,0.2,0.9,0.9,1.1,1.1c0.7,0.7,1.4,1.6,2.1,2.3c0.5,0.6,1.2,1.4,1.7,2
			c0.3,0.3,1.3,1.8,1.6,2.1c0.6,0.8,1.2,1.8,1.7,2.6c0.4,0.6,0.9,1.6,1.3,2.2l0.2,0.4l2,3.5c1.7,3.2,3.2,6.5,4.3,10
			c0.2,0.8,0.5,1.7,0.7,2.5C123.3,76.1,113.7,100.8,93.6,112.8L93.6,112.8L93.6,112.8z"/>
	</g>
	<g>
		<path class="st4" d="M71.3,90.3c0,0.2-0.3,0.4-0.5,0.3c-0.5-0.2-0.9-0.5-1.4-0.7c-7-3.9-14-7.9-21.1-11.8c-0.9-0.5-1.3-1-1.3-2.1
			c0-7,0-14,0-21c0-0.6,0.4-1.5,0.8-1.8c7.6-4.9,15.2-9.7,22.9-14.6c0,0,0,0,0,0c0.2-0.1,0.4,0.1,0.4,0.3L71.3,90.3L71.3,90.3z"/>
		<path class="st4" d="M43.7,53.6c0,8.2,0,16.1,0,24.1c-2.6,0-5.2,0.1-7.7,0c-1.9-0.1-3.5-2.1-3.5-4c-0.1-5.2-0.1-10.4,0-15.7
			c0-2.3,1.8-4.2,4.3-4.3C39,53.5,41.2,53.6,43.7,53.6L43.7,53.6z"/>
		<path class="st4" d="M100.7,63.2c-0.6,6.9-2.8,12.8-6.3,18c-1.4,2.1-3,4.1-4.6,6.1c-1,1.3-2.2,2.4-3.6,0.8c-1.3-1.6-0.2-2.7,0.7-4
			c2.4-3.5,5.1-6.8,7-10.7c4.3-9.1,2.7-18.3-4.2-25.9c-0.9-1-1.9-1.9-2.9-2.8c-0.9-0.9-1.7-1.9-0.8-3.3c0.9-1.5,2.1-1.3,3.1-0.4
			c3.9,3.3,7.2,7.2,9,12.5C99.3,56.5,99.9,59.9,100.7,63.2L100.7,63.2z"/>
		<path class="st4" d="M87.7,63.6c0.2,5.3-2.2,9.7-5.2,13.9c-0.9,1.3-2.1,1.6-3.4,0.7c-1.3-1-1-2.2-0.3-3.5c1.3-2.3,2.9-4.7,3.7-7.2
			c1.6-5.1,0.3-9.8-3.2-13.8c-1.1-1.3-1.8-2.6-0.4-3.9c1.6-1.4,2.9-0.4,4,0.9C86,54.4,87.8,58.6,87.7,63.6L87.7,63.6z"/>
	</g>
</g>
</svg>
