<?xml version="1.0" encoding="utf-8"?>
<!-- Generator: Adobe Illustrator 27.2.0, SVG Export Plug-In . SVG Version: 6.00 Build 0)  -->
<svg class="pulsate-bck" version="1.1" id="Juego" xmlns="http://www.w3.org/2000/svg" xmlns:xlink="http://www.w3.org/1999/xlink" x="0px" y="0px"
	 viewBox="0 0 129.1 131" style="enable-background:new 0 0 129.1 131;" xml:space="preserve">
<style type="text/css">
	.st0{fill:#FFFFFF;}
	.st1{fill:#FF51FF;}
	.st2{fill:#002F70;}
	.classSvgAudio{
		animation: animate 3s linear infinite;
	}

	.classSvgAudio {
		animation-delay: 0.1s;
	}

	@keyframes animate {
		0%{
			filter: hue-rotate(0deg);
		}
		50% {
			filter: hue-rotate(-25deg);
		}
		100%{
			filter: hue-rotate(0deg);
		}
	}
	.classsSonido{
		cursor: pointer;
	}
	.pulsate-bck {
		animation: pulsate-bck 0.5s ease-in-out 5 forwards;
		-webkit-animation: pulsate-bck 0.5s ease-in-out 5 forwards;
	}

			/* ----------------------------------------------
		* Generated by Animista on 2023-11-29 10:12:1
		* Licensed under FreeBSD License.
		* See http://animista.net/license for more info. 
		* w: http://animista.net, t: @cssanimista
		* ---------------------------------------------- */

		/**
		* ----------------------------------------
		* animation pulsate-bck
		* ----------------------------------------
		*/
		@-webkit-keyframes pulsate-bck {
		0% {
			-webkit-transform: scale(1);
					transform: scale(1);
		}
		50% {
			-webkit-transform: scale(0.9);
					transform: scale(0.9);
		}
		100% {
			-webkit-transform: scale(1);
					transform: scale(1);
		}
		}
		@keyframes pulsate-bck {
		0% {
			-webkit-transform: scale(1);
					transform: scale(1);
		}
		50% {
			-webkit-transform: scale(0.9);
					transform: scale(0.9);
		}
		100% {
			-webkit-transform: scale(1);
					transform: scale(1);
		}
		}
</style>
<g>
	<path class="st0 classsSonido" d="M101.7,102.2l-0.1-0.7l0.5-0.7c1.3-1.6,2.3-3.2,3.4-4.8c0.6-1,1.5-2.5,2-3.5c0.6-1,1.4-2.4,1.9-3.5
		c0.2-0.4,0.9-1.8,1.1-2.2c0.1-0.3,0.4-1,0.5-1.3c0.2-0.5,0.5-1.3,0.8-1.8s0.5-1.3,0.7-1.8c1.3-3.9,2.2-8.2,2.5-12.3l0-0.9
		c0.1-0.9,0-1.9,0.1-2.8c0-0.7-0.1-1.6,0-2.4c0-0.4-0.2-2-0.2-2.4l-0.3-1.9c-0.1-0.5-0.2-1.3-0.3-1.9c-1.2-6.6-3.7-13-7.4-18.5
		c-0.5-0.7-1.1-1.6-1.7-2.4c-0.2-0.3-0.7-0.9-0.9-1.1c-0.2-0.3-1.3-1.6-1.5-1.9c-0.6-0.7-1.3-1.4-1.9-2.1c-0.3-0.3-1-1-1.4-1.4
		c-0.4-0.4-1-0.9-1.4-1.2C97.7,28,96.5,27,96,26.5c-0.2-0.2-0.5-0.4-0.8-0.5c-0.4-0.3-1.1-0.8-1.5-1.1c-0.4-0.2-1.2-0.8-1.6-1.1
		c-0.5-0.4-1.9-1.2-2.4-1.5c-1.1-0.6-2.2-1.3-3.4-1.7l-0.9-0.4l-0.1-0.1c-0.4-0.1-1.1-0.4-1.5-0.6c-14.2-5.8-30.6-4.6-43.9,2.9
		c-0.6,0.3-1.1,0.7-1.7,1s-1.2,0.8-1.7,1.1c-0.5,0.3-1.1,0.8-1.7,1.1c-0.2,0.2-1.8,1.3-2,1.5c-0.2,0.2-0.8,0.7-1.1,1
		c-0.7,0.6-1.5,1.4-2.2,2c-0.5,0.5-1.1,1.2-1.8,1.8c-0.2,0.2-1.4,1.6-1.7,1.8c-0.6,0.7-1.3,1.6-1.9,2.3c-0.4,0.6-1.1,1.4-1.5,2
		c-0.1,0.2-2.4,3.5-2.6,3.8c-1.9,2.9-3.6,6-4.9,9.2c-1.7,4.2-2.8,8.6-3.3,13.1l-0.1,1l0,0.2l0,0.2l0,0.5c0,0.6-0.1,1.4-0.1,2
		c0,0.7-0.1,2.4,0,3c0.1,5.1,1,10.2,2.6,15c0.4,1.2,0.9,2.5,1.4,3.6l0.1,0.2l0.9,1.8c0.3,0.5,0.7,1.2,1,1.8c0.3,0.6,0.7,1.2,1,1.7
		c0.3,0.5,0.7,1.2,1.1,1.7c4.1,6.5,9.6,11.8,16,15.8l0,0l0,0c10.9,6.8,24.5,9.4,37.1,6.8c4.9-1,9.7-2.6,14.1-5l0.3-0.2l0.3,0.1
		c5.8,2.3,12.6,4.8,18.3,7.1L101.7,102.2z"/>
	<path class="st1 classSvgAudio classsSonido" d="M36.3,113.1c10.8,6.5,24.2,8.7,36.5,5.9c4.8-1.1,9.4-2.8,13.7-5.2l0.3-0.2l0.3,0.1c5.7,2.1,12.4,4.5,18.1,6.6
		l-1.7,1.3l-2.6-20.3l-0.1-0.7l0.5-0.7c1.2-1.6,2.2-3.2,3.2-4.8c0.6-1,1.4-2.5,1.9-3.5c0.6-1,1.3-2.4,1.8-3.5c0.2-0.4,0.8-1.8,1-2.2
		c0.1-0.3,0.4-1,0.5-1.3c0.2-0.5,0.5-1.3,0.7-1.8s0.5-1.3,0.6-1.8c1.2-3.9,2-8.1,2.2-12.2v-0.9c0.1-0.9,0-1.9,0-2.8
		c0-0.7-0.1-1.6-0.1-2.4c0-0.4-0.2-2-0.2-2.4l-0.3-1.9c-0.1-0.5-0.2-1.3-0.3-1.9c-1.3-6.5-3.9-12.7-7.6-18.1
		c-0.5-0.7-1.1-1.6-1.7-2.3c-0.2-0.3-0.7-0.9-0.9-1.1c-0.2-0.3-1.3-1.5-1.5-1.8c-0.6-0.7-1.3-1.4-1.9-2c-0.3-0.3-1-1-1.4-1.3
		c-0.4-0.4-1-0.9-1.4-1.2c-0.5-0.4-1.7-1.4-2.2-1.8c-0.2-0.2-0.5-0.4-0.8-0.5c-0.4-0.3-1.1-0.8-1.5-1.1c-0.4-0.2-1.2-0.8-1.6-1
		c-0.5-0.4-1.9-1.1-2.4-1.4c-1.1-0.6-2.2-1.2-3.4-1.6l-0.9-0.4l-0.2-0.1c-0.4-0.1-1.1-0.4-1.5-0.6c-14-5.4-30.1-3.9-43,3.8
		c-0.6,0.3-1.1,0.7-1.6,1s-1.2,0.8-1.6,1.1c-0.5,0.3-1.1,0.8-1.6,1.1c-0.2,0.2-1.7,1.3-1.9,1.5c-0.2,0.2-0.8,0.7-1.1,1
		c-0.7,0.6-1.4,1.4-2.1,2c-0.5,0.5-1.1,1.2-1.7,1.8c-0.2,0.2-1.3,1.6-1.6,1.8c-0.6,0.7-1.2,1.6-1.8,2.3c-0.4,0.6-1,1.4-1.4,2
		c-0.1,0.2-2.3,3.5-2.5,3.8c-1.8,2.9-3.4,6-4.6,9.2c-1.6,4.2-2.6,8.5-3,13l-0.1,1v0.2V67v0.5c0,0.6-0.1,1.4-0.1,2c0,0.7,0,2.4,0.1,3
		c0.2,5,1.2,10,2.9,14.7c0.4,1.2,0.9,2.4,1.4,3.5l0.1,0.2l0.9,1.8c0.3,0.5,0.7,1.2,1,1.8c0.3,0.6,0.7,1.2,1,1.7s0.7,1.2,1.1,1.7
		C24.5,104.1,30,109.3,36.3,113.1L36.3,113.1L36.3,113.1z M36.2,113.8C16,101.8,6.5,77.1,12.3,54.4c0.2-0.8,0.5-1.7,0.7-2.5
		c1.1-3.4,2.5-6.8,4.3-10l2-3.5l0.2-0.4c0.4-0.6,0.9-1.6,1.3-2.2c0.5-0.8,1.1-1.8,1.7-2.6c0.3-0.3,1.3-1.8,1.6-2.1
		c0.5-0.6,1.1-1.4,1.7-2c0.7-0.8,1.4-1.6,2.1-2.3c0.2-0.2,0.9-0.9,1.1-1.1c0.3-0.3,1.6-1.5,1.9-1.8c0.5-0.4,1.1-1,1.6-1.4
		s1.2-0.9,1.7-1.3c0.6-0.4,1.1-0.9,1.7-1.2c8.2-5.6,18-8.8,27.9-9.2h0.5h0.3c0.2,0,1.1,0,1.3,0c0.6,0,1.5,0,2.1,0
		c5.7,0.2,11.4,1.4,16.7,3.4l0.5,0.2l0.2,0.1c0.2,0.1,1.1,0.4,1.2,0.5c1.3,0.5,2.6,1.2,3.9,1.8c4.4,2.4,8.6,5.3,12.2,8.8
		c17.6,16.8,21.6,43.6,9.6,64.8c-1,1.7-2.2,3.6-3.3,5.2c-0.7,1.2-1.5,2.4-2.3,3.4c-0.8,1.1-1.7,2.2-2.6,3.3l0.4-1.4l1.9,19.9
		l0.1,2.1l-1.8-0.8c-5.5-2.4-11.2-4.5-16.7-6.9h0.6c-4.5,2.2-11.8,4.8-16.7,5.7C59.6,123.1,47,120.3,36.2,113.8L36.2,113.8
		L36.2,113.8z"/>
	<g>
		<path class="st2 classsSonido" d="M68,91.3c0,0.2-0.3,0.4-0.5,0.3c-0.5-0.2-0.9-0.5-1.4-0.7c-7-3.9-14-7.9-21.1-11.8c-0.9-0.5-1.3-1-1.3-2.1
			c0-7,0-14,0-21c0-0.6,0.4-1.5,0.8-1.8c7.6-4.9,15.2-9.7,22.9-14.6l0,0c0.2-0.1,0.4,0.1,0.4,0.3L68,91.3L68,91.3z"/>
		<path class="st2 classsSonido" d="M40.3,54.6v24.1c-2.6,0-5.2,0.1-7.7,0c-1.9-0.1-3.5-2.1-3.5-4C29,69.4,29,64.2,29.1,59c0-2.3,1.8-4.2,4.3-4.3
			C35.6,54.5,37.9,54.6,40.3,54.6L40.3,54.6z"/>
		<path class="st2 classsSonido" d="M97.3,64.2c-0.6,6.9-2.8,12.8-6.3,18c-1.4,2.1-3,4.1-4.6,6.1c-1,1.3-2.2,2.4-3.6,0.8c-1.3-1.6-0.2-2.7,0.7-4
			c2.4-3.5,5.1-6.8,7-10.7c4.3-9.1,2.7-18.3-4.2-25.9c-0.9-1-1.9-1.9-2.9-2.8c-0.9-0.9-1.7-1.9-0.8-3.3c0.9-1.5,2.1-1.3,3.1-0.4
			c3.9,3.3,7.2,7.2,9,12.5C96,57.5,96.5,60.9,97.3,64.2L97.3,64.2z"/>
		<path class="st2 classsSonido" d="M84.3,64.6c0.2,5.3-2.2,9.7-5.2,13.8c-0.9,1.3-2.1,1.6-3.4,0.7c-1.3-1-1-2.2-0.3-3.5c1.3-2.3,2.9-4.7,3.7-7.2
			c1.6-5.1,0.3-9.8-3.2-13.8c-1.1-1.3-1.8-2.6-0.4-3.9c1.6-1.4,2.9-0.4,4,0.9C82.7,55.4,84.5,59.6,84.3,64.6L84.3,64.6z"/>
	</g>
</g>
</svg>
