<?xml version="1.0" encoding="UTF-8"?>
<svg id="Juego" xmlns="http://www.w3.org/2000/svg" xmlns:xlink="http://www.w3.org/1999/xlink" viewBox="0 0 111.47 104.34">
  <defs>
    <filter id="outer-glow-1" filterUnits="userSpaceOnUse">
      <feOffset dx="0" dy="0"/>
      <feGaussianBlur result="blur" stdDeviation="4"/>
      <feFlood flood-color="#43fff1" flood-opacity="1"/>
      <feComposite in2="blur" operator="in"/>
      <feComposite in="SourceGraphic"/>
    </filter>
    <filter id="outer-glow-2" filterUnits="userSpaceOnUse">
      <feOffset dx="0" dy="0"/>
      <feGaussianBlur result="blur-2" stdDeviation="4"/>
      <feFlood flood-color="#43fff1" flood-opacity="1"/>
      <feComposite in2="blur-2" operator="in"/>
      <feComposite in="SourceGraphic"/>
    </filter>
    <filter id="outer-glow-3" filterUnits="userSpaceOnUse">
      <feOffset dx="0" dy="0"/>
      <feGaussianBlur result="blur-3" stdDeviation="4"/>
      <feFlood flood-color="#43fff1" flood-opacity="1"/>
      <feComposite in2="blur-3" operator="in"/>
      <feComposite in="SourceGraphic"/>
    </filter>
    <filter id="outer-glow-4" filterUnits="userSpaceOnUse">
      <feOffset dx="0" dy="0"/>
      <feGaussianBlur result="blur-4" stdDeviation="6"/>
      <feFlood flood-color="#43fff1" flood-opacity="1"/>
      <feComposite in2="blur-4" operator="in"/>
      <feComposite in="SourceGraphic"/>
    </filter>
    <filter id="outer-glow-5" filterUnits="userSpaceOnUse">
      <feOffset dx="0" dy="0"/>
      <feGaussianBlur result="blur-5" stdDeviation="6"/>
      <feFlood flood-color="#43fff1" flood-opacity="1"/>
      <feComposite in2="blur-5" operator="in"/>
      <feComposite in="SourceGraphic"/>
    </filter>
    <filter id="outer-glow-6" filterUnits="userSpaceOnUse">
      <feOffset dx="0" dy="0"/>
      <feGaussianBlur result="blur-6" stdDeviation="6"/>
      <feFlood flood-color="#43fff1" flood-opacity="1"/>
      <feComposite in2="blur-6" operator="in"/>
      <feComposite in="SourceGraphic"/>
    </filter>
    <filter id="outer-glow-7" filterUnits="userSpaceOnUse">
      <feOffset dx="0" dy="0"/>
      <feGaussianBlur result="blur-7" stdDeviation="6"/>
      <feFlood flood-color="#43fff1" flood-opacity="1"/>
      <feComposite in2="blur-7" operator="in"/>
      <feComposite in="SourceGraphic"/>
    </filter>
    <clipPath id="clippath">
      <polygon points="2632.58 965.22 2260.35 965.22 2260.35 440.66 2642.58 440.66 2632.58 965.22" style="fill: none;"/>
    </clipPath>
    <clipPath id="clippath-1">
      <polygon points="2655.62 960.82 2146.49 960.59 2048.9 892.14 1951.31 960.5 1924.88 960.49 1914.71 960.49 1253.59 960.19 1253.59 275.72 2655.62 276.36 2655.62 960.82" style="fill: none;"/>
    </clipPath>
  </defs>
  <g>
    <g>
      <g>
        <path d="m65.12,13.48c-20.99-8.49-44.88,1.64-53.38,22.63l-1.31,3.25c-8.49,20.99,1.64,44.88,22.63,53.37,20.99,8.49,44.88-1.64,53.38-22.62l1.31-3.25c.72-1.77,1.29-3.56,1.74-5.36l13.86-8.56-13.12-7.96c-2.21-13.69-11.31-25.92-25.1-31.5Z" style="fill: #fff;"/>
        <g>
          <g>
            <g>
              <g style="filter: url(#outer-glow-1);">
                <path d="m65.53,13.6c-21.08-8.53-45.09,1.65-53.63,22.73l-1.32,3.26c-8.53,21.08,1.65,45.09,22.73,53.63,21.09,8.53,45.09-1.65,53.63-22.73l1.32-3.26c.72-1.78,1.29-3.57,1.75-5.38l13.92-8.6-13.18-7.99c-2.22-13.75-11.37-26.04-25.22-31.65Z" style="fill: none; stroke: #69fff4; stroke-miterlimit: 10;"/>
                <path d="m65.53,13.6c-21.08-8.53-45.09,1.65-53.63,22.73l-1.32,3.26c-8.53,21.08,1.65,45.09,22.73,53.63,21.09,8.53,45.09-1.65,53.63-22.73l1.32-3.26c.72-1.78,1.29-3.57,1.75-5.38l13.92-8.6-13.18-7.99c-2.22-13.75-11.37-26.04-25.22-31.65Z" style="fill: none; stroke: #fff; stroke-miterlimit: 10; stroke-width: .5px;"/>
              </g>
              <g style="filter: url(#outer-glow-2);">
                <path d="m65.53,13.6c-21.08-8.53-45.09,1.65-53.63,22.73l-1.32,3.26c-8.53,21.08,1.65,45.09,22.73,53.63,21.09,8.53,45.09-1.65,53.63-22.73l1.32-3.26c.72-1.78,1.29-3.57,1.75-5.38l13.92-8.6-13.18-7.99c-2.22-13.75-11.37-26.04-25.22-31.65Z" style="fill: none; stroke: #69fff4; stroke-miterlimit: 10;"/>
                <path d="m65.53,13.6c-21.08-8.53-45.09,1.65-53.63,22.73l-1.32,3.26c-8.53,21.08,1.65,45.09,22.73,53.63,21.09,8.53,45.09-1.65,53.63-22.73l1.32-3.26c.72-1.78,1.29-3.57,1.75-5.38l13.92-8.6-13.18-7.99c-2.22-13.75-11.37-26.04-25.22-31.65Z" style="fill: none; stroke: #fff; stroke-miterlimit: 10; stroke-width: .5px;"/>
              </g>
              <g style="filter: url(#outer-glow-3);">
                <path d="m65.53,13.6c-21.08-8.53-45.09,1.65-53.63,22.73l-1.32,3.26c-8.53,21.08,1.65,45.09,22.73,53.63,21.09,8.53,45.09-1.65,53.63-22.73l1.32-3.26c.72-1.78,1.29-3.57,1.75-5.38l13.92-8.6-13.18-7.99c-2.22-13.75-11.37-26.04-25.22-31.65Z" style="fill: none; stroke: #69fff4; stroke-miterlimit: 10;"/>
                <path d="m65.53,13.6c-21.08-8.53-45.09,1.65-53.63,22.73l-1.32,3.26c-8.53,21.08,1.65,45.09,22.73,53.63,21.09,8.53,45.09-1.65,53.63-22.73l1.32-3.26c.72-1.78,1.29-3.57,1.75-5.38l13.92-8.6-13.18-7.99c-2.22-13.75-11.37-26.04-25.22-31.65Z" style="fill: none; stroke: #fff; stroke-miterlimit: 10; stroke-width: .5px;"/>
              </g>
            </g>
            <g>
              <path d="m65.53,13.6c-21.08-8.53-45.09,1.65-53.63,22.73l-1.32,3.26c-8.53,21.08,1.65,45.09,22.73,53.63,21.09,8.53,45.09-1.65,53.63-22.73l1.32-3.26c.72-1.78,1.29-3.57,1.75-5.38l13.92-8.6-13.18-7.99c-2.22-13.75-11.37-26.04-25.22-31.65Z" style="fill: none; stroke: #69fff4; stroke-miterlimit: 10;"/>
              <path d="m65.53,13.6c-21.08-8.53-45.09,1.65-53.63,22.73l-1.32,3.26c-8.53,21.08,1.65,45.09,22.73,53.63,21.09,8.53,45.09-1.65,53.63-22.73l1.32-3.26c.72-1.78,1.29-3.57,1.75-5.38l13.92-8.6-13.18-7.99c-2.22-13.75-11.37-26.04-25.22-31.65Z" style="fill: none; stroke: #fff; stroke-miterlimit: 10; stroke-width: .5px;"/>
            </g>
          </g>
          <g>
            <g style="filter: url(#outer-glow-4);">
              <path d="m65.53,13.6c-21.08-8.53-45.09,1.65-53.63,22.73l-1.32,3.26c-8.53,21.08,1.65,45.09,22.73,53.63,21.09,8.53,45.09-1.65,53.63-22.73l1.32-3.26c.72-1.78,1.29-3.57,1.75-5.38l13.92-8.6-13.18-7.99c-2.22-13.75-11.37-26.04-25.22-31.65Z" style="fill: none; stroke: #69fff4; stroke-miterlimit: 10;"/>
              <path d="m65.53,13.6c-21.08-8.53-45.09,1.65-53.63,22.73l-1.32,3.26c-8.53,21.08,1.65,45.09,22.73,53.63,21.09,8.53,45.09-1.65,53.63-22.73l1.32-3.26c.72-1.78,1.29-3.57,1.75-5.38l13.92-8.6-13.18-7.99c-2.22-13.75-11.37-26.04-25.22-31.65Z" style="fill: none; stroke: #fff; stroke-miterlimit: 10; stroke-width: .5px;"/>
            </g>
            <g style="filter: url(#outer-glow-5);">
              <path d="m65.53,13.6c-21.08-8.53-45.09,1.65-53.63,22.73l-1.32,3.26c-8.53,21.08,1.65,45.09,22.73,53.63,21.09,8.53,45.09-1.65,53.63-22.73l1.32-3.26c.72-1.78,1.29-3.57,1.75-5.38l13.92-8.6-13.18-7.99c-2.22-13.75-11.37-26.04-25.22-31.65Z" style="fill: none; stroke: #69fff4; stroke-miterlimit: 10;"/>
              <path d="m65.53,13.6c-21.08-8.53-45.09,1.65-53.63,22.73l-1.32,3.26c-8.53,21.08,1.65,45.09,22.73,53.63,21.09,8.53,45.09-1.65,53.63-22.73l1.32-3.26c.72-1.78,1.29-3.57,1.75-5.38l13.92-8.6-13.18-7.99c-2.22-13.75-11.37-26.04-25.22-31.65Z" style="fill: none; stroke: #fff; stroke-miterlimit: 10; stroke-width: .5px;"/>
            </g>
          </g>
        </g>
      </g>
      <path d="m65.43,14.28c-5.23-2.16-10.93-3.22-16.59-2.94-.44,0-1.09.06-1.54.1-.51.05-1.02.08-1.53.16-.45.07-1.08.14-1.52.22l-1.51.29-.19.04c-.92.22-1.89.44-2.79.73-3.67,1.07-7.2,2.74-10.37,4.85-.42.25-1.46,1.02-1.87,1.32-.35.25-.85.68-1.19.95l-.3.24-.15.12-.14.13-.57.51c-2.56,2.27-4.78,4.89-6.64,7.75-1.41,2.21-2.62,4.61-3.56,7.05-.1.23-1.17,3.09-1.24,3.25-.18.51-.44,1.26-.62,1.77-.2.69-.45,1.46-.62,2.15-.07.28-.38,1.56-.43,1.81-.1.56-.25,1.27-.34,1.83-.09.72-.22,1.49-.28,2.21-.02.25-.08.86-.1,1.11-.03.2-.07,1.6-.08,1.85-.02.42,0,1.05,0,1.48,0,.42.03,1.05.06,1.48.03.49.05.98.11,1.47,1.09,11.45,7.5,22.07,17.19,28.27.28.18.79.5,1.07.68l.16.09.63.35c.83.49,1.7.91,2.56,1.33.46.2,1.53.69,1.99.86.34.13,1.01.39,1.35.52.39.14.97.32,1.37.46.19.06.49.17.69.22.48.13,1.61.46,2.09.55.41.09,1,.22,1.41.31.35.06,1.07.18,1.42.25.71.12,1.43.19,2.14.27.29.03,1.53.11,1.8.13.25,0,.83.02,1.08.03.67.03,1.49,0,2.16-.02,5.04-.19,10.09-1.41,14.65-3.57.36-.18.95-.44,1.3-.64l1.28-.68c.27-.15,1.32-.79,1.56-.93.46-.31,1.06-.69,1.52-1.01.56-.42,1.21-.86,1.75-1.31l.57-.46c2.45-1.98,4.65-4.34,6.53-6.87.26-.34.59-.85.84-1.2.26-.35.57-.87.8-1.23.15-.24.44-.71.58-.94.18-.31.71-1.3.89-1.62.39-.8.93-1.89,1.29-2.71.35-.79.92-2,1.26-2.79.59-1.37,1.1-2.76,1.53-4.19l.18-.61.47-.26,13.67-7.63v1.61c-3.86-2.57-8.44-5.61-12.3-8.16l-.21-.14-.03-.23c-.46-3.72-1.47-7.39-3-10.82-3.89-8.88-11.3-16.1-20.25-19.81h0Zm.36-.43c8.99,3.72,16.43,10.2,20.67,18.96,1.68,3.44,3.43,9.08,4.09,12.87l-.24-.37c3.98,2.34,7.86,4.83,11.85,7.15l1.31.76-1.32.85-13.12,7.88.65-.87c-.24,1.04-.52,2.07-.84,3.09-.3,1-.7,2.02-1.07,3-.52,1.37-1.16,3.04-1.74,4.4-7.59,17.04-25.9,26.78-44.31,23.57-3.79-.63-7.49-1.87-10.95-3.52-.98-.5-1.96-.99-2.9-1.56-.13-.08-.77-.45-.89-.52l-.17-.11-.34-.23c-3.68-2.36-7.01-5.35-9.74-8.76-.3-.35-.72-.92-1-1.3-.09-.13-.52-.71-.61-.83l-.11-.17-.23-.34c-4.28-6.27-6.74-13.8-7.02-21.38-.04-.54-.03-1.08-.03-1.62,0-.47,0-1.15.04-1.61.02-.47.05-1.14.1-1.61.03-.31.17-1.72.21-2,.04-.26.14-.93.18-1.19.1-.77.31-1.6.45-2.37.13-.6.34-1.35.49-1.94.07-.3.49-1.6.58-1.92.24-.73.55-1.53.82-2.25.23-.53.56-1.31.78-1.84l.16-.35,1.29-2.81c1.16-2.51,2.58-4.94,4.21-7.17.37-.47.83-1.1,1.21-1.56,11.37-13.96,30.96-19.27,47.52-12.33h0Z" style="fill: #ff51ff;"/>
    </g>
    <g>
      <path d="m51.69,72.19c0,.19-.2.31-.37.22-.38-.19-.71-.36-1.04-.56-5.33-3.12-10.66-6.27-16.01-9.36-.69-.4-.98-.82-.96-1.63.13-5.35.19-10.7.34-16.05.01-.47.31-1.13.68-1.36,5.89-3.65,11.81-7.24,17.73-10.84,0,0,.02-.01.03-.01.16-.07.34.07.34.25l-.73,39.35Z" style="fill: #002f70;"/>
      <path d="m30.98,43.68c-.12,6.25-.23,12.32-.34,18.47-2.01-.04-3.97.03-5.89-.14-1.47-.13-2.67-1.62-2.65-3.14.03-4,.1-8,.22-12,.05-1.79,1.46-3.17,3.37-3.26,1.71-.08,3.43.04,5.3.07Z" style="fill: #002f70;"/>
      <path d="m74.57,51.87c-.52,5.3-2.35,9.75-5.08,13.73-1.12,1.62-2.37,3.11-3.6,4.62-.78.97-1.69,1.84-2.73.52-.99-1.24-.11-2.08.58-3.04,1.91-2.65,4.04-5.17,5.51-8.13,3.44-6.89,2.29-13.97-2.84-19.92-.69-.79-1.46-1.48-2.19-2.22-.71-.7-1.26-1.48-.57-2.58.7-1.1,1.61-.97,2.41-.26,2.92,2.57,5.41,5.64,6.75,9.67.81,2.43,1.19,5.05,1.76,7.59Z" style="fill: #002f70;"/>
      <path d="m64.59,51.93c.04,4.08-1.78,7.42-4.17,10.55-.73.96-1.63,1.23-2.62.47-1.01-.78-.77-1.69-.18-2.68,1.06-1.78,2.32-3.52,2.95-5.46,1.26-3.88.35-7.5-2.26-10.64-.83-.99-1.35-2.01-.23-2.96,1.21-1.02,2.22-.28,3.05.75,2.33,2.92,3.65,6.18,3.46,9.97Z" style="fill: #002f70;"/>
    </g>
  </g>
  <g style="clip-path: url(#clippath);">
    <g style="clip-path: url(#clippath-1);">
      <g id="Doble_p치gina_9-10.psb" data-name="Doble p치gina 9-10.psb">
        <image id="Doble_p치gina_9-10" data-name="Doble p치gina 9-10" width="9242" height="6140" transform="translate(-1425.58 -1644.08) scale(.54)" xlink:href="Flotantes1.png"/>
      </g>
    </g>
  </g>
  <rect x="-2954.45" y="-76.65" width="5844.88" height="3268.04" style="fill: none; stroke: #edff00; stroke-miterlimit: 10; stroke-width: 4px;"/>
</svg>