<?xml version="1.0" encoding="utf-8"?>
<!-- Generator: Adobe Illustrator 27.2.0, SVG Export Plug-In . SVG Version: 6.00 Build 0)  -->
<svg version="1.1" id="Juego" xmlns="http://www.w3.org/2000/svg" xmlns:xlink="http://www.w3.org/1999/xlink" x="0px" y="0px"
	 viewBox="0 0 111.5 104.3" style="enable-background:new 0 0 111.5 104.3;" xml:space="preserve">
<style type="text/css">
	.st0{fill:#FFFFFF;}
	.st1{fill:none;stroke:#69FFF4;stroke-miterlimit:10;}
	.st2{fill:none;stroke:#FFFFFF;stroke-width:0.5;stroke-miterlimit:10;}
	.st3{fill:#FF51FF;}
	.st4{fill:#002F70;}
</style>
<g>
	<g>
		<g>
			<path class="st0" d="M65.1,13.5c-21-8.5-44.9,1.6-53.4,22.6l-1.3,3.2c-8.5,21,1.6,44.9,22.6,53.4s44.9-1.6,53.4-22.6l1.3-3.2
				c0.7-1.8,1.3-3.6,1.7-5.4l13.9-8.6l-13.1-8C88,31.3,78.9,19.1,65.1,13.5L65.1,13.5z"/>
			<g>
				<g>
					<g>
						<g>
							<path class="st1" d="M65.5,13.6c-21.1-8.5-45.1,1.6-53.6,22.7l-1.3,3.3C2,60.7,12.2,84.7,33.3,93.2
								c21.1,8.5,45.1-1.7,53.6-22.7l1.3-3.3c0.7-1.8,1.3-3.6,1.8-5.4l13.9-8.6l-13.2-8C88.5,31.5,79.4,19.2,65.5,13.6L65.5,13.6z"
								/>
							<path class="st2" d="M65.5,13.6c-21.1-8.5-45.1,1.6-53.6,22.7l-1.3,3.3C2,60.7,12.2,84.7,33.3,93.2
								c21.1,8.5,45.1-1.7,53.6-22.7l1.3-3.3c0.7-1.8,1.3-3.6,1.8-5.4l13.9-8.6l-13.2-8C88.5,31.5,79.4,19.2,65.5,13.6L65.5,13.6z"
								/>
						</g>
						<g>
							<path class="st1" d="M65.5,13.6c-21.1-8.5-45.1,1.6-53.6,22.7l-1.3,3.3C2,60.7,12.2,84.7,33.3,93.2
								c21.1,8.5,45.1-1.7,53.6-22.7l1.3-3.3c0.7-1.8,1.3-3.6,1.8-5.4l13.9-8.6l-13.2-8C88.5,31.5,79.4,19.2,65.5,13.6L65.5,13.6z"
								/>
							<path class="st2" d="M65.5,13.6c-21.1-8.5-45.1,1.6-53.6,22.7l-1.3,3.3C2,60.7,12.2,84.7,33.3,93.2
								c21.1,8.5,45.1-1.7,53.6-22.7l1.3-3.3c0.7-1.8,1.3-3.6,1.8-5.4l13.9-8.6l-13.2-8C88.5,31.5,79.4,19.2,65.5,13.6L65.5,13.6z"
								/>
						</g>
						<g>
							<path class="st1" d="M65.5,13.6c-21.1-8.5-45.1,1.6-53.6,22.7l-1.3,3.3C2,60.7,12.2,84.7,33.3,93.2
								c21.1,8.5,45.1-1.7,53.6-22.7l1.3-3.3c0.7-1.8,1.3-3.6,1.8-5.4l13.9-8.6l-13.2-8C88.5,31.5,79.4,19.2,65.5,13.6L65.5,13.6z"
								/>
							<path class="st2" d="M65.5,13.6c-21.1-8.5-45.1,1.6-53.6,22.7l-1.3,3.3C2,60.7,12.2,84.7,33.3,93.2
								c21.1,8.5,45.1-1.7,53.6-22.7l1.3-3.3c0.7-1.8,1.3-3.6,1.8-5.4l13.9-8.6l-13.2-8C88.5,31.5,79.4,19.2,65.5,13.6L65.5,13.6z"
								/>
						</g>
					</g>
					<g>
						<path class="st1" d="M65.5,13.6c-21.1-8.5-45.1,1.6-53.6,22.7l-1.3,3.3C2,60.7,12.2,84.7,33.3,93.2
							c21.1,8.5,45.1-1.7,53.6-22.7l1.3-3.3c0.7-1.8,1.3-3.6,1.8-5.4l13.9-8.6l-13.2-8C88.5,31.5,79.4,19.2,65.5,13.6L65.5,13.6z"/>
						<path class="st2" d="M65.5,13.6c-21.1-8.5-45.1,1.6-53.6,22.7l-1.3,3.3C2,60.7,12.2,84.7,33.3,93.2
							c21.1,8.5,45.1-1.7,53.6-22.7l1.3-3.3c0.7-1.8,1.3-3.6,1.8-5.4l13.9-8.6l-13.2-8C88.5,31.5,79.4,19.2,65.5,13.6L65.5,13.6z"/>
					</g>
				</g>
				<g>
					<g>
						<path class="st1" d="M65.5,13.6c-21.1-8.5-45.1,1.6-53.6,22.7l-1.3,3.3C2,60.7,12.2,84.7,33.3,93.2
							c21.1,8.5,45.1-1.7,53.6-22.7l1.3-3.3c0.7-1.8,1.3-3.6,1.8-5.4l13.9-8.6l-13.2-8C88.5,31.5,79.4,19.2,65.5,13.6L65.5,13.6z"/>
						<path class="st2" d="M65.5,13.6c-21.1-8.5-45.1,1.6-53.6,22.7l-1.3,3.3C2,60.7,12.2,84.7,33.3,93.2
							c21.1,8.5,45.1-1.7,53.6-22.7l1.3-3.3c0.7-1.8,1.3-3.6,1.8-5.4l13.9-8.6l-13.2-8C88.5,31.5,79.4,19.2,65.5,13.6L65.5,13.6z"/>
					</g>
					<g>
						<path class="st1" d="M65.5,13.6c-21.1-8.5-45.1,1.6-53.6,22.7l-1.3,3.3C2,60.7,12.2,84.7,33.3,93.2
							c21.1,8.5,45.1-1.7,53.6-22.7l1.3-3.3c0.7-1.8,1.3-3.6,1.8-5.4l13.9-8.6l-13.2-8C88.5,31.5,79.4,19.2,65.5,13.6L65.5,13.6z"/>
						<path class="st2" d="M65.5,13.6c-21.1-8.5-45.1,1.6-53.6,22.7l-1.3,3.3C2,60.7,12.2,84.7,33.3,93.2
							c21.1,8.5,45.1-1.7,53.6-22.7l1.3-3.3c0.7-1.8,1.3-3.6,1.8-5.4l13.9-8.6l-13.2-8C88.5,31.5,79.4,19.2,65.5,13.6L65.5,13.6z"/>
					</g>
				</g>
			</g>
		</g>
		<path class="st3" d="M65.4,14.3c-5.2-2.2-10.9-3.2-16.6-2.9c-0.4,0-1.1,0.1-1.5,0.1c-0.5,0.1-1,0.1-1.5,0.2
			c-0.5,0.1-1.1,0.1-1.5,0.2l-1.5,0.3l-0.2,0c-0.9,0.2-1.9,0.4-2.8,0.7c-3.7,1.1-7.2,2.7-10.4,4.9c-0.4,0.2-1.5,1-1.9,1.3
			c-0.4,0.2-0.9,0.7-1.2,1L26,20.2l-0.1,0.1l-0.1,0.1L25.2,21c-2.6,2.3-4.8,4.9-6.6,7.8c-1.4,2.2-2.6,4.6-3.6,7.1
			c-0.1,0.2-1.2,3.1-1.2,3.2c-0.2,0.5-0.4,1.3-0.6,1.8c-0.2,0.7-0.4,1.5-0.6,2.2c-0.1,0.3-0.4,1.6-0.4,1.8c-0.1,0.6-0.2,1.3-0.3,1.8
			c-0.1,0.7-0.2,1.5-0.3,2.2c0,0.2-0.1,0.9-0.1,1.1c0,0.2-0.1,1.6-0.1,1.8c0,0.4,0,1,0,1.5c0,0.4,0,1,0.1,1.5c0,0.5,0.1,1,0.1,1.5
			c1.1,11.4,7.5,22.1,17.2,28.3c0.3,0.2,0.8,0.5,1.1,0.7l0.2,0.1l0.6,0.3c0.8,0.5,1.7,0.9,2.6,1.3c0.5,0.2,1.5,0.7,2,0.9
			c0.3,0.1,1,0.4,1.3,0.5c0.4,0.1,1,0.3,1.4,0.5c0.2,0.1,0.5,0.2,0.7,0.2c0.5,0.1,1.6,0.5,2.1,0.6c0.4,0.1,1,0.2,1.4,0.3
			c0.3,0.1,1.1,0.2,1.4,0.2c0.7,0.1,1.4,0.2,2.1,0.3c0.3,0,1.5,0.1,1.8,0.1c0.2,0,0.8,0,1.1,0c0.7,0,1.5,0,2.2,0
			c5-0.2,10.1-1.4,14.7-3.6c0.4-0.2,0.9-0.4,1.3-0.6l1.3-0.7c0.3-0.2,1.3-0.8,1.6-0.9c0.5-0.3,1.1-0.7,1.5-1
			c0.6-0.4,1.2-0.9,1.8-1.3l0.6-0.5c2.4-2,4.7-4.3,6.5-6.9c0.3-0.3,0.6-0.8,0.8-1.2c0.3-0.3,0.6-0.9,0.8-1.2
			c0.2-0.2,0.4-0.7,0.6-0.9c0.2-0.3,0.7-1.3,0.9-1.6c0.4-0.8,0.9-1.9,1.3-2.7c0.3-0.8,0.9-2,1.3-2.8c0.6-1.4,1.1-2.8,1.5-4.2
			l0.2-0.6l0.5-0.3l13.7-7.6v1.6c-3.9-2.6-8.4-5.6-12.3-8.2l-0.2-0.1l0-0.2c-0.5-3.7-1.5-7.4-3-10.8C81.8,25.2,74.4,18,65.4,14.3
			L65.4,14.3L65.4,14.3z M65.8,13.8c9,3.7,16.4,10.2,20.7,19c1.7,3.4,3.4,9.1,4.1,12.9l-0.2-0.4c4,2.3,7.9,4.8,11.8,7.2l1.3,0.8
			l-1.3,0.8L89,61.9l0.7-0.9c-0.2,1-0.5,2.1-0.8,3.1c-0.3,1-0.7,2-1.1,3c-0.5,1.4-1.2,3-1.7,4.4c-7.6,17-25.9,26.8-44.3,23.6
			c-3.8-0.6-7.5-1.9-11-3.5c-1-0.5-2-1-2.9-1.6c-0.1-0.1-0.8-0.4-0.9-0.5l-0.2-0.1l-0.3-0.2c-3.7-2.4-7-5.3-9.7-8.8
			c-0.3-0.3-0.7-0.9-1-1.3c-0.1-0.1-0.5-0.7-0.6-0.8L15,78.1l-0.2-0.3C10.5,71.5,8,64,7.8,56.4c0-0.5,0-1.1,0-1.6c0-0.5,0-1.2,0-1.6
			c0-0.5,0.1-1.1,0.1-1.6c0-0.3,0.2-1.7,0.2-2c0-0.3,0.1-0.9,0.2-1.2c0.1-0.8,0.3-1.6,0.4-2.4c0.1-0.6,0.3-1.3,0.5-1.9
			c0.1-0.3,0.5-1.6,0.6-1.9c0.2-0.7,0.6-1.5,0.8-2.2c0.2-0.5,0.6-1.3,0.8-1.8l0.2-0.3l1.3-2.8c1.2-2.5,2.6-4.9,4.2-7.2
			c0.4-0.5,0.8-1.1,1.2-1.6C29.6,12.2,49.2,6.9,65.8,13.8L65.8,13.8L65.8,13.8z"/>
	</g>
	<g>
		<path class="st4" d="M51.7,72.2c0,0.2-0.2,0.3-0.4,0.2c-0.4-0.2-0.7-0.4-1-0.6c-5.3-3.1-10.7-6.3-16-9.4c-0.7-0.4-1-0.8-1-1.6
			c0.1-5.3,0.2-10.7,0.3-16c0-0.5,0.3-1.1,0.7-1.4c5.9-3.7,11.8-7.2,17.7-10.8c0,0,0,0,0,0c0.2-0.1,0.3,0.1,0.3,0.2L51.7,72.2
			L51.7,72.2z"/>
		<path class="st4" d="M31,43.7c-0.1,6.2-0.2,12.3-0.3,18.5c-2,0-4,0-5.9-0.1c-1.5-0.1-2.7-1.6-2.6-3.1c0-4,0.1-8,0.2-12
			c0-1.8,1.5-3.2,3.4-3.3C27.4,43.5,29.1,43.7,31,43.7L31,43.7z"/>
		<path class="st4" d="M74.6,51.9c-0.5,5.3-2.3,9.8-5.1,13.7c-1.1,1.6-2.4,3.1-3.6,4.6c-0.8,1-1.7,1.8-2.7,0.5c-1-1.2-0.1-2.1,0.6-3
			c1.9-2.7,4-5.2,5.5-8.1c3.4-6.9,2.3-14-2.8-19.9c-0.7-0.8-1.5-1.5-2.2-2.2c-0.7-0.7-1.3-1.5-0.6-2.6c0.7-1.1,1.6-1,2.4-0.3
			c2.9,2.6,5.4,5.6,6.8,9.7C73.6,46.7,74,49.3,74.6,51.9L74.6,51.9z"/>
		<path class="st4" d="M64.6,51.9c0,4.1-1.8,7.4-4.2,10.5c-0.7,1-1.6,1.2-2.6,0.5c-1-0.8-0.8-1.7-0.2-2.7c1.1-1.8,2.3-3.5,3-5.5
			c1.3-3.9,0.3-7.5-2.3-10.6c-0.8-1-1.3-2-0.2-3c1.2-1,2.2-0.3,3,0.8C63.5,44.9,64.8,48.1,64.6,51.9z"/>
	</g>
</g>
</svg>
