<?xml version="1.0" encoding="utf-8"?>
<!-- Generator: Adobe Illustrator 27.2.0, SVG Export Plug-In . SVG Version: 6.00 Build 0)  -->
<svg class="pulsate-bck" version="1.1" id="Juego" xmlns="http://www.w3.org/2000/svg" xmlns:xlink="http://www.w3.org/1999/xlink" x="0px" y="0px"
	 viewBox="0 0 111.5 104.3" style="enable-background:new 0 0 111.5 104.3;" xml:space="preserve">
<style type="text/css">
	.st0{fill:#FFFFFF;}
	.st1{fill:#FF51FF;}
	.st2{fill:#002F70;}
	.classSvgAudio{
		animation: animate 3s linear infinite;
	}

	.classSvgAudio {
		animation-delay: 0.1s;
	}

	@keyframes animate {
		0%{
			filter: hue-rotate(0deg);
		}
		50% {
			filter: hue-rotate(-25deg);
		}
		100%{
			filter: hue-rotate(0deg);
		}
	}
	.classsSonidoJuego1{
		cursor: pointer;
	}
	.pulsate-bck {
		animation: pulsate-bck 0.5s ease-in-out 5 forwards;
		-webkit-animation: pulsate-bck 0.5s ease-in-out 5 forwards;
	}

			/* ----------------------------------------------
		* Generated by Animista on 2023-11-29 10:12:1
		* Licensed under FreeBSD License.
		* See http://animista.net/license for more info. 
		* w: http://animista.net, t: @cssanimista
		* ---------------------------------------------- */

		/**
		* ----------------------------------------
		* animation pulsate-bck
		* ----------------------------------------
		*/
		@-webkit-keyframes pulsate-bck {
		0% {
			-webkit-transform: scale(1);
					transform: scale(1);
		}
		50% {
			-webkit-transform: scale(0.9);
					transform: scale(0.9);
		}
		100% {
			-webkit-transform: scale(1);
					transform: scale(1);
		}
		}
		@keyframes pulsate-bck {
		0% {
			-webkit-transform: scale(1);
					transform: scale(1);
		}
		50% {
			-webkit-transform: scale(0.9);
					transform: scale(0.9);
		}
		100% {
			-webkit-transform: scale(1);
					transform: scale(1);
		}
		}
</style>
<g class="classsSonidoJuego1">
	<path class="st0 " d="M90.5,46L90,45.7L89.9,45c-0.3-1.6-0.7-3-1.1-4.4c-0.3-0.9-0.7-2.1-1.1-3c-0.3-0.9-0.7-2-1.1-2.9
		c-0.1-0.3-0.6-1.4-0.8-1.7c-0.1-0.2-0.4-0.8-0.5-1c-0.2-0.4-0.5-1-0.7-1.4c-0.2-0.4-0.5-1-0.7-1.3c-1.7-2.7-3.7-5.4-6-7.6l-0.5-0.5
		c-0.5-0.5-1.1-1-1.7-1.4c-0.4-0.4-1-0.8-1.5-1.2c-0.2-0.2-1.3-0.9-1.5-1.1l-1.3-0.8c-0.3-0.2-0.9-0.6-1.3-0.8
		c-4.5-2.6-9.6-4.2-14.7-4.8c-0.7-0.1-1.5-0.2-2.3-0.2c-0.3,0-0.9,0-1.1,0c-0.3,0-1.6,0-1.9,0c-0.7,0-1.5,0.1-2.2,0.1
		c-0.3,0-1.1,0.1-1.5,0.2c-0.4,0-1.1,0.1-1.4,0.2c-0.5,0.1-1.7,0.3-2.2,0.4c-0.2,0-0.5,0.1-0.7,0.2c-0.4,0.1-1.1,0.2-1.4,0.3
		c-0.3,0.1-1.1,0.3-1.4,0.4c-0.5,0.1-1.7,0.6-2.1,0.7c-0.9,0.4-1.9,0.7-2.7,1.2l-0.7,0.3l-0.1,0c-0.3,0.2-0.8,0.5-1.1,0.6
		c-10.6,5.7-18.2,16.1-20.5,27.9c-0.1,0.5-0.2,1-0.3,1.5c-0.1,0.5-0.2,1.1-0.2,1.5c-0.1,0.5-0.1,1.1-0.2,1.5c0,0.2-0.1,1.7-0.1,1.9
		c0,0.2,0,0.8,0,1.2c0,0.7,0.1,1.6,0.1,2.3c0,0.6,0.1,1.3,0.2,2c0,0.2,0.3,1.6,0.2,1.9c0.1,0.7,0.3,1.6,0.4,2.3
		c0.1,0.6,0.3,1.3,0.4,1.9c0.1,0.2,0.8,3.2,0.9,3.5c0.8,2.6,1.7,5.2,3,7.5c1.6,3.1,3.6,6,6.1,8.5l0.5,0.6l0.1,0.1l0.1,0.1l0.3,0.3
		c0.4,0.3,0.8,0.8,1.1,1.1c0.4,0.4,1.4,1.2,1.8,1.5c3.1,2.5,6.5,4.4,10.2,5.9c0.9,0.4,1.9,0.7,2.8,1l0.2,0l1.5,0.4
		c0.5,0.1,1.1,0.2,1.6,0.3c0.5,0.1,1.1,0.2,1.5,0.3s1.1,0.2,1.6,0.2c5.9,0.7,11.9,0,17.4-1.8l0,0l0,0c9.5-3.2,16.3-8.9,21.2-17.8
		c1.9-3.5,3.8-8.2,4.7-12l1.2-0.4l0.2-0.1c4.3-2.4,7.2-5.2,11.5-7.5L90.5,46z"/>
	<path class="st1 classSvgAudio" d="M65.4,14.3c-5.2-2.2-10.9-3.2-16.6-2.9c-0.4,0-1.1,0.1-1.5,0.1c-0.5,0.1-1,0.1-1.5,0.2
		c-0.5,0.1-1.1,0.1-1.5,0.2l-1.5,0.3h-0.2c-0.9,0.2-1.9,0.4-2.8,0.7c-3.7,1.1-7.2,2.7-10.4,4.9c-0.4,0.2-1.5,1-1.9,1.3
		c-0.4,0.2-0.9,0.7-1.2,1L26,20.2l-0.1,0.1l-0.1,0.1L25.2,21c-2.6,2.3-4.8,4.9-6.6,7.8C17.2,31,16,33.4,15,35.9
		c-0.1,0.2-1.2,3.1-1.2,3.2c-0.2,0.5-0.4,1.3-0.6,1.8c-0.2,0.7-0.4,1.5-0.6,2.2c-0.1,0.3-0.4,1.6-0.4,1.8c-0.1,0.6-0.2,1.3-0.3,1.8
		c-0.1,0.7-0.2,1.5-0.3,2.2c0,0.2-0.1,0.9-0.1,1.1c0,0.2-0.1,1.6-0.1,1.8c0,0.4,0,1,0,1.5c0,0.4,0,1,0.1,1.5c0,0.5,0.1,1,0.1,1.5
		c1.1,11.4,7.5,22.1,17.2,28.3c0.3,0.2,0.8,0.5,1.1,0.7l0.2,0.1l0.6,0.3c0.8,0.5,1.7,0.9,2.6,1.3c0.5,0.2,1.5,0.7,2,0.9
		c0.3,0.1,1,0.4,1.3,0.5c0.4,0.1,1,0.3,1.4,0.5c0.2,0.1,0.5,0.2,0.7,0.2c0.5,0.1,1.6,0.5,2.1,0.6c0.4,0.1,1,0.2,1.4,0.3
		c0.3,0.1,1.1,0.2,1.4,0.2c0.7,0.1,1.4,0.2,2.1,0.3c0.3,0,1.5,0.1,1.8,0.1c0.2,0,0.8,0,1.1,0c0.7,0,1.5,0,2.2,0
		c5-0.2,10.1-1.4,14.7-3.6c0.4-0.2,0.9-0.4,1.3-0.6l1.3-0.7c0.3-0.2,1.3-0.8,1.6-0.9c0.5-0.3,1.1-0.7,1.5-1c0.6-0.4,1.2-0.9,1.8-1.3
		l0.6-0.5c2.4-2,4.7-4.3,6.5-6.9c0.3-0.3,0.6-0.8,0.8-1.2c0.3-0.3,0.6-0.9,0.8-1.2c0.2-0.2,0.4-0.7,0.6-0.9c0.2-0.3,0.7-1.3,0.9-1.6
		c0.4-0.8,0.9-1.9,1.3-2.7c0.3-0.8,0.9-2,1.3-2.8c0.6-1.4,1.1-2.8,1.5-4.2l0.2-0.6l0.5-0.3l13.7-7.6v1.6c-3.9-2.6-8.4-5.6-12.3-8.2
		l-0.2-0.1v-0.2c-0.5-3.7-1.5-7.4-3-10.8C81.8,25.2,74.4,18,65.4,14.3L65.4,14.3L65.4,14.3z M65.8,13.8c9,3.7,16.4,10.2,20.7,19
		c1.7,3.4,3.4,9.1,4.1,12.9l-0.2-0.4c4,2.3,7.9,4.8,11.8,7.2l1.3,0.8l-1.3,0.8L89,61.9l0.7-0.9c-0.2,1-0.5,2.1-0.8,3.1s-0.7,2-1.1,3
		c-0.5,1.4-1.2,3-1.7,4.4c-7.6,17-25.9,26.8-44.3,23.6c-3.8-0.6-7.5-1.9-11-3.5c-1-0.5-2-1-2.9-1.6c-0.1-0.1-0.8-0.4-0.9-0.5
		l-0.2-0.1l-0.3-0.2c-3.7-2.4-7-5.3-9.7-8.8c-0.3-0.3-0.7-0.9-1-1.3c-0.1-0.1-0.5-0.7-0.6-0.8L15,78.1l-0.2-0.3
		C10.5,71.5,8,64,7.8,56.4c0-0.5,0-1.1,0-1.6s0-1.2,0-1.6c0-0.5,0.1-1.1,0.1-1.6c0-0.3,0.2-1.7,0.2-2s0.1-0.9,0.2-1.2
		c0.1-0.8,0.3-1.6,0.4-2.4c0.1-0.6,0.3-1.3,0.5-1.9c0.1-0.3,0.5-1.6,0.6-1.9c0.2-0.7,0.6-1.5,0.8-2.2c0.2-0.5,0.6-1.3,0.8-1.8
		l0.2-0.3l1.3-2.8c1.2-2.5,2.6-4.9,4.2-7.2c0.4-0.5,0.8-1.1,1.2-1.6C29.6,12.2,49.2,6.9,65.8,13.8L65.8,13.8L65.8,13.8z"/>
	<g>
		<path class="st2" d="M51.7,72.2c0,0.2-0.2,0.3-0.4,0.2c-0.4-0.2-0.7-0.4-1-0.6c-5.3-3.1-10.7-6.3-16-9.4c-0.7-0.4-1-0.8-1-1.6
			c0.1-5.3,0.2-10.7,0.3-16c0-0.5,0.3-1.1,0.7-1.4c5.9-3.7,11.8-7.2,17.7-10.8l0,0c0.2-0.1,0.3,0.1,0.3,0.2L51.7,72.2L51.7,72.2z"/>
		<path class="st2" d="M31,43.7c-0.1,6.2-0.2,12.3-0.3,18.5c-2,0-4,0-5.9-0.1c-1.5-0.1-2.7-1.6-2.6-3.1c0-4,0.1-8,0.2-12
			c0-1.8,1.5-3.2,3.4-3.3C27.4,43.5,29.1,43.7,31,43.7L31,43.7z"/>
		<path class="st2" d="M74.6,51.9c-0.5,5.3-2.3,9.8-5.1,13.7c-1.1,1.6-2.4,3.1-3.6,4.6c-0.8,1-1.7,1.8-2.7,0.5c-1-1.2-0.1-2.1,0.6-3
			c1.9-2.7,4-5.2,5.5-8.1c3.4-6.9,2.3-14-2.8-19.9c-0.7-0.8-1.5-1.5-2.2-2.2c-0.7-0.7-1.3-1.5-0.6-2.6c0.7-1.1,1.6-1,2.4-0.3
			c2.9,2.6,5.4,5.6,6.8,9.7C73.6,46.7,74,49.3,74.6,51.9L74.6,51.9z"/>
		<path class="st2" d="M64.6,51.9c0,4.1-1.8,7.4-4.2,10.5c-0.7,1-1.6,1.2-2.6,0.5c-1-0.8-0.8-1.7-0.2-2.7c1.1-1.8,2.3-3.5,3-5.5
			c1.3-3.9,0.3-7.5-2.3-10.6c-0.8-1-1.3-2-0.2-3c1.2-1,2.2-0.3,3,0.8C63.5,44.9,64.8,48.1,64.6,51.9z"/>
	</g>
</g>
</svg>
