<?xml version="1.0" encoding="utf-8"?>
<!-- Generator: Adobe Illustrator 27.2.0, SVG Export Plug-In . SVG Version: 6.00 Build 0)  -->
<svg version="1.1" id="Juego" xmlns="http://www.w3.org/2000/svg" xmlns:xlink="http://www.w3.org/1999/xlink" x="0px" y="0px"
	 viewBox="0 0 129.1 131" style="enable-background:new 0 0 129.1 131;" xml:space="preserve">
<style type="text/css">
	.st0{fill:#FFFFFF;}
	.st1{fill:none;stroke:#69FFF4;stroke-miterlimit:10;}
	.st2{fill:none;stroke:#FFFFFF;stroke-width:0.5;stroke-miterlimit:10;}
	.st3{fill:#45FF00;}
	.st4{fill:#002F70;}
</style>
<g>
	<g>
		<g>
			<path class="st0" d="M35.2,112.7c-25.2-15.5-33-48.4-17.6-73.6l2.4-3.9c15.5-25.2,48.4-33,73.6-17.6s33,48.4,17.6,73.6l-2.4,3.9
				c-1.3,2.1-2.7,4.1-4.3,6l1.7,21.2l-18.5-7.6C71.7,123,51.8,122.9,35.2,112.7z"/>
			<g>
				<g>
					<g>
						<g>
							<path class="st1" d="M35.7,113.1C10.4,97.5,2.5,64.4,18,39.2l2.4-3.9C36,10,69,2,94.3,17.6s33.2,48.6,17.7,73.9l-2.4,3.9
								c-1.3,2.1-2.8,4.1-4.3,6l1.8,21.3L88.4,115C72.3,123.3,52.3,123.2,35.7,113.1L35.7,113.1z"/>
							<path class="st2" d="M35.7,113.1C10.4,97.5,2.5,64.4,18,39.2l2.4-3.9C36,10,69,2,94.3,17.6s33.2,48.6,17.7,73.9l-2.4,3.9
								c-1.3,2.1-2.8,4.1-4.3,6l1.8,21.3L88.4,115C72.3,123.3,52.3,123.2,35.7,113.1L35.7,113.1z"/>
						</g>
						<g>
							<path class="st1" d="M35.7,113.1C10.4,97.5,2.5,64.4,18,39.2l2.4-3.9C36,10,69,2,94.3,17.6s33.2,48.6,17.7,73.9l-2.4,3.9
								c-1.3,2.1-2.8,4.1-4.3,6l1.8,21.3L88.4,115C72.3,123.3,52.3,123.2,35.7,113.1L35.7,113.1z"/>
							<path class="st2" d="M35.7,113.1C10.4,97.5,2.5,64.4,18,39.2l2.4-3.9C36,10,69,2,94.3,17.6s33.2,48.6,17.7,73.9l-2.4,3.9
								c-1.3,2.1-2.8,4.1-4.3,6l1.8,21.3L88.4,115C72.3,123.3,52.3,123.2,35.7,113.1L35.7,113.1z"/>
						</g>
						<g>
							<path class="st1" d="M35.7,113.1C10.4,97.5,2.5,64.4,18,39.2l2.4-3.9C36,10,69,2,94.3,17.6s33.2,48.6,17.7,73.9l-2.4,3.9
								c-1.3,2.1-2.8,4.1-4.3,6l1.8,21.3L88.4,115C72.3,123.3,52.3,123.2,35.7,113.1L35.7,113.1z"/>
							<path class="st2" d="M35.7,113.1C10.4,97.5,2.5,64.4,18,39.2l2.4-3.9C36,10,69,2,94.3,17.6s33.2,48.6,17.7,73.9l-2.4,3.9
								c-1.3,2.1-2.8,4.1-4.3,6l1.8,21.3L88.4,115C72.3,123.3,52.3,123.2,35.7,113.1L35.7,113.1z"/>
						</g>
					</g>
					<g>
						<path class="st1" d="M35.7,113.1C10.4,97.5,2.5,64.4,18,39.2l2.4-3.9C36,10,69,2,94.3,17.6s33.2,48.6,17.7,73.9l-2.4,3.9
							c-1.3,2.1-2.8,4.1-4.3,6l1.8,21.3L88.4,115C72.3,123.3,52.3,123.2,35.7,113.1L35.7,113.1z"/>
						<path class="st2" d="M35.7,113.1C10.4,97.5,2.5,64.4,18,39.2l2.4-3.9C36,10,69,2,94.3,17.6s33.2,48.6,17.7,73.9l-2.4,3.9
							c-1.3,2.1-2.8,4.1-4.3,6l1.8,21.3L88.4,115C72.3,123.3,52.3,123.2,35.7,113.1L35.7,113.1z"/>
					</g>
				</g>
				<g>
					<g>
						<path class="st1" d="M35.7,113.1C10.4,97.5,2.5,64.4,18,39.2l2.4-3.9C36,10,69,2,94.3,17.6s33.2,48.6,17.7,73.9l-2.4,3.9
							c-1.3,2.1-2.8,4.1-4.3,6l1.8,21.3L88.4,115C72.3,123.3,52.3,123.2,35.7,113.1L35.7,113.1z"/>
						<path class="st2" d="M35.7,113.1C10.4,97.5,2.5,64.4,18,39.2l2.4-3.9C36,10,69,2,94.3,17.6s33.2,48.6,17.7,73.9l-2.4,3.9
							c-1.3,2.1-2.8,4.1-4.3,6l1.8,21.3L88.4,115C72.3,123.3,52.3,123.2,35.7,113.1L35.7,113.1z"/>
					</g>
					<g>
						<path class="st1" d="M35.7,113.1C10.4,97.5,2.5,64.4,18,39.2l2.4-3.9C36,10,69,2,94.3,17.6s33.2,48.6,17.7,73.9l-2.4,3.9
							c-1.3,2.1-2.8,4.1-4.3,6l1.8,21.3L88.4,115C72.3,123.3,52.3,123.2,35.7,113.1L35.7,113.1z"/>
						<path class="st2" d="M35.7,113.1C10.4,97.5,2.5,64.4,18,39.2l2.4-3.9C36,10,69,2,94.3,17.6s33.2,48.6,17.7,73.9l-2.4,3.9
							c-1.3,2.1-2.8,4.1-4.3,6l1.8,21.3L88.4,115C72.3,123.3,52.3,123.2,35.7,113.1L35.7,113.1z"/>
					</g>
				</g>
			</g>
		</g>
		<path class="st3" d="M36.3,112.4c10.8,6.5,24.2,8.7,36.5,5.9c4.8-1.1,9.4-2.8,13.7-5.2l0.3-0.2l0.3,0.1c5.7,2.1,12.4,4.5,18.1,6.6
			l-1.7,1.3l-2.6-20.3l-0.1-0.7l0.5-0.7c1.2-1.6,2.2-3.2,3.2-4.8c0.6-1,1.4-2.5,1.9-3.5c0.6-1,1.3-2.4,1.8-3.5
			c0.2-0.4,0.8-1.8,1-2.2c0.1-0.3,0.4-1,0.5-1.3c0.2-0.5,0.5-1.3,0.7-1.8c0.2-0.5,0.5-1.3,0.6-1.8c1.2-3.9,2-8.1,2.2-12.2l0-0.9
			c0.1-0.9,0-1.9,0-2.8c0-0.7-0.1-1.6-0.1-2.4c0-0.4-0.2-2-0.2-2.4l-0.3-1.9c-0.1-0.5-0.2-1.3-0.3-1.9c-1.3-6.5-3.9-12.7-7.6-18.1
			c-0.5-0.7-1.1-1.6-1.7-2.3c-0.2-0.3-0.7-0.9-0.9-1.1c-0.2-0.3-1.3-1.5-1.5-1.8c-0.6-0.7-1.3-1.4-1.9-2c-0.3-0.3-1-1-1.4-1.3
			c-0.4-0.4-1-0.9-1.4-1.2c-0.5-0.4-1.7-1.4-2.2-1.8c-0.2-0.2-0.5-0.4-0.8-0.5c-0.4-0.3-1.1-0.8-1.5-1.1c-0.4-0.2-1.2-0.8-1.6-1
			c-0.5-0.4-1.9-1.1-2.4-1.4c-1.1-0.6-2.2-1.2-3.4-1.6l-0.9-0.4L83,20.1c-0.4-0.1-1.1-0.4-1.5-0.6c-14-5.4-30.1-3.9-43,3.8
			c-0.6,0.3-1.1,0.7-1.6,1c-0.5,0.3-1.2,0.8-1.6,1.1c-0.5,0.3-1.1,0.8-1.6,1.1c-0.2,0.2-1.7,1.3-1.9,1.5c-0.2,0.2-0.8,0.7-1.1,1
			c-0.7,0.6-1.4,1.4-2.1,2c-0.5,0.5-1.1,1.2-1.7,1.8c-0.2,0.2-1.3,1.6-1.6,1.8c-0.6,0.7-1.2,1.6-1.8,2.3c-0.4,0.6-1,1.4-1.4,2
			c-0.1,0.2-2.3,3.5-2.5,3.8c-1.8,2.9-3.4,6-4.6,9.2c-1.6,4.2-2.6,8.5-3,13l-0.1,1l0,0.2v0.2l0,0.5c0,0.6-0.1,1.4-0.1,2
			c0,0.7,0,2.4,0.1,3c0.2,5,1.2,10,2.9,14.7c0.4,1.2,0.9,2.4,1.4,3.5l0.1,0.2l0.9,1.8c0.3,0.5,0.7,1.2,1,1.8c0.3,0.6,0.7,1.2,1,1.7
			c0.3,0.5,0.7,1.2,1.1,1.7C24.5,103.5,30,108.6,36.3,112.4L36.3,112.4L36.3,112.4z M36.1,113.1C16,101.1,6.4,76.4,12.3,53.7
			c0.2-0.8,0.5-1.7,0.7-2.5c1.1-3.4,2.5-6.8,4.3-10l2-3.5l0.2-0.4c0.4-0.6,0.9-1.6,1.3-2.2c0.5-0.8,1.1-1.8,1.7-2.6
			c0.3-0.3,1.3-1.8,1.6-2.1c0.5-0.6,1.1-1.4,1.7-2c0.7-0.8,1.4-1.6,2.1-2.3c0.2-0.2,0.9-0.9,1.1-1.1c0.3-0.3,1.6-1.5,1.9-1.8
			c0.5-0.4,1.1-1,1.6-1.4c0.5-0.4,1.2-0.9,1.7-1.3c0.6-0.4,1.1-0.9,1.7-1.2c8.2-5.6,18-8.8,27.9-9.2l0.5,0h0.3c0.2,0,1.1,0,1.3,0
			c0.6,0,1.5,0,2.1,0c5.7,0.2,11.4,1.4,16.7,3.4l0.5,0.2l0.2,0.1c0.2,0.1,1.1,0.4,1.2,0.5c1.3,0.5,2.6,1.2,3.9,1.8
			c4.4,2.4,8.6,5.3,12.2,8.8c17.6,16.8,21.6,43.6,9.6,64.8c-1,1.7-2.2,3.6-3.3,5.2c-0.7,1.2-1.5,2.4-2.3,3.4
			c-0.8,1.1-1.7,2.2-2.6,3.3l0.4-1.4l1.9,19.9l0.1,2.1l-1.8-0.8c-5.5-2.4-11.2-4.5-16.7-6.9l0.6,0c-4.5,2.2-11.8,4.8-16.7,5.7
			C59.6,122.5,47,119.7,36.1,113.1L36.1,113.1L36.1,113.1z"/>
	</g>
	<g>
		<path class="st4" d="M68,90.6c0,0.2-0.3,0.4-0.5,0.3c-0.5-0.2-0.9-0.5-1.4-0.7c-7-3.9-14-7.9-21.1-11.8c-0.9-0.5-1.3-1-1.3-2.1
			c0-7,0-14,0-21c0-0.6,0.4-1.5,0.8-1.8c7.6-4.9,15.2-9.7,22.9-14.6c0,0,0,0,0,0c0.2-0.1,0.4,0.1,0.4,0.3L68,90.6L68,90.6z"/>
		<path class="st4" d="M40.3,54v24.1c-2.6,0-5.2,0.1-7.7,0c-1.9-0.1-3.5-2.1-3.5-4C29,68.8,29,63.5,29,58.3c0-2.3,1.8-4.2,4.3-4.3
			C35.6,53.8,37.8,54,40.3,54L40.3,54z"/>
		<path class="st4" d="M97.3,63.6c-0.6,6.9-2.8,12.8-6.3,18c-1.4,2.1-3,4.1-4.6,6.1c-1,1.3-2.2,2.4-3.6,0.8c-1.3-1.6-0.2-2.7,0.7-4
			c2.4-3.5,5.1-6.8,7-10.7c4.3-9.1,2.7-18.3-4.2-25.9c-0.9-1-1.9-1.9-2.9-2.8c-0.9-0.9-1.7-1.9-0.8-3.3c0.9-1.5,2.1-1.3,3.1-0.4
			c3.9,3.3,7.2,7.2,9,12.5C96,56.9,96.5,60.3,97.3,63.6L97.3,63.6z"/>
		<path class="st4" d="M84.3,63.9c0.2,5.3-2.2,9.7-5.2,13.9c-0.9,1.3-2.1,1.6-3.4,0.7c-1.3-1-1-2.2-0.3-3.5c1.3-2.3,2.9-4.7,3.7-7.2
			c1.6-5.1,0.3-9.8-3.2-13.8c-1.1-1.3-1.8-2.6-0.4-3.9c1.6-1.4,2.9-0.4,4,0.9C82.7,54.7,84.5,59,84.3,63.9L84.3,63.9z"/>
	</g>
</g>
</svg>
