<?xml version="1.0" encoding="UTF-8"?>
<svg xmlns="http://www.w3.org/2000/svg" xmlns:xlink="http://www.w3.org/1999/xlink" viewBox="0 0 315.16 118.74">
  <defs>
    <style>
      .cls-1 {
        fill: #fff;
      }

      .cls-2 {
        fill: url(#Degradado_sin_nombre_4);
        stroke: #fff;
        stroke-miterlimit: 10;
        stroke-width: 2px;
        cursor: pointer;
      }

      .cls-3 {
        clip-path: url(#clippath);
      }

      .cls-4 {
        fill: none;
      }
      .classText{
        fill: white;
        font-size: 50px;
        font-family: ; /*fira sans medium italic*/
        cursor: pointer;
      }
    </style>
    <clipPath id="clippath">
      <rect class="cls-4" x="-1640.08" y="-348.38" width="1611.28" height="914.02"/>
    </clipPath>
    <linearGradient id="Degradado_sin_nombre_4" data-name="Degradado sin nombre 4" x1="5211.31" y1="13459.83" x2="5679.88" y2="13459.83" gradientTransform="translate(-5188.32 -13413) rotate(.3)" gradientUnits="userSpaceOnUse">
      <stop offset="0" stop-color="#c204af"/>
      <stop offset="0" stop-color="#c103af"/>
      <stop offset=".29" stop-color="#9d02c0"/>
      <stop offset=".56" stop-color="#8401cc"/>
      <stop offset=".81" stop-color="#7400d3"/>
      <stop offset="1" stop-color="#6f00d6"/>
    </linearGradient>
  </defs>
  <g id="Capa_3" data-name="Capa 3">
    <g>
      <path class="cls-2" d="m277.77,117.78l-240.82-.06c-9.2-.05-17.35-5.96-20.26-14.69L2.27,59.66c-4.64-13.94,5.79-28.31,20.48-28.24l270.11,1.87c14.69.08,24.97,14.56,20.18,28.45l-14.88,43.22c-3,8.7-11.2,12.86-20.4,12.81Z"/>
      <g>
        <path d="m76.72,2.75c-.24.88-.23,1.6.97,1.68.15.01.4.31.4.48,0,.69.38.87.97.96.2.03.51.32.53.51.05.66.38.89.99.96.17.02.32.28.46.46.35.45.69.91,1.18,1.25.18.89.64,1.4,1.74,1.23-.05,1.02.33,1.63,1.45,1.49.05.46.1.85.15,1.3.4.06.79.12,1.24.2.07.39.14.8.23,1.29.39.05.78.09,1.23.15.13.76.05,1.77,1.41,1.32.06.98.25,1.79,1.48,1.54.05.46.09.85.15,1.3.43.08.84.16,1.3.24.05.4.09.79.14,1.23.42.06.8.12,1.27.19.07.83.23,1.67,1.48,1.38.03.87.1,1.63,1.18,1.64.12,0,.21.45.35.66.16.24.34.6.56.63.6.09.95.29,1,.95.01.19.34.36.52.54.29.29.54.68.89.86,1.05.54,1.27,2.07,2.64,2.19.04,0,.08.02.2.06,0,.89.31,1.57,1.47,1.39.05.46.09.84.14,1.29.42.08.84.16,1.29.24.05.4.1.79.15,1.23.41.06.8.12,1.26.19.08.83.13,1.77,1.46,1.34.06.53.1.92.15,1.37.41.06.79.12,1.25.2.07.39.14.8.23,1.28.4.06.78.11,1.24.17.09.78.12,1.69,1.39,1.36.12.87.21,1.78,1.49,1.47.06.84.08,1.64,1.17,1.63.11,0,.24.34.34.54.12.23.2.67.34.69.76.11,1.28.38,1.28,1.24,0,.06.08.18.13.18,1.81.24,1.14,1.77,1.46,2.74.39.3,1.05.55,1.1.88.15,1.14.09,2.3.1,3.45,0,.06-.09.18-.14.18-1.57-.13-2.77,1.09-4.2,1.23-1.94.18-3.92.02-5.88.02-1.48,0-1.54.07-1.54,1.57-.07,13.56-.14,27.12-.22,40.68,0,.71.2,1.44-.83,1.87-.37.15-.34,1.28-.47,1.97-.05.23-.04.47-.06.75-.44.05-.82.09-1.28.15-.07.41-.14.82-.23,1.33-22.3-.12-44.59-.23-66.92-.35-.08-.47-.14-.86-.22-1.28-.4-.08-.77-.15-1.2-.23-.08-.65-.1-1.29-.26-1.89-.1-.38-.43-.7-.65-1.06-.15-.25-.34-.51-.39-.79-.07-.35-.02-.72-.02-1.08.07-13.36.14-26.72.21-40.08,0-1.9-.04-1.94-1.95-1.96-1.92-.01-3.84.02-5.76-.06-.42-.02-.82-.41-1.24-.62-.26-.13-.51-.33-.79-.38-.62-.12-1.26-.16-2.01-.25l.02-4.08c1.08,0,1.37-.59,1.33-1.53-.04-.95.25-1.72,1.47-1.61.06-.41.11-.76.17-1.17.42-.1.83-.19,1.28-.3.06-.37.11-.72.17-1.14.41-.1.82-.19,1.27-.3.06-.44.11-.86.17-1.32.46-.06.89-.11,1.33-.16.09-.42.18-.81.28-1.25.38-.06.76-.13,1.17-.2.09-.41.18-.79.28-1.23.38-.06.76-.13,1.17-.2.09-.4.18-.79.28-1.23.38-.07.75-.13,1.17-.2.09-.4.18-.78.28-1.24.91-.01,1.62-.3,1.53-.98.71-.7,1.19-1.18,1.67-1.66,0,0,0,0,0,0,.48-.48.96-.96,1.44-1.44.7-.25,1.35-.56,1.16-1.72.98.03,1.64-.27,1.45-1.42.89-.08,1.77-.16,1.39-1.41.52-.13.94-.23,1.4-.35.06-.34.12-.69.19-1.11.38-.1.8-.2,1.26-.32.07-.37.14-.75.21-1.15.42-.09.8-.17,1.24-.26.06-.43.12-.85.19-1.34.43-.04.85-.08,1.31-.13.1-.42.19-.8.3-1.25.36-.07.74-.14,1.16-.22.09-.38.18-.76.29-1.21.35-.07.73-.14,1.16-.22.09-.37.18-.75.19-.81.71-.63,1.23-1.09,1.74-1.54-.09-.1-.18-.21-.28-.31.98-.02,1.71-.29,1.53-1.51,1.08.13,1.56-.35,1.46-1.43,1.07.13,1.55-.35,1.44-1.43.97.03,1.65-.25,1.45-1.42.96.01,1.65-.26,1.45-1.43.95,0,1.67-.25,1.44-1.42.47-.12.88-.22,1.34-.34.07-.37.14-.75.21-1.15.42-.09.8-.17,1.23-.26.07-.39.14-.77.22-1.2,1.22,0,5.42-3.2,5-4.37,2.88.02,2.03,2.68,4.92,2.69Zm28.79,96.26c.08-16.01.17-31.91.25-47.94l11.69.06c.39-2.27.15-2.9-1.3-3.23.23-1.05-.44-1.35-1.41-1.37.12-1.07-.34-1.56-.9-1.5-.71-.72-1.18-1.2-1.88-1.91.1-.68-.61-.98-1.52-1-.1-.46-.18-.84-.27-1.24-.41-.08-.79-.15-1.17-.22-.1-.44-.18-.83-.27-1.23-.41-.07-.79-.14-1.17-.21-.09-.44-.18-.83-.27-1.25-.45-.06-.87-.11-1.32-.17-.06-.46-.12-.88-.18-1.31-.45-.04-.84-.08-1.26-.11-.06-.48-.11-.91-.16-1.34-.45-.11-.87-.22-1.27-.32-.06-.42-.11-.77-.17-1.14-.45-.1-.86-.2-1.27-.3-.07-.41-.13-.76-.19-1.12-.44-.12-.85-.23-1.32-.36.24-1.16-.45-1.43-1.42-1.43.19-1.15-.44-1.48-1.44-1.43.13-1.11-.48-1.47-1.45-1.48.18-1.14-.42-1.5-1.42-1.45.14-1.12-.4-1.53-1.44-1.42-.03-.95-.34-1.62-1.39-1.46-.12-.5-.22-.91-.33-1.34-.4-.05-.74-.09-1.16-.13.06-1.05-.47-1.53-1.41-1.5-.11-.47-.2-.85-.29-1.24-.47-.06-.89-.11-1.31-.17-.07-.5-.12-.92-.18-1.34-.45-.1-.83-.19-1.24-.28-.07-.41-.14-.79-.2-1.17-.44-.1-.82-.18-1.23-.27-.07-.41-.14-.79-.2-1.17-.43-.09-.82-.17-1.28-.27.15-1.05-.47-1.41-1.46-1.43.21-1.17-.47-1.51-1.47-1.53.26-1.23-.57-1.36-1.51-1.45.41-1.3-.62-1.26-1.43-1.51.41-1.28-.56-1.27-1.37-1.43.25-1.34-.7-1.31-1.52-1.37-.11-.44-.21-.81-.29-1.15-2.53-.28-2.56-.27-2.97,1.17-1.09-.23-1.44.43-1.43,1.36-.47.07-.85.12-1.24.17-.09.48-.16.89-.25,1.36-1.2-.25-1.4.49-1.4,1.42-1.14-.19-1.51.38-1.4,1.47-.97-.17-1.58.09-1.6,1.11,0,.13-.36.24-.52.38-.29.25-.56.52-.84.78-.23.22-.46.44-.69.66-.25.24-.52.48-.75.74-.17.19-.25.47-.44.63-.47.39-.97.72-1.47,1.08l.26.35c-1.24-.15-1.4.68-1.46,1.62-1.23-.3-1.41.47-1.42,1.33-.49.08-.91.16-1.3.22-.07.47-.13.85-.19,1.23-.45.06-.84.11-1.23.16-.09.47-.17.89-.25,1.36-1.21-.28-1.39.48-1.4,1.42-1.15-.21-1.51.37-1.42,1.34-.49.09-.91.16-1.33.23-.06.45-.1.84-.16,1.3-1.17-.2-1.47.5-1.49,1.47-1.23-.26-1.4.5-1.41,1.08-.6.39-1.24.58-1.38.96-.21.54-.33.91-.98.98-.2.02-.36.42-.55.63-.24.26-.5.49-.74.74-.24.25-.49.51-.71.78-.14.17-.24.55-.35.55-1.08,0-1.25.74-1.28,1.65-1.21-.27-1.45.43-1.43,1.48-1.41-.52-1.34.57-1.51,1.31-.46.07-.85.12-1.26.18-.05.44-.1.83-.15,1.23-.47.08-.89.15-1.3.23-.06.46-.11.84-.17,1.29-1.1-.18-1.52.34-1.39,1.43-1.19-.22-1.53.45-1.51,1.39-.47.06-.85.11-1.25.16-.09.48-.16.89-.25,1.36-1.17-.23-1.42.46-1.4,1.35-.46.09-.84.16-1.29.24l-.02,3,11.73.06c-.08,16.04-.17,31.94-.25,47.94,1.21-.15,1.6.42,1.56,1.44l63.85.34c.08-.51.13-.89.2-1.32.43-.06.82-.1,1.41-.18Z"/>
        <path class="cls-1" d="m105.51,99.02c-.59.08-.98.12-1.41.18-.06.43-.12.81-.2,1.32l-63.85-.34c.05-1.02-.35-1.59-1.56-1.44.08-16,.17-31.9.25-47.94l-11.73-.06.02-3c.45-.08.83-.15,1.29-.24-.03-.89.23-1.58,1.4-1.35.09-.46.16-.88.25-1.36.39-.05.78-.1,1.25-.16-.02-.94.32-1.61,1.51-1.39-.13-1.09.29-1.61,1.39-1.43.06-.45.11-.84.17-1.29.41-.07.83-.14,1.3-.23.05-.4.1-.78.15-1.23.41-.06.8-.11,1.26-.18.17-.74.1-1.82,1.51-1.31-.02-1.06.22-1.76,1.43-1.48.02-.9.19-1.65,1.28-1.65.12,0,.21-.37.35-.55.22-.27.47-.52.71-.78.24-.25.5-.49.74-.74.19-.21.35-.61.55-.63.65-.07.77-.44.98-.98.15-.38.78-.57,1.38-.96.01-.58.19-1.34,1.41-1.08.02-.97.32-1.68,1.49-1.47.06-.46.1-.84.16-1.3.42-.07.84-.15,1.33-.23-.09-.97.27-1.55,1.42-1.34,0-.94.19-1.7,1.4-1.42.09-.47.16-.88.25-1.36.39-.05.78-.1,1.23-.16.06-.38.12-.77.19-1.23.39-.07.81-.14,1.3-.22.01-.86.19-1.62,1.42-1.33.06-.93.22-1.76,1.46-1.62l-.26-.35c.49-.36,1-.69,1.47-1.08.19-.16.27-.44.44-.63.23-.26.49-.5.75-.74.23-.22.46-.44.69-.66.28-.26.55-.53.84-.78.17-.14.52-.25.52-.38.03-1.02.64-1.28,1.6-1.11-.11-1.09.26-1.66,1.4-1.47,0-.93.21-1.67,1.4-1.42.09-.47.16-.88.25-1.36.38-.05.77-.11,1.24-.17,0-.93.34-1.59,1.43-1.36.41-1.45.44-1.46,2.97-1.17.09.34.18.71.29,1.15.82.05,1.77.03,1.52,1.37.81.16,1.78.15,1.37,1.43.82.24,1.84.21,1.43,1.51.94.09,1.77.22,1.51,1.45.99.03,1.68.36,1.47,1.53.98.02,1.6.38,1.46,1.43.46.1.85.18,1.28.27.07.39.13.77.2,1.17.41.09.79.18,1.23.27.07.38.13.76.2,1.17.4.09.79.18,1.24.28.06.42.11.84.18,1.34.41.05.83.11,1.31.17.09.39.18.77.29,1.24.94-.03,1.47.46,1.41,1.5.41.05.76.09,1.16.13.11.44.21.85.33,1.34,1.05-.16,1.36.51,1.39,1.46,1.03-.11,1.57.31,1.44,1.42,1-.05,1.6.31,1.42,1.45.97,0,1.59.37,1.45,1.48,1-.05,1.63.28,1.44,1.43.97,0,1.66.27,1.42,1.43.47.13.88.24,1.32.36.06.36.12.71.19,1.12.41.1.82.19,1.27.3.05.37.11.72.17,1.14.4.1.81.2,1.27.32.05.44.1.86.16,1.34.42.04.81.07,1.26.11.06.43.12.85.18,1.31.45.06.87.11,1.32.17.09.42.17.81.27,1.25.38.07.76.14,1.17.21.09.4.17.79.27,1.23.37.07.75.14,1.17.22.09.4.17.79.27,1.24.91.02,1.62.32,1.52,1,.7.71,1.17,1.19,1.88,1.91.56-.06,1.03.43.9,1.5.97.01,1.65.32,1.41,1.37,1.45.33,1.69.95,1.3,3.23l-11.69-.06c-.08,16.04-.17,31.93-.25,47.94ZM53.38,34.82c-.08.55-.15.97-.21,1.36-.47.05-.85.09-1.24.14-.06.51-.11.93-.16,1.34-1.95.23-.96,1.98-1.58,2.87-.38.04-.77.08-1.29.14l-.02,4.12c-.53.06-.91.11-1.46.17-.02,3.41-.04,6.79-.05,10.12-.54.13-.92.23-1.32.32,0,1.35-.01,2.61-.02,3.91.46.09.84.16,1.36.25-.01,2.42-.03,4.79-.04,7.17.54.08.92.14,1.43.21v2.74c.53.08.95.14,1.36.19.07.49.13.92.18,1.32.44.11.82.21,1.15.3.13.9.26,1.72.38,2.52.46.07.85.13,1.23.18.09.44.16.83.25,1.27.87.08,1.74.16,2.6.24.05.45.1.85.15,1.28.46.05.88.1,1.32.15.07.47.13.88.2,1.41l4.15.02c.06.53.1.94.15,1.35,6.82.04,13.56.07,20.27.11.08-.53.13-.91.2-1.39h2.79c.09-.5.16-.91.23-1.32.95-.06,1.82-.11,2.68-.16.05-.47.09-.86.14-1.3.48-.05.9-.09,1.32-.13.08-.47.16-.88.23-1.27.47-.06.86-.11,1.22-.15.08-.48.16-.9.22-1.29.47-.08.85-.14,1.23-.2.07-.46.13-.84.19-1.23.47-.07.88-.14,1.29-.21.09-.49.16-.91.23-1.31.43-.06.77-.12,1.17-.18.09-.94.18-1.84.27-2.72.45-.1.83-.19,1.4-.32,0-1.58,0-3.14.04-4.69,0-.32.12-.86.31-.92,1.63-.57.82-1.83,1.05-2.81-.55-.11-.92-.19-1.47-.3.01-2.32.02-4.59.04-6.86-.56-.12-.93-.2-1.32-.28-.08-.92-.16-1.79-.25-2.67-.43-.11-.8-.2-1.16-.28-.08-.5-.14-.92-.21-1.32-.49-.1-.9-.18-1.3-.26-.07-.51-.14-.93-.2-1.35-.42-.06-.77-.11-1.14-.16-.08-.45-.16-.87-.24-1.28-.4-.09-.74-.17-1.13-.25.08-1.12-.59-1.39-1.54-1.31-.07-.47-.13-.89-.19-1.35-.48-.03-.91-.06-1.39-.09-.04-.48-.08-.9-.11-1.33-.95-.07-1.82-.13-2.7-.2-.05-.47-.08-.85-.13-1.35h-2.76c-.09-.55-.17-.96-.26-1.48l-5.54-.03c-.08-.51-.14-.9-.21-1.35l-4.31-.02c-.09.48-.17.89-.27,1.43l-5.51-.03c-.05.53-.09.92-.13,1.35-.51.05-.97.09-1.43.13-.11.45-.21.82-.34,1.32-2.32-.46-2.71,1.02-2.69,2.79-.51.08-.89.13-1.3.19-.07.46-.13.88-.2,1.32-.43.07-.81.14-1.34.23,0,.78.07,1.55-.04,2.28-.09.59-.28,1.51-.64,1.63-.83.27-.78.77-.79,1.37-.02,2.92-.03,5.84-.05,8.76,0,.58,0,1.17,0,1.71.59.11.96.18,1.36.26.04.94.08,1.81.12,2.72.44.07.83.13,1.26.2.09.93.18,1.82.26,2.69.49.08.87.15,1.28.22.07.46.14.88.2,1.28.45.07.84.13,1.27.19.06.41.12.79.19,1.21.91.09,1.78.18,2.69.28.05.46.09.88.14,1.36.95.05,1.85.1,2.72.15.06.51.11.89.16,1.31l11.57.06c.12-.49.21-.89.3-1.27.91-.07,1.74-.14,2.56-.21.08-.51.15-.93.21-1.32.49-.07.91-.13,1.32-.19.06-.47.11-.86.15-1.23.47-.08.89-.14,1.29-.21.06-.5.11-.93.16-1.38.44-.08.82-.14,1.22-.21.07-.93.14-1.8.21-2.69.44-.05.82-.1,1.3-.16.02-4.26.04-8.48.07-12.69-.51-.12-.92-.21-1.31-.3-.05-.56-.09-1.03-.14-1.54-1.98,0-1.02-1.73-1.52-2.47-.92-.71-2.67.21-2.72-1.73-.51-.06-.97-.12-1.5-.18-.02-1.38-1.07-1.31-1.96-1.35-1.8-.08-3.6-.08-5.4-.1-1.9-.02-3.8-.02-5.68-.03-.08.63-.13,1.01-.18,1.38q-2.56.27-3.03,2.78c-.35.07-.73.14-1.19.23l-.04,7.25c.53.09.95.15,1.35.22.03.47.06.86.1,1.31.46.05.88.09,1.29.13.07.5.13.91.18,1.31.47.04.86.08,1.3.12.03.47.06.88.1,1.42h2.77c.06.53.1.92.16,1.41,1.24,0,2.43.01,3.63.02s2.37.01,3.55.02c.08-.55.14-.94.2-1.34.45-.05.84-.09,1.37-.15,0-1.44.02-2.88.02-4.31,0-.76.27-1.68-.98-1.79-.13-.01-.26-.36-.32-.57-.18-.6-.31-1.21-.48-1.86-.83-.11-1.65-.21-2.51-.32-.09-.41-.16-.79-.25-1.21l-4.16-.02v2.77c.95.07,1.84.13,2.81.19-.37,1.46.82,1.19,1.54,1.45-.08.08-.16.15-.25.23.42.49.85.98,1.27,1.46.07-.05.14-.11.21-.16v1.16c-.45.07-.83.13-1.21.18-.07.48-.14.89-.2,1.27l-4.2-.02c-.05-.49-.09-.88-.13-1.27-.51-.06-.93-.11-1.39-.16-.05-.44-.09-.83-.13-1.23-.47-.08-.88-.16-1.28-.23-.06-.5-.11-.92-.16-1.33-.46-.06-.85-.1-1.28-.16v-2.82c.47-.08.88-.15,1.14-.19.26-.92.24-1.96.75-2.4.53-.45,1.57-.32,2.37-.43.1-.48.18-.9.27-1.34l8.58.05c.07.45.13.83.2,1.26.89.11,1.75.22,2.61.32.09.86.18,1.65.27,2.48.42.09.8.16,1.31.27,0,.85,0,1.68-.01,2.51,0,.96.1,1.85,1.27,1.93v2.78c-.46.07-.81.13-1.3.2l-.02,4.17c-.56.09-.97.16-1.41.23-.08.92-.15,1.78-.21,2.62-.49.07-.88.13-1.26.19-.07.49-.13.91-.2,1.35-.45.06-.84.11-1.26.17-.07.41-.14.79-.21,1.23-.93.07-1.83.14-2.74.21-.09.46-.16.84-.23,1.23l-8.5-.04c-.08-.5-.14-.88-.22-1.36h-2.66c-.08-.54-.15-.95-.21-1.35-.47-.06-.86-.1-1.28-.15-.07-.48-.14-.94-.2-1.38-.47-.06-.85-.11-1.34-.18v-2.69c-.51-.09-.92-.15-1.34-.22.02-4.35.05-8.61.07-12.88.48-.09.86-.17,1.29-.25.06-.93.11-1.83.17-2.73.5-.06.88-.11,1.28-.16.07-.48.13-.89.19-1.3.5-.07.91-.13,1.31-.19.06-.47.1-.85.15-1.23.5-.07.91-.13,1.32-.19.04-.47.07-.86.11-1.28.51-.05.96-.1,1.4-.15.08-.46.14-.84.21-1.27l12.88.07c.05.47.08.86.13,1.35h2.82c.03.54.06.96.09,1.44.96.06,1.85.11,2.72.16.06.52.11.91.15,1.29.49.07.91.12,1.35.18.05.45.09.84.13,1.25.46.09.88.18,1.28.26.07.9.14,1.73.21,2.59.43.09.81.16,1.23.25.05.45.1.88.15,1.35.44.09.85.18,1.38.3l-.02,4.11c.53.08.91.14,1.36.21l-.04,8.44c-.53.08-.91.14-1.42.22v2.83c-.54.12-.91.2-1.29.28-.08.9-.15,1.72-.22,2.52-.49.08-.87.14-1.28.21-.05.47-.1.89-.16,1.33-.47.08-.88.14-1.27.21-.07.47-.13.85-.19,1.25-.49.05-.91.09-1.3.13-.08.5-.15.92-.21,1.31-.48.05-.87.08-1.29.12-.05.47-.09.89-.13,1.34-.98.04-1.88.08-2.76.11-.07.5-.12.89-.19,1.42l-4.06-.02c-.11.54-.19.92-.28,1.31-5.33-.03-10.59-.06-15.86-.08-.05-.47-.08-.86-.14-1.38l-2.85-.02c-.07-.53-.12-.92-.18-1.41h-2.64c-.07-.55-.13-.98-.2-1.43-.46-.06-.89-.11-1.33-.16-.07-.49-.13-.91-.19-1.31-.45-.07-.83-.14-1.27-.21-.04-.92-.07-1.79-.11-2.69-.46-.09-.88-.18-1.42-.29l.02-4.18c-.51-.09-.89-.15-1.36-.23.02-3.65.03-7.25.08-10.84,0-.24.28-.63.48-.67.68-.13.78-.54.79-1.12.02-1.28.07-2.56.12-3.83.03-.74.08-1.48.12-2.19.53-.09.9-.15,1.38-.23v-2.66c.54-.09.96-.16,1.32-.23.11-.95.21-1.81.3-2.63.51-.09.88-.16,1.25-.23.08-.49.14-.91.21-1.3.47-.06.86-.1,1.26-.15.05-.46.1-.84.15-1.28.44-.05.86-.1,1.28-.16.07-.49.14-.91.2-1.31.51-.07.94-.12,1.37-.18.07-.44.12-.82.18-1.21.94-.09,1.79-.17,2.62-.24.08-.49.14-.87.2-1.2.94-.14,1.8-.26,2.66-.39.08-.43.14-.78.2-1.18.98-.04,1.92-.09,2.82-.13.09-.48.15-.83.26-1.37,1.09,0,2.16.02,3.23,0,.3,0,.84-.04.88-.18.51-1.66,1.91-1.16,2.97-1.18,4.04-.05,8.08,0,12.12.02.78,0,1.57-.06,2.38-.09v-2.68c-.14-.06-.21-.12-.28-.12-6.48-.05-12.96-.11-19.44-.12-.52,0-1.4.18-1.51.49-.42,1.22-1.34.86-2.16.9-.42.02-.84,0-1.26,0-.09.52-.14.86-.21,1.27-1.34.15-2.64.29-3.98.44-.08.39-.15.76-.22,1.15-.5.05-.93.09-1.39.13-.16,2.01-1.9.98-2.89,1.55-.07.38-.14.8-.22,1.24-.43.05-.82.09-1.22.14-.09.45-.17.87-.25,1.28-.48.07-.9.13-1.32.19-.06.46-.11.84-.16,1.25-.44.05-.83.09-1.26.14Z"/>
        <path d="m53.38,34.82c.43-.05.82-.09,1.26-.14.05-.41.1-.79.16-1.25.42-.06.84-.12,1.32-.19.08-.42.16-.83.25-1.28.41-.05.8-.09,1.22-.14.08-.45.15-.87.22-1.24,1-.56,2.74.46,2.89-1.55.47-.04.9-.09,1.39-.13.08-.39.15-.76.22-1.15,1.34-.15,2.64-.29,3.98-.44.07-.41.13-.75.21-1.27.42,0,.84.02,1.26,0,.81-.04,1.74.32,2.16-.9.11-.31.98-.49,1.51-.49,6.48.01,12.96.07,19.44.12.07,0,.14.06.29.12v2.68c-.83.03-1.61.09-2.4.09-4.04,0-8.08-.07-12.12-.02-1.07.01-2.47-.48-2.97,1.18-.04.14-.57.17-.88.18-1.07.02-2.14,0-3.23,0-.1.55-.17.89-.26,1.37-.9.04-1.84.08-2.82.13-.07.4-.13.74-.2,1.18-.86.13-1.72.25-2.66.39-.06.33-.12.71-.2,1.2-.83.08-1.69.16-2.62.24-.06.39-.12.77-.18,1.21-.44.06-.86.11-1.37.18-.06.4-.12.82-.2,1.31-.42.05-.84.1-1.28.16-.05.43-.1.82-.15,1.28-.4.05-.78.09-1.26.15-.06.39-.13.81-.21,1.3-.36.07-.74.14-1.25.23-.1.82-.19,1.68-.3,2.63-.37.06-.78.13-1.31.23v2.66c-.49.08-.87.14-1.39.23-.04.7-.09,1.44-.12,2.19-.05,1.28-.1,2.56-.12,3.83,0,.58-.11.99-.79,1.12-.2.04-.48.43-.48.67-.05,3.59-.06,7.19-.08,10.84.47.08.85.14,1.36.23l-.02,4.18c.54.11.96.19,1.42.29.04.9.07,1.77.11,2.69.45.07.83.14,1.27.21.06.4.12.82.19,1.31.44.05.86.1,1.33.16.06.46.12.88.2,1.42h2.64c.06.51.11.9.18,1.43l2.85.02c.05.53.09.91.14,1.38,5.28.03,10.54.06,15.86.08.08-.4.16-.78.28-1.31l4.06.02c.07-.53.12-.92.19-1.42.88-.04,1.77-.07,2.76-.11.04-.45.09-.87.13-1.34.43-.04.81-.08,1.29-.12.06-.39.13-.81.21-1.31.4-.04.82-.08,1.3-.13.06-.4.12-.78.19-1.25.39-.06.81-.13,1.27-.21.05-.44.1-.86.16-1.33.41-.07.8-.13,1.28-.21.07-.8.14-1.62.22-2.52.38-.08.75-.17,1.28-.28v-2.83c.53-.08.91-.14,1.44-.22l.04-8.44c-.45-.07-.84-.13-1.36-.21l.02-4.11c-.54-.11-.94-.2-1.38-.3-.05-.47-.1-.9-.15-1.35-.42-.08-.8-.16-1.23-.25-.07-.86-.14-1.69-.21-2.59-.4-.08-.82-.16-1.28-.26-.04-.4-.08-.79-.13-1.25-.43-.06-.85-.12-1.35-.18-.05-.38-.09-.77-.15-1.29-.87-.05-1.76-.11-2.72-.16-.03-.48-.06-.9-.09-1.42h-2.82c-.05-.51-.09-.89-.13-1.37l-12.88-.07c-.07.43-.13.81-.21,1.27-.43.05-.89.09-1.4.15-.04.42-.07.81-.11,1.28-.41.06-.82.12-1.32.19-.04.38-.09.76-.15,1.23-.39.06-.81.12-1.31.19-.06.41-.12.82-.19,1.3-.4.05-.78.09-1.28.16-.06.9-.11,1.8-.17,2.73-.43.08-.81.16-1.29.25-.02,4.27-.04,8.53-.07,12.88.42.07.83.14,1.35.22v2.69c.48.06.86.11,1.33.18.06.44.13.9.2,1.38.42.05.81.1,1.28.15.06.4.13.81.21,1.34h2.66c.08.5.14.87.22,1.37l8.5.04c.07-.39.14-.77.23-1.23.91-.07,1.81-.14,2.74-.21.08-.44.14-.82.21-1.23.42-.06.81-.11,1.26-.17.06-.44.13-.86.2-1.35.38-.06.77-.12,1.26-.19.07-.84.14-1.7.21-2.62.43-.07.85-.14,1.41-.23l.02-4.17c.49-.08.84-.13,1.28-.2v-2.78c-1.16-.08-1.27-.97-1.26-1.93,0-.83,0-1.66.01-2.51-.51-.1-.89-.18-1.31-.27-.09-.83-.18-1.61-.27-2.48-.87-.11-1.72-.21-2.61-.32-.07-.42-.13-.81-.2-1.26l-8.58-.05c-.09.44-.17.86-.27,1.34-.8.12-1.83-.02-2.37.43-.51.43-.5,1.48-.75,2.4-.26.04-.67.11-1.13.19v2.82c.42.05.8.1,1.26.16.05.41.1.83.16,1.33.4.07.81.15,1.28.23.04.4.08.79.13,1.23.45.05.88.1,1.39.16.04.39.08.77.13,1.27l4.2.02c.06-.37.12-.79.2-1.27.38-.06.76-.12,1.2-.18v-1.16c-.06.05-.13.11-.2.16-.42-.49-.85-.98-1.27-1.46.08-.08.16-.15.25-.23-.71-.26-1.9.01-1.54-1.45-.97-.07-1.86-.13-2.82-.19v-2.77c1.4,0,2.77.01,4.18.02.09.43.17.8.25,1.21.86.11,1.68.21,2.51.32.16.65.3,1.26.48,1.86.06.21.19.56.32.57,1.25.11.98,1.03.98,1.79,0,1.43-.01,2.86-.02,4.31-.53.06-.92.1-1.37.15-.06.4-.12.78-.2,1.34-1.19,0-2.37-.01-3.55-.02s-2.38-.01-3.63-.02c-.06-.49-.1-.88-.16-1.39h-2.77c-.04-.55-.07-.97-.1-1.43-.44-.04-.83-.08-1.3-.12-.06-.4-.11-.81-.18-1.31-.41-.04-.83-.08-1.29-.13-.03-.45-.06-.84-.1-1.31-.4-.07-.82-.13-1.35-.22l.04-7.25c.46-.09.84-.16,1.19-.23q.47-2.51,3.03-2.78c.05-.37.1-.75.18-1.38,1.88,0,3.78.01,5.68.03,1.8.02,3.6.02,5.4.1.88.04,1.94-.03,1.96,1.35.52.06.99.12,1.5.18.05,1.94,1.8,1.03,2.72,1.73.5.74-.46,2.47,1.52,2.47.05.52.09.99.14,1.54.39.09.8.18,1.31.3-.02,4.21-.04,8.43-.07,12.69-.48.06-.87.11-1.3.16-.07.9-.14,1.76-.21,2.69-.41.07-.78.14-1.22.21-.05.45-.1.87-.16,1.38-.4.07-.82.13-1.29.21-.05.38-.09.77-.15,1.23-.41.06-.83.12-1.32.19-.06.4-.13.82-.21,1.32-.82.07-1.65.13-2.56.21-.09.38-.19.78-.3,1.27l-11.57-.06c-.05-.42-.1-.8-.16-1.31-.87-.05-1.77-.1-2.72-.15-.05-.48-.09-.9-.14-1.36-.91-.09-1.77-.18-2.69-.28-.06-.42-.12-.8-.19-1.21-.43-.06-.82-.12-1.27-.19-.06-.4-.13-.82-.2-1.28-.41-.07-.79-.14-1.28-.22-.08-.87-.17-1.77-.26-2.69-.44-.07-.82-.13-1.26-.2-.04-.91-.08-1.78-.12-2.72-.39-.07-.77-.14-1.36-.26,0-.55,0-1.13,0-1.71.02-2.92.03-5.84.05-8.76,0-.6-.04-1.1.79-1.37.36-.12.55-1.05.64-1.63.11-.74.03-1.5.04-2.28.53-.09.91-.16,1.34-.23.07-.44.13-.86.2-1.32.41-.06.8-.12,1.3-.19-.03-1.77.36-3.26,2.69-2.79.13-.49.22-.87.34-1.32.46-.04.92-.08,1.43-.13.04-.42.08-.81.13-1.35l5.51.03c.1-.54.18-.95.27-1.43l4.31.02c.07.45.13.84.21,1.35l5.54.03c.09.52.17.94.26,1.47h2.76c.05.51.09.9.13,1.36.88.06,1.75.13,2.7.2.04.43.07.85.11,1.33.48.03.9.06,1.39.09.06.46.12.88.19,1.35.95-.08,1.62.19,1.54,1.31.38.09.72.16,1.13.25.08.41.16.83.24,1.28.38.05.73.1,1.14.16.06.42.12.84.2,1.35.39.08.81.16,1.3.26.06.4.13.82.21,1.32.36.09.73.18,1.16.28.08.88.16,1.75.25,2.67.39.08.76.16,1.32.28-.01,2.27-.02,4.54-.04,6.86.55.11.93.19,1.47.3-.23.98.58,2.24-1.05,2.81-.19.07-.3.6-.31.92-.04,1.55-.03,3.11-.04,4.69-.57.13-.95.21-1.4.32-.09.89-.18,1.78-.27,2.72-.4.06-.74.11-1.17.18-.07.4-.14.81-.23,1.31-.41.07-.82.13-1.29.21-.06.39-.12.77-.19,1.23-.38.06-.76.12-1.23.2-.07.39-.14.8-.22,1.29-.37.05-.75.09-1.22.15-.07.39-.14.8-.23,1.27-.42.04-.85.08-1.32.13-.05.43-.09.82-.14,1.3-.86.05-1.73.1-2.68.16-.07.4-.14.82-.23,1.33h-2.79c-.07.46-.12.84-.2,1.37-6.71-.04-13.44-.07-20.27-.11-.04-.4-.09-.82-.15-1.35l-4.15-.02c-.08-.52-.14-.94-.2-1.41-.44-.05-.86-.1-1.32-.15-.05-.43-.1-.82-.15-1.28-.87-.08-1.73-.16-2.6-.24-.09-.45-.16-.83-.25-1.27-.39-.06-.77-.11-1.23-.18-.12-.8-.24-1.62-.38-2.52-.33-.09-.7-.18-1.15-.3-.05-.4-.11-.82-.18-1.32-.41-.06-.82-.12-1.37-.19v-2.74c-.5-.08-.88-.13-1.42-.21.01-2.38.03-4.75.04-7.17-.52-.1-.9-.17-1.36-.25,0-1.3.01-2.56.02-3.91.4-.1.77-.19,1.32-.32.02-3.33.04-6.7.05-10.12.55-.07.93-.11,1.46-.17l.02-4.12c.52-.06.9-.1,1.29-.14.62-.89-.37-2.65,1.58-2.87.05-.41.1-.83.16-1.34.38-.04.77-.08,1.24-.14.06-.39.12-.81.21-1.36Z"/>
      </g>
      <text  x="120" y="90" class="classText elemento-svg">
        Home
      </text>
    </g>
  </g>
</svg>