<?xml version="1.0" encoding="UTF-8"?>
<svg xmlns="http://www.w3.org/2000/svg" xmlns:xlink="http://www.w3.org/1999/xlink" viewBox="0 0 314.98 117.7">
  <defs>
    <clipPath id="clippath">
      <polygon points="-2155.35 2040.93 -1526.98 1982.14 -1533.83 1444.85 -2186.17 1619.59 -2155.35 2040.93" style="fill: none;"/>
    </clipPath>
    <linearGradient id="Degradado_sin_nombre_104" data-name="Degradado sin nombre 104" x1="5044.17" y1="13502.19" x2="5550.84" y2="13502.19" gradientTransform="translate(-5166.25 -13428.6)" gradientUnits="userSpaceOnUse">
      <stop offset="0" stop-color="#35c8fe"/>
      <stop offset=".19" stop-color="#36c4fd"/>
      <stop offset=".34" stop-color="#3abafc"/>
      <stop offset=".49" stop-color="#42a9fa"/>
      <stop offset=".62" stop-color="#4d90f7"/>
      <stop offset=".76" stop-color="#5b71f3"/>
      <stop offset=".88" stop-color="#6c4bef"/>
      <stop offset="1" stop-color="#7f21ea"/>
    </linearGradient>
    <linearGradient id="linear-gradient" x1="-413" y1="-1589.62" x2="-416.04" y2="-1604.53" gradientTransform="translate(-813.31 1378.36) rotate(50.05)" gradientUnits="userSpaceOnUse">
      <stop offset="0" stop-color="#ffa440"/>
      <stop offset="1" stop-color="#ff5a0c"/>
    </linearGradient>
    <linearGradient id="linear-gradient-2" x1="-390.97" y1="-1587.19" x2="-377.95" y2="-1622.06" xlink:href="#linear-gradient"/>
    <linearGradient id="Degradado_sin_nombre_28" data-name="Degradado sin nombre 28" x1="-431.75" y1="-1583.83" x2="-444" y2="-1598.1" gradientTransform="translate(-813.31 1378.36) rotate(50.05)" gradientUnits="userSpaceOnUse">
      <stop offset="0" stop-color="#ffa440"/>
      <stop offset="1" stop-color="#ff5a0c"/>
    </linearGradient>
    <filter id="outer-glow-11" filterUnits="userSpaceOnUse">
      <feOffset dx="0" dy="0"/>
      <feGaussianBlur result="blur" stdDeviation="5.67"/>
      <feFlood flood-color="#ffe600" flood-opacity="1"/>
      <feComposite in2="blur" operator="in"/>
      <feComposite in="SourceGraphic"/>
    </filter>
    <radialGradient id="Degradado_sin_nombre_437" data-name="Degradado sin nombre 437" cx="70.96" cy="69.26" fx="70.96" fy="69.26" r="55.69" gradientTransform="translate(-4.66 6.23) rotate(-4.79)" gradientUnits="userSpaceOnUse">
      <stop offset=".09" stop-color="#fcdf89"/>
      <stop offset=".29" stop-color="#fcdb87"/>
      <stop offset=".47" stop-color="#fcd082"/>
      <stop offset=".65" stop-color="#fdbe7a"/>
      <stop offset=".82" stop-color="#fda46f"/>
      <stop offset=".99" stop-color="#fe8360"/>
      <stop offset="1" stop-color="#ff805f"/>
    </radialGradient>
    <linearGradient id="Degradado_sin_nombre_116" data-name="Degradado sin nombre 116" x1="-665.17" y1="176.52" x2="-721.56" y2="204.21" gradientTransform="translate(777.93 -130.02) rotate(2.98)" gradientUnits="userSpaceOnUse">
      <stop offset=".38" stop-color="#fcdf80"/>
      <stop offset=".85" stop-color="#ff805f"/>
    </linearGradient>
    <linearGradient id="linear-gradient-3" x1="-729.04" y1="235.19" x2="-722.41" y2="235.19" gradientTransform="translate(777.93 -130.02) rotate(2.98)" gradientUnits="userSpaceOnUse">
      <stop offset="0" stop-color="#ff2d2a"/>
      <stop offset="1" stop-color="#ff805f"/>
    </linearGradient>
    <linearGradient id="linear-gradient-4" x1="-668.49" y1="204.23" x2="-667" y2="227.07" gradientTransform="translate(777.93 -130.02) rotate(2.98)" gradientUnits="userSpaceOnUse">
      <stop offset="0" stop-color="#fcdf80"/>
      <stop offset="1" stop-color="#ff805f"/>
    </linearGradient>
    <linearGradient id="linear-gradient-5" x1="-720.06" y1="257.25" x2="-663.41" y2="257.25" xlink:href="#linear-gradient-3"/>
    <filter id="outer-glow-12" filterUnits="userSpaceOnUse">
      <feOffset dx="0" dy="0"/>
      <feGaussianBlur result="blur-2" stdDeviation="5.67"/>
      <feFlood flood-color="#ff6300" flood-opacity="1"/>
      <feComposite in2="blur-2" operator="in"/>
      <feComposite in="SourceGraphic"/>
    </filter>
    <radialGradient id="Degradado_sin_nombre_91" data-name="Degradado sin nombre 91" cx="19.51" cy="115.99" fx="19.51" fy="115.99" r="65.63" gradientTransform="translate(-4.66 6.23) rotate(-4.79)" gradientUnits="userSpaceOnUse">
      <stop offset=".09" stop-color="#ffb472"/>
      <stop offset=".36" stop-color="#ffb06f"/>
      <stop offset=".61" stop-color="#ffa569"/>
      <stop offset=".85" stop-color="#ff935e"/>
      <stop offset="1" stop-color="#ff8355"/>
    </radialGradient>
    <linearGradient id="Degradado_sin_nombre_90" data-name="Degradado sin nombre 90" x1="-665.17" y1="176.52" x2="-721.56" y2="204.21" gradientTransform="translate(777.93 -130.02) rotate(2.98)" gradientUnits="userSpaceOnUse">
      <stop offset=".38" stop-color="#ffaf56"/>
      <stop offset=".85" stop-color="#ff8355"/>
    </linearGradient>
    <linearGradient id="linear-gradient-6" x1="-729.04" y1="235.19" x2="-722.41" y2="235.19" gradientTransform="translate(777.93 -130.02) rotate(2.98)" gradientUnits="userSpaceOnUse">
      <stop offset="0" stop-color="#ff2907"/>
      <stop offset="1" stop-color="#ff8355"/>
    </linearGradient>
    <linearGradient id="linear-gradient-7" x1="-668.49" y1="204.23" x2="-667" y2="227.07" gradientTransform="translate(777.93 -130.02) rotate(2.98)" gradientUnits="userSpaceOnUse">
      <stop offset="0" stop-color="#ffaf56"/>
      <stop offset="1" stop-color="#ff8355"/>
    </linearGradient>
    <linearGradient id="linear-gradient-8" x1="-720.06" y1="257.25" x2="-663.41" y2="257.25" xlink:href="#linear-gradient-6"/>
  </defs>
  <g style="isolation: isolate;">
    <g id="Juego">
      <g style="mix-blend-mode: multiply;">
        <g style="clip-path: url(#clippath);">
          <g id="Doble_p치gina_13-14.psb" data-name="Doble p치gina 13-14.psb" style="mix-blend-mode: multiply;">
            <image id="Doble_p치gina_13-14" data-name="Doble p치gina 13-14" width="9242" height="6140" transform="translate(-5073.37 -708.04) rotate(.31) scale(.58) skewX(-.03)" xlink:href="boton_gema1.png"/>
          </g>
        </g>
      </g>
    </g>
    <g id="Capa_3" data-name="Capa 3">
      <g>
        <path d="m277.97,115.04l-240.72,1.67c-9.2,0-17.38-5.87-20.33-14.59L2.27,58.82c-4.71-13.92,5.64-28.34,20.33-28.34h270.01c14.69,0,25.04,14.43,20.33,28.34l-14.65,43.3c-2.95,8.72-11.13,12.92-20.33,12.92Z" style="fill: url(#Degradado_sin_nombre_104); stroke: #fff; stroke-miterlimit: 10; stroke-width: 2px;"/>
        <g>
          <path d="m198.44,64.34c-.87-.54-1.53-1.31-1.99-2.32-.46-1.01-.69-2.22-.69-3.61,0-2.11.44-4.18,1.33-6.22.89-2.03,2.15-3.7,3.8-5.01,1.65-1.3,3.56-1.96,5.74-1.96,1.28,0,2.37.25,3.29.75s1.59,1.16,2.03,1.98c.44.82.61,1.69.52,2.62,0,.16-.07.28-.17.37-.1.09-.26.16-.48.22-.21.06-.46.11-.75.14-.28.03-.6.05-.95.05-.16,0-.28-.02-.37-.06-.09-.04-.15-.09-.2-.17-.05-.08-.07-.18-.08-.32,0-.55-.11-1.05-.33-1.51-.23-.45-.58-.82-1.05-1.09s-1.07-.41-1.79-.41c-1.49,0-2.79.57-3.9,1.7-1.11,1.14-1.96,2.53-2.54,4.2-.58,1.66-.87,3.25-.87,4.77,0,.85.12,1.58.37,2.19.25.61.63,1.09,1.14,1.42.51.33,1.16.5,1.95.5s1.56-.27,2.41-.82c.85-.55,1.6-1.27,2.25-2.16s1.08-1.8,1.29-2.74c.04-.24.08-.51.15-.81.04-.26.08-.5.11-.72l2.63.66-2.01,8.33c-.03.14-.1.25-.2.34-.1.09-.25.15-.42.2s-.4.07-.67.07c-.51,0-.88-.02-1.1-.05-.22-.04-.36-.1-.42-.18-.06-.08-.07-.21-.04-.39l1-4.17,1.28-1.1c-.46,1.4-1.09,2.56-1.89,3.48-.8.92-1.67,1.59-2.59,2.01-.92.42-1.83.64-2.71.64-1.18,0-2.2-.27-3.07-.8Zm5.99-7.73c-.11-.05-.18-.13-.21-.25-.03-.12-.02-.28.02-.51.08-.42.16-.74.25-.96.09-.21.2-.37.32-.46s.3-.14.52-.15c.45-.01.89-.03,1.34-.04.45,0,.92-.02,1.42-.04.91-.03,1.82-.06,2.73-.1.91-.04,1.59-.07,2.04-.1.16,0,.29,0,.39.05s.17.12.2.23c.04.11.04.26,0,.46-.08.46-.17.81-.27,1.06-.1.24-.21.4-.31.48-.11.08-.25.13-.42.14-.62.04-1.38.07-2.28.1-.89.03-1.76.06-2.61.08-.51,0-.96.02-1.35.03-.38,0-.81.02-1.28.02-.24.01-.42,0-.52-.05Z" style="fill: #fff;"/>
          <path d="m216.65,64.53c-.71-.43-1.24-1-1.59-1.73-.35-.72-.53-1.54-.53-2.43,0-1.59.34-3.11,1.03-4.55.69-1.44,1.66-2.6,2.9-3.49,1.24-.89,2.66-1.33,4.26-1.33.83,0,1.55.14,2.15.42s1.07.67,1.38,1.16c.32.49.48,1.05.48,1.69,0,1.33-.55,2.46-1.64,3.39-1.1.93-2.6,1.64-4.52,2.13-1.92.49-4.19.75-6.82.79-.02,0-.04,0-.06,0-.13-.01-.23-.05-.29-.12-.07-.07-.11-.19-.12-.36-.02-.17,0-.42.04-.75.04-.26.08-.46.13-.6s.11-.23.19-.28c.08-.05.19-.08.34-.08,1.77,0,3.38-.12,4.83-.39,1.45-.26,2.67-.69,3.64-1.29.97-.6,1.46-1.35,1.46-2.27,0-.23-.05-.43-.15-.6s-.26-.3-.46-.39c-.21-.09-.46-.13-.77-.13-.94,0-1.79.36-2.56,1.09s-1.37,1.64-1.81,2.73c-.44,1.1-.66,2.14-.66,3.13,0,.56.07,1.03.22,1.41s.36.67.66.87c.3.2.67.29,1.11.29.37,0,.75-.08,1.13-.23.38-.15.75-.37,1.1-.64s.69-.61,1-.99c.1-.11.19-.19.27-.23.08-.04.16-.05.25-.05.12,0,.29.08.53.22.24.14.46.31.68.5s.37.35.44.46c.07.13.09.26.05.39-.04.13-.13.28-.28.46-.47.55-.97,1-1.51,1.36s-1.14.63-1.78.81c-.64.19-1.35.28-2.13.28-1.01,0-1.88-.21-2.58-.64Z" style="fill: #fff;"/>
          <path d="m227.34,64.88c-.23-.04-.38-.12-.45-.22-.08-.11-.09-.26-.04-.46.36-1.26.78-2.82,1.25-4.68.47-1.86.79-3.18.94-3.96.14-.73.25-1.42.31-2.07.06-.65.09-1.16.08-1.52v-.05c0-.16.09-.29.26-.39s.41-.19.73-.24.7-.08,1.14-.08c.21,0,.39.02.52.05.13.03.23.08.29.15s.09.16.08.27c.02.32.01.66-.02,1.02-.04.36-.09.73-.15,1.09-.01.05-.02.11-.02.16-.06.31-.12.59-.18.85-.06.25-.14.51-.22.78-.08.25-.16.46-.23.65l-.29-.08c.62-.99,1.32-1.87,2.09-2.65s1.57-1.39,2.39-1.84c.82-.44,1.61-.67,2.36-.67.71,0,1.28.19,1.71.57s.7.93.8,1.65.02,1.54-.23,2.49l-.25.94-.27-.72c.59-.93,1.25-1.77,1.97-2.52.72-.75,1.46-1.34,2.24-1.77.78-.43,1.53-.64,2.26-.64s1.38.18,1.86.55c.47.37.77.91.89,1.62.12.71.05,1.56-.22,2.56l-1.28,4.8c-.25.97-.42,1.73-.5,2.28-.08.55-.14,1.06-.16,1.52,0,.16-.09.28-.24.36s-.39.15-.7.19c-.31.04-.71.06-1.2.06-.23,0-.4-.02-.54-.06-.13-.04-.23-.1-.29-.19s-.09-.21-.09-.36c0-.25.02-.56.06-.95s.11-.85.21-1.39c.1-.54.23-1.13.41-1.76l1.14-4.28c.15-.51.21-.93.19-1.26-.02-.33-.1-.56-.25-.72-.14-.15-.32-.23-.53-.23-.69,0-1.46.38-2.29,1.13s-1.6,1.68-2.29,2.78c-.69,1.1-1.16,2.11-1.4,3.03-.18.69-.33,1.33-.42,1.91-.1.59-.18,1.08-.24,1.49,0,.05,0,.09,0,.12,0,.03,0,.07-.02.12-.02.15-.11.27-.25.36-.15.1-.37.16-.66.2-.29.04-.68.06-1.15.06-.21,0-.38-.02-.51-.05-.13-.04-.23-.1-.3-.18-.07-.08-.11-.21-.1-.38.02-.35.1-.92.24-1.71.14-.79.34-1.68.61-2.68l1.11-4.13c.13-.48.19-.88.18-1.19-.01-.31-.08-.53-.22-.68-.13-.14-.31-.21-.53-.21-.72,0-1.52.4-2.39,1.2s-1.68,1.8-2.41,2.99-1.23,2.34-1.49,3.42c-.13.5-.23.91-.3,1.25-.07.33-.15.74-.24,1.22-.04.2-.07.36-.1.48-.04.23-.19.39-.46.49-.27.1-.66.15-1.16.15-.42,0-.74-.02-.97-.06Z" style="fill: #fff;"/>
          <path d="m252.42,64.59c-.62-.39-1.11-.95-1.45-1.69s-.51-1.61-.51-2.62c0-1.51.32-2.97.96-4.41.64-1.43,1.53-2.6,2.66-3.5,1.13-.9,2.39-1.35,3.78-1.35.87,0,1.6.2,2.2.61.6.41,1.03.99,1.29,1.73.26.75.35,1.61.26,2.58l-1.01,4.29c-.42,1.01-.9,1.88-1.47,2.61-.56.73-1.22,1.3-1.98,1.71s-1.6.61-2.54.61c-.84,0-1.57-.19-2.2-.58Zm4.77-2.21c.49-.27.93-.64,1.3-1.11.38-.46.68-.99.92-1.58l.88-3.66c.09-.55.06-1.02-.09-1.42-.15-.4-.39-.7-.74-.91-.34-.21-.75-.31-1.22-.31-.83,0-1.6.36-2.32,1.07-.72.71-1.3,1.61-1.74,2.69s-.66,2.11-.66,3.09c0,.53.09.99.27,1.37s.42.67.73.87.69.3,1.12.3c.54,0,1.06-.14,1.55-.41Zm2.8,2.54c-.1-.07-.17-.19-.23-.36-.13-.41-.24-.91-.33-1.49-.1-.58-.15-1.18-.15-1.78,0-.6.04-1.13.13-1.59l.89-3.74c.15-.66.41-1.43.77-2.32.16-.39.32-.77.48-1.13s.33-.68.49-.96c.06-.12.12-.22.18-.28s.13-.1.2-.12c.07-.02.18-.02.3-.02.27,0,.6.06.97.19.38.13.68.3.91.5.23.2.29.4.19.6-.18.34-.36.72-.55,1.15-.31.72-.58,1.47-.83,2.24-.12.35-.24.78-.36,1.27-.12.49-.27,1.07-.44,1.73-.05.25-.09.46-.13.61-.04.15-.08.35-.15.59-.09.37-.14.76-.14,1.16s.03.8.09,1.2c.06.4.15.8.26,1.21.06.19.08.34.07.45,0,.11-.05.2-.11.29-.06.08-.16.16-.29.23-.27.12-.59.23-.96.32-.37.09-.67.14-.9.14-.16,0-.29-.03-.38-.1Z" style="fill: #fff;"/>
          <path d="m133.73,99.39c-.62-.39-1.08-.93-1.41-1.64-.33-.71-.49-1.52-.49-2.45,0-1.5.32-2.97.97-4.41.65-1.45,1.55-2.63,2.7-3.55s2.43-1.38,3.84-1.38c.89,0,1.63.21,2.23.64.59.43,1.01,1.02,1.27,1.78.25.76.32,1.62.2,2.59l-.94,3.82c-.41,1.01-.92,1.91-1.52,2.69-.61.78-1.3,1.39-2.1,1.83-.79.44-1.65.66-2.57.66-.84,0-1.57-.19-2.18-.58Zm4.58-1.65c.6-.34,1.14-.79,1.62-1.36.48-.57.86-1.2,1.14-1.89l.84-3.47c.11-.69.08-1.29-.09-1.79-.17-.5-.46-.89-.87-1.15-.41-.26-.9-.4-1.48-.4-.94,0-1.83.38-2.67,1.15-.84.77-1.51,1.74-2.02,2.93-.51,1.18-.76,2.36-.76,3.51,0,.59.1,1.11.3,1.55.2.44.49.79.86,1.04.37.25.81.38,1.32.38.61,0,1.21-.17,1.81-.51Zm3.46,2c-.07-.04-.12-.14-.17-.27-.18-.51-.33-1.07-.45-1.68-.12-.61-.19-1.2-.21-1.79-.02-.58.02-1.09.12-1.52l.85-3.58c.1-.4.19-.74.26-1.03.07-.29.15-.63.25-1.03.08-.33.14-.61.2-.84.06-.22.13-.5.2-.82.04-.15.08-.3.12-.45.28-1.09.5-2.04.67-2.86s.3-1.59.39-2.31c.09-.72.14-1.4.15-2.04,0-.12.04-.22.11-.28s.18-.11.34-.14c.05,0,.08-.01.1-.01.14-.02.3-.04.46-.05.16,0,.33-.01.51-.01.15,0,.28.02.37.05.09.03.16.08.2.16s.07.16.07.27c0,.67-.05,1.36-.14,2.1-.09.73-.23,1.52-.4,2.38s-.4,1.86-.68,3.02c-.03.13-.05.26-.08.4l-1.74,7.04c-.11.46-.18.91-.19,1.37s.02.93.11,1.44.23,1.05.43,1.62c.04.12.06.23.05.31s-.04.16-.1.22c-.06.06-.15.12-.27.17-.17.07-.37.13-.6.18-.23.05-.44.07-.62.07-.14,0-.25-.02-.32-.07Z" style="fill: #fff;"/>
          <path d="m146.81,99.74c-.16-.03-.26-.09-.31-.17s-.05-.22,0-.39l.38-1.38c.13-.48.26-.96.39-1.44.27-1.03.52-2.01.74-2.92.22-.91.41-1.75.58-2.52.15-.75.28-1.44.39-2.07.11-.63.2-1.22.28-1.78,0-.13.02-.25.03-.38.01-.12.06-.22.14-.3.08-.08.21-.13.4-.17.18-.04.43-.06.76-.06.25,0,.44.02.58.05s.23.08.27.15c.05.07.06.17.05.31-.02.21-.04.42-.07.63-.08.55-.17,1.15-.28,1.8-.11.65-.23,1.33-.38,2.04-.12.63-.3,1.4-.53,2.3-.23.91-.47,1.85-.73,2.82-.09.32-.16.6-.23.85-.07.25-.14.51-.22.79l-.38,1.42c-.04.13-.1.23-.17.3-.07.07-.18.11-.32.14-.15.03-.36.04-.63.04-.34,0-.59-.01-.75-.04Zm3.92-16.55c-.21-.13-.37-.3-.49-.5-.12-.2-.18-.41-.18-.62,0-.3.08-.58.25-.84s.39-.46.66-.62c.27-.15.55-.23.84-.23.25,0,.47.06.68.19.21.13.37.29.49.5.12.21.18.41.18.63,0,.29-.08.56-.25.82-.17.26-.39.47-.66.63-.27.16-.55.24-.85.24-.24,0-.46-.07-.67-.2Z" style="fill: #fff;"/>
          <path d="m154.31,99.61c-.64-.24-1.16-.58-1.56-1-.4-.42-.67-.9-.8-1.43v-.02c-.02-.12-.04-.23-.05-.33s-.02-.18,0-.23c.02-.11.1-.22.26-.32.16-.1.36-.18.6-.25s.46-.1.67-.1c.1,0,.17.02.23.05s.09.11.11.22c0,.03.01.06.02.09.08.4.24.75.49,1.04.24.29.57.52.98.69s.9.25,1.48.25,1.06-.09,1.53-.28c.47-.19.84-.46,1.13-.82.28-.36.42-.79.42-1.29,0-.37-.11-.71-.32-1.01-.22-.3-.48-.55-.8-.77-.32-.22-.75-.49-1.29-.81-.66-.37-1.2-.7-1.61-.99-.41-.29-.76-.65-1.04-1.07-.28-.43-.43-.93-.43-1.5,0-.76.21-1.43.65-2,.43-.57,1.02-1.01,1.77-1.32.75-.31,1.6-.46,2.54-.46.67,0,1.29.11,1.87.34.58.22,1.04.54,1.39.95.35.41.52.87.53,1.4,0,.09,0,.16-.03.21-.02.05-.05.1-.1.13-.05.04-.12.08-.22.11-.13.05-.33.1-.6.16-.27.05-.47.08-.6.08-.08,0-.14-.02-.19-.07-.04-.05-.08-.14-.1-.28-.04-.27-.17-.52-.38-.73s-.48-.38-.81-.5c-.33-.12-.67-.18-1.04-.18-.51,0-.96.08-1.37.25-.41.17-.72.4-.95.7-.23.3-.35.64-.35,1.03,0,.31.09.58.28.83.19.25.42.46.71.65.29.19.69.43,1.2.72.71.38,1.29.73,1.75,1.04.45.31.84.71,1.16,1.2s.49,1.07.49,1.74c0,.88-.24,1.64-.73,2.28s-1.14,1.12-1.96,1.46c-.82.33-1.73.5-2.74.5-.82,0-1.55-.12-2.19-.36Z" style="fill: #fff;"/>
          <path d="m162.91,106.75c-.09-.06-.13-.15-.12-.27.04-.8.1-1.59.2-2.35.1-.77.21-1.48.35-2.13.13-.66.28-1.34.45-2.04l2.14-8.66c.22-.91.34-1.7.36-2.39s0-1.3-.05-1.85c-.02-.05-.02-.09-.03-.13,0-.04-.01-.09-.03-.15h0c0-.11,0-.2.03-.27.03-.07.08-.12.16-.16.08-.05.21-.1.39-.13.18-.04.38-.07.59-.1s.39-.04.53-.04c.12,0,.2.01.26.04s.09.08.12.15c.03.08.05.19.07.35.04.31.06.55.06.74.05.68.05,1.35,0,2.03-.04.68-.15,1.36-.32,2.05l-.85,3.59-1.21,4.83c-.06.16-.11.36-.17.62-.14.59-.27,1.17-.39,1.74s-.22,1.19-.31,1.88c-.09.69-.16,1.44-.22,2.23,0,.1-.02.17-.05.23-.03.05-.08.09-.15.13-.07.03-.17.06-.29.08-.16.03-.34.05-.53.06-.19.01-.4.02-.62.02-.17,0-.31-.03-.39-.09Zm12.53-20.22c.61.39,1.09.93,1.42,1.64s.5,1.52.5,2.45c0,1.5-.33,2.97-.98,4.41-.66,1.45-1.56,2.63-2.71,3.55-1.15.92-2.44,1.38-3.85,1.38-.88,0-1.61-.21-2.2-.64-.59-.43-1.01-1.02-1.26-1.78s-.32-1.62-.2-2.59l.92-3.82c.42-1.01.92-1.91,1.53-2.69.6-.78,1.3-1.39,2.09-1.83.79-.44,1.65-.66,2.56-.66.85,0,1.57.19,2.19.58Zm-4.58,1.66c-.6.34-1.14.79-1.62,1.36-.48.57-.86,1.2-1.15,1.89l-.84,3.47c-.11.69-.08,1.29.09,1.79.17.5.46.89.87,1.15.41.26.91.4,1.49.4.94,0,1.83-.38,2.66-1.15s1.51-1.74,2.02-2.93c.51-1.18.76-2.35.76-3.5,0-.59-.1-1.11-.3-1.56-.2-.44-.48-.79-.86-1.04-.38-.25-.82-.38-1.33-.38-.61,0-1.21.17-1.8.5Z" style="fill: #fff;"/>
          <path d="m181.14,99.35c-.67-.42-1.17-.99-1.49-1.72-.33-.73-.49-1.57-.49-2.51,0-1.5.34-2.95,1.02-4.37.68-1.42,1.63-2.57,2.85-3.47s2.6-1.34,4.15-1.34c.82,0,1.51.14,2.08.41.57.27.99.64,1.26,1.11.28.47.42.99.42,1.56,0,1.15-.5,2.16-1.51,3.04-1,.88-2.34,1.59-4,2.11-1.66.52-3.48.85-5.47.98l.17-1.48c1.4-.11,2.75-.34,4.07-.7,1.31-.36,2.4-.85,3.26-1.49.86-.63,1.3-1.37,1.3-2.22,0-.33-.07-.61-.2-.86-.14-.25-.34-.44-.62-.58s-.63-.21-1.07-.21c-1.12,0-2.1.4-2.94,1.21-.84.81-1.48,1.8-1.93,2.99-.45,1.19-.67,2.32-.67,3.39,0,.62.09,1.16.26,1.62.17.46.44.82.8,1.07.36.25.82.38,1.38.38.47,0,.93-.1,1.38-.29.46-.19.89-.46,1.29-.79.41-.33.77-.72,1.09-1.16.07-.07.13-.12.19-.16s.13-.05.21-.05c.12,0,.28.06.48.18.2.12.38.25.54.4.16.15.24.28.24.39,0,.08-.02.15-.05.21-.03.07-.09.14-.16.23h0c-.45.55-.95,1.03-1.5,1.44s-1.15.73-1.81.96-1.35.34-2.09.34c-.97,0-1.79-.21-2.46-.62Z" style="fill: #fff;"/>
          <path d="m191.92,99.7c-.16-.03-.27-.09-.32-.17-.05-.08-.06-.19-.02-.33.13-.5.26-1,.39-1.51.38-1.43.75-2.88,1.13-4.35.37-1.47.6-2.44.7-2.9.17-.81.27-1.52.31-2.13s.04-1.15,0-1.6c0-.11.05-.21.16-.3.11-.09.29-.16.54-.21.25-.05.56-.08.94-.08.19,0,.32.03.4.08.08.05.12.15.14.28.03.3.04.64.03,1.01,0,.38-.04.75-.08,1.13-.04.37-.09.71-.15,1.01-.05.3-.12.6-.2.92-.08.31-.18.64-.28.98-.19.52-.39,1.05-.61,1.57l-.75.6c.59-1.32,1.38-2.57,2.35-3.77.97-1.2,2-2.16,3.1-2.9,1.09-.73,2.11-1.1,3.04-1.1.7,0,1.26.17,1.7.51s.71.83.83,1.46c.12.63.07,1.37-.17,2.22l-1.39,5.17c-.24.84-.39,1.55-.46,2.12-.07.57-.11,1.07-.13,1.52-.01.17-.02.28-.02.35-.02.11-.08.2-.19.27s-.28.11-.5.14c-.22.03-.52.05-.89.05-.14,0-.25-.01-.33-.04-.08-.02-.14-.07-.18-.13s-.06-.15-.06-.24c-.01-.25,0-.58.03-.99.03-.41.09-.89.18-1.43.09-.55.2-1.13.35-1.73l1.34-5.1c.11-.48.15-.88.12-1.21s-.14-.58-.31-.75c-.17-.17-.4-.25-.67-.25-.82,0-1.76.43-2.83,1.3-1.07.87-2.04,1.95-2.91,3.23-.87,1.29-1.45,2.5-1.73,3.63-.18.77-.32,1.36-.4,1.77s-.15.79-.21,1.14c-.02.1-.04.21-.06.31-.04.18-.15.31-.33.39s-.47.12-.84.12c-.33,0-.57-.02-.74-.05Z" style="fill: #fff;"/>
          <path d="m208.26,99.61c-.64-.24-1.16-.58-1.56-1-.4-.42-.67-.9-.8-1.43v-.02c-.02-.12-.04-.23-.05-.33s-.02-.18,0-.23c.02-.11.1-.22.26-.32.16-.1.36-.18.6-.25s.46-.1.67-.1c.1,0,.17.02.23.05s.09.11.11.22c0,.03.01.06.02.09.08.4.24.75.49,1.04.24.29.57.52.98.69s.9.25,1.48.25,1.06-.09,1.53-.28c.47-.19.84-.46,1.13-.82.28-.36.42-.79.42-1.29,0-.37-.11-.71-.32-1.01-.22-.3-.48-.55-.8-.77-.32-.22-.75-.49-1.29-.81-.66-.37-1.2-.7-1.61-.99-.41-.29-.76-.65-1.04-1.07-.28-.43-.43-.93-.43-1.5,0-.76.21-1.43.65-2,.43-.57,1.02-1.01,1.77-1.32.75-.31,1.6-.46,2.54-.46.67,0,1.29.11,1.87.34.58.22,1.04.54,1.39.95.35.41.52.87.53,1.4,0,.09,0,.16-.03.21-.02.05-.05.1-.1.13-.05.04-.12.08-.22.11-.13.05-.33.1-.6.16-.27.05-.47.08-.6.08-.08,0-.14-.02-.19-.07-.04-.05-.08-.14-.1-.28-.04-.27-.17-.52-.38-.73s-.48-.38-.81-.5c-.33-.12-.67-.18-1.04-.18-.51,0-.96.08-1.37.25-.41.17-.72.4-.95.7-.23.3-.35.64-.35,1.03,0,.31.09.58.28.83.19.25.42.46.71.65.29.19.69.43,1.2.72.71.38,1.29.73,1.75,1.04.45.31.84.71,1.16,1.2s.49,1.07.49,1.74c0,.88-.24,1.64-.73,2.28s-1.14,1.12-1.96,1.46c-.82.33-1.73.5-2.74.5-.82,0-1.55-.12-2.19-.36Z" style="fill: #fff;"/>
          <path d="m220.1,99.39c-.62-.39-1.08-.93-1.41-1.64-.33-.71-.49-1.52-.49-2.45,0-1.5.32-2.97.97-4.41.65-1.45,1.55-2.63,2.7-3.55s2.43-1.38,3.84-1.38c.89,0,1.63.21,2.23.64.59.43,1.01,1.02,1.27,1.78.25.76.32,1.62.2,2.59l-.94,3.82c-.41,1.01-.92,1.91-1.52,2.69-.61.78-1.3,1.39-2.1,1.83-.79.44-1.65.66-2.57.66-.84,0-1.57-.19-2.18-.58Zm4.58-1.65c.6-.34,1.14-.79,1.62-1.36.48-.57.86-1.2,1.14-1.89l.84-3.47c.11-.69.08-1.29-.09-1.79-.17-.5-.46-.89-.87-1.15-.41-.26-.9-.4-1.48-.4-.94,0-1.83.38-2.67,1.15-.84.77-1.51,1.74-2.02,2.93-.51,1.18-.76,2.36-.76,3.51,0,.59.1,1.11.3,1.55.2.44.49.79.86,1.04.37.25.81.38,1.32.38.61,0,1.21-.17,1.81-.51Zm3.3,1.98c-.07-.05-.12-.15-.18-.3-.17-.49-.3-1.02-.4-1.6-.09-.58-.14-1.16-.15-1.75,0-.58.06-1.11.17-1.58l.85-3.6c.18-.75.46-1.56.82-2.44.15-.38.31-.74.48-1.09.17-.35.34-.68.51-.99.05-.08.09-.15.13-.2.04-.05.09-.08.15-.09.05,0,.12-.01.2-.01.22,0,.46.05.73.15.27.1.47.22.63.37s.19.29.11.44c-.22.41-.42.84-.61,1.3-.34.79-.66,1.64-.95,2.56-.11.35-.22.75-.33,1.18s-.23.91-.36,1.45c-.05.24-.1.46-.14.65s-.09.41-.15.65c-.09.42-.14.84-.15,1.28,0,.44.03.87.11,1.31.08.44.18.88.32,1.32.05.16.07.28.07.36s-.02.16-.07.22-.12.11-.21.16c-.18.1-.41.18-.68.25s-.49.1-.65.1c-.12,0-.22-.02-.29-.07Z" style="fill: #fff;"/>
          <path d="m234.88,99.39c-.62-.39-1.08-.93-1.41-1.64-.33-.71-.49-1.52-.49-2.45,0-1.5.32-2.97.97-4.41.65-1.45,1.55-2.63,2.7-3.55s2.43-1.38,3.84-1.38c.89,0,1.63.21,2.23.64.59.43,1.01,1.02,1.27,1.78.25.76.32,1.62.2,2.59l-.94,3.82c-.41,1.01-.92,1.91-1.52,2.69-.61.78-1.3,1.39-2.1,1.83-.79.44-1.65.66-2.57.66-.84,0-1.57-.19-2.18-.58Zm4.58-1.65c.6-.34,1.14-.79,1.62-1.36.48-.57.86-1.2,1.14-1.89l.84-3.47c.11-.69.08-1.29-.09-1.79-.17-.5-.46-.89-.87-1.15-.41-.26-.9-.4-1.48-.4-.94,0-1.83.38-2.67,1.15-.84.77-1.51,1.74-2.02,2.93-.51,1.18-.76,2.36-.76,3.51,0,.59.1,1.11.3,1.55.2.44.49.79.86,1.04.37.25.81.38,1.32.38.61,0,1.21-.17,1.81-.51Zm3.46,2c-.07-.04-.12-.14-.17-.27-.18-.51-.33-1.07-.45-1.68-.12-.61-.19-1.2-.21-1.79-.02-.58.02-1.09.12-1.52l.85-3.58c.1-.4.19-.74.26-1.03.07-.29.15-.63.25-1.03.08-.33.14-.61.2-.84.06-.22.13-.5.2-.82.04-.15.08-.3.12-.45.28-1.09.5-2.04.67-2.86s.3-1.59.39-2.31c.09-.72.14-1.4.15-2.04,0-.12.04-.22.11-.28s.18-.11.34-.14c.05,0,.08-.01.1-.01.14-.02.3-.04.46-.05.16,0,.33-.01.51-.01.15,0,.28.02.37.05.09.03.16.08.2.16s.07.16.07.27c0,.67-.05,1.36-.14,2.1-.09.73-.23,1.52-.4,2.38s-.4,1.86-.68,3.02c-.03.13-.05.26-.08.4l-1.74,7.04c-.11.46-.18.91-.19,1.37s.02.93.11,1.44.23,1.05.43,1.62c.04.12.06.23.05.31s-.04.16-.1.22c-.06.06-.15.12-.27.17-.17.07-.37.13-.6.18-.23.05-.44.07-.62.07-.14,0-.25-.02-.32-.07Z" style="fill: #fff;"/>
          <path d="m249.89,99.28c-.7-.46-1.22-1.09-1.56-1.88-.34-.79-.51-1.67-.51-2.63,0-1.32.29-2.67.88-4.03.59-1.37,1.45-2.5,2.58-3.41,1.13-.9,2.45-1.36,3.97-1.36,1.04,0,1.9.23,2.61.69.7.46,1.22,1.09,1.57,1.87.34.79.51,1.66.51,2.62,0,1.33-.29,2.68-.88,4.04-.59,1.36-1.45,2.5-2.58,3.41-1.13.91-2.45,1.36-3.97,1.36-1.04,0-1.9-.23-2.6-.7Zm5.45-2.22c.76-.78,1.36-1.74,1.78-2.86.42-1.12.63-2.15.63-3.07,0-.65-.1-1.23-.3-1.75s-.51-.93-.92-1.23c-.41-.3-.93-.46-1.55-.46-.97,0-1.83.39-2.59,1.18-.76.78-1.35,1.73-1.77,2.85s-.63,2.15-.63,3.08c0,.65.1,1.23.3,1.75s.5.92.91,1.22.93.46,1.55.46c.97,0,1.83-.39,2.6-1.18Z" style="fill: #fff;"/>
          <path d="m261.53,99.68c-.16-.03-.27-.09-.32-.17-.05-.08-.05-.2-.01-.35.07-.25.13-.49.2-.72.06-.24.14-.5.22-.81.47-1.78.87-3.3,1.19-4.56s.53-2.13.62-2.62c.13-.67.22-1.33.27-1.95.05-.63.06-1.25.03-1.85,0-.11.06-.21.16-.28.1-.07.27-.13.51-.17.24-.04.56-.06.97-.07.18,0,.32.02.4.07.08.05.13.14.13.26.03.55.02,1.09-.02,1.62-.04.53-.11,1.06-.21,1.6-.03.24-.07.47-.12.71-.05.24-.09.47-.13.72-.08.32-.16.62-.25.91s-.18.57-.28.85l-1.4,1.36c.59-1.52,1.35-2.91,2.27-4.16.92-1.25,1.95-2.25,3.09-2.98,1.14-.74,2.32-1.11,3.56-1.11.13,0,.22.04.27.12s.06.22.02.41c-.08.4-.16.72-.25.95-.09.23-.19.39-.3.48-.11.09-.24.13-.4.13-1.06,0-2.1.35-3.12,1.04-1.02.69-1.92,1.64-2.7,2.83s-1.36,2.53-1.74,4c-.2.77-.34,1.38-.43,1.83-.09.44-.16.82-.22,1.14,0,.08-.02.13-.03.17,0,.04-.02.1-.03.17,0,.13-.06.23-.15.3-.09.07-.21.11-.38.15-.17.03-.39.05-.66.05-.35,0-.6-.02-.77-.05Z" style="fill: #fff;"/>
          <path d="m272.75,99.46c-.49-.34-.85-.85-1.07-1.53-.22-.68-.28-1.51-.16-2.51.16-1.51.64-3,1.44-4.47.8-1.47,1.81-2.68,3-3.61,1.2-.93,2.44-1.4,3.72-1.4.68,0,1.3.15,1.87.44s1.06.7,1.47,1.22c.41.53.71,1.14.9,1.84l-1.08.89c-.03-.1-.06-.2-.1-.3-.18-.55-.44-1-.75-1.35-.32-.35-.67-.61-1.04-.77-.38-.17-.75-.25-1.12-.25-.81,0-1.67.39-2.56,1.16-.89.78-1.67,1.77-2.34,2.97-.67,1.2-1.08,2.37-1.22,3.49-.08.62-.07,1.13.04,1.54.11.41.29.71.54.9.25.19.57.29.93.29.86,0,1.81-.45,2.86-1.35,1.04-.9,1.99-2.02,2.84-3.34.85-1.33,1.43-2.57,1.73-3.74.13-.5.25-.93.34-1.3.09-.37.18-.7.25-.99.02-.1.04-.19.05-.25.02-.07.03-.13.04-.18.01-.06.03-.13.07-.21.02-.1.06-.19.13-.25.07-.07.17-.12.3-.15.14-.03.31-.05.53-.05.35,0,.62.02.81.06.19.04.32.11.38.19.07.09.08.21.04.36-.14.46-.29.97-.45,1.54-.16.57-.34,1.21-.54,1.91-.28,1.05-.54,2.07-.79,3.07-.25,1-.41,1.7-.5,2.11-.12.55-.2,1.06-.24,1.53s-.06.85-.06,1.13c0,.29,0,.58.01.87,0,.08,0,.15,0,.21,0,.06-.01.12-.02.17-.01.1-.08.18-.21.25-.13.07-.32.12-.55.15-.23.03-.51.05-.83.05-.13,0-.24-.01-.31-.04-.08-.02-.13-.06-.17-.11-.04-.05-.07-.13-.08-.24-.02-.17-.03-.43-.02-.77,0-.34.03-.71.06-1.1.05-.53.11-1,.18-1.39.03-.18.06-.36.1-.53s.07-.36.12-.57c.07-.32.14-.64.22-.97.08-.33.17-.7.27-1.11l.87.08c-.61,1.25-1.37,2.4-2.29,3.45-.92,1.05-1.89,1.89-2.92,2.52-1.03.63-2.01.95-2.93.95-.68,0-1.26-.17-1.75-.51Z" style="fill: #fff;"/>
        </g>
        <g>
          <g>
            <polygon points="129.81 48.3 148.37 11.93 167.73 25.43 129.81 48.3" style="fill: url(#linear-gradient);"/>
            <path d="m129.81,48.3c5.75-12.02,11.15-25.14,17.26-37.03,0,0,.76-1.49.76-1.49l1.38.96c6.92,4.74,14.28,9.95,21.13,14.81-13.13,7.87-27.48,15.26-40.53,22.76h0Zm0,0c9.56-5.97,18.92-12.37,28.12-18.37,3.01-1.93,6.03-3.82,9.07-5.72l-.08,2.37c-6.32-4.32-13.16-9.05-19.39-13.46,0,0,2.14-.53,2.14-.53-1.5,2.92-3.05,5.8-4.63,8.68-4.79,8.72-10.53,18.18-15.23,27.03h0Z"/>
          </g>
          <g>
            <polygon points="128.21 55.97 174.24 36.39 179.04 65.62 128.21 55.97" style="fill: url(#linear-gradient-2);"/>
            <path d="m128.21,55.97c15.48-6.97,31.49-14.98,47.15-21.64.07.11,2.58,15.62,2.76,16.43.2,1.18,2.58,16.02,2.69,16.67-17.36-3.21-35.36-7.82-52.59-11.45h0Zm0,0c12.44,2.19,26.32,4.03,38.72,6.07,4.13.7,8.26,1.37,12.39,2.15l-1.7,1.66c-1.25-7.28-3.64-21.94-4.79-29.23,0,0,1.99,1.09,1.99,1.09-3.74,1.56-7.5,3.06-11.26,4.57-11.31,4.46-24.03,9.06-35.34,13.69h0Z"/>
          </g>
          <g>
            <polygon points="125.82 36.47 118.75 10.71 135.22 10.69 125.82 36.47" style="fill: url(#Degradado_sin_nombre_28);"/>
            <path d="m125.82,36.47c-2.89-8.9-6.52-18.12-8.98-27.19,6.39-.06,14.11-.1,20.46-.05-3.19,9.16-7.76,18.34-11.48,27.24h0Zm0,0c2.17-6.45,3.97-13.69,5.98-20.12.65-2.07,1.31-4.13,2.05-6.17,0,0,1.37,1.96,1.37,1.96-4.76.05-11.64.05-16.47,0,0,0,1.39-1.82,1.39-1.82,2.27,8.66,3.53,17.37,5.68,26.15h0Z"/>
          </g>
        </g>
        <g>
          <g style="filter: url(#outer-glow-11);">
            <path d="m98.24,21.86l-50.49,23.66-10.01,57.96,53.19-26.78,7.31-54.84Zm-40.19,29.49c1.16-1.16,2.36-2.28,3.54-3.42,0,0-.01-.01-.01-.02,1.05-1.01,2.08-2.02,3.14-3.01.99-.93,1.93-1.02,2.96.04,2.14,2.22,4.35,4.37,6.52,6.56.5.5,1,1.02.66,1.8-.34.78-1.09.75-1.79.79-3.4.19-3.38.19-3.45,3.62-.07,3.8.4,3.49-3.65,3.45-.38,0-.77-.04-1.14,0-1.68.19-2.36-.54-2.11-2.16.05-.31.03-.62.01-.94-.06-1.24.51-2.69-.22-3.65-.75-.99-2.27-.29-3.44-.45-.65-.09-1.28-.2-1.52-.91-.23-.67.05-1.25.51-1.71Zm29.73,16.4c-1.1,1.12-2.27,2.19-3.4,3.29,0,0,0,0,0,0-1.09,1.05-2.17,2.11-3.28,3.14-.52.48-1.14.85-1.9.58-.82-.29-.84-1-.89-1.69q-.23-3.45-3.74-3.47c-4.7-.02-9.41-.04-14.11-.03-.88,0-1.8.04-2.64.28-1.71.49-2.9,2.34-2.67,3.88.23,1.47,1.79,2.9,3.26,2.97,1.6.08,3.67-1.23,3.73-2.89.08-2.53,1.42-2.68,3.44-2.6,4.16.16,4.45.47,3.35,4.46-1.44,5.2-6.57,8.51-11.95,7.71-5.16-.77-8.99-5.42-8.76-10.62.23-5.2,4.5-9.64,9.93-9.84,5.78-.22,11.57-.08,17.35-.07,2.9,0,2.9.03,2.97-2.78,0-.31,0-.63.04-.93.06-.57.18-1.12.82-1.36.62-.23,1.12,0,1.55.43,2.36,2.36,4.71,4.72,7.07,7.08.87.87.58,1.72-.16,2.47Z" style="fill: url(#Degradado_sin_nombre_437);"/>
            <polygon points="98.93 18.94 104.25 12.07 40.17 32.18 47.13 43.22 98.93 18.94" style="fill: url(#Degradado_sin_nombre_116);"/>
            <path d="m39.34,35.31c-1.19,21.53-2.65,49.47-3.18,63.27l9.26-53.61-6.09-9.66Z" style="fill: url(#linear-gradient-3);"/>
            <polygon points="100.85 20.33 93.35 76.6 105.31 79.8 106.24 13.37 100.85 20.33" style="fill: url(#linear-gradient-4);"/>
            <path d="m44.78,102.56c14.92-5.36,42.56-15.46,57.83-21.05l-10.45-2.8-47.38,23.85Z" style="fill: url(#linear-gradient-5);"/>
            <path d="m37.21,30.65l-.05.81c-.01.19-1.07,19.14-2.03,37.85q-1.99,38.98-.38,39.11s.01,0,.02,0c.39.02,2.39-.43,72.12-26l.77-.28,1.03-73.92L37.21,30.65ZM104.25,12.07l-5.32,6.87-51.8,24.28-6.96-11.04L104.25,12.07Zm-64.92,23.23l6.09,9.66-9.26,53.61c.52-13.8,1.98-41.74,3.18-63.27Zm8.41,10.21l50.49-23.66-7.31,54.84-53.19,26.78,10.01-57.96Zm-2.97,57.04l47.38-23.85,10.45,2.8c-15.26,5.59-42.91,15.69-57.83,21.05Zm48.57-25.96l7.5-56.27,5.4-6.97-.93,66.44-11.97-3.21Z"/>
            <path d="m80.86,58.2c-.43-.43-.92-.67-1.55-.43-.64.24-.77.79-.82,1.36-.03.31-.03.62-.04.93-.07,2.81-.07,2.79-2.97,2.78-5.79,0-11.58-.15-17.35.07-5.43.21-9.7,4.65-9.93,9.84-.23,5.2,3.6,9.85,8.76,10.62,5.38.8,10.52-2.51,11.95-7.71,1.1-3.99.81-4.3-3.35-4.46-2.02-.08-3.36.07-3.44,2.6-.05,1.66-2.13,2.96-3.73,2.89-1.46-.07-3.03-1.5-3.26-2.97-.24-1.54.96-3.39,2.67-3.88.84-.24,1.76-.27,2.64-.28,4.7-.01,9.41,0,14.11.03q3.51.01,3.74,3.47c.05.7.07,1.41.89,1.69.76.27,1.38-.1,1.9-.58,1.11-1.03,2.19-2.09,3.28-3.14,0,0,0,0,0,0,1.14-1.09,2.3-2.16,3.4-3.29.74-.75,1.03-1.59.16-2.47-2.35-2.36-4.71-4.72-7.07-7.08Z"/>
            <path d="m59.05,53.96c1.17.16,2.69-.53,3.44.45.73.96.16,2.42.22,3.65.01.31.03.63-.01.94-.25,1.63.43,2.35,2.11,2.16.38-.04.76,0,1.14,0,4.05.04,3.58.35,3.65-3.45.06-3.43.05-3.43,3.45-3.62.7-.04,1.45-.01,1.79-.79.34-.78-.16-1.3-.66-1.8-2.17-2.18-4.38-4.34-6.52-6.56-1.02-1.06-1.97-.97-2.96-.04-1.06.99-2.1,2.01-3.14,3.01,0,0,.01.01.01.02-1.18,1.14-2.38,2.26-3.54,3.42-.46.46-.74,1.03-.51,1.71.24.71.86.82,1.52.91Z"/>
          </g>
          <g style="filter: url(#outer-glow-12);">
            <path d="m98.24,21.86l-50.49,23.66-10.01,57.96,53.19-26.78,7.31-54.84Zm-40.19,29.49c1.16-1.16,2.36-2.28,3.54-3.42,0,0-.01-.01-.01-.02,1.05-1.01,2.08-2.02,3.14-3.01.99-.93,1.93-1.02,2.96.04,2.14,2.22,4.35,4.37,6.52,6.56.5.5,1,1.02.66,1.8-.34.78-1.09.75-1.79.79-3.4.19-3.38.19-3.45,3.62-.07,3.8.4,3.49-3.65,3.45-.38,0-.77-.04-1.14,0-1.68.19-2.36-.54-2.11-2.16.05-.31.03-.62.01-.94-.06-1.24.51-2.69-.22-3.65-.75-.99-2.27-.29-3.44-.45-.65-.09-1.28-.2-1.52-.91-.23-.67.05-1.25.51-1.71Zm29.73,16.4c-1.1,1.12-2.27,2.19-3.4,3.29,0,0,0,0,0,0-1.09,1.05-2.17,2.11-3.28,3.14-.52.48-1.14.85-1.9.58-.82-.29-.84-1-.89-1.69q-.23-3.45-3.74-3.47c-4.7-.02-9.41-.04-14.11-.03-.88,0-1.8.04-2.64.28-1.71.49-2.9,2.34-2.67,3.88.23,1.47,1.79,2.9,3.26,2.97,1.6.08,3.67-1.23,3.73-2.89.08-2.53,1.42-2.68,3.44-2.6,4.16.16,4.45.47,3.35,4.46-1.44,5.2-6.57,8.51-11.95,7.71-5.16-.77-8.99-5.42-8.76-10.62.23-5.2,4.5-9.64,9.93-9.84,5.78-.22,11.57-.08,17.35-.07,2.9,0,2.9.03,2.97-2.78,0-.31,0-.63.04-.93.06-.57.18-1.12.82-1.36.62-.23,1.12,0,1.55.43,2.36,2.36,4.71,4.72,7.07,7.08.87.87.58,1.72-.16,2.47Z" style="fill: url(#Degradado_sin_nombre_91);"/>
            <polygon points="98.93 18.94 104.25 12.07 40.17 32.18 47.13 43.22 98.93 18.94" style="fill: url(#Degradado_sin_nombre_90);"/>
            <path d="m39.34,35.31c-1.19,21.53-2.65,49.47-3.18,63.27l9.26-53.61-6.09-9.66Z" style="fill: url(#linear-gradient-6);"/>
            <polygon points="100.85 20.33 93.35 76.6 105.31 79.8 106.24 13.37 100.85 20.33" style="fill: url(#linear-gradient-7);"/>
            <path d="m44.78,102.56c14.92-5.36,42.56-15.46,57.83-21.05l-10.45-2.8-47.38,23.85Z" style="fill: url(#linear-gradient-8);"/>
            <path d="m37.21,30.65l-.05.81c-.01.19-1.07,19.14-2.03,37.85q-1.99,38.98-.38,39.11s.01,0,.02,0c.39.02,2.39-.43,72.12-26l.77-.28,1.03-73.92L37.21,30.65ZM104.25,12.07l-5.32,6.87-51.8,24.28-6.96-11.04L104.25,12.07Zm-64.92,23.23l6.09,9.66-9.26,53.61c.52-13.8,1.98-41.74,3.18-63.27Zm8.41,10.21l50.49-23.66-7.31,54.84-53.19,26.78,10.01-57.96Zm-2.97,57.04l47.38-23.85,10.45,2.8c-15.26,5.59-42.91,15.69-57.83,21.05Zm48.57-25.96l7.5-56.27,5.4-6.97-.93,66.44-11.97-3.21Z"/>
            <path d="m80.86,58.2c-.43-.43-.92-.67-1.55-.43-.64.24-.77.79-.82,1.36-.03.31-.03.62-.04.93-.07,2.81-.07,2.79-2.97,2.78-5.79,0-11.58-.15-17.35.07-5.43.21-9.7,4.65-9.93,9.84-.23,5.2,3.6,9.85,8.76,10.62,5.38.8,10.52-2.51,11.95-7.71,1.1-3.99.81-4.3-3.35-4.46-2.02-.08-3.36.07-3.44,2.6-.05,1.66-2.13,2.96-3.73,2.89-1.46-.07-3.03-1.5-3.26-2.97-.24-1.54.96-3.39,2.67-3.88.84-.24,1.76-.27,2.64-.28,4.7-.01,9.41,0,14.11.03q3.51.01,3.74,3.47c.05.7.07,1.41.89,1.69.76.27,1.38-.1,1.9-.58,1.11-1.03,2.19-2.09,3.28-3.14,0,0,0,0,0,0,1.14-1.09,2.3-2.16,3.4-3.29.74-.75,1.03-1.59.16-2.47-2.35-2.36-4.71-4.72-7.07-7.08Z" style="fill: #fff;"/>
            <path d="m59.05,53.96c1.17.16,2.69-.53,3.44.45.73.96.16,2.42.22,3.65.01.31.03.63-.01.94-.25,1.63.43,2.35,2.11,2.16.38-.04.76,0,1.14,0,4.05.04,3.58.35,3.65-3.45.06-3.43.05-3.43,3.45-3.62.7-.04,1.45-.01,1.79-.79.34-.78-.16-1.3-.66-1.8-2.17-2.18-4.38-4.34-6.52-6.56-1.02-1.06-1.97-.97-2.96-.04-1.06.99-2.1,2.01-3.14,3.01,0,0,.01.01.01.02-1.18,1.14-2.38,2.26-3.54,3.42-.46.46-.74,1.03-.51,1.71.24.71.86.82,1.52.91Z" style="fill: #fff;"/>
          </g>
        </g>
      </g>
    </g>
  </g>
</svg>