<?xml version="1.0" encoding="UTF-8"?>
<svg xmlns="http://www.w3.org/2000/svg" xmlns:xlink="http://www.w3.org/1999/xlink" viewBox="0 0 314.98 118.03">
  <defs>
    <clipPath id="clippath">
      <polygon points="-1808.3 2041.25 -1179.93 1982.46 -1186.77 1445.17 -1839.11 1619.91 -1808.3 2041.25" style="fill: none;"/>
    </clipPath>
    <linearGradient id="Degradado_sin_nombre_6" data-name="Degradado sin nombre 6" x1="4253.4" y1="10460.34" x2="4760.07" y2="10460.34" gradientTransform="translate(4690.58 10534.25) rotate(-180)" gradientUnits="userSpaceOnUse">
      <stop offset="0" stop-color="#7f21ea"/>
      <stop offset=".15" stop-color="#6d47ee"/>
      <stop offset=".35" stop-color="#5975f4"/>
      <stop offset=".54" stop-color="#4999f8"/>
      <stop offset=".71" stop-color="#3eb2fb"/>
      <stop offset=".87" stop-color="#37c2fd"/>
      <stop offset="1" stop-color="#35c8fe"/>
    </linearGradient>
    <filter id="outer-glow-11" filterUnits="userSpaceOnUse">
      <feOffset dx="0" dy="0"/>
      <feGaussianBlur result="blur" stdDeviation="5.67"/>
      <feFlood flood-color="#ffe838" flood-opacity="1"/>
      <feComposite in2="blur" operator="in"/>
      <feComposite in="SourceGraphic"/>
    </filter>
    <linearGradient id="linear-gradient" x1="197.81" y1="254.04" x2="200.23" y2="219.06" gradientTransform="translate(-113.14 -160.72) rotate(-3.03)" gradientUnits="userSpaceOnUse">
      <stop offset="0" stop-color="#ffb800"/>
      <stop offset="1" stop-color="#fff036"/>
    </linearGradient>
    <linearGradient id="linear-gradient-2" x1="170.96" y1="181.05" x2="170.1" y2="212.01" gradientTransform="translate(-113.14 -160.72) rotate(-3.03)" gradientUnits="userSpaceOnUse">
      <stop offset="0" stop-color="#f2da71"/>
      <stop offset="1" stop-color="#fff036"/>
    </linearGradient>
    <linearGradient id="Degradado_sin_nombre_89" data-name="Degradado sin nombre 89" x1="135.33" y1="268.72" x2="196.74" y2="215.12" gradientTransform="translate(-113.14 -160.72) rotate(-3.03)" gradientUnits="userSpaceOnUse">
      <stop offset=".25" stop-color="#fac140"/>
      <stop offset="1" stop-color="#fff036"/>
    </linearGradient>
    <linearGradient id="linear-gradient-3" x1="128.51" y1="260.22" x2="138.78" y2="217.38" xlink:href="#linear-gradient"/>
    <filter id="outer-glow-12" filterUnits="userSpaceOnUse">
      <feOffset dx="0" dy="0"/>
      <feGaussianBlur result="blur-2" stdDeviation="5.67"/>
      <feFlood flood-color="#ffe838" flood-opacity="1"/>
      <feComposite in2="blur-2" operator="in"/>
      <feComposite in="SourceGraphic"/>
    </filter>
    <linearGradient id="Degradado_sin_nombre_89-2" data-name="Degradado sin nombre 89" x1="140.93" y1="263.83" x2="202.33" y2="210.24" xlink:href="#Degradado_sin_nombre_89"/>
    <linearGradient id="linear-gradient-4" x1="128.51" y1="260.22" x2="138.78" y2="217.38" xlink:href="#linear-gradient"/>
    <linearGradient id="linear-gradient-5" x1="-291.14" y1="-1318.05" x2="-294.17" y2="-1332.96" gradientTransform="translate(-688.85 1112.41) rotate(50.05)" gradientUnits="userSpaceOnUse">
      <stop offset="0" stop-color="#ffe166"/>
      <stop offset="1" stop-color="#ffb932"/>
    </linearGradient>
    <linearGradient id="linear-gradient-6" x1="-269.11" y1="-1315.62" x2="-256.08" y2="-1350.49" xlink:href="#linear-gradient-5"/>
    <linearGradient id="Degradado_sin_nombre_81" data-name="Degradado sin nombre 81" x1="-309.88" y1="-1312.26" x2="-322.13" y2="-1326.53" gradientTransform="translate(-688.85 1112.41) rotate(50.05)" gradientUnits="userSpaceOnUse">
      <stop offset="0" stop-color="#ffe166"/>
      <stop offset="1" stop-color="#ffb932"/>
    </linearGradient>
  </defs>
  <g style="isolation: isolate;">
    <g id="Juego">
      <g style="mix-blend-mode: multiply;">
        <g style="clip-path: url(#clippath);">
          <g id="Doble_p치gina_13-14.psb" data-name="Doble p치gina 13-14.psb" style="mix-blend-mode: multiply;">
            <image id="Doble_p치gina_13-14" data-name="Doble p치gina 13-14" width="9242" height="6140" transform="translate(-4726.31 -707.72) rotate(.31) scale(.58) skewX(-.03)" xlink:href="boton_gema1.png"/>
          </g>
        </g>
      </g>
    </g>
    <g id="Capa_3" data-name="Capa 3">
      <g>
        <path d="m37.13,32.47l240.72-1.67c9.2,0,17.38,5.87,20.33,14.59l14.65,43.3c4.71,13.92-5.64,28.34-20.33,28.34H22.48c-14.69,0-25.04-14.43-20.33-28.34l14.65-43.3c2.95-8.72,11.13-12.92,20.33-12.92Z" style="fill: url(#Degradado_sin_nombre_6); stroke: #fff; stroke-miterlimit: 10; stroke-width: 2px;"/>
        <g>
          <path d="m198.52,65.43c-.87-.54-1.53-1.31-1.99-2.32-.46-1.01-.69-2.22-.69-3.61,0-2.11.44-4.18,1.33-6.22.89-2.03,2.15-3.7,3.8-5.01,1.65-1.3,3.56-1.96,5.74-1.96,1.28,0,2.37.25,3.29.75s1.59,1.16,2.03,1.98c.44.82.61,1.69.52,2.62,0,.16-.07.28-.17.37-.1.09-.26.16-.48.22-.21.06-.46.11-.75.14-.28.03-.6.05-.95.05-.16,0-.28-.02-.37-.06-.09-.04-.15-.09-.2-.17-.05-.08-.07-.18-.08-.32,0-.55-.11-1.05-.33-1.51-.23-.45-.58-.82-1.05-1.09s-1.07-.41-1.79-.41c-1.49,0-2.79.57-3.9,1.7-1.11,1.14-1.96,2.53-2.54,4.2-.58,1.66-.87,3.25-.87,4.77,0,.85.12,1.58.37,2.19.25.61.63,1.09,1.14,1.42.51.33,1.16.5,1.95.5s1.56-.27,2.41-.82c.85-.55,1.6-1.27,2.25-2.16s1.08-1.8,1.29-2.74c.04-.24.08-.51.15-.81.04-.26.08-.5.11-.72l2.63.66-2.01,8.33c-.03.14-.1.25-.2.34-.1.09-.25.15-.42.2s-.4.07-.67.07c-.51,0-.88-.02-1.1-.05-.22-.04-.36-.1-.42-.18-.06-.08-.07-.21-.04-.39l1-4.17,1.28-1.1c-.46,1.4-1.09,2.56-1.89,3.48-.8.92-1.67,1.59-2.59,2.01-.92.42-1.83.64-2.71.64-1.18,0-2.2-.27-3.07-.8Zm5.99-7.73c-.11-.05-.18-.13-.21-.25-.03-.12-.02-.28.02-.51.08-.42.16-.74.25-.96.09-.21.2-.37.32-.46s.3-.14.52-.15c.45-.01.89-.03,1.34-.04.45,0,.92-.02,1.42-.04.91-.03,1.82-.06,2.73-.1.91-.04,1.59-.07,2.04-.1.16,0,.29,0,.39.05s.17.12.2.23c.04.11.04.26,0,.46-.08.46-.17.81-.27,1.06-.1.24-.21.4-.31.48-.11.08-.25.13-.42.14-.62.04-1.38.07-2.28.1-.89.03-1.76.06-2.61.08-.51,0-.96.02-1.35.03-.38,0-.81.02-1.28.02-.24.01-.42,0-.52-.05Z" style="fill: #fff;"/>
          <path d="m216.73,65.62c-.71-.43-1.24-1-1.59-1.73-.35-.72-.53-1.54-.53-2.43,0-1.59.34-3.11,1.03-4.55.69-1.44,1.66-2.6,2.9-3.49,1.24-.89,2.66-1.33,4.26-1.33.83,0,1.55.14,2.15.42s1.07.67,1.38,1.16c.32.49.48,1.05.48,1.69,0,1.33-.55,2.46-1.64,3.39-1.1.93-2.6,1.64-4.52,2.13-1.92.49-4.19.75-6.82.79-.02,0-.04,0-.06,0-.13-.01-.23-.05-.29-.12-.07-.07-.11-.19-.12-.36-.02-.17,0-.42.04-.75.04-.26.08-.46.13-.6s.11-.23.19-.28c.08-.05.19-.08.34-.08,1.77,0,3.38-.12,4.83-.39,1.45-.26,2.67-.69,3.64-1.29.97-.6,1.46-1.35,1.46-2.27,0-.23-.05-.43-.15-.6s-.26-.3-.46-.39c-.21-.09-.46-.13-.77-.13-.94,0-1.79.36-2.56,1.09s-1.37,1.64-1.81,2.73c-.44,1.1-.66,2.14-.66,3.13,0,.56.07,1.03.22,1.41s.36.67.66.87c.3.2.67.29,1.11.29.37,0,.75-.08,1.13-.23.38-.15.75-.37,1.1-.64s.69-.61,1-.99c.1-.11.19-.19.27-.23.08-.04.16-.05.25-.05.12,0,.29.08.53.22.24.14.46.31.68.5s.37.35.44.46c.07.13.09.26.05.39-.04.13-.13.28-.28.46-.47.55-.97,1-1.51,1.36s-1.14.63-1.78.81c-.64.19-1.35.28-2.13.28-1.01,0-1.88-.21-2.58-.64Z" style="fill: #fff;"/>
          <path d="m227.42,65.97c-.23-.04-.38-.12-.45-.22-.08-.11-.09-.26-.04-.46.36-1.26.78-2.82,1.25-4.68.47-1.86.79-3.18.94-3.96.14-.73.25-1.42.31-2.07.06-.65.09-1.16.08-1.52v-.05c0-.16.09-.29.26-.39s.41-.19.73-.24.7-.08,1.14-.08c.21,0,.39.02.52.05.13.03.23.08.29.15s.09.16.08.27c.02.32.01.66-.02,1.02-.04.36-.09.73-.15,1.09-.01.05-.02.11-.02.16-.06.31-.12.59-.18.85-.06.25-.14.51-.22.78-.08.25-.16.46-.23.65l-.29-.08c.62-.99,1.32-1.87,2.09-2.65s1.57-1.39,2.39-1.84c.82-.44,1.61-.67,2.36-.67.71,0,1.28.19,1.71.57s.7.93.8,1.65.02,1.54-.23,2.49l-.25.94-.27-.72c.59-.93,1.25-1.77,1.97-2.52.72-.75,1.46-1.34,2.24-1.77.78-.43,1.53-.64,2.26-.64s1.38.18,1.86.55c.47.37.77.91.89,1.62.12.71.05,1.56-.22,2.56l-1.28,4.8c-.25.97-.42,1.73-.5,2.28-.08.55-.14,1.06-.16,1.52,0,.16-.09.28-.24.36s-.39.15-.7.19c-.31.04-.71.06-1.2.06-.23,0-.4-.02-.54-.06-.13-.04-.23-.1-.29-.19s-.09-.21-.09-.36c0-.25.02-.56.06-.95s.11-.85.21-1.39c.1-.54.23-1.13.41-1.76l1.14-4.28c.15-.51.21-.93.19-1.26-.02-.33-.1-.56-.25-.72-.14-.15-.32-.23-.53-.23-.69,0-1.46.38-2.29,1.13s-1.6,1.68-2.29,2.78c-.69,1.1-1.16,2.11-1.4,3.03-.18.69-.33,1.33-.42,1.91-.1.59-.18,1.08-.24,1.49,0,.05,0,.09,0,.12,0,.03,0,.07-.02.12-.02.15-.11.27-.25.36-.15.1-.37.16-.66.2-.29.04-.68.06-1.15.06-.21,0-.38-.02-.51-.05-.13-.04-.23-.1-.3-.18-.07-.08-.11-.21-.1-.38.02-.35.1-.92.24-1.71.14-.79.34-1.68.61-2.68l1.11-4.13c.13-.48.19-.88.18-1.19-.01-.31-.08-.53-.22-.68-.13-.14-.31-.21-.53-.21-.72,0-1.52.4-2.39,1.2s-1.68,1.8-2.41,2.99-1.23,2.34-1.49,3.42c-.13.5-.23.91-.3,1.25-.07.33-.15.74-.24,1.22-.04.2-.07.36-.1.48-.04.23-.19.39-.46.49-.27.1-.66.15-1.16.15-.42,0-.74-.02-.97-.06Z" style="fill: #fff;"/>
          <path d="m252.5,65.68c-.62-.39-1.11-.95-1.45-1.69s-.51-1.61-.51-2.62c0-1.51.32-2.97.96-4.41.64-1.43,1.53-2.6,2.66-3.5,1.13-.9,2.39-1.35,3.78-1.35.87,0,1.6.2,2.2.61.6.41,1.03.99,1.29,1.73.26.75.35,1.61.26,2.58l-1.01,4.29c-.42,1.01-.9,1.88-1.47,2.61-.56.73-1.22,1.3-1.98,1.71s-1.6.61-2.54.61c-.84,0-1.57-.19-2.2-.58Zm4.77-2.21c.49-.27.93-.64,1.3-1.11.38-.46.68-.99.92-1.58l.88-3.66c.09-.55.06-1.02-.09-1.42-.15-.4-.39-.7-.74-.91-.34-.21-.75-.31-1.22-.31-.83,0-1.6.36-2.32,1.07-.72.71-1.3,1.61-1.74,2.69s-.66,2.11-.66,3.09c0,.53.09.99.27,1.37s.42.67.73.87.69.3,1.12.3c.54,0,1.06-.14,1.55-.41Zm2.8,2.54c-.1-.07-.17-.19-.23-.36-.13-.41-.24-.91-.33-1.49-.1-.58-.15-1.18-.15-1.78,0-.6.04-1.13.13-1.59l.89-3.74c.15-.66.41-1.43.77-2.32.16-.39.32-.77.48-1.13s.33-.68.49-.96c.06-.12.12-.22.18-.28s.13-.1.2-.12c.07-.02.18-.02.3-.02.27,0,.6.06.97.19.38.13.68.3.91.5.23.2.29.4.19.6-.18.34-.36.72-.55,1.15-.31.72-.58,1.47-.83,2.24-.12.35-.24.78-.36,1.27-.12.49-.27,1.07-.44,1.73-.05.25-.09.46-.13.61-.04.15-.08.35-.15.59-.09.37-.14.76-.14,1.16s.03.8.09,1.2c.06.4.15.8.26,1.21.06.19.08.34.07.45,0,.11-.05.2-.11.29-.06.08-.16.16-.29.23-.27.12-.59.23-.96.32-.37.09-.67.14-.9.14-.16,0-.29-.03-.38-.1Z" style="fill: #fff;"/>
          <path d="m120.7,100.78c-.16-.04-.27-.09-.32-.17-.05-.08-.06-.2-.02-.35.28-1.02.69-2.56,1.21-4.63.53-2.06.85-3.43.99-4.09.17-.77.27-1.49.31-2.16s.04-1.19.01-1.56v-.05c0-.12.05-.22.17-.3s.29-.15.52-.19c.23-.05.5-.07.82-.07.15,0,.28.01.37.04.1.03.16.07.21.13s.07.13.07.21c.03.49.02.97-.01,1.45s-.09.93-.17,1.37c-.01.08-.03.14-.05.2-.05.27-.1.52-.16.74s-.12.46-.19.69c-.06.21-.12.4-.18.55l-.21-.06c.63-1.03,1.35-1.96,2.17-2.79s1.66-1.49,2.53-1.98c.87-.49,1.68-.73,2.43-.73.66,0,1.19.18,1.6.53.41.35.67.85.78,1.5.11.64.05,1.39-.18,2.25l-.38,1.42-.18-.46c.61-.96,1.31-1.84,2.09-2.63.78-.8,1.58-1.43,2.41-1.9.82-.47,1.59-.7,2.31-.7s1.25.17,1.68.52c.44.34.71.83.83,1.46.12.63.07,1.37-.15,2.22l-1.42,5.18c-.25.97-.4,1.76-.47,2.35-.07.6-.1,1.13-.1,1.61,0,.1-.06.19-.18.26-.11.07-.28.12-.5.15-.22.03-.51.05-.85.05-.15,0-.28-.02-.37-.05-.09-.03-.16-.08-.21-.14s-.07-.15-.08-.25c0-.28,0-.62.04-1.02s.09-.87.18-1.41c.09-.54.21-1.12.38-1.74l1.29-4.82c.15-.55.21-1.01.18-1.37s-.14-.63-.31-.8c-.17-.17-.4-.26-.67-.26-.77,0-1.65.42-2.63,1.26s-1.88,1.87-2.68,3.07c-.81,1.21-1.34,2.3-1.6,3.27-.21.81-.37,1.51-.46,2.1-.09.59-.16,1.09-.19,1.49,0,.04,0,.08-.01.1,0,.03,0,.06-.02.1,0,.1-.07.19-.19.26s-.29.12-.51.16c-.22.03-.49.05-.82.05-.16,0-.3-.01-.4-.04-.1-.03-.18-.07-.23-.13-.05-.06-.08-.15-.07-.27.05-.41.14-1,.29-1.79s.34-1.61.57-2.47l1.28-4.77c.15-.55.21-1,.18-1.36s-.13-.62-.3-.79c-.18-.17-.41-.25-.7-.25-.82,0-1.74.44-2.75,1.31s-1.94,1.96-2.77,3.26c-.83,1.31-1.4,2.55-1.69,3.73-.11.46-.2.87-.28,1.25-.08.37-.17.77-.26,1.2-.04.27-.08.48-.11.61-.04.17-.15.3-.35.38-.2.08-.47.12-.83.12-.32,0-.56-.02-.72-.05Z" style="fill: #fff;"/>
          <path d="m144.65,100.46c-.42-.34-.67-.83-.77-1.46-.09-.63-.03-1.38.19-2.24l1.35-5.07c.22-.84.37-1.56.44-2.16.07-.59.12-1.11.13-1.56,0-.06,0-.11,0-.15,0-.04,0-.09,0-.16,0-.11.07-.2.19-.26.12-.07.28-.11.5-.15.22-.03.52-.05.9-.05.14,0,.25.01.34.04.09.03.15.07.18.13.04.06.05.14.05.25.04.4.02.96-.07,1.7-.09.73-.25,1.56-.5,2.49l-1.27,4.81c-.21.81-.25,1.42-.1,1.82.15.4.48.6.98.6.82,0,1.77-.44,2.82-1.33,1.06-.89,2.02-1.99,2.89-3.32s1.45-2.57,1.73-3.75c.15-.63.26-1.14.34-1.54.08-.39.15-.73.21-1.02.02-.1.04-.18.05-.24.01-.06.03-.13.04-.21.03-.12.08-.22.16-.29.08-.07.21-.11.38-.14.17-.02.42-.04.75-.04.3,0,.52.02.67.05.15.03.25.08.29.16.04.08.04.2,0,.36-.16.61-.29,1.11-.38,1.48-.39,1.44-.76,2.87-1.11,4.29s-.57,2.39-.67,2.93c-.13.78-.22,1.43-.26,1.93-.04.5-.05.98-.04,1.42,0,.1,0,.2-.01.28,0,.08,0,.17-.01.25-.02.1-.07.18-.17.25s-.25.13-.47.17c-.22.04-.53.06-.93.06-.2,0-.34-.02-.44-.07s-.16-.13-.17-.24c0-.14,0-.31.02-.51.01-.2.03-.41.04-.64,0-.38.02-.75.04-1.09.02-.34.06-.69.12-1.03.03-.25.09-.54.17-.85.08-.31.18-.67.29-1.09.08-.29.15-.53.2-.71s.1-.39.16-.62l1.29-1.47c-.49,1.35-1.23,2.69-2.23,4-1,1.31-2.1,2.38-3.3,3.22-1.2.83-2.32,1.25-3.36,1.25-.69,0-1.24-.17-1.66-.51Z" style="fill: #fff;"/>
          <path d="m160.06,100.46c-.42-.29-.7-.7-.83-1.24s-.11-1.18.05-1.94c.05-.25.11-.53.18-.84.08-.36.17-.76.29-1.22l1.7-6.87c.06-.21.1-.4.14-.55s.09-.34.14-.55c.13-.51.25-.99.35-1.43s.18-.8.22-1.09c.15-.74.25-1.42.31-2.04s.09-1.16.09-1.6c.02-.17.02-.28,0-.35,0-.1.03-.19.06-.25.04-.07.09-.12.18-.17s.2-.08.34-.11c0,0,.03,0,.05-.01.14-.02.29-.04.45-.06s.36-.02.58-.02c.16,0,.29.04.39.11s.15.18.15.34c0,.17,0,.31,0,.41-.02.54-.05,1.12-.1,1.76-.05.63-.14,1.28-.26,1.95-.07.3-.13.61-.2.93-.07.32-.16.67-.27,1.08-.18.8-.33,1.44-.46,1.91l-1.75,7.06c-.03.12-.06.25-.09.39-.06.28-.11.52-.16.73-.04.2-.1.44-.16.7-.08.41-.11.73-.08.96.03.23.11.4.26.5.15.1.36.15.63.15s.51-.04.75-.11c.23-.07.47-.17.71-.29.11-.04.21-.07.28-.1.08-.03.15-.04.21-.04.09,0,.17.05.25.16.08.11.14.26.19.45s.08.4.08.62c0,.09-.02.18-.05.24-.04.07-.09.13-.15.17-.06.04-.14.09-.23.13h-.05c-.36.17-.78.3-1.23.41-.46.11-.86.17-1.22.17-.73,0-1.3-.15-1.73-.44Z" style="fill: #fff;"/>
          <path d="m167.56,88.86c-.08-.04-.12-.11-.13-.22-.01-.1,0-.25.04-.44.05-.25.09-.43.15-.56.05-.12.12-.21.21-.26.09-.05.22-.07.38-.07.52,0,1.12-.01,1.79-.04.67-.03,1.4-.06,2.19-.11.55-.02,1.1-.05,1.64-.07.54-.02.99-.04,1.33-.04.12,0,.21.02.28.05.07.03.12.09.14.16.02.07.02.18,0,.33-.05.3-.11.53-.17.68-.06.15-.14.25-.22.3s-.18.08-.29.08c-.42.02-.81.03-1.17.05s-.76.03-1.19.05c-1.06.05-1.98.1-2.78.13-.79.04-1.41.05-1.84.04-.16,0-.28-.02-.36-.06Zm.75,11.63c-.39-.27-.64-.66-.75-1.18-.12-.52-.11-1.17.03-1.95.04-.18.08-.38.13-.58.04-.2.1-.44.17-.71l.08-.36,1.35-5.38c.15-.57.28-1.06.38-1.47.11-.46.2-.87.27-1.23.11-.55.19-1.07.25-1.56.06-.49.1-.97.13-1.45.03-.29.05-.58.07-.86,0-.1.06-.19.15-.24.09-.06.24-.1.46-.14.22-.03.53-.05.94-.05.19,0,.33.03.42.1.09.06.14.18.13.34,0,.19,0,.47,0,.84-.03.44-.08.93-.14,1.47-.06.53-.15,1.08-.25,1.64-.04.25-.08.47-.13.67-.04.2-.09.4-.13.61-.13.57-.25,1.08-.37,1.53l-1.41,5.56c-.04.15-.09.35-.15.6-.02.14-.04.27-.07.39s-.06.25-.09.4c-.07.41-.09.74-.06.98.03.24.12.42.26.53.14.12.34.17.6.17.27,0,.52-.03.75-.09.23-.06.48-.13.76-.22.21-.06.35-.09.42-.09.11,0,.2.04.27.12s.12.2.14.37.03.38,0,.62c0,.12-.03.21-.05.28s-.07.13-.12.18-.12.09-.2.12c-.22.09-.47.17-.77.25s-.61.14-.93.18-.63.06-.92.06c-.7,0-1.24-.13-1.63-.4Z" style="fill: #fff;"/>
          <path d="m175.65,100.83c-.16-.03-.26-.09-.31-.17s-.05-.22,0-.39l.38-1.38c.13-.48.26-.96.39-1.44.27-1.03.52-2.01.74-2.92.22-.91.41-1.75.58-2.52.15-.75.28-1.44.39-2.07.11-.63.2-1.22.28-1.78,0-.13.02-.25.03-.38.01-.12.06-.22.14-.3.08-.08.21-.13.4-.17.18-.04.43-.06.76-.06.25,0,.44.02.58.05s.23.08.27.15c.05.07.06.17.05.31-.02.21-.04.42-.07.63-.08.55-.17,1.15-.28,1.8-.11.65-.23,1.33-.38,2.04-.12.63-.3,1.4-.53,2.3-.23.91-.47,1.85-.73,2.82-.09.32-.16.6-.23.85-.07.25-.14.51-.22.79l-.38,1.42c-.04.13-.1.23-.17.3-.07.07-.18.11-.32.14-.15.03-.36.04-.63.04-.34,0-.59-.01-.75-.04Zm3.92-16.55c-.21-.13-.37-.3-.49-.5-.12-.2-.18-.41-.18-.62,0-.3.08-.58.25-.84s.39-.46.66-.62c.27-.15.55-.23.84-.23.25,0,.47.06.68.19.21.13.37.29.49.5.12.21.18.41.18.63,0,.29-.08.56-.25.82-.17.26-.39.47-.66.63-.27.16-.55.24-.85.24-.24,0-.46-.07-.67-.2Z" style="fill: #fff;"/>
          <path d="m180.52,107.83c-.09-.06-.13-.15-.12-.27.04-.8.1-1.59.2-2.35.1-.77.21-1.48.35-2.13.13-.66.28-1.34.45-2.04l2.14-8.66c.22-.91.34-1.7.36-2.39s0-1.3-.05-1.85c-.02-.05-.02-.09-.03-.13,0-.04-.01-.09-.03-.15h0c0-.11,0-.2.03-.27.03-.07.08-.12.16-.16.08-.05.21-.1.39-.13.18-.04.38-.07.59-.1s.39-.04.53-.04c.12,0,.2.01.26.04s.09.08.12.15c.03.08.05.19.07.35.04.31.06.55.06.74.05.68.05,1.35,0,2.03-.04.68-.15,1.36-.32,2.05l-.85,3.59-1.21,4.83c-.06.16-.11.36-.17.62-.14.59-.27,1.17-.39,1.74s-.22,1.19-.31,1.88c-.09.69-.16,1.44-.22,2.23,0,.1-.02.17-.05.23-.03.05-.08.09-.15.13-.07.03-.17.06-.29.08-.16.03-.34.05-.53.06-.19.01-.4.02-.62.02-.17,0-.31-.03-.39-.09Zm12.53-20.22c.61.39,1.09.93,1.42,1.64s.5,1.52.5,2.45c0,1.5-.33,2.97-.98,4.41-.66,1.45-1.56,2.63-2.71,3.55-1.15.92-2.44,1.38-3.85,1.38-.88,0-1.61-.21-2.2-.64-.59-.43-1.01-1.02-1.26-1.78s-.32-1.62-.2-2.59l.92-3.82c.42-1.01.92-1.91,1.53-2.69.6-.78,1.3-1.39,2.09-1.83.79-.44,1.65-.66,2.56-.66.85,0,1.57.19,2.19.58Zm-4.58,1.66c-.6.34-1.14.79-1.62,1.36-.48.57-.86,1.2-1.15,1.89l-.84,3.47c-.11.69-.08,1.29.09,1.79.17.5.46.89.87,1.15.41.26.91.4,1.49.4.94,0,1.83-.38,2.66-1.15s1.51-1.74,2.02-2.93c.51-1.18.76-2.35.76-3.5,0-.59-.1-1.11-.3-1.56-.2-.44-.48-.79-.86-1.04-.38-.25-.82-.38-1.33-.38-.61,0-1.21.17-1.8.5Z" style="fill: #fff;"/>
          <path d="m197.71,100.46c-.42-.29-.7-.7-.83-1.24s-.11-1.18.05-1.94c.05-.25.11-.53.18-.84.08-.36.17-.76.29-1.22l1.7-6.87c.06-.21.1-.4.14-.55s.09-.34.14-.55c.13-.51.25-.99.35-1.43s.18-.8.22-1.09c.15-.74.25-1.42.31-2.04s.09-1.16.09-1.6c.02-.17.02-.28,0-.35,0-.1.03-.19.06-.25.04-.07.09-.12.18-.17s.2-.08.34-.11c0,0,.03,0,.05-.01.14-.02.29-.04.45-.06s.36-.02.58-.02c.16,0,.29.04.39.11s.15.18.15.34c0,.17,0,.31,0,.41-.02.54-.05,1.12-.1,1.76-.05.63-.14,1.28-.26,1.95-.07.3-.13.61-.2.93-.07.32-.16.67-.27,1.08-.18.8-.33,1.44-.46,1.91l-1.75,7.06c-.03.12-.06.25-.09.39-.06.28-.11.52-.16.73-.04.2-.1.44-.16.7-.08.41-.11.73-.08.96.03.23.11.4.26.5.15.1.36.15.63.15s.51-.04.75-.11c.23-.07.47-.17.71-.29.11-.04.21-.07.28-.1.08-.03.15-.04.21-.04.09,0,.17.05.25.16.08.11.14.26.19.45s.08.4.08.62c0,.09-.02.18-.05.24-.04.07-.09.13-.15.17-.06.04-.14.09-.23.13h-.05c-.36.17-.78.3-1.23.41-.46.11-.86.17-1.22.17-.73,0-1.3-.15-1.73-.44Z" style="fill: #fff;"/>
          <path d="m204.69,100.83c-.16-.03-.26-.09-.31-.17s-.05-.22,0-.39l.38-1.38c.13-.48.26-.96.39-1.44.27-1.03.52-2.01.74-2.92.22-.91.41-1.75.58-2.52.15-.75.28-1.44.39-2.07.11-.63.2-1.22.28-1.78,0-.13.02-.25.03-.38.01-.12.06-.22.14-.3.08-.08.21-.13.4-.17.18-.04.43-.06.76-.06.25,0,.44.02.58.05s.23.08.27.15c.05.07.06.17.05.31-.02.21-.04.42-.07.63-.08.55-.17,1.15-.28,1.8-.11.65-.23,1.33-.38,2.04-.12.63-.3,1.4-.53,2.3-.23.91-.47,1.85-.73,2.82-.09.32-.16.6-.23.85-.07.25-.14.51-.22.79l-.38,1.42c-.04.13-.1.23-.17.3-.07.07-.18.11-.32.14-.15.03-.36.04-.63.04-.34,0-.59-.01-.75-.04Zm3.92-16.55c-.21-.13-.37-.3-.49-.5-.12-.2-.18-.41-.18-.62,0-.3.08-.58.25-.84s.39-.46.66-.62c.27-.15.55-.23.84-.23.25,0,.47.06.68.19.21.13.37.29.49.5.12.21.18.41.18.63,0,.29-.08.56-.25.82-.17.26-.39.47-.66.63-.27.16-.55.24-.85.24-.24,0-.46-.07-.67-.2Z" style="fill: #fff;"/>
          <path d="m212.79,100.42c-.69-.43-1.21-1.01-1.56-1.74-.35-.73-.52-1.57-.52-2.51,0-1.41.31-2.82.93-4.24.62-1.41,1.51-2.58,2.66-3.51,1.15-.92,2.46-1.39,3.95-1.39.93,0,1.72.18,2.37.55.65.36,1.11.85,1.4,1.45.29.6.39,1.26.3,1.96-.01.12-.06.21-.14.27-.08.06-.23.11-.43.13-.21.03-.49.04-.86.04-.15,0-.27-.01-.36-.04-.08-.03-.14-.07-.18-.12s-.05-.12-.05-.2c.02-.47-.05-.88-.21-1.24-.16-.35-.41-.62-.75-.81-.34-.19-.75-.28-1.24-.28-.93,0-1.8.39-2.59,1.16-.79.77-1.42,1.74-1.88,2.91s-.68,2.3-.68,3.4c0,.63.1,1.18.29,1.64.19.47.49.83.88,1.09.39.26.87.39,1.45.39.42,0,.85-.09,1.28-.28.43-.18.83-.45,1.21-.81s.73-.78,1.05-1.27c.05-.08.11-.15.17-.18.06-.04.13-.06.21-.06.11,0,.24.04.41.12.17.08.33.18.49.29.16.11.28.21.37.3.06.06.09.12.1.18.01.06,0,.12,0,.19-.02.07-.05.14-.1.22-.45.64-.95,1.18-1.51,1.63-.56.45-1.17.79-1.84,1.03-.66.24-1.35.35-2.06.35-1.02,0-1.87-.21-2.56-.64Z" style="fill: #fff;"/>
          <path d="m225.19,100.48c-.62-.39-1.08-.93-1.41-1.64-.33-.71-.49-1.52-.49-2.45,0-1.5.32-2.97.97-4.41.65-1.45,1.55-2.63,2.7-3.55s2.43-1.38,3.84-1.38c.89,0,1.63.21,2.23.64.59.43,1.01,1.02,1.27,1.78.25.76.32,1.62.2,2.59l-.94,3.82c-.41,1.01-.92,1.91-1.52,2.69-.61.78-1.3,1.39-2.1,1.83-.79.44-1.65.66-2.57.66-.84,0-1.57-.19-2.18-.58Zm4.58-1.65c.6-.34,1.14-.79,1.62-1.36.48-.57.86-1.2,1.14-1.89l.84-3.47c.11-.69.08-1.29-.09-1.79-.17-.5-.46-.89-.87-1.15-.41-.26-.9-.4-1.48-.4-.94,0-1.83.38-2.67,1.15-.84.77-1.51,1.74-2.02,2.93-.51,1.18-.76,2.36-.76,3.51,0,.59.1,1.11.3,1.55.2.44.49.79.86,1.04.37.25.81.38,1.32.38.61,0,1.21-.17,1.81-.51Zm3.3,1.98c-.07-.05-.12-.15-.18-.3-.17-.49-.3-1.02-.4-1.6-.09-.58-.14-1.16-.15-1.75,0-.58.06-1.11.17-1.58l.85-3.6c.18-.75.46-1.56.82-2.44.15-.38.31-.74.48-1.09.17-.35.34-.68.51-.99.05-.08.09-.15.13-.2.04-.05.09-.08.15-.09.05,0,.12-.01.2-.01.22,0,.46.05.73.15.27.1.47.22.63.37s.19.29.11.44c-.22.41-.42.84-.61,1.3-.34.79-.66,1.64-.95,2.56-.11.35-.22.75-.33,1.18s-.23.91-.36,1.45c-.05.24-.1.46-.14.65s-.09.41-.15.65c-.09.42-.14.84-.15,1.28,0,.44.03.87.11,1.31.08.44.18.88.32,1.32.05.16.07.28.07.36s-.02.16-.07.22-.12.11-.21.16c-.18.1-.41.18-.68.25s-.49.1-.65.1c-.12,0-.22-.02-.29-.07Z" style="fill: #fff;"/>
          <path d="m239.97,100.48c-.62-.39-1.08-.93-1.41-1.64-.33-.71-.49-1.52-.49-2.45,0-1.5.32-2.97.97-4.41.65-1.45,1.55-2.63,2.7-3.55s2.43-1.38,3.84-1.38c.89,0,1.63.21,2.23.64.59.43,1.01,1.02,1.27,1.78.25.76.32,1.62.2,2.59l-.94,3.82c-.41,1.01-.92,1.91-1.52,2.69-.61.78-1.3,1.39-2.1,1.83-.79.44-1.65.66-2.57.66-.84,0-1.57-.19-2.18-.58Zm4.58-1.65c.6-.34,1.14-.79,1.62-1.36.48-.57.86-1.2,1.14-1.89l.84-3.47c.11-.69.08-1.29-.09-1.79-.17-.5-.46-.89-.87-1.15-.41-.26-.9-.4-1.48-.4-.94,0-1.83.38-2.67,1.15-.84.77-1.51,1.74-2.02,2.93-.51,1.18-.76,2.36-.76,3.51,0,.59.1,1.11.3,1.55.2.44.49.79.86,1.04.37.25.81.38,1.32.38.61,0,1.21-.17,1.81-.51Zm3.46,2c-.07-.04-.12-.14-.17-.27-.18-.51-.33-1.07-.45-1.68-.12-.61-.19-1.2-.21-1.79-.02-.58.02-1.09.12-1.52l.85-3.58c.1-.4.19-.74.26-1.03.07-.29.15-.63.25-1.03.08-.33.14-.61.2-.84.06-.22.13-.5.2-.82.04-.15.08-.3.12-.45.28-1.09.5-2.04.67-2.86s.3-1.59.39-2.31c.09-.72.14-1.4.15-2.04,0-.12.04-.22.11-.28s.18-.11.34-.14c.05,0,.08-.01.1-.01.14-.02.3-.04.46-.05.16,0,.33-.01.51-.01.15,0,.28.02.37.05.09.03.16.08.2.16s.07.16.07.27c0,.67-.05,1.36-.14,2.1-.09.73-.23,1.52-.4,2.38s-.4,1.86-.68,3.02c-.03.13-.05.26-.08.4l-1.74,7.04c-.11.46-.18.91-.19,1.37s.02.93.11,1.44.23,1.05.43,1.62c.04.12.06.23.05.31s-.04.16-.1.22c-.06.06-.15.12-.27.17-.17.07-.37.13-.6.18-.23.05-.44.07-.62.07-.14,0-.25-.02-.32-.07Z" style="fill: #fff;"/>
          <path d="m254.98,100.36c-.7-.46-1.22-1.09-1.56-1.88-.34-.79-.51-1.67-.51-2.63,0-1.32.29-2.67.88-4.03.59-1.37,1.45-2.5,2.58-3.41,1.13-.9,2.45-1.36,3.97-1.36,1.04,0,1.9.23,2.61.69.7.46,1.22,1.09,1.57,1.87.34.79.51,1.66.51,2.62,0,1.33-.29,2.68-.88,4.04-.59,1.36-1.45,2.5-2.58,3.41-1.13.91-2.45,1.36-3.97,1.36-1.04,0-1.9-.23-2.6-.7Zm5.45-2.22c.76-.78,1.36-1.74,1.78-2.86.42-1.12.63-2.15.63-3.07,0-.65-.1-1.23-.3-1.75s-.51-.93-.92-1.23c-.41-.3-.93-.46-1.55-.46-.97,0-1.83.39-2.59,1.18-.76.78-1.35,1.73-1.77,2.85s-.63,2.15-.63,3.08c0,.65.1,1.23.3,1.75s.5.92.91,1.22.93.46,1.55.46c.97,0,1.83-.39,2.6-1.18Z" style="fill: #fff;"/>
          <path d="m266.62,100.77c-.16-.03-.27-.09-.32-.17-.05-.08-.05-.2-.01-.35.07-.25.13-.49.2-.72.06-.24.14-.5.22-.81.47-1.78.87-3.3,1.19-4.56s.53-2.13.62-2.62c.13-.67.22-1.33.27-1.95.05-.63.06-1.25.03-1.85,0-.11.06-.21.16-.28.1-.07.27-.13.51-.17.24-.04.56-.06.97-.07.18,0,.32.02.4.07.08.05.13.14.13.26.03.55.02,1.09-.02,1.62-.04.53-.11,1.06-.21,1.6-.03.24-.07.47-.12.71-.05.24-.09.47-.13.72-.08.32-.16.62-.25.91s-.18.57-.28.85l-1.4,1.36c.59-1.52,1.35-2.91,2.27-4.16.92-1.25,1.95-2.25,3.09-2.98,1.14-.74,2.32-1.11,3.56-1.11.13,0,.22.04.27.12s.06.22.02.41c-.08.4-.16.72-.25.95-.09.23-.19.39-.3.48-.11.09-.24.13-.4.13-1.06,0-2.1.35-3.12,1.04-1.02.69-1.92,1.64-2.7,2.83s-1.36,2.53-1.74,4c-.2.77-.34,1.38-.43,1.83-.09.44-.16.82-.22,1.14,0,.08-.02.13-.03.17,0,.04-.02.1-.03.17,0,.13-.06.23-.15.3-.09.07-.21.11-.38.15-.17.03-.39.05-.66.05-.35,0-.6-.02-.77-.05Z" style="fill: #fff;"/>
          <path d="m277.84,100.55c-.49-.34-.85-.85-1.07-1.53-.22-.68-.28-1.51-.16-2.51.16-1.51.64-3,1.44-4.47.8-1.47,1.81-2.68,3-3.61,1.2-.93,2.44-1.4,3.72-1.4.68,0,1.3.15,1.87.44s1.06.7,1.47,1.22c.41.53.71,1.14.9,1.84l-1.08.89c-.03-.1-.06-.2-.1-.3-.18-.55-.44-1-.75-1.35-.32-.35-.67-.61-1.04-.77-.38-.17-.75-.25-1.12-.25-.81,0-1.67.39-2.56,1.16-.89.78-1.67,1.77-2.34,2.97-.67,1.2-1.08,2.37-1.22,3.49-.08.62-.07,1.13.04,1.54.11.41.29.71.54.9.25.19.57.29.93.29.86,0,1.81-.45,2.86-1.35,1.04-.9,1.99-2.02,2.84-3.34.85-1.33,1.43-2.57,1.73-3.74.13-.5.25-.93.34-1.3.09-.37.18-.7.25-.99.02-.1.04-.19.05-.25.02-.07.03-.13.04-.18.01-.06.03-.13.07-.21.02-.1.06-.19.13-.25.07-.07.17-.12.3-.15.14-.03.31-.05.53-.05.35,0,.62.02.81.06.19.04.32.11.38.19.07.09.08.21.04.36-.14.46-.29.97-.45,1.54-.16.57-.34,1.21-.54,1.91-.28,1.05-.54,2.07-.79,3.07-.25,1-.41,1.7-.5,2.11-.12.55-.2,1.06-.24,1.53s-.06.85-.06,1.13c0,.29,0,.58.01.87,0,.08,0,.15,0,.21,0,.06-.01.12-.02.17-.01.1-.08.18-.21.25-.13.07-.32.12-.55.15-.23.03-.51.05-.83.05-.13,0-.24-.01-.31-.04-.08-.02-.13-.06-.17-.11-.04-.05-.07-.13-.08-.24-.02-.17-.03-.43-.02-.77,0-.34.03-.71.06-1.1.05-.53.11-1,.18-1.39.03-.18.06-.36.1-.53s.07-.36.12-.57c.07-.32.14-.64.22-.97.08-.33.17-.7.27-1.11l.87.08c-.61,1.25-1.37,2.4-2.29,3.45-.92,1.05-1.89,1.89-2.92,2.52-1.03.63-2.01.95-2.93.95-.68,0-1.26-.17-1.75-.51Z" style="fill: #fff;"/>
        </g>
        <g>
          <g style="filter: url(#outer-glow-11);">
            <polygon points="93.57 99.63 104 75.21 101.71 22.85 92.62 31.13 93.57 99.63" style="fill: url(#linear-gradient);"/>
            <polygon points="45.04 20.99 34.28 28.38 45.23 31.76 91.01 29.52 100.72 20.68 80.73 11.14 45.04 20.99" style="fill: url(#linear-gradient-2);"/>
            <path d="m46.08,33.99l-8.88,68.66,54.16,1.19-1-72.01-44.27,2.17Zm24.46,35.09l-.8,14.89-.25,4.72-.16,2.99c-.07,1.39-1.26,2.45-2.65,2.38l-18.57-.99c-1.39-.07-2.45-1.26-2.38-2.64l1.46-27.22c.07-1.39,1.26-2.45,2.65-2.38l2.99.16,6.29.34,5.82.31c.79.04,1.51.45,1.95,1.11l3.22,4.8c.3.45.45.99.42,1.53Zm7.24,12.17l-.19,3.61c-.03.61-.56,1.08-1.17,1.05l-3.28-.18c-.61-.03-1.08-.56-1.05-1.17l.19-3.61.82-15.36c.01-.24-.05-.48-.19-.68l-3.87-5.77c-.19-.29-.52-.47-.87-.49l-6.52-.35-5.18-.28c-.61-.03-1.08-.56-1.05-1.17l.14-4.06c.03-.61.56-1.09,1.17-1.05l5.18.28,12.03.64c.35.02.67.2.87.49l3.9,6.56c.13.2.2.44.19.68l-1.12,20.86Zm7.28-3.12c-.04.72-.65,1.27-1.37,1.23l-2.13-.27c-.72-.04-1.27-.65-1.23-1.37l1.04-19.5c.01-.28-.06-.56-.22-.79l-3.82-6.43c-.23-.34-.6-.55-1.01-.58l-10.64-.57c-.72-.04-1.27-.65-1.23-1.37l.11-2.12c.04-.72.65-1.27,1.37-1.23l15.36.98c.41.02.78.24,1.01.57l3.86,7.21c.16.23.23.51.22.79l-1.33,23.44Z" style="fill: url(#Degradado_sin_nombre_89);"/>
            <polygon points="32.64 30.24 24.38 87.67 35.13 100.97 43.84 33.7 32.64 30.24" style="fill: url(#linear-gradient-3);"/>
            <path d="m44.07,18.9l-13.42,9.21-8.66,60.21,13.37,16.55,57.89,1.27,13.04-30.51-2.45-55.98-22.9-10.93-36.86,10.18Zm-8.94,82.07l-10.75-13.3,8.26-57.43,11.2,3.46-8.7,67.27Zm56.23,2.86l-54.16-1.19,8.88-68.66,44.27-2.17,1,72.01Zm12.64-28.62l-10.43,24.41-.95-68.5,9.09-8.27,2.29,52.36Zm-12.99-45.7l-45.79,2.24-10.95-3.38,10.77-7.39,35.68-9.85,20,9.54-9.71,8.84Z"/>
            <path d="m82.33,46.68c-.23-.34-.6-.55-1.01-.57l-15.36-.98c-.72-.04-1.33.51-1.37,1.23l-.11,2.12c-.04.72.51,1.33,1.23,1.37l10.64.57c.41.02.78.24,1.01.58l3.82,6.43c.16.23.23.51.22.79l-1.04,19.5c-.04.72.51,1.33,1.23,1.37l2.13.27c.72.04,1.33-.51,1.37-1.23l1.33-23.44c.01-.28-.06-.56-.22-.79l-3.86-7.21Z"/>
            <path d="m74.81,53.14c-.19-.29-.52-.47-.87-.49l-12.03-.64-5.18-.28c-.61-.03-1.14.44-1.17,1.05l-.14,4.06c-.03.61.44,1.14,1.05,1.17l5.18.28,6.52.35c.35.02.67.2.87.49l3.87,5.77c.13.2.2.44.19.68l-.82,15.36-.19,3.61c-.03.61.44,1.14,1.05,1.17l3.28.18c.61.03,1.14-.44,1.17-1.05l.19-3.61,1.12-20.86c.01-.24-.05-.48-.19-.68l-3.9-6.56Z"/>
            <path d="m66.91,62.74c-.44-.66-1.16-1.07-1.95-1.11l-5.82-.31-6.29-.34-2.99-.16c-1.39-.07-2.57.99-2.65,2.38l-1.46,27.22c-.07,1.39.99,2.57,2.38,2.64l18.57.99c1.39.07,2.57-.99,2.65-2.38l.16-2.99.25-4.72.8-14.89c.03-.54-.12-1.08-.42-1.53l-3.22-4.8Z"/>
          </g>
          <g style="filter: url(#outer-glow-12);">
            <polygon points="93.57 99.63 104 75.21 101.71 22.85 92.62 31.13 93.57 99.63" style="fill: url(#linear-gradient);"/>
            <polygon points="45.04 20.99 34.28 28.38 45.23 31.76 91.01 29.52 100.72 20.68 80.73 11.14 45.04 20.99" style="fill: url(#linear-gradient-2);"/>
            <path d="m46.08,33.99l-8.88,68.66,54.16,1.19-1-72.01-44.27,2.17Zm24.46,35.09l-.8,14.89-.25,4.72-.16,2.99c-.07,1.39-1.26,2.45-2.65,2.38l-18.57-.99c-1.39-.07-2.45-1.26-2.38-2.64l1.46-27.22c.07-1.39,1.26-2.45,2.65-2.38l2.99.16,6.29.34,5.82.31c.79.04,1.51.45,1.95,1.11l3.22,4.8c.3.45.45.99.42,1.53Zm7.24,12.17l-.19,3.61c-.03.61-.56,1.08-1.17,1.05l-3.28-.18c-.61-.03-1.08-.56-1.05-1.17l.19-3.61.82-15.36c.01-.24-.05-.48-.19-.68l-3.87-5.77c-.19-.29-.52-.47-.87-.49l-6.52-.35-5.18-.28c-.61-.03-1.08-.56-1.05-1.17l.14-4.06c.03-.61.56-1.09,1.17-1.05l5.18.28,12.03.64c.35.02.67.2.87.49l3.9,6.56c.13.2.2.44.19.68l-1.12,20.86Zm7.28-3.12c-.04.72-.65,1.27-1.37,1.23l-2.13-.27c-.72-.04-1.27-.65-1.23-1.37l1.04-19.5c.01-.28-.06-.56-.22-.79l-3.82-6.43c-.23-.34-.6-.55-1.01-.58l-10.64-.57c-.72-.04-1.27-.65-1.23-1.37l.11-2.12c.04-.72.65-1.27,1.37-1.23l15.36.98c.41.02.78.24,1.01.57l3.86,7.21c.16.23.23.51.22.79l-1.33,23.44Z" style="fill: url(#Degradado_sin_nombre_89-2);"/>
            <polygon points="32.64 30.24 24.38 87.67 35.13 100.97 43.84 33.7 32.64 30.24" style="fill: url(#linear-gradient-4);"/>
            <path d="m44.07,18.9l-13.42,9.21-8.66,60.21,13.37,16.55,57.89,1.27,13.04-30.51-2.45-55.98-22.9-10.93-36.86,10.18Zm-8.94,82.07l-10.75-13.3,8.26-57.43,11.2,3.46-8.7,67.27Zm56.23,2.86l-54.16-1.19,8.88-68.66,44.27-2.17,1,72.01Zm12.64-28.62l-10.43,24.41-.95-68.5,9.09-8.27,2.29,52.36Zm-12.99-45.7l-45.79,2.24-10.95-3.38,10.77-7.39,35.68-9.85,20,9.54-9.71,8.84Z"/>
            <path d="m82.33,46.68c-.23-.34-.6-.55-1.01-.57l-15.36-.98c-.72-.04-1.33.51-1.37,1.23l-.11,2.12c-.04.72.51,1.33,1.23,1.37l10.64.57c.41.02.78.24,1.01.58l3.82,6.43c.16.23.23.51.22.79l-1.04,19.5c-.04.72.51,1.33,1.23,1.37l2.13.27c.72.04,1.33-.51,1.37-1.23l1.33-23.44c.01-.28-.06-.56-.22-.79l-3.86-7.21Z" style="fill: #fff;"/>
            <path d="m74.81,53.14c-.19-.29-.52-.47-.87-.49l-12.03-.64-5.18-.28c-.61-.03-1.14.44-1.17,1.05l-.14,4.06c-.03.61.44,1.14,1.05,1.17l5.18.28,6.52.35c.35.02.67.2.87.49l3.87,5.77c.13.2.2.44.19.68l-.82,15.36-.19,3.61c-.03.61.44,1.14,1.05,1.17l3.28.18c.61.03,1.14-.44,1.17-1.05l.19-3.61,1.12-20.86c.01-.24-.05-.48-.19-.68l-3.9-6.56Z" style="fill: #fff;"/>
            <path d="m66.91,62.74c-.44-.66-1.16-1.07-1.95-1.11l-5.82-.31-6.29-.34-2.99-.16c-1.39-.07-2.57.99-2.65,2.38l-1.46,27.22c-.07,1.39.99,2.57,2.38,2.64l18.57.99c1.39.07,2.57-.99,2.65-2.38l.16-2.99.25-4.72.8-14.89c.03-.54-.12-1.08-.42-1.53l-3.22-4.8Z" style="fill: #fff;"/>
          </g>
        </g>
        <g>
          <g>
            <polygon points="124.32 50.14 142.88 13.77 162.24 27.26 124.32 50.14" style="fill: url(#linear-gradient-5);"/>
            <path d="m124.32,50.14c5.75-12.02,11.15-25.14,17.26-37.03,0,0,.76-1.49.76-1.49l1.38.96c6.92,4.74,14.28,9.95,21.13,14.81-13.13,7.87-27.48,15.26-40.53,22.76h0Zm0,0c9.56-5.97,18.92-12.37,28.12-18.37,3.01-1.93,6.03-3.82,9.07-5.72,0,0-.08,2.37-.08,2.37-6.32-4.32-13.17-9.05-19.39-13.46,0,0,2.14-.53,2.14-.53-1.5,2.92-3.05,5.8-4.63,8.67-4.79,8.72-10.53,18.18-15.23,27.03h0Z"/>
          </g>
          <g>
            <polygon points="122.72 57.81 168.75 38.23 173.55 67.45 122.72 57.81" style="fill: url(#linear-gradient-6);"/>
            <path d="m122.72,57.81c15.48-6.97,31.49-14.98,47.15-21.64.07.11,2.58,15.62,2.76,16.43.2,1.18,2.58,16.02,2.69,16.67-17.36-3.21-35.36-7.83-52.59-11.45h0Zm0,0c12.44,2.19,26.32,4.03,38.72,6.07,4.13.7,8.27,1.37,12.39,2.15l-1.7,1.66c-1.25-7.28-3.64-21.94-4.79-29.23,0,0,1.99,1.09,1.99,1.09-3.74,1.56-7.5,3.06-11.26,4.57-11.31,4.46-24.03,9.06-35.34,13.69h0Z"/>
          </g>
          <g>
            <polygon points="120.34 38.31 113.27 12.54 129.73 12.52 120.34 38.31" style="fill: url(#Degradado_sin_nombre_81);"/>
            <path d="m120.34,38.31c-2.89-8.9-6.52-18.12-8.98-27.19,6.39-.06,14.11-.1,20.46-.05-3.19,9.16-7.76,18.34-11.48,27.24h0Zm0,0c2.17-6.45,3.97-13.69,5.98-20.12.65-2.07,1.31-4.13,2.05-6.17l1.37,1.96c-4.76.05-11.64.05-16.47,0,0,0,1.39-1.82,1.39-1.82,2.27,8.66,3.53,17.37,5.68,26.15h0Z"/>
          </g>
        </g>
      </g>
    </g>
  </g>
</svg>