<?xml version="1.0" encoding="UTF-8"?>
<svg xmlns="http://www.w3.org/2000/svg" xmlns:xlink="http://www.w3.org/1999/xlink" viewBox="0 0 141.98 140.97">
  <defs>
    <style>
      .cls-1 {
        fill: #fff;
      }

      .cls-2 {
        filter: url(#outer-glow-3);
      }

      .cls-3 {
        filter: url(#outer-glow-4);
      }

      .cls-4 {
        stroke: #69fff4;
      }

      .cls-4, .cls-5 {
        stroke-miterlimit: 10;
      }

      .cls-4, .cls-5, .cls-6 {
        fill: none;
      }

      .cls-7 {
        filter: url(#outer-glow-1);
      }

      .cls-5 {
        stroke: #fff;
        stroke-width: .5px;
      }

      .cls-8 {
        fill: #ff51ff;
      }

      .cls-9 {
        clip-path: url(#clippath);
      }

      .cls-10 {
        filter: url(#outer-glow-5);
      }

      .cls-11 {
        fill: #002f70;
      }

      .cls-12 {
        filter: url(#outer-glow-2);
      }
    </style>
    <clipPath id="clippath">
      <rect class="cls-6" x="-1640.08" y="-188.97" width="1611.28" height="914.02"/>
    </clipPath>
    <filter id="outer-glow-1" filterUnits="userSpaceOnUse">
      <feOffset dx="0" dy="0"/>
      <feGaussianBlur result="blur" stdDeviation="4"/>
      <feFlood flood-color="#43fff1" flood-opacity="1"/>
      <feComposite in2="blur" operator="in"/>
      <feComposite in="SourceGraphic"/>
    </filter>
    <filter id="outer-glow-2" filterUnits="userSpaceOnUse">
      <feOffset dx="0" dy="0"/>
      <feGaussianBlur result="blur-2" stdDeviation="4"/>
      <feFlood flood-color="#43fff1" flood-opacity="1"/>
      <feComposite in2="blur-2" operator="in"/>
      <feComposite in="SourceGraphic"/>
    </filter>
    <filter id="outer-glow-3" filterUnits="userSpaceOnUse">
      <feOffset dx="0" dy="0"/>
      <feGaussianBlur result="blur-3" stdDeviation="4"/>
      <feFlood flood-color="#43fff1" flood-opacity="1"/>
      <feComposite in2="blur-3" operator="in"/>
      <feComposite in="SourceGraphic"/>
    </filter>
    <filter id="outer-glow-4" filterUnits="userSpaceOnUse">
      <feOffset dx="0" dy="0"/>
      <feGaussianBlur result="blur-4" stdDeviation="6"/>
      <feFlood flood-color="#43fff1" flood-opacity="1"/>
      <feComposite in2="blur-4" operator="in"/>
      <feComposite in="SourceGraphic"/>
    </filter>
    <filter id="outer-glow-5" filterUnits="userSpaceOnUse">
      <feOffset dx="0" dy="0"/>
      <feGaussianBlur result="blur-5" stdDeviation="6"/>
      <feFlood flood-color="#43fff1" flood-opacity="1"/>
      <feComposite in2="blur-5" operator="in"/>
      <feComposite in="SourceGraphic"/>
    </filter>
  </defs>
  <g id="Juego">
    <g class="cls-9">
      <image width="18921" height="9000" transform="translate(-1792.12 -368.88) scale(.12)" xlink:href="../../../5. Audiolibro/1. Portada/Inicio Juego.jpg"/>
    </g>
  </g>
  <g id="Capa_3" data-name="Capa 3">
    <g>
      <g>
        <g>
          <path class="cls-1" d="m100.9,119.22c25.16-15.45,33.03-48.38,17.58-73.55l-2.39-3.89c-15.45-25.16-48.38-33.03-73.55-17.58-25.16,15.46-33.03,48.38-17.58,73.55l2.39,3.89c1.3,2.12,2.74,4.11,4.27,5.98l-1.74,21.17,18.51-7.61c16.08,8.28,35.97,8.2,52.51-1.96Z"/>
          <g>
            <g>
              <g>
                <g class="cls-7">
                  <path class="cls-4" d="m100.46,119.54c25.28-15.53,33.19-48.61,17.66-73.9l-2.4-3.91c-15.53-25.28-48.61-33.19-73.89-17.66-25.28,15.53-33.19,48.61-17.66,73.89l2.4,3.91c1.31,2.13,2.75,4.13,4.29,6.01l-1.75,21.27,18.6-7.65c16.16,8.32,36.14,8.23,52.75-1.97Z"/>
                  <path class="cls-5" d="m100.46,119.54c25.28-15.53,33.19-48.61,17.66-73.9l-2.4-3.91c-15.53-25.28-48.61-33.19-73.89-17.66-25.28,15.53-33.19,48.61-17.66,73.89l2.4,3.91c1.31,2.13,2.75,4.13,4.29,6.01l-1.75,21.27,18.6-7.65c16.16,8.32,36.14,8.23,52.75-1.97Z"/>
                </g>
                <g class="cls-12">
                  <path class="cls-4" d="m100.46,119.54c25.28-15.53,33.19-48.61,17.66-73.9l-2.4-3.91c-15.53-25.28-48.61-33.19-73.89-17.66-25.28,15.53-33.19,48.61-17.66,73.89l2.4,3.91c1.31,2.13,2.75,4.13,4.29,6.01l-1.75,21.27,18.6-7.65c16.16,8.32,36.14,8.23,52.75-1.97Z"/>
                  <path class="cls-5" d="m100.46,119.54c25.28-15.53,33.19-48.61,17.66-73.9l-2.4-3.91c-15.53-25.28-48.61-33.19-73.89-17.66-25.28,15.53-33.19,48.61-17.66,73.89l2.4,3.91c1.31,2.13,2.75,4.13,4.29,6.01l-1.75,21.27,18.6-7.65c16.16,8.32,36.14,8.23,52.75-1.97Z"/>
                </g>
                <g class="cls-2">
                  <path class="cls-4" d="m100.46,119.54c25.28-15.53,33.19-48.61,17.66-73.9l-2.4-3.91c-15.53-25.28-48.61-33.19-73.89-17.66-25.28,15.53-33.19,48.61-17.66,73.89l2.4,3.91c1.31,2.13,2.75,4.13,4.29,6.01l-1.75,21.27,18.6-7.65c16.16,8.32,36.14,8.23,52.75-1.97Z"/>
                  <path class="cls-5" d="m100.46,119.54c25.28-15.53,33.19-48.61,17.66-73.9l-2.4-3.91c-15.53-25.28-48.61-33.19-73.89-17.66-25.28,15.53-33.19,48.61-17.66,73.89l2.4,3.91c1.31,2.13,2.75,4.13,4.29,6.01l-1.75,21.27,18.6-7.65c16.16,8.32,36.14,8.23,52.75-1.97Z"/>
                </g>
              </g>
              <g>
                <path class="cls-4" d="m100.46,119.54c25.28-15.53,33.19-48.61,17.66-73.9l-2.4-3.91c-15.53-25.28-48.61-33.19-73.89-17.66-25.28,15.53-33.19,48.61-17.66,73.89l2.4,3.91c1.31,2.13,2.75,4.13,4.29,6.01l-1.75,21.27,18.6-7.65c16.16,8.32,36.14,8.23,52.75-1.97Z"/>
                <path class="cls-5" d="m100.46,119.54c25.28-15.53,33.19-48.61,17.66-73.9l-2.4-3.91c-15.53-25.28-48.61-33.19-73.89-17.66-25.28,15.53-33.19,48.61-17.66,73.89l2.4,3.91c1.31,2.13,2.75,4.13,4.29,6.01l-1.75,21.27,18.6-7.65c16.16,8.32,36.14,8.23,52.75-1.97Z"/>
              </g>
            </g>
            <g>
              <g class="cls-3">
                <path class="cls-4" d="m100.46,119.54c25.28-15.53,33.19-48.61,17.66-73.9l-2.4-3.91c-15.53-25.28-48.61-33.19-73.89-17.66-25.28,15.53-33.19,48.61-17.66,73.89l2.4,3.91c1.31,2.13,2.75,4.13,4.29,6.01l-1.75,21.27,18.6-7.65c16.16,8.32,36.14,8.23,52.75-1.97Z"/>
                <path class="cls-5" d="m100.46,119.54c25.28-15.53,33.19-48.61,17.66-73.9l-2.4-3.91c-15.53-25.28-48.61-33.19-73.89-17.66-25.28,15.53-33.19,48.61-17.66,73.89l2.4,3.91c1.31,2.13,2.75,4.13,4.29,6.01l-1.75,21.27,18.6-7.65c16.16,8.32,36.14,8.23,52.75-1.97Z"/>
              </g>
              <g class="cls-10">
                <path class="cls-4" d="m100.46,119.54c25.28-15.53,33.19-48.61,17.66-73.9l-2.4-3.91c-15.53-25.28-48.61-33.19-73.89-17.66-25.28,15.53-33.19,48.61-17.66,73.89l2.4,3.91c1.31,2.13,2.75,4.13,4.29,6.01l-1.75,21.27,18.6-7.65c16.16,8.32,36.14,8.23,52.75-1.97Z"/>
                <path class="cls-5" d="m100.46,119.54c25.28-15.53,33.19-48.61,17.66-73.9l-2.4-3.91c-15.53-25.28-48.61-33.19-73.89-17.66-25.28,15.53-33.19,48.61-17.66,73.89l2.4,3.91c1.31,2.13,2.75,4.13,4.29,6.01l-1.75,21.27,18.6-7.65c16.16,8.32,36.14,8.23,52.75-1.97Z"/>
              </g>
            </g>
          </g>
        </g>
        <path class="cls-8" d="m99.82,118.92c6.32-3.81,11.85-8.98,15.93-15.14.34-.46.78-1.2,1.08-1.69.35-.57.71-1.14,1.02-1.73.28-.52.69-1.25.95-1.77l.87-1.81.11-.23c.48-1.13,1-2.33,1.4-3.49,1.72-4.68,2.7-9.68,2.94-14.65.06-.63.05-2.32.06-2.99,0-.56-.05-1.42-.07-1.99l-.02-.5v-.25s-.03-.25-.03-.25l-.09-.99c-.4-4.44-1.43-8.81-3-12.97-1.23-3.19-2.8-6.32-4.64-9.2-.16-.29-2.34-3.62-2.45-3.81-.39-.58-.98-1.44-1.37-2.02-.56-.75-1.18-1.6-1.77-2.32-.24-.29-1.34-1.6-1.57-1.85-.51-.54-1.14-1.24-1.66-1.77-.68-.65-1.39-1.39-2.1-2-.25-.22-.85-.75-1.09-.96-.19-.19-1.63-1.31-1.88-1.52-.42-.35-1.11-.8-1.56-1.14-.43-.33-1.13-.78-1.59-1.08-.54-.35-1.07-.71-1.63-1.02-12.86-7.72-28.97-9.22-42.99-3.84-.41.15-1.14.45-1.54.6l-.21.1-.86.39c-1.16.49-2.27,1.08-3.38,1.65-.56.33-1.91,1.07-2.44,1.42-.39.25-1.19.76-1.59,1.01-.45.3-1.09.78-1.54,1.08-.22.15-.56.39-.76.55-.51.41-1.73,1.34-2.2,1.77-.41.36-1.01.88-1.41,1.24-.34.32-1.02.98-1.36,1.3-.67.65-1.3,1.36-1.95,2.04-.25.28-1.3,1.53-1.53,1.78-.2.26-.66.85-.87,1.11-.55.68-1.15,1.57-1.66,2.28-3.7,5.44-6.33,11.68-7.6,18.14-.1.52-.28,1.34-.34,1.86l-.28,1.87c-.05.4-.2,2-.23,2.36-.03.72-.1,1.65-.12,2.37,0,.92-.04,1.94.02,2.85l.04.95c.19,4.1.96,8.25,2.16,12.18.15.54.44,1.28.61,1.82.17.54.47,1.27.68,1.79.13.35.41,1.01.54,1.34.19.43.81,1.75,1.01,2.18.54,1.03,1.26,2.44,1.84,3.46.56.98,1.38,2.52,1.95,3.48.98,1.68,2.05,3.29,3.21,4.85l.5.66-.09.7-2.57,20.27-1.68-1.26c5.67-2.05,12.42-4.5,18.08-6.59l.31-.11.26.15c4.25,2.4,8.89,4.17,13.68,5.23,12.33,2.79,25.65.61,36.48-5.91h0Zm.18.72c-10.87,6.56-23.43,9.35-35.91,7.02-4.91-.9-12.19-3.43-16.68-5.67l.57.03c-5.54,2.36-11.16,4.51-16.69,6.91l-1.81.78.13-2.05,1.89-19.87.41,1.36c-.9-1.06-1.77-2.15-2.59-3.28-.82-1.09-1.58-2.3-2.32-3.45-1.03-1.61-2.29-3.57-3.27-5.23-12.01-21.16-8.06-47.93,9.56-64.77,3.6-3.48,7.76-6.41,12.17-8.77,1.28-.64,2.56-1.29,3.89-1.83.19-.08,1.06-.46,1.23-.53l.25-.09.5-.19c5.32-2.03,11.04-3.21,16.74-3.43.6-.05,1.53-.05,2.14-.04.21,0,1.15,0,1.34,0h.27s.53.04.53.04c9.9.37,19.7,3.61,27.88,9.19.59.38,1.15.81,1.72,1.22.5.35,1.21.9,1.67,1.29.48.39,1.16.94,1.62,1.35.31.27,1.68,1.51,1.94,1.78.25.24.86.87,1.11,1.11.73.7,1.45,1.56,2.13,2.31.53.6,1.15,1.4,1.66,2.02.26.3,1.3,1.76,1.56,2.1.58.81,1.18,1.77,1.73,2.6.38.64.94,1.6,1.32,2.24l.25.44,1.96,3.53c1.73,3.16,3.18,6.53,4.26,9.97.21.76.51,1.72.71,2.48,5.86,22.74-3.74,47.42-23.86,59.43h0Z"/>
      </g>
      <path class="cls-11" d="m62.89,67.72c4.4-.71,9.68-.02,10.14-7.03.18-2.79-1.97-4.06-4.61-3.59-5.28.94-9.42,7.21-9.42,7.21,0,0-8.56-5.91-8.04-7.96.5-1.97,7.26-12,19.85-14.84,10.43-2.35,23.86,1.81,23.63,14.62-.29,16.28-23.03,30.8-31.15,28.17-.71-.23-.4-16.58-.4-16.58Zm15.5,29.5c-.27,4.56-3.45,8.92-10.44,9.64-7.1.73-10.39-1.8-10.13-6.89.27-5.19,4.88-9.34,10.22-10.02,5.44-.69,10.62,2.79,10.35,7.27Z"/>
    </g>
  </g>
</svg>