<?xml version="1.0" encoding="UTF-8"?>
<svg id="Juego" xmlns="http://www.w3.org/2000/svg" xmlns:xlink="http://www.w3.org/1999/xlink" viewBox="0 0 134.15 204.63">
  <defs>
    <style>
      .cls-1 {
        fill: #fff;
      }

      .cls-2 {
        fill: #023784;
      }

      .cls-3 {
        clip-path: url(#clippath-1);
      }

      .cls-4 {
        opacity: .84;
      }

      .cls-5 {
        clip-path: url(#clippath);
      }

      .cls-6 {
        fill: none;
      }

      .cls-7 {
        fill: url(#Degradado_sin_nombre_180);
      }
    </style>
    <clipPath id="clippath">
      <rect class="cls-6" x="-1677.17" y="-138.27" width="1628.77" height="662.72"/>
    </clipPath>
    <linearGradient id="Degradado_sin_nombre_180" data-name="Degradado sin nombre 180" x1="-1236.24" y1="3894.26" x2="-1241.64" y2="3680.39" gradientTransform="translate(477.31 -5241.76) rotate(.27) scale(1 1.49)" gradientUnits="userSpaceOnUse">
      <stop offset="0" stop-color="#00f1ff"/>
      <stop offset=".58" stop-color="#978bc5" stop-opacity=".41"/>
      <stop offset="1" stop-color="#ff479e" stop-opacity="0"/>
    </linearGradient>
    <clipPath id="clippath-1">
      <rect class="cls-6" x="-1683.23" y="-406.58" width="1628.77" height="931.03"/>
    </clipPath>
  </defs>
  <g>
    <g class="cls-5">
      <path class="cls-7" d="m344.32,114.35l-2104.22-4.91-11.46.19c-21.7.36-40.56,4.61-47.99,10.81l-52.63,59.91c-7.16,5.97-25.89,9.92-46.84,9.88l-464.65-.99c-30.82-.06-55.86,7.48-55.95,16.84l-.04,4.08-2.91,299.77c-.06,5.9-1.6,13,48.99,10.8l3203.63,7.82c25.75.06,46.73-6.2,46.91-14.01l7.37-300.73c.09-9.41-24.94-17.1-55.91-17.17l-297.23-.68c-23.74-.05-44.86-4.64-52.73-11.46l-61.61-58.68c-7.88-6.82-29-11.41-52.73-11.46Z"/>
    </g>
    <g class="cls-3">
      <g class="cls-4">
        <path class="cls-2" d="m67.64,12.73c13.09,4.32,27.24-3.15,31.59-16.69,4.35-13.54-2.75-28.04-15.85-32.36-13.1-4.33-27.25,3.15-31.59,16.7-4.35,13.54,2.74,28.03,15.85,32.36Z"/>
        <path class="cls-2" d="m126.84,28.77c11.41,3.77,23.72-2.74,27.5-14.54,3.79-11.8-2.38-24.41-13.79-28.18-11.41-3.77-23.72,2.74-27.5,14.54-3.78,11.79,2.38,24.4,13.79,28.17Z"/>
        <path class="cls-2" d="m-41.04,50.59C-24.46,56.07-6.56,46.6-1.06,29.47,4.44,12.33-4.53-6-21.12-11.48c-16.57-5.47-34.47,3.98-39.97,21.12-5.5,17.14,3.47,35.47,20.04,40.95Z"/>
        <path class="cls-2" d="m17.15,69.81c16.57,5.47,34.47-3.99,39.97-21.13,5.5-17.14-3.47-35.47-20.05-40.94C20.49,2.26,2.6,11.72-2.91,28.86c-5.5,17.14,3.47,35.47,20.05,40.95Z"/>
        <path class="cls-2" d="m75.33,89.02c16.57,5.47,34.47-3.99,39.97-21.13,5.5-17.14-3.47-35.47-20.04-40.94-16.57-5.47-34.47,3.98-39.97,21.12-5.5,17.14,3.47,35.47,20.04,40.95Z"/>
        <path class="cls-2" d="m134.9,103.89c14.26,4.71,29.66-3.43,34.39-18.18,4.73-14.74-2.99-30.51-17.25-35.22-14.25-4.71-29.65,3.43-34.38,18.17-4.73,14.74,2.99,30.52,17.24,35.22Z"/>
        <path class="cls-2" d="m-31.27,120.37c16.58,5.48,34.48-3.99,39.98-21.13,5.5-17.14-3.47-35.47-20.06-40.95-16.57-5.47-34.47,3.99-39.97,21.13-5.5,17.14,3.47,35.47,20.04,40.95Z"/>
        <path class="cls-2" d="m26.92,139.59c16.57,5.47,34.47-3.99,39.97-21.13,5.5-17.14-3.47-35.47-20.04-40.95-16.58-5.48-34.48,3.99-39.98,21.12-5.5,17.14,3.47,35.47,20.05,40.95Z"/>
        <path class="cls-2" d="m85.15,158.62c16.48,5.44,34.29-3.96,39.76-21.01,5.47-17.05-3.46-35.29-19.94-40.73-16.48-5.44-34.29,3.97-39.76,21.01-5.47,17.05,3.46,35.28,19.94,40.72Z"/>
        <path class="cls-2" d="m145.15,172.16c13.46,4.44,27.98-3.24,32.45-17.15,4.47-13.92-2.82-28.79-16.27-33.24-13.46-4.44-27.98,3.23-32.45,17.15-4.47,13.91,2.82,28.79,16.27,33.24Z"/>
        <path class="cls-2" d="m-21.48,190.15c16.57,5.47,34.47-3.98,39.97-21.13,5.5-17.14-3.47-35.47-20.05-40.94-16.58-5.48-34.48,3.98-39.98,21.12-5.5,17.14,3.47,35.47,20.05,40.95Z"/>
        <path class="cls-2" d="m36.7,209.36c16.57,5.47,34.46-3.99,39.97-21.13,5.5-17.14-3.47-35.47-20.04-40.94-16.57-5.47-34.47,3.98-39.97,21.12-5.5,17.14,3.47,35.47,20.04,40.95Z"/>
        <path class="cls-2" d="m94.88,228.57c16.57,5.47,34.46-3.98,39.97-21.13,5.5-17.14-3.47-35.47-20.04-40.94-16.57-5.47-34.47,3.98-39.97,21.12-5.5,17.14,3.47,35.47,20.04,40.95Z"/>
        <path class="cls-2" d="m-11.71,259.92c16.57,5.47,34.47-3.99,39.97-21.13,5.5-17.14-3.47-35.47-20.04-40.95-16.58-5.48-34.48,3.99-39.98,21.13-5.5,17.14,3.47,35.47,20.05,40.95Z"/>
      </g>
    </g>
  </g>
  <path class="cls-1" d="m114.81,156.13h-37.28v-12.12c8.56-1.54,16.86-5,24.23-10.44,11-8.13,18.48-18.82,21.9-32.09,4.42-17.15,1.58-33.23-8.23-48.29,1.71-1.62,3.4-3.17,5.02-4.78,2.75-2.74,2.9-6.37.41-8.82-2.54-2.49-6.07-2.33-8.81.49-1.37,1.41-2.61,2.93-3.96,4.45-4.85-4.51-9.65-8.02-15.06-10.66-5.91-2.87-12.08-4.84-18.63-5.55-1.33-.14-1.93-.57-1.81-2,.12-1.5.07-3.01.02-4.52-.04-1.02.38-1.4,1.39-1.37,1.45.05,2.9.05,4.34,0,3.22-.13,5.49-2.45,5.47-5.55-.02-3.07-2.34-5.42-5.57-5.44-7.42-.05-14.84-.05-22.26,0-3.22.02-5.54,2.39-5.56,5.46-.02,3.09,2.26,5.41,5.49,5.53,1.51.06,3.02-.07,4.52.07.42.04,1.08.71,1.12,1.13.13,1.62-.02,3.26.08,4.88.08,1.26-.43,1.63-1.62,1.78-12.29,1.5-23.01,6.46-32.21,14.72-.44.39-.9.75-1.6,1.33-1.42-1.52-2.74-3.01-4.14-4.41-2.69-2.69-6.21-2.8-8.69-.34-2.45,2.44-2.35,6.04.29,8.69,1.65,1.66,3.39,3.24,5.13,4.89-16.36,24.18-12.87,57.19,9.48,76.99,8.17,7.24,17.92,11.83,28.08,13.74v12.21H20.58c-6.6,0-12,5.4-12,12v15.41c0,6.6,5.4,12,12,12h94.23c6.6,0,12-5.4,12-12v-15.41c0-6.6-5.4-12-12-12ZM19.66,86.81c-.1-26.44,21.01-47.75,47.4-47.86,25.98-.11,47.36,21.14,47.5,47.21.14,26.18-21.13,47.58-47.4,47.7-25.85.12-47.41-21.23-47.5-47.05Z"/>
</svg>