<?xml version="1.0" encoding="utf-8"?>
<!-- Generator: Adobe Illustrator 27.2.0, SVG Export Plug-In . SVG Version: 6.00 Build 0)  -->
<svg version="1.1" id="Juego" xmlns="http://www.w3.org/2000/svg" xmlns:xlink="http://www.w3.org/1999/xlink" x="0px" y="0px"
	 viewBox="0 0 314.2 493.2" style="enable-background:new 0 0 314.2 493.2;" xml:space="preserve">
<g>
	<path d="M85.9,313.7c-0.9,2-0.9,4-1.2,5.9c-0.2,1.5-0.6,3-1.2,4.3c-2,4.5-4.9,8.5-8.5,11.9c-1.6,1.5-3.7,2-5.8,1.9
		c-2.6-0.1-5.1-0.4-7.7-0.7c-1.5-0.1-1.6-0.1-1.5,1.3c0,1.1,0.1,2.3,0.1,3.4c0.1,5.8-1.5,11-4.8,15.7c-1.2,1.8-2.4,3.6-2.3,5.9
		c-1.4,3.8-1.3,7.8-1.2,11.7c0.1,6.2,0.6,12.5,1.7,18.6c0.4,2.1,0.7,4.2,1,6.4c0.4,3.6,1.3,7.2,2.2,10.7c0.9,3.5,1.4,7.1,2,10.6
		c0.7,4.3,1.4,8.6,2.4,12.9c1.6,6.9,3.1,13.8,4.7,20.7c1.1,4.9,2.3,9.7,3.4,14.5c1.3,5.9,2,11.9,2.8,17.9c0.2,1.6,0.6,3.2,0.9,4.8
		c0.1,0.4,0,0.8-0.4,0.8c-0.4,0.1-0.9,0.1-1.1-0.3c-0.1-0.2-0.2-0.4-0.2-0.7c-0.5-3.1-1.1-6.1-1.6-9.2c-0.3-2.1-0.9-4.2-1.1-6.3
		c-0.7-7.6-2.9-14.9-4.6-22.4c-1.2-5.3-2.3-10.7-3.6-16c-1.5-6.1-2.5-12.3-3.6-18.5c-0.5-2.6-0.8-5.2-1.8-7.7
		c-0.4-0.9,0.1-1.8-0.2-2.7c-1.3-4.5-1.8-9-2.5-13.6c-0.4-2.8-1-5.5-1.3-8.4c-0.5-4.5-0.8-9-0.9-13.5c0-1.6-0.3-3.2,0-4.8
		c0-0.3,0.1-0.6-0.3-0.8c-0.2-0.1-0.5,0-0.7,0.2c-0.9,0.8-2,1.4-3,1.9c-0.3,0.2-0.6,0.3-1,0.4c-0.5,0.2-1.1,0.2-1.4-0.4
		c-0.2-0.6,0.2-0.9,0.7-1.1c0.4-0.2,0.8-0.4,1.3-0.6c2.6-1.3,4.7-2.9,5.3-5.9c0.6-2.9,2.1-5.3,3.8-7.7c2.7-4.1,3.6-8.7,3.6-13.5
		c0-1.3-0.1-2.6-0.1-4c0-1-0.4-1.6-1.3-1.9c-1.7-0.7-3.4-1.5-5-2.5c-1-0.6-1.3-0.4-1.4,0.9c-0.1,2.5-0.5,4.9-1.3,7.2
		c-0.4,1.2-1.1,2-2.2,2.4c-1.9,0.6-2.8,0.4-3.8-1c-0.7-1.1-1.6-1.3-2.8-1.1c-0.5,0.1-1,0-1.4,0c-0.9,0-1.9-0.2-1.9,1.2
		c0,0.4-0.6,0.6-1,0.6c-1.8-0.2-3.6,0.2-5.4,0c-2-0.2-3,0.4-3.8,2.2c-0.4,0.9-0.7,1.8-1.1,2.7c-0.2,0.4-0.4,0.9-1,0.9
		c-0.5,0-0.7-0.5-0.9-0.8c-0.3-0.6-0.1-1.5-0.9-1.9c-0.7-0.4-1.4,0.1-2.1,0.2c-1.1,0.1-2.1-0.5-3.1-0.7c-0.5-0.1-0.4-0.9,0.2-1.2
		c1-0.6,2.1-1.1,3.1-1.7c2-1.4,4.1-2.7,6.4-3.7c1.1-0.5,2.1-0.4,3.1-0.2c3.1,0.7,6.3,0.7,9.5,0.7c0.6,0,0.8-0.3,0.7-0.9
		c-0.4-1.4-0.8-2.9-1.2-4.3c-0.2-0.9-0.7-1.5-1.4-2c-3-2.4-6-4.8-9-7.2c-1-0.8-1.8-0.9-2.9-0.4c-2.9,1.2-5.4,3.1-8.2,4.3
		c-0.6,0.3-1.3,0.6-1.9,1c-0.6,0.4-1.2,0.3-1.5-0.4c-0.3-0.6,0.2-1,0.7-1.2c1.2-0.6,2.3-1.3,3.5-1.9c1.3-0.6,2.5-1.2,3.6-2
		c1.5-1,3.1-1.5,4.8-2c0.5-0.2,1.1-0.1,1.6,0.2c0.4,0.2,0.9,0.5,1.2,0.8c2.7,2.1,5.4,4.2,8,6.4c0.7,0.5,1.1,1.1,1.9,0.2
		c0.5-0.5,0.9-0.1,1.1,0.4c0.2,0.3,0.2,0.7,0.2,1c-0.2,2.4,0.7,4.6,1.4,6.8c0.3,1,0.9,2,1.6,2.8c1,1.1,2.2,1,3-0.3
		c0.1-0.1,0.2-0.3,0.2-0.5c1-2.9,1.4-5.8,1.1-8.9c-0.1-0.9-0.8-1.3-1.4-1.8c-2.4-1.8-4.7-3.8-6.8-5.8c-2.6-2.5-4.2-5.6-5.6-8.9
		c-0.7-1.8-1.5-3.5-2.2-5.3c-0.5-1.3-1-1.3-1.8-0.2c-0.3,0.4-0.6,0.8-1,0.6c-1.7-1-3,0.1-4.4,0.6c-3.1,1.3-5.8,3.3-8.5,5.3
		c-1.4,1-2.7,2.2-3.8,3.5c-0.3,0.4-0.7,0.6-1.1,0.9c-0.4,0.3-0.8,0.3-1.1,0c-0.4-0.4-0.4-0.9,0-1.3c1.2-1.2,2.3-2.5,3.6-3.5
		c2.9-2.3,5.9-4.5,9.2-6.1c1-0.5,2-0.9,3-1.3c0.8-0.4,0.9-0.6,0.3-1.3c-0.6-0.7-1.3-1.4-1.9-2.1c-0.2-0.3-0.5-0.6-0.7-0.9
		c-0.3-0.4-0.4-0.8,0-1.1c0.4-0.4,0.9-0.3,1.3,0c0.4,0.3,0.6,0.7,1,1.1c0.8,0.9,1.5,1.7,2.3,2.5c0.3,0.4,0.7,0.6,1.2,0.6
		c0.8,0,1.1-0.4,0.9-1.1c-0.6-2.1-1.3-4.1-2-6.1c-0.6-1.7-1.8-2.8-3.3-3.6c-1.6-0.9-1.7-2.3-2-3.8c-0.1-0.6,0.3-0.8,0.8-1
		c1.1-0.5,1.6-1.5,2.2-2.5c-0.8-0.4-1.2,0-1.7,0.3c-2.2,1.3-3.7,3.2-5.2,5.2c-2.9,3.9-5.3,8-7.5,12.2c-0.8,1.6-1.9,3-3,4.4
		c-1.6,2-2.4,4.3-1.9,6.9c0.4,2-0.2,3.8-1.4,5.4c-2.3,3.1-2.4,6.3-0.9,9.7c0.9,2.1,0.9,4-0.1,6.2c-1.6,3.4-1.7,6.8,0.3,10.3
		c1.9,3.3,4,6.4,6.3,9.4c2.2,3,3.4,6.4,4,10.1c1,6.5,0.4,13-0.2,19.6c-0.5,5.7-1.4,11.4-1.8,17.2c-0.6,9-1.5,17.9-1.5,26.9
		c0,3.2,0.2,6.4,0.2,9.5c0.1,6.1-0.3,12.2,0.1,18.4c0.3,4.9,0.7,9.8,1.3,14.7c0.7,5.5,1.3,11,1.9,16.4c0.1,1.4,0.1,1.4-1.3,1.4
		c-0.2,0-0.5,0-0.7,0c-1.5,0-1.5,0-1.7-1.6c-0.8-5.3-1.1-10.7-1.8-16.1C9,467.3,8.9,459,8.1,450.8c-0.6-6-0.3-12.1,0.1-18.1
		c0.1-1.5,0.2-3,0.2-4.5c-0.1-5.6,0.5-11.1,0.8-16.7c0.2-3.8,0.4-7.5,0.6-11.3c0.3-4.4,0.4-8.7,1.1-13.1c0.5-3.2,0.8-6.4,0.8-9.7
		c0-1.6,0.2-3.1,0.2-4.7c0.1-2-0.3-4-0.7-5.9c-0.5-2.8-2.3-4.9-4.1-6.8c-2.2-2.4-4-5-5.4-8c-1.9-4.1-2.2-8.3-0.9-12.6
		c0.7-2.2,0.7-4.3,0-6.5c-0.5-1.5-0.7-3-0.7-4.6c0-2.6,0.9-4.8,2.3-6.9c1.1-1.6,1.5-3.2,1.3-5.1c-0.2-2.6,0.5-5,1.9-7.1
		c2.1-3.2,4.2-6.5,6.3-9.8c0.5-0.8,1-1.5,1.4-2.3c1.4-3.5,3.7-6.2,6.3-8.9c0.9-0.9,1.4-1.9,1.6-3.1c0.5-4,1.8-7.8,3.1-11.6
		c1.6-4.8,5-7.5,9.9-8.4c1.8-0.3,3.5-0.9,5.2-1.4c1.2-0.3,1.9-0.9,2.3-2c1.3-3,2.3-6.2,4-9c2-3.4,3.5-7.1,5.3-10.6
		c2.8-5.7,6-11.2,9.5-16.5c1-1.6,2-3.1,3.4-4.3c0.8-0.7,1-1.6,0.5-2.6c-1-2.2-2.1-4.4-2.8-6.8c-1.3-4.6-2.3-9.2-1.8-14
		c0.2-2.3,0.2-4.7,0.5-7c0.4-3.2,1.1-6.4,2-9.5c1.5-5.2,0.7-10.1-1.7-14.8c-0.3-0.6-0.7-1.1-1.3-1.5c-1.4-0.8-2.2-2.1-2.6-3.7
		c-0.5-2.3-1-4.7-1.2-7.1c-0.4-3.3,0.5-6.4,1.5-9.5c0.8-2.1,1.2-4.3,1.2-6.5c0.1-3,0.4-6,0.5-9c0.1-2.4-0.1-2.5-2.4-3.3
		c-1.3-0.5-2.4-0.6-3.7,0.1c-2,1-4.2,1.2-6.5,1.1c-0.6,0-1.2-0.2-1.7-0.5c-2.2-0.9-4.2-2-5.8-3.8c-1.7-1.8-3.9-2.9-6-4.2
		c-0.9-0.6-1.9-1.1-2.7-1.7c-0.9-0.7-1.7-0.8-2.7-0.3c-2.3,1.1-4.4,0.6-6.6-0.7c-3.6-2.1-5-5.1-4.8-9.1c0-1.1,0.1-2.2-0.2-3.2
		c-0.8-2.5-1.2-5-1.4-7.6c-0.1-1-0.3-2-1-2.8c-1.2-1.6-1.2-3.3-0.8-5.1c0.7-3,1.9-5.6,4.5-7.5c2.1-1.6,3-4,3-6.7
		c0-0.9,0-1.8,0.1-2.7c0.4-2.7,1.5-5,3.7-6.8c2.5-2.1,4.9-4.3,7.3-6.4c0.9-0.8,1.6-1.8,1.7-3.1c0.6-4,3.4-5.7,6.8-6.9
		c1-0.3,2-0.5,3-0.8c1.8-0.5,3.2-1.2,4.5-2.7c2.3-2.7,5.6-3.7,9-4c1.6-0.1,2.8-0.9,4.2-1.4c0.5-0.2,0.8-0.7,0.9-1.3
		c0.4-1.3,1.3-2.1,2.6-2.5c3.4-1.1,6.9-1.9,10.6-1.3c1.4,0.3,2.7,0,4.1-0.6c2.8-1.2,5.7-1.2,8.5,0.1c0.8,0.4,1.4,0.6,2.2,0.1
		c2.7-2,8.2-1.4,10.9,1.1c0.5,0.5,1.1,1,1.6,1.5c1.4,1.2,2.5,1.1,3.4-0.5c2.8-5.2,6.5-9.7,9.7-14.7c3.2-5,7.5-9.1,12-13
		c5.3-4.4,11.4-6.7,18.1-7.7c1.9-0.3,3.7-0.2,5.5,0.1c3.5,0.5,7,0.9,10.5,1.3c2.8,0.3,5.5,1,8.3,1.5c4.5,0.8,8.5,2.9,12.6,4.5
		c3.4,1.4,6.6,3.1,9.9,4.6c0.7,0.3,1.4,0.7,2.1,1.1c4.5,3.1,9.9,4.7,14.4,7.6c4,2.6,8.5,4.1,12.6,6.5c5,2.8,9.7,6.1,14.6,9.1
		c1.8,1.1,3.2,2.6,4.4,4.2c1.3,1.6,2.7,3.2,4,4.9c2.4,3.2,4,6.7,4,10.9c0.1,5.7-1.4,11-3.3,16.3c-3,8.2-6.5,16.1-9.3,24.4
		c-0.6,1.8-1.1,3.5-1.7,5.3c-0.2,0.7-0.2,1.1,0.6,1.4c3.4,1.5,4.9,4.4,5.5,7.8c0.3,1.8,0.2,3.7,0.1,5.6c-0.2,1.8-0.9,3.3-2.3,4.5
		c-0.4,0.4-0.9,0.8-1.4,1.2c-1.4,1.1-1.4,1.1-0.1,2.5c1.5,1.6,2.9,3.2,4.4,4.7c2,2.1,4.3,3.8,6.5,5.6c2.7,2.2,4.8,4.8,6.8,7.6
		c1.8,2.7,3.8,5.2,5.8,7.7c3.8,4.7,7.2,9.5,9.7,15.1c0.7,1.6,1.7,3.2,2.3,4.9c0.5,1.4,0.6,2.8,1,4.2c0,0.2,0.1,0.4,0,0.5
		c-0.7,1.6-0.6,3.4-1.2,5c-0.5,1.5-1.8,2.2-3.2,2.6c-0.9,0.3-1.8,0.6-2.6,1.1c-1.2,0.7-2.5,1.1-3.9,1.2c-1.4,0.1-2.7,1-4.1,1
		c-0.6,0-0.6,0.8-0.6,1.3c0,2.3,0,4.7,0.1,7c0.3,5.4,0.4,10.8-0.1,16.2c-0.1,1.2,0,2.5,0.5,3.5c1.2,3,0.5,5.9,0,8.9
		c-0.1,1-0.3,1.9,0,2.8c0,0.1,0.1,0.2,0.1,0.4c0.5,5.9,1.3,11.8-0.3,17.7c-0.3,1.1-0.6,2.2-1,3.3c-1,2.9-3.7,4.2-6.5,3.1
		c-0.5-0.2-1-0.3-1.6-0.1c-0.9,0.3-1.8,0.2-2.7,0.3c-1.7,0-2.9-0.6-3.5-2.2c-0.3-0.9-0.9-1.3-1.9-1.4c-1.5-0.1-2.5-1.1-3.2-2.3
		c-0.8-1.5-1.3-3.1-1.2-4.8c0.2-5.4,1.2-10.5,4.2-15c0.3-0.5,0.7-1,1.1-1.4c0.7-0.8,1-1.8,1.1-2.8c0.1-2.7,1-5.1,2.6-7.3
		c0.6-0.8,1-1.6,1.2-2.6c0.5-2.2,0.8-4.5,0.7-6.8c-0.3-6.3-0.2-12.6,0.5-18.9c0.3-2.2,0.2-2.3-2-3.1c-0.8-0.3-1.5-0.7-2.4-0.8
		c-1.1,0-1.4,0.1-1.4,1.1c0.1,3.1-0.5,6.1-0.5,9.2c0,1.7-0.2,3.4-0.4,5c-0.6,5.1-1.1,10.1-2,15.1c-0.9,5.4-2.3,10.8-3.9,16.1
		c-0.7,2.2-1.2,4.5-2.1,6.7c-0.3,0.8-0.6,1.6-0.4,2.5c0.5,1.8,0,3.6-1.2,4.9c-2.2,2.4-2.7,5.3-3.3,8.3c-0.9,4.8-2.1,9.6-3.8,14.2
		c-0.2,0.6-0.5,1.2-0.8,1.8c-1.1,1.9-2.7,2.5-4.7,1.8c-0.4-0.1-0.9-0.4-1.4-0.2c-1.3,0.4-1.8,1.3-1.3,2.6c0.4,1.1,0.5,2.3,0.7,3.5
		c0.1,1,0.6,1.7,1.4,2.2c3.5,2.2,7.1,4.1,11.2,5c4.2,0.9,8.2,2.6,12.1,4.4c1.9,0.9,3.9,1.5,5.9,2.2c2.9,1.1,5.7,2.5,8.4,4.1
		c2.7,1.7,5.7,2.8,8.6,4.1c2,1,4,2.1,6,3.2c2,1.3,4.2,2.3,6.1,3.8c2.8,2.1,4.8,5,6.4,8.1c2.2,4.2,3.9,8.6,5.5,13
		c1,2.7,2.2,5.3,3.4,7.9c1,2.2,1.9,4.5,2.6,6.9c1,2.8,2.2,5.6,3,8.5c0.5,1.8,0.8,3.6,1.2,5.4c1.2,6.1,3,12.1,4.1,18.2
		c1,5.7,2.1,11.4,2.9,17.2c0.5,3.7,0.8,7.4,1,11.1c0.1,1,0.2,1.8,1.2,2.3c0.9,0.4,1.3,1.2,1.6,2.1c0.9,2.9,1.6,5.9,1.7,9
		c0.1,2.5,0.1,5,0.5,7.5c0.5,3-0.5,5.8-1.7,8.5c-0.2,0.5-0.6,1.1-1.1,1.4c-0.9,0.7-0.9,1.4-0.7,2.4c0.7,3.8,1.3,7.7,1.8,11.5
		c0.6,4,1.3,7.9,1.9,11.9c0.9,5.8,1.6,11.5,2.1,17.3c0.5,5.7,0.9,11.5,0.8,17.2c0,0.4,0,0.8,0,1.3c0,0.8-0.3,1.2-1.2,1.2
		c-4.1,0-3.4,0.4-3.4-3.3c0-4.4-0.5-8.7-0.9-13.1c-0.6-7.3-1.9-14.5-2.5-21.8c-0.2-2.2-0.6-4.4-1.2-6.5c-1-3.4-1-7-1.5-10.5
		c-0.2-1.7-0.4-3.5-0.7-5.2c-0.1-1-0.4-1.1-1.4-0.8c-4.1,1.6-8.3,2.8-12.5,4c-2,0.6-3.8,1.4-5.7,2.2c-4,1.5-8.1,2.1-12.2,2.9
		c-5.3,1-10.7,1.8-16.1,1.9c-3.4,0.1-6.7,0.2-10.1,0.4c-1.2,0.1-2.3,0.4-3.6,0.1c-1-0.2-1.4,0.2-1.2,1.4c0.5,2.6,0.5,5.2,0.7,7.9
		c0.4,4.5,0.7,9,1.2,13.4c0.4,3.7,1,7.4,2.1,11c0.7,2.3,0.8,4.6,0.9,6.9c0.2,2.6,0.4,5.1,0.9,7.7c0.1,0.5,0.5,1.2-0.5,1.4
		c-0.9,0.1-1.1-0.3-1.3-1.1c-0.5-3.1-1-6.3-1.1-9.5c0-0.8-0.1-1.5-0.5-2.2c-0.7-1.3-0.8-2.9-0.9-4.4c-0.1-0.9-0.1-1.9-0.3-2.8
		c-1.1-4.8-1.4-9.7-1.8-14.6c-0.3-3.5-0.7-7-0.8-10.6c-0.1-1.1-0.3-2.2-0.5-3.4c-0.1-0.9-0.5-1.3-1.3-1.4c-0.5-0.1-1.1-0.2-1.6-0.3
		c-2.2-0.4-3.5-1.7-3.8-3.8c-0.3-2.4-0.8-4.9-0.1-7.3c0.2-0.7,0-1.2-0.5-1.6c-0.6-0.6-0.9-1.2-1-2c-0.3-2.6-0.4-5.1,0.1-7.7
		c0.3-1.4,1.1-2.4,2.5-2.8c1.2-0.3,1.8-1,1.9-2.3c0.3-2.6,0.2-5.3-0.2-7.9c-0.5-3.4-0.9-6.8-1.1-10.2c-0.3-4.6-1.2-9.2-2.7-13.5
		c-0.1-0.5-0.3-0.9-0.4-1.4c-0.1-0.3,0.1-0.6,0.4-0.7c0.4-0.2,0.7-0.1,1,0.1c0.3,0.3,0.5,0.7,0.6,1.1c1.1,3.1,1.8,6.2,2.3,9.4
		c0.8,5.8,1.1,11.6,1.9,17.3c0.3,1.9,0.2,3.8,0,5.8c-0.1,1.3,0.2,1.8,1.5,1.8c1.9,0,3.8,0,5.8-0.2c5.3-0.5,10.4-1.5,15.7-2.3
		c5.5-0.8,10.9-2.4,16.4-3.2c2.9-0.4,5.8-0.8,8.7-1.4c3.5-0.8,6.9-1.4,10.3-2.6c1.8-0.6,3.5-1.2,5.3-1.8c1.5-0.5,1.6-0.7,1.5-2.2
		c-0.9-9.6-1.8-19.1-3.9-28.5c-0.7-3.3-1.1-6.6-1.5-10c-0.4-3.3-1.2-6.6-2-9.9c-0.7-2.8-1-5.7-2-8.4c-0.5-1.4-0.9-2.7-1.5-4
		c-1.2-2.8-2.1-5.6-3-8.5c-0.6-1.9-1.3-3.9-2-5.8c-1.5-3.5-2.8-7.1-4.3-10.7c-0.8-1.9-1.8-3.8-2.7-5.7c-1-2-2.7-3.3-4.3-4.7
		c-0.6-0.5-1-0.2-1.5,0.2c-2,1.7-4,3.5-5.9,5.2c-0.5,0.4-0.9,0.8-1.5,0.8c-0.5,0-1-0.2-1.1-0.7c-0.2-0.5,0.2-0.8,0.5-1
		c2.4-1.4,4.2-3.5,6.4-5.1c1-0.8,1-1.1,0-1.9c-2.1-1.7-4.5-3.2-7-4.2c-4.2-1.7-8.2-3.8-12.2-5.9c-3.6-1.9-7.3-3.6-11.1-5
		c-3.5-1.3-7-2.6-10.4-3.9c-1.7-0.6-3.5-1.1-5.3-1.7c-3-0.9-5.7-2.5-8.5-3.8c-1.6-0.7-2.8-0.2-3.2,1.5c-1.7,8.9-3.8,17.6-6.2,26.2
		c-1.8,6.2-4.1,12.3-6.8,18.2c-1.1,2.3-2,4.7-3.6,6.8c-0.7,0.9-1.4,1.7-2.8,1.7c-0.6,0-1.2,0.4-1.9,0.6c-0.9,0.3-1.9,0.5-2.8,0.5
		c-1.5-0.1-2.1-0.8-1.7-2.2c0.1-0.4,0.2-0.7,0.3-1c0.8-2.1,1.1-4.3,1.3-6.5c0.2-1.7,0.3-3.5,0.6-5.2c0.1-0.9-0.2-1.5-0.8-2
		c-4.5-4.4-9.8-5.4-15.6-3.2c-5.5,2-9.8,7.8-9,14.6c0.4,3.4,1.6,6.2,4.1,8.5c2.9,2.7,5.9,5.2,9,7.7c2.1,1.7,2.1,2.3-0.4,3.3
		c-3.4,1.5-6.9,2.8-10,4.9c-6.5,4.4-12.3,9.5-16.6,16.1c-1.4,2.2-2.5,4.6-3.6,7c-2.3,5.1-4.1,10.5-5.2,16c-0.6,3.3-1.1,6.6-1.4,10
		c-0.5,5.2-0.6,10.4-0.9,15.6c-0.3,6.2,0.1,12.5,0.1,18.7c0.1,4.2,0.1,8.4,0.3,12.6c0.4,7.9,0.3,15.8,1.6,23.7c0.3,2,0.4,4.2,1.7,6
		c0.2,0.3,0.2,0.7,0.3,1c0.5,3.5,1,7,1.7,10.5c0.1,0.5,0.4,1.1-0.5,1.2c-0.7,0.1-1.1-0.2-1.3-0.9c-0.3-1.8-0.6-3.7-0.9-5.5
		c-0.1-0.5-0.1-1.1-0.6-1.4c-0.8-0.5-0.8-1.2-0.9-2c-0.3-2.7-0.6-5.4-1.1-8c-0.8-4.1-0.9-8.3-1.1-12.5c-0.4-6.2-0.4-12.3-0.6-18.5
		c-0.1-4.4-0.2-8.8-0.3-13.1c0-1.7-0.2-3.3-0.2-5c0.1-6.8,0.2-13.6,0.8-20.3c0.5-6.1,1.3-12.2,3.1-18.1c1.9-6.2,4.2-12.2,7.6-17.8
		c2.2-3.5,4.9-6.7,7.9-9.5c3.4-3.1,7-6,11-8.4c2.3-1.4,4.7-2.3,7.1-3.4c1.4-0.6,1.4-0.6,0.3-1.6c-2.8-2.5-5.7-4.8-8.4-7.3
		c-2.9-2.8-4.2-6-4.4-9.9c-0.3-7.1,2.8-12.3,9.1-15.3c5.8-2.8,11.6-2.4,16.9,1.7c2.6,2,4.9,4.3,6.2,7.5c0.7,1.6,0.8,3.4,1,5.1
		c0,0.4,0,0.7,0.1,1.1c0.1,0.4,0.5,0.4,0.7,0.1c0.3-0.4,0.6-0.9,0.8-1.4c2.6-5.5,4.8-11.2,6.8-17c1.1-3.3,1.9-6.7,2.9-10
		c1.7-6.2,3.2-12.5,4.3-18.9c0.9-5.5,0.3-11-2.4-16c-2.6-4.9-6.2-9.1-9.6-13.5c-1.7-2.1-4.3-3.2-6.4-4.9c-0.4-0.3-0.9-0.2-1.3,0.1
		c-1.6,1.1-3.2,2.3-4.7,3.6c-0.6,0.5-0.6,1.1-0.6,1.8c0.3,3.8,0.2,7.7,1.1,11.4c0.4,1.6,0.1,3.4,0.5,5c0.6,2.4-0.2,4.1-1.8,6
		c-2,2.4-4,4.7-6.1,7c-2.4,2.7-4.6,5.5-6.6,8.5c-2.1,3.3-4.3,6.5-6.3,9.8c-1.6,2.6-2.5,5.4-3.2,8.4c-1.2,5.4-2.5,10.7-3.8,16.1
		c-0.4,1.8-1.4,3.3-1.9,5c-1.3,4.1-2.5,8.3-3.6,12.4c-0.3,1-0.7,1.9-1.8,2.3c-0.8,0.3-1.2,0.9-1.7,1.5c-2.2,3.1-5,5.5-8.7,6.6
		c-0.8,0.2-1.2,0.8-1.5,1.5c-0.7,1.6-1.3,3.2-1.7,4.9c-1.4,5.6-2.7,11.2-3.6,16.9c-0.4,2.2-0.3,4.4-0.4,6.6
		c-0.1,3.3-0.4,6.6-0.1,9.9c0.1,1.4-0.4,2.7-0.4,4.1c-0.1,6.6,0.4,13.2,0.2,19.8c-0.2,6.1-0.3,12.1-0.3,18.2
		c0,6.8,0.4,13.5,0.6,20.3c0.2,5.6,0.4,11.3,0.6,16.9c0.1,1.9,0.2,3.7,0.4,5.6c0.2,1.7,0.4,3.5,0.3,5.2c-0.1,2.9,0.6,5.7,1.1,8.5
		c0.1,0.4,0.2,0.8-0.2,1c-0.4,0.2-0.8,0.2-1.2,0c-0.4-0.2-0.4-0.6-0.5-0.9c-0.6-3.4-1.3-6.8-1.2-10.2c0-1.4-1.4-2.5-0.5-3.9
		c0.8-1.3-0.1-2.7,0-4c0.1-2.8-0.3-5.6-0.3-8.4c0-8.5-0.5-16.9-0.7-25.4c-0.1-4-0.3-8-0.1-12c0.2-5.4,0.3-10.8,0.3-16.2
		c0-5.8-0.1-11.6-0.1-17.5c0-3-0.7-5.8-1.9-8.5c-1.4-3.2-2.9-6.4-4.4-9.6c-1.2-2.7-3-5-4.6-7.5c-2.2-3.3-4.2-6.7-5.8-10.3
		c-1.6-3.6-3.7-7-6.5-9.8c-0.5-0.5-0.9-1-1.4-1.4c-0.7-0.7-0.7-1.4-0.2-2.2c0.7-1.1,0.6-1.1-0.4-2c-3.2-2.9-5.8-6.3-8.1-10
		c-0.7-1.1-1.2-2.3-1.7-3.6c-0.3-1-0.9-1.8-1.8-2.3c-4.5-2.7-7.2-6.9-9.2-11.6c-0.3-0.6-0.3-1.3-1.1-1.9L85.9,313.7z M62,143
		c0.5-0.2,0.8-0.7,1.1-1.1c1.7-2.1,3.7-3.9,6-5.4c1.5-0.9,1.9-0.8,3.2,0.3c0.5,0.4,0.8,0.9,1.1,1.4c0.9,1.7,1.7,3.6,2.3,5.4
		c0.9,2.6,0.6,3.9-1.7,5.4c-4,2.6-7.2,5.9-10.1,9.6c-1,1.3-1.1,2.8-0.3,4.2c0.2,0.4,0.6,0.4,0.9,0.1c0.2-0.3,0.4-0.6,0.6-0.9
		c2.6-5.1,9-7.2,13.6-6c2.6,0.7,5.1,1.8,7.5,2.9c2.3,1.1,4.2,2.7,5.6,4.9c0.2,0.3,0.4,0.8,1,0.8c0.2-0.7-0.1-1.3-0.4-1.8
		c-1.2-2-2.3-4.1-3.5-6c-1.4-2.2-3.1-4.1-5.1-5.7c-0.4-0.3-0.9-0.6-0.5-1.2c0.4-0.6,1-0.4,1.4-0.1c0.4,0.2,0.8,0.6,1.1,0.9
		c0.9,0.9,1.9,1.9,2.7,2.9c4.6,5.9,7.1,12.6,8,20.1c0.4,3.6,0.2,7.1-0.5,10.5c-0.6,2.8-1.4,5.7-2.4,8.4c-0.8,2.2-1.3,4.5-1.6,6.8
		c-0.3,2.4,0.5,4.5,2.3,6.1c2.2,2,4.8,1.8,7.5,1.4c0.3-0.1,0.7-0.2,1-0.3c0.3-0.1,0.6,0,0.8,0.3c0.2,0.4,0.1,0.7-0.2,0.9
		c-0.3,0.2-0.6,0.4-1,0.5c-1.3,0.2-2.6,0.5-3.9,0.4c-3.8-0.1-6.1-2.2-7.4-5.5c-0.2-0.6-0.3-1.2-0.5-1.8c-1.3,0.4-0.5,1.7-1.1,2.3
		c-1.2-1.1-1.5-1.8-0.3-3.2c1.6-1.8,2-4,2.5-6.2c0.2-0.8,0.4-1.5,0.7-2.2c0.6-1.8,1.1-3.7,1.6-5.5c0.1-0.5,0.2-1.2-0.7-1
		c-3,0.7-6.1-0.1-9.1,0.4c-0.2,0-0.5,0-0.7-0.1c-2.8-0.9-5.7-1.2-8.5-2.2c-1.4-0.5-2.6-1.1-3.7-2.1c-0.9-0.9-1.8-1.8-2.7-2.6
		c-0.3-0.3-0.5-0.9-1.1-0.7c-0.5,0.2-0.4,0.8-0.5,1.3c-0.3,1.2-0.5,2.3-0.7,3.5c-0.3,2-0.7,4-0.9,6c-0.2,1.2,0.1,1.4,1.3,1.2
		c0.9-0.2,1.8,0,2.7-0.1c3.2-0.5,5.7,0.9,7.9,2.9c2.6,2.4,2.9,5.4,0.8,8.4c-2.5,3.5-5.5,6.6-9,9.1c-2.4,1.8-2.4,2-1.3,4.8
		c0.1,0.2,0.2,0.4,0.3,0.7c0.6,1.2,0.8,1.3,1.8,0.6c1.4-1,3-1.7,4.6-2.4c1.3-0.5,2.6-0.9,4-1c1.6-0.2,2.8,0.6,3.5,2.2
		c0.5,1.1,0,2.4-1.4,3.4c-1.2,0.9-2.7,1.3-4.2,1.4c-1.3,0.1-2.6,0.2-3.9,0.6c-1.6,0.4-1.7,0.6-1.2,2.1c1.9,5.4,4.4,10.4,8.2,14.8
		c2,2.3,4.4,4.3,6.3,6.6c1.2,1.4,2.4,2.8,4,3.8c1.1,0.7,2,1.5,3,2.3c5.3,4.6,11.3,7.4,18.3,7.6c0.3,0,0.6,0,0.9,0.1
		c2.1,0.6,4.2,0.4,6.2,0.1c5.3-0.7,10.5-1.8,15.6-3.3c3-0.9,6-1.7,8.9-2.7c3.8-1.3,7.4-3.2,11-4.9c5-2.3,9.5-5.3,13.5-9
		c1.1-1,2.2-2,3.4-2.9c4.5-3.2,8.4-7,11.3-11.6c1.2-2,2.7-3.9,3.5-6c1.1-3.3,2.5-6.5,4.3-9.5c2.4-4.1,5.6-7.3,9.8-9.5
		c2.7-1.4,5.5-0.6,7.1,2.1c1.5,2.6,1.9,5.4,1.1,8.5c-1,4-3,7.1-6.6,9.2c-1,0.6-2,0.8-3.1,0.7c-2.4,0-3.7-1.4-3.4-3.8
		c0.4-2.3,1.3-4.4,3.3-5.8c0.5-0.4,1-0.6,1.6-0.9c0.3-0.1,0.6,0,0.8,0.3c0.2,0.3,0.1,0.6-0.1,0.8c-0.3,0.4-0.7,0.5-1,0.7
		c-2,1.3-3,3.2-3,5.6c0,1.1,0.4,1.5,1.5,1.6c1.6,0.2,2.9-0.5,4.1-1.4c3.4-2.6,4.7-6.1,4.9-10.2c0.1-1.8-0.4-3.4-1.5-4.9
		c-1.3-1.6-3.3-2.3-4.8-1.5c-2.6,1.5-5.1,3.1-7,5.5c-1.1,1.4-2.1,2.9-3,4.5c-1.4,2.6-2.9,5.2-3.5,8.2c-0.1,0.6-0.2,1.1,0.2,1.5
		c0.4,0.5,0.5,1,0.2,1.7c-0.5,1.2,0,2.1,1,2.7c0.3,0.2,0.7,0.4,0.8,0.7c0.5,1.9,2.1,2.5,3.5,3.4c1.1,0.8,2.4,1,3.8,0.8
		c3.9-0.5,7.2-2.4,10.2-5c4-3.5,7-7.8,9.6-12.4c4-7,5.2-14.5,4.2-22.4c-0.1-0.9-0.4-1.8-0.7-2.6c-0.7-1.6-1.6-3.2-2.5-4.8
		c-1.3-2.3-3.2-3.2-5.7-3.2c-5.1,0-9.4,2-12.9,5.7c-0.4,0.4-0.7,0.9-1.1,1.4c-0.3,0.4-0.6,1-1.2,0.8c-0.7-0.2-0.4-0.9-0.4-1.4
		c0.2-1.1,0.4-2.1,0.5-3.2c0.5-5.5-0.1-11-0.6-16.5c-0.4-4.7-1.6-9.3-2.7-13.9c-0.8-3.7-2.5-7.1-4-10.5c-0.3-0.6-0.6-1-1.3-1.1
		c-1.8-0.3-3.4-1.1-5-2c-1.4-0.8-2.7-1.8-4.1-2.1c-3.6-0.9-7.2-1.6-11-1.5c-0.8,0-1.4,0.3-1.9,0.8c-1,0.9-2.2,1.6-3.6,1.9
		c-3,0.7-5.4-0.4-7.8-2c-0.9-0.6-1.7-1.3-2.8-1.6c-2.2-0.6-4.5-0.9-6.8-1c-3.2,0-6.4,0-9.5-0.1c-1.4-0.1-2.3,0.3-3.2,1.5
		c-2.3,3.1-6,3.9-9.4,2.2c-2-1-3.9-2.1-5.8-3.2c-2.1-1.1-4.2-2.1-6.7-2.4c-2.3-0.2-4.7-0.4-6.9-1c-1-0.3-1.6,0.1-2.1,0.9
		c-1.7,2.4-5.8,3-8.3,1.5c-1.4-0.9-2.7-1.7-3.9-2.9c-0.8-0.9-1.8-1.3-2.9-1.6c-3.3-0.8-6.6-1.3-9.9-1.8c-0.9-0.1-1.4,0.2-1.9,0.9
		c-0.9,1.4-2.3,2-4,2c-1.4-0.1-2.8-0.3-4.2-1c-1.2-0.6-1.6-0.5-1.8,0.8c-0.9,4.6-1.8,9.2-2.5,13.8C61.7,142.5,61.7,142.8,62,143
		L62,143z M196.2,19.5c-2-1.1-3.6-2.2-5.4-3c-3.2-1.4-6.4-2.8-9.6-4.1c-1.9-0.8-3.8-1.6-5.7-2.3c-2.8-1-5.6-2-8.5-3
		c-2.8-1-5.6-2-8.5-2.4c-2.8-0.4-5.6-0.5-8.4-1.1c-1.3-0.3-2.6-0.4-3.9-0.2c-4.5,0.4-8.8,1.8-12.8,4c-2.6,1.4-4.7,3.5-6.9,5.3
		c-3.8,3.1-6.5,7.2-9.3,11.1c-4.3,6.1-8.4,12.4-12.5,18.6c-2.6,4-5.6,7.6-7.9,11.8c-0.8,1.5-0.9,1.6,0.3,2.8
		c0.2,0.2,0.3,0.3,0.5,0.5c2.2,1.8,4.4,3.7,6.7,5.5c3.3,2.5,6.9,4.6,10.4,6.7c3.1,1.9,6.4,3.5,9.7,5.1c4.4,2.1,9.1,3.6,13.7,5.4
		c6.3,2.6,12.7,4.9,19.2,7c5.6,1.8,11.4,3.2,17,5c1.1,0.4,2.1,0.8,3.2,1.1c3.4,0.6,6.6,1.9,9.9,2.6c4,0.8,7.8,2.3,11.8,3.1
		c1.6,0.3,3.3,0.7,4.9,1.3c1.9,0.7,3.9,1.1,5.9,1.7c5.4,1.6,10.9,2.8,15.9,5.4c0.5,0.3,1,0.3,1.3-0.4c0.9-2.2,1.9-4.3,2.7-6.5
		c3.5-9.6,7.4-19.1,10.6-28.8c1.4-4,2.6-8.1,3.4-12.3c0.8-4.1,0-7.9-2.3-11.1c-3-4.1-6.5-7.8-10.8-10.7c-4.6-3.1-9.3-6.1-14.3-8.5
		c-5.1-2.5-10.2-4.7-15.6-6.4c-3.7-1.1-7.3-2.3-11.1-2.9c-4.7-0.8-9.4-1.3-14.1-2c-4.3-0.6-8.6-1.1-12.7-2.3
		c-5.3-1.5-10.4-3.6-15.2-6.2c-0.4-0.2-0.9-0.4-1.2-0.7c-0.3-0.2-0.4-0.6-0.2-0.9c0.2-0.4,0.6-0.5,0.9-0.3c0.6,0.2,1.2,0.5,1.8,0.8
		c1.7,0.9,3.3,1.9,5.1,2.6c5.3,2.2,10.8,3.9,16.5,4.7c4.4,0.6,8.8,1.2,13.2,1.8c3.3,0.4,6.6,1,9.9,1.7
		C194.4,19.3,195,19.9,196.2,19.5L196.2,19.5z M263.4,166.3c0.2-0.6,0-0.9-0.2-1.2c-1.7-3.7-4.2-6.8-6.2-10.3
		c-4.1-6.9-9.4-12.8-15.1-18.5c-3.7-3.7-8-6.8-12.1-10.1c-1.7-1.4-3.4-2.8-5.5-3.5c-4.8-1.8-9.6-3.5-14.4-5
		c-5.4-1.8-10.9-3.3-16.3-5.1c-4.7-1.5-9.6-2.6-14.4-4c-1.7-0.5-3.4-1-5.2-1.5c-2.4-0.7-4.7-1.3-7.2-1.7c-2.7-0.4-5.3-0.8-8-1.4
		c-3.9-0.8-7.7-1.7-11.6-2.7c-1.7-0.4-3.5-0.9-5.2-1.2c-3.2-0.5-6.4-1.2-9.5-2c-3.5-0.8-7-1.6-10.5-2.5c-3.3-0.9-6.6-1.7-9.8-2.9
		c-2.3-0.9-4.7-1.7-7.1-2.6c-2.1-0.8-4.2-1.7-6.2-2.8c-2.9-1.5-5.4-3.5-8-5.4c-2.6-1.9-4.8-4.2-6.2-7.1C84.3,74,84.1,73,84.1,72
		c0.2-4,1.8-7.5,4.1-10.7c0.2-0.3,0.5-0.6,0.8-0.6c1.3,0,1.6-1,2.1-1.9c0.7-1.4,1.5-2.7,3.1-3.3c0.6-0.2,0.9-0.8,1.2-1.3
		c1.7-2.8,3.4-5.6,5.3-8.3c0.9-1.2,1.8-2.5,2.6-3.8c0.2-0.3,0.8-0.7,0.4-1.2c-0.3-0.4-1.8-0.4-2.2,0c-0.2,0.2-0.3,0.5-0.5,0.7
		c-1.5,1.8-3.7,2.1-5.6,0.7c-0.9-0.7-1.6-1.5-2.3-2.5c-1-1.4-3.1-1.5-4.4-0.3c-0.2,0.2-0.4,0.5-0.6,0.6c-1.6,1.4-3.7,1.8-4.9,0.6
		c-1.1-1.1-2.3-1.5-3.8-1.5c-0.5,0-1.1-0.1-1.6-0.3c-1.5-0.5-2.7-0.1-3.4,1.4c-0.1,0.3-0.4,0.6-0.7,0.9c-1.4,1.5-3.7,2.1-5.2,1
		c-1.5-1.2-2.9-0.8-4.4-0.2c-0.7,0.2-1.3,0.5-2,0.6c-1.5,0.2-2.7,0.8-3.3,2.5c-0.9,2.7-3,3.8-5.8,3.4c-0.6-0.1-1.2-0.1-1.8,0.2
		c-1.5,0.6-2.9,1.3-4.3,2.3c-0.8,0.6-1.3,1.2-1.6,2.2c-1,3.2-4,5.5-7.3,5.6c-0.5,0-1.1,0-1.5,0.4c-1.2,1.1-2.5,2.2-3.7,3.4
		c-0.7,0.6-1,1.3-0.9,2.4c0.1,2.2-0.8,3.9-2.5,5.3c-0.9,0.7-1.9,1-2.9,1.4c-1,0.4-1.6,1-2,2c-0.5,1.2-1,2.4-1.5,3.6
		c-0.3,0.6-0.3,1.2-0.1,1.9c1,2.6,0.1,4.8-1.4,6.9c-0.7,1-1.6,1.7-2.6,2.4c-0.6,0.4-1.1,0.9-1,1.8c0.2,2,0.4,3.9,0.6,5.9
		c0.1,0.8,0.4,1.3,1.3,1.5c0.8,0.2,1.4,0.6,2,1.1c2.9,2.2,3.6,5.4,3.8,8.8c0,0.7,0.2,1.2,0.7,1.7c1.4,1.3,2.9,2.3,4.5,3.2
		c0.5,0.3,0.9,0.3,1.3,0c2.7-1.2,5.3-1.1,8,0.1c2.3,1,4.2,2.6,5.9,4.5c0.5,0.5,0.9,1.2,1.6,1.4c1.7,0.7,3.3,1.3,5,2
		c0.8,0.3,1.5,0.3,2.3-0.4c1.3-1.2,2.9-1.9,4.7-1.9c1.5,0,3,0.3,4.4,0.9c1.8,0.8,3.5,1.9,5,3.1c0.6,0.5,1.3,0.8,2.1,0.9
		c2.4,0.4,4.7,0.8,7.1,1.4c1.1,0.3,1.9,0.2,2.7-0.7c1.6-1.5,3.5-2,5.8-1.7c3.5,0.5,6.3,2.1,8.9,4.3c0.4,0.3,0.7,0.7,1.2,0.8
		c2.3,0.3,4.6,0.7,6.9,1c0.8,0.1,1.4,0,1.8-0.7c0.3-0.6,0.9-1,1.5-1.2c2.7-1.1,5.5-1.5,8.4-0.6c2,0.7,4,1.4,5.6,2.7
		c2.2,1.7,4.5,2.1,7.2,2.3c3.9,0.3,7.8,0.4,11.7,0.6c1.2,0.1,2.2-0.3,3-1.2c1-1.1,2.3-1.8,3.9-2.1c3.2-0.6,6.1,0.1,8.8,1.6
		c1.4,0.7,2.7,1.5,4.1,2.2c0.6,0.3,1.2,0.6,1.9,0.6c2,0.1,4.1,0.3,6.1,0.4c0.8,0.1,1.5-0.2,2.1-0.9c0.6-0.8,1.4-1.4,2.4-1.8
		c2.7-1.2,5.3-0.5,7.8,0.6c1.9,0.8,3.7,1.9,5.4,3.2c0.4,0.3,0.8,0.6,1.3,0.6c2.8,0.4,5.7,0.9,8.5,1.3c0.6,0.1,1-0.1,1.5-0.5
		c1.8-1.4,3.8-1.8,6.1-1.1c2.8,0.8,5.2,2.4,7.4,4.2c0.8,0.6,1.5,1.2,2.4,1.5c1.4,0.5,2.7,0.9,4,1.5c0.9,0.4,1.5,0.4,2.3-0.1
		c3-1.8,6-1.2,8.8,0.6c1.7,1.1,2.8,2.7,4.1,4.3c1.1,1.4,2.4,2.7,4.2,3.3c0.5,0.2,1,0.4,1.4,0.8c1,0.9,2,1.1,3.1,0.3
		c0.6-0.4,1.4-0.5,2.1-0.3c2.3,0.6,4.4,1.3,6,3.3c1.5,1.8,2.6,3.9,3.4,6.1c0.3,0.8,0.6,1.8,1.5,2.1c0.8,0.3,1.3,0.8,1.8,1.4
		c0.6,0.6,1.1,1,2,0.7c1.2-0.4,2.3,0,3.3,0.6C261.7,165,262.5,165.6,263.4,166.3L263.4,166.3z M184.9,222.5c-0.8,0.6-1,1.2-1.4,1.8
		c-2.3,3.5-4.8,6.9-8.1,9.5c-2.8,2.2-5.6,4.5-8.4,6.8c-3.6,2.9-7.3,5.6-11.5,7.6c-3.5,1.6-6.9,3.6-10.6,4.8
		c-8.8,3-17.7,5.7-26.9,6.8c-1.9,0.2-2,0.3-2,2.2c0.2,5.6,0.2,11.1,0.1,16.7c-0.2,7.6-0.3,15.2,1.2,22.8c0.6,2.9,0.5,2.9,3.4,3.2
		c2.1,0.2,4.3,0.4,6.4,0.8c2.8,0.5,5.5,1.2,8.2,1.9c3.5,0.9,6.9,1.9,10.1,3.7c0.7,0.4,1.2,0.6,1.8-0.3c0.5-0.8,1.3-0.4,1.5,0.5
		c0,0.2,0,0.5,0,0.7c0.1,1,1,1.3,1.8,1.6c0.8,0.3,1-0.6,1.2-1c0.7-1.4,1.5-2.9,1.9-4.4c2.9-9.7,7.2-18.8,11.4-27.9
		c1.1-2.4,2.4-4.7,3.4-7.1c1.6-4,3.1-8,5.3-11.8c1.4-2.4,2.9-4.8,4.2-7.3c1.1-1.9,2-4,3.6-5.6c2.3-2.3,2.8-4.9,2.6-8
		c-0.2-4.7-0.2-9.5,0.5-14.2C184.8,225,185.1,223.9,184.9,222.5L184.9,222.5z M50.9,286.9c0,1.9-0.1,1.9,1.1,2.2
		c2.2,0.5,4.4,1.2,6.6,1.8c2.8,0.7,5.4,1.6,8,2.6c2.7,1,5,2.5,7.3,4.2c0.7,0.5,1.2,0.6,1.9,0.2c2.5-1.2,5-2.4,7.6-3.2
		c1.4-0.4,2.2-1.3,2.4-2.7c0.2-1.4,0.4-2.7,0.7-4.1c0.8-3.1,1.7-6.1,2.9-9.1c1.1-2.8,2.2-5.6,4.3-7.8c2.9-3,4.9-6.6,7.8-9.6
		c0.7-0.7,0.3-1-0.3-1.3c-1.4-0.6-2.7-1.4-4-2c-5-2.1-9.3-5.2-12.6-9.5c-1.4-1.8-2.9-3.5-4.6-5c-3.5-3-6.2-6.6-8.3-10.7
		c-1.3-2.5-2.3-5.1-3.5-7.7c-0.4-0.9-0.7-1-1.3-0.1c-0.5,0.7-1.1,1.5-1.4,2.3c-2.4,6-5.6,11.7-8,17.7c-1.9,4.7-4.2,9.3-6.2,13.9
		c-0.4,0.8-0.7,1.7-1,2.5c-0.9,2.7-1.8,5.3-2.7,8c-1.4,3.9-3,7.7-4.1,11.7c-0.2,0.5-0.6,1.2-0.2,1.7c0.5,0.5,1.1-0.1,1.6-0.3
		C48.3,281.3,51,283.1,50.9,286.9z M251.3,441.4c6.2,0.3,12.4-0.7,18.5-1.7c5.1-0.8,10.2-1.7,15-3.7c2.4-1,5-1.8,7.5-2.5
		c3.6-1.1,7.2-2.1,10.7-3.8c3.1-1.5,4.5-4,4.2-7.2c-0.2-1.6-0.8-2.1-2.4-1.9c-1.8,0.2-3.6,0.3-5.2,1.2c-0.3,0.1-0.6,0.2-0.9,0.3
		c-0.5,0.1-1,0-1.2-0.6c-0.2-0.5,0.2-0.8,0.5-1c0.4-0.3,0.9-0.4,1.3-0.5c1.8-0.5,3.7-1,5.6-1.1c1.2-0.1,1.5-0.4,1.3-1.6
		c-0.2-1-0.2-2-0.2-3c0.1-2.3-0.5-4.5-1.1-6.7c-0.3-1.4-0.8-1.5-2-0.9c-0.4,0.2-0.8,0.3-1.2,0.5c-2.3,0.9-4.7,1.7-7.1,2.5
		c-3.9,1.3-7.9,2.1-11.9,2.9c-3.8,0.8-7.7,1-11.5,1.9c-1.8,0.4-3.5,0.8-5.3,1.1c-2.4,0.5-4.8,1.2-7.2,1.3c-1.3,0.1-2.5,0.3-3.7,0.5
		c-4.9,0.9-9.8,1.7-14.8,1.7c-1.7,0-3.4,0-5,0c-2.6,0-3.4,1-3.5,2.9c-0.1,1.6-0.2,3.1-0.1,4.7c0.2,2.6,0.8,3,3.3,2.3
		c1.9-0.6,3.9-1.3,5.9-1.4c0.7,0,1.6-0.2,1.7,0.8c0.1,0.9-0.9,0.8-1.5,0.9c-2,0.3-4,0.8-5.9,1.4c-0.6,0.2-1,0.5-1.3,1.1
		c-0.5,0.9-0.8,1.7-0.7,2.7c0.1,1.4,0.2,2.9,0.3,4.3c0.1,1.3,0.9,2.2,2.2,2.6c0.6,0.2,1.2,0.3,1.8,0.4c2.6,0.1,5.2,0.1,7.8,0.1
		C247.2,441.6,249.3,441.5,251.3,441.4L251.3,441.4z M112.9,309.9c0.1,1.2,0.4,1.9,1,2.5c1.1,1.2,1.4,2.7,2.3,4
		c0.3,0.5,0.3,1-0.2,1.3c-0.5,0.4-1,0.2-1.4-0.3c-0.2-0.2-0.3-0.4-0.4-0.6c-0.7-2.1-2.2-3.8-3.5-5.6c-0.6-0.8-1.2-1-2.1-1
		c-2,0.1-3.7,0.8-5.4,1.7c-2.7,1.3-4.2,5-3.6,7.8c0.3,1.5,0.7,3,1.4,4.4c0.5,1.1,0.9,2.2,1.3,3.3c1.2,3.2,2.2,6.5,4.4,9.2
		c1.2,1.4,2.3,2.9,3.8,4c0.4,0.3,0.7,0.6,1.2,0.1c1.6-1.8,3.3-3.5,3.5-6.1c0-0.3,0.1-0.6,0.3-0.8c0.9-1.2,1-2.6,0.9-4.1
		c-0.1-0.8,0-1.6,0.1-2.3c0.1-1.1,0.1-2.1-0.1-3.2c-0.3-1.1-0.4-2.2-0.6-3.4c-0.1-0.6,0.2-0.9,0.7-1c0.5-0.1,0.9,0.1,1,0.5
		c0.1,1,0.8,1.9,0.9,2.9c0.3,3.1,0.3,6.1-0.2,9.1c-0.7,3.4-1.9,6.7-4.6,9.2c-0.8,0.7-0.5,1,0.2,1.5c2.8,2.3,5.9,4,9.4,5.1
		c0.7,0.2,1.4,0.8,2,0.3c0.5-0.5,0-1.4-0.2-2c-0.6-2.1-1.3-4.1-1.8-6.2c-0.8-4-1.4-8.1-2.8-12c-0.2-0.5-0.3-1-0.4-1.6
		c-0.1-0.3-0.1-0.6,0-0.9c0.2-0.6,0.4-1.2,1.2-1.2c0.6,0,0.7,0.6,0.7,1.1c0.3,2,0.8,3.9,1.4,5.8c0.6,1.8,0.9,3.6,1.1,5.4
		c0.3,2,0.6,3.9,1.3,5.8c0.6,1.7,1.3,3.4,1.7,5.1c0.3,1.5,1.1,2.3,2.7,2.5c3,0.4,5.9,0.9,8.9,0.5c1.6-0.2,2.6-0.7,3.1-2.2
		c0.1-0.3,0.2-0.7,0.4-1c0.9-2.3,1.8-4.7,2.8-7c1.4-3.4,2.8-6.9,4.3-10.3c0.4-1,0.3-1.8,0-2.8c-0.6-2-2.1-3.5-2.5-5.5
		c-0.1-0.4-0.5-0.6-0.8-0.9c-2.3-2.2-5.3-3.5-8.1-5c-0.8-0.4-1.1-0.2-1.2,0.8c-0.1,0.9,0,1.8-0.3,2.7c-0.1,0.4-0.4,0.6-0.8,0.6
		c-0.3,0-0.6-0.2-0.7-0.5c-0.1-0.3-0.2-0.7-0.2-1c0.1-1-0.1-1.9,0.2-2.9c0.2-0.5,0.1-0.8-0.4-1c-2-0.9-4.1-1.6-6.2-2.1
		c-0.1,0-0.2,0-0.4-0.1c-0.7-0.1-1,0.2-1,0.9c0,0.8,0.1,1.6-0.1,2.3c-0.1,0.4-0.4,0.8-0.9,0.8c-0.5,0-0.7-0.4-0.8-0.9
		c0-0.4,0-0.7,0-1.1c-0.1-1.8-1-2.9-2.8-3.3c-0.4-0.1-0.8-0.2-1.2-0.3c-0.9-0.3-1.4-0.1-1.9,0.8c-0.5,1-1.2,1-1.5-0.2
		c-0.3-0.9-0.8-1-1.5-1.2C115.3,309.9,114.2,310.3,112.9,309.9L112.9,309.9z M41.6,294.1c-0.7,0-1.9,0.1-3,0.2
		c-0.4,0-0.9,0.1-1.1,0.5c-0.2,0.5,0.3,0.8,0.6,1c1,1,2.1,1.9,3.2,2.9c0.3,0.3,0.5,0.7,0.2,1.1c-0.3,0.3-0.7,0.5-1.1,0.3
		c-0.4-0.2-0.8-0.5-1.1-0.9c-1.1-1-2.1-2.1-3.2-3.1c-0.3-0.3-0.5-0.7-1.1-0.5c-0.8,0.3-1.4,1.3-1.1,2.2c0.6,1.7,0.8,3.4,0.8,5.1
		c0,0.6,0.2,1.2,0.3,1.8c1,3.3,2.7,6.3,5,8.9c3.4,3.8,6.7,7.7,9.1,12.1c1.7,3.1,4.8,4.4,7.6,6c0.5,0.3,1,0,0.8-0.7
		c-0.2-1.2-0.4-2.4-0.6-3.5c-0.1-0.6,0-1.1,0.4-1.5c0.5-0.4,0.9-0.4,1.1,0.2c0.2,0.4,0.2,0.9,0.3,1.4c0.2,1.2,0.4,2.5,0.6,3.7
		c0.2,1.2,0.8,1.8,2,1.9c1.9,0.2,3.8,0.5,5.7,0.7c3.7,0.3,6.3-1.2,8.5-4c2.9-3.6,3.5-8,3.5-12.4c0-4.4-2.1-8.1-5-11.4
		c-1.2-1.4-1.2-1.3-2.9-0.3c-0.9,0.6-1.8,1.2-2.6,1.9c-3.2,2.6-6.3,5.5-9.5,8.2c-1.6,1.3-2.4,2.8-1.4,4.8c0.1,0.3,0.2,0.6,0.2,0.9
		c0.1,0.5-0.2,0.9-0.6,1.3c-0.5,0.5-1,0.4-1.2-0.4c-0.2-0.8,0-1.7-0.5-2.2c-0.9-1-0.7-2.1-0.6-3.2c0.1-0.8,0.4-1.5,1.4-1.5
		c0.6,0,0.8-0.4,1.2-0.7c4.2-3.6,8.1-7.5,12.6-10.5c0.8-0.6,0.8-0.9,0-1.5c-2-1.3-4-2.5-6.2-3.5c-2-0.9-4.1-1.7-6.1-2.5
		c-2.2-0.8-4.5-1.3-6.8-1.8c-0.8-0.2-1.6,0-2.4,0.5c-1.3,0.9-1.5,0.9-2.5-0.3c-0.8-1-1.7-1.5-3-1.3
		C42.8,294.1,42.4,294.1,41.6,294.1L41.6,294.1z M114.3,277.7L114.3,277.7c0-3.5,0-7,0-10.4c0-1.9,0-3.8-0.1-5.8
		c0-1.1-0.3-1.3-1.4-1.4c-1.5-0.1-2.9,0.1-4.1,1.3c-0.6,0.6-1.4,1-2,1.5c-2.3,1.8-4.5,3.6-6.1,6c-1,1.5-2.1,3.1-3.1,4.6
		c-2,3-3.6,6.2-4.7,9.7c-2.2,7-3.5,14.2-4.5,21.5c-0.1,0.5-0.1,1.1-0.1,1.6c0,0.4,0.1,0.7,0.5,0.9c2.7,0.8,5.3,2.2,8,0.3
		c0.5-0.4,1.1-0.6,1.7-1c1.2-0.7,2.5-1.4,3.9-1.6c3.4-0.6,6.8-0.8,10.2-0.8c3.4,0,3.3,0.6,2.8-3.1c-0.3-2.4-0.9-4.7-1-7.1
		C114.2,288.4,114.3,283,114.3,277.7L114.3,277.7z M260.3,181.3c1.1-0.1,2.1-0.2,3.1-0.6c0.7-0.3,0.9-0.7,0.5-1.4
		c-0.6-0.9-1-1.9-1.2-3c-0.4-1.6-0.7-3.2-1-4.7c-0.3-1.6-1.1-3-2.6-3.7c-1.2-0.7-2.3-1.5-3.3-2.4c-0.5-0.5-1-0.7-1.8-0.3
		c-1.5,0.8-2.8,0.2-3.9-0.8c-1.7-1.6-3-3.4-3.8-5.6c-0.8-2.3-2.4-3.8-4.6-4.7c-1.2-0.5-2.6-0.6-3.7-1.4c-0.2-0.2-0.6-0.1-0.9,0
		c-2.8,1.5-5,0.5-7.2-1.4c-1.4-1.2-2.6-2.5-3.8-3.8c-0.4-0.4-0.7-1-1.3-0.9c-1.4,0.2-2.4-0.6-3.5-1.1c-0.9-0.4-1.1-0.3-1.1,0.8
		c0.1,3.8-0.6,7.5-1.1,11.2c-0.4,3.4-0.9,6.9-1.8,10.2c-0.2,0.7-0.1,1.3,0.7,1.6c1.5,0.7,3,1.5,4.5,2.2c0.8,0.4,1.6,0.4,2.4-0.1
		c0.9-0.5,1.9-0.6,2.9-0.4c2.7,0.4,4.9,1.7,6.9,3.6c0.4,0.5,0.8,1.1,1.5,1.2c2.4,0.6,4.6,2,7.2,2.2c0.8,0.1,1.4,0.1,2-0.4
		c1-0.9,2.2-1.1,3.5-1c2,0.1,3.7,1,5.1,2.3C255.9,180.4,257.9,181.3,260.3,181.3L260.3,181.3z M94.3,57c-0.2,0-0.4,0.1-0.6,0.3
		c-1,1-1.7,2.3-2.2,3.7c-0.2,0.6,0,1,0.5,1.4c0.9,0.6,1.8,1.3,2.5,2c2.7,2.5,5.7,4.6,8.7,6.6c3.8,2.5,7.8,4.7,11.9,6.7
		c4.5,2.2,8.9,4.4,13.5,6.2c5.4,2.1,10.9,4,16.4,5.8c3.9,1.3,7.7,2.6,11.6,3.8c1.4,0.4,2.8,0.8,4.1,1.2c3,0.7,6,1.7,9,2.5
		c1.4,0.4,2.9,0.6,4.3,1.1c3.4,1.2,7,2,10.5,3.1c3,0.9,6.1,1.7,9.2,2.5c3.2,0.8,6.4,1.8,9.6,2.9c4.5,1.5,8.9,3.2,13.2,5
		c2,0.8,3.9,2,6.1,2.6c0.9,0.2,1.4,1.3,2.4,0.8c0.9-0.5,0.9-1.6,1.4-2.4c0.9-1.6,0.8-1.9-0.5-3.1c-0.4-0.3-0.7-0.6-1.2-0.8
		c-2.6-1.4-5.5-2.1-8.2-3.1c-3.7-1.3-7.4-2.2-11.2-3.2c-1.4-0.4-2.9-0.9-4.3-1.2c-3.3-0.7-6.6-1.6-9.9-2.6c-3.4-1.1-6.9-2-10.4-2.8
		c-4.4-1-8.6-2.7-12.9-3.7c-3.3-0.8-6.6-1.9-9.8-2.9c-3.9-1.2-7.9-2.5-11.7-4c-3.8-1.5-7.7-2.9-11.5-4.5c-3.5-1.5-7.2-2.7-10.7-4.2
		c-3.8-1.7-7.5-3.7-11.1-5.9c-4.2-2.5-8.4-5-12.1-8.3c-1.9-1.7-4-3.2-6-4.9C94.8,57.4,94.6,57.1,94.3,57L94.3,57z M188.8,240
		c1.1,0,1.5-0.6,2-1c1.8-1.5,3.8-1.9,6.1-1.4c2.2,0.5,3.1,2,2.2,4.1c-0.4,1-1.1,1.8-1.9,2.6c-1.1,1.1-1.1,1.1,0,2.2
		c0.7,0.8,1.5,1.3,2.4,1.8c0.9,0.5,1.7,1.1,2.5,1.7c1.3,1,1.2,1,2.2-0.3c1.5-2.1,2.8-4.3,4.7-6.1c1.7-1.6,3.5-3.1,5.5-4.3
		c0.8-0.4,1.6-0.9,1.6-2c0.1-1.9,0.9-3.5,2.1-4.9c0.7-0.8,1.1-1.6,1.2-2.6c0.1-1.3,0.6-2.4,1-3.6c2-6,4.5-11.9,6-18.1
		c1.5-6.1,2.9-12.2,3.4-18.5c0.2-2.6,0.2-5.1,0.6-7.7c0.5-3.1-0.1-4.1-3.1-4.9c-0.6-0.2-1.2-0.2-1.8-0.2c-2.3,0.1-4.2-0.6-6-2
		c-0.4-0.3-0.8-0.8-1.2-0.3c-0.4,0.4-0.3,1,0,1.5c0.2,0.3,0.4,0.6,0.7,0.8c0.8,0.8,1.6,1.6,2,2.5c1.3,2.7,2.5,5.4,3,8.4
		c0.8,5.6,0.8,11.1-0.7,16.6c-0.7,2.4-1.2,4.9-2.4,7.1c-2.1,4.1-5,7.6-7.7,11.2c-3.1,4.1-7.1,6.9-11.9,8.7c-2.7,1-5.6,1.8-8.6,0.6
		c-0.9-0.4-1.7-0.9-2.6-1.3c-0.9-0.5-1.1-0.4-1.2,0.6c-0.1,1.6-0.1,3.1-0.1,4.7C188.8,237.5,188.9,238.7,188.8,240L188.8,240z
		 M184.3,254.7c-4.8,3.7-16.1,31.9-16.2,41.4c1-0.8,1.6-1.9,2.2-2.9c2.6-4,5.2-8,8.6-11.5c2-2.1,3.9-4.4,5.8-6.6
		c1.2-1.5,1.9-2.9,1.5-5c-0.4-2.1-0.2-4.4-0.7-6.6c-0.5-2.3-0.5-4.6-0.7-7C184.6,256,184.7,255.3,184.3,254.7L184.3,254.7z
		 M133.4,379c-0.1-2.1-0.5-4-1-5.8c-1.8-6-3.7-11.9-4.8-18c-0.3-1.6-1.1-2.3-2.6-2.7c-3.9-1-7.6-2.4-10.9-4.9
		c-0.9-0.7-1.9-1.2-2.8-1.9c-0.3-0.2-0.7-0.3-1,0c-0.4,0.4-0.2,0.8,0.1,1.1c0.1,0.1,0.2,0.2,0.3,0.2c3.4,3.1,5.7,7.1,7.6,11.2
		c1.6,3.4,3.4,6.6,5.5,9.7c2.3,3.4,4.5,6.8,6.1,10.6c0.8,2,1.9,4,2.8,6c0.1,0.3,0.2,0.6,0.6,0.5c0.5-0.1,0.5-0.6,0.3-0.9
		c-0.9-1.2-0.6-2.4-0.2-3.6C133.3,380,133.3,379.4,133.4,379L133.4,379z M209.4,261.6c0.2,0.4,0.7,0.3,1,0.5
		c1.4,0.6,1.6,0.6,2.3-0.8c0.1-0.2,0.2-0.4,0.3-0.7c1.3-3.1,2.6-6.3,3.9-9.5c0.2-0.6,0.4-1.1,0.8-1.6c0.2-0.2,0.3-0.7,0.8-0.5
		c0.4,0.2,0.3,0.6,0.2,0.9c-0.5,1.3-1,2.7-1.5,4c-1.4,3.2-2.2,6.6-4.1,9.6c-0.2,0.3-0.1,0.6,0.1,0.8c0.3,0.2,0.6,0.1,0.8,0
		c0.4-0.3,0.7-0.7,0.8-1.1c0.2-0.5,0.2-1.1,0.6-1.5c0.9-0.9,1.3-2.1,1.6-3.4c0.6-2.2,1.2-4.4,1.8-6.6c0.1-0.5,0.3-0.9,0.5-1.4
		c0.1-0.3,0.4-0.5,0.7-0.4c0.4,0.1,0.5,0.4,0.4,0.7c-0.1,0.5-0.2,1.1-0.3,1.6c-1.1,3.5-1.9,7.1-3.1,10.5c-0.3,1,0.1,1.5,1,1.4
		c0.6-0.1,0.7-0.5,1-1c2.6-4.9,3.8-10.3,5-15.7c0.1-0.6,0.1-1.1-0.8-1.3c-2.1-0.6-3.6-1.8-4.8-3.6c-0.6-0.9-0.7-0.9-1.6-0.3
		c-4.1,2.6-7.2,6.1-10,10c-0.3,0.5-0.6,1-0.8,1.6c-0.2,0.4-0.1,0.7,0.3,0.9c0.4,0.2,0.5-0.1,0.7-0.4c2.2-2.8,5-5.2,7.1-8.1
		c0.2-0.3,0.5-0.5,0.7-0.8c0.2-0.2,0.6-0.3,0.8,0c0.3,0.2,0.3,0.5,0.1,0.8c-0.2,0.3-0.4,0.6-0.6,0.9c-1.5,2-3.1,3.9-4.9,5.7
		c-1.3,1.3-2.5,2.7-3.3,4.4c-0.4,0.7,0,1.8,0.8,2.2c0.7,0.4,1.1-0.1,1.5-0.6c0.4-0.6,0.8-1.2,1.2-1.8c1.7-2.6,3.1-5.4,4.5-8.1
		c0.3-0.5,0.6-1.1,1-1.5c0.2-0.2,0.4-0.2,0.7-0.1c0.2,0.1,0.3,0.4,0.3,0.6c-0.1,0.2-0.1,0.5-0.2,0.7c-2,3.5-3.6,7.2-5.9,10.5
		C210.2,259.9,209.6,260.7,209.4,261.6L209.4,261.6z M64.3,198.3c0,4.4,0.5,8,1.4,11.6c0.2,1,0.6,1,1.4,0.4c3.2-2.4,6.1-5.2,8.7-8.2
		c0.9-1,1.5-2.2,1.8-3.5c0.3-1.2,0.2-2.3-0.6-3.2c-1.5-1.9-3.4-3.3-5.8-3.6c-1.7-0.2-3.5-0.1-5.2,0.1c-1,0.1-1.4,0.7-1.5,1.7
		C64.4,195.4,64.3,197.2,64.3,198.3L64.3,198.3z M247.2,236h0.2c0-1.3,0-2.5,0-3.8c0-0.5,0.1-1.1,0.7-1c0.5,0,0.6,0.6,0.6,1
		c0,0.8,0,1.7-0.1,2.5c-0.1,1.8-0.1,3.6,0.2,5.4c0.1,0.8,0.8,1.2,1.7,1.1c0.9-0.1,0.7-0.8,0.6-1.4c-0.2-2.9-0.3-5.8-0.7-8.6
		c0-0.2-0.1-0.5,0-0.7c0.1-0.4,0.1-0.9,0.6-0.9c0.5,0,0.6,0.5,0.7,0.9c0.2,1.7,0.4,3.5,0.5,5.2c0.2,2.1,0.3,4.2,0.5,6.3
		c0,0.4,0,0.9,0.6,1c0.6,0.1,0.6-0.5,0.7-0.9c0.1-0.8,0.2-1.7,0.3-2.5c0.4-4.5-0.6-8.9-1.3-13.4c-0.2-1.1-0.4-1.2-1.6-0.7
		c-0.6,0.2-1.3,0.3-1.9,0.3c-1.1,0-2.3,0-3.4-0.1c-1-0.1-1.4,0.3-1.9,1c-2.7,4.4-4.3,9.2-4.8,14.3c-0.1,1.2,0.1,1.6,1.2,2.1
		c1.4,0.6,2.7,1.2,4.1,1.8c0.4,0.2,0.9,0.3,1.1,0.8c0.4,1.1,1.3,1,2.2,1c1.1,0,1.9-0.6,2.9-1c1.3-0.6,1.5-2.1,0.2-2.5
		c-1.6-0.5-3.3-1.5-5.1-1.2c-0.9,0.2-1.8,0.6-2.7-0.2c-0.2-0.2-0.7-0.1-1-0.2c-1.2-0.2-1.5-0.6-1.5-1.8c0.1-1.8,0.7-3.5,1-5.3
		c0.1-0.4,0.4-0.6,0.8-0.5c0.3,0.1,0.5,0.4,0.4,0.7c-0.1,0.9-0.3,1.8-0.4,2.6c-0.1,0.6-0.3,1.3-0.3,1.9c0,0.3,0.2,0.6,0.5,0.7
		c0.4,0.1,0.7-0.1,0.8-0.5c0.1-0.3,0.1-0.6,0.2-0.9c0.4-2.2,0.6-4.4,0.6-6.6c0-1.2,0.3-2.4,0.7-3.5c0.2-0.5,0.5-0.9,1.1-0.7
		c0.5,0.2,0.4,0.7,0.3,1.1c-0.5,1.2-0.6,2.6-0.6,3.9c-0.1,2-0.2,4.1-0.6,6.1c-0.1,0.4-0.1,0.8-0.1,1.2c0,0.2,0.1,0.4,0.4,0.5
		c0.8,0.1,1.7-0.6,1.7-1.4C247.3,238.2,247.3,237.1,247.2,236L247.2,236z M40.9,271.1c0-1.9-1.2-2.8-2.9-2.4
		c-2.5,0.5-4.5,1.8-6.5,3.3c-1.9,1.4-3.2,3-4,5.2c-1.1,2.9-1.5,6-2.5,9c-0.1,0.3-0.1,0.6,0.1,0.8c0.3,0.2,0.6,0.1,0.8-0.1
		c0.7-0.4,1.3-1,2-1.2c1.2-0.2,1.6-1.1,2.1-1.9c1.5-2.4,3.1-4.6,5.6-6.2c1.3-0.8,2.6-1.8,3.6-2.9C40.3,273.7,40.9,272.4,40.9,271.1
		L40.9,271.1z M83.9,161.7c-0.1,0.9,0.2,1.6,0.4,2.3c1.2,4.6,1.2,9.1-0.7,13.5c-0.7,1.6-1.6,2.9-3,3.9c-0.7,0.5-2.1,1-1.9,1.6
		c0.2,0.9,1.6,0.6,2.5,0.7c1.1,0.1,2.3,0.4,3.3-0.2c1.3-0.8,2.5-1.7,3.3-3c2.2-4,3.4-8.2,2.5-12.8C89.8,165.1,86.9,162.3,83.9,161.7
		L83.9,161.7z M98.3,77.6c0,2.1,0,4.2,0,6.3c0,0.9,0.1,1.8,1.1,2.1c0.9,0.3,1.7,0.9,2.6,1.2c0.9,0.2,1.6,1.5,2.4,0.9
		c0.7-0.5,0.2-1.7,0.3-2.6c0.3-3.2,0.6-6.4,0.9-9.6c0.1-0.6,0.2-1.2-0.4-1.6c-2-1.4-4.2-2.6-6-4.2c-0.1-0.1-0.3-0.1-0.5-0.1
		c-0.3,0.1-0.3,0.3-0.3,0.6C98.8,72.8,98.2,75.2,98.3,77.6L98.3,77.6z M250.4,181.6c0.1,1.2,0.4,2.4,0.1,3.6
		c-0.2,1.1-0.2,2.3-0.3,3.4c-0.2,5-0.2,10.1-0.2,15.1c0,3-0.2,6-0.8,8.9c-0.3,1.2-0.2,1.3,0.9,1.3c0.2,0,0.5-0.1,0.7,0
		c1.3,0.2,1.5-0.2,1.6-1.5c0.3-2.3,0.1-4.6,0.4-6.8c0.8-7,0.4-14-0.1-21C252.6,183,252.1,182,250.4,181.6L250.4,181.6z M133.8,357.7
		C133.8,357.7,133.8,357.7,133.8,357.7c-0.1,0.6,0,1.2-0.1,1.8c-0.1,1.4-0.5,2.1-1.1,1.9c-1-0.3-0.7-1.2-0.7-2
		c0-1.2,0.4-2.5,0.1-3.8c-0.3-1.5-0.5-1.7-1.9-1.9c-0.7-0.1-1,0.1-0.9,0.9c0.2,1.1,0.4,2.2,0.7,3.4c0.9,4.6,2.6,9.1,3.8,13.7
		c0.1,0.4,0.1,0.8,0.6,0.8c0.6,0,0.5-0.6,0.6-1c0.4-1.9,0.7-3.9,1.2-5.8c0.8-3.4,1.5-6.8,2.8-10c0.4-0.9,0.2-1.1-0.7-1.1
		c-1.1,0-2.2,0-3.2,0c-0.8,0-1.1,0.3-1.1,1.1C133.8,356.2,133.8,356.9,133.8,357.7L133.8,357.7z M113.8,85.3c0,0-0.1,0-0.1,0
		c-0.1,1.1-0.1,2.2-0.2,3.2c-0.1,3.3-0.7,2.7,2.7,4c2.7,1,2.8,0.9,3-1.9c0.2-2.4,0.3-4.9,0.6-7.3c0.1-1-0.2-1.7-1.2-2.1
		c-1.2-0.5-2.3-1.2-3.6-1.7c-1-0.4-1.2-0.3-1.3,0.9C113.7,81.9,113.8,83.6,113.8,85.3L113.8,85.3z M204.5,176.9
		c1-2.1,1.3-4.3,1.5-6.6c0.3-5.1,0.6-10.2,0.1-15.3c-0.2-1.7-0.5-3.3-0.6-5c-0.2-3.2-1.2-6.2-2.1-9.3c-0.3-1.1-1-1.6-2-1.7
		c-0.9-0.1-1.1,0-0.8,0.9c1.2,3.4,2.1,6.8,2.9,10.4c1,4.6,1.3,9.3,1.5,13.9C205.1,168.5,204.9,172.7,204.5,176.9L204.5,176.9z
		 M198.7,173.6c-0.1-4.9-0.2-9.3-0.8-13.7c-0.7-5.4-2-10.7-3.8-15.8c-0.5-1.5-1.2-3-1.8-4.5c-0.2-0.6-0.6-0.7-1.1-0.4
		c-0.8,0.5-0.9,0.9-0.4,1.9c1.1,2.8,2.5,5.6,3.3,8.5c1.1,3.7,1.8,7.4,2.5,11.2c0.4,2.1,0.8,4.2,0.8,6.4c0.1,2.5,0.4,4.9,0.4,7.4
		c0,2.3,0.8,4.5,0.1,6.8c-0.1,0.2,0,0.4,0,0.5c0,0.2,0.2,0.4,0.4,0.3c0.1,0,0.3-0.2,0.4-0.3c0.1-0.2,0.1-0.5,0.1-0.7
		C198.5,178.6,199,175.9,198.7,173.6L198.7,173.6z M91.3,64.7c0.2-0.7-0.3-1.1-0.7-1.5c-1.2-1.2-1.3-1.2-2.2,0.2
		c-1,1.5-1.6,3.2-2.2,4.9c-0.6,1.7-0.9,3.5-0.3,5.3c0.6,1.8,1.7,3.3,3.1,4.6c0.3,0.3,0.5,0.5,0.9,0.4c0.3-0.2,0.2-0.5,0.3-0.8
		C90.2,73.4,90.4,69,91.3,64.7z M200.2,180.3c0.7-0.4,0.6-1,0.7-1.4c0.2-2.2,0.5-4.4,0.5-6.6c0-5.9-0.4-11.7-1.5-17.5
		c-1-5.1-2.4-10.1-4.6-14.9c-0.4-0.9-0.8-1.7-1.5-2.4c-0.2-0.2-0.4-0.3-0.6-0.1c-0.1,0.1-0.1,0.3-0.1,0.5c0.1,0.3,0.2,0.6,0.3,0.8
		c1.8,4.6,3.6,9.1,4.6,13.9c1,4.5,1.6,9.1,1.8,13.7c0.2,4.1,0.3,8.3,0.1,12.4C199.9,179.2,199.9,179.8,200.2,180.3L200.2,180.3z
		 M110.9,126.8c0.2,0.4,0.2,0.5,0.3,0.6c2.5,1.5,4.7,3.5,7.3,4.8c2,1,3.9,2.2,5.9,3c2.5,1,5.4-0.2,6.7-1.8c0.4-0.5,0.2-0.9-0.4-1
		c-1.8-0.1-3.6-0.3-5.4-0.3c-1,0-1.8-0.3-2.6-0.9c-2.2-1.7-4.6-3-7.2-3.9C114.1,126.8,112.5,126.8,110.9,126.8L110.9,126.8z
		 M128.3,90.7c-0.1,0-0.1,0-0.2,0c0,1.3,0,2.6,0,3.9c0,0.4,0,0.9,0.5,1c1.3,0.2,2.5,0.8,3.8,1c0.9,0.1,1.2-0.2,1.2-1
		c0-2.3,0.1-4.6,0.4-6.8c0.1-0.8-0.1-1.4-1-1.7c-1.2-0.4-2.5-0.9-3.7-1.3c-0.8-0.3-1.1-0.1-1.1,0.8C128.3,88,128.3,89.3,128.3,90.7
		L128.3,90.7z M208.6,176.6c0.7-0.3,0.8-0.9,0.9-1.4c0.9-3.6,1.6-7.2,2.1-10.9c0.8-5.8,1.3-11.7,0.4-17.5c-0.3-1.9-0.7-2.2-2.7-2.3
		c0.1,2.7,1,5.3,1,8c-0.1,2.7,0,5.4,0.1,8.1c0.1,2.8-0.3,5.5-0.6,8.2C209.4,171.4,208.6,173.9,208.6,176.6L208.6,176.6z M196,138
		c5.8,13.1,7.7,26.7,6.2,40.9c0.6-0.1,0.6-0.4,0.6-0.7c0.4-3.7,0.7-7.4,0.7-11.1c0-5.8-0.5-11.5-1.7-17.1c-0.8-3.6-1.9-7.2-3.2-10.6
		C198.2,138,197.9,137.9,196,138L196,138z M204.9,140.8c3.4,12.4,3.4,24.6,1.1,36.8c0.8-0.1,0.9-0.6,1-1c0.2-1.2,0.4-2.5,0.7-3.7
		c0.6-2.9,1-5.8,1.2-8.7c0.3-4.1,0-8.1-0.1-12.2c0-2.7-0.5-5.4-1.1-8C207.4,142.5,206.4,141.7,204.9,140.8L204.9,140.8z M92.4,170.1
		c-0.1,5.3-1.6,10-5.2,14.2c2.4,0.1,4.4,0.2,6.3-0.5c0.6-0.2,1-0.6,1.1-1.3c0.5-4,0.2-7.9-1.2-11.6
		C93.2,170.5,93.1,170.1,92.4,170.1L92.4,170.1z M216.9,149.9c-0.1,8.7-1.5,17-3.8,25.2c-0.1,0.3-0.1,0.7-0.2,1.1
		c0,0.2,0.1,0.4,0.3,0.4c0.1,0,0.4,0,0.5-0.1c0.2-0.2,0.3-0.5,0.4-0.8c1-3.9,2-7.7,2.8-11.7c1-5.1,1.5-10.3,2.1-15.5
		c0.1-1.1,0-2.3,0-3.4c0-0.6-0.3-1-0.8-1.3c-0.3-0.2-0.7-0.4-1-0.1c-0.3,0.2-0.3,0.5-0.2,0.8C217.1,146.3,216.9,148.2,216.9,149.9
		L216.9,149.9z M215.5,149.8c0.1-1,0.2-2.5,0.1-4c-0.1-0.9-0.4-1-1.2-0.8c-0.8,0.3-1.1,0.7-1,1.6c0.2,2.1,0.4,4.2,0.5,6.3
		c0.1,3.9-0.5,7.9-1,11.8c-0.5,3.8-1.3,7.4-2.2,11.1c-0.1,0.3-0.4,0.7,0.1,0.9c0.4,0.2,0.6-0.3,0.8-0.6c0.1-0.2,0.2-0.4,0.2-0.7
		c0.7-3.1,1.5-6.2,2.1-9.3c0.3-1.6,0.8-3.3,0.9-4.9C215.1,157.5,215.4,153.9,215.5,149.8L215.5,149.8z M87.3,298.9
		c0.1-1-0.1-1.1-1-0.8c-0.4,0.1-0.8,0.2-1.2,0.4c-1.8,0.8-3.6,1.5-5.4,2.4c-0.9,0.5-1.1,0.9-0.5,1.5c1.7,1.6,3.6,2.9,5.8,3.9
		c0.9,0.4,1.1,0,1.3-0.8C86.8,303.3,87.1,301.1,87.3,298.9L87.3,298.9z M163.7,100.3C163.7,100.3,163.7,100.3,163.7,100.3
		c-0.1-0.8,0-1.6-0.1-2.3c0-0.6-0.2-1-0.9-1.2c-1.6-0.4-3.1-0.9-4.6-1.3c-0.8-0.2-1,0.1-0.9,0.8c0.1,1.6,0.2,3.2,0.4,4.8
		c0.1,0.7,0.4,1.1,1.1,1.2c1.4,0.3,2.7,0.6,4,0.8c1,0.2,1.1,0,1.1-1C163.8,101.5,163.7,100.9,163.7,100.3L163.7,100.3z M148,96
		C148,96,148.1,96,148,96c0-0.8,0-1.7,0-2.5c0.1-0.9-0.3-1.5-1.2-1.7c-0.9-0.3-1.8-0.6-2.7-0.8c-0.9-0.3-1.2-0.2-1.2,0.8
		c0,1.4,0.1,2.7,0.1,4.1c0,1.9,0.9,3,2.7,3.4c0.4,0.1,0.8,0.2,1.2,0.3c0.7,0.2,1-0.1,1.1-0.8C148,97.9,148,97,148,96L148,96z
		 M86.4,123.9c1.2,1.3,2.1,2.6,3.2,3.7c1.3,1.4,2.9,2.5,4.6,3.3c1.8,0.8,4.3,0.5,5.6-0.8c0.2-0.2,0.3-0.4,0.3-0.6
		c0-0.3-0.3-0.3-0.5-0.4c-0.7-0.1-1.4-0.2-2.1-0.2c-1,0-1.7-0.4-2.4-1c-1.5-1.5-3.3-2.5-5.2-3.4C88.8,123.9,87.6,123.8,86.4,123.9z
		 M38.6,113.9c0.3,1.1,1.4,1.7,1.7,2.7c0.7,2.2,2.3,3.6,4.2,4.7c2.1,1.3,4.4,1.8,6.8,0.5c-0.6-0.8-1.5-0.9-2.2-1.2
		c-1.5-0.5-3-1.2-4-2.6c-0.8-1.1-1.9-2-3-2.7C41,114.7,40.1,113.7,38.6,113.9L38.6,113.9z M228.8,120.2c1.6,1.4,2.8,1,4-0.2
		c0.2-0.2,0.6-0.4,0.9-0.6c3.1-2.5,3.6-6.5,1-9.6c-0.2-0.3-0.4-0.8-1.1-0.5C234.4,113.9,232.4,117.5,228.8,120.2L228.8,120.2z
		 M144,348.5c5.4-2.5,7.5-9.7,5.9-14.8C147.8,338.6,145.7,343.3,144,348.5z M194.1,329c-0.3-1.9-0.5-4.3-1.9-6.4
		c-0.2-0.3-0.4-0.5-0.7-0.4c-0.2,0.1-0.3,0.4-0.3,0.6c0,0.6-0.1,1.2-0.1,1.8c-0.2,2.9-0.6,5.7-1.6,8.4c-0.3,0.8-0.1,1.1,0.9,1
		C192.6,333.7,194.1,332.3,194.1,329L194.1,329z M76.5,164.7c0-0.5,0-1-0.1-1.4c-0.3-1.7-2-2.4-3.4-1.5c-2,1.2-2.6,4.7-1,6.5
		c0.8,0.9,1.5,1,2.5,0.3C75.6,167.6,76.7,166.5,76.5,164.7L76.5,164.7z M177.3,103.3c0,0.1,0-0.3,0-0.7c-0.1-1.9-0.2-2.1-2.1-2.5
		c-1-0.2-2-0.5-2.9-0.8c-0.8-0.3-1.1-0.1-1.1,0.8c0.1,1.2,0.3,2.4,0.4,3.6c0.1,0.7,0.4,1.1,1,1.3c0.8,0.3,1.6,0.4,2.4,0.7
		C176.6,106.1,177.4,105.3,177.3,103.3L177.3,103.3z M61.3,120.2c0.5,0.8,1.1,1.6,1.6,2.5c1.5,2.7,3.9,4.1,6.9,4.4
		c1,0.1,2.1,0.1,2.8-0.8c0.3-0.3,0.7-0.6,0.5-1.1c-0.2-0.4-0.6-0.3-0.9-0.3c-1.8,0-3.2-0.8-4.6-1.8
		C65.9,121.7,63.9,120.5,61.3,120.2z M22.1,101.8c0,1-0.1,1.9-0.1,2.8c0,1-0.7,1.8-0.9,2.7c-0.9,3.4,1.3,5.5,4,5.4
		c0.6,0,1.4,0.1,1.6-0.5c0.3-0.7-0.5-0.9-0.9-1.3c-0.2-0.2-0.4-0.4-0.7-0.6c-0.9-0.7-1.2-1.5-1.1-2.6c0.2-1.8-0.4-3.4-1-5.1
		C23.1,102.2,22.8,101.8,22.1,101.8L22.1,101.8z M164,134.6c-2.4-0.2-4.6-0.8-6.6-2.2c-0.3-0.2-0.6-0.4-0.9-0.6
		c-1.8-1-3.6-1.9-5.6-2.4c-0.2-0.1-0.5-0.1-0.6,0.2c-0.1,0.2,0,0.5,0.2,0.6c2.3,1.9,4.5,4,7.3,5.2
		C159.9,136.2,162.1,136.1,164,134.6L164,134.6z M95.3,324.2c0.1-0.3,0.2-0.5,0.1-0.6c-0.7-1.5-0.9-3.2-1.2-4.8
		c-0.3-1.6-1-2.9-2.4-3.8c-0.7-0.4-1.5-0.5-2.1-0.9c-0.3-0.2-0.7-0.4-1-0.1c-0.4,0.3-0.1,0.6,0,1c0.8,2,1.9,3.9,3.1,5.6
		C92.7,322,93.8,323.3,95.3,324.2L95.3,324.2z M202.9,111.2c0-0.9,0-1.5,0-2.1c0-0.8-0.4-1.3-1.1-1.4c-1-0.2-1.9-0.6-2.9-0.9
		c-0.9-0.4-1.2-0.1-1.1,0.9c0.2,1.2,0.5,2.4,0.4,3.7c0,0.7,0.5,1.1,1.1,1.2c0.9,0.3,1.8,0.6,2.7,0.9c0.7,0.2,1-0.2,0.9-0.9
		C202.9,112.1,202.9,111.5,202.9,111.2L202.9,111.2z M190.2,107.4c-0.1-2-1.1-3.3-3-3.8c-0.1,0-0.1,0-0.2-0.1
		c-2.1-0.6-2.3-0.4-2,1.7c0.1,0.3,0.2,0.6,0.1,0.9c-0.2,1.9,0.7,2.8,2.6,3.2C190.4,109.9,190.3,110.1,190.2,107.4L190.2,107.4z
		 M175.9,131.4c1.4,1.2,2.7,2,3.9,2.9c2.4,1.7,4.8,3.3,7.7,4.1c1.1,0.3,2.1,0.3,3-0.5c0.5-0.5,0.4-1-0.3-1.1
		c-1.2-0.2-2.5-0.4-3.7-0.6c-0.6-0.1-1.1-0.1-1.5-0.5c-1.1-1.2-2.6-1.9-4-2.7C179.5,132.2,178.1,131.2,175.9,131.4L175.9,131.4z
		 M156,323.8c-0.1-1-0.1-1.9-0.3-2.7c-0.3-1.1-1.4-1.4-2.2-0.6c-1,1-1.7,2.2-1.9,3.6c-0.2,1.9,1.5,3.2,3.1,2.4
		C155.9,325.9,155.8,324.7,156,323.8L156,323.8z M214.9,114.8c0,0.1,0-0.3,0-0.6c0-1.5-0.1-1.7-1.6-2.2c-0.6-0.2-1.2-0.5-1.8-0.8
		c-0.3-0.2-0.7-0.3-1-0.1c-0.3,0.2-0.2,0.6-0.2,1c0.1,0.8,0.4,1.7,0.3,2.5c-0.1,1.5,0.6,2.1,1.9,2.5
		C215,117.7,215,117.7,214.9,114.8L214.9,114.8z M203.3,136.4c2.3,2.8,4.7,5.5,8.1,6.9c0.8,0.3,1.6,0.4,2.5,0.3
		c0.4-0.1,0.9-0.1,1-0.6c0.1-0.6-0.4-0.6-0.8-0.7c-2.1-0.7-4-1.6-5.7-3.1C207,137.8,205.3,136.8,203.3,136.4L203.3,136.4z
		 M236.4,198.4c0.1-0.5-0.1-1-0.4-1.3c-0.5-0.6-1-1.2-1.5-1.7c-0.6-0.6-0.9-0.4-1.1,0.3c-0.2,1.2-0.2,2.4-0.5,3.5
		c-0.3,1.2-0.2,2.2,0.9,3c0.4,0.3,0.6,0.7,1,1c0.6,0.5,0.9,0.4,1-0.3C236,201.4,236,199.9,236.4,198.4z M224.7,142.3
		c0.7,1,1.1,1.7,1.6,2.4c1.5,2,3.1,4,5,5.6c0.9,0.8,2,1.3,3.2,1.5c0.4,0.1,0.9,0.1,1-0.4c0.1-0.5-0.3-0.6-0.7-0.7
		c-1.6-0.5-2.6-1.6-3.6-2.8c-1.1-1.4-2.1-2.7-3.4-3.9C227,143.3,226.3,142.5,224.7,142.3L224.7,142.3z M49.2,286.5
		c0-1.7-0.8-2.5-2.6-2.4c-1.5,0.1-2.7,0.9-4,1.6c-0.5,0.2-0.7,0.8-0.8,1.4c-0.1,0.2,0,0.5,0.2,0.6c0.9,0.6,2.3,0.3,2.6-0.7
		c0.2-0.6,0.3-1.3,1-1.2c0.7,0.1,0.7,0.9,0.7,1.4c0.1,1.1,0.5,1.3,1.7,1.4c1.1,0,1-0.8,1.1-1.5C49.1,286.9,49.1,286.7,49.2,286.5
		L49.2,286.5z M250.8,215.5c-1.4-0.1-2.7,0.1-3.6,1.5c-0.8,1.3-0.6,1.9,0.8,2.4c1.6,0.5,4.2-0.4,5.2-1.8c0.5-0.7,0.2-1.5-0.7-1.9
		C252,215.5,251.4,215.5,250.8,215.5L250.8,215.5z M98.1,41.6c0.7,0,1.2-0.2,1.6-0.6c0.7-0.6,0.6-1-0.2-1.2
		c-0.7-0.2-1.1-0.7-1.5-1.2c-1.2-1.3-2.7-2.2-4.5-2.3c-0.6-0.1-1.1,0-1.6,0.3c-0.1,0.1-0.2,0.2-0.3,0.4c-0.1,0.2,0.2,0.4,0.3,0.4
		c1.7-0.2,2.3,1.1,3.1,2.3C95.7,40.7,96.8,41.5,98.1,41.6L98.1,41.6z M263.8,171c0,1.1,0,2,0,3c0,0.8,0.1,1.6,0.4,2.3
		c0.3,1.1,0.7,2.2,1.5,3c0.7,0.6,1.6,0.5,2.2-0.2c0.6-0.8,0.7-2,0-2.4c-1.8-0.9-2.4-2.5-3-4.2C264.6,171.9,264.6,171.3,263.8,171
		L263.8,171z M228.9,216.8c0,0.2,0,0.4,0.1,0.6c0.7,1.1,1.3,2.1,2,3.1c0.4,0.5,0.8,0.3,0.9-0.2c0.4-1.1,0.7-2.2,1-3.2
		c0.1-0.4,0.1-0.7-0.2-1c-0.7-0.9-1.4-1.8-2.2-2.6c-0.3-0.3-0.7-0.3-0.8,0.1C229.5,214.7,229.2,215.7,228.9,216.8L228.9,216.8z
		 M95.8,75.6c0,0,0.1,0,0.1,0c0-2.2,0-4.3,0-6.5c0-0.3,0-0.6,0-0.9c0-0.3-0.2-0.5-0.4-0.4c-0.2,0-0.3,0.2-0.4,0.3
		C95,68.3,95,68.6,95,68.9c-0.2,2.8-0.3,5.5-0.4,8.2c0,1.7,0.1,3.3,0.2,5c0,0.4,0.1,0.9,0.6,1c0.6,0,0.5-0.6,0.5-1
		C95.8,80,95.8,77.8,95.8,75.6L95.8,75.6z M224.9,229c-0.5,1.2-0.9,2.3-1.4,3.4c-0.2,0.5-0.1,0.9,0.2,1.3c0.6,0.7,1.4,1.2,2.2,1.5
		c0.2,0.1,0.5,0.1,0.7,0c0.5-0.2,1.3-2.3,1-2.7C226.8,231.4,226.1,230.1,224.9,229L224.9,229z M43.9,53c-3,0.8-6.2,0.7-7.8,3.9
		C40.5,57.2,42.5,56.3,43.9,53z M220.5,235.9c-0.9,1.1-0.7,2-0.3,2.9c0.9,1.9,2.4,3.1,4.4,3.6c0.4,0.1,0.7,0.2,1.1,0
		c0.4-0.2,0.8-0.6,0.8-1.1c0.1-0.4-0.2-0.5-0.5-0.6C223.4,240.1,221.7,238.5,220.5,235.9L220.5,235.9z M110.8,83.7
		c0.3-1.7,0.3-3.3,0.3-5c0-0.4,0.1-0.8-0.2-1.2c-0.1-0.2-0.3-0.3-0.6-0.3c-0.2,0-0.3,0.2-0.3,0.4c-0.1,0.2-0.1,0.5-0.1,0.7
		c-0.1,2.8-0.2,5.6-0.3,8.4c0,0.7,0,1.4,0.1,2.1c0.1,0.5-0.2,1.4,0.7,1.4c0.7,0,0.4-0.8,0.5-1.3C110.8,87.1,110.8,85.4,110.8,83.7
		L110.8,83.7z M223.2,116.2c-0.5,0-0.6,0.3-0.6,0.6c0.1,0.8,0.2,1.6,0.3,2.3c0.2,1.2,1.5,2.4,2.6,2.2c1.1-0.1,1-1.2,1.4-1.9
		c0.3-0.7,0.1-1.3-0.6-1.7c-0.8-0.5-1.6-1-2.5-1.4C223.5,116.3,223.3,116.2,223.2,116.2z M67.9,175.4c-0.7-3.8-0.4-7.5,0-11.5
		c-1.3,1-1.8,2.1-2.4,3.1c-0.2,0.4-0.2,0.8,0,1.2c0.7,1.8,1,3.7,1.3,5.6C66.8,174.5,66.9,175.1,67.9,175.4L67.9,175.4z M247.4,155.1
		c0.3,1.4,0.4,2.8,0.8,4.1c0.6,1.8,1.9,3.2,3.3,4.4c0.3,0.2,0.6,0.4,1,0.4c0.1,0,0.3-0.1,0.4-0.2c0.1-0.2,0-0.4-0.1-0.5
		c-1.3-0.8-1.6-2.2-2.2-3.4c-0.7-1.3-1.4-2.6-2.1-4C248.4,155.5,248.2,155.1,247.4,155.1L247.4,155.1z M253.1,219.7
		c-1.3,0.6-2.6,1.2-3.9,1.6c-0.8,0.2-1.3,1.5-1.1,2.2c0.3,0.9,1,0.9,1.8,0.8C251.9,224.1,253.2,222.3,253.1,219.7L253.1,219.7z
		 M71,41.1c0.8-0.2,1.6-0.5,2.2-1.3c0.2-0.2,0.4-0.5,0.2-0.8c-0.2-0.2-0.4-0.2-0.7-0.2c-1,0.3-1.8,0-2.7-0.5
		c-1.4-0.7-2.9-0.2-4.2,0.6c-0.2,0.1-0.4,0.3-0.3,0.6c0.1,0.2,0.4,0.3,0.6,0.2c1.1-0.4,2.1-0.1,2.9,0.7C69.5,40.9,70.2,41,71,41.1
		L71,41.1z M124.3,89.2C124.3,89.2,124.3,89.2,124.3,89.2c0,1.3,0,2.6,0,3.9c0,0.4,0,0.7,0.1,1.1c0,0.2,0.2,0.4,0.5,0.4
		c0.3,0,0.5-0.2,0.5-0.4c0.1-0.3,0.1-0.6,0.1-0.9c0.1-2.6,0.2-5.1,0.3-7.7c0-0.3,0-0.7-0.1-1.1c-0.1-0.3-0.3-0.7-0.7-0.7
		c-0.4,0-0.5,0.4-0.6,0.8C124.3,86.2,124.3,87.7,124.3,89.2L124.3,89.2z M50.1,47.3c1.5-0.7,3.1-0.5,4.7-0.5c1.3,0,2.1-0.9,2.5-2.2
		c-0.7-0.2-1.2,0.7-1.8,0.4c-1.8-1-3.2,0-4.6,0.8C50.3,46.1,49.9,46.5,50.1,47.3L50.1,47.3z M87.6,38.2c-1.5,0.2-2.4-0.3-3.3-1.3
		c-0.9-1-2.2-0.9-3.3-0.4c-0.3,0.1-0.5,0.3-0.5,0.7c0,0.4,0.4,0.5,0.6,0.5c1.1,0,1.8,0.5,2.6,1.4C84.7,40.2,86.4,39.9,87.6,38.2z
		 M67.8,149.2c-0.9,1.1-1,1.1-1.8,0c-0.6-0.8-1.2-1.7-1.8-2.5c-0.4-0.5-0.8-0.9-1.2-1.4c-0.2-0.2-0.5-0.2-0.6,0
		c-0.1,0.1-0.1,0.4,0,0.5c0.2,0.2,0.4,0.4,0.6,0.7c1.2,1.6,2.8,2.9,3.1,5.1c0.1,0.9,1,1.1,1.7,0.4c0.2-0.2,0.3-0.4,0.5-0.5
		c0.7-0.6,0.8-1.1,0.1-1.8C68.3,149.6,68.2,149.3,67.8,149.2L67.8,149.2z M29.4,291.9c-0.5,0-0.9,0.3-1.3,0.9
		c-0.4,0.6-0.1,1.1,0.3,1.6c0.6,0.8,2,1.1,2.9,0.7c0.8-0.3,1.2-1.2,0.7-1.9C31.4,292.5,30.7,291.9,29.4,291.9z M237.7,182.8
		c0-1.5-0.6-2.2-1.9-2.3c-0.4,0-1-0.3-1.2,0.3c-0.2,0.6-0.3,1.3,0.1,1.9c0.2,0.4,0.6,0.7,1,1c0.6,0.3,1,1.1,1.6,0.9
		C238,184.1,237.6,183.3,237.7,182.8L237.7,182.8z M222.5,234.8c-0.5,0-0.7,0.4-0.4,0.9c0.9,1.7,2.2,2.9,4.2,3.3
		c0.5,0.1,1.1,0.2,1.4-0.4c0.3-0.7-0.1-1.1-0.7-1.5c-0.2-0.1-0.4-0.2-0.7-0.2c-1.2-0.3-2.4-0.8-3.2-1.8
		C222.9,235,222.6,234.9,222.5,234.8L222.5,234.8z M140.2,94C140.2,94,140.2,94,140.2,94c0-1.1,0-2.3,0-3.4c0-0.6-0.2-1.2-0.9-1.1
		c-0.7,0-0.6,0.7-0.6,1.1c0.1,2.2,0.1,4.4,0.2,6.6c0,0.1,0,0.2,0.1,0.3c0.1,0.3,0.3,0.5,0.6,0.5c0.4,0,0.5-0.3,0.5-0.6
		C140.2,96.3,140.2,95.1,140.2,94L140.2,94z M21,83.5c-0.8,0.2-1.6,0.8-2.4,0.5c-0.3-0.1-0.5,0.2-0.7,0.4c-0.9,1-1.5,2.1-1.4,3.5
		C19,87,20.7,85.4,21,83.5z M227.9,172.5c0.6,1.1,1.5,1.2,2.1,1.6c1.7,1.1,3.2,2.5,4.4,4.2c0.2,0.4,0.7,0.7,1.1,0.4
		c0.5-0.4,0-0.7-0.2-1c-0.2-0.4-0.4-0.7-0.7-1.1C232.9,174.5,230.8,173.1,227.9,172.5L227.9,172.5z M24,71.5c1.1-1,2.3-1.5,3.6-1.9
		c0.5-0.2,1-0.5,1.4-0.8c0.4-0.3,0.4-0.7-0.2-0.9C26.5,67.1,24,68.9,24,71.5L24,71.5z M70.4,149.6c-1.1-2.8-2.1-5.6-4.2-7.9
		c0,0-0.1-0.1-0.1-0.1c-0.2-0.1-0.5-0.2-0.7-0.1c-0.2,0.1-0.2,0.4-0.2,0.6c0.1,0.3,0.3,0.5,0.5,0.7c1.1,1.4,2,2.9,2.8,4.6
		C69,148.2,69.5,149,70.4,149.6L70.4,149.6z M154.4,97.9c-0.1-0.9-0.1-2-0.2-3.1c0-0.4-0.3-0.8-0.8-0.8c-0.6,0-0.6,0.5-0.5,0.9
		c0.1,1.2,0.2,2.5,0.3,3.8c0.1,0.5,0.2,1.1,0.2,1.6c0.1,0.5,0.2,1,0.9,0.9c0.6-0.1,0.4-0.6,0.4-1C154.6,99.5,154.5,98.8,154.4,97.9
		L154.4,97.9z M228.1,220.7c-0.1,0.1-0.3,0.1-0.4,0.3c-0.3,0.4-0.5,0.9-0.3,1.3c0.7,1.2,1.4,2.3,2.2,3.4c0.2,0.2,0.6,0.3,0.7,0
		c0.3-0.6,0.7-1.2,0.3-1.8c-0.7-1-1.5-2-2.2-3C228.4,220.8,228.2,220.7,228.1,220.7L228.1,220.7z M253.8,181.4
		c0.1-0.4,0.1-0.7-0.1-0.9c-1-1-2.2-1.8-3.6-2.3c-1-0.3-2-0.3-3-0.1c-0.2,0-0.5,0-0.5,0.4c0,0.4,0.3,0.5,0.5,0.6s0.6,0.1,0.9,0.1
		c1.1-0.1,1.9,0.3,2.9,0.7C251.9,180.3,252.6,181.2,253.8,181.4z M71.8,148.2c-0.4-1.6-0.8-3.2-1.5-4.7c-0.6-1.2-1.1-2.5-1.9-3.6
		c-0.2-0.3-0.6-0.7-1-0.4c-0.5,0.3-0.3,0.7,0.1,1.1c1.2,1.3,1.9,2.9,2.7,4.4C70.5,146.2,71.2,147.2,71.8,148.2L71.8,148.2z
		 M39.9,316.5c0.2,2.2,2.8,5.5,5.4,6.8C43.7,320.7,42,318.7,39.9,316.5z M156.6,330.7c0-0.8-0.6-1.8-1.1-1.9
		c-0.6-0.1-1.6,1.3-1.6,2.1c0,0.8,0.7,1.4,1.4,1.4C156,332.3,156.6,331.6,156.6,330.7L156.6,330.7z M169.2,102.8
		c-0.1-1.3-0.1-2.6-0.6-3.9c-0.1-0.3-0.3-0.6-0.7-0.5s-0.4,0.4-0.4,0.7c0.2,1.4,0.4,2.7,0.6,4.1c0.1,0.4,0.1,1,0.6,0.9
		c0.6,0,0.4-0.6,0.4-1C169.3,103,169.2,102.9,169.2,102.8L169.2,102.8z M234.6,209.1c0.6-0.6,0.6-1.2,0.1-1.8
		c-0.5-0.6-1-1.3-1.6-1.9c-0.3-0.3-0.6-0.8-1-0.4c-0.5,0.4-0.6,0.9-0.2,1.4C232.7,207.3,233.5,208.3,234.6,209.1L234.6,209.1z
		 M37.8,116.2c-0.4-1.7-1.8-2.3-3.1-3c-0.2-0.1-0.6,0-0.9,0c-0.2,0-0.4,0.3-0.4,0.5c0,0.2,0.1,0.3,0.3,0.4
		C35,114.8,36.4,115.5,37.8,116.2L37.8,116.2z M208.4,114.6c-0.1-1.3-0.2-2.3-0.3-3.2c-0.1-0.5-0.1-0.9-0.5-1.3
		c-0.1-0.1-0.3-0.2-0.4-0.2c-0.2,0-0.3,0.2-0.3,0.3c0.1,1.6,0.2,3.2,0.7,4.8c0,0.1,0.3,0.2,0.4,0.2c0.2,0,0.4-0.2,0.4-0.4
		C208.5,114.6,208.4,114.4,208.4,114.6L208.4,114.6z M195.7,109.2c-0.2-1.1,0-2.2-0.5-3.2c-0.1-0.3-0.4-0.5-0.7-0.3
		c-0.2,0.1-0.3,0.4-0.2,0.6c0.1,1,0.2,2,0.4,3c0.1,0.6-0.1,1.8,0.9,1.6C196.2,110.8,195.6,109.8,195.7,109.2z M149.1,131.3
		c-1.1-1.2-2.7-1.7-3.8-1.3c-0.3,0.1-0.6,0.2-0.8,0.4c-0.2,0.1-0.3,0.4-0.2,0.6c0.1,0.2,0.2,0.2,0.4,0.2
		C146.2,131.3,147.6,131.3,149.1,131.3L149.1,131.3z M63.9,154c-0.5-1.9-1.8-3.4-2.9-4.9c-0.2-0.2-0.5-0.4-0.8-0.2
		c-0.2,0.2-0.2,0.5,0,0.6C61.4,151.1,62.3,152.8,63.9,154L63.9,154z M182.8,105.5c-0.1-0.7-0.1-1.7-0.4-2.7
		c-0.1-0.3-0.3-0.6-0.6-0.5c-0.5,0-0.5,0.4-0.5,0.8c0.2,1.2,0.3,2.3,0.5,3.5c0.1,0.4,0,1.2,0.6,1.1c0.8-0.1,0.4-0.8,0.3-1.3
		C182.8,106.1,182.8,105.9,182.8,105.5L182.8,105.5z M60.8,122.2c-0.1-0.1-0.1-0.3-0.2-0.4c-1.1-1.1-2.4-1.4-3.9-1.2
		c-0.2,0.1-0.5,0.2-0.5,0.4c0,0.2,0.1,0.5,0.4,0.5c1.3,0.2,2.6,0.4,3.8,1C60.5,122.7,60.8,122.5,60.8,122.2L60.8,122.2z
		 M230.5,112.8c0.8-1.2,0.8-2.3,0.7-3.5c0-0.1-0.2-0.3-0.3-0.3c-0.5-0.1-1.6,0.8-1.4,1.3C229.7,111,229.8,111.9,230.5,112.8
		L230.5,112.8z M219.6,241.1c1.1,2.6,3.2,3.9,5.1,3C222.7,243.5,221.1,242.4,219.6,241.1z M220.4,118.3c-0.1-1.2-0.1-2.2-0.5-3.1
		c-0.1-0.3-0.4-0.5-0.7-0.4c-0.3,0.1-0.3,0.4-0.2,0.6c0.1,1.1,0.3,2.2,0.4,3.3c0,0.2,0.1,0.3,0.2,0.4c0.1,0.1,0.3,0.2,0.5,0.2
		c0.2,0,0.3-0.2,0.3-0.3C220.4,118.7,220.4,118.4,220.4,118.3L220.4,118.3z M228.6,114.5c0.1-0.5,0.4-1.2-0.3-1.3
		c-0.5-0.1-0.6,0.6-0.8,1c-0.2,0.4-0.5,0.8-0.6,1.3c-0.2,0.7,0.2,1,0.8,1.2c0.6,0.2,0.9-0.2,1-0.7
		C228.7,115.4,228.6,114.9,228.6,114.5z M74.3,145c-0.3-2.5-1.3-4.7-2.9-6.6C72.2,140.6,73.3,142.8,74.3,145z M236.9,190.1
		c0.6-0.9,0.4-1.5-0.2-2.1c-0.4-0.4-0.8-0.7-1.2-1c-0.3-0.2-0.6-0.8-1-0.3c-0.3,0.4-0.1,0.8,0.2,1.1
		C235.3,188.6,236,189.2,236.9,190.1L236.9,190.1z M59.3,151.5c1.1,1.9,2.3,3.6,3.8,5.2C62.8,155.2,60.8,152.3,59.3,151.5z
		 M67,147.9c-0.3-1.8-1.4-3-2.4-4.3c-0.2-0.3-0.5-0.4-0.8-0.2c-0.3,0.2-0.2,0.5,0,0.8C64.9,145.4,65.9,146.6,67,147.9L67,147.9z
		 M221.3,142.1c-0.4,0-0.8-0.1-0.9,0.4c-0.1,0.1,0,0.4,0.1,0.5c0.9,0.5,1.7,1.3,2.8,1.5c0.1,0,0.4-0.1,0.5-0.2s0.1-0.4,0-0.5
		C223.1,143,222.4,142.2,221.3,142.1L221.3,142.1z M62.1,147.8c0.4,1.3,1.2,2.3,2,3.2c0.4,0.4,0.6,1.6,1.2,1.2
		c0.6-0.5-0.5-1-0.7-1.5C63.9,149.6,63.1,148.6,62.1,147.8L62.1,147.8z M242.2,152.1c1,1,2.1,1.5,3.3,2.3
		C244.9,152.4,244.2,152,242.2,152.1z M246.4,223.7c0.2-0.9,0.4-1.5,0.5-2.2c0-0.1,0.1-0.2,0.1-0.4c0-0.3-0.1-0.6-0.4-0.7
		c-0.2-0.1-0.3-0.1-0.5,0.1C245.6,221.2,245.7,222.7,246.4,223.7L246.4,223.7z M110,129.1c-0.8-1.3-2-1.5-3.2-0.5
		C107.9,128.8,108.8,129.3,110,129.1z M19.6,99.7c0,1.4,0.1,2.6,1.1,3.7C21,101.9,20.8,100.8,19.6,99.7z M172,132.7
		c0.9,0.7,1.9,0.9,3.3,0.8C174.3,132.1,173.1,132.4,172,132.7z M85.3,125.3c-0.9-0.7-1.5-1.2-2.5-1c-0.1,0-0.3,0.2-0.3,0.3
		c-0.1,0.2,0,0.4,0.2,0.4C83.4,125.2,84.1,125.6,85.3,125.3L85.3,125.3z M77.7,171.3c-0.6,0.1-0.8,0.4-0.8,1c0.1,0.6,0.4,0.8,1,0.7
		c0.5-0.1,0.7-0.4,0.7-0.9C78.6,171.6,78.3,171.3,77.7,171.3z M258.8,165.4c-0.1,0.1-0.1,0.3-0.2,0.4c0.8,0.5,1.6,1.1,2.4,1.6
		C260.7,166,259.9,165.5,258.8,165.4L258.8,165.4z M265.7,170.2c0.2,0.9,0.3,1.9,1.1,2.9C266.7,171.7,266.1,171,265.7,170.2z
		 M16.9,90.9c-0.4-0.7,0-1.3-0.7-1.6c-0.1,0-0.2,0.1-0.3,0.2C15.6,90.1,15.9,90.4,16.9,90.9z M198.3,136.6c0.7,0.3,1.1,0.4,1.9,0.2
		C199.6,136.2,199.1,136.1,198.3,136.6z M30.6,65.5c-0.1-0.2-0.2-0.3-0.4-0.2c-0.3,0.1-0.5,0.3-0.6,0.6c0,0.2,0.1,0.4,0.3,0.3
		C30.3,66.1,30.5,65.8,30.6,65.5L30.6,65.5z M21.2,81.6c0,0,0.1,0.1,0.1,0.1c0.3-0.1,0.5-0.3,0.6-0.5c0.1-0.2,0-0.3-0.2-0.4
		c-0.2,0-0.4,0.2-0.5,0.4C21.1,81.3,21.1,81.4,21.2,81.6L21.2,81.6z"/>
	<path d="M79.6,382.4c0-3.8,0-7.6,0-11.3c-0.1-5.1-0.4-10.2-1.4-15.2c-0.5-2.6-1.2-5.2-1.4-8c-0.1-1.2-0.1-2.5-0.1-3.8
		c0.1-1.5,1-2.1,2.4-1.7c1.9,0.5,3.5,1.7,4.8,3.1c2,2.1,3.8,4.5,4.8,7.3c0.6,1.6,0.7,3.1-0.1,4.7c-2.4,4.5-3.4,9.4-3.3,14.4
		c0,3.1,0.6,6.1,1.4,9c1.5,5.4,2.6,10.9,2.9,16.4c0.1,1.9,1,2.4,2.7,1.8c0.7-0.3,0.7-0.9,0.8-1.5c0.1-1.8-0.3-3.5-0.3-5.2
		c0-3.4-0.3-6.7-0.5-10c-0.2-2.3-0.1-4.6,0.2-6.9c0.2-1.6-0.2-2.9-1.2-4c-0.9-1-1.7-2-2.5-3.1c-0.9-1.1-1.3-2.4-0.6-3.7
		c1.1-2.1,1.9-4.4,2.9-6.6c0.1-0.3,0.3-0.5,0.4-0.8c0.8-1.1,1.6-1,2.4,0c0.1,0.1,0.1,0.2,0.2,0.3c1.6,2.6,2.8,5.3,4,8
		c0.5,1.1,0.3,2.4,0.1,3.5c-0.9,4,0.1,7.7,1.2,11.4c0.3,1,0.7,2.1,0.8,3.1c0.4,4.3,1.5,8.5,1.6,12.9c0,0.5,0.2,1.1,0.3,1.6
		c0.1,0.4,0.4,0.6,0.8,0.6c0.4,0,0.7-0.2,0.8-0.6c0.2-0.6,0.2-1.3,0.2-2c-0.2-2.9-0.2-5.9-0.7-8.8c-0.2-1.5-0.1-3,0-4.5
		c0.1-2.3,0.1-4.7-0.4-7c-0.2-1-0.5-1.8-0.9-2.7c-1.5-2.9-1.2-5.7,0.7-7.9c0.8-1,1.8-1.5,3.2-1.3c1.4,0.3,2.2,1.1,2.5,2.5
		c0.3,1,0.4,2,0.2,3c-0.4,2.6-0.3,5.3,0.2,7.9c0.2,0.9,0.5,1.9,0.9,2.7c2.7,5,4.1,10.5,4.9,16.1c0.2,1.6,0.2,1.6,1.8,2
		c2.6,0.5,4.2,2.5,4.4,5.1c0.2,3.3,0.6,6.6,0.8,9.9c0.1,0.9,0.2,1.8-0.2,2.6c-0.2,0.3-0.2,0.7-0.1,1c0.7,7,0.7,14.1,1.3,21.2
		c0.2,2.2,0.4,4.4,0.5,6.6c0.1,2.2-0.7,4-2.3,5.5c-2.3,2.3-4.5,4.7-6.7,7.1c-0.9,1-1.8,2.1-2.6,3.2c-1.9,2.5-4.2,4.8-6.5,6.9
		c-1.5,1.4-3,2.9-4.4,4.5c-1.1,1.3-2.5,1.3-3.4-0.2c-1.9-3.2-4.9-5.3-7.9-7.4c-2.5-1.8-4.9-3.6-7.3-5.5c-2.3-1.9-4.7-3.5-7-5.3
		c-1.7-1.3-3.2-2.7-4.6-4.2c-0.8-0.9-1.4-1.9-1.6-3.1c-1.4-7.2-2.4-14.5-3.3-21.9c-0.4-3.3-0.4-6.7-0.5-10c-0.1-3.3-0.3-6.6-0.6-9.9
		c-0.2-1.8-0.2-3.4,1.7-4.3c0.7-0.4,0.8-1,0.8-1.7c0-1.7,0-3.4,0-5c-0.1-2.6,0.4-5.1,0.7-7.7c0.3-2,0.3-4,0.7-5.9
		c0.7-3.6-0.1-7-0.7-10.5c-0.4-2.1-0.8-4.1-1.2-6.2c-0.1-0.6-0.2-1.2-0.1-1.8c0-2.2,0.9-3.4,3-3.9c1.5-0.4,3.1-0.6,4.6-0.8
		c2.4-0.2,3.6,0.9,3.7,3.3c0.2,3.3-0.4,6.5-1.2,9.6c-0.5,2-0.8,4.1-0.9,6.2c-0.2,5,0.5,9.9,1.2,14.9c0.4,2.7,0.8,5.3,0.8,8
		c0,1.2,0.2,1.4,1.4,1.3c1.2-0.1,1.4-0.3,1.3-1.4C79.5,393,79.4,387.7,79.6,382.4L79.6,382.4z M85.5,417c-6.2,0-11.9,0-17.7,0
		c-0.8,0-1.3,0.3-1.2,1.1c0.1,2.1,0,4.2,0.3,6.3c0.9,6.5,2,12.9,2.9,19.4c0.3,2.1,1,3.9,2.7,5.3c1,0.9,1.9,1.8,3,2.6
		c2.5,2,5.2,3.8,7.7,5.9c2.2,1.9,4.6,3.6,7,5.3c2.9,2,5.8,4.1,7.8,7.1c0.5,0.8,0.9,0.8,1.5,0.1c0.8-0.9,1.7-1.9,2.6-2.7
		c2.2-2.1,4.6-4.1,6.4-6.5c2.8-3.6,5.9-7,9.1-10.4c3.5-3.7,3.6-4.1,3.2-9.1c-0.5-5-0.9-9.9-1-14.9c0-3-0.5-6-0.5-9
		c0-1.1-0.3-1.3-1.3-1.2c-1.5,0.1-3,0.3-4.5,0.5c-4,0.5-8,0.5-12,0.7C96,417.7,90.6,417.2,85.5,417L85.5,417z M91.1,415.2
		c8.7,0.2,17.5,0.8,26.2-0.6c1.8-0.3,2.1-0.6,2.1-2.4c0-2.7-0.4-5.4-0.7-8c-0.1-1-0.4-2-1-2.9c-0.7-1-1.7-1.5-2.9-1
		c-0.6,0.2-1.1,0.3-1.7,0c-0.4-0.2-0.8-0.3-1.2-0.2c-2.7,0.4-5.4,0.3-8.1,0.4c-0.7,0-1.4,0.1-2,0.7c-0.5,0.5-1.1,0.6-1.6,0
		c-0.6-0.6-1.3-0.6-2-0.6c-2.3-0.1-4.6,0.6-6.9,0.4c-0.6-0.1-1.2,0.1-1.7,0.4c-0.4,0.2-0.9,0.2-1.4,0.1c-1.8-0.5-3.6,0-5.4-0.1
		c-0.3,0-0.8,0-1,0.3c-0.6,0.7-1.1,0.5-1.9,0.1c-1.4-0.7-2.6-0.2-3.3,1.2c-0.2,0.3-0.3,0.7-0.7,0.6c-0.6,0-0.7-0.4-0.8-0.8
		c-0.1-0.9-0.7-1.1-1.5-1.1c-2,0-3.9-0.1-5.9-0.1c-1.6,0-2,0.3-1.9,1.9c0.2,3.2,0.4,6.3,0.7,9.5c0.2,2,0.8,2.5,2.8,2.4
		c3.3,0,6.7-0.1,10.1-0.1C83.2,415.2,87.2,415.2,91.1,415.2L91.1,415.2z M81.6,394c0,1.5,0,3,0,4.5c0,0.6,0.3,1,1,1
		c1.4-0.1,2.8-0.1,4.1-0.2c1.1-0.1,1.3-0.3,1.2-1.3c-0.4-3.4-0.7-6.8-1.4-10.1c-0.8-3.9-2.1-7.6-2.6-11.6c-0.8-6.6-0.3-13,2.8-19
		c0.7-1.4,0.7-2.8,0.1-4.2c-1-2.4-2.4-4.4-4.2-6.2c-0.9-0.9-1.9-1.6-3-2.3c-0.9-0.5-1.2-0.3-1.3,0.6c-0.1,2,0.1,4,0.5,5.9
		c0.5,2.2,1,4.3,1.3,6.5c0.8,5.9,1.2,11.8,1.1,17.7c0,1.4-0.3,2.7-0.3,4.1C81,384.3,81.2,389.1,81.6,394L81.6,394z M68.3,394
		c0,1.6,0,2.8,0,3.9c0,1.6,0.1,1.7,1.7,1.9c1.2,0.2,2.5,0.2,3.8,0.2c1.3,0,1.6-0.3,1.5-1.6c-0.2-2.1-0.2-4.2-0.6-6.3
		c-0.5-3.4-1.2-6.9-1.4-10.3c-0.4-5.1-0.1-10.2,1.4-15.1c0.6-2.1,0.7-4.4,0.7-6.6c-0.1-1.5-0.5-2-2-1.8c-1.1,0.1-2.2,0.4-3.3,0.6
		c-1.9,0.3-2.5,0.9-2.4,2.9c0,0.4,0.1,0.9,0.2,1.2c0.9,2.7,1,5.5,1.6,8.3c0.6,2.5,0.6,5.1,0.3,7.7c-0.3,2.1-0.5,4.3-0.7,6.4
		C68.6,388.4,68.1,391.4,68.3,394L68.3,394z M104.5,385c-0.1,1.5,0.3,2.9,0.4,4.3c0.2,2.7,0.4,5.4,0.5,8.1c0,0.8,0.3,1.3,1.1,1.2
		c1.6-0.3,3.2-0.2,4.8-0.3c1.2-0.1,1.3-0.3,1.1-1.5c-0.8-5.3-1.9-10.5-4.5-15.3c-0.8-1.5-1.4-3.1-1.6-4.9c-0.3-2.4-0.4-4.8,0-7.2
		c0.2-1,0.1-1.9-0.4-2.8c-0.6-0.9-1.3-1.1-2.1-0.3c-1.1,1.1-1.8,2.4-1.5,4c0.2,0.9,0.5,1.7,0.9,2.5c0.8,1.5,1.1,3.1,1.1,4.9
		C104.5,380.2,104.9,382.6,104.5,385L104.5,385z M94.7,393.6c0,1.1,0,2.3,0,3.4c0,1.7,0.1,1.7,1.7,1.8c0.5,0,1.1,0,1.6,0
		c1.8,0,1.9-0.1,1.8-1.8c-0.3-4.3-1-8.6-1.7-12.8c-0.1-0.4-0.1-0.8-0.4-1c-0.8-0.4-0.9-1-1.1-1.8c-0.1-0.7-1.2-1.3-2-1.1
		c-0.8,0.2-0.6,0.8-0.6,1.4C94,385.8,94.5,389.7,94.7,393.6L94.7,393.6z M92.4,359.3c-0.1,0.2-0.3,0.3-0.4,0.5
		c-0.8,1.8-1.5,3.7-2.4,5.4c-0.3,0.6-0.2,1.1,0.2,1.7c1.1,1.4,2.1,2.8,3.1,4.1c0.6,0.8,1.4,0.6,2.1,0.5c0.7-0.1,0.7-0.7,0.8-1.3
		c0.1-0.6,0.2-1.3,0.4-1.9c0.2-0.9,0.2-1.7-0.3-2.6c-1-1.9-1.9-3.9-2.8-5.8C93.1,359.6,92.9,359.3,92.4,359.3L92.4,359.3z M94.1,376
		C94.1,376,94.1,376,94.1,376c0,0.5-0.1,0.9-0.1,1.4c-0.1,0.6,0.3,0.9,0.8,1c0.6,0.1,1.1,0.5,1.7,0.1c0.1-0.1,0.2-0.3,0.2-0.5
		c0-1.5-0.2-2.9-1-4.1c-0.2-0.3-0.4-0.6-0.8-0.5c-0.5,0.1-0.5,0.5-0.6,0.8C94.2,374.8,94.1,375.4,94.1,376L94.1,376z"/>
	<path d="M257.9,319.9c-0.1,0.5-0.3,1-0.6,1.3c-1.5,1.8-2.8,3.7-4.1,5.7c-0.2,0.2-0.3,0.5-0.6,0.7c-0.4,0.2-0.8,0.3-1.2,0
		c-0.4-0.3-0.4-0.7-0.1-1.1c1.6-2.4,3.3-4.8,5.2-7.1c0.2-0.2,0.5-0.3,0.8-0.2C257.7,319.2,257.8,319.6,257.9,319.9L257.9,319.9z"/>
	<path d="M236.9,359.1c-0.4,0-1.1-0.6-0.8-1.3c0.9-2.6,1.6-5.3,3.1-7.6c0.3-0.4,0.6-0.8,1.2-0.5c0.6,0.3,0.6,0.9,0.3,1.4
		c-1,1.7-1.7,3.6-2.3,5.5c-0.2,0.6-0.4,1.1-0.4,1.7C237.9,358.8,237.6,359.1,236.9,359.1L236.9,359.1z"/>
	<path d="M247.4,335.1c0,0.1,0,0.2-0.1,0.4c-0.9,2.1-1.8,4.1-2.7,6.2c-0.2,0.5-0.8,0.8-1.4,0.4c-0.6-0.4-0.7-0.9-0.3-1.5
		c1-1.5,1.6-3.3,2.4-5c0.1-0.3,0.3-0.6,0.5-0.9c0.2-0.4,0.6-0.6,1-0.4C247.3,334.4,247.4,334.7,247.4,335.1L247.4,335.1z"/>
	<path d="M231.6,375c-0.6-0.1-0.8-0.6-0.7-1.2c0.6-1.8,1-3.7,1.8-5.4c0.1-0.3,0.3-0.6,0.6-0.8c0.5-0.3,1.1,0,1.2,0.6
		c0,0.3-0.1,0.6-0.2,0.9c-0.6,1.4-1,2.8-1.3,4.3c-0.1,0.5-0.4,1-0.7,1.4C232.1,375,231.9,375.1,231.6,375L231.6,375z"/>
	<path d="M45.5,330c0.6,0,1.2,0.8,1,1.5c-0.3,0.9-0.3,1.9-0.2,2.8c0,0.4-0.1,0.9-0.6,1c-0.6,0.1-0.9-0.2-1-0.7
		c-0.4-1.4-0.1-2.7,0.2-4.1C44.9,330.1,45.2,330,45.5,330L45.5,330z"/>
	<path d="M11.5,332c0,0.7-1.2,2.1-1.9,2.2c-0.6,0.1-1.2-0.5-0.9-1.1c0.3-0.8,1-1.3,1.7-1.8C11,331,11.5,331.4,11.5,332z"/>
	<path d="M137.4,152.8c-0.5-0.6-1.1-0.6-1.7-0.9c-2.1-1.1-2.5-3-1.1-4.9c1.7-2.3,3.5-4.6,5.8-6.3c3.3-2.6,6.8-3.4,10.9-1.6
		c3.2,1.5,6.1,3.5,9.1,5.3c2.6,1.6,5.2,3.2,7.2,5.5c3.3,3.8,7,7.2,10.1,11.2c1,1.4,1.8,2.9,2.5,4.3c1.1,2.5-2.3,6.9-4.9,6.6
		c-0.9-0.1-1.6-0.4-2.3-1c-0.4-0.3-0.7-0.6-1.2-0.7c-0.3,0.3-0.1,0.7,0,1c1.4,2.9,1.8,6.1,2.2,9.2c0.1,0.7-0.1,1.4-0.6,2
		c-2.2,3.1-4.5,5.9-8,7.6c-2.3,1.1-4.3,2.6-6.7,3.4c-0.9,0.3-1.7,0.6-2.6,0.7c-0.4,0.1-0.8,0-1.1,0.2c-1.7,1.1-3.7,0.8-5.6,1
		c-4.9,0.6-9.8,0.3-14.5-0.5c-3-0.5-6.1-0.9-8.9-2.6c-2.3-1.3-4.8-2.1-7.1-3.5c-1-0.6-2-1.3-3-2c-0.6-0.4-1.2-0.8-1.9-0.9
		c-1.2-0.1-1.5-0.6-1.3-1.9c0.3-2.5,0.7-5,1.7-7.3c1.2-3.1,2.1-6.4,4-9.2c2.3-3.5,4.4-7.2,7.9-9.6c3.2-2.1,6.5-4,10.3-4.9
		C136.9,153.2,137.2,153.1,137.4,152.8z M171.5,164.2c0.7-0.1,1.1-0.5,1.4-1.2C172.3,163.3,171.8,163.6,171.5,164.2
		c-0.5,0.1-1,0.3-1.1,1C171,165,171.4,164.8,171.5,164.2L171.5,164.2z M172.6,160.9c0.5,0.1,1.3-0.6,1.4,0.1
		c0.1,1.1,1.3,0.9,1.6,1.7c0.1,0.4,0.6,0.2,0.9,0s0.1-0.5-0.1-0.8c-0.4-0.6-0.9-1.1-1.3-1.7c-0.9-1.2-1-1.2-1.9-0.1
		C172.9,160.5,172.6,160.6,172.6,160.9c-1.9,0.8-3.2,2.3-4.6,3.7c0.9-0.4,1.8-1,2.5-1.6C171.3,162.4,172.2,161.9,172.6,160.9
		L172.6,160.9z M139.5,193.6c0.4,0.7,0.9,0.6,1.4,0.7c2.7,0.3,5.4,0.1,8.1-0.1c1.8-0.1,3.4-1,4.6-2.4c2.2-2.6,4.2-5.4,5.8-8.4
		c2.2-4.2,3.5-8.6,3.8-13.4c0.1-1.2,0-2.4-1-3.3c-2.1-1.9-4.2-3.9-6.7-5.4c-2.5-1.4-5-2.9-7.9-3.4c-0.7-0.1-1.5-0.4-2.2,0
		c0,0.2,0,0.4,0.1,0.5c0.1,0.2,0.2,0.3,0.3,0.4c3.1,3.6,4,8.1,4.1,12.6c0.1,6.8-2.2,13-6.5,18.4
		C142.2,191.2,140.9,192.5,139.5,193.6L139.5,193.6z M165.8,171.6c-0.5,0.2-0.5,0.4-0.6,0.6c-0.8,1.8-1.1,3.7-1.6,5.5
		c-1.4,4.6-3.6,8.7-6.5,12.5c-0.6,0.7-1.1,1.5-1.9,2.6c1.9-0.1,3.4-0.6,4.7-1.3c2.3-1.2,4.6-2.5,6.9-3.9c1.2-0.7,2.1-1.8,2.9-2.9
		c0.2-0.3,0.4-0.6,0.2-1c-0.3-1-0.1-2-0.3-3c-0.2-1.1-0.2-2.3-0.7-3.3C168,175.5,166.9,173.6,165.8,171.6L165.8,171.6z M129.4,173.5
		c0.6,0,1.2,0,1.7-0.3c1.1-0.7,2.2-1.4,3.2-2.2c1.4-1.1,1.9-2.6,1.5-4.3c-0.3-1.4-0.9-2.7-1.8-3.9c-1.1-1.5-2.2-1.8-3.9-0.8
		c-2,1.1-3.2,3-4.2,5c-0.6,1.2-0.6,2.4-0.2,3.7C126.3,172.6,127.3,173.4,129.4,173.5L129.4,173.5z M122.3,188.9
		c0.2-0.4,0.1-0.7,0-0.9c-2.6-4.9-2.8-10.1-1.8-15.4c0.1-0.6,0.4-1.3,0.1-2c-0.7,0.2-0.9,0.8-1.1,1.2c-0.7,1.5-1.2,3-1.9,4.4
		c-1,2.2-1.7,4.4-2.3,6.8c-0.3,1.2,0,1.9,1.1,2.6c1.1,0.6,2.1,1.4,3.2,2C120.4,188.1,121.3,188.7,122.3,188.9L122.3,188.9z
		 M162.5,148.8c-0.1-0.1-0.1-0.2-0.2-0.3c-0.8,0.2-1.5,0.6-2.2,1c-2.3,1.5-4.5,3.2-6.5,5.1c-0.3,0.2-0.5,0.5-0.8,0.7
		c-0.2,0.1-0.5,0.1-0.7,0c-0.2-0.2-0.2-0.4-0.2-0.7c0-0.4,0.3-0.7,0.6-0.9c2.1-1.6,3.9-3.5,6.2-4.9c0.7-0.4,1.4-0.9,2.1-1.4
		c0.2-0.1,0.2-0.4,0.1-0.6c-0.1-0.2-0.3-0.1-0.5-0.1c-0.2,0.1-0.4,0.2-0.6,0.3c-2.8,1.6-5.1,3.7-7.6,5.7c-0.6,0.5-1.3,1.1-1.9,1.6
		c-0.3,0.3-0.4,0.7,0,0.9c1.3,0.5,2.5,1.2,3.7,1.8c0.1,0.1,0.4,0.1,0.5,0c0.2-0.1,0.3-0.4,0.1-0.6c-1-0.9-0.1-1.3,0.4-1.8
		c0.6-0.5,1.2-1,1.8-1.5C158.7,151.7,160.6,150.2,162.5,148.8L162.5,148.8z M138.7,151.2c0.5,0,0.8-0.4,1.1-0.8
		c2.8-3.4,6-6.3,9.6-8.8c0.4-0.3,1.1-0.5,0.7-1c-0.3-0.5-0.8,0-1.2,0.2c-0.2,0.1-0.4,0.2-0.6,0.4c-3.5,2.6-6.8,5.5-9.6,8.8
		c-0.2,0.2-0.4,0.3-0.4,0.6C138,150.9,138.2,151.2,138.7,151.2L138.7,151.2z M141.6,151.8c0.6-0.1,0.9-0.6,1.2-1
		c1.9-2,3.8-3.9,6-5.7c1.2-0.9,2.4-1.8,3.6-2.7c0.2-0.2,0.5-0.4,0.2-0.7c-0.2-0.2-0.4-0.1-0.6,0c-0.2,0.1-0.4,0.3-0.6,0.4
		c-3.6,2.3-6.7,5.2-9.6,8.3c-0.2,0.2-0.5,0.6-0.6,0.9C141,151.6,141.2,151.8,141.6,151.8L141.6,151.8z M157.1,144.7
		c-0.1-0.4-0.2-0.5-0.5-0.5c-0.5,0-0.9,0.2-1.3,0.5c-3,2.1-5.9,4.5-8.5,7.1c-0.2,0.2-0.5,0.5-0.7,0.8c-0.1,0.1-0.1,0.4,0.1,0.5
		c0.1,0.1,0.2,0.1,0.3,0.1c0.2-0.1,0.4-0.2,0.6-0.4c3-2.6,5.9-5.4,9.3-7.5C156.8,145.2,156.9,144.9,157.1,144.7L157.1,144.7z
		 M144.3,152.2c0.4-0.1,0.8-0.5,1.1-0.8c1.9-1.9,3.7-3.9,5.9-5.4c0.8-0.6,1.7-1.2,2.4-1.8c0.4-0.3,1.2-0.6,0.9-1.1
		c-0.4-0.7-1,0.1-1.3,0.3c-3.3,2.3-6.4,4.8-9,7.8c-0.1,0.2-0.3,0.4-0.4,0.6C143.8,152,143.9,152.2,144.3,152.2L144.3,152.2z
		 M164.8,150c0-0.4-0.2-0.5-0.5-0.5c-0.6,0.1-1.1,0.4-1.6,0.8c-1.7,1.4-3.5,2.7-5.2,4.1c-0.2,0.2-0.4,0.4-0.6,0.6
		c-0.3,0.4,0,0.7,0.3,0.9c0.3,0.2,0.5,0.2,0.8-0.1c0.1-0.1,0.2-0.2,0.3-0.2c1.9-1.9,3.8-3.8,6.1-5.2
		C164.5,150.3,164.6,150.1,164.8,150L164.8,150z M136.3,150.1c3.3-3.1,6.4-6.4,10-9.3C142.1,142.9,138.9,146.1,136.3,150.1z
		 M158.6,145.5c-1.3,0.9-2.5,1.7-3.7,2.5c-2.3,1.5-4.2,3.5-6.3,5.3c-0.2,0.2-0.4,0.4-0.4,0.8c0.1,0.3,0.3,0.4,0.5,0.4
		c0.4,0.1,0.5-0.2,0.6-0.5c0.2-0.5,0.4-1,0.9-1.3c2.6-1.9,4.9-4.2,7.6-5.9C158.3,146.4,158.7,146.3,158.6,145.5L158.6,145.5z
		 M169,154.1c-0.9,0.1-1.4,0.7-1.9,1.1c-2.3,1.4-4,3.4-6,5.1c-0.2,0.2-0.5,0.4-0.1,0.7c0.2,0.2,0.5,0.1,0.7,0
		c0.2-0.1,0.4-0.3,0.5-0.5c1.6-1.6,3.2-3,4.9-4.4C167.7,155.5,168.5,155.1,169,154.1L169,154.1z M159.5,159.3
		c0.5,0.2,0.7,0.1,0.9-0.1c0.9-0.9,1.8-1.7,2.7-2.6c1.3-1.2,2.7-2.4,4.2-3.4c0.2-0.2,0.5-0.4,0.3-0.7c-0.3-0.4-0.6-0.2-0.9,0
		c-0.9,0.7-1.9,1.5-2.8,2.2C162.3,156.1,160.8,157.5,159.5,159.3L159.5,159.3z M165.8,151.4c-2.8,1.1-7.5,5.5-8.2,7.3
		c0.1,0,0.3,0.1,0.3,0.1C160.5,156.2,163,153.7,165.8,151.4L165.8,151.4z M133.8,178.5c0.8,0,1.7-0.8,1.7-1.5c0-0.7-0.9-1.5-1.7-1.6
		c-0.9,0-1.6,0.8-1.6,1.6C132.3,177.9,133,178.5,133.8,178.5L133.8,178.5z M163.1,161.6c0.6,0.1,0.8-0.3,1.1-0.5
		c1.8-1.7,3.7-3.4,5.9-4.7c0.1-0.1,0.3-0.2,0.4-0.4c0.1-0.1,0.1-0.4-0.1-0.5c-0.1-0.1-0.2-0.1-0.3-0.1c-0.3,0-0.5,0.2-0.8,0.4
		c-1.7,1.4-3.4,2.8-5.1,4.3C163.8,160.5,163.2,160.9,163.1,161.6L163.1,161.6z M171.1,157.6c-2.3,0.9-4.6,2.8-5.2,4.3
		C167.8,160.6,169.6,159.3,171.1,157.6z M137.1,146.2c1.8-1.8,3.6-3.5,5.5-5.2C140.3,142.2,138.5,144,137.1,146.2z M174.1,168.5
		c1.8-0.3,2.9-1.6,4-2.7c0.2-0.2,0.2-0.6-0.1-0.8c-0.2-0.1-0.5,0-0.6,0.2C176.3,166.3,175.2,167.4,174.1,168.5L174.1,168.5z
		 M173.3,165c0.8-0.2,1.1-0.7,1.8-1.2C174.1,163.9,173.7,164.3,173.3,165z M167.1,163c-0.1,0-0.2,0-0.3,0.1
		c-0.1,0.2-0.7,0.2-0.3,0.6C166.6,163.7,167.1,163.4,167.1,163L167.1,163z M177.2,163.5c-0.1,0.1-0.2,0.2-0.2,0.2
		c0,0.1,0.1,0.3,0.1,0.3c0.2,0.1,0.3-0.1,0.3-0.3C177.4,163.6,177.3,163.6,177.2,163.5z"/>
	<path d="M87,222.1c-0.6-0.1-0.7,0.4-1.1,0.6c-0.3,0.2-0.7,0.2-1,0c-0.3-0.2-0.5-0.6-0.3-1c0.8-1.5,1.7-2.9,3.1-3.9
		c0.7-0.5,1.4-0.1,1.3,0.7c0,0.9,0.4,1.1,1.1,1.3c1.3,0.3,2.6,0.5,3.9,0.4c6.9-0.4,13.6,0.9,20.3,2.4c2.2,0.5,4.2,1.4,6.2,2.2
		c1.2,0.5,1.2,1,0.6,2.2c-1.8,3.6-4.8,6.2-7.9,8.4c-5.4,3.7-8.7,3.6-13.8,0.6c-5.5-3.2-9.4-7.8-12.1-13.6
		C87.2,222.3,87.1,222.2,87,222.1L87,222.1z M112.6,224.6c-0.7-0.8-1.4-0.8-2-0.9c-1.1-0.2-2.2-0.2-3.2-0.4c-3.7-0.7-7.3-1.2-11-1.2
		c-3-0.1-3,0.1-1.6,2.6c0.9,1.6,1.4,1.9,3.2,1.6c2.4-0.4,4.8-0.5,7.2-0.7C107.5,225.4,109.9,225,112.6,224.6L112.6,224.6z
		 M113.8,232.3c-4.6-1.1-9-0.7-13.3,0.7c-0.1,0-0.2,0.1-0.3,0.1c-0.8,0.4-0.8,0.8-0.1,1.3c1.2,0.8,2.6,1.1,4,1.4
		c1.8,0.4,3.6,0.4,5.3-0.3C111.1,234.8,112.6,233.9,113.8,232.3L113.8,232.3z"/>
	<path d="M154.1,219.3c-5.1-0.3-10-1.5-14.4-4.2c-2.8-1.7-4.9-4.1-6.6-7c-0.5-0.8-0.7-1.6-0.8-2.6c-0.4-2.3,0.3-3.5,2.3-4.8
		c3.3-2.2,7-2.4,10.7-1.9c2.8,0.4,5.6,0.9,8.1,2.1c3.2,1.5,6.2,3.3,8.7,5.9c0.9,1,1.5,2.1,1.9,3.4c0.6,2.5,0.2,4.6-1.7,6.6
		c-1.8,2-4.1,1.9-6.3,2.3C155.5,219.3,154.8,219.3,154.1,219.3L154.1,219.3z M154.8,217.7c1.4,0.3,2.8-0.2,4.2-0.6
		c3.8-1.1,4.9-4.2,3.5-7.4c-0.6-1.3-1.5-2.4-2.6-3.1c-3.2-2.2-6.4-4.4-10.3-5.3c-2.1-0.5-4.2-0.8-6.4-1c-2.9-0.4-5.6,0.5-8.1,1.9
		c-1,0.5-1.5,1.5-1.4,2.7s0.5,2.4,1.2,3.3c2.2,2.8,4.8,5.2,8,6.8C146.7,216.8,150.7,217.4,154.8,217.7L154.8,217.7z"/>
	<path d="M116.4,201.5c-0.1,2.4-2.7,6.1-4.7,6.9c-0.5,0.2-1.1,0.3-1.6,0c-0.5-0.4-0.9-0.8-0.8-1.5c0.1-0.7,0.6-0.9,1.2-1
		c1.8-0.4,3-1.4,3.8-2.9c0.8-1.4,0.8-2-0.3-3.2c-0.3-0.4-0.7-0.7-1-1c-0.3-0.4-0.4-0.8-0.1-1.1c0.4-0.4,0.8-0.2,1.1,0
		C115.5,198.7,116.3,200,116.4,201.5L116.4,201.5z"/>
	<path d="M106.8,242.7c-0.6-0.1-1.1-0.2-1.2-0.8c-0.1-0.6,0.2-0.9,0.7-1c1.6-0.5,3.2-1.1,4.6-1.9c0.4-0.3,0.9-0.3,1.3,0.1
		c0.4,0.5,0.2,0.9-0.2,1.3C110.5,241.7,108.6,242.2,106.8,242.7z"/>
	<path d="M166.4,256c-0.1-0.4-0.2-0.8-0.3-1.1c-0.1-0.7,0.6-1.5,1.2-1.6c0.6,0,1.1,0.6,1.1,1.4c-0.1,0.9-0.2,1.8-0.6,2.6
		c-1.9,5.5-4.2,10.9-6.8,16.2c-0.3,0.6-0.5,1.2-0.8,1.8c-0.3,0.5-0.7,0.7-1.2,0.4c-0.4-0.2-0.5-0.7-0.4-1.1c0.1-0.3,0.2-0.6,0.3-0.8
		c2.5-5.1,4.6-10.4,6.7-15.6C166,257.5,166.2,256.7,166.4,256L166.4,256z"/>
	<path d="M126.5,301.3c0,0.3,0,0.5,0,0.7c0,0.6-0.2,1.3-0.9,1.3c-0.6,0-0.9-0.6-0.9-1.2c-0.1-1.4-0.2-2.7-0.5-4.1
		c-0.1-0.5,0.1-1.1,0.7-1.3c0.7-0.1,1,0.4,1.1,1C126.2,299,126.4,300.2,126.5,301.3L126.5,301.3z"/>
	<path d="M140.1,292.4c-0.3,1.1-0.6,2.3-1,3.5c-0.1,0.5-0.5,0.7-1,0.6s-0.7-0.5-0.6-0.9c0.2-1.3,0.4-2.6,0.9-3.8
		c0.2-0.4,0.4-1,1-0.8C140.1,291.2,140.2,291.8,140.1,292.4L140.1,292.4z"/>
	<path d="M139.2,303.1c-0.1,0.7-0.1,1.5-0.6,2.2c-0.2,0.3-0.5,0.6-0.9,0.5c-0.5-0.1-0.7-0.5-0.6-0.9c0.1-0.9,0.3-1.8,0.5-2.6
		c0.1-0.5,0.5-0.8,1-0.7c0.5,0.1,0.6,0.5,0.6,0.9C139.2,302.7,139.2,302.8,139.2,303.1L139.2,303.1z"/>
	<path d="M152.4,299.9c0,0.6-0.2,1.1-0.6,1.5c-0.3,0.4-0.8,0.5-1.3,0.2c-0.4-0.2-0.4-0.7-0.2-1.1c0.2-0.4,0.4-0.8,0.6-1.1
		c0.2-0.4,0.5-0.6,0.9-0.5C152.2,299,152.4,299.4,152.4,299.9L152.4,299.9z"/>
	<path d="M134.8,342.3c-0.1,0.9-0.3,2-0.4,3c-0.1,0.4-0.2,0.8-0.4,1.1c-0.2,0.2-0.4,0.4-0.8,0.3c-0.3-0.1-0.5-0.3-0.6-0.6
		c-0.1-0.2-0.1-0.5,0-0.7c0.1-1.5,0.3-3,0.4-4.5c0.1-0.5,0.2-1.2,0.8-1.2c0.8,0,0.9,0.6,1,1.2C134.8,341.4,134.7,341.7,134.8,342.3
		L134.8,342.3z"/>
	<path d="M141.5,340.6c-0.2,1.6-0.5,3.2-1.3,4.6c-0.2,0.4-0.5,0.7-1,0.5c-0.4-0.2-0.7-0.6-0.5-1c0.6-1.6,0.8-3.2,1.3-4.8
		c0.1-0.4,0.5-0.7,1-0.6C141.6,339.5,141.4,340.2,141.5,340.6z"/>
	<path d="M127.5,325.2c-0.1,0.6-0.1,1.2-0.2,1.8c0,0.3-0.2,0.6-0.6,0.6c-0.4,0.1-0.7-0.2-0.8-0.5c-0.1-0.3-0.2-0.7-0.3-1
		c-0.1-1-0.1-1.9-0.2-2.9c0-0.6,0-1.3,0.8-1.4c0.7,0,0.9,0.6,1,1.2C127.4,323.7,127.4,324.4,127.5,325.2z"/>
	<path d="M136,330.1c0,0.3,0,1.1-0.2,1.7c-0.2,0.5-0.5,0.9-1.1,0.7c-0.5-0.1-0.6-0.5-0.6-1c0.1-1.1,0.1-2.1,0.2-3.2
		c0.1-0.5,0.4-0.9,0.9-0.9c0.6,0,0.8,0.5,0.8,1C136,328.9,136,329.3,136,330.1L136,330.1z"/>
	<path d="M144.8,326.6c-0.2,1-0.2,2-0.8,2.8c-0.3,0.5-0.8,0.8-1.4,0.5c-0.6-0.3-0.4-0.8-0.3-1.3c0.2-0.7,0.5-1.5,0.8-2.2
		c0.2-0.5,0.3-1.1,1-1C144.7,325.7,144.7,326.3,144.8,326.6L144.8,326.6z"/>
	<path d="M126.5,338.4c0-0.4-0.2-1,0-1.6c0.1-0.3,0.3-0.5,0.6-0.6c0.4-0.1,0.8,0.1,0.9,0.4c0.4,1.1,0.5,2.2,0.3,3.4
		c-0.1,0.6-0.6,0.7-1.1,0.7c-0.5,0-0.7-0.4-0.7-0.9C126.5,339.4,126.5,339,126.5,338.4L126.5,338.4z"/>
	<path d="M120.7,320.5c0.1,0.7-0.1,1-0.3,1.4c-0.4,0.5-1,0.5-1.2-0.2c-0.2-0.5-0.3-1.1-0.5-1.7c-0.1-0.6,0.1-1,0.8-1.1
		c0.6-0.1,0.9,0.1,1,0.7C120.6,319.9,120.7,320.3,120.7,320.5z"/>
	<path d="M119.7,315.3c-0.1,0.7-0.6,0.9-1.1,1c-0.3,0-0.6-0.3-0.5-0.6c0.1-0.6,0.4-1,1-1C119.6,314.6,119.7,314.9,119.7,315.3z"/>
	<path d="M49.6,320.1c0,0.5-0.2,1.2-0.6,1.8c-0.4,0.5-0.9,0.6-1.4,0.4c-0.5-0.3-0.4-0.7-0.2-1.1c0.7-1.2,0.4-2.3,0-3.5
		c-0.4-1.1-0.7-2.2-1-3.2c-0.1-0.4-0.2-0.7,0-1c0.2-0.3,0.4-0.7,0.8-0.7c0.4,0,0.7,0.3,0.8,0.6C48.7,315.4,49.5,317.5,49.6,320.1
		L49.6,320.1z"/>
	<path d="M47.2,308.8c0,0.4-0.2,0.8-0.5,1c-0.4,0.3-0.8,0.4-1-0.2c-0.2-0.8-0.5-1.6-0.7-2.4c-0.3-1.4-0.8-2.7-1.9-3.8
		c-0.4-0.4-0.9-0.8-0.2-1.3c0.6-0.5,1.1-0.4,1.6,0.1c0.4,0.6,0.9,1.1,1.2,1.8C46.6,305.5,47,307.1,47.2,308.8L47.2,308.8z"/>
	<path d="M52.3,307.1c0.1-0.4,0.2-0.8,0.4-1.1c0.1-0.2,0.2-0.4,0.5-0.5c0.4,0,0.5,0.3,0.6,0.6c0.5,1.5,0.9,3.1,1.3,4.6
		c0.1,0.4,0.2,0.8,0.1,1.2c-0.2,0.5-0.4,1-0.9,1c-0.5,0-0.6-0.5-0.7-0.9C53.2,310.4,52.7,308.7,52.3,307.1L52.3,307.1z"/>
	<path d="M51.2,302.7c-0.4,0-0.5-0.2-0.5-0.5c-0.3-1-0.7-2-1-3c-0.2-0.6,0.1-1,0.5-1.4c0.5-0.4,0.9-0.3,1.1,0.3
		c0.3,0.8,0.5,1.6,0.8,2.4c0.3,0.8-0.1,1.4-0.5,2C51.5,302.6,51.3,302.7,51.2,302.7z"/>
</g>
</svg>
