<?xml version="1.0" encoding="utf-8"?>
<!-- Generator: Adobe Illustrator 27.2.0, SVG Export Plug-In . SVG Version: 6.00 Build 0)  -->
<svg version="1.1" id="Juego" xmlns="http://www.w3.org/2000/svg" xmlns:xlink="http://www.w3.org/1999/xlink" x="0px" y="0px"
	 viewBox="0 0 129.1 131" style="enable-background:new 0 0 129.1 131;" xml:space="preserve">
<style type="text/css">
	.st0{fill:#FFFFFF;}
	.st1{fill:#FF51FF;}
	.st2{fill:#002F70;}
</style>
<g>
	<path class="st0" d="M105.7,121.3c-0.9-6.5-0.9-13.2-1.8-19.7v-0.3l0.3-0.3c3.3-4,6.1-8.5,8.2-13.4c5.4-12.5,6.1-27.1,1.9-39.9l0,0
		l0,0c-2.5-7.5-6.4-14.4-11.9-20.1c-0.4-0.5-1.1-1.1-1.5-1.5s-1-1-1.5-1.4s-1.2-1-1.6-1.4L96.2,22l-0.1-0.3c-1-0.8-2.1-1.5-3.2-2.2
		c-4.4-2.8-9.2-4.9-14.2-6.1c-0.6-0.2-2.3-0.6-3-0.7c-0.6-0.1-1.4-0.2-2-0.3l-0.5-0.1H73h-0.2l-1-0.1c-4.7-0.5-9.2-0.3-13.8,0.5
		c-3.5,0.6-7,1.7-10.3,3c-0.4,0.2-4.2,1.8-4.4,1.9c-0.7,0.3-1.6,0.8-2.3,1.1c-0.8,0.5-1.9,0.9-2.7,1.4c-0.3,0.3-2,1.1-2.2,1.3
		c-0.8,0.5-1.6,1-2.2,1.4c-0.8,0.6-1.7,1.2-2.5,1.8c-0.3,0.3-1,0.8-1.2,1s-1.7,1.5-1.9,1.7c-0.5,0.5-1.1,1-1.5,1.5
		c-0.4,0.4-1,1-1.5,1.5s-1,0.9-1.4,1.5C13.4,43.9,8.4,60.7,10.8,76.6c0.1,0.5,0.3,1.3,0.3,1.7l0.1,0.1l0.2,1
		c0.2,1.3,0.5,2.6,0.9,3.9c0.2,0.6,0.6,2.2,0.9,2.8c0.2,0.5,0.6,1.4,0.7,1.9c0.2,0.5,0.6,1.3,0.8,1.8c0,0.4,0.1,0.7,0.3,1
		c0.3,0.6,1,2.1,1.3,2.7c0.2,0.5,0.6,1.2,0.9,1.7c0.2,0.5,0.8,1.4,1,1.8c0.5,0.7,1,1.6,1.6,2.4c0.3,0.3,1.2,1.7,1.5,2
		c0.1,0.3,0.6,0.9,0.9,1.2c0.6,0.8,1.4,1.6,2,2.3c4.6,5,10.3,9.1,16.6,11.8c0.6,0.2,1.4,0.5,1.9,0.7l1.9,0.7c0.4,0.1,2,0.6,2.4,0.7
		c0.8,0.2,1.7,0.5,2.4,0.6c0.9,0.2,1.9,0.5,2.8,0.6l0.9,0.2c4.2,0.6,8.6,0.7,12.8,0.2c0.5,0,1.4-0.2,1.9-0.3c0.6-0.1,1.5-0.3,2-0.4
		c0.3-0.1,1.1-0.3,1.4-0.3c0.4-0.1,2-0.5,2.4-0.6c1.2-0.3,2.8-0.8,3.9-1.2c1.1-0.3,2.8-0.9,3.9-1.3c1.8-0.7,3.6-1.5,5.5-2.4l0.8-0.4
		l0.7,0.3L105.7,121.3z"/>
	<path class="st1" d="M35,112.6L35,112.6c11,6.6,24.6,8.8,37.3,6c4.8-1.1,9.6-2.9,13.9-5.3l0.3-0.2l0.3,0.1
		c5.7,2.1,12.6,4.6,18.4,6.7l-1.7,1.3l-2.6-20.7l-0.1-0.7l0.5-0.7c1.2-1.6,2.3-3.2,3.3-4.9c0.6-1,1.4-2.6,2-3.6s1.4-2.4,1.9-3.5
		c0.2-0.4,0.8-1.8,1-2.2c0.1-0.4,0.4-1.1,0.5-1.4c0.2-0.5,0.5-1.2,0.7-1.8c0.2-0.5,0.5-1.2,0.6-1.8c1.2-4,2-8.2,2.2-12.4v-1
		c0-0.9,0-2,0-2.9c0-0.7-0.1-1.7-0.1-2.4c0-0.4-0.1-2-0.2-2.4l-0.3-1.9c-0.1-0.5-0.3-1.4-0.4-1.9c-1.3-6.6-4-13-7.6-18.2
		c-0.5-0.7-1.1-1.6-1.7-2.3c-0.2-0.2-0.7-0.8-0.9-1.1c-0.3-0.3-1.3-1.5-1.6-1.8c-0.7-0.7-1.3-1.4-2-2.1c-0.4-0.3-1.1-1-1.4-1.3
		c-0.4-0.4-1-0.9-1.4-1.3s-1.7-1.4-2.2-1.8c-0.2-0.2-0.6-0.4-0.8-0.6c-0.5-0.3-1.1-0.8-1.6-1.1c-0.4-0.2-1.2-0.7-1.6-1
		c-0.5-0.4-1.9-1.2-2.5-1.5c-1.2-0.6-2.3-1.2-3.5-1.7l-0.9-0.4l-0.2-0.1c-0.4-0.1-1.2-0.4-1.6-0.6c-14.3-5.5-30.7-4-43.8,3.9
		c-0.6,0.3-1.1,0.6-1.7,1c-0.4,0.3-1.2,0.8-1.6,1.1c-0.5,0.4-1.2,0.8-1.6,1.2c-0.2,0.2-1.7,1.3-1.9,1.5s-0.9,0.8-1.1,1
		c-0.7,0.6-1.4,1.3-2.1,2c-0.5,0.5-1.2,1.3-1.7,1.8c-0.2,0.3-1.4,1.6-1.6,1.9c-0.6,0.8-1.2,1.6-1.8,2.4c-0.4,0.6-1,1.5-1.4,2.1
		c-0.1,0.2-2.3,3.6-2.5,3.9c-1.8,3-3.4,6.2-4.7,9.4c-1.6,4.2-2.7,8.7-3.1,13.2l-0.1,1v0.2v0.2v0.5c0,0.6-0.1,1.4-0.1,2s0,2.4,0.1,3
		c0.2,5,1.2,10.1,3,14.9c0.4,1.2,0.9,2.4,1.4,3.6l0.1,0.2l0.9,1.8c0.3,0.5,0.7,1.3,1,1.8c0.3,0.6,0.7,1.2,1,1.8
		c0.3,0.5,0.8,1.2,1.1,1.7C22.9,103.4,28.6,108.7,35,112.6L35,112.6z M34.8,113.3L34.8,113.3C14.3,101,4.5,75.9,10.4,53
		c0.2-0.7,0.5-1.7,0.7-2.5c1.1-3.5,2.5-7,4.3-10.2l2-3.6l0.2-0.5c0.3-0.7,0.9-1.6,1.3-2.3c0.6-0.9,1.2-1.9,1.8-2.7
		c0.3-0.3,1.3-1.8,1.6-2.1c0.5-0.7,1.2-1.5,1.7-2.1c0.7-0.8,1.5-1.7,2.2-2.4c0.2-0.2,0.9-0.9,1.1-1.1c0.3-0.3,1.7-1.5,2-1.8
		c0.5-0.4,1.2-1,1.7-1.4s1.2-0.9,1.7-1.3c0.6-0.4,1.2-0.8,1.8-1.2c8.3-5.7,18.3-9,28.4-9.4h0.5h0.3c0.2,0,1.2,0,1.4,0
		c0.7-0.1,1.6-0.1,2.2,0c5.8,0.2,11.6,1.4,17,3.5l0.5,0.2l0.3,0.1c0.2,0,1.1,0.4,1.3,0.5c1.4,0.6,2.7,1.3,4,1.9
		c4.5,2.4,8.7,5.4,12.4,8.9c17.9,17.2,21.9,44.4,9.7,66c-1,1.7-2.3,3.7-3.3,5.3c-0.8,1.2-1.6,2.4-2.4,3.5c-0.8,1.1-1.7,2.2-2.6,3.3
		l0.4-1.4l1.9,20.2l0.1,2.1l-1.8-0.8c-5.6-2.4-11.3-4.6-17-7h0.6c-4.6,2.3-12,4.9-17,5.8C58.7,122.8,45.9,120,34.8,113.3L34.8,113.3
		z"/>
	<g>
		<path class="st2" d="M58.8,50c2.5,0,5,0,7.4,0c3.9,0,7.9,0.1,11.8,0.1c11.6,0.2,21,10.1,20.5,21.7c-0.4,10.3-8.2,18.8-18.4,19.8
			c-3.4,0.3-6.9,0.1-10.4,0c-8.7-0.2-17.3-0.3-26-0.5c-3.5-0.1-5.8-2.7-5.3-6c0.3-2.4,2.5-4.3,4.9-4.3c6.7-0.1,13.4-0.3,20.1-0.4
			c4.8-0.1,9.5-0.2,14.3-0.4c6.2-0.2,10-6.7,7.2-12.2c-1.3-2.6-3.6-4.3-6.6-4.4c-6.3-0.1-12.6,0-19,0.1c-0.2,0-0.3,0-0.6,0.1v7.6
			c0,1.6-1.8,2.6-3.1,1.7c-5.6-3.6-14.5-9.1-18-11.7c-4.5-3.1-5.6-5.1,0-8.9c3.5-2.7,12.5-8.6,18.2-12.4C57.2,39,59,40,59,41.7
			L58.8,50z"/>
	</g>
</g>
</svg>
