<?xml version="1.0" encoding="utf-8"?>
<!-- Generator: Adobe Illustrator 27.2.0, SVG Export Plug-In . SVG Version: 6.00 Build 0)  -->
<svg version="1.1" id="Juego" xmlns="http://www.w3.org/2000/svg" xmlns:xlink="http://www.w3.org/1999/xlink" x="0px" y="0px"
	 viewBox="0 0 860.8 121.4" style="enable-background:new 0 0 860.8 121.4;" xml:space="preserve">
<style type="text/css">
	.st0{opacity:0.79;}
	.st1{fill:#FFDA95;}
	.st2{fill:#ECECEC;}
	.st3{fill:#FF9C92;}
	.st4{fill:#E0E2E1;}
	.st5{fill:#EEF0EF;}
	.st6{fill:#FFFFFF;stroke:#FF66CA;stroke-width:0.5;stroke-miterlimit:10;}
</style>
<g>
	<g class="st0">
		<g>
			<path class="st1" d="M860.8,61.2c0-9.5-16.8-19.5-36-28.5c-4.8,15.2-7.3,36.2,3.5,55.8C845.8,79.8,860.8,70.2,860.8,61.2
				L860.8,61.2z"/>
			<g>
				<path class="st1" d="M762,118.1c-0.3-5,0.6-10,1.9-14.6c2.9-10,8-23,8-23c-42.8-21-1.7-37.8-1.7-37.8c-17.3-9-16-28-10.5-38
					c-0.9-0.3-1.4-0.4-1.4-0.4v0.8H114.2v112.3"/>
				<path class="st2" d="M824.8,32.7c-17.9-7.6-56-24.9-65.1-27.9c-5.5,9.9-6.8,29,10.5,38c0,0-41.3,17.2,1.7,37.8c0,0-5.2,13-8,23
					c-1.3,4.6-2.2,9.6-1.9,14.6c7.8-2.6,18.8-8.7,37.4-15.5c0,0,20.3-10.3,28.9-14.1C817.5,68.9,820.1,47.9,824.8,32.7L824.8,32.7z"
					/>
			</g>
			<path class="st3" d="M23.9,103.2c10.1,6.4,22,9.6,34.1,10l29,0.8c5,0,9.1-4,9.1-9V14.6c0-5-4.1-9-9.1-9L59.5,6.3
				c-12.7,0.4-25.2,3.9-35.6,10.9C11.9,25.3,0,38.8,0,60.6S12,95.6,23.9,103.2L23.9,103.2z"/>
			<path class="st4" d="M92.3,69.6v51.8h21.9V69.1C106.8,70.4,99.5,70.5,92.3,69.6z"/>
			<path class="st5" d="M92.3,0v72.6c7.2,0.4,14.5,0.4,21.9-0.2V0H92.3z"/>
		</g>
	</g>
	<ellipse class="st6" cx="49.4" cy="58.1" rx="34.7" ry="33.8"/>
</g>
</svg>
