<?xml version="1.0" encoding="utf-8"?>
<!-- Generator: Adobe Illustrator 27.2.0, SVG Export Plug-In . SVG Version: 6.00 Build 0)  -->
<svg version="1.1" id="Capa_1" xmlns="http://www.w3.org/2000/svg" xmlns:xlink="http://www.w3.org/1999/xlink" x="0px" y="0px"
	 viewBox="0 0 315 118" style="enable-background:new 0 0 315 118;" xml:space="preserve">
<style type="text/css">
	.st0{fill:url(#SVGID_1_);stroke:#FFFFFF;stroke-width:2;stroke-miterlimit:10;}
	.st1{fill:#FFFFFF;}
	.st2{fill:url(#SVGID_00000159449905446572827730000006386789128839880101_);}
	.st3{fill:url(#SVGID_00000047021604006791970820000011281791151494784896_);}
	.st4{fill:url(#SVGID_00000099648971972279290330000006254011578981753520_);}
	.st5{fill:url(#SVGID_00000052101800267008075920000005074673262659736252_);}
	.st6{fill:url(#SVGID_00000173135947188438736910000004923984089037904513_);}
	.st7{fill:url(#SVGID_00000132786067609824532380000011742086389088176311_);}
	.st8{fill:url(#SVGID_00000074442405209335458510000015317138278118127780_);}
	.st9{fill:url(#SVGID_00000091705941055193285430000016019618552143475116_);}
	.st10{fill:url(#SVGID_00000155836588586643985640000009406319909499403150_);}
	.st11{fill:url(#SVGID_00000127019172867528833480000017291643669408435372_);}
	.st12{fill:url(#SVGID_00000040575328069822829440000015207775405532653222_);}
</style>
<g>
	<g id="Capa_3">
		<g>
			
				<linearGradient id="SVGID_1_" gradientUnits="userSpaceOnUse" x1="2649.3999" y1="-9380.335" x2="3156.0698" y2="-9380.335" gradientTransform="matrix(-1 0 0 1 3086.5801 9454.25)">
				<stop  offset="0" style="stop-color:#7F21EA"/>
				<stop  offset="0.15" style="stop-color:#6D47EE"/>
				<stop  offset="0.35" style="stop-color:#5975F4"/>
				<stop  offset="0.54" style="stop-color:#4999F8"/>
				<stop  offset="0.71" style="stop-color:#3EB2FB"/>
				<stop  offset="0.87" style="stop-color:#37C2FD"/>
				<stop  offset="1" style="stop-color:#35C8FE"/>
			</linearGradient>
			<path class="st0" d="M37.1,32.5l240.7-1.7c9.2,0,17.4,5.9,20.3,14.6l14.6,43.3c4.7,13.9-5.6,28.3-20.3,28.3h-270
				c-14.7,0-25-14.4-20.3-28.3l14.6-43.3C19.8,36.7,27.9,32.5,37.1,32.5z"/>
			<g>
				<path class="st1" d="M198.5,65.4c-0.9-0.5-1.5-1.3-2-2.3c-0.5-1-0.7-2.2-0.7-3.6c0-2.1,0.4-4.2,1.3-6.2c0.9-2,2.1-3.7,3.8-5
					c1.6-1.3,3.6-2,5.7-2c1.3,0,2.4,0.2,3.3,0.8s1.6,1.2,2,2s0.6,1.7,0.5,2.6c0,0.2-0.1,0.3-0.2,0.4c-0.1,0.1-0.3,0.2-0.5,0.2
					c-0.2,0.1-0.5,0.1-0.8,0.1c-0.3,0-0.6,0-0.9,0c-0.2,0-0.3,0-0.4-0.1s-0.1-0.1-0.2-0.2c-0.1-0.1-0.1-0.2-0.1-0.3
					c0-0.5-0.1-1-0.3-1.5c-0.2-0.5-0.6-0.8-1.1-1.1s-1.1-0.4-1.8-0.4c-1.5,0-2.8,0.6-3.9,1.7c-1.1,1.1-2,2.5-2.5,4.2
					c-0.6,1.7-0.9,3.2-0.9,4.8c0,0.8,0.1,1.6,0.4,2.2c0.2,0.6,0.6,1.1,1.1,1.4c0.5,0.3,1.2,0.5,1.9,0.5s1.6-0.3,2.4-0.8
					s1.6-1.3,2.2-2.2s1.1-1.8,1.3-2.7c0-0.2,0.1-0.5,0.1-0.8c0-0.3,0.1-0.5,0.1-0.7l2.6,0.7l-2,8.3c0,0.1-0.1,0.2-0.2,0.3
					c-0.1,0.1-0.2,0.2-0.4,0.2s-0.4,0.1-0.7,0.1c-0.5,0-0.9,0-1.1-0.1c-0.2,0-0.4-0.1-0.4-0.2s-0.1-0.2,0-0.4l1-4.2l1.3-1.1
					c-0.5,1.4-1.1,2.6-1.9,3.5c-0.8,0.9-1.7,1.6-2.6,2s-1.8,0.6-2.7,0.6C200.4,66.2,199.4,66,198.5,65.4L198.5,65.4z M204.5,57.7
					c-0.1,0-0.2-0.1-0.2-0.2c0-0.1,0-0.3,0-0.5c0.1-0.4,0.2-0.7,0.2-1c0.1-0.2,0.2-0.4,0.3-0.5s0.3-0.1,0.5-0.2c0.4,0,0.9,0,1.3,0
					c0.4,0,0.9,0,1.4,0c0.9,0,1.8-0.1,2.7-0.1c0.9,0,1.6-0.1,2-0.1c0.2,0,0.3,0,0.4,0s0.2,0.1,0.2,0.2c0,0.1,0,0.3,0,0.5
					c-0.1,0.5-0.2,0.8-0.3,1.1c-0.1,0.2-0.2,0.4-0.3,0.5c-0.1,0.1-0.2,0.1-0.4,0.1c-0.6,0-1.4,0.1-2.3,0.1c-0.9,0-1.8,0.1-2.6,0.1
					c-0.5,0-1,0-1.4,0c-0.4,0-0.8,0-1.3,0C204.8,57.8,204.6,57.7,204.5,57.7L204.5,57.7z"/>
				<path class="st1" d="M216.7,65.6c-0.7-0.4-1.2-1-1.6-1.7c-0.4-0.7-0.5-1.5-0.5-2.4c0-1.6,0.3-3.1,1-4.5s1.7-2.6,2.9-3.5
					c1.2-0.9,2.7-1.3,4.3-1.3c0.8,0,1.6,0.1,2.1,0.4s1.1,0.7,1.4,1.2c0.3,0.5,0.5,1,0.5,1.7c0,1.3-0.6,2.5-1.6,3.4
					c-1.1,0.9-2.6,1.6-4.5,2.1s-4.2,0.8-6.8,0.8c0,0,0,0-0.1,0c-0.1,0-0.2,0-0.3-0.1c-0.1-0.1-0.1-0.2-0.1-0.4c0-0.2,0-0.4,0-0.8
					c0-0.3,0.1-0.5,0.1-0.6s0.1-0.2,0.2-0.3s0.2-0.1,0.3-0.1c1.8,0,3.4-0.1,4.8-0.4c1.4-0.3,2.7-0.7,3.6-1.3c1-0.6,1.5-1.3,1.5-2.3
					c0-0.2-0.1-0.4-0.1-0.6s-0.3-0.3-0.5-0.4c-0.2-0.1-0.5-0.1-0.8-0.1c-0.9,0-1.8,0.4-2.6,1.1s-1.4,1.6-1.8,2.7
					c-0.4,1.1-0.7,2.1-0.7,3.1c0,0.6,0.1,1,0.2,1.4s0.4,0.7,0.7,0.9s0.7,0.3,1.1,0.3c0.4,0,0.8-0.1,1.1-0.2c0.4-0.2,0.8-0.4,1.1-0.6
					s0.7-0.6,1-1c0.1-0.1,0.2-0.2,0.3-0.2s0.2,0,0.2,0c0.1,0,0.3,0.1,0.5,0.2s0.5,0.3,0.7,0.5s0.4,0.3,0.4,0.5
					c0.1,0.1,0.1,0.3,0.1,0.4s-0.1,0.3-0.3,0.5c-0.5,0.6-1,1-1.5,1.4s-1.1,0.6-1.8,0.8c-0.6,0.2-1.4,0.3-2.1,0.3
					C218.3,66.3,217.4,66.1,216.7,65.6L216.7,65.6z"/>
				<path class="st1" d="M227.4,66c-0.2,0-0.4-0.1-0.4-0.2c-0.1-0.1-0.1-0.3,0-0.5c0.4-1.3,0.8-2.8,1.2-4.7s0.8-3.2,0.9-4
					c0.1-0.7,0.2-1.4,0.3-2.1s0.1-1.2,0.1-1.5v0c0-0.2,0.1-0.3,0.3-0.4s0.4-0.2,0.7-0.2s0.7-0.1,1.1-0.1c0.2,0,0.4,0,0.5,0
					s0.2,0.1,0.3,0.2s0.1,0.2,0.1,0.3c0,0.3,0,0.7,0,1c0,0.4-0.1,0.7-0.1,1.1c0,0,0,0.1,0,0.2c-0.1,0.3-0.1,0.6-0.2,0.8
					c-0.1,0.2-0.1,0.5-0.2,0.8c-0.1,0.2-0.2,0.5-0.2,0.7l-0.3-0.1c0.6-1,1.3-1.9,2.1-2.7s1.6-1.4,2.4-1.8c0.8-0.4,1.6-0.7,2.4-0.7
					c0.7,0,1.3,0.2,1.7,0.6s0.7,0.9,0.8,1.7s0,1.5-0.2,2.5l-0.2,0.9L240,57c0.6-0.9,1.2-1.8,2-2.5s1.5-1.3,2.2-1.8s1.5-0.6,2.3-0.6
					s1.4,0.2,1.9,0.5c0.5,0.4,0.8,0.9,0.9,1.6s0.1,1.6-0.2,2.6l-1.3,4.8c-0.2,1-0.4,1.7-0.5,2.3s-0.1,1.1-0.2,1.5
					c0,0.2-0.1,0.3-0.2,0.4s-0.4,0.2-0.7,0.2s-0.7,0.1-1.2,0.1c-0.2,0-0.4,0-0.5-0.1c-0.1,0-0.2-0.1-0.3-0.2s-0.1-0.2-0.1-0.4
					c0-0.2,0-0.6,0.1-0.9s0.1-0.8,0.2-1.4s0.2-1.1,0.4-1.8l1.1-4.3c0.1-0.5,0.2-0.9,0.2-1.3c0-0.3-0.1-0.6-0.2-0.7
					c-0.1-0.2-0.3-0.2-0.5-0.2c-0.7,0-1.5,0.4-2.3,1.1s-1.6,1.7-2.3,2.8c-0.7,1.1-1.2,2.1-1.4,3c-0.2,0.7-0.3,1.3-0.4,1.9
					c-0.1,0.6-0.2,1.1-0.2,1.5c0,0.1,0,0.1,0,0.1c0,0,0,0.1,0,0.1c0,0.2-0.1,0.3-0.2,0.4c-0.1,0.1-0.4,0.2-0.7,0.2
					c-0.3,0-0.7,0.1-1.1,0.1c-0.2,0-0.4,0-0.5-0.1c-0.1,0-0.2-0.1-0.3-0.2s-0.1-0.2-0.1-0.4c0-0.3,0.1-0.9,0.2-1.7s0.3-1.7,0.6-2.7
					l1.1-4.1c0.1-0.5,0.2-0.9,0.2-1.2c0-0.3-0.1-0.5-0.2-0.7c-0.1-0.1-0.3-0.2-0.5-0.2c-0.7,0-1.5,0.4-2.4,1.2s-1.7,1.8-2.4,3
					s-1.2,2.3-1.5,3.4c-0.1,0.5-0.2,0.9-0.3,1.2c-0.1,0.3-0.1,0.7-0.2,1.2c0,0.2-0.1,0.4-0.1,0.5c0,0.2-0.2,0.4-0.5,0.5
					S229,66,228.5,66C228,66,227.7,66,227.4,66L227.4,66z"/>
				<path class="st1" d="M252.5,65.7c-0.6-0.4-1.1-0.9-1.4-1.7s-0.5-1.6-0.5-2.6c0-1.5,0.3-3,1-4.4c0.6-1.4,1.5-2.6,2.7-3.5
					s2.4-1.3,3.8-1.3c0.9,0,1.6,0.2,2.2,0.6s1,1,1.3,1.7c0.3,0.8,0.4,1.6,0.3,2.6l-1,4.3c-0.4,1-0.9,1.9-1.5,2.6
					c-0.6,0.7-1.2,1.3-2,1.7s-1.6,0.6-2.5,0.6C253.9,66.3,253.1,66.1,252.5,65.7L252.5,65.7z M257.3,63.5c0.5-0.3,0.9-0.6,1.3-1.1
					c0.4-0.5,0.7-1,0.9-1.6l0.9-3.7c0.1-0.5,0.1-1-0.1-1.4c-0.1-0.4-0.4-0.7-0.7-0.9c-0.3-0.2-0.8-0.3-1.2-0.3
					c-0.8,0-1.6,0.4-2.3,1.1s-1.3,1.6-1.7,2.7s-0.7,2.1-0.7,3.1c0,0.5,0.1,1,0.3,1.4s0.4,0.7,0.7,0.9s0.7,0.3,1.1,0.3
					C256.3,63.9,256.8,63.7,257.3,63.5L257.3,63.5z M260.1,66c-0.1-0.1-0.2-0.2-0.2-0.4c-0.1-0.4-0.2-0.9-0.3-1.5
					c-0.1-0.6-0.1-1.2-0.1-1.8s0-1.1,0.1-1.6l0.9-3.7c0.1-0.7,0.4-1.4,0.8-2.3c0.2-0.4,0.3-0.8,0.5-1.1s0.3-0.7,0.5-1
					c0.1-0.1,0.1-0.2,0.2-0.3s0.1-0.1,0.2-0.1s0.2,0,0.3,0c0.3,0,0.6,0.1,1,0.2c0.4,0.1,0.7,0.3,0.9,0.5s0.3,0.4,0.2,0.6
					c-0.2,0.3-0.4,0.7-0.5,1.2c-0.3,0.7-0.6,1.5-0.8,2.2c-0.1,0.3-0.2,0.8-0.4,1.3s-0.3,1.1-0.4,1.7c0,0.2-0.1,0.5-0.1,0.6
					s-0.1,0.3-0.1,0.6c-0.1,0.4-0.1,0.8-0.1,1.2s0,0.8,0.1,1.2s0.1,0.8,0.3,1.2c0.1,0.2,0.1,0.3,0.1,0.4c0,0.1,0,0.2-0.1,0.3
					c-0.1,0.1-0.2,0.2-0.3,0.2c-0.3,0.1-0.6,0.2-1,0.3s-0.7,0.1-0.9,0.1C260.3,66.1,260.1,66.1,260.1,66L260.1,66z"/>
				<path class="st1" d="M120.7,100.8c-0.2,0-0.3-0.1-0.3-0.2s-0.1-0.2,0-0.3c0.3-1,0.7-2.6,1.2-4.6c0.5-2.1,0.8-3.4,1-4.1
					c0.2-0.8,0.3-1.5,0.3-2.2s0-1.2,0-1.6v-0.1c0-0.1,0.1-0.2,0.2-0.3s0.3-0.2,0.5-0.2c0.2-0.1,0.5-0.1,0.8-0.1c0.2,0,0.3,0,0.4,0
					c0.1,0,0.2,0.1,0.2,0.1s0.1,0.1,0.1,0.2c0,0.5,0,1,0,1.4s-0.1,0.9-0.2,1.4c0,0.1,0,0.1-0.1,0.2c-0.1,0.3-0.1,0.5-0.2,0.7
					s-0.1,0.5-0.2,0.7c-0.1,0.2-0.1,0.4-0.2,0.6l-0.2-0.1c0.6-1,1.3-2,2.2-2.8s1.7-1.5,2.5-2c0.9-0.5,1.7-0.7,2.4-0.7
					c0.7,0,1.2,0.2,1.6,0.5s0.7,0.8,0.8,1.5c0.1,0.6,0.1,1.4-0.2,2.2l-0.4,1.4l-0.2-0.5c0.6-1,1.3-1.8,2.1-2.6
					c0.8-0.8,1.6-1.4,2.4-1.9c0.8-0.5,1.6-0.7,2.3-0.7s1.2,0.2,1.7,0.5c0.4,0.3,0.7,0.8,0.8,1.5s0.1,1.4-0.1,2.2l-1.4,5.2
					c-0.2,1-0.4,1.8-0.5,2.3c-0.1,0.6-0.1,1.1-0.1,1.6c0,0.1-0.1,0.2-0.2,0.3c-0.1,0.1-0.3,0.1-0.5,0.2s-0.5,0.1-0.9,0.1
					c-0.1,0-0.3,0-0.4-0.1c-0.1,0-0.2-0.1-0.2-0.1s-0.1-0.2-0.1-0.2c0-0.3,0-0.6,0-1s0.1-0.9,0.2-1.4s0.2-1.1,0.4-1.7l1.3-4.8
					c0.1-0.6,0.2-1,0.2-1.4s-0.1-0.6-0.3-0.8c-0.2-0.2-0.4-0.3-0.7-0.3c-0.8,0-1.6,0.4-2.6,1.3s-1.9,1.9-2.7,3.1
					c-0.8,1.2-1.3,2.3-1.6,3.3c-0.2,0.8-0.4,1.5-0.5,2.1c-0.1,0.6-0.2,1.1-0.2,1.5c0,0,0,0.1,0,0.1c0,0,0,0.1,0,0.1
					c0,0.1-0.1,0.2-0.2,0.3s-0.3,0.1-0.5,0.2c-0.2,0-0.5,0.1-0.8,0.1c-0.2,0-0.3,0-0.4,0c-0.1,0-0.2-0.1-0.2-0.1s-0.1-0.2-0.1-0.3
					c0.1-0.4,0.1-1,0.3-1.8s0.3-1.6,0.6-2.5l1.3-4.8c0.1-0.6,0.2-1,0.2-1.4s-0.1-0.6-0.3-0.8c-0.2-0.2-0.4-0.2-0.7-0.2
					c-0.8,0-1.7,0.4-2.8,1.3s-1.9,2-2.8,3.3c-0.8,1.3-1.4,2.6-1.7,3.7c-0.1,0.5-0.2,0.9-0.3,1.2c-0.1,0.4-0.2,0.8-0.3,1.2
					c0,0.3-0.1,0.5-0.1,0.6c0,0.2-0.2,0.3-0.3,0.4c-0.2,0.1-0.5,0.1-0.8,0.1C121.1,100.8,120.8,100.8,120.7,100.8L120.7,100.8z"/>
				<path class="st1" d="M144.6,100.5c-0.4-0.3-0.7-0.8-0.8-1.5c-0.1-0.6,0-1.4,0.2-2.2l1.4-5.1c0.2-0.8,0.4-1.6,0.4-2.2
					c0.1-0.6,0.1-1.1,0.1-1.6c0-0.1,0-0.1,0-0.2s0-0.1,0-0.2c0-0.1,0.1-0.2,0.2-0.3c0.1-0.1,0.3-0.1,0.5-0.2c0.2,0,0.5-0.1,0.9-0.1
					c0.1,0,0.2,0,0.3,0s0.1,0.1,0.2,0.1c0,0.1,0.1,0.1,0.1,0.2c0,0.4,0,1-0.1,1.7c-0.1,0.7-0.2,1.6-0.5,2.5l-1.3,4.8
					c-0.2,0.8-0.2,1.4-0.1,1.8s0.5,0.6,1,0.6c0.8,0,1.8-0.4,2.8-1.3c1.1-0.9,2-2,2.9-3.3s1.4-2.6,1.7-3.8c0.1-0.6,0.3-1.1,0.3-1.5
					c0.1-0.4,0.1-0.7,0.2-1c0-0.1,0-0.2,0.1-0.2c0-0.1,0-0.1,0-0.2c0-0.1,0.1-0.2,0.2-0.3s0.2-0.1,0.4-0.1c0.2,0,0.4,0,0.8,0
					c0.3,0,0.5,0,0.7,0.1c0.1,0,0.2,0.1,0.3,0.2s0,0.2,0,0.4c-0.2,0.6-0.3,1.1-0.4,1.5c-0.4,1.4-0.8,2.9-1.1,4.3s-0.6,2.4-0.7,2.9
					c-0.1,0.8-0.2,1.4-0.3,1.9s-0.1,1,0,1.4c0,0.1,0,0.2,0,0.3c0,0.1,0,0.2,0,0.2c0,0.1-0.1,0.2-0.2,0.2s-0.2,0.1-0.5,0.2
					s-0.5,0.1-0.9,0.1c-0.2,0-0.3,0-0.4-0.1s-0.2-0.1-0.2-0.2c0-0.1,0-0.3,0-0.5c0-0.2,0-0.4,0-0.6c0-0.4,0-0.8,0-1.1
					c0-0.3,0.1-0.7,0.1-1c0-0.2,0.1-0.5,0.2-0.8s0.2-0.7,0.3-1.1c0.1-0.3,0.1-0.5,0.2-0.7s0.1-0.4,0.2-0.6l1.3-1.5
					c-0.5,1.3-1.2,2.7-2.2,4s-2.1,2.4-3.3,3.2c-1.2,0.8-2.3,1.2-3.4,1.2C145.6,100.9,145.1,100.8,144.6,100.5L144.6,100.5z"/>
				<path class="st1" d="M160.1,100.5c-0.4-0.3-0.7-0.7-0.8-1.2s-0.1-1.2,0.1-1.9c0.1-0.2,0.1-0.5,0.2-0.8c0.1-0.4,0.2-0.8,0.3-1.2
					l1.7-6.9c0.1-0.2,0.1-0.4,0.1-0.6s0.1-0.3,0.1-0.6c0.1-0.5,0.2-1,0.4-1.4s0.2-0.8,0.2-1.1c0.1-0.7,0.2-1.4,0.3-2
					s0.1-1.2,0.1-1.6c0-0.2,0-0.3,0-0.3c0-0.1,0-0.2,0.1-0.2c0-0.1,0.1-0.1,0.2-0.2s0.2-0.1,0.3-0.1c0,0,0,0,0.1,0
					c0.1,0,0.3,0,0.4-0.1s0.4,0,0.6,0c0.2,0,0.3,0,0.4,0.1s0.1,0.2,0.1,0.3c0,0.2,0,0.3,0,0.4c0,0.5-0.1,1.1-0.1,1.8
					c-0.1,0.6-0.1,1.3-0.3,1.9c-0.1,0.3-0.1,0.6-0.2,0.9c-0.1,0.3-0.2,0.7-0.3,1.1c-0.2,0.8-0.3,1.4-0.5,1.9l-1.8,7.1
					c0,0.1-0.1,0.2-0.1,0.4c-0.1,0.3-0.1,0.5-0.2,0.7c0,0.2-0.1,0.4-0.2,0.7c-0.1,0.4-0.1,0.7-0.1,1c0,0.2,0.1,0.4,0.3,0.5
					s0.4,0.2,0.6,0.2s0.5,0,0.8-0.1c0.2-0.1,0.5-0.2,0.7-0.3c0.1,0,0.2-0.1,0.3-0.1c0.1,0,0.1,0,0.2,0c0.1,0,0.2,0.1,0.2,0.2
					s0.1,0.3,0.2,0.4s0.1,0.4,0.1,0.6c0,0.1,0,0.2-0.1,0.2c0,0.1-0.1,0.1-0.1,0.2s-0.1,0.1-0.2,0.1h-0.1c-0.4,0.2-0.8,0.3-1.2,0.4
					c-0.5,0.1-0.9,0.2-1.2,0.2C161.1,100.9,160.5,100.8,160.1,100.5L160.1,100.5z"/>
				<path class="st1" d="M167.6,88.9c-0.1,0-0.1-0.1-0.1-0.2c0-0.1,0-0.2,0-0.4c0.1-0.2,0.1-0.4,0.1-0.6c0.1-0.1,0.1-0.2,0.2-0.3
					c0.1-0.1,0.2-0.1,0.4-0.1c0.5,0,1.1,0,1.8,0s1.4-0.1,2.2-0.1c0.6,0,1.1-0.1,1.6-0.1s1,0,1.3,0c0.1,0,0.2,0,0.3,0.1
					c0.1,0,0.1,0.1,0.1,0.2c0,0.1,0,0.2,0,0.3c-0.1,0.3-0.1,0.5-0.2,0.7s-0.1,0.2-0.2,0.3s-0.2,0.1-0.3,0.1c-0.4,0-0.8,0-1.2,0.1
					s-0.8,0-1.2,0.1c-1.1,0.1-2,0.1-2.8,0.1c-0.8,0-1.4,0.1-1.8,0C167.8,88.9,167.6,88.9,167.6,88.9L167.6,88.9z M168.3,100.5
					c-0.4-0.3-0.6-0.7-0.8-1.2c-0.1-0.5-0.1-1.2,0-1.9c0-0.2,0.1-0.4,0.1-0.6c0-0.2,0.1-0.4,0.2-0.7l0.1-0.4l1.4-5.4
					c0.1-0.6,0.3-1.1,0.4-1.5c0.1-0.5,0.2-0.9,0.3-1.2c0.1-0.6,0.2-1.1,0.2-1.6s0.1-1,0.1-1.4c0-0.3,0.1-0.6,0.1-0.9
					c0-0.1,0.1-0.2,0.1-0.2c0.1-0.1,0.2-0.1,0.5-0.1c0.2,0,0.5-0.1,0.9-0.1c0.2,0,0.3,0,0.4,0.1c0.1,0.1,0.1,0.2,0.1,0.3
					c0,0.2,0,0.5,0,0.8c0,0.4-0.1,0.9-0.1,1.5c-0.1,0.5-0.1,1.1-0.2,1.6c0,0.2-0.1,0.5-0.1,0.7c0,0.2-0.1,0.4-0.1,0.6
					c-0.1,0.6-0.2,1.1-0.4,1.5l-1.4,5.6c0,0.2-0.1,0.3-0.1,0.6c0,0.1,0,0.3-0.1,0.4s-0.1,0.2-0.1,0.4c-0.1,0.4-0.1,0.7-0.1,1
					c0,0.2,0.1,0.4,0.3,0.5c0.1,0.1,0.3,0.2,0.6,0.2c0.3,0,0.5,0,0.8-0.1s0.5-0.1,0.8-0.2c0.2-0.1,0.4-0.1,0.4-0.1
					c0.1,0,0.2,0,0.3,0.1s0.1,0.2,0.1,0.4s0,0.4,0,0.6c0,0.1,0,0.2-0.1,0.3s-0.1,0.1-0.1,0.2s-0.1,0.1-0.2,0.1
					c-0.2,0.1-0.5,0.2-0.8,0.2s-0.6,0.1-0.9,0.2s-0.6,0.1-0.9,0.1C169.2,100.9,168.7,100.8,168.3,100.5L168.3,100.5z"/>
				<path class="st1" d="M175.6,100.8c-0.2,0-0.3-0.1-0.3-0.2s-0.1-0.2,0-0.4l0.4-1.4c0.1-0.5,0.3-1,0.4-1.4c0.3-1,0.5-2,0.7-2.9
					c0.2-0.9,0.4-1.8,0.6-2.5c0.1-0.8,0.3-1.4,0.4-2.1s0.2-1.2,0.3-1.8c0-0.1,0-0.2,0-0.4c0-0.1,0.1-0.2,0.1-0.3s0.2-0.1,0.4-0.2
					c0.2,0,0.4-0.1,0.8-0.1c0.2,0,0.4,0,0.6,0.1s0.2,0.1,0.3,0.2c0.1,0.1,0.1,0.2,0.1,0.3c0,0.2,0,0.4-0.1,0.6
					c-0.1,0.6-0.2,1.2-0.3,1.8s-0.2,1.3-0.4,2c-0.1,0.6-0.3,1.4-0.5,2.3c-0.2,0.9-0.5,1.8-0.7,2.8c-0.1,0.3-0.2,0.6-0.2,0.8
					c-0.1,0.2-0.1,0.5-0.2,0.8l-0.4,1.4c0,0.1-0.1,0.2-0.2,0.3c-0.1,0.1-0.2,0.1-0.3,0.1c-0.1,0-0.4,0-0.6,0
					C176,100.9,175.8,100.9,175.6,100.8L175.6,100.8z M179.6,84.3c-0.2-0.1-0.4-0.3-0.5-0.5c-0.1-0.2-0.2-0.4-0.2-0.6
					c0-0.3,0.1-0.6,0.2-0.8s0.4-0.5,0.7-0.6c0.3-0.2,0.6-0.2,0.8-0.2c0.2,0,0.5,0.1,0.7,0.2c0.2,0.1,0.4,0.3,0.5,0.5
					c0.1,0.2,0.2,0.4,0.2,0.6c0,0.3-0.1,0.6-0.2,0.8s-0.4,0.5-0.7,0.6c-0.3,0.2-0.6,0.2-0.9,0.2C180,84.5,179.8,84.4,179.6,84.3
					L179.6,84.3z"/>
				<path class="st1" d="M180.5,107.8c-0.1-0.1-0.1-0.2-0.1-0.3c0-0.8,0.1-1.6,0.2-2.3c0.1-0.8,0.2-1.5,0.4-2.1
					c0.1-0.7,0.3-1.3,0.4-2l2.1-8.7c0.2-0.9,0.3-1.7,0.4-2.4s0-1.3-0.1-1.8c0-0.1,0-0.1,0-0.1c0,0,0-0.1,0-0.2l0,0
					c0-0.1,0-0.2,0-0.3s0.1-0.1,0.2-0.2c0.1-0.1,0.2-0.1,0.4-0.1c0.2,0,0.4-0.1,0.6-0.1s0.4,0,0.5,0c0.1,0,0.2,0,0.3,0
					s0.1,0.1,0.1,0.2c0,0.1,0.1,0.2,0.1,0.3c0,0.3,0.1,0.6,0.1,0.7c0.1,0.7,0.1,1.3,0,2c0,0.7-0.1,1.4-0.3,2.1l-0.9,3.6l-1.2,4.8
					c-0.1,0.2-0.1,0.4-0.2,0.6c-0.1,0.6-0.3,1.2-0.4,1.7s-0.2,1.2-0.3,1.9c-0.1,0.7-0.2,1.4-0.2,2.2c0,0.1,0,0.2-0.1,0.2
					c0,0.1-0.1,0.1-0.1,0.1c-0.1,0-0.2,0.1-0.3,0.1c-0.2,0-0.3,0.1-0.5,0.1c-0.2,0-0.4,0-0.6,0C180.7,107.9,180.6,107.9,180.5,107.8
					L180.5,107.8z M193.1,87.6c0.6,0.4,1.1,0.9,1.4,1.6s0.5,1.5,0.5,2.4c0,1.5-0.3,3-1,4.4c-0.7,1.4-1.6,2.6-2.7,3.6
					c-1.1,0.9-2.4,1.4-3.9,1.4c-0.9,0-1.6-0.2-2.2-0.6s-1-1-1.3-1.8s-0.3-1.6-0.2-2.6l0.9-3.8c0.4-1,0.9-1.9,1.5-2.7
					c0.6-0.8,1.3-1.4,2.1-1.8s1.6-0.7,2.6-0.7C191.7,87,192.4,87.2,193.1,87.6L193.1,87.6z M188.5,89.3c-0.6,0.3-1.1,0.8-1.6,1.4
					s-0.9,1.2-1.1,1.9l-0.8,3.5c-0.1,0.7-0.1,1.3,0.1,1.8s0.5,0.9,0.9,1.2c0.4,0.3,0.9,0.4,1.5,0.4c0.9,0,1.8-0.4,2.7-1.2
					s1.5-1.7,2-2.9c0.5-1.2,0.8-2.3,0.8-3.5c0-0.6-0.1-1.1-0.3-1.6c-0.2-0.4-0.5-0.8-0.9-1s-0.8-0.4-1.3-0.4
					C189.7,88.8,189.1,88.9,188.5,89.3L188.5,89.3z"/>
				<path class="st1" d="M197.7,100.5c-0.4-0.3-0.7-0.7-0.8-1.2s-0.1-1.2,0.1-1.9c0.1-0.2,0.1-0.5,0.2-0.8c0.1-0.4,0.2-0.8,0.3-1.2
					l1.7-6.9c0.1-0.2,0.1-0.4,0.1-0.6s0.1-0.3,0.1-0.6c0.1-0.5,0.2-1,0.4-1.4s0.2-0.8,0.2-1.1c0.1-0.7,0.2-1.4,0.3-2
					s0.1-1.2,0.1-1.6c0-0.2,0-0.3,0-0.3c0-0.1,0-0.2,0.1-0.2c0-0.1,0.1-0.1,0.2-0.2s0.2-0.1,0.3-0.1c0,0,0,0,0.1,0
					c0.1,0,0.3,0,0.4-0.1s0.4,0,0.6,0c0.2,0,0.3,0,0.4,0.1s0.1,0.2,0.1,0.3c0,0.2,0,0.3,0,0.4c0,0.5-0.1,1.1-0.1,1.8
					c-0.1,0.6-0.1,1.3-0.3,1.9c-0.1,0.3-0.1,0.6-0.2,0.9c-0.1,0.3-0.2,0.7-0.3,1.1c-0.2,0.8-0.3,1.4-0.5,1.9l-1.8,7.1
					c0,0.1-0.1,0.2-0.1,0.4c-0.1,0.3-0.1,0.5-0.2,0.7c0,0.2-0.1,0.4-0.2,0.7c-0.1,0.4-0.1,0.7-0.1,1c0,0.2,0.1,0.4,0.3,0.5
					s0.4,0.2,0.6,0.2s0.5,0,0.8-0.1c0.2-0.1,0.5-0.2,0.7-0.3c0.1,0,0.2-0.1,0.3-0.1c0.1,0,0.1,0,0.2,0c0.1,0,0.2,0.1,0.2,0.2
					s0.1,0.3,0.2,0.4s0.1,0.4,0.1,0.6c0,0.1,0,0.2-0.1,0.2c0,0.1-0.1,0.1-0.1,0.2s-0.1,0.1-0.2,0.1h-0.1c-0.4,0.2-0.8,0.3-1.2,0.4
					c-0.5,0.1-0.9,0.2-1.2,0.2C198.7,100.9,198.1,100.8,197.7,100.5L197.7,100.5z"/>
				<path class="st1" d="M204.7,100.8c-0.2,0-0.3-0.1-0.3-0.2s-0.1-0.2,0-0.4l0.4-1.4c0.1-0.5,0.3-1,0.4-1.4c0.3-1,0.5-2,0.7-2.9
					c0.2-0.9,0.4-1.8,0.6-2.5c0.1-0.8,0.3-1.4,0.4-2.1s0.2-1.2,0.3-1.8c0-0.1,0-0.2,0-0.4c0-0.1,0.1-0.2,0.1-0.3s0.2-0.1,0.4-0.2
					c0.2,0,0.4-0.1,0.8-0.1c0.2,0,0.4,0,0.6,0.1s0.2,0.1,0.3,0.2c0.1,0.1,0.1,0.2,0.1,0.3c0,0.2,0,0.4-0.1,0.6
					c-0.1,0.6-0.2,1.2-0.3,1.8s-0.2,1.3-0.4,2c-0.1,0.6-0.3,1.4-0.5,2.3c-0.2,0.9-0.5,1.8-0.7,2.8c-0.1,0.3-0.2,0.6-0.2,0.8
					c-0.1,0.2-0.1,0.5-0.2,0.8l-0.4,1.4c0,0.1-0.1,0.2-0.2,0.3c-0.1,0.1-0.2,0.1-0.3,0.1c-0.1,0-0.4,0-0.6,0
					C205.1,100.9,204.8,100.9,204.7,100.8L204.7,100.8z M208.6,84.3c-0.2-0.1-0.4-0.3-0.5-0.5c-0.1-0.2-0.2-0.4-0.2-0.6
					c0-0.3,0.1-0.6,0.2-0.8s0.4-0.5,0.7-0.6c0.3-0.2,0.6-0.2,0.8-0.2c0.2,0,0.5,0.1,0.7,0.2c0.2,0.1,0.4,0.3,0.5,0.5
					c0.1,0.2,0.2,0.4,0.2,0.6c0,0.3-0.1,0.6-0.2,0.8s-0.4,0.5-0.7,0.6c-0.3,0.2-0.6,0.2-0.9,0.2C209,84.5,208.8,84.4,208.6,84.3
					L208.6,84.3z"/>
				<path class="st1" d="M212.8,100.4c-0.7-0.4-1.2-1-1.6-1.7c-0.4-0.7-0.5-1.6-0.5-2.5c0-1.4,0.3-2.8,0.9-4.2
					c0.6-1.4,1.5-2.6,2.7-3.5c1.1-0.9,2.5-1.4,3.9-1.4c0.9,0,1.7,0.2,2.4,0.6c0.6,0.4,1.1,0.8,1.4,1.4s0.4,1.3,0.3,2
					c0,0.1-0.1,0.2-0.1,0.3s-0.2,0.1-0.4,0.1c-0.2,0-0.5,0-0.9,0c-0.1,0-0.3,0-0.4,0c-0.1,0-0.1-0.1-0.2-0.1s-0.1-0.1-0.1-0.2
					c0-0.5-0.1-0.9-0.2-1.2c-0.2-0.3-0.4-0.6-0.8-0.8c-0.3-0.2-0.8-0.3-1.2-0.3c-0.9,0-1.8,0.4-2.6,1.2c-0.8,0.8-1.4,1.7-1.9,2.9
					s-0.7,2.3-0.7,3.4c0,0.6,0.1,1.2,0.3,1.6c0.2,0.5,0.5,0.8,0.9,1.1c0.4,0.3,0.9,0.4,1.4,0.4c0.4,0,0.9-0.1,1.3-0.3
					c0.4-0.2,0.8-0.4,1.2-0.8s0.7-0.8,1.1-1.3c0.1-0.1,0.1-0.2,0.2-0.2c0.1,0,0.1-0.1,0.2-0.1c0.1,0,0.2,0,0.4,0.1s0.3,0.2,0.5,0.3
					s0.3,0.2,0.4,0.3c0.1,0.1,0.1,0.1,0.1,0.2c0,0.1,0,0.1,0,0.2c0,0.1-0.1,0.1-0.1,0.2c-0.4,0.6-0.9,1.2-1.5,1.6s-1.2,0.8-1.8,1
					c-0.7,0.2-1.4,0.3-2.1,0.3C214.3,101,213.5,100.8,212.8,100.4L212.8,100.4z"/>
				<path class="st1" d="M225.2,100.5c-0.6-0.4-1.1-0.9-1.4-1.6s-0.5-1.5-0.5-2.4c0-1.5,0.3-3,1-4.4c0.6-1.4,1.6-2.6,2.7-3.6
					s2.4-1.4,3.8-1.4c0.9,0,1.6,0.2,2.2,0.6c0.6,0.4,1,1,1.3,1.8c0.2,0.8,0.3,1.6,0.2,2.6l-0.9,3.8c-0.4,1-0.9,1.9-1.5,2.7
					c-0.6,0.8-1.3,1.4-2.1,1.8c-0.8,0.4-1.6,0.7-2.6,0.7C226.5,101.1,225.8,100.9,225.2,100.5L225.2,100.5z M229.8,98.8
					c0.6-0.3,1.1-0.8,1.6-1.4s0.9-1.2,1.1-1.9l0.8-3.5c0.1-0.7,0.1-1.3-0.1-1.8s-0.5-0.9-0.9-1.2c-0.4-0.3-0.9-0.4-1.5-0.4
					c-0.9,0-1.8,0.4-2.7,1.2c-0.8,0.8-1.5,1.7-2,2.9c-0.5,1.2-0.8,2.4-0.8,3.5c0,0.6,0.1,1.1,0.3,1.6s0.5,0.8,0.9,1s0.8,0.4,1.3,0.4
					C228.6,99.3,229.2,99.2,229.8,98.8L229.8,98.8z M233.1,100.8c-0.1-0.1-0.1-0.2-0.2-0.3c-0.2-0.5-0.3-1-0.4-1.6
					c-0.1-0.6-0.1-1.2-0.1-1.8c0-0.6,0.1-1.1,0.2-1.6l0.9-3.6c0.2-0.8,0.5-1.6,0.8-2.4c0.1-0.4,0.3-0.7,0.5-1.1s0.3-0.7,0.5-1
					c0.1-0.1,0.1-0.2,0.1-0.2c0-0.1,0.1-0.1,0.1-0.1c0.1,0,0.1,0,0.2,0c0.2,0,0.5,0.1,0.7,0.2c0.3,0.1,0.5,0.2,0.6,0.4
					s0.2,0.3,0.1,0.4c-0.2,0.4-0.4,0.8-0.6,1.3c-0.3,0.8-0.7,1.6-0.9,2.6c-0.1,0.3-0.2,0.8-0.3,1.2s-0.2,0.9-0.4,1.4
					c-0.1,0.2-0.1,0.5-0.1,0.7s-0.1,0.4-0.1,0.7c-0.1,0.4-0.1,0.8-0.1,1.3c0,0.4,0,0.9,0.1,1.3c0.1,0.4,0.2,0.9,0.3,1.3
					c0.1,0.2,0.1,0.3,0.1,0.4s0,0.2-0.1,0.2s-0.1,0.1-0.2,0.2c-0.2,0.1-0.4,0.2-0.7,0.2s-0.5,0.1-0.6,0.1
					C233.2,100.9,233.1,100.9,233.1,100.8L233.1,100.8z"/>
				<path class="st1" d="M240,100.5c-0.6-0.4-1.1-0.9-1.4-1.6s-0.5-1.5-0.5-2.4c0-1.5,0.3-3,1-4.4c0.6-1.4,1.6-2.6,2.7-3.6
					s2.4-1.4,3.8-1.4c0.9,0,1.6,0.2,2.2,0.6c0.6,0.4,1,1,1.3,1.8c0.2,0.8,0.3,1.6,0.2,2.6l-0.9,3.8c-0.4,1-0.9,1.9-1.5,2.7
					c-0.6,0.8-1.3,1.4-2.1,1.8c-0.8,0.4-1.6,0.7-2.6,0.7C241.3,101.1,240.6,100.9,240,100.5L240,100.5z M244.6,98.8
					c0.6-0.3,1.1-0.8,1.6-1.4s0.9-1.2,1.1-1.9l0.8-3.5c0.1-0.7,0.1-1.3-0.1-1.8s-0.5-0.9-0.9-1.2c-0.4-0.3-0.9-0.4-1.5-0.4
					c-0.9,0-1.8,0.4-2.7,1.2c-0.8,0.8-1.5,1.7-2,2.9c-0.5,1.2-0.8,2.4-0.8,3.5c0,0.6,0.1,1.1,0.3,1.6s0.5,0.8,0.9,1s0.8,0.4,1.3,0.4
					C243.4,99.3,244,99.2,244.6,98.8L244.6,98.8z M248,100.8c-0.1,0-0.1-0.1-0.2-0.3c-0.2-0.5-0.3-1.1-0.4-1.7s-0.2-1.2-0.2-1.8
					c0-0.6,0-1.1,0.1-1.5l0.9-3.6c0.1-0.4,0.2-0.7,0.3-1c0.1-0.3,0.1-0.6,0.2-1c0.1-0.3,0.1-0.6,0.2-0.8c0.1-0.2,0.1-0.5,0.2-0.8
					c0-0.2,0.1-0.3,0.1-0.4c0.3-1.1,0.5-2,0.7-2.9s0.3-1.6,0.4-2.3s0.1-1.4,0.1-2c0-0.1,0-0.2,0.1-0.3s0.2-0.1,0.3-0.1
					c0.1,0,0.1,0,0.1,0c0.1,0,0.3,0,0.5-0.1c0.2,0,0.3,0,0.5,0c0.1,0,0.3,0,0.4,0.1c0.1,0,0.2,0.1,0.2,0.2s0.1,0.2,0.1,0.3
					c0,0.7-0.1,1.4-0.1,2.1c-0.1,0.7-0.2,1.5-0.4,2.4s-0.4,1.9-0.7,3c0,0.1-0.1,0.3-0.1,0.4l-1.7,7c-0.1,0.5-0.2,0.9-0.2,1.4
					s0,0.9,0.1,1.4s0.2,1.1,0.4,1.6c0,0.1,0.1,0.2,0.1,0.3s0,0.2-0.1,0.2c-0.1,0.1-0.1,0.1-0.3,0.2c-0.2,0.1-0.4,0.1-0.6,0.2
					c-0.2,0.1-0.4,0.1-0.6,0.1C248.2,100.9,248.1,100.9,248,100.8L248,100.8z"/>
				<path class="st1" d="M255,100.4c-0.7-0.5-1.2-1.1-1.6-1.9s-0.5-1.7-0.5-2.6c0-1.3,0.3-2.7,0.9-4c0.6-1.4,1.4-2.5,2.6-3.4
					c1.1-0.9,2.5-1.4,4-1.4c1,0,1.9,0.2,2.6,0.7c0.7,0.5,1.2,1.1,1.6,1.9c0.3,0.8,0.5,1.7,0.5,2.6c0,1.3-0.3,2.7-0.9,4
					s-1.5,2.5-2.6,3.4c-1.1,0.9-2.5,1.4-4,1.4C256.6,101,255.7,100.8,255,100.4L255,100.4z M260.4,98.1c0.8-0.8,1.4-1.7,1.8-2.9
					s0.6-2.2,0.6-3.1c0-0.7-0.1-1.2-0.3-1.8s-0.5-0.9-0.9-1.2s-0.9-0.5-1.5-0.5c-1,0-1.8,0.4-2.6,1.2c-0.8,0.8-1.4,1.7-1.8,2.8
					s-0.6,2.2-0.6,3.1c0,0.7,0.1,1.2,0.3,1.8s0.5,0.9,0.9,1.2s0.9,0.5,1.5,0.5C258.8,99.3,259.7,98.9,260.4,98.1L260.4,98.1z"/>
				<path class="st1" d="M266.6,100.8c-0.2,0-0.3-0.1-0.3-0.2c0-0.1,0-0.2,0-0.3c0.1-0.2,0.1-0.5,0.2-0.7c0.1-0.2,0.1-0.5,0.2-0.8
					c0.5-1.8,0.9-3.3,1.2-4.6s0.5-2.1,0.6-2.6c0.1-0.7,0.2-1.3,0.3-1.9c0-0.6,0.1-1.2,0-1.8c0-0.1,0.1-0.2,0.2-0.3s0.3-0.1,0.5-0.2
					c0.2,0,0.6-0.1,1-0.1c0.2,0,0.3,0,0.4,0.1s0.1,0.1,0.1,0.3c0,0.6,0,1.1,0,1.6c0,0.5-0.1,1.1-0.2,1.6c0,0.2-0.1,0.5-0.1,0.7
					s-0.1,0.5-0.1,0.7c-0.1,0.3-0.2,0.6-0.2,0.9s-0.2,0.6-0.3,0.8l-1.4,1.4c0.6-1.5,1.4-2.9,2.3-4.2c0.9-1.2,2-2.2,3.1-3
					c1.1-0.7,2.3-1.1,3.6-1.1c0.1,0,0.2,0,0.3,0.1s0.1,0.2,0,0.4c-0.1,0.4-0.2,0.7-0.2,0.9c-0.1,0.2-0.2,0.4-0.3,0.5
					c-0.1,0.1-0.2,0.1-0.4,0.1c-1.1,0-2.1,0.3-3.1,1s-1.9,1.6-2.7,2.8s-1.4,2.5-1.7,4c-0.2,0.8-0.3,1.4-0.4,1.8
					c-0.1,0.4-0.2,0.8-0.2,1.1c0,0.1,0,0.1,0,0.2c0,0,0,0.1,0,0.2c0,0.1-0.1,0.2-0.1,0.3s-0.2,0.1-0.4,0.2c-0.2,0-0.4,0.1-0.7,0.1
					C267,100.8,266.8,100.8,266.6,100.8L266.6,100.8z"/>
				<path class="st1" d="M277.8,100.6c-0.5-0.3-0.9-0.8-1.1-1.5s-0.3-1.5-0.2-2.5c0.2-1.5,0.6-3,1.4-4.5s1.8-2.7,3-3.6
					c1.2-0.9,2.4-1.4,3.7-1.4c0.7,0,1.3,0.2,1.9,0.4s1.1,0.7,1.5,1.2c0.4,0.5,0.7,1.1,0.9,1.8l-1.1,0.9c0-0.1-0.1-0.2-0.1-0.3
					c-0.2-0.6-0.4-1-0.8-1.3c-0.3-0.3-0.7-0.6-1-0.8c-0.4-0.2-0.8-0.2-1.1-0.2c-0.8,0-1.7,0.4-2.6,1.2c-0.9,0.8-1.7,1.8-2.3,3
					c-0.7,1.2-1.1,2.4-1.2,3.5c-0.1,0.6-0.1,1.1,0,1.5c0.1,0.4,0.3,0.7,0.5,0.9s0.6,0.3,0.9,0.3c0.9,0,1.8-0.4,2.9-1.3
					c1-0.9,2-2,2.8-3.3c0.9-1.3,1.4-2.6,1.7-3.7c0.1-0.5,0.2-0.9,0.3-1.3s0.2-0.7,0.2-1c0-0.1,0-0.2,0-0.2c0-0.1,0-0.1,0-0.2
					c0-0.1,0-0.1,0.1-0.2c0-0.1,0.1-0.2,0.1-0.2c0.1-0.1,0.2-0.1,0.3-0.2c0.1,0,0.3-0.1,0.5-0.1c0.4,0,0.6,0,0.8,0.1
					s0.3,0.1,0.4,0.2c0.1,0.1,0.1,0.2,0,0.4c-0.1,0.5-0.3,1-0.5,1.5s-0.3,1.2-0.5,1.9c-0.3,1.1-0.5,2.1-0.8,3.1s-0.4,1.7-0.5,2.1
					c-0.1,0.6-0.2,1.1-0.2,1.5s-0.1,0.8-0.1,1.1c0,0.3,0,0.6,0,0.9c0,0.1,0,0.2,0,0.2s0,0.1,0,0.2c0,0.1-0.1,0.2-0.2,0.2
					s-0.3,0.1-0.5,0.2c-0.2,0-0.5,0.1-0.8,0.1c-0.1,0-0.2,0-0.3,0c-0.1,0-0.1-0.1-0.2-0.1s-0.1-0.1-0.1-0.2c0-0.2,0-0.4,0-0.8
					c0-0.3,0-0.7,0.1-1.1c0-0.5,0.1-1,0.2-1.4c0-0.2,0.1-0.4,0.1-0.5s0.1-0.4,0.1-0.6c0.1-0.3,0.1-0.6,0.2-1s0.2-0.7,0.3-1.1
					l0.9,0.1c-0.6,1.2-1.4,2.4-2.3,3.4c-0.9,1.1-1.9,1.9-2.9,2.5s-2,0.9-2.9,0.9C278.9,101.1,278.3,100.9,277.8,100.6L277.8,100.6z"
					/>
			</g>
			<g>
				<g>
					
						<linearGradient id="SVGID_00000033334496626455145730000011391486404938832301_" gradientUnits="userSpaceOnUse" x1="171.3298" y1="-175.7627" x2="173.7498" y2="-140.7827" gradientTransform="matrix(0.9986 -5.285883e-02 -5.285883e-02 -0.9986 -82.5459 -83.9516)">
						<stop  offset="0" style="stop-color:#FFB800"/>
						<stop  offset="1" style="stop-color:#FFF036"/>
					</linearGradient>
					<polygon style="fill:url(#SVGID_00000033334496626455145730000011391486404938832301_);" points="93.6,99.6 104,75.2 
						101.7,22.9 92.6,31.1 					"/>
					
						<linearGradient id="SVGID_00000062888853074853747060000006397765235926674620_" gradientUnits="userSpaceOnUse" x1="144.4766" y1="-102.772" x2="143.6167" y2="-133.732" gradientTransform="matrix(0.9986 -5.285883e-02 -5.285883e-02 -0.9986 -82.5459 -83.9516)">
						<stop  offset="0" style="stop-color:#F2DA71"/>
						<stop  offset="1" style="stop-color:#FFF036"/>
					</linearGradient>
					<polygon style="fill:url(#SVGID_00000062888853074853747060000006397765235926674620_);" points="45,21 34.3,28.4 45.2,31.8 
						91,29.5 100.7,20.7 80.7,11.1 					"/>
					
						<linearGradient id="SVGID_00000071531170717088098220000014093454583421716922_" gradientUnits="userSpaceOnUse" x1="108.838" y1="-190.4434" x2="170.248" y2="-136.8434" gradientTransform="matrix(0.9986 -5.285883e-02 -5.285883e-02 -0.9986 -82.5459 -83.9516)">
						<stop  offset="0.25" style="stop-color:#FAC140"/>
						<stop  offset="1" style="stop-color:#FFF036"/>
					</linearGradient>
					<path style="fill:url(#SVGID_00000071531170717088098220000014093454583421716922_);" d="M46.1,34l-8.9,68.7l54.2,1.2l-1-72
						L46.1,34L46.1,34z M70.5,69.1L69.7,84l-0.2,4.7l-0.2,3c-0.1,1.4-1.3,2.4-2.7,2.4l-18.6-1c-1.4-0.1-2.5-1.3-2.4-2.6l1.5-27.2
						c0.1-1.4,1.3-2.5,2.7-2.4l3,0.2l6.3,0.3l5.8,0.3c0.8,0,1.5,0.5,1.9,1.1l3.2,4.8C70.4,68,70.6,68.5,70.5,69.1L70.5,69.1z
						 M77.8,81.2l-0.2,3.6c0,0.6-0.6,1.1-1.2,1.1l-3.3-0.2c-0.6,0-1.1-0.6-1.1-1.2l0.2-3.6l0.8-15.4c0-0.2-0.1-0.5-0.2-0.7L69,59.1
						c-0.2-0.3-0.5-0.5-0.9-0.5l-6.5-0.3L56.5,58c-0.6,0-1.1-0.6-1-1.2l0.1-4.1c0-0.6,0.6-1.1,1.2-1l5.2,0.3l12,0.6
						c0.3,0,0.7,0.2,0.9,0.5l3.9,6.6c0.1,0.2,0.2,0.4,0.2,0.7C78.9,60.4,77.8,81.3,77.8,81.2z M85.1,78.1c0,0.7-0.7,1.3-1.4,1.2
						l-2.1-0.3c-0.7,0-1.3-0.7-1.2-1.4l1-19.5c0-0.3-0.1-0.6-0.2-0.8L77.3,51c-0.2-0.3-0.6-0.5-1-0.6l-10.6-0.6
						c-0.7,0-1.3-0.7-1.2-1.4l0.1-2.1c0-0.7,0.7-1.3,1.4-1.2l15.4,1c0.4,0,0.8,0.2,1,0.6l3.9,7.2c0.2,0.2,0.2,0.5,0.2,0.8L85.1,78.1
						L85.1,78.1z"/>
					
						<linearGradient id="SVGID_00000121991616697354512120000017728626497182144428_" gradientUnits="userSpaceOnUse" x1="102.0239" y1="-181.9435" x2="112.2939" y2="-139.1035" gradientTransform="matrix(0.9986 -5.285883e-02 -5.285883e-02 -0.9986 -82.5459 -83.9516)">
						<stop  offset="0" style="stop-color:#FFB800"/>
						<stop  offset="1" style="stop-color:#FFF036"/>
					</linearGradient>
					<polygon style="fill:url(#SVGID_00000121991616697354512120000017728626497182144428_);" points="32.6,30.2 24.4,87.7 
						35.1,101 43.8,33.7 					"/>
					<path d="M44.1,18.9l-13.4,9.2L22,88.3l13.4,16.5l57.9,1.3l13-30.5l-2.4-56L80.9,8.7L44.1,18.9L44.1,18.9z M35.1,101L24.4,87.7
						l8.3-57.4l11.2,3.5L35.1,101L35.1,101z M91.4,103.8l-54.2-1.2L46.1,34l44.3-2.2L91.4,103.8L91.4,103.8z M104,75.2L93.6,99.6
						l-0.9-68.5l9.1-8.3C101.7,22.8,104,75.2,104,75.2z M91,29.5l-45.8,2.2l-11-3.4L45,21l35.7-9.9l20,9.5L91,29.5z"/>
					<path d="M82.3,46.7c-0.2-0.3-0.6-0.5-1-0.6l-15.4-1c-0.7,0-1.3,0.5-1.4,1.2l-0.1,2.1c0,0.7,0.5,1.3,1.2,1.4l10.6,0.6
						c0.4,0,0.8,0.2,1,0.6l3.8,6.4c0.2,0.2,0.2,0.5,0.2,0.8l-1,19.5c0,0.7,0.5,1.3,1.2,1.4l2.1,0.3c0.7,0,1.3-0.5,1.4-1.2l1.3-23.4
						c0-0.3-0.1-0.6-0.2-0.8L82.3,46.7L82.3,46.7z"/>
					<path d="M74.8,53.1c-0.2-0.3-0.5-0.5-0.9-0.5l-12-0.6l-5.2-0.3c-0.6,0-1.1,0.4-1.2,1l-0.1,4.1c0,0.6,0.4,1.1,1,1.2l5.2,0.3
						l6.5,0.3c0.3,0,0.7,0.2,0.9,0.5l3.9,5.8c0.1,0.2,0.2,0.4,0.2,0.7l-0.8,15.4l-0.2,3.6c0,0.6,0.4,1.1,1.1,1.2l3.3,0.2
						c0.6,0,1.1-0.4,1.2-1.1l0.2-3.6l1.1-20.9c0-0.2-0.1-0.5-0.2-0.7L74.8,53.1L74.8,53.1z"/>
					<path d="M66.9,62.7c-0.4-0.7-1.2-1.1-1.9-1.1l-5.8-0.3L52.9,61l-3-0.2c-1.4-0.1-2.6,1-2.7,2.4l-1.5,27.2
						c-0.1,1.4,1,2.6,2.4,2.6l18.6,1c1.4,0.1,2.6-1,2.7-2.4l0.2-3l0.2-4.7l0.8-14.9c0-0.5-0.1-1.1-0.4-1.5L66.9,62.7L66.9,62.7z"/>
				</g>
				<g>
					
						<linearGradient id="SVGID_00000049904517903583581450000005520294933413676943_" gradientUnits="userSpaceOnUse" x1="171.3298" y1="-175.7627" x2="173.7498" y2="-140.7827" gradientTransform="matrix(0.9986 -5.285883e-02 -5.285883e-02 -0.9986 -82.5459 -83.9516)">
						<stop  offset="0" style="stop-color:#FFB800"/>
						<stop  offset="1" style="stop-color:#FFF036"/>
					</linearGradient>
					<polygon style="fill:url(#SVGID_00000049904517903583581450000005520294933413676943_);" points="93.6,99.6 104,75.2 
						101.7,22.9 92.6,31.1 					"/>
					
						<linearGradient id="SVGID_00000078766102488095830820000012458833340233124756_" gradientUnits="userSpaceOnUse" x1="144.4766" y1="-102.772" x2="143.6167" y2="-133.732" gradientTransform="matrix(0.9986 -5.285883e-02 -5.285883e-02 -0.9986 -82.5459 -83.9516)">
						<stop  offset="0" style="stop-color:#F2DA71"/>
						<stop  offset="1" style="stop-color:#FFF036"/>
					</linearGradient>
					<polygon style="fill:url(#SVGID_00000078766102488095830820000012458833340233124756_);" points="45,21 34.3,28.4 45.2,31.8 
						91,29.5 100.7,20.7 80.7,11.1 					"/>
					
						<linearGradient id="SVGID_00000088114454891210833520000005222290594416118933_" gradientUnits="userSpaceOnUse" x1="114.4388" y1="-185.5543" x2="175.8388" y2="-131.9643" gradientTransform="matrix(0.9986 -5.285883e-02 -5.285883e-02 -0.9986 -82.5459 -83.9516)">
						<stop  offset="0.25" style="stop-color:#FAC140"/>
						<stop  offset="1" style="stop-color:#FFF036"/>
					</linearGradient>
					<path style="fill:url(#SVGID_00000088114454891210833520000005222290594416118933_);" d="M46.1,34l-8.9,68.7l54.2,1.2l-1-72
						L46.1,34L46.1,34z M70.5,69.1L69.7,84l-0.2,4.7l-0.2,3c-0.1,1.4-1.3,2.4-2.7,2.4l-18.6-1c-1.4-0.1-2.5-1.3-2.4-2.6l1.5-27.2
						c0.1-1.4,1.3-2.5,2.7-2.4l3,0.2l6.3,0.3l5.8,0.3c0.8,0,1.5,0.5,1.9,1.1l3.2,4.8C70.4,68,70.6,68.5,70.5,69.1L70.5,69.1z
						 M77.8,81.2l-0.2,3.6c0,0.6-0.6,1.1-1.2,1.1l-3.3-0.2c-0.6,0-1.1-0.6-1.1-1.2l0.2-3.6l0.8-15.4c0-0.2-0.1-0.5-0.2-0.7L69,59.1
						c-0.2-0.3-0.5-0.5-0.9-0.5l-6.5-0.3L56.5,58c-0.6,0-1.1-0.6-1-1.2l0.1-4.1c0-0.6,0.6-1.1,1.2-1l5.2,0.3l12,0.6
						c0.3,0,0.7,0.2,0.9,0.5l3.9,6.6c0.1,0.2,0.2,0.4,0.2,0.7C78.9,60.4,77.8,81.3,77.8,81.2z M85.1,78.1c0,0.7-0.7,1.3-1.4,1.2
						l-2.1-0.3c-0.7,0-1.3-0.7-1.2-1.4l1-19.5c0-0.3-0.1-0.6-0.2-0.8L77.3,51c-0.2-0.3-0.6-0.5-1-0.6l-10.6-0.6
						c-0.7,0-1.3-0.7-1.2-1.4l0.1-2.1c0-0.7,0.7-1.3,1.4-1.2l15.4,1c0.4,0,0.8,0.2,1,0.6l3.9,7.2c0.2,0.2,0.2,0.5,0.2,0.8L85.1,78.1
						L85.1,78.1z"/>
					
						<linearGradient id="SVGID_00000127039674370015379820000014515816712189842343_" gradientUnits="userSpaceOnUse" x1="102.0239" y1="-181.9435" x2="112.2939" y2="-139.1035" gradientTransform="matrix(0.9986 -5.285883e-02 -5.285883e-02 -0.9986 -82.5459 -83.9516)">
						<stop  offset="0" style="stop-color:#FFB800"/>
						<stop  offset="1" style="stop-color:#FFF036"/>
					</linearGradient>
					<polygon style="fill:url(#SVGID_00000127039674370015379820000014515816712189842343_);" points="32.6,30.2 24.4,87.7 
						35.1,101 43.8,33.7 					"/>
					<path d="M44.1,18.9l-13.4,9.2L22,88.3l13.4,16.5l57.9,1.3l13-30.5l-2.4-56L80.9,8.7L44.1,18.9L44.1,18.9z M35.1,101L24.4,87.7
						l8.3-57.4l11.2,3.5L35.1,101L35.1,101z M91.4,103.8l-54.2-1.2L46.1,34l44.3-2.2L91.4,103.8L91.4,103.8z M104,75.2L93.6,99.6
						l-0.9-68.5l9.1-8.3C101.7,22.8,104,75.2,104,75.2z M91,29.5l-45.8,2.2l-11-3.4L45,21l35.7-9.9l20,9.5L91,29.5z"/>
					<path class="st1" d="M82.3,46.7c-0.2-0.3-0.6-0.5-1-0.6l-15.4-1c-0.7,0-1.3,0.5-1.4,1.2l-0.1,2.1c0,0.7,0.5,1.3,1.2,1.4
						l10.6,0.6c0.4,0,0.8,0.2,1,0.6l3.8,6.4c0.2,0.2,0.2,0.5,0.2,0.8l-1,19.5c0,0.7,0.5,1.3,1.2,1.4l2.1,0.3c0.7,0,1.3-0.5,1.4-1.2
						l1.3-23.4c0-0.3-0.1-0.6-0.2-0.8L82.3,46.7L82.3,46.7z"/>
					<path class="st1" d="M74.8,53.1c-0.2-0.3-0.5-0.5-0.9-0.5l-12-0.6l-5.2-0.3c-0.6,0-1.1,0.4-1.2,1l-0.1,4.1c0,0.6,0.4,1.1,1,1.2
						l5.2,0.3l6.5,0.3c0.3,0,0.7,0.2,0.9,0.5l3.9,5.8c0.1,0.2,0.2,0.4,0.2,0.7l-0.8,15.4l-0.2,3.6c0,0.6,0.4,1.1,1.1,1.2l3.3,0.2
						c0.6,0,1.1-0.4,1.2-1.1l0.2-3.6l1.1-20.9c0-0.2-0.1-0.5-0.2-0.7L74.8,53.1L74.8,53.1z"/>
					<path class="st1" d="M66.9,62.7c-0.4-0.7-1.2-1.1-1.9-1.1l-5.8-0.3L52.9,61l-3-0.2c-1.4-0.1-2.6,1-2.7,2.4l-1.5,27.2
						c-0.1,1.4,1,2.6,2.4,2.6l18.6,1c1.4,0.1,2.6-1,2.7-2.4l0.2-3l0.2-4.7l0.8-14.9c0-0.5-0.1-1.1-0.4-1.5L66.9,62.7L66.9,62.7z"/>
				</g>
			</g>
			<g>
				<g>
					
						<linearGradient id="SVGID_00000176016139290461678160000012312625081937707136_" gradientUnits="userSpaceOnUse" x1="-210.109" y1="2224.6667" x2="-213.139" y2="2239.5767" gradientTransform="matrix(0.6421 0.7666 0.7666 -0.6421 -1435.8337 1632.4987)">
						<stop  offset="0" style="stop-color:#FFE166"/>
						<stop  offset="1" style="stop-color:#FFB932"/>
					</linearGradient>
					<polygon style="fill:url(#SVGID_00000176016139290461678160000012312625081937707136_);" points="124.3,50.1 142.9,13.8 
						162.2,27.3 					"/>
					<path d="M124.3,50.1c5.8-12,11.2-25.1,17.3-37l0.8-1.5l1.4,1c6.9,4.7,14.3,9.9,21.1,14.8C151.7,35.3,137.4,42.7,124.3,50.1
						L124.3,50.1L124.3,50.1z M124.3,50.1c9.6-6,18.9-12.4,28.1-18.4c3-1.9,6-3.8,9.1-5.7l-0.1,2.4c-6.3-4.3-13.2-9-19.4-13.5
						l2.1-0.5c-1.5,2.9-3.1,5.8-4.6,8.7C134.8,31.8,129,41.3,124.3,50.1L124.3,50.1L124.3,50.1z"/>
				</g>
				<g>
					
						<linearGradient id="SVGID_00000070806444104314540230000001792332840714328998_" gradientUnits="userSpaceOnUse" x1="-188.0892" y1="2222.1936" x2="-175.0592" y2="2257.0637" gradientTransform="matrix(0.6421 0.7666 0.7666 -0.6421 -1435.8337 1632.4987)">
						<stop  offset="0" style="stop-color:#FFE166"/>
						<stop  offset="1" style="stop-color:#FFB932"/>
					</linearGradient>
					<polygon style="fill:url(#SVGID_00000070806444104314540230000001792332840714328998_);" points="122.7,57.8 168.8,38.2 
						173.6,67.4 					"/>
					<path d="M122.7,57.8c15.5-7,31.5-15,47.1-21.6c0.1,0.1,2.6,15.6,2.8,16.4c0.2,1.2,2.6,16,2.7,16.7
						C158,66.1,140,61.4,122.7,57.8L122.7,57.8L122.7,57.8z M122.7,57.8c12.4,2.2,26.3,4,38.7,6.1c4.1,0.7,8.3,1.4,12.4,2.1
						l-1.7,1.7c-1.2-7.3-3.6-21.9-4.8-29.2l2,1.1c-3.7,1.6-7.5,3.1-11.3,4.6C146.8,48.6,134,53.2,122.7,57.8L122.7,57.8L122.7,57.8z
						"/>
				</g>
				<g>
					
						<linearGradient id="SVGID_00000088100593837469751530000008486677452523681930_" gradientUnits="userSpaceOnUse" x1="-228.8691" y1="2218.9126" x2="-241.1191" y2="2233.1826" gradientTransform="matrix(0.6421 0.7666 0.7666 -0.6421 -1435.8337 1632.4987)">
						<stop  offset="0" style="stop-color:#FFE166"/>
						<stop  offset="1" style="stop-color:#FFB932"/>
					</linearGradient>
					<polygon style="fill:url(#SVGID_00000088100593837469751530000008486677452523681930_);" points="120.3,38.3 113.3,12.5 
						129.7,12.5 					"/>
					<path d="M120.3,38.3c-2.9-8.9-6.5-18.1-9-27.2c6.4-0.1,14.1-0.1,20.5-0.1C128.6,20.2,124.1,29.4,120.3,38.3L120.3,38.3
						L120.3,38.3z M120.3,38.3c2.2-6.5,4-13.7,6-20.1c0.7-2.1,1.3-4.1,2-6.2l1.4,2c-4.8,0.1-11.6,0.1-16.5,0l1.4-1.8
						C116.9,20.8,118.2,29.5,120.3,38.3C120.3,38.3,120.3,38.3,120.3,38.3z"/>
				</g>
			</g>
		</g>
	</g>
</g>
</svg>
