<?xml version="1.0" encoding="utf-8"?>
<!-- Generator: Adobe Illustrator 27.2.0, SVG Export Plug-In . SVG Version: 6.00 Build 0)  -->
<svg version="1.1" id="Capa_1" xmlns="http://www.w3.org/2000/svg" xmlns:xlink="http://www.w3.org/1999/xlink" x="0px" y="0px"
	 viewBox="0 0 315 118" style="enable-background:new 0 0 315 118;" xml:space="preserve">
<style type="text/css">
	.st0{fill:url(#SVGID_1_);}
	.st1{fill:url(#SVGID_00000104706309524995132580000017821743306118281650_);}
	.st2{fill:url(#SVGID_00000054978518450229974730000011685589763012171161_);}
	.st3{fill:url(#SVGID_00000159443590329504359110000005341278813038117055_);}
	.st4{fill:#FFFFFF;}
	.svg-shadow{
        animation: svg-shadow 1.5s ease-in-out infinite alternate;
      }

      @keyframes svg-shadow {
        from {
          filter: drop-shadow( 0 0 5px #fff) drop-shadow( 0 0 5px #e6cf00) drop-shadow( 0 0 5px #e6cf00);
        }

        to {
          
          filter: drop-shadow( 0 0 8px #fff) drop-shadow( 0 0 8px #e6cf00) drop-shadow( 0 0 8px #e6cf00);
        }
      }
</style>

<g class="svg-shadow"> 
	
		<linearGradient id="SVGID_1_" gradientUnits="userSpaceOnUse" x1="74.9888" y1="48.9264" x2="77.4099" y2="13.9448" gradientTransform="matrix(0.9986 -5.289551e-02 5.289551e-02 0.9986 168.7485 39.0785)">
		<stop  offset="0" style="stop-color:#FFB500"/>
		<stop  offset="1" style="stop-color:#FFED36"/>
	</linearGradient>
	<polygon class="st0" points="242,101.1 252.4,76.7 250.1,24.3 241,32.6 	"/>
	
		<linearGradient id="SVGID_00000083071233823649264960000005557487205809968539_" gradientUnits="userSpaceOnUse" x1="48.1415" y1="-24.0572" x2="47.2775" y2="6.9028" gradientTransform="matrix(0.9986 -5.289551e-02 5.289551e-02 0.9986 168.7485 39.0785)">
		<stop  offset="0" style="stop-color:#EFD771"/>
		<stop  offset="1" style="stop-color:#FFED36"/>
	</linearGradient>
	<polygon style="fill:url(#SVGID_00000083071233823649264960000005557487205809968539_);" points="193.4,22.5 182.7,29.9 
		193.6,33.2 239.4,31 249.1,22.2 229.1,12.6 	"/>
	
		<linearGradient id="SVGID_00000111155907886005164920000000549154619391175598_" gradientUnits="userSpaceOnUse" x1="18.1083" y1="58.7241" x2="79.5093" y2="5.1265" gradientTransform="matrix(0.9986 -5.289551e-02 5.289551e-02 0.9986 168.7485 39.0785)">
		<stop  offset="0.2519" style="stop-color:#F7BE40"/>
		<stop  offset="1" style="stop-color:#FFED36"/>
	</linearGradient>
	<path style="fill:url(#SVGID_00000111155907886005164920000000549154619391175598_);" d="M194.5,35.5l-8.9,68.7l54.2,1.2l-1-72
		L194.5,35.5z M218.9,70.6l-0.8,14.9l-0.3,4.7l-0.2,3c-0.1,1.4-1.3,2.5-2.6,2.4l-18.6-1c-1.4-0.1-2.5-1.3-2.4-2.6l1.5-27.2
		c0.1-1.4,1.3-2.5,2.6-2.4l3,0.2l6.3,0.3l5.8,0.3c0.8,0,1.5,0.5,2,1.1l3.2,4.8C218.8,69.5,219,70,218.9,70.6z M226.2,82.7l-0.2,3.6
		c0,0.6-0.6,1.1-1.2,1.1l-3.3-0.2c-0.6,0-1.1-0.6-1.1-1.2l0.2-3.6l0.8-15.4c0-0.2-0.1-0.5-0.2-0.7l-3.9-5.8
		c-0.2-0.3-0.5-0.5-0.9-0.5l-6.5-0.3l-5.2-0.3c-0.6,0-1.1-0.6-1.1-1.2l0.1-4.1c0-0.6,0.6-1.1,1.2-1.1l5.2,0.3l12,0.6
		c0.3,0,0.7,0.2,0.9,0.5l3.9,6.6c0.1,0.2,0.2,0.4,0.2,0.7L226.2,82.7z M233.5,79.6c0,0.7-0.7,1.3-1.4,1.2l-2.1-0.3
		c-0.7,0-1.3-0.7-1.2-1.4l1-19.5c0-0.3-0.1-0.6-0.2-0.8l-3.8-6.4c-0.2-0.3-0.6-0.6-1-0.6l-10.6-0.6c-0.7,0-1.3-0.7-1.2-1.4l0.1-2.1
		c0-0.7,0.7-1.3,1.4-1.2l15.4,1c0.4,0,0.8,0.2,1,0.6l3.9,7.2c0.2,0.2,0.2,0.5,0.2,0.8L233.5,79.6z"/>
	
		<linearGradient id="SVGID_00000101793350750219769210000008054919769809571485_" gradientUnits="userSpaceOnUse" x1="5.6908" y1="55.1145" x2="15.9535" y2="12.2687" gradientTransform="matrix(0.9986 -5.289551e-02 5.289551e-02 0.9986 168.7485 39.0785)">
		<stop  offset="0" style="stop-color:#FFB500"/>
		<stop  offset="1" style="stop-color:#FFED36"/>
	</linearGradient>
	<polygon style="fill:url(#SVGID_00000101793350750219769210000008054919769809571485_);" points="181,31.7 172.8,89.1 183.5,102.5 
		192.2,35.2 	"/>
	<path d="M192.5,20.4L179,29.6l-8.7,60.2l13.4,16.5l57.9,1.3l13-30.5l-2.5-56l-22.9-10.9L192.5,20.4z M183.5,102.5l-10.8-13.3
		l8.3-57.4l11.2,3.5L183.5,102.5z M239.7,105.3l-54.2-1.2l8.9-68.7l44.3-2.2L239.7,105.3z M252.4,76.7L242,101.1l-1-68.5l9.1-8.3
		L252.4,76.7z M239.4,31l-45.8,2.2l-10.9-3.4l10.8-7.4l35.7-9.9l20,9.5L239.4,31z"/>
	<path class="st4" d="M230.7,48.2c-0.2-0.3-0.6-0.6-1-0.6l-15.4-1c-0.7,0-1.3,0.5-1.4,1.2l-0.1,2.1c0,0.7,0.5,1.3,1.2,1.4l10.6,0.6
		c0.4,0,0.8,0.2,1,0.6l3.8,6.4c0.2,0.2,0.2,0.5,0.2,0.8l-1,19.5c0,0.7,0.5,1.3,1.2,1.4l2.1,0.3c0.7,0,1.3-0.5,1.4-1.2l1.3-23.4
		c0-0.3-0.1-0.6-0.2-0.8L230.7,48.2z"/>
	<path class="st4" d="M223.2,54.6c-0.2-0.3-0.5-0.5-0.9-0.5l-12-0.6l-5.2-0.3c-0.6,0-1.1,0.4-1.2,1.1l-0.1,4.1
		c0,0.6,0.4,1.1,1.1,1.2l5.2,0.3l6.5,0.3c0.3,0,0.7,0.2,0.9,0.5l3.9,5.8c0.1,0.2,0.2,0.4,0.2,0.7l-0.8,15.4l-0.2,3.6
		c0,0.6,0.4,1.1,1.1,1.2l3.3,0.2c0.6,0,1.1-0.4,1.2-1.1l0.2-3.6l1.1-20.9c0-0.2-0.1-0.5-0.2-0.7L223.2,54.6z"/>
	<path class="st4" d="M215.3,64.2c-0.4-0.7-1.2-1.1-2-1.1l-5.8-0.3l-6.3-0.3l-3-0.2c-1.4-0.1-2.6,1-2.6,2.4l-1.5,27.2
		c-0.1,1.4,1,2.6,2.4,2.6l18.6,1c1.4,0.1,2.6-1,2.6-2.4l0.2-3l0.3-4.7l0.8-14.9c0-0.5-0.1-1.1-0.4-1.5L215.3,64.2z"/>
</g>
</svg>
