<?xml version="1.0" encoding="utf-8"?>
<!-- Generator: Adobe Illustrator 27.2.0, SVG Export Plug-In . SVG Version: 6.00 Build 0)  -->
<svg version="1.1" id="Capa_1" xmlns="http://www.w3.org/2000/svg" xmlns:xlink="http://www.w3.org/1999/xlink" x="0px" y="0px"
	 viewBox="0 0 315 118" style="enable-background:new 0 0 315 118;" xml:space="preserve">
<style type="text/css">
	.st0{fill:url(#SVGID_1_);stroke:#FFFFFF;stroke-width:2;stroke-miterlimit:10;}
	.st1{enable-background:new    ;}
	.st2 {fill:#FFFFFF;}
	.st3{fill:url(#SVGID_00000172401671676483912090000006440503075443312303_);}
	.st4{fill:url(#SVGID_00000039102464438998946440000016613141544834341003_);}
	.elemento-svg{
		cursor: pointer;
	}
	.classContainerPathbtn:hover>.cambiarColor, .classContainerPathbtn:focus>.cambiarColor{
				fill: url(#SVGID_2);
			}

    .classContainerPathbtn:active>.cambiarColor, .classContainerPathbtn:focus>.cambiarColor{
		fill: url(#SVGID_2);
	}
</style>

<g class="elemento-svg">
	<g id="Juego">
		<g>
			<g class="classContainerPathbtn">
				
				<linearGradient id="SVGID_1_" gradientUnits="userSpaceOnUse" x1="12227.3799" y1="9855.0498" x2="12734.0498" y2="9855.0498" gradientTransform="matrix(-1 0 0 -1 12664.5596 9928.9502)">
					<stop  offset="0" style="stop-color:#6F00D6"/>
					<stop  offset="1" style="stop-color:#C204AF"/>
				</linearGradient>
				
				<path class="st0 cambiarColor" d="M37.1,32.5l240.7-1.7c9.2,0,17.4,5.9,20.3,14.6l14.6,43.3c4.7,13.9-5.6,28.3-20.3,28.3h-270
					c-14.7,0-25-14.4-20.3-28.3l14.6-43.3C19.8,36.7,27.9,32.5,37.1,32.5z"/>
				<g class="st1">
					<path class="st2" d="M157.3,90.9h-5.4l1-12.3c0.3-4.7,0.8-8.7,1.3-12.1L146,87.7h-5.3L138,66.6c-0.2,3.3-0.8,7.5-1.8,12.3
						l-2.3,11.9h-5.4l6.4-29.1h6.8l2.4,20.6l7.6-20.6h7.4L157.3,90.9z"/>
					<path class="st2" d="M170.9,68.6l-3.1,22.3h-5.3l3.1-22.3H170.9z M166.9,63c-0.6-0.5-0.8-1.2-0.8-2.1c0-1,0.4-1.9,1.1-2.6
						c0.7-0.7,1.6-1,2.6-1c0.9,0,1.6,0.3,2.2,0.8s0.8,1.3,0.8,2.1c0,1-0.4,1.9-1.1,2.5s-1.6,1-2.6,1C168.2,63.8,167.4,63.5,166.9,63
						z"/>
					<path class="st2" d="M191.6,70.8l-2.4,3c-1.7-1.2-3.5-1.8-5.4-1.8c-1.2,0-2,0.2-2.7,0.6c-0.6,0.4-0.9,1-0.9,1.7
						c0,0.7,0.3,1.2,0.9,1.6c0.6,0.4,1.8,0.9,3.5,1.4c2.1,0.6,3.6,1.5,4.6,2.5s1.5,2.4,1.5,4.2c0,1.5-0.4,2.8-1.2,3.9
						c-0.8,1.1-1.9,2-3.4,2.6c-1.5,0.6-3.2,0.9-5.1,0.9c-1.9,0-3.5-0.3-5-1c-1.5-0.6-2.7-1.5-3.7-2.5l2.8-2.9
						c1.8,1.5,3.8,2.3,6.1,2.3c1.4,0,2.5-0.3,3.1-0.9c0.7-0.6,1-1.2,1-2c0-0.6-0.1-1.1-0.4-1.5c-0.3-0.4-0.7-0.7-1.3-1
						c-0.6-0.3-1.6-0.7-2.8-1.1c-2.1-0.6-3.5-1.5-4.4-2.5c-0.9-1-1.4-2.3-1.4-3.9c0-1.2,0.3-2.3,1-3.3c0.7-1,1.7-1.9,3.1-2.5
						c1.3-0.6,3-0.9,4.9-0.9C186.8,67.9,189.4,68.9,191.6,70.8z"/>
					<path class="st2" d="M202.3,68.6l-3.1,22.3h-5.3l3.1-22.3H202.3z M198.3,63c-0.6-0.5-0.8-1.2-0.8-2.1c0-1,0.4-1.9,1.1-2.6
						c0.7-0.7,1.6-1,2.6-1c0.9,0,1.6,0.3,2.2,0.8s0.8,1.3,0.8,2.1c0,1-0.4,1.9-1.1,2.5s-1.6,1-2.6,1C199.6,63.8,198.9,63.5,198.3,63
						z"/>
					<path class="st2" d="M207.9,89c-1.6-1.7-2.3-4-2.3-6.9c0-2.2,0.4-4.4,1.2-6.5c0.8-2.2,2.1-4,3.9-5.4c1.8-1.5,4.1-2.2,6.9-2.2
						c2.9,0,5.1,0.8,6.6,2.5c1.6,1.7,2.3,4,2.3,6.8c0,2.2-0.4,4.4-1.2,6.5c-0.8,2.2-2.1,4-3.9,5.5c-1.8,1.5-4.1,2.2-7,2.2
						C211.7,91.5,209.5,90.7,207.9,89z M218.6,85.7c0.9-1.2,1.6-2.6,1.9-4.2s0.5-3.2,0.5-4.8c0-3.1-1.2-4.7-3.8-4.7
						c-1.5,0-2.8,0.6-3.7,1.7c-0.9,1.1-1.6,2.5-2,4.1c-0.4,1.6-0.6,3.2-0.6,4.7c0,3.3,1.3,4.9,3.8,4.9
						C216.4,87.4,217.7,86.8,218.6,85.7z M222.5,56.3l1.7,4.2l-9.8,3.8l-1.2-2.7L222.5,56.3z"/>
					<path class="st2" d="M248.8,69.4c0.9,1,1.4,2.3,1.4,4c0,0.5,0,1-0.1,1.5l-2.2,15.9h-5.3l2.1-15.1c0.1-0.5,0.1-0.9,0.1-1.1
						c0-0.8-0.2-1.4-0.5-1.8c-0.3-0.4-0.8-0.5-1.4-0.5c-1.9,0-3.9,1.9-5.9,5.7l-1.8,12.8h-5.3l3.1-22.3h4.6l-0.2,4.1
						c2.2-3.2,4.7-4.8,7.7-4.8C246.7,67.9,247.9,68.4,248.8,69.4z"/>
					<path class="st2" d="M279.7,62.5l-4,28.4h-5.3l3.2-22.5l-6.8,3.8l-1.8-4l9.9-5.6H279.7z"/>
				</g>
			</g>
			<g>
				<polygon class="st2" points="108.1,10.6 85.9,0 50.1,9.9 37.1,18.8 28.7,77.2 41.7,93.3 97.8,94.5 110.5,64.9 				"/>
				<g class="classContainerPath">
					
						<radialGradient id="SVGID_00000039102464438998946440000016613141544834341003_" cx="-132.5743" cy="1720.4421" r="41.78" gradientTransform="matrix(0.9872 0.1594 -0.1594 0.9872 465.4262 -1595.3491)" gradientUnits="userSpaceOnUse">
						<stop  offset="0" style="stop-color:#FFFFFF"/>
						<stop  offset="5.000000e-02" style="stop-color:#FAC6FC"/>
						<stop  offset="9.000000e-02" style="stop-color:#F692F9"/>
						<stop  offset="0.14" style="stop-color:#F265F7"/>
						<stop  offset="0.18" style="stop-color:#EF40F6"/>
						<stop  offset="0.23" style="stop-color:#ED24F4"/>
						<stop  offset="0.27" style="stop-color:#EB10F3"/>
						<stop  offset="0.32" style="stop-color:#EA04F3"/>
						<stop  offset="0.36" style="stop-color:#EA00F3"/>
						<stop  offset="0.64" style="stop-color:#E700F0"/>
						<stop  offset="0.85" style="stop-color:#B400EC"/>
						<stop  offset="1" style="stop-color:#9100EA"/>
					</radialGradient>
					<radialGradient id="SVGID_2" cx="-132.5743" cy="1720.4421" r="41.78" gradientTransform="matrix(0.9872 0.1594 -0.1594 0.9872 465.4262 -1595.3491)" gradientUnits="userSpaceOnUse">
						<stop offset="0" style="stop-color:#a03ab4"/>
						<stop offset="1" style="stop-color:#5d00a8"/>
					</radialGradient>
					<path class="st4" d="M63.5,63.8c-0.5-0.2-0.8-0.3-1-0.5
						s-0.2-0.5-0.2-0.9c0.2-2,0.5-3.8,1-5.2s1-2.6,1.7-3.6s1.6-1.9,2.7-2.8c0.9-0.7,1.9-1.4,2.8-2c1-0.6,2.2-1.3,3.7-2
						c1.9-1,3.4-1.9,4.5-2.7s2-1.6,2.8-2.7c0.8-1.1,1.2-2.3,1.3-3.8c0.1-1.7-0.2-3.2-1-4.6c-0.8-1.4-2-2.5-3.6-3.3s-3.4-1.3-5.6-1.5
						c-1.7-0.1-3.4,0-5.1,0.4s-3.1,1-4.5,1.9s-2.3,2-3.1,3.3c-0.1,0.3-0.3,0.5-0.5,0.7c-0.2,0.1-0.5,0.2-0.7,0.2
						c-0.7,0-1.3-0.2-2.1-0.6c-0.8-0.3-1.4-0.7-1.9-1.1S54,32.2,54,31.9c0-0.3,0.1-0.6,0.2-1s0.4-0.7,0.6-1.2
						c0.1-0.1,0.1-0.2,0.1-0.2s0.1-0.1,0.1-0.2c0.8-1.3,2.1-2.6,3.8-3.8s3.7-2.1,6.1-2.7c2.4-0.6,5.1-0.9,7.9-0.6
						c3.2,0.3,6.1,1.1,8.7,2.5s4.6,3.2,6,5.5s2,4.9,1.8,7.7c0.3,2.5-0.3,4.5-1.3,6.1s-2.3,2.9-3.7,3.9c-1.4,1-3.3,2.1-5.6,3.3
						c-1.3,0.7-2.3,1.2-3.2,1.8c-0.9,0.5-1.7,1.1-2.4,1.7l-0.3,0.2c-0.9,0.6-1.7,1.3-2.2,2c-0.6,0.7-1,1.6-1.3,2.5
						c-0.3,1-0.6,2.1-0.7,3.4c0,0.4-0.2,0.7-0.3,0.9c-0.2,0.2-0.4,0.4-0.8,0.4s-0.9,0.1-1.5,0C64.8,64,64,63.9,63.5,63.8L63.5,63.8z
						 M61.5,79c-0.7-0.5-1.3-1.2-1.7-2s-0.6-1.6-0.5-2.4c0.1-0.7,0.4-1.5,0.9-2.2c0.6-0.7,1.2-1.3,2.1-1.7s1.6-0.6,2.5-0.5
						c0.9,0.1,1.7,0.4,2.4,0.9c0.8,0.5,1.3,1.2,1.8,1.9c0.4,0.8,0.6,1.6,0.5,2.3c-0.1,0.8-0.4,1.6-0.9,2.3c-0.6,0.7-1.2,1.3-2.1,1.7
						c-0.8,0.4-1.7,0.6-2.5,0.5S62.2,79.6,61.5,79z"/>
				</g>
			</g>
		</g>
	</g>
</g>
</svg>
