<?xml version="1.0" encoding="utf-8"?>
<!-- Generator: Adobe Illustrator 27.2.0, SVG Export Plug-In . SVG Version: 6.00 Build 0)  -->
<svg version="1.1" id="Capa_3" xmlns="http://www.w3.org/2000/svg" xmlns:xlink="http://www.w3.org/1999/xlink" x="0px" y="0px"
	 viewBox="0 0 315 117.3" style="enable-background:new 0 0 315 117.3;" xml:space="preserve">
<style type="text/css">
	.st0{fill:url(#SVGID_1_);}
	.st1{fill:url(#SVGID_00000083063457187575368030000011072972366905339318_);}
	.st2{fill:url(#SVGID_00000165949119870246016850000008069843510753350049_);}
	.st3{fill:url(#SVGID_00000170956797093959202230000007612382421808397476_);}
	.st4{fill:url(#SVGID_00000093899494269836998370000007566168993216550822_);}
	.st5{fill:url(#SVGID_00000099649608874915168250000000176159410723976111_);}
	.st6{fill:url(#SVGID_00000170988463863832750150000000401996461878520507_);}
	.st7{fill:#FFFFFF;}
	.svg-shadow{
        animation: svg-shadow 1.5s ease-in-out infinite alternate;
      }

      @keyframes svg-shadow {
        from {
          filter: drop-shadow( 0 0 5px #fff) drop-shadow( 0 0 5px #00BDFF) drop-shadow( 0 0 5px #00BDFF);
        }

        to {
          
          filter: drop-shadow( 0 0 8px #fff) drop-shadow( 0 0 8px #00BDFF) drop-shadow( 0 0 8px #00BDFF);
        }
      }
</style>
<g class="svg-shadow">
	
		<linearGradient id="SVGID_1_" gradientUnits="userSpaceOnUse" x1="2639.5308" y1="1529.9606" x2="2674.958" y2="1529.9606" gradientTransform="matrix(0.9245 0.3811 -0.3811 0.9245 -1680.9824 -2389.6165)">
		<stop  offset="0" style="stop-color:#00E6B5"/>
		<stop  offset="1" style="stop-color:#00BDFF"/>
	</linearGradient>
	<polygon class="st0" points="205.3,53.3 181.9,17.8 178.5,25.4 192,52.7 	"/>
	
		<linearGradient id="SVGID_00000139972132570959507410000008016115974679334589_" gradientUnits="userSpaceOnUse" x1="2663.4326" y1="1565.2987" x2="2676.375" y2="1565.2987" gradientTransform="matrix(0.9245 0.3811 -0.3811 0.9245 -1680.9824 -2389.6165)">
		<stop  offset="0" style="stop-color:#00ABF9"/>
		<stop  offset="1" style="stop-color:#2585E6"/>
	</linearGradient>
	<polygon style="fill:url(#SVGID_00000139972132570959507410000008016115974679334589_);" points="180.4,84.5 187.1,99.1 
		205.8,55.7 192.1,55.2 	"/>
	
		<linearGradient id="SVGID_00000012466245425254689320000006776368402726897565_" gradientUnits="userSpaceOnUse" x1="2626.4028" y1="1596.6338" x2="2674.6157" y2="1596.6338" gradientTransform="matrix(0.9245 0.3811 -0.3811 0.9245 -1680.9824 -2389.6165)">
		<stop  offset="0" style="stop-color:#00E6B5"/>
		<stop  offset="1" style="stop-color:#00BDFF"/>
	</linearGradient>
	<polygon style="fill:url(#SVGID_00000012466245425254689320000006776368402726897565_);" points="144.1,84.7 132.3,103 
		185.3,100.9 178.4,85.7 	"/>
	
		<linearGradient id="SVGID_00000098914550657673716690000013805553131727912879_" gradientUnits="userSpaceOnUse" x1="2590.1433" y1="1590.6006" x2="2628.0527" y2="1590.6006" gradientTransform="matrix(0.9245 0.3811 -0.3811 0.9245 -1680.9824 -2389.6165)">
		<stop  offset="0" style="stop-color:#00ABF9"/>
		<stop  offset="1" style="stop-color:#2585E6"/>
	</linearGradient>
	<polygon style="fill:url(#SVGID_00000098914550657673716690000013805553131727912879_);" points="128.3,52.6 113.1,54.3 
		130.4,101.6 142.2,83.4 	"/>
	
		<linearGradient id="SVGID_00000179608972139564171780000015221922246131583395_" gradientUnits="userSpaceOnUse" x1="2605.5771" y1="1524.3452" x2="2637.426" y2="1524.3452" gradientTransform="matrix(0.9245 0.3811 -0.3811 0.9245 -1680.9824 -2389.6165)">
		<stop  offset="0" style="stop-color:#00ABF9"/>
		<stop  offset="1" style="stop-color:#2585E6"/>
	</linearGradient>
	<polygon style="fill:url(#SVGID_00000179608972139564171780000015221922246131583395_);" points="176.4,24.3 179.9,16.4 
		146.1,14.9 151.1,24.2 	"/>
	
		<linearGradient id="SVGID_00000095314431475863752440000009829886600675788436_" gradientUnits="userSpaceOnUse" x1="-798.9179" y1="-991.0378" x2="-741.1194" y2="-991.0378" gradientTransform="matrix(0.9783 -0.207 0.207 0.9783 1119.2991 866.004)">
		<stop  offset="0" style="stop-color:#00ABF9"/>
		<stop  offset="1" style="stop-color:#2585E6"/>
	</linearGradient>
	<path style="fill:url(#SVGID_00000095314431475863752440000009829886600675788436_);" d="M130.4,51.5l13.9,30.8l34.1,1.1L190,54
		l-13.6-27.3l-25.5,0L130.4,51.5z"/>
	
		<linearGradient id="SVGID_00000008133518748354477990000017718723740816769199_" gradientUnits="userSpaceOnUse" x1="2590.2139" y1="1550.6021" x2="2612.1929" y2="1550.6021" gradientTransform="matrix(0.9245 0.3811 -0.3811 0.9245 -1680.9824 -2389.6165)">
		<stop  offset="0" style="stop-color:#00E6B5"/>
		<stop  offset="1" style="stop-color:#00BDFF"/>
	</linearGradient>
	<polygon style="fill:url(#SVGID_00000008133518748354477990000017718723740816769199_);" points="148.9,25.3 143.8,15.7 
		114.3,51.8 128.4,50.2 	"/>
	<path d="M143.5,12.3l-33.4,40.7l19.1,52.4l58.7-2.3l21-48.8l-26.6-40.3L143.5,12.3z M190,54l-11.6,29.3l-34.1-1.1l-13.9-30.8
		l20.5-24.8l25.5,0L190,54z M179.9,16.4l-3.5,7.8l-25.3,0l-5-9.4L179.9,16.4z M143.8,15.7l5.1,9.6l-20.5,24.8l-14.1,1.6L143.8,15.7z
		 M130.4,101.6l-17.2-47.3l15.1-1.7l13.9,30.8L130.4,101.6z M132.3,103l11.8-18.3l34.3,1.1l6.9,15.2L132.3,103z M187.1,99.1
		l-6.7-14.6l11.6-29.3l13.8,0.6L187.1,99.1z M181.9,17.8l23.4,35.5L192,52.7l-13.6-27.3L181.9,17.8z"/>
	<g>
		<g>
			
				<ellipse transform="matrix(0.4295 -0.9031 0.9031 0.4295 42.665 176.8759)" class="st7" cx="161.3" cy="54.7" rx="4.5" ry="4.4"/>
		</g>
		<g>
			<path class="st7" d="M154.5,62.9c-1.9-1.8-3-4.2-3.3-6.7c-0.5-4.8,2.2-9.2,6.6-11.1c1.4-0.6,3-0.9,4.5-0.9c0.6,0,1.1-0.2,1.4-0.7
				c0.3-0.4,0.5-1,0.4-1.5l0-0.1c-0.2-0.8-0.9-1.4-1.8-1.4c-5.8,0.1-11.2,3.4-13.5,8.4c-2.7,5.8-1.4,12.4,3.1,16.9
				c0.2,0.2,0.4,0.3,0.6,0.4c0.6,0.3,1.4,0.2,1.9-0.3c0.4-0.3,0.7-0.8,0.7-1.3C155.1,63.8,154.9,63.2,154.5,62.9z"/>
			<path class="st7" d="M147.6,66.7c-4-4.4-5.4-10.8-3.7-17c1.9-7.1,8.4-12.5,15.8-13c0.5,0,1-0.3,1.4-0.7c0.3-0.4,0.5-1,0.4-1.6
				l0-0.2c-0.2-1-1-1.7-2-1.6c-9.1,0.8-17,7.4-19.5,16.4c-2.1,7.4-0.3,15.1,4.6,20.6c0.2,0.2,0.4,0.4,0.7,0.5c0.6,0.3,1.4,0.2,2-0.4
				c0.4-0.4,0.7-0.9,0.7-1.4C148.1,67.7,147.9,67.1,147.6,66.7z"/>
			<path class="st7" d="M173.9,60.9c2.7-5.8,1.4-12.4-3.1-16.9c-0.7-0.6-1.7-0.7-2.5-0.1c-0.4,0.3-0.7,0.8-0.7,1.3
				c0,0.6,0.2,1.1,0.6,1.5c1.9,1.8,3,4.2,3.3,6.7c0.5,4.8-2.2,9.2-6.6,11.1c-1.4,0.6-3,0.9-4.5,0.9c-0.6,0-1.1,0.2-1.4,0.7
				c-0.3,0.4-0.5,1-0.4,1.6l0,0.1c0.1,0.6,0.6,1.1,1.1,1.3c0.2,0.1,0.5,0.1,0.7,0.1C166.1,69.3,171.6,65.9,173.9,60.9z"/>
			<path class="st7" d="M182.6,60.7c2.1-7.4,0.3-15.1-4.6-20.6c-0.7-0.7-1.8-0.8-2.7-0.1c-0.4,0.4-0.7,0.9-0.7,1.4
				c0,0.5,0.1,1.1,0.5,1.5c4,4.4,5.4,10.8,3.7,17c-1.9,7.1-8.4,12.5-15.8,13c-0.5,0-1,0.3-1.4,0.7c-0.3,0.4-0.5,1-0.4,1.6l0,0.2
				c0.1,0.7,0.5,1.2,1.1,1.4c0.3,0.1,0.5,0.2,0.8,0.1C172.2,76.3,180.1,69.7,182.6,60.7z"/>
		</g>
	</g>
</g>
</svg>
