<?xml version="1.0" encoding="utf-8"?>
<!-- Generator: Adobe Illustrator 27.2.0, SVG Export Plug-In . SVG Version: 6.00 Build 0)  -->
<svg version="1.1" id="Capa_1" xmlns="http://www.w3.org/2000/svg" xmlns:xlink="http://www.w3.org/1999/xlink" x="0px" y="0px"
	 viewBox="0 0 315 117.3" style="enable-background:new 0 0 315 117.3;" xml:space="preserve">
<style type="text/css">
	.st0{fill:url(#SVGID_1_);stroke:#FFFFFF;stroke-width:2;stroke-miterlimit:10;}
	.st1{enable-background:new    ;}
	.st2{fill:#FFFFFF;}
	.st3{fill:url(#SVGID_00000115513800018360958480000015249967333945645446_);}
	.st5{
		fill:url(#SVGID_00000073711327344883800680000000664227520396545942_);
	}
	.classContainerPathbtn:hover>.st0, .classContainerPathbtn:focus>.st0{
				fill: url(#SVGID_2);
			}

    .classContainerPathbtn:active>.st0, .classContainerPathbtn:focus>.st0{
		fill: url(#SVGID_2);
	}
	.elemento-svg{
		cursor: pointer;
	}
</style>
<g class="elemento-svg">
	<g id="Juego">
		<g>
			<g class="classContainerPathbtn">
				
					<linearGradient id="SVGID_1_" gradientUnits="userSpaceOnUse" x1="10918.2803" y1="9854.3301" x2="11386.7002" y2="9854.3301" gradientTransform="matrix(-1 0 0 -1 11281.1904 9927.4297)">
					<stop  offset="0" style="stop-color:#6F00D6"/>
					<stop  offset="1" style="stop-color:#C204AF"/>
				</linearGradient>
				<path class="st0" d="M37.1,31.7L277.9,30c9.2,0,17.4,5.9,20.3,14.6l14.6,43.3c4.7,13.9-5.6,28.3-20.3,28.3h-270
					c-14.7,0-25-14.4-20.3-28.3l14.6-43.3C19.8,35.9,27.9,31.7,37.1,31.7z"/>
				<g class="st1">
					<path class="st2" d="M160,90.1h-5.4l1-12.3c0.3-4.7,0.8-8.7,1.3-12.1L148.7,87h-5.3l-2.7-21.1c-0.2,3.3-0.8,7.5-1.8,12.3
						l-2.3,11.9h-5.4l6.4-29.1h6.8l2.4,20.6l7.6-20.6h7.4L160,90.1z"/>
					<path class="st2" d="M173.6,67.8l-3.1,22.3h-5.3l3.1-22.3H173.6z M169.6,62.2c-0.6-0.5-0.8-1.2-0.8-2.1c0-1,0.4-1.9,1.1-2.6
						s1.6-1,2.6-1c0.9,0,1.6,0.3,2.2,0.8c0.6,0.5,0.8,1.3,0.8,2.1c0,1-0.4,1.9-1.1,2.5c-0.7,0.7-1.6,1-2.6,1
						C170.9,63.1,170.2,62.8,169.6,62.2z"/>
					<path class="st2" d="M194.3,70l-2.4,3c-1.7-1.2-3.5-1.8-5.4-1.8c-1.2,0-2,0.2-2.7,0.6c-0.6,0.4-0.9,1-0.9,1.7
						c0,0.7,0.3,1.2,0.9,1.6c0.6,0.4,1.8,0.9,3.5,1.4c2.1,0.6,3.6,1.5,4.6,2.5c1,1.1,1.5,2.4,1.5,4.2c0,1.5-0.4,2.8-1.2,3.9
						c-0.8,1.1-1.9,2-3.4,2.6c-1.5,0.6-3.2,0.9-5.1,0.9c-1.9,0-3.5-0.3-5-1c-1.5-0.6-2.7-1.5-3.7-2.5l2.8-2.9
						c1.8,1.5,3.8,2.3,6.1,2.3c1.4,0,2.5-0.3,3.1-0.9c0.7-0.6,1-1.2,1-2c0-0.6-0.1-1.1-0.4-1.5c-0.3-0.4-0.7-0.7-1.3-1
						s-1.6-0.7-2.8-1.1c-2.1-0.6-3.5-1.5-4.4-2.5c-0.9-1-1.4-2.3-1.4-3.9c0-1.2,0.3-2.3,1-3.3c0.7-1,1.7-1.9,3.1-2.5
						c1.3-0.6,3-0.9,4.9-0.9C189.5,67.2,192.1,68.1,194.3,70z"/>
					<path class="st2" d="M205.1,67.8l-3.1,22.3h-5.3l3.1-22.3H205.1z M201,62.2c-0.6-0.5-0.8-1.2-0.8-2.1c0-1,0.4-1.9,1.1-2.6
						s1.6-1,2.6-1c0.9,0,1.6,0.3,2.2,0.8c0.6,0.5,0.8,1.3,0.8,2.1c0,1-0.4,1.9-1.1,2.5c-0.7,0.7-1.6,1-2.6,1
						C202.3,63.1,201.6,62.8,201,62.2z"/>
					<path class="st2" d="M210.7,88.3c-1.6-1.7-2.3-4-2.3-6.9c0-2.2,0.4-4.4,1.2-6.5c0.8-2.2,2.1-4,3.9-5.4c1.8-1.5,4.1-2.2,6.9-2.2
						c2.9,0,5.1,0.8,6.6,2.5c1.6,1.7,2.3,4,2.3,6.8c0,2.2-0.4,4.4-1.2,6.5c-0.8,2.2-2.1,4-3.9,5.5c-1.8,1.5-4.1,2.2-7,2.2
						C214.5,90.8,212.2,89.9,210.7,88.3z M221.3,84.9c0.9-1.2,1.6-2.6,1.9-4.2c0.4-1.6,0.5-3.2,0.5-4.8c0-3.1-1.3-4.7-3.8-4.7
						c-1.5,0-2.8,0.6-3.7,1.7c-0.9,1.1-1.6,2.5-2,4.1c-0.4,1.6-0.6,3.2-0.6,4.7c0,3.3,1.3,4.9,3.8,4.9
						C219.2,86.7,220.4,86.1,221.3,84.9z M225.2,55.6l1.7,4.2l-9.8,3.8l-1.2-2.7L225.2,55.6z"/>
					<path class="st2" d="M251.6,68.6c0.9,1,1.4,2.3,1.4,4c0,0.5,0,1-0.1,1.5l-2.2,15.9h-5.3l2.1-15.1c0.1-0.5,0.1-0.9,0.1-1.1
						c0-0.8-0.2-1.4-0.5-1.8s-0.8-0.5-1.4-0.5c-1.9,0-3.9,1.9-5.9,5.7l-1.8,12.8h-5.3l3.1-22.3h4.6l-0.2,4.1
						c2.2-3.2,4.7-4.8,7.7-4.8C249.4,67.2,250.6,67.7,251.6,68.6z"/>
					<path class="st2" d="M283.2,63.1c1.4,1.3,2.1,2.9,2.1,4.8c0,1.6-0.5,3.1-1.6,4.4c-1.1,1.3-2.7,2.2-4.9,2.8
						c1.6,0.1,2.9,0.7,3.9,1.7s1.5,2.4,1.5,4.1c0,1.5-0.4,3-1.2,4.5c-0.8,1.5-2.1,2.8-3.8,3.8s-3.8,1.5-6.3,1.5
						c-1.9,0-3.6-0.4-5-1.1c-1.4-0.7-2.6-1.7-3.6-3.1l3.4-2.7c0.7,1,1.5,1.6,2.4,2.1c0.9,0.4,1.9,0.6,3,0.6c1.7,0,3.1-0.5,4.2-1.6
						c1.1-1.1,1.6-2.5,1.6-4.3c0-1.2-0.4-2.1-1.1-2.6c-0.7-0.5-1.8-0.8-3.3-0.8h-2.3l1.1-3.8h1.5c1.7,0,3-0.5,3.9-1.4
						c0.9-0.9,1.3-2.1,1.3-3.4c0-1-0.3-1.8-0.9-2.3c-0.6-0.5-1.5-0.8-2.6-0.8s-2.1,0.2-3.1,0.6c-1,0.4-1.9,1-3,1.9l-2.4-3.2
						c1.4-1.2,2.9-2.1,4.4-2.6c1.5-0.6,3.1-0.9,4.8-0.9C279.9,61.2,281.8,61.9,283.2,63.1z"/>
				</g>
			</g>
			<g>
				<path class="st2" d="M66.6,0.5l37,15.6c1.9,0.8,3.4,2.5,3.9,4.5l8,30.4c0.5,2.1,0.1,4.3-1.3,5.9l-27,33.6
					c-1.5,1.9-4,2.8-6.4,2.4L36,85.4c-2.8-0.5-5-2.7-5.5-5.5l-8.3-47.7c-0.5-2.6,0.6-5.2,2.8-6.7L60.1,1.2C62-0.1,64.4-0.4,66.6,0.5
					z"/>
				<g class="">
					
						<radialGradient id="SVGID_00000073711327344883800680000000664227520396545942_" cx="-142.3843" cy="1609.7123" r="41.17" gradientTransform="matrix(0.9872 0.1594 -0.1594 0.9872 456.4661 -1485.1292)" gradientUnits="userSpaceOnUse">
						<stop  offset="0" style="stop-color:#FFFFFF"/>
						<stop  offset="5.000000e-02" style="stop-color:#FAC6FC"/>
						<stop  offset="9.000000e-02" style="stop-color:#F692F9"/>
						<stop  offset="0.14" style="stop-color:#F265F7"/>
						<stop  offset="0.18" style="stop-color:#EF40F6"/>
						<stop  offset="0.23" style="stop-color:#ED24F4"/>
						<stop  offset="0.27" style="stop-color:#EB10F3"/>
						<stop  offset="0.32" style="stop-color:#EA04F3"/>
						<stop  offset="0.36" style="stop-color:#EA00F3"/>
						<stop  offset="0.64" style="stop-color:#E700F0"/>
						<stop  offset="0.85" style="stop-color:#B400EC"/>
						<stop  offset="1" style="stop-color:#9100EA"/>
					</radialGradient>
					<radialGradient id="SVGID_2" cx="-132.5743" cy="1720.4421" r="41.78" gradientTransform="matrix(0.9872 0.1594 -0.1594 0.9872 465.4262 -1595.3491)" gradientUnits="userSpaceOnUse">
						<stop offset="0" style="stop-color:#a03ab4"/>
						<stop offset="1" style="stop-color:#5d00a8"/>
					</radialGradient>
					<path class="elemento-svg st5" d="M62.5,63.4c-0.5-0.1-0.8-0.3-1-0.5
						s-0.2-0.5-0.2-0.9c0.2-2,0.5-3.7,0.9-5.1s1-2.6,1.7-3.5c0.7-0.9,1.6-1.9,2.7-2.7c0.9-0.7,1.8-1.4,2.8-1.9s2.2-1.2,3.6-2
						c1.9-1,3.4-1.9,4.5-2.6c1.1-0.7,2-1.6,2.8-2.7s1.2-2.3,1.3-3.7c0.1-1.7-0.2-3.2-1-4.5s-2-2.4-3.5-3.2c-1.6-0.8-3.4-1.3-5.5-1.5
						c-1.7-0.1-3.4,0-5,0.4s-3.1,1-4.4,1.9s-2.3,2-3,3.2c-0.1,0.3-0.3,0.5-0.5,0.7C58.5,34.9,58.2,35,58,35c-0.6,0-1.3-0.2-2.1-0.6
						S54.5,33.5,54,33s-0.7-0.8-0.7-1.1c0-0.3,0.1-0.6,0.2-1s0.3-0.7,0.6-1.1c0.1-0.1,0.1-0.2,0.1-0.2s0.1-0.1,0.1-0.2
						c0.8-1.3,2.1-2.6,3.7-3.7c1.7-1.1,3.7-2,6.1-2.7c2.4-0.6,5-0.8,7.8-0.6c3.2,0.3,6,1.1,8.6,2.4c2.6,1.4,4.5,3.1,5.9,5.4
						c1.4,2.2,2,4.8,1.7,7.6c-0.2,2.4-0.8,4.4-1.8,6s-2.2,2.9-3.6,3.8c-1.4,1-3.2,2-5.5,3.2C76,51.5,74.9,52,74,52.5s-1.7,1-2.4,1.6
						l-0.3,0.2c-0.9,0.6-1.6,1.3-2.2,2s-1,1.5-1.3,2.5s-0.5,2.1-0.7,3.4c0,0.4-0.2,0.7-0.3,0.9c-0.2,0.2-0.4,0.3-0.8,0.4
						c-0.4,0.1-0.8,0.1-1.5,0C63.7,63.7,63,63.6,62.5,63.4L62.5,63.4z M60.4,78.4c-0.7-0.5-1.3-1.2-1.7-1.9s-0.6-1.6-0.5-2.4
						c0.1-0.7,0.4-1.4,0.9-2.1s1.2-1.3,2-1.7c0.8-0.4,1.6-0.6,2.4-0.5c0.8,0.1,1.6,0.4,2.4,0.9s1.3,1.2,1.7,1.9
						c0.4,0.8,0.6,1.5,0.5,2.3s-0.4,1.6-0.9,2.3c-0.5,0.7-1.2,1.3-2,1.7s-1.6,0.6-2.5,0.5C62,79.2,61.2,78.9,60.4,78.4L60.4,78.4z"
						/>
				</g>
			</g>
		</g>
	</g>
</g>
</svg>
