<?xml version="1.0" encoding="UTF-8"?>
<svg id="Capa_3" data-name="Capa 3" xmlns="http://www.w3.org/2000/svg" xmlns:xlink="http://www.w3.org/1999/xlink" viewBox="0 0 314.98 117.27">
  <defs>
    <linearGradient id="Degradado_sin_nombre_105" data-name="Degradado sin nombre 105" x1="2946.35" y1="10459.58" x2="3414.77" y2="10459.58" gradientTransform="translate(3307.21 10532.74) rotate(-180)" gradientUnits="userSpaceOnUse">
      <stop offset="0" stop-color="#7f21ea"/>
      <stop offset=".05" stop-color="#7439ec"/>
      <stop offset=".14" stop-color="#635ff1"/>
      <stop offset=".24" stop-color="#547ff5"/>
      <stop offset=".34" stop-color="#499af8"/>
      <stop offset=".46" stop-color="#40aefa"/>
      <stop offset=".59" stop-color="#39bdfc"/>
      <stop offset=".74" stop-color="#36c5fd"/>
      <stop offset="1" stop-color="#35c8fe"/>
    </linearGradient>
    <linearGradient id="linear-gradient" x1="-532.85" y1="-1853.72" x2="-535.89" y2="-1868.64" gradientTransform="translate(-937 1642.42) rotate(50.05)" gradientUnits="userSpaceOnUse">
      <stop offset="0" stop-color="#34a4ff"/>
      <stop offset="1" stop-color="#00ffec"/>
    </linearGradient>
    <linearGradient id="linear-gradient-2" x1="-510.82" y1="-1851.29" x2="-497.8" y2="-1886.16" xlink:href="#linear-gradient"/>
    <linearGradient id="Degradado_sin_nombre_56" data-name="Degradado sin nombre 56" x1="-551.6" y1="-1847.94" x2="-563.85" y2="-1862.2" gradientTransform="translate(-937 1642.42) rotate(50.05)" gradientUnits="userSpaceOnUse">
      <stop offset="0" stop-color="#34a4ff"/>
      <stop offset="1" stop-color="#00ffec"/>
    </linearGradient>
    <filter id="outer-glow-11" filterUnits="userSpaceOnUse">
      <feOffset dx="0" dy="0"/>
      <feGaussianBlur result="blur" stdDeviation="5.67"/>
      <feFlood flood-color="#009cff" flood-opacity="1"/>
      <feComposite in2="blur" operator="in"/>
      <feComposite in="SourceGraphic"/>
    </filter>
    <linearGradient id="linear-gradient-3" x1="178.06" y1="229.75" x2="213.48" y2="229.75" gradientTransform="translate(78.65 -254.15) rotate(34.35)" gradientUnits="userSpaceOnUse">
      <stop offset="0" stop-color="#00d2ea"/>
      <stop offset="1" stop-color="#0075ff"/>
    </linearGradient>
    <linearGradient id="Degradado_sin_nombre_55" data-name="Degradado sin nombre 55" x1="201.96" y1="265.09" x2="214.9" y2="265.09" gradientTransform="translate(78.65 -254.15) rotate(34.35)" gradientUnits="userSpaceOnUse">
      <stop offset="0" stop-color="#009efc"/>
      <stop offset="1" stop-color="#347fe9"/>
    </linearGradient>
    <linearGradient id="linear-gradient-4" x1="164.93" y1="296.42" x2="213.14" y2="296.42" xlink:href="#linear-gradient-3"/>
    <linearGradient id="Degradado_sin_nombre_55-2" data-name="Degradado sin nombre 55" x1="128.67" y1="290.39" x2="166.58" y2="290.39" xlink:href="#Degradado_sin_nombre_55"/>
    <linearGradient id="Degradado_sin_nombre_55-3" data-name="Degradado sin nombre 55" x1="144.1" y1="224.13" x2="175.95" y2="224.13" xlink:href="#Degradado_sin_nombre_55"/>
    <radialGradient id="Degradado_sin_nombre_49" data-name="Degradado sin nombre 49" cx="73.32" cy="53.36" fx="73.32" fy="53.36" r="37.05" gradientTransform="translate(49.5 -28.11) rotate(37.38)" gradientUnits="userSpaceOnUse">
      <stop offset="0" stop-color="#0cf"/>
      <stop offset=".33" stop-color="#02caff"/>
      <stop offset=".55" stop-color="#0bc6ff"/>
      <stop offset=".73" stop-color="#1ac0ff"/>
      <stop offset=".89" stop-color="#2fb6ff"/>
      <stop offset="1" stop-color="#42aeff"/>
    </radialGradient>
    <linearGradient id="linear-gradient-5" x1="128.74" y1="250.39" x2="150.72" y2="250.39" xlink:href="#linear-gradient-3"/>
    <filter id="outer-glow-12" filterUnits="userSpaceOnUse">
      <feOffset dx="0" dy="0"/>
      <feGaussianBlur result="blur-2" stdDeviation="5.67"/>
      <feFlood flood-color="#00baff" flood-opacity="1"/>
      <feComposite in2="blur-2" operator="in"/>
      <feComposite in="SourceGraphic"/>
    </filter>
    <linearGradient id="linear-gradient-6" x1="178.06" y1="229.75" x2="213.48" y2="229.75" gradientTransform="translate(78.65 -254.15) rotate(34.35)" gradientUnits="userSpaceOnUse">
      <stop offset="0" stop-color="#00e9b8"/>
      <stop offset="1" stop-color="#00c0ff"/>
    </linearGradient>
    <linearGradient id="Degradado_sin_nombre_92" data-name="Degradado sin nombre 92" x1="201.96" y1="265.09" x2="214.9" y2="265.09" gradientTransform="translate(78.65 -254.15) rotate(34.35)" gradientUnits="userSpaceOnUse">
      <stop offset="0" stop-color="#00aefc"/>
      <stop offset="1" stop-color="#2588e9"/>
    </linearGradient>
    <linearGradient id="linear-gradient-7" x1="164.93" y1="296.42" x2="213.14" y2="296.42" xlink:href="#linear-gradient-6"/>
    <linearGradient id="Degradado_sin_nombre_92-2" data-name="Degradado sin nombre 92" x1="128.67" y1="290.39" x2="166.58" y2="290.39" xlink:href="#Degradado_sin_nombre_92"/>
    <linearGradient id="Degradado_sin_nombre_92-3" data-name="Degradado sin nombre 92" x1="144.1" y1="224.13" x2="175.95" y2="224.13" xlink:href="#Degradado_sin_nombre_92"/>
    <linearGradient id="Degradado_sin_nombre_92-4" data-name="Degradado sin nombre 92" x1="43.35" y1="50.85" x2="100.37" y2="50.85" gradientTransform="translate(49.5 -28.11) rotate(37.38)" xlink:href="#Degradado_sin_nombre_92"/>
    <linearGradient id="linear-gradient-8" x1="128.74" y1="250.39" x2="150.72" y2="250.39" xlink:href="#linear-gradient-6"/>
  </defs>
  <path d="m37.35,31.71l240.72-1.67c9.2,0,17.38,5.87,20.33,14.59l14.65,43.3c4.71,13.92-5.64,28.34-20.33,28.34H22.71c-14.69,0-25.04-14.43-20.33-28.34l14.65-43.3c2.95-8.72,11.13-12.92,20.33-12.92Z" style="fill: url(#Degradado_sin_nombre_105); stroke: #fff; stroke-miterlimit: 10; stroke-width: 2px;"/>
  <g>
    <path d="m202.43,65.78c-.87-.54-1.53-1.31-1.99-2.32-.46-1.01-.69-2.22-.69-3.61,0-2.11.44-4.18,1.33-6.22.89-2.03,2.15-3.7,3.8-5.01,1.65-1.3,3.56-1.96,5.74-1.96,1.28,0,2.37.25,3.29.75.92.5,1.59,1.16,2.03,1.98.44.82.61,1.69.52,2.62,0,.16-.07.28-.17.37s-.26.16-.48.22c-.21.06-.46.11-.75.14-.28.03-.6.05-.95.05-.16,0-.28-.02-.37-.06-.09-.04-.15-.09-.2-.17s-.07-.18-.08-.32c0-.55-.11-1.05-.33-1.51-.23-.45-.58-.82-1.05-1.09-.47-.28-1.07-.41-1.79-.41-1.49,0-2.79.57-3.9,1.7-1.11,1.14-1.96,2.53-2.54,4.2-.58,1.66-.87,3.25-.87,4.77,0,.85.12,1.58.37,2.19s.63,1.09,1.14,1.42c.51.33,1.16.5,1.95.5s1.56-.27,2.41-.82c.85-.55,1.6-1.27,2.25-2.16s1.08-1.8,1.29-2.74c.04-.24.08-.51.15-.81.04-.26.08-.5.11-.72l2.63.66-2.01,8.33c-.03.14-.1.25-.2.34-.1.09-.25.15-.42.2-.18.04-.4.07-.67.07-.51,0-.88-.02-1.1-.05-.22-.04-.36-.1-.42-.18-.06-.08-.07-.21-.04-.39l1-4.17,1.28-1.1c-.46,1.4-1.09,2.56-1.89,3.48-.8.92-1.67,1.59-2.59,2.01-.92.42-1.83.64-2.71.64-1.18,0-2.2-.27-3.07-.8Zm5.99-7.73c-.11-.05-.18-.13-.21-.25-.03-.12-.02-.28.02-.51.08-.42.16-.74.25-.96.09-.21.2-.37.32-.46.13-.09.3-.14.52-.15.45-.01.89-.03,1.34-.04s.92-.02,1.42-.04c.91-.03,1.82-.06,2.73-.1.91-.04,1.59-.07,2.04-.1.16,0,.29,0,.39.05s.17.12.2.23c.04.11.04.26,0,.46-.08.46-.17.81-.27,1.05-.1.24-.21.4-.31.49-.11.08-.25.13-.42.14-.62.04-1.38.07-2.28.1-.89.03-1.76.06-2.61.08-.51,0-.96.02-1.35.03-.38,0-.81.02-1.28.02-.24.01-.42,0-.52-.05Z" style="fill: #fff;"/>
    <path d="m220.63,65.97c-.71-.43-1.24-1-1.59-1.73-.35-.72-.53-1.54-.53-2.43,0-1.59.34-3.11,1.03-4.55.69-1.44,1.66-2.6,2.9-3.49,1.24-.89,2.66-1.33,4.26-1.33.83,0,1.55.14,2.15.42s1.07.67,1.38,1.16.48,1.05.48,1.69c0,1.33-.55,2.46-1.64,3.39-1.1.93-2.6,1.64-4.52,2.13s-4.19.75-6.82.79c-.02,0-.04,0-.06,0-.13-.01-.23-.05-.29-.12-.07-.07-.11-.19-.12-.36-.02-.17,0-.42.04-.75.04-.26.08-.46.13-.6.05-.13.11-.23.19-.28.08-.05.19-.08.34-.08,1.77,0,3.38-.12,4.83-.39,1.45-.26,2.67-.69,3.64-1.29.97-.6,1.46-1.35,1.46-2.27,0-.23-.05-.43-.15-.6s-.26-.3-.46-.39-.46-.13-.77-.13c-.94,0-1.79.36-2.56,1.09s-1.37,1.64-1.81,2.73c-.44,1.1-.66,2.14-.66,3.13,0,.56.07,1.03.22,1.41s.36.67.66.87c.3.2.67.29,1.11.29.37,0,.75-.08,1.13-.23.38-.15.75-.37,1.1-.64.36-.28.69-.61,1-.99.1-.11.19-.19.27-.23s.16-.05.25-.05c.12,0,.29.08.53.22.24.14.46.31.68.5s.37.35.44.46c.07.13.09.26.05.39-.04.13-.13.28-.28.46-.47.55-.97,1-1.51,1.36s-1.14.63-1.78.81c-.64.19-1.35.28-2.13.28-1.01,0-1.88-.21-2.58-.64Z" style="fill: #fff;"/>
    <path d="m231.33,66.32c-.23-.04-.38-.12-.45-.22-.08-.11-.09-.26-.04-.46.36-1.26.78-2.82,1.25-4.68.47-1.86.79-3.18.94-3.96.14-.73.25-1.42.31-2.07.06-.65.09-1.16.08-1.52v-.05c0-.16.09-.29.26-.39.17-.11.41-.19.73-.24s.7-.08,1.14-.08c.21,0,.39.02.52.05.13.03.23.08.29.15s.09.16.08.27c.02.32.01.66-.02,1.02-.04.36-.09.73-.15,1.09-.01.05-.02.11-.02.16-.06.31-.12.59-.18.85-.06.25-.14.51-.22.78-.08.25-.16.46-.23.65l-.29-.08c.62-.99,1.32-1.87,2.09-2.65s1.57-1.39,2.39-1.84c.82-.44,1.61-.67,2.36-.67.71,0,1.28.19,1.71.57s.7.93.8,1.65c.1.71.02,1.54-.23,2.49l-.25.94-.27-.72c.59-.93,1.25-1.77,1.97-2.52.72-.75,1.46-1.34,2.24-1.77s1.53-.64,2.26-.64,1.38.18,1.86.55c.47.37.77.91.89,1.62.12.71.05,1.56-.22,2.56l-1.28,4.8c-.25.97-.42,1.73-.5,2.28-.08.55-.14,1.05-.16,1.52,0,.16-.09.28-.24.36-.16.09-.39.15-.7.19-.31.04-.71.06-1.2.06-.23,0-.4-.02-.54-.06-.13-.04-.23-.1-.29-.19s-.09-.21-.09-.36c0-.25.02-.56.06-.95.04-.39.11-.85.21-1.4.1-.54.23-1.13.41-1.76l1.14-4.28c.15-.51.21-.93.19-1.26-.02-.33-.1-.56-.25-.72-.14-.15-.32-.23-.53-.23-.69,0-1.46.38-2.29,1.13s-1.6,1.68-2.29,2.78c-.69,1.1-1.16,2.11-1.4,3.03-.18.69-.33,1.33-.42,1.91-.1.59-.18,1.08-.24,1.49,0,.05,0,.09,0,.12,0,.03,0,.07-.02.12-.02.15-.11.27-.25.36-.15.1-.37.16-.66.2-.29.04-.68.06-1.15.06-.21,0-.38-.02-.51-.05-.13-.04-.23-.1-.3-.18-.07-.08-.11-.21-.1-.38.02-.35.1-.92.24-1.71.14-.79.34-1.68.61-2.68l1.11-4.13c.13-.48.19-.88.18-1.19-.01-.31-.08-.53-.22-.68-.13-.14-.31-.21-.53-.21-.72,0-1.52.4-2.39,1.2-.88.8-1.68,1.8-2.41,2.99-.73,1.2-1.23,2.34-1.49,3.42-.13.5-.23.91-.3,1.25s-.15.74-.24,1.22c-.04.2-.07.36-.1.48-.04.23-.19.39-.46.49-.27.1-.66.15-1.16.15-.42,0-.74-.02-.97-.06Z" style="fill: #fff;"/>
    <path d="m256.4,66.03c-.62-.39-1.11-.95-1.45-1.69s-.51-1.61-.51-2.62c0-1.51.32-2.97.96-4.41.64-1.43,1.53-2.6,2.66-3.5,1.13-.9,2.39-1.35,3.78-1.35.87,0,1.6.2,2.2.61.6.41,1.03.99,1.29,1.73.26.75.35,1.61.26,2.58l-1.01,4.29c-.42,1.01-.9,1.88-1.47,2.61-.56.73-1.22,1.3-1.98,1.71s-1.6.61-2.54.61c-.84,0-1.57-.19-2.2-.58Zm4.77-2.21c.49-.27.93-.64,1.3-1.11.38-.46.68-.99.92-1.58l.88-3.66c.09-.55.06-1.02-.09-1.42-.15-.4-.39-.7-.74-.91s-.75-.31-1.22-.31c-.83,0-1.6.36-2.32,1.07-.72.71-1.3,1.61-1.74,2.69s-.66,2.11-.66,3.09c0,.53.09.99.27,1.37s.42.67.73.87.69.3,1.12.3c.54,0,1.06-.14,1.55-.41Zm2.8,2.54c-.1-.07-.17-.19-.23-.36-.13-.41-.24-.91-.33-1.49-.1-.58-.15-1.18-.15-1.78,0-.6.04-1.13.13-1.59l.89-3.74c.15-.66.41-1.43.77-2.32.16-.39.32-.77.48-1.13.16-.36.33-.68.49-.96.06-.12.12-.22.18-.28.06-.06.13-.1.2-.12.07-.02.18-.02.3-.02.27,0,.6.06.97.19.38.13.68.3.91.5.23.2.29.4.19.6-.18.34-.36.72-.55,1.15-.31.72-.58,1.47-.83,2.24-.12.35-.24.78-.36,1.27-.12.49-.27,1.07-.44,1.73-.05.25-.09.46-.13.61-.04.15-.08.35-.15.59-.09.37-.14.76-.14,1.16s.03.8.09,1.2c.06.4.15.8.26,1.21.06.19.08.34.07.45,0,.11-.05.2-.11.29-.06.08-.16.16-.29.23-.27.12-.59.23-.96.32-.37.09-.67.14-.9.14-.16,0-.29-.03-.38-.1Z" style="fill: #fff;"/>
    <path d="m139.79,100.72c-.7-.46-1.22-1.09-1.56-1.88-.34-.79-.51-1.67-.51-2.63,0-1.32.29-2.67.88-4.03.59-1.37,1.45-2.5,2.58-3.41,1.13-.9,2.45-1.36,3.97-1.36,1.04,0,1.9.23,2.61.69s1.22,1.09,1.57,1.87c.34.79.51,1.66.51,2.62,0,1.33-.29,2.68-.88,4.04-.59,1.36-1.45,2.5-2.58,3.41-1.13.91-2.45,1.36-3.97,1.36-1.04,0-1.9-.23-2.6-.7Zm5.45-2.22c.76-.78,1.36-1.74,1.78-2.86s.63-2.15.63-3.07c0-.65-.1-1.23-.3-1.75-.2-.52-.51-.93-.92-1.23-.41-.3-.93-.46-1.55-.46-.97,0-1.83.39-2.59,1.18-.76.78-1.35,1.73-1.77,2.85s-.63,2.15-.63,3.08c0,.65.1,1.23.3,1.75s.5.92.91,1.22c.41.3.93.46,1.55.46.97,0,1.83-.39,2.6-1.18Z" style="fill: #fff;"/>
    <path d="m151.4,101.14c-.16-.04-.27-.09-.32-.17-.05-.08-.06-.2-.02-.35.28-1.02.69-2.56,1.21-4.63.53-2.06.85-3.43.99-4.09.17-.77.27-1.49.31-2.16s.04-1.19.01-1.56v-.05c0-.12.05-.22.17-.3s.29-.15.52-.19c.23-.05.5-.07.82-.07.15,0,.28.01.37.04.1.03.16.07.21.13s.07.13.07.21c.03.49.02.97-.01,1.45-.03.47-.09.93-.17,1.37-.01.08-.03.14-.05.2-.05.27-.1.52-.16.74s-.12.46-.19.69c-.06.21-.12.4-.18.55l-.21-.06c.63-1.03,1.35-1.96,2.17-2.79s1.66-1.49,2.53-1.98c.87-.49,1.68-.73,2.43-.73.66,0,1.19.18,1.6.53.41.35.67.85.78,1.5.11.64.05,1.39-.18,2.25l-.38,1.42-.18-.46c.61-.96,1.31-1.84,2.09-2.63.78-.8,1.58-1.43,2.41-1.9.82-.47,1.59-.7,2.31-.7s1.25.17,1.68.52c.44.34.71.83.83,1.46.12.63.07,1.37-.15,2.22l-1.42,5.18c-.25.97-.4,1.76-.47,2.35-.07.6-.1,1.13-.1,1.61,0,.1-.06.19-.18.26-.11.07-.28.12-.5.15-.22.03-.51.05-.85.05-.15,0-.28-.02-.37-.05-.09-.03-.16-.08-.21-.14-.05-.06-.07-.15-.08-.25,0-.28,0-.62.04-1.02s.09-.87.18-1.41c.09-.54.21-1.12.38-1.74l1.29-4.82c.15-.55.21-1.01.18-1.37-.03-.36-.14-.63-.31-.8-.17-.17-.4-.26-.67-.26-.77,0-1.65.42-2.63,1.26-.98.84-1.88,1.87-2.68,3.07-.81,1.21-1.34,2.29-1.6,3.27-.21.81-.37,1.51-.46,2.1-.09.59-.16,1.09-.19,1.49,0,.04,0,.08-.01.1,0,.03,0,.06-.02.1,0,.1-.07.19-.19.26s-.29.12-.51.16c-.22.03-.49.05-.82.05-.16,0-.3-.01-.4-.04-.1-.03-.18-.07-.23-.13-.05-.06-.08-.15-.07-.27.05-.41.14-1,.29-1.79.15-.79.34-1.61.57-2.47l1.28-4.77c.15-.55.21-1,.18-1.36s-.13-.62-.3-.79c-.18-.17-.41-.25-.7-.25-.82,0-1.74.44-2.75,1.31-1.01.87-1.94,1.96-2.77,3.26-.83,1.31-1.4,2.55-1.69,3.73-.11.46-.2.87-.28,1.25-.08.37-.17.77-.26,1.2-.04.27-.08.48-.11.61-.04.17-.15.3-.35.38s-.47.12-.83.12c-.32,0-.56-.02-.72-.05Z" style="fill: #fff;"/>
    <path d="m174.54,101.14c-.16-.03-.27-.09-.32-.17s-.06-.19-.02-.33c.13-.5.26-1,.39-1.51.38-1.43.75-2.88,1.13-4.35.37-1.47.6-2.44.7-2.9.17-.81.27-1.52.31-2.13s.04-1.15,0-1.6c0-.11.05-.21.16-.3.11-.09.29-.16.54-.21.25-.05.56-.08.94-.08.19,0,.32.03.4.08.08.05.12.15.14.28.03.3.04.63.03,1.01,0,.38-.04.75-.08,1.13-.04.37-.09.71-.15,1.01-.05.3-.12.6-.2.92-.08.31-.18.64-.28.98-.19.52-.39,1.05-.61,1.57l-.75.6c.59-1.32,1.38-2.57,2.35-3.77.97-1.2,2-2.16,3.1-2.9,1.09-.73,2.11-1.1,3.04-1.1.7,0,1.26.17,1.7.51s.71.83.83,1.45.07,1.37-.17,2.22l-1.39,5.17c-.24.84-.39,1.55-.46,2.12-.07.57-.11,1.08-.13,1.52-.01.17-.02.28-.02.35-.02.11-.08.2-.19.27-.11.06-.28.11-.5.14-.22.03-.52.05-.89.05-.14,0-.25-.01-.33-.04-.08-.02-.14-.07-.18-.13-.04-.06-.06-.15-.06-.24-.01-.25,0-.58.03-.99.03-.41.09-.89.18-1.43.09-.55.2-1.13.35-1.73l1.34-5.1c.11-.48.15-.88.12-1.21-.03-.33-.14-.58-.31-.75-.17-.17-.4-.25-.67-.25-.82,0-1.76.43-2.83,1.3s-2.04,1.95-2.91,3.23c-.87,1.29-1.45,2.5-1.73,3.63-.18.77-.32,1.36-.4,1.77s-.15.79-.21,1.14c-.02.1-.04.21-.06.31-.04.18-.15.31-.33.39-.19.08-.47.12-.84.12-.33,0-.57-.02-.74-.05Z" style="fill: #fff;"/>
    <path d="m189.5,101.18c-.16-.03-.26-.09-.31-.17-.05-.09-.05-.22,0-.39l.38-1.38c.13-.48.26-.96.39-1.44.27-1.03.52-2.01.74-2.92.22-.91.41-1.75.58-2.52.15-.75.28-1.44.39-2.07.11-.63.2-1.22.28-1.78,0-.13.02-.25.03-.38.01-.12.06-.22.14-.3.08-.08.21-.13.4-.17.18-.04.43-.06.76-.06.25,0,.44.02.58.05s.23.08.27.15c.05.07.06.17.05.31-.02.21-.04.42-.07.63-.08.55-.17,1.15-.28,1.8-.11.65-.23,1.33-.38,2.04-.12.63-.3,1.4-.53,2.3-.23.91-.47,1.85-.73,2.82-.09.32-.16.6-.23.85-.07.25-.14.51-.22.79l-.38,1.42c-.04.13-.1.23-.17.3-.07.07-.18.11-.32.14-.15.03-.36.04-.63.04-.34,0-.59-.01-.75-.04Zm3.92-16.55c-.21-.13-.37-.3-.49-.5-.12-.2-.18-.41-.18-.62,0-.3.08-.58.25-.84s.39-.46.66-.62c.27-.15.55-.23.84-.23.25,0,.47.06.68.19.21.13.37.29.49.5.12.21.18.41.18.63,0,.29-.08.56-.25.82-.17.26-.39.47-.66.63-.27.16-.55.24-.85.24-.24,0-.46-.07-.67-.2Z" style="fill: #fff;"/>
    <path d="m194.37,108.19c-.09-.06-.13-.15-.12-.27.04-.8.1-1.59.2-2.35s.21-1.48.35-2.13c.13-.66.28-1.34.45-2.04l2.14-8.66c.22-.91.34-1.7.36-2.39.02-.69,0-1.3-.05-1.85-.02-.05-.02-.09-.03-.13,0-.04-.01-.09-.03-.15h0c0-.11,0-.2.03-.27.03-.07.08-.12.16-.16.08-.05.21-.1.39-.13s.38-.07.59-.1.39-.04.53-.04c.12,0,.2.01.26.04s.09.08.12.15.05.19.07.35c.04.31.06.55.06.74.05.68.05,1.35,0,2.03-.04.68-.15,1.36-.32,2.05l-.85,3.59-1.21,4.83c-.06.16-.11.36-.17.62-.14.59-.27,1.17-.39,1.74-.12.56-.22,1.19-.31,1.88-.09.69-.16,1.44-.22,2.23,0,.1-.02.17-.05.23s-.08.09-.15.13c-.07.03-.17.06-.29.08-.16.03-.34.05-.53.06-.19.01-.4.02-.62.02-.17,0-.31-.03-.39-.09Zm12.53-20.22c.61.39,1.09.93,1.42,1.64s.5,1.52.5,2.45c0,1.5-.33,2.97-.98,4.41-.66,1.45-1.56,2.63-2.71,3.55-1.15.92-2.44,1.38-3.85,1.38-.88,0-1.61-.21-2.2-.64s-1.01-1.02-1.26-1.78c-.25-.76-.32-1.62-.2-2.59l.92-3.82c.42-1.01.92-1.91,1.53-2.69.6-.78,1.3-1.39,2.09-1.83.79-.44,1.65-.66,2.56-.66.85,0,1.57.19,2.19.58Zm-4.58,1.66c-.6.34-1.14.79-1.62,1.36-.48.57-.86,1.2-1.15,1.89l-.84,3.47c-.11.69-.08,1.29.09,1.79.17.51.46.89.87,1.15.41.26.91.4,1.49.4.94,0,1.83-.38,2.66-1.15s1.51-1.74,2.02-2.93c.51-1.18.76-2.35.76-3.5,0-.59-.1-1.11-.3-1.56s-.48-.79-.86-1.04c-.38-.25-.82-.38-1.33-.38-.61,0-1.21.17-1.8.5Z" style="fill: #fff;"/>
    <path d="m210.32,101.12c-.16-.03-.27-.09-.32-.17s-.05-.2-.01-.35c.07-.25.13-.49.2-.72.06-.24.14-.5.22-.81.47-1.78.87-3.3,1.19-4.56s.53-2.13.62-2.62c.13-.67.22-1.33.27-1.95.05-.63.06-1.25.03-1.85,0-.11.06-.21.16-.28.1-.07.27-.13.51-.17.24-.04.56-.06.97-.07.18,0,.32.02.4.07.08.05.13.14.13.26.03.55.02,1.09-.02,1.62-.04.53-.11,1.06-.21,1.6-.03.24-.07.47-.12.71-.05.24-.09.47-.13.72-.08.32-.16.62-.25.91-.08.29-.18.57-.28.85l-1.4,1.36c.59-1.52,1.35-2.91,2.27-4.16.92-1.25,1.95-2.25,3.09-2.98,1.14-.74,2.32-1.11,3.56-1.11.13,0,.22.04.27.12s.06.22.02.41c-.08.4-.16.72-.25.95-.09.23-.19.39-.3.48-.11.09-.24.13-.4.13-1.06,0-2.1.35-3.12,1.04-1.02.69-1.92,1.64-2.7,2.83-.78,1.2-1.36,2.53-1.74,4-.2.77-.34,1.38-.43,1.83s-.16.82-.22,1.14c0,.08-.02.13-.03.17,0,.04-.02.1-.03.17,0,.13-.06.23-.15.3-.09.07-.21.11-.38.15-.17.03-.39.05-.66.05-.35,0-.6-.02-.77-.05Z" style="fill: #fff;"/>
    <path d="m222.69,100.79c-.67-.42-1.17-.99-1.49-1.72-.33-.73-.49-1.57-.49-2.51,0-1.5.34-2.95,1.02-4.37.68-1.42,1.63-2.57,2.85-3.47s2.6-1.34,4.15-1.34c.82,0,1.51.14,2.08.41.57.27.99.64,1.26,1.11.28.47.42.99.42,1.56,0,1.15-.5,2.16-1.51,3.04-1,.88-2.34,1.59-4,2.11-1.66.52-3.48.85-5.47.98l.17-1.48c1.4-.11,2.75-.34,4.07-.7,1.31-.36,2.4-.85,3.26-1.49.86-.63,1.3-1.37,1.3-2.22,0-.33-.07-.61-.2-.86s-.34-.44-.62-.58-.63-.21-1.07-.21c-1.12,0-2.1.4-2.94,1.21-.84.81-1.48,1.8-1.93,2.99-.45,1.19-.67,2.32-.67,3.39,0,.62.09,1.16.26,1.62.17.46.44.82.8,1.07.36.25.82.38,1.38.38.47,0,.93-.1,1.38-.29.46-.19.89-.46,1.29-.79.41-.33.77-.72,1.09-1.16.07-.07.13-.12.19-.16.06-.04.13-.05.21-.05.12,0,.28.06.48.18.2.12.38.25.54.4.16.15.24.28.24.39,0,.08-.02.15-.05.21s-.09.14-.16.23h0c-.45.55-.95,1.03-1.5,1.44s-1.15.73-1.81.96-1.35.34-2.09.34c-.97,0-1.79-.21-2.46-.62Z" style="fill: #fff;"/>
    <path d="m235.2,101.05c-.64-.24-1.16-.58-1.56-1-.4-.42-.67-.9-.8-1.43v-.02c-.02-.12-.04-.23-.05-.33s-.02-.18,0-.23c.02-.11.1-.22.26-.32.16-.1.36-.18.6-.25.24-.06.46-.1.67-.1.1,0,.17.02.23.05.05.04.09.11.11.22,0,.03.01.06.02.09.08.4.24.75.49,1.04.24.29.57.52.98.69s.9.25,1.48.25,1.06-.09,1.53-.28c.47-.19.84-.46,1.13-.82.28-.36.42-.79.42-1.29,0-.37-.11-.71-.32-1.01-.22-.3-.48-.55-.8-.77s-.75-.49-1.29-.81c-.66-.37-1.2-.7-1.61-.99-.41-.29-.76-.65-1.04-1.07-.28-.43-.43-.93-.43-1.5,0-.76.21-1.43.65-2,.43-.57,1.02-1.01,1.77-1.32.75-.31,1.6-.46,2.54-.46.67,0,1.29.11,1.87.34.58.22,1.04.54,1.39.95.35.41.52.87.53,1.4,0,.09,0,.16-.03.21-.02.05-.05.1-.1.13-.05.04-.12.08-.22.11-.13.05-.33.11-.6.16-.27.05-.47.08-.6.08-.08,0-.14-.02-.19-.07s-.08-.14-.1-.28c-.04-.27-.17-.52-.38-.73s-.48-.38-.81-.5c-.33-.12-.67-.18-1.04-.18-.51,0-.96.08-1.37.25-.41.17-.72.4-.95.7-.23.3-.35.64-.35,1.03,0,.31.09.58.28.83.19.25.42.46.71.66.29.19.69.43,1.2.72.71.38,1.29.73,1.75,1.04.45.31.84.71,1.16,1.2s.49,1.07.49,1.74c0,.88-.24,1.64-.73,2.28s-1.14,1.12-1.96,1.45c-.82.33-1.73.5-2.74.5-.82,0-1.55-.12-2.19-.36Z" style="fill: #fff;"/>
    <path d="m247.13,100.85c-.63-.38-1.12-.92-1.46-1.64-.34-.72-.51-1.57-.51-2.57,0-1.45.34-2.9,1.01-4.33.68-1.43,1.62-2.61,2.82-3.53,1.21-.92,2.56-1.38,4.08-1.38.75,0,1.43.13,2.03.38s1.09.62,1.44,1.1.53,1.06.53,1.73c0,1.02-.33,1.91-.98,2.68s-1.51,1.37-2.56,1.81c-1.05.44-2.18.69-3.39.76-.66.04-1.29.05-1.89.03-.61-.02-1.17-.06-1.68-.11-.07,0-.13-.01-.16-.02-.04,0-.09-.02-.16-.02l.27-1.64c.08,0,.18.02.28.04.52.06,1.04.1,1.56.11s1.11,0,1.77-.05c.94-.06,1.77-.24,2.49-.54s1.29-.69,1.7-1.19.61-1.06.61-1.7c0-.37-.08-.68-.24-.93-.16-.25-.39-.44-.69-.57-.3-.13-.66-.19-1.07-.19-1.18,0-2.2.45-3.04,1.35-.84.9-1.47,1.97-1.89,3.21-.42,1.24-.62,2.37-.62,3.37,0,.6.08,1.11.25,1.51.17.4.42.71.75.91.33.2.75.3,1.26.3.54,0,1.04-.1,1.51-.3.47-.2.89-.49,1.27-.85.38-.36.72-.78,1.01-1.27.05-.08.11-.13.16-.16.06-.03.13-.04.21-.03.11,0,.25.05.4.11.15.06.3.14.45.24.14.09.26.18.34.27.07.08.11.16.13.22.02.06.02.13,0,.21-.02.08-.07.18-.14.29-.33.55-.78,1.05-1.33,1.5s-1.2.81-1.93,1.07-1.52.39-2.34.39-1.61-.19-2.25-.57Z" style="fill: #fff;"/>
    <path d="m258.04,101.14c-.16-.03-.27-.09-.32-.17s-.06-.19-.02-.33c.13-.5.26-1,.39-1.51.38-1.43.75-2.88,1.13-4.35.37-1.47.6-2.44.7-2.9.17-.81.27-1.52.31-2.13s.04-1.15,0-1.6c0-.11.05-.21.16-.3.11-.09.29-.16.54-.21.25-.05.56-.08.94-.08.19,0,.32.03.4.08.08.05.12.15.14.28.03.3.04.63.03,1.01,0,.38-.04.75-.08,1.13-.04.37-.09.71-.15,1.01-.05.3-.12.6-.2.92-.08.31-.18.64-.28.98-.19.52-.39,1.05-.61,1.57l-.75.6c.59-1.32,1.38-2.57,2.35-3.77.97-1.2,2-2.16,3.1-2.9,1.09-.73,2.11-1.1,3.04-1.1.7,0,1.26.17,1.7.51s.71.83.83,1.45.07,1.37-.17,2.22l-1.39,5.17c-.24.84-.39,1.55-.46,2.12-.07.57-.11,1.08-.13,1.52-.01.17-.02.28-.02.35-.02.11-.08.2-.19.27-.11.06-.28.11-.5.14-.22.03-.52.05-.89.05-.14,0-.25-.01-.33-.04-.08-.02-.14-.07-.18-.13-.04-.06-.06-.15-.06-.24-.01-.25,0-.58.03-.99.03-.41.09-.89.18-1.43.09-.55.2-1.13.35-1.73l1.34-5.1c.11-.48.15-.88.12-1.21-.03-.33-.14-.58-.31-.75-.17-.17-.4-.25-.67-.25-.82,0-1.76.43-2.83,1.3s-2.04,1.95-2.91,3.23c-.87,1.29-1.45,2.5-1.73,3.63-.18.77-.32,1.36-.4,1.77s-.15.79-.21,1.14c-.02.1-.04.21-.06.31-.04.18-.15.31-.33.39-.19.08-.47.12-.84.12-.33,0-.57-.02-.74-.05Z" style="fill: #fff;"/>
    <path d="m274.01,89.22c-.08-.04-.12-.11-.13-.22-.01-.1,0-.25.04-.44.05-.25.09-.43.15-.56.05-.12.12-.21.21-.26.09-.05.22-.07.38-.07.52,0,1.12-.01,1.79-.04.67-.03,1.4-.06,2.19-.11.55-.02,1.1-.05,1.64-.07.54-.02.99-.04,1.33-.04.12,0,.21.02.28.05.07.03.12.09.14.16.02.07.02.18,0,.33-.05.3-.11.53-.17.68s-.14.25-.22.3c-.08.05-.18.08-.29.08-.42.02-.81.03-1.17.05s-.76.03-1.19.05c-1.06.05-1.98.1-2.78.13-.79.04-1.41.05-1.84.04-.16,0-.28-.02-.36-.06Zm.75,11.63c-.39-.27-.64-.66-.75-1.18s-.11-1.17.03-1.95c.04-.18.08-.38.13-.58.04-.2.1-.44.17-.72l.08-.36,1.35-5.38c.15-.57.28-1.06.38-1.47.11-.46.2-.87.27-1.23.11-.55.19-1.07.25-1.56.06-.49.1-.97.13-1.45.03-.29.05-.58.07-.86,0-.1.06-.19.15-.24.09-.06.24-.1.46-.14s.53-.05.94-.05c.19,0,.33.03.42.1.09.06.14.18.13.34,0,.19,0,.47,0,.84-.03.44-.08.93-.14,1.47s-.15,1.08-.25,1.64c-.04.25-.08.47-.13.67-.04.2-.09.4-.13.61-.13.57-.25,1.08-.37,1.53l-1.41,5.56c-.04.15-.09.35-.15.6-.02.14-.04.27-.07.39-.03.12-.06.25-.09.4-.07.41-.09.74-.06.98.03.24.12.42.26.53.14.12.34.17.6.17.27,0,.52-.03.75-.09.23-.06.48-.13.76-.22.21-.06.35-.09.42-.09.11,0,.2.04.27.12.07.08.12.2.14.37s.03.38,0,.62c0,.12-.03.21-.05.28s-.07.13-.12.18c-.05.05-.12.09-.2.12-.22.09-.47.17-.77.25-.29.08-.61.14-.93.18s-.63.06-.92.06c-.7,0-1.24-.13-1.63-.4Z" style="fill: #fff;"/>
    <path d="m283.76,100.83c-.69-.39-1.22-.94-1.59-1.63s-.56-1.5-.56-2.41c0-1.43.34-2.88,1.03-4.34s1.65-2.67,2.9-3.62c1.25-.95,2.67-1.43,4.27-1.43.79,0,1.48.14,2.07.41.59.28,1.04.67,1.35,1.18s.47,1.1.47,1.76c0,.98-.31,1.86-.92,2.65-.61.79-1.44,1.41-2.47,1.85-1.04.44-2.17.67-3.4.67-.73,0-1.42-.1-2.06-.29-.64-.19-1.21-.49-1.69-.91l.46-1.43c.37.36.86.62,1.46.78.6.16,1.26.24,1.99.24.86,0,1.62-.15,2.29-.46.67-.3,1.19-.72,1.57-1.23.37-.52.56-1.08.56-1.7,0-.34-.07-.65-.22-.93-.15-.28-.37-.51-.67-.67-.3-.17-.67-.25-1.12-.25-1.05,0-2.01.43-2.88,1.3-.87.87-1.55,1.92-2.05,3.15s-.75,2.33-.75,3.31c0,.63.12,1.16.35,1.59.24.43.56.76.96.98.41.22.87.33,1.4.33.45,0,.89-.07,1.31-.2.42-.13.83-.33,1.23-.58.4-.25.8-.57,1.21-.95l.03-.02c.04-.05.09-.09.16-.11.06-.02.13-.03.19-.03.11,0,.25.07.43.2.18.13.33.29.46.47.13.18.2.33.2.46,0,.08-.03.17-.08.24-.05.08-.12.16-.21.26,0,0,0,0,0,0s0,0,0,0c-.7.64-1.51,1.12-2.41,1.45s-1.85.5-2.84.5c-.91,0-1.71-.2-2.4-.59Z" style="fill: #fff;"/>
  </g>
  <g>
    <g>
      <polygon points="131.64 50.9 150.2 14.52 169.56 28.02 131.64 50.9" style="fill: url(#linear-gradient);"/>
      <path d="m131.64,50.9c5.75-12.02,11.15-25.14,17.26-37.03,0,0,.76-1.49.76-1.49l1.38.96c6.92,4.74,14.28,9.95,21.13,14.81-13.13,7.87-27.48,15.26-40.53,22.76h0Zm0,0c9.56-5.97,18.92-12.37,28.12-18.37,3.01-1.93,6.03-3.83,9.07-5.72l-.08,2.37c-6.32-4.32-13.16-9.05-19.39-13.46,0,0,2.14-.53,2.14-.53-1.5,2.92-3.05,5.8-4.63,8.67-4.79,8.72-10.53,18.18-15.23,27.03h0Z"/>
    </g>
    <g>
      <polygon points="130.04 58.57 176.07 38.98 180.87 68.21 130.04 58.57" style="fill: url(#linear-gradient-2);"/>
      <path d="m130.04,58.57c15.48-6.97,31.49-14.98,47.15-21.64.07.11,2.58,15.62,2.76,16.43.2,1.18,2.58,16.02,2.69,16.67-17.36-3.21-35.36-7.83-52.59-11.45h0Zm0,0c12.44,2.19,26.32,4.03,38.72,6.07,4.13.7,8.27,1.37,12.39,2.15l-1.7,1.66c-1.25-7.28-3.64-21.94-4.79-29.23,0,0,1.99,1.09,1.99,1.09-3.74,1.56-7.5,3.06-11.26,4.57-11.31,4.46-24.03,9.06-35.34,13.69h0Z"/>
    </g>
    <g>
      <polygon points="127.65 39.07 120.58 13.3 137.05 13.28 127.65 39.07" style="fill: url(#Degradado_sin_nombre_56);"/>
      <path d="m127.65,39.07c-2.89-8.9-6.52-18.12-8.98-27.19,6.39-.06,14.11-.1,20.46-.05-3.19,9.16-7.76,18.34-11.48,27.24h0Zm0,0c2.17-6.45,3.97-13.69,5.98-20.12.65-2.07,1.31-4.13,2.05-6.17l1.37,1.96c-4.76.05-11.64.05-16.47,0,0,0,1.39-1.82,1.39-1.82,2.27,8.66,3.53,17.37,5.68,26.15h0Z"/>
    </g>
  </g>
  <g>
    <g style="filter: url(#outer-glow-11);">
      <g>
        <polygon points="119.83 63.96 104.24 24.39 99.35 31.14 106.96 60.69 119.83 63.96" style="fill: url(#linear-gradient-3);"/>
        <polygon points="89.03 89.36 92.55 105.04 119.84 66.45 106.48 63.06 89.03 89.36" style="fill: url(#Degradado_sin_nombre_55);"/>
        <polygon points="53.46 82.03 38.13 97.45 90.4 106.41 86.76 90.15 53.46 82.03" style="fill: url(#linear-gradient-4);"/>
        <polygon points="44.59 47.35 29.45 45.89 36.53 95.73 51.82 80.35 44.59 47.35" style="fill: url(#Degradado_sin_nombre_55-2);"/>
        <polygon points="97.57 29.58 102.59 22.67 69.85 14.12 72.79 24.33 97.57 29.58" style="fill: url(#Degradado_sin_nombre_55-3);"/>
        <path d="m46.9,46.68l7.23,33.02,33.13,8.08,17.44-26.29-7.61-29.56-24.98-5.29-25.21,20.04Z" style="fill: url(#Degradado_sin_nombre_49);"/>
        <polygon points="70.47 24.94 67.46 14.46 31.08 43.63 45.24 44.99 70.47 24.94" style="fill: url(#linear-gradient-5);"/>
        <path d="m67.87,11.11L26.78,44.06l7.84,55.23,57.86,9.92,30.67-43.36-17.69-44.92-37.59-9.82Zm36.83,50.39l-17.44,26.29-33.13-8.08-7.23-33.02,25.21-20.04,24.98,5.29,7.61,29.56Zm-2.11-38.83l-5.02,6.92-24.78-5.25-2.94-10.21,32.73,8.55Zm-35.13-8.21l3.01,10.48-25.23,20.05-14.16-1.36,36.38-29.17Zm-30.93,81.27l-7.07-49.84,15.14,1.46,7.22,33-15.29,15.38Zm1.61,1.72l15.33-15.42,33.3,8.12,3.65,16.26-52.27-8.96Zm54.42,7.59l-3.51-15.67,17.45-26.3,13.36,3.39-27.29,38.58Zm11.69-80.65l15.58,39.57-12.86-3.27-7.61-29.56,4.89-6.75Z"/>
      </g>
      <g>
        <ellipse cx="76.51" cy="56.22" rx="4.53" ry="4.39" transform="translate(-14.61 82.88) rotate(-52.62)" style="fill: #a29d99;"/>
        <g>
          <path d="m68.11,62.81c-1.46-2.16-2.11-4.74-1.84-7.25.51-4.76,4.02-8.58,8.72-9.5,1.54-.3,3.09-.29,4.59.04.55.12,1.12-.02,1.55-.38.43-.36.68-.88.67-1.44v-.15c-.01-.86-.63-1.61-1.47-1.78-5.69-1.15-11.71,1.05-14.98,5.46-3.8,5.13-3.96,11.85-.42,17.14.13.2.3.36.49.49.55.37,1.29.44,1.97.11.48-.23.83-.66.97-1.16.15-.53.06-1.11-.26-1.57Z"/>
          <path d="m60.54,65.18c-2.99-5.12-3.02-11.63-.1-17.43,3.31-6.56,10.78-10.46,18.17-9.49.53.07,1.07-.09,1.49-.45.43-.36.69-.89.72-1.44v-.2c.06-.99-.63-1.83-1.59-1.95-9.11-1.11-18.12,3.7-22.42,11.97-3.55,6.83-3.44,14.72.28,21.12.14.24.33.44.54.59.57.39,1.35.44,2.05.07.49-.26.86-.71,1.02-1.24.16-.53.09-1.1-.18-1.56Z"/>
          <path d="m87.48,64.96c3.8-5.13,3.96-11.85.42-17.14-.52-.77-1.55-1.04-2.45-.6-.48.23-.83.66-.97,1.16-.15.53-.06,1.1.26,1.57,1.46,2.16,2.11,4.74,1.84,7.25-.51,4.76-4.02,8.58-8.72,9.5-1.54.3-3.09.29-4.59-.04-.55-.12-1.12.02-1.55.38-.43.36-.68.88-.67,1.44v.15c0,.62.32,1.17.81,1.5.19.13.42.23.66.28,5.69,1.15,11.71-1.05,14.98-5.46Z"/>
          <path d="m96.02,66.56c3.55-6.83,3.44-14.72-.28-21.12-.5-.87-1.62-1.17-2.6-.66-.49.26-.86.71-1.02,1.24-.16.53-.09,1.1.18,1.56,2.99,5.12,3.02,11.63.1,17.43-3.31,6.56-10.78,10.46-18.17,9.49-.53-.07-1.07.09-1.49.45-.43.36-.69.89-.72,1.44v.2c-.05.68.27,1.3.79,1.65.23.16.5.26.8.3,9.11,1.11,18.11-3.7,22.42-11.97Z"/>
        </g>
      </g>
    </g>
    <g style="filter: url(#outer-glow-12);">
      <g>
        <polygon points="119.83 63.96 104.24 24.39 99.35 31.14 106.96 60.69 119.83 63.96" style="fill: url(#linear-gradient-6);"/>
        <polygon points="89.03 89.36 92.55 105.04 119.84 66.45 106.48 63.06 89.03 89.36" style="fill: url(#Degradado_sin_nombre_92);"/>
        <polygon points="53.46 82.03 38.13 97.45 90.4 106.41 86.76 90.15 53.46 82.03" style="fill: url(#linear-gradient-7);"/>
        <polygon points="44.59 47.35 29.45 45.89 36.53 95.73 51.82 80.35 44.59 47.35" style="fill: url(#Degradado_sin_nombre_92-2);"/>
        <polygon points="97.57 29.58 102.59 22.67 69.85 14.12 72.79 24.33 97.57 29.58" style="fill: url(#Degradado_sin_nombre_92-3);"/>
        <path d="m46.9,46.68l7.23,33.02,33.13,8.08,17.44-26.29-7.61-29.56-24.98-5.29-25.21,20.04Z" style="fill: url(#Degradado_sin_nombre_92-4);"/>
        <polygon points="70.47 24.94 67.46 14.46 31.08 43.63 45.24 44.99 70.47 24.94" style="fill: url(#linear-gradient-8);"/>
        <path d="m67.87,11.11L26.78,44.06l7.84,55.23,57.86,9.92,30.67-43.36-17.69-44.92-37.59-9.82Zm36.83,50.39l-17.44,26.29-33.13-8.08-7.23-33.02,25.21-20.04,24.98,5.29,7.61,29.56Zm-2.11-38.83l-5.02,6.92-24.78-5.25-2.94-10.21,32.73,8.55Zm-35.13-8.21l3.01,10.48-25.23,20.05-14.16-1.36,36.38-29.17Zm-30.93,81.27l-7.07-49.84,15.14,1.46,7.22,33-15.29,15.38Zm1.61,1.72l15.33-15.42,33.3,8.12,3.65,16.26-52.27-8.96Zm54.42,7.59l-3.51-15.67,17.45-26.3,13.36,3.39-27.29,38.58Zm11.69-80.65l15.58,39.57-12.86-3.27-7.61-29.56,4.89-6.75Z"/>
      </g>
      <g>
        <ellipse cx="76.51" cy="56.22" rx="4.53" ry="4.39" transform="translate(-14.61 82.88) rotate(-52.62)" style="fill: #fff;"/>
        <g>
          <path d="m68.11,62.81c-1.46-2.16-2.11-4.74-1.84-7.25.51-4.76,4.02-8.58,8.72-9.5,1.54-.3,3.09-.29,4.59.04.55.12,1.12-.02,1.55-.38.43-.36.68-.88.67-1.44v-.15c-.01-.86-.63-1.61-1.47-1.78-5.69-1.15-11.71,1.05-14.98,5.46-3.8,5.13-3.96,11.85-.42,17.14.13.2.3.36.49.49.55.37,1.29.44,1.97.11.48-.23.83-.66.97-1.16.15-.53.06-1.11-.26-1.57Z" style="fill: #fff;"/>
          <path d="m60.54,65.18c-2.99-5.12-3.02-11.63-.1-17.43,3.31-6.56,10.78-10.46,18.17-9.49.53.07,1.07-.09,1.49-.45.43-.36.69-.89.72-1.44v-.2c.06-.99-.63-1.83-1.59-1.95-9.11-1.11-18.12,3.7-22.42,11.97-3.55,6.83-3.44,14.72.28,21.12.14.24.33.44.54.59.57.39,1.35.44,2.05.07.49-.26.86-.71,1.02-1.24.16-.53.09-1.1-.18-1.56Z" style="fill: #fff;"/>
          <path d="m87.48,64.96c3.8-5.13,3.96-11.85.42-17.14-.52-.77-1.55-1.04-2.45-.6-.48.23-.83.66-.97,1.16-.15.53-.06,1.1.26,1.57,1.46,2.16,2.11,4.74,1.84,7.25-.51,4.76-4.02,8.58-8.72,9.5-1.54.3-3.09.29-4.59-.04-.55-.12-1.12.02-1.55.38-.43.36-.68.88-.67,1.44v.15c0,.62.32,1.17.81,1.5.19.13.42.23.66.28,5.69,1.15,11.71-1.05,14.98-5.46Z" style="fill: #fff;"/>
          <path d="m96.02,66.56c3.55-6.83,3.44-14.72-.28-21.12-.5-.87-1.62-1.17-2.6-.66-.49.26-.86.71-1.02,1.24-.16.53-.09,1.1.18,1.56,2.99,5.12,3.02,11.63.1,17.43-3.31,6.56-10.78,10.46-18.17,9.49-.53-.07-1.07.09-1.49.45-.43.36-.69.89-.72,1.44v.2c-.05.68.27,1.3.79,1.65.23.16.5.26.8.3,9.11,1.11,18.11-3.7,22.42-11.97Z" style="fill: #fff;"/>
        </g>
      </g>
    </g>
  </g>
</svg>